<?xml version="1.0" encoding="us-ascii" standalone="no"?><svg xmlns="http://www.w3.org/2000/svg" xmlns:xlink="http://www.w3.org/1999/xlink" contentStyleType="text/css" height="1126px" preserveAspectRatio="none" style="width:2137px;height:1126px;background:#FFFFFF;" version="1.1" viewBox="0 0 2137 1126" width="2137px" zoomAndPan="magnify"><defs/><g><!--cluster views--><g id="cluster_views"><path d="M185.5,6 L227.5,6 A3.75,3.75 0 0 1 230,8.5 L237,29.6094 L1664.5,29.6094 A2.5,2.5 0 0 1 1667,32.1094 L1667,1116.5 A2.5,2.5 0 0 1 1664.5,1119 L185.5,1119 A2.5,2.5 0 0 1 183,1116.5 L183,8.5 A2.5,2.5 0 0 1 185.5,6 " fill="none" style="stroke:#000000;stroke-width:1.5;"/><line style="stroke:#000000;stroke-width:1.5;" x1="183" x2="237" y1="29.6094" y2="29.6094"/><text fill="#000000" font-family="sans-serif" font-size="14" font-weight="bold" lengthAdjust="spacing" textLength="41" x="187" y="22.5332">views</text></g><!--class GameView--><g id="elem_GameView"><rect codeLine="2" fill="#F1F1F1" height="153.6563" id="GameView" rx="2.5" ry="2.5" style="stroke:#181818;stroke-width:0.5;" width="167" x="1483.5" y="121"/><ellipse cx="1529.25" cy="137" fill="#ADD1B2" rx="11" ry="11" style="stroke:#181818;stroke-width:1.0;"/><path d="M1532.0156,132.875 Q1532.1719,132.6563 1532.3594,132.5469 Q1532.5469,132.4375 1532.7656,132.4375 Q1533.1406,132.4375 1533.375,132.7031 Q1533.6094,132.9531 1533.6094,133.5625 L1533.6094,135.0156 Q1533.6094,135.625 1533.375,135.8906 Q1533.1406,136.1563 1532.7656,136.1563 Q1532.4219,136.1563 1532.2188,135.9531 Q1532.0156,135.7656 1531.9063,135.25 Q1531.8594,134.8906 1531.6719,134.7031 Q1531.3438,134.3281 1530.7344,134.1094 Q1530.125,133.8906 1529.5,133.8906 Q1528.7344,133.8906 1528.0938,134.2188 Q1527.4688,134.5469 1526.9688,135.2969 Q1526.4844,136.0469 1526.4844,137.0781 L1526.4844,138.1719 Q1526.4844,139.4063 1527.375,140.2344 Q1528.2656,141.0469 1529.8594,141.0469 Q1530.7969,141.0469 1531.4531,140.7969 Q1531.8438,140.6406 1532.2656,140.2031 Q1532.5313,139.9375 1532.6719,139.8594 Q1532.8281,139.7813 1533.0313,139.7813 Q1533.3594,139.7813 1533.6094,140.0469 Q1533.875,140.2969 1533.875,140.6406 Q1533.875,140.9844 1533.5313,141.3906 Q1533.0313,141.9688 1532.2344,142.2969 Q1531.1563,142.75 1529.8594,142.75 Q1528.3438,142.75 1527.1406,142.125 Q1526.1563,141.625 1525.4688,140.5625 Q1524.7813,139.4844 1524.7813,138.2031 L1524.7813,137.0469 Q1524.7813,135.7188 1525.3906,134.5781 Q1526.0156,133.4219 1527.1094,132.8125 Q1528.2031,132.1875 1529.4375,132.1875 Q1530.1719,132.1875 1530.8125,132.3594 Q1531.4688,132.5156 1532.0156,132.875 Z " fill="#000000"/><text fill="#000000" font-family="sans-serif" font-size="14" lengthAdjust="spacing" textLength="67" x="1549.75" y="142.7285">GameView</text><line style="stroke:#181818;stroke-width:0.5;" x1="1484.5" x2="1649.5" y1="153" y2="153"/><rect fill="none" height="6" style="stroke:#C82930;stroke-width:1.0;" width="6" x="1491.5" y="164.3047"/><text fill="#000000" font-family="sans-serif" font-size="14" lengthAdjust="spacing" textLength="81" x="1503.5" y="171.5332">game: Game</text><rect fill="none" height="6" style="stroke:#C82930;stroke-width:1.0;" width="6" x="1491.5" y="181.9141"/><text fill="#000000" font-family="sans-serif" font-size="14" lengthAdjust="spacing" textLength="141" x="1503.5" y="189.1426">boardView: BoardView</text><rect fill="none" height="6" style="stroke:#C82930;stroke-width:1.0;" width="6" x="1491.5" y="199.5234"/><text fill="#000000" font-family="sans-serif" font-size="14" lengthAdjust="spacing" textLength="121" x="1503.5" y="206.752">turnView: TurnView</text><line style="stroke:#181818;stroke-width:0.5;" x1="1484.5" x2="1649.5" y1="213.8281" y2="213.8281"/><ellipse cx="1494.5" cy="228.1328" fill="#84BE84" rx="3" ry="3" style="stroke:#038048;stroke-width:1.0;"/><text fill="#000000" font-family="sans-serif" font-size="14" lengthAdjust="spacing" textLength="115" x="1503.5" y="232.3613">GameView(Game)</text><ellipse cx="1494.5" cy="245.7422" fill="#84BE84" rx="3" ry="3" style="stroke:#038048;stroke-width:1.0;"/><text fill="#000000" font-family="sans-serif" font-size="14" lengthAdjust="spacing" textLength="74" x="1503.5" y="249.9707">playGame()</text><rect fill="#F24D5C" height="6" style="stroke:#C82930;stroke-width:1.0;" width="6" x="1491.5" y="260.3516"/><text fill="#000000" font-family="sans-serif" font-size="14" lengthAdjust="spacing" textLength="80" x="1503.5" y="267.5801">isResumed()</text></g><!--class BoardView--><g id="elem_BoardView"><rect codeLine="3" fill="#F1F1F1" height="118.4375" id="BoardView" rx="2.5" ry="2.5" style="stroke:#181818;stroke-width:0.5;" width="141" x="1509.5" y="449.5"/><ellipse cx="1543.4" cy="465.5" fill="#ADD1B2" rx="11" ry="11" style="stroke:#181818;stroke-width:1.0;"/><path d="M1546.1656,461.375 Q1546.3219,461.1563 1546.5094,461.0469 Q1546.6969,460.9375 1546.9156,460.9375 Q1547.2906,460.9375 1547.525,461.2031 Q1547.7594,461.4531 1547.7594,462.0625 L1547.7594,463.5156 Q1547.7594,464.125 1547.525,464.3906 Q1547.2906,464.6563 1546.9156,464.6563 Q1546.5719,464.6563 1546.3688,464.4531 Q1546.1656,464.2656 1546.0563,463.75 Q1546.0094,463.3906 1545.8219,463.2031 Q1545.4938,462.8281 1544.8844,462.6094 Q1544.275,462.3906 1543.65,462.3906 Q1542.8844,462.3906 1542.2438,462.7188 Q1541.6188,463.0469 1541.1188,463.7969 Q1540.6344,464.5469 1540.6344,465.5781 L1540.6344,466.6719 Q1540.6344,467.9063 1541.525,468.7344 Q1542.4156,469.5469 1544.0094,469.5469 Q1544.9469,469.5469 1545.6031,469.2969 Q1545.9938,469.1406 1546.4156,468.7031 Q1546.6813,468.4375 1546.8219,468.3594 Q1546.9781,468.2813 1547.1813,468.2813 Q1547.5094,468.2813 1547.7594,468.5469 Q1548.025,468.7969 1548.025,469.1406 Q1548.025,469.4844 1547.6813,469.8906 Q1547.1813,470.4688 1546.3844,470.7969 Q1545.3063,471.25 1544.0094,471.25 Q1542.4938,471.25 1541.2906,470.625 Q1540.3063,470.125 1539.6188,469.0625 Q1538.9313,467.9844 1538.9313,466.7031 L1538.9313,465.5469 Q1538.9313,464.2188 1539.5406,463.0781 Q1540.1656,461.9219 1541.2594,461.3125 Q1542.3531,460.6875 1543.5875,460.6875 Q1544.3219,460.6875 1544.9625,460.8594 Q1545.6188,461.0156 1546.1656,461.375 Z " fill="#000000"/><text fill="#000000" font-family="sans-serif" font-size="14" lengthAdjust="spacing" textLength="67" x="1561.6" y="471.2285">BoardView</text><line style="stroke:#181818;stroke-width:0.5;" x1="1510.5" x2="1649.5" y1="481.5" y2="481.5"/><rect fill="none" height="6" style="stroke:#C82930;stroke-width:1.0;" width="6" x="1517.5" y="492.8047"/><text fill="#000000" font-family="sans-serif" font-size="14" lengthAdjust="spacing" textLength="81" x="1529.5" y="500.0332">game: Game</text><line style="stroke:#181818;stroke-width:0.5;" x1="1510.5" x2="1649.5" y1="507.1094" y2="507.1094"/><rect fill="#F24D5C" height="6" style="stroke:#C82930;stroke-width:1.0;" width="6" x="1517.5" y="518.4141"/><text fill="#000000" font-family="sans-serif" font-size="14" lengthAdjust="spacing" textLength="115" x="1529.5" y="525.6426">BoardView(Game)</text><ellipse cx="1520.5" cy="539.0234" fill="#84BE84" rx="3" ry="3" style="stroke:#038048;stroke-width:1.0;"/><text fill="#000000" font-family="sans-serif" font-size="14" lengthAdjust="spacing" textLength="50" x="1529.5" y="543.252">writeln()</text><rect fill="#F24D5C" height="6" style="stroke:#C82930;stroke-width:1.0;" width="6" x="1517.5" y="553.6328"/><text fill="#000000" font-family="sans-serif" font-size="14" lengthAdjust="spacing" textLength="101" x="1529.5" y="560.8613">writeHorizontal()</text></g><!--class TurnView--><g id="elem_TurnView"><rect codeLine="4" fill="#F1F1F1" height="188.875" id="TurnView" rx="2.5" ry="2.5" style="stroke:#181818;stroke-width:0.5;" width="206" x="1268" y="414"/><ellipse cx="1337.25" cy="430" fill="#ADD1B2" rx="11" ry="11" style="stroke:#181818;stroke-width:1.0;"/><path d="M1340.0156,425.875 Q1340.1719,425.6563 1340.3594,425.5469 Q1340.5469,425.4375 1340.7656,425.4375 Q1341.1406,425.4375 1341.375,425.7031 Q1341.6094,425.9531 1341.6094,426.5625 L1341.6094,428.0156 Q1341.6094,428.625 1341.375,428.8906 Q1341.1406,429.1563 1340.7656,429.1563 Q1340.4219,429.1563 1340.2188,428.9531 Q1340.0156,428.7656 1339.9063,428.25 Q1339.8594,427.8906 1339.6719,427.7031 Q1339.3438,427.3281 1338.7344,427.1094 Q1338.125,426.8906 1337.5,426.8906 Q1336.7344,426.8906 1336.0938,427.2188 Q1335.4688,427.5469 1334.9688,428.2969 Q1334.4844,429.0469 1334.4844,430.0781 L1334.4844,431.1719 Q1334.4844,432.4063 1335.375,433.2344 Q1336.2656,434.0469 1337.8594,434.0469 Q1338.7969,434.0469 1339.4531,433.7969 Q1339.8438,433.6406 1340.2656,433.2031 Q1340.5313,432.9375 1340.6719,432.8594 Q1340.8281,432.7813 1341.0313,432.7813 Q1341.3594,432.7813 1341.6094,433.0469 Q1341.875,433.2969 1341.875,433.6406 Q1341.875,433.9844 1341.5313,434.3906 Q1341.0313,434.9688 1340.2344,435.2969 Q1339.1563,435.75 1337.8594,435.75 Q1336.3438,435.75 1335.1406,435.125 Q1334.1563,434.625 1333.4688,433.5625 Q1332.7813,432.4844 1332.7813,431.2031 L1332.7813,430.0469 Q1332.7813,428.7188 1333.3906,427.5781 Q1334.0156,426.4219 1335.1094,425.8125 Q1336.2031,425.1875 1337.4375,425.1875 Q1338.1719,425.1875 1338.8125,425.3594 Q1339.4688,425.5156 1340.0156,425.875 Z " fill="#000000"/><text fill="#000000" font-family="sans-serif" font-size="14" lengthAdjust="spacing" textLength="59" x="1357.75" y="435.7285">TurnView</text><line style="stroke:#181818;stroke-width:0.5;" x1="1269" x2="1473" y1="446" y2="446"/><rect fill="none" height="6" style="stroke:#C82930;stroke-width:1.0;" width="6" x="1276" y="457.3047"/><text fill="#000000" font-family="sans-serif" font-size="14" lengthAdjust="spacing" textLength="81" x="1288" y="464.5332">game: Game</text><line style="stroke:#181818;stroke-width:0.5;" x1="1269" x2="1473" y1="471.6094" y2="471.6094"/><rect fill="#F24D5C" height="6" style="stroke:#C82930;stroke-width:1.0;" width="6" x="1276" y="482.9141"/><text fill="#000000" font-family="sans-serif" font-size="14" lengthAdjust="spacing" textLength="107" x="1288" y="490.1426">TurnView(Game)</text><ellipse cx="1279" cy="503.5234" fill="#84BE84" rx="3" ry="3" style="stroke:#038048;stroke-width:1.0;"/><text fill="#000000" font-family="sans-serif" font-size="14" lengthAdjust="spacing" textLength="89" x="1288" y="507.752">resetPlayers()</text><ellipse cx="1279" cy="521.1328" fill="#84BE84" rx="3" ry="3" style="stroke:#038048;stroke-width:1.0;"/><text fill="#000000" font-family="sans-serif" font-size="14" lengthAdjust="spacing" textLength="79" x="1288" y="525.3613">dropToken()</text><ellipse cx="1279" cy="538.7422" fill="#84BE84" rx="3" ry="3" style="stroke:#038048;stroke-width:1.0;"/><text fill="#000000" font-family="sans-serif" font-size="14" lengthAdjust="spacing" textLength="103" x="1288" y="542.9707">visit(UserPlayer)</text><ellipse cx="1279" cy="556.3516" fill="#84BE84" rx="3" ry="3" style="stroke:#038048;stroke-width:1.0;"/><text fill="#000000" font-family="sans-serif" font-size="14" lengthAdjust="spacing" textLength="180" x="1288" y="560.5801">visit(RandomMachinePlayer)</text><ellipse cx="1279" cy="573.9609" fill="#84BE84" rx="3" ry="3" style="stroke:#038048;stroke-width:1.0;"/><text fill="#000000" font-family="sans-serif" font-size="14" lengthAdjust="spacing" textLength="174" x="1288" y="578.1895">visit(MinMaxMachinePlayer)</text><ellipse cx="1279" cy="591.5703" fill="#84BE84" rx="3" ry="3" style="stroke:#038048;stroke-width:1.0;"/><text fill="#000000" font-family="sans-serif" font-size="14" lengthAdjust="spacing" textLength="79" x="1288" y="595.7988">writeResult()</text></g><!--class PlayerView--><g id="elem_PlayerView"><rect codeLine="5" fill="#F1F1F1" height="83.2188" id="PlayerView" rx="2.5" ry="2.5" style="stroke:#181818;stroke-width:0.5;" width="127" x="1182.5" y="663"/><ellipse cx="1209.2" cy="679" fill="#A9DCDF" rx="11" ry="11" style="stroke:#181818;stroke-width:1.0;"/><path d="M1211.3875,680.7656 L1207.2469,680.7656 L1206.825,681.7969 L1207.2469,681.7969 Q1207.8563,681.7969 1208.1219,682.0313 Q1208.3875,682.2656 1208.3875,682.6563 Q1208.3875,683.0313 1208.1219,683.2656 Q1207.8563,683.5 1207.2469,683.5 L1204.95,683.5 Q1204.3406,683.5 1204.0906,683.2656 Q1203.825,683.0313 1203.825,682.6406 Q1203.825,682.2656 1204.1063,682.0313 Q1204.3719,681.7813 1204.9969,681.7969 L1207.6688,675.1406 L1206.5594,675.1406 Q1205.95,675.1406 1205.6844,674.9063 Q1205.4188,674.6719 1205.4188,674.2813 Q1205.4188,673.9063 1205.6844,673.6719 Q1205.95,673.4375 1206.5594,673.4375 L1210.2313,673.4375 L1213.6219,681.7969 Q1214.2156,681.7969 1214.4031,681.9375 Q1214.7938,682.2031 1214.7938,682.6563 Q1214.7938,683.0313 1214.5281,683.2656 Q1214.2781,683.5 1213.6688,683.5 L1211.3719,683.5 Q1210.7625,683.5 1210.4969,683.2656 Q1210.2313,683.0313 1210.2313,682.6406 Q1210.2313,682.2656 1210.4969,682.0313 Q1210.7625,681.7969 1211.3719,681.7969 L1211.7938,681.7969 L1211.3875,680.7656 Z M1210.6688,679.0625 L1209.3094,675.6875 L1207.9344,679.0625 L1210.6688,679.0625 Z " fill="#000000"/><text fill="#000000" font-family="sans-serif" font-size="14" font-style="italic" lengthAdjust="spacing" textLength="69" x="1225.8" y="684.7285">PlayerView</text><line style="stroke:#181818;stroke-width:0.5;" x1="1183.5" x2="1308.5" y1="695" y2="695"/><line style="stroke:#181818;stroke-width:0.5;" x1="1183.5" x2="1308.5" y1="703" y2="703"/><ellipse cx="1193.5" cy="717.3047" fill="#84BE84" rx="3" ry="3" style="stroke:#038048;stroke-width:1.0;"/><text fill="#000000" font-family="sans-serif" font-size="14" font-style="italic" lengthAdjust="spacing" textLength="80" x="1202.5" y="721.5332">dropToken()</text><polygon fill="#FFFF44" points="1193.5,729.9141,1197.5,733.9141,1193.5,737.9141,1189.5,733.9141" style="stroke:#B38D22;stroke-width:1.0;"/><text fill="#000000" font-family="sans-serif" font-size="14" font-style="italic" lengthAdjust="spacing" textLength="101" x="1202.5" y="739.1426">getColumn(): int</text></g><!--class MachinePlayerView--><g id="elem_MachinePlayerView"><rect codeLine="6" fill="#F1F1F1" height="153.6563" id="MachinePlayerView" rx="2.5" ry="2.5" style="stroke:#181818;stroke-width:0.5;" width="251" x="714.5" y="806"/><ellipse cx="774.25" cy="822" fill="#A9DCDF" rx="11" ry="11" style="stroke:#181818;stroke-width:1.0;"/><path d="M776.4375,823.7656 L772.2969,823.7656 L771.875,824.7969 L772.2969,824.7969 Q772.9063,824.7969 773.1719,825.0313 Q773.4375,825.2656 773.4375,825.6563 Q773.4375,826.0313 773.1719,826.2656 Q772.9063,826.5 772.2969,826.5 L770,826.5 Q769.3906,826.5 769.1406,826.2656 Q768.875,826.0313 768.875,825.6406 Q768.875,825.2656 769.1563,825.0313 Q769.4219,824.7813 770.0469,824.7969 L772.7188,818.1406 L771.6094,818.1406 Q771,818.1406 770.7344,817.9063 Q770.4688,817.6719 770.4688,817.2813 Q770.4688,816.9063 770.7344,816.6719 Q771,816.4375 771.6094,816.4375 L775.2813,816.4375 L778.6719,824.7969 Q779.2656,824.7969 779.4531,824.9375 Q779.8438,825.2031 779.8438,825.6563 Q779.8438,826.0313 779.5781,826.2656 Q779.3281,826.5 778.7188,826.5 L776.4219,826.5 Q775.8125,826.5 775.5469,826.2656 Q775.2813,826.0313 775.2813,825.6406 Q775.2813,825.2656 775.5469,825.0313 Q775.8125,824.7969 776.4219,824.7969 L776.8438,824.7969 L776.4375,823.7656 Z M775.7188,822.0625 L774.3594,818.6875 L772.9844,822.0625 L775.7188,822.0625 Z " fill="#000000"/><text fill="#000000" font-family="sans-serif" font-size="14" font-style="italic" lengthAdjust="spacing" textLength="123" x="794.75" y="827.7285">MachinePlayerView</text><line style="stroke:#181818;stroke-width:0.5;" x1="715.5" x2="964.5" y1="838" y2="838"/><polygon fill="none" points="725.5,847.3047,729.5,851.3047,725.5,855.3047,721.5,851.3047" style="stroke:#B38D22;stroke-width:1.0;"/><text fill="#000000" font-family="sans-serif" font-size="14" lengthAdjust="spacing" textLength="67" x="734.5" y="856.5332">title: String</text><rect fill="none" height="6" style="stroke:#C82930;stroke-width:1.0;" width="6" x="722.5" y="866.9141"/><text fill="#000000" font-family="sans-serif" font-size="14" lengthAdjust="spacing" textLength="140" x="734.5" y="874.1426">player: MachinePlayer</text><line style="stroke:#181818;stroke-width:0.5;" x1="715.5" x2="964.5" y1="881.2188" y2="881.2188"/><ellipse cx="725.5" cy="895.5234" fill="#84BE84" rx="3" ry="3" style="stroke:#038048;stroke-width:1.0;"/><text fill="#000000" font-family="sans-serif" font-size="14" lengthAdjust="spacing" textLength="225" x="734.5" y="899.752">MachinePlayerView(MachinePlayer)</text><rect fill="#F24D5C" height="6" style="stroke:#C82930;stroke-width:1.0;" width="6" x="722.5" y="910.1328"/><text fill="#000000" font-family="sans-serif" font-size="14" lengthAdjust="spacing" textLength="101" x="734.5" y="917.3613">getColumn(): int</text><ellipse cx="725.5" cy="930.7422" fill="#84BE84" rx="3" ry="3" style="stroke:#038048;stroke-width:1.0;"/><text fill="#000000" font-family="sans-serif" font-size="14" lengthAdjust="spacing" textLength="144" x="734.5" y="934.9707">writeChoosenColumn()</text><ellipse cx="725.5" cy="948.3516" fill="#84BE84" rx="3" ry="3" style="stroke:#038048;stroke-width:1.0;"/><text fill="#000000" font-family="sans-serif" font-size="14" lengthAdjust="spacing" textLength="79" x="734.5" y="952.5801">dropToken()</text></g><!--class MinMaxMachinePlayerView--><g id="elem_MinMaxMachinePlayerView"><rect codeLine="7" fill="#F1F1F1" height="65.6094" id="MinMaxMachinePlayerView" rx="2.5" ry="2.5" style="stroke:#181818;stroke-width:0.5;" width="298" x="538" y="1028.5"/><ellipse cx="598.25" cy="1044.5" fill="#ADD1B2" rx="11" ry="11" style="stroke:#181818;stroke-width:1.0;"/><path d="M601.0156,1040.375 Q601.1719,1040.1563 601.3594,1040.0469 Q601.5469,1039.9375 601.7656,1039.9375 Q602.1406,1039.9375 602.375,1040.2031 Q602.6094,1040.4531 602.6094,1041.0625 L602.6094,1042.5156 Q602.6094,1043.125 602.375,1043.3906 Q602.1406,1043.6563 601.7656,1043.6563 Q601.4219,1043.6563 601.2188,1043.4531 Q601.0156,1043.2656 600.9063,1042.75 Q600.8594,1042.3906 600.6719,1042.2031 Q600.3438,1041.8281 599.7344,1041.6094 Q599.125,1041.3906 598.5,1041.3906 Q597.7344,1041.3906 597.0938,1041.7188 Q596.4688,1042.0469 595.9688,1042.7969 Q595.4844,1043.5469 595.4844,1044.5781 L595.4844,1045.6719 Q595.4844,1046.9063 596.375,1047.7344 Q597.2656,1048.5469 598.8594,1048.5469 Q599.7969,1048.5469 600.4531,1048.2969 Q600.8438,1048.1406 601.2656,1047.7031 Q601.5313,1047.4375 601.6719,1047.3594 Q601.8281,1047.2813 602.0313,1047.2813 Q602.3594,1047.2813 602.6094,1047.5469 Q602.875,1047.7969 602.875,1048.1406 Q602.875,1048.4844 602.5313,1048.8906 Q602.0313,1049.4688 601.2344,1049.7969 Q600.1563,1050.25 598.8594,1050.25 Q597.3438,1050.25 596.1406,1049.625 Q595.1563,1049.125 594.4688,1048.0625 Q593.7813,1046.9844 593.7813,1045.7031 L593.7813,1044.5469 Q593.7813,1043.2188 594.3906,1042.0781 Q595.0156,1040.9219 596.1094,1040.3125 Q597.2031,1039.6875 598.4375,1039.6875 Q599.1719,1039.6875 599.8125,1039.8594 Q600.4688,1040.0156 601.0156,1040.375 Z " fill="#000000"/><text fill="#000000" font-family="sans-serif" font-size="14" lengthAdjust="spacing" textLength="169" x="618.75" y="1050.2285">MinMaxMachinePlayerView</text><line style="stroke:#181818;stroke-width:0.5;" x1="539" x2="835" y1="1060.5" y2="1060.5"/><line style="stroke:#181818;stroke-width:0.5;" x1="539" x2="835" y1="1068.5" y2="1068.5"/><ellipse cx="549" cy="1082.8047" fill="#84BE84" rx="3" ry="3" style="stroke:#038048;stroke-width:1.0;"/><text fill="#000000" font-family="sans-serif" font-size="14" lengthAdjust="spacing" textLength="272" x="558" y="1087.0332">MinMaxMachinePlayerView(MachinePlayer)</text></g><!--class RandomMachinePlayerView--><g id="elem_RandomMachinePlayerView"><rect codeLine="8" fill="#F1F1F1" height="65.6094" id="RandomMachinePlayerView" rx="2.5" ry="2.5" style="stroke:#181818;stroke-width:0.5;" width="304" x="199" y="1028.5"/><ellipse cx="259.25" cy="1044.5" fill="#ADD1B2" rx="11" ry="11" style="stroke:#181818;stroke-width:1.0;"/><path d="M262.0156,1040.375 Q262.1719,1040.1563 262.3594,1040.0469 Q262.5469,1039.9375 262.7656,1039.9375 Q263.1406,1039.9375 263.375,1040.2031 Q263.6094,1040.4531 263.6094,1041.0625 L263.6094,1042.5156 Q263.6094,1043.125 263.375,1043.3906 Q263.1406,1043.6563 262.7656,1043.6563 Q262.4219,1043.6563 262.2188,1043.4531 Q262.0156,1043.2656 261.9063,1042.75 Q261.8594,1042.3906 261.6719,1042.2031 Q261.3438,1041.8281 260.7344,1041.6094 Q260.125,1041.3906 259.5,1041.3906 Q258.7344,1041.3906 258.0938,1041.7188 Q257.4688,1042.0469 256.9688,1042.7969 Q256.4844,1043.5469 256.4844,1044.5781 L256.4844,1045.6719 Q256.4844,1046.9063 257.375,1047.7344 Q258.2656,1048.5469 259.8594,1048.5469 Q260.7969,1048.5469 261.4531,1048.2969 Q261.8438,1048.1406 262.2656,1047.7031 Q262.5313,1047.4375 262.6719,1047.3594 Q262.8281,1047.2813 263.0313,1047.2813 Q263.3594,1047.2813 263.6094,1047.5469 Q263.875,1047.7969 263.875,1048.1406 Q263.875,1048.4844 263.5313,1048.8906 Q263.0313,1049.4688 262.2344,1049.7969 Q261.1563,1050.25 259.8594,1050.25 Q258.3438,1050.25 257.1406,1049.625 Q256.1563,1049.125 255.4688,1048.0625 Q254.7813,1046.9844 254.7813,1045.7031 L254.7813,1044.5469 Q254.7813,1043.2188 255.3906,1042.0781 Q256.0156,1040.9219 257.1094,1040.3125 Q258.2031,1039.6875 259.4375,1039.6875 Q260.1719,1039.6875 260.8125,1039.8594 Q261.4688,1040.0156 262.0156,1040.375 Z " fill="#000000"/><text fill="#000000" font-family="sans-serif" font-size="14" lengthAdjust="spacing" textLength="175" x="279.75" y="1050.2285">RandomMachinePlayerView</text><line style="stroke:#181818;stroke-width:0.5;" x1="200" x2="502" y1="1060.5" y2="1060.5"/><line style="stroke:#181818;stroke-width:0.5;" x1="200" x2="502" y1="1068.5" y2="1068.5"/><ellipse cx="210" cy="1082.8047" fill="#84BE84" rx="3" ry="3" style="stroke:#038048;stroke-width:1.0;"/><text fill="#000000" font-family="sans-serif" font-size="14" lengthAdjust="spacing" textLength="278" x="219" y="1087.0332">RandomMachinePlayerView(MachinePlayer)</text></g><!--class UserPlayerView--><g id="elem_UserPlayerView"><rect codeLine="9" fill="#F1F1F1" height="100.8281" id="UserPlayerView" rx="2.5" ry="2.5" style="stroke:#181818;stroke-width:0.5;" width="203" x="1447.5" y="832.5"/><ellipse cx="1495.75" cy="848.5" fill="#ADD1B2" rx="11" ry="11" style="stroke:#181818;stroke-width:1.0;"/><path d="M1498.5156,844.375 Q1498.6719,844.1563 1498.8594,844.0469 Q1499.0469,843.9375 1499.2656,843.9375 Q1499.6406,843.9375 1499.875,844.2031 Q1500.1094,844.4531 1500.1094,845.0625 L1500.1094,846.5156 Q1500.1094,847.125 1499.875,847.3906 Q1499.6406,847.6563 1499.2656,847.6563 Q1498.9219,847.6563 1498.7188,847.4531 Q1498.5156,847.2656 1498.4063,846.75 Q1498.3594,846.3906 1498.1719,846.2031 Q1497.8438,845.8281 1497.2344,845.6094 Q1496.625,845.3906 1496,845.3906 Q1495.2344,845.3906 1494.5938,845.7188 Q1493.9688,846.0469 1493.4688,846.7969 Q1492.9844,847.5469 1492.9844,848.5781 L1492.9844,849.6719 Q1492.9844,850.9063 1493.875,851.7344 Q1494.7656,852.5469 1496.3594,852.5469 Q1497.2969,852.5469 1497.9531,852.2969 Q1498.3438,852.1406 1498.7656,851.7031 Q1499.0313,851.4375 1499.1719,851.3594 Q1499.3281,851.2813 1499.5313,851.2813 Q1499.8594,851.2813 1500.1094,851.5469 Q1500.375,851.7969 1500.375,852.1406 Q1500.375,852.4844 1500.0313,852.8906 Q1499.5313,853.4688 1498.7344,853.7969 Q1497.6563,854.25 1496.3594,854.25 Q1494.8438,854.25 1493.6406,853.625 Q1492.6563,853.125 1491.9688,852.0625 Q1491.2813,850.9844 1491.2813,849.7031 L1491.2813,848.5469 Q1491.2813,847.2188 1491.8906,846.0781 Q1492.5156,844.9219 1493.6094,844.3125 Q1494.7031,843.6875 1495.9375,843.6875 Q1496.6719,843.6875 1497.3125,843.8594 Q1497.9688,844.0156 1498.5156,844.375 Z " fill="#000000"/><text fill="#000000" font-family="sans-serif" font-size="14" lengthAdjust="spacing" textLength="98" x="1516.25" y="854.2285">UserPlayerView</text><line style="stroke:#181818;stroke-width:0.5;" x1="1448.5" x2="1649.5" y1="864.5" y2="864.5"/><rect fill="none" height="6" style="stroke:#C82930;stroke-width:1.0;" width="6" x="1455.5" y="875.8047"/><text fill="#000000" font-family="sans-serif" font-size="14" lengthAdjust="spacing" textLength="116" x="1467.5" y="883.0332">player: UserPlayer</text><line style="stroke:#181818;stroke-width:0.5;" x1="1448.5" x2="1649.5" y1="890.1094" y2="890.1094"/><ellipse cx="1458.5" cy="904.4141" fill="#84BE84" rx="3" ry="3" style="stroke:#038048;stroke-width:1.0;"/><text fill="#000000" font-family="sans-serif" font-size="14" lengthAdjust="spacing" textLength="177" x="1467.5" y="908.6426">UserPlayerView(UserPlayer)</text><rect fill="#F24D5C" height="6" style="stroke:#C82930;stroke-width:1.0;" width="6" x="1455.5" y="919.0234"/><text fill="#000000" font-family="sans-serif" font-size="14" lengthAdjust="spacing" textLength="101" x="1467.5" y="926.252">getColumn(): int</text></g><!--class TurnMenu--><g id="elem_TurnMenu"><rect codeLine="10" fill="#F1F1F1" height="83.2188" id="TurnMenu" rx="2.5" ry="2.5" style="stroke:#181818;stroke-width:0.5;" width="303" x="1344.5" y="663"/><ellipse cx="1459.25" cy="679" fill="#ADD1B2" rx="11" ry="11" style="stroke:#181818;stroke-width:1.0;"/><path d="M1462.0156,674.875 Q1462.1719,674.6563 1462.3594,674.5469 Q1462.5469,674.4375 1462.7656,674.4375 Q1463.1406,674.4375 1463.375,674.7031 Q1463.6094,674.9531 1463.6094,675.5625 L1463.6094,677.0156 Q1463.6094,677.625 1463.375,677.8906 Q1463.1406,678.1563 1462.7656,678.1563 Q1462.4219,678.1563 1462.2188,677.9531 Q1462.0156,677.7656 1461.9063,677.25 Q1461.8594,676.8906 1461.6719,676.7031 Q1461.3438,676.3281 1460.7344,676.1094 Q1460.125,675.8906 1459.5,675.8906 Q1458.7344,675.8906 1458.0938,676.2188 Q1457.4688,676.5469 1456.9688,677.2969 Q1456.4844,678.0469 1456.4844,679.0781 L1456.4844,680.1719 Q1456.4844,681.4063 1457.375,682.2344 Q1458.2656,683.0469 1459.8594,683.0469 Q1460.7969,683.0469 1461.4531,682.7969 Q1461.8438,682.6406 1462.2656,682.2031 Q1462.5313,681.9375 1462.6719,681.8594 Q1462.8281,681.7813 1463.0313,681.7813 Q1463.3594,681.7813 1463.6094,682.0469 Q1463.875,682.2969 1463.875,682.6406 Q1463.875,682.9844 1463.5313,683.3906 Q1463.0313,683.9688 1462.2344,684.2969 Q1461.1563,684.75 1459.8594,684.75 Q1458.3438,684.75 1457.1406,684.125 Q1456.1563,683.625 1455.4688,682.5625 Q1454.7813,681.4844 1454.7813,680.2031 L1454.7813,679.0469 Q1454.7813,677.7188 1455.3906,676.5781 Q1456.0156,675.4219 1457.1094,674.8125 Q1458.2031,674.1875 1459.4375,674.1875 Q1460.1719,674.1875 1460.8125,674.3594 Q1461.4688,674.5156 1462.0156,674.875 Z " fill="#000000"/><text fill="#000000" font-family="sans-serif" font-size="14" lengthAdjust="spacing" textLength="65" x="1479.75" y="684.7285">TurnMenu</text><line style="stroke:#181818;stroke-width:0.5;" x1="1345.5" x2="1646.5" y1="695" y2="695"/><line style="stroke:#181818;stroke-width:0.5;" x1="1345.5" x2="1646.5" y1="703" y2="703"/><ellipse cx="1355.5" cy="717.3047" fill="#84BE84" rx="3" ry="3" style="stroke:#038048;stroke-width:1.0;"/><text fill="#000000" font-family="sans-serif" font-size="14" lengthAdjust="spacing" textLength="277" x="1364.5" y="721.5332">TurnMenu(model: Turn, maxSecuences: int)</text><ellipse cx="1355.5" cy="734.9141" fill="#84BE84" rx="3" ry="3" style="stroke:#038048;stroke-width:1.0;"/><text fill="#000000" font-family="sans-serif" font-size="14" lengthAdjust="spacing" textLength="83" x="1364.5" y="739.1426">addOptions()</text></g><!--class TurnOption--><g id="elem_TurnOption"><rect codeLine="11" fill="#F1F1F1" height="83.2188" id="TurnOption" rx="2.5" ry="2.5" style="stroke:#181818;stroke-width:0.5;" width="259" x="1153.5" y="841.5"/><ellipse cx="1242.75" cy="857.5" fill="#A9DCDF" rx="11" ry="11" style="stroke:#181818;stroke-width:1.0;"/><path d="M1244.9375,859.2656 L1240.7969,859.2656 L1240.375,860.2969 L1240.7969,860.2969 Q1241.4063,860.2969 1241.6719,860.5313 Q1241.9375,860.7656 1241.9375,861.1563 Q1241.9375,861.5313 1241.6719,861.7656 Q1241.4063,862 1240.7969,862 L1238.5,862 Q1237.8906,862 1237.6406,861.7656 Q1237.375,861.5313 1237.375,861.1406 Q1237.375,860.7656 1237.6563,860.5313 Q1237.9219,860.2813 1238.5469,860.2969 L1241.2188,853.6406 L1240.1094,853.6406 Q1239.5,853.6406 1239.2344,853.4063 Q1238.9688,853.1719 1238.9688,852.7813 Q1238.9688,852.4063 1239.2344,852.1719 Q1239.5,851.9375 1240.1094,851.9375 L1243.7813,851.9375 L1247.1719,860.2969 Q1247.7656,860.2969 1247.9531,860.4375 Q1248.3438,860.7031 1248.3438,861.1563 Q1248.3438,861.5313 1248.0781,861.7656 Q1247.8281,862 1247.2188,862 L1244.9219,862 Q1244.3125,862 1244.0469,861.7656 Q1243.7813,861.5313 1243.7813,861.1406 Q1243.7813,860.7656 1244.0469,860.5313 Q1244.3125,860.2969 1244.9219,860.2969 L1245.3438,860.2969 L1244.9375,859.2656 Z M1244.2188,857.5625 L1242.8594,854.1875 L1241.4844,857.5625 L1244.2188,857.5625 Z " fill="#000000"/><text fill="#000000" font-family="sans-serif" font-size="14" font-style="italic" lengthAdjust="spacing" textLength="72" x="1263.25" y="863.2285">TurnOption</text><line style="stroke:#181818;stroke-width:0.5;" x1="1154.5" x2="1411.5" y1="873.5" y2="873.5"/><rect fill="none" height="6" style="stroke:#C82930;stroke-width:1.0;" width="6" x="1161.5" y="884.8047"/><text fill="#000000" font-family="sans-serif" font-size="14" lengthAdjust="spacing" textLength="63" x="1173.5" y="892.0332">turn: Turn</text><line style="stroke:#181818;stroke-width:0.5;" x1="1154.5" x2="1411.5" y1="899.1094" y2="899.1094"/><ellipse cx="1164.5" cy="913.4141" fill="#84BE84" rx="3" ry="3" style="stroke:#038048;stroke-width:1.0;"/><text fill="#000000" font-family="sans-serif" font-size="14" lengthAdjust="spacing" textLength="233" x="1173.5" y="917.6426">TurnOption(title: String, model: Turn)</text></g><!--class SetRandomMachinePlayerOption--><g id="elem_SetRandomMachinePlayerOption"><rect codeLine="12" fill="#F1F1F1" height="83.2188" id="SetRandomMachinePlayerOption" rx="2.5" ry="2.5" style="stroke:#181818;stroke-width:0.5;" width="275" x="1375.5" y="1020"/><ellipse cx="1405.8" cy="1036" fill="#ADD1B2" rx="11" ry="11" style="stroke:#181818;stroke-width:1.0;"/><path d="M1408.5656,1031.875 Q1408.7219,1031.6563 1408.9094,1031.5469 Q1409.0969,1031.4375 1409.3156,1031.4375 Q1409.6906,1031.4375 1409.925,1031.7031 Q1410.1594,1031.9531 1410.1594,1032.5625 L1410.1594,1034.0156 Q1410.1594,1034.625 1409.925,1034.8906 Q1409.6906,1035.1563 1409.3156,1035.1563 Q1408.9719,1035.1563 1408.7688,1034.9531 Q1408.5656,1034.7656 1408.4563,1034.25 Q1408.4094,1033.8906 1408.2219,1033.7031 Q1407.8938,1033.3281 1407.2844,1033.1094 Q1406.675,1032.8906 1406.05,1032.8906 Q1405.2844,1032.8906 1404.6438,1033.2188 Q1404.0188,1033.5469 1403.5188,1034.2969 Q1403.0344,1035.0469 1403.0344,1036.0781 L1403.0344,1037.1719 Q1403.0344,1038.4063 1403.925,1039.2344 Q1404.8156,1040.0469 1406.4094,1040.0469 Q1407.3469,1040.0469 1408.0031,1039.7969 Q1408.3938,1039.6406 1408.8156,1039.2031 Q1409.0813,1038.9375 1409.2219,1038.8594 Q1409.3781,1038.7813 1409.5813,1038.7813 Q1409.9094,1038.7813 1410.1594,1039.0469 Q1410.425,1039.2969 1410.425,1039.6406 Q1410.425,1039.9844 1410.0813,1040.3906 Q1409.5813,1040.9688 1408.7844,1041.2969 Q1407.7063,1041.75 1406.4094,1041.75 Q1404.8938,1041.75 1403.6906,1041.125 Q1402.7063,1040.625 1402.0188,1039.5625 Q1401.3313,1038.4844 1401.3313,1037.2031 L1401.3313,1036.0469 Q1401.3313,1034.7188 1401.9406,1033.5781 Q1402.5656,1032.4219 1403.6594,1031.8125 Q1404.7531,1031.1875 1405.9875,1031.1875 Q1406.7219,1031.1875 1407.3625,1031.3594 Q1408.0188,1031.5156 1408.5656,1031.875 Z " fill="#000000"/><text fill="#000000" font-family="sans-serif" font-size="14" lengthAdjust="spacing" textLength="209" x="1423.2" y="1041.7285">SetRandomMachinePlayerOption</text><line style="stroke:#181818;stroke-width:0.5;" x1="1376.5" x2="1649.5" y1="1052" y2="1052"/><line style="stroke:#181818;stroke-width:0.5;" x1="1376.5" x2="1649.5" y1="1060" y2="1060"/><ellipse cx="1386.5" cy="1074.3047" fill="#84BE84" rx="3" ry="3" style="stroke:#038048;stroke-width:1.0;"/><text fill="#000000" font-family="sans-serif" font-size="14" lengthAdjust="spacing" textLength="249" x="1395.5" y="1078.5332">SetRandomMachinePlayerOption(Turn)</text><ellipse cx="1386.5" cy="1091.9141" fill="#84BE84" rx="3" ry="3" style="stroke:#038048;stroke-width:1.0;"/><text fill="#000000" font-family="sans-serif" font-size="14" lengthAdjust="spacing" textLength="57" x="1395.5" y="1096.1426">interact()</text></g><!--class SetMinMaxMachinePlayerOption--><g id="elem_SetMinMaxMachinePlayerOption"><rect codeLine="13" fill="#F1F1F1" height="48" id="SetMinMaxMachinePlayerOption" rx="2.5" ry="2.5" style="stroke:#181818;stroke-width:0.5;" width="235" x="871.5" y="1037.5"/><ellipse cx="886.5" cy="1053.5" fill="#ADD1B2" rx="11" ry="11" style="stroke:#181818;stroke-width:1.0;"/><path d="M889.2656,1049.375 Q889.4219,1049.1563 889.6094,1049.0469 Q889.7969,1048.9375 890.0156,1048.9375 Q890.3906,1048.9375 890.625,1049.2031 Q890.8594,1049.4531 890.8594,1050.0625 L890.8594,1051.5156 Q890.8594,1052.125 890.625,1052.3906 Q890.3906,1052.6563 890.0156,1052.6563 Q889.6719,1052.6563 889.4688,1052.4531 Q889.2656,1052.2656 889.1563,1051.75 Q889.1094,1051.3906 888.9219,1051.2031 Q888.5938,1050.8281 887.9844,1050.6094 Q887.375,1050.3906 886.75,1050.3906 Q885.9844,1050.3906 885.3438,1050.7188 Q884.7188,1051.0469 884.2188,1051.7969 Q883.7344,1052.5469 883.7344,1053.5781 L883.7344,1054.6719 Q883.7344,1055.9063 884.625,1056.7344 Q885.5156,1057.5469 887.1094,1057.5469 Q888.0469,1057.5469 888.7031,1057.2969 Q889.0938,1057.1406 889.5156,1056.7031 Q889.7813,1056.4375 889.9219,1056.3594 Q890.0781,1056.2813 890.2813,1056.2813 Q890.6094,1056.2813 890.8594,1056.5469 Q891.125,1056.7969 891.125,1057.1406 Q891.125,1057.4844 890.7813,1057.8906 Q890.2813,1058.4688 889.4844,1058.7969 Q888.4063,1059.25 887.1094,1059.25 Q885.5938,1059.25 884.3906,1058.625 Q883.4063,1058.125 882.7188,1057.0625 Q882.0313,1055.9844 882.0313,1054.7031 L882.0313,1053.5469 Q882.0313,1052.2188 882.6406,1051.0781 Q883.2656,1049.9219 884.3594,1049.3125 Q885.4531,1048.6875 886.6875,1048.6875 Q887.4219,1048.6875 888.0625,1048.8594 Q888.7188,1049.0156 889.2656,1049.375 Z " fill="#000000"/><text fill="#000000" font-family="sans-serif" font-size="14" lengthAdjust="spacing" textLength="203" x="900.5" y="1059.2285">SetMinMaxMachinePlayerOption</text><line style="stroke:#181818;stroke-width:0.5;" x1="872.5" x2="1105.5" y1="1069.5" y2="1069.5"/><line style="stroke:#181818;stroke-width:0.5;" x1="872.5" x2="1105.5" y1="1077.5" y2="1077.5"/></g><!--class SetUserPlayerOption--><g id="elem_SetUserPlayerOption"><rect codeLine="14" fill="#F1F1F1" height="83.2188" id="SetUserPlayerOption" rx="2.5" ry="2.5" style="stroke:#181818;stroke-width:0.5;" width="198" x="1142" y="1020"/><ellipse cx="1172.3" cy="1036" fill="#ADD1B2" rx="11" ry="11" style="stroke:#181818;stroke-width:1.0;"/><path d="M1175.0656,1031.875 Q1175.2219,1031.6563 1175.4094,1031.5469 Q1175.5969,1031.4375 1175.8156,1031.4375 Q1176.1906,1031.4375 1176.425,1031.7031 Q1176.6594,1031.9531 1176.6594,1032.5625 L1176.6594,1034.0156 Q1176.6594,1034.625 1176.425,1034.8906 Q1176.1906,1035.1563 1175.8156,1035.1563 Q1175.4719,1035.1563 1175.2688,1034.9531 Q1175.0656,1034.7656 1174.9563,1034.25 Q1174.9094,1033.8906 1174.7219,1033.7031 Q1174.3938,1033.3281 1173.7844,1033.1094 Q1173.175,1032.8906 1172.55,1032.8906 Q1171.7844,1032.8906 1171.1438,1033.2188 Q1170.5188,1033.5469 1170.0188,1034.2969 Q1169.5344,1035.0469 1169.5344,1036.0781 L1169.5344,1037.1719 Q1169.5344,1038.4063 1170.425,1039.2344 Q1171.3156,1040.0469 1172.9094,1040.0469 Q1173.8469,1040.0469 1174.5031,1039.7969 Q1174.8938,1039.6406 1175.3156,1039.2031 Q1175.5813,1038.9375 1175.7219,1038.8594 Q1175.8781,1038.7813 1176.0813,1038.7813 Q1176.4094,1038.7813 1176.6594,1039.0469 Q1176.925,1039.2969 1176.925,1039.6406 Q1176.925,1039.9844 1176.5813,1040.3906 Q1176.0813,1040.9688 1175.2844,1041.2969 Q1174.2063,1041.75 1172.9094,1041.75 Q1171.3938,1041.75 1170.1906,1041.125 Q1169.2063,1040.625 1168.5188,1039.5625 Q1167.8313,1038.4844 1167.8313,1037.2031 L1167.8313,1036.0469 Q1167.8313,1034.7188 1168.4406,1033.5781 Q1169.0656,1032.4219 1170.1594,1031.8125 Q1171.2531,1031.1875 1172.4875,1031.1875 Q1173.2219,1031.1875 1173.8625,1031.3594 Q1174.5188,1031.5156 1175.0656,1031.875 Z " fill="#000000"/><text fill="#000000" font-family="sans-serif" font-size="14" lengthAdjust="spacing" textLength="132" x="1189.7" y="1041.7285">SetUserPlayerOption</text><line style="stroke:#181818;stroke-width:0.5;" x1="1143" x2="1339" y1="1052" y2="1052"/><line style="stroke:#181818;stroke-width:0.5;" x1="1143" x2="1339" y1="1060" y2="1060"/><ellipse cx="1153" cy="1074.3047" fill="#84BE84" rx="3" ry="3" style="stroke:#038048;stroke-width:1.0;"/><text fill="#000000" font-family="sans-serif" font-size="14" lengthAdjust="spacing" textLength="172" x="1162" y="1078.5332">SetUserPlayerOption(Turn)</text><ellipse cx="1153" cy="1091.9141" fill="#84BE84" rx="3" ry="3" style="stroke:#038048;stroke-width:1.0;"/><text fill="#000000" font-family="sans-serif" font-size="14" lengthAdjust="spacing" textLength="57" x="1162" y="1096.1426">interact()</text></g><!--class Message--><g id="elem_Message"><rect codeLine="15" fill="#F1F1F1" height="312.1406" id="Message" rx="2.5" ry="2.5" style="stroke:#181818;stroke-width:0.5;" width="214" x="1014" y="42"/><ellipse cx="1088.25" cy="58" fill="#EB937F" rx="11" ry="11" style="stroke:#181818;stroke-width:1.0;"/><path d="M1087.1094,58.7969 L1087.1094,61.2969 L1091.4375,61.2969 L1091.4375,60.375 Q1091.4375,59.7656 1091.6719,59.5 Q1091.9219,59.2344 1092.2969,59.2344 Q1092.6719,59.2344 1092.9063,59.5 Q1093.1406,59.7656 1093.1406,60.375 L1093.1406,63 L1085.1406,63 Q1084.5156,63 1084.25,62.7656 Q1084,62.5313 1084,62.1406 Q1084,61.7656 1084.2656,61.5313 Q1084.5313,61.2969 1085.1406,61.2969 L1085.4063,61.2969 L1085.4063,54.6406 L1085.1406,54.6406 Q1084.5156,54.6406 1084.25,54.4063 Q1084,54.1719 1084,53.7813 Q1084,53.4063 1084.25,53.1719 Q1084.5156,52.9375 1085.1406,52.9375 L1092.7656,52.9375 L1092.7656,55.5313 Q1092.7656,56.1406 1092.5313,56.4063 Q1092.3125,56.6563 1091.9219,56.6563 Q1091.5469,56.6563 1091.3125,56.4063 Q1091.0781,56.1406 1091.0781,55.5313 L1091.0781,54.6406 L1087.1094,54.6406 L1087.1094,57.0938 L1088.5938,57.0938 Q1088.5938,56.4375 1088.7188,56.25 Q1088.9844,55.8438 1089.4531,55.8438 Q1089.8281,55.8438 1090.0625,56.1094 Q1090.2969,56.3594 1090.2969,56.9688 L1090.2969,58.9375 Q1090.2969,59.4844 1090.1719,59.6719 Q1089.9063,60.0625 1089.4531,60.0625 Q1088.9844,60.0625 1088.7188,59.6563 Q1088.5938,59.4688 1088.5938,58.7969 L1087.1094,58.7969 Z " fill="#000000"/><text fill="#000000" font-family="sans-serif" font-size="14" lengthAdjust="spacing" textLength="57" x="1108.75" y="63.7285">Message</text><line style="stroke:#181818;stroke-width:0.5;" x1="1015" x2="1227" y1="74" y2="74"/><ellipse cx="1025" cy="88.3047" fill="none" rx="3" ry="3" style="stroke:#038048;stroke-width:1.0;"/><text fill="#000000" font-family="sans-serif" font-size="14" lengthAdjust="spacing" text-decoration="underline" textLength="38" x="1034" y="92.5332">TITLE</text><ellipse cx="1025" cy="105.9141" fill="none" rx="3" ry="3" style="stroke:#038048;stroke-width:1.0;"/><text fill="#000000" font-family="sans-serif" font-size="14" lengthAdjust="spacing" text-decoration="underline" textLength="124" x="1034" y="110.1426">HORIZONTAL_LINE</text><ellipse cx="1025" cy="123.5234" fill="none" rx="3" ry="3" style="stroke:#038048;stroke-width:1.0;"/><text fill="#000000" font-family="sans-serif" font-size="14" lengthAdjust="spacing" text-decoration="underline" textLength="104" x="1034" y="127.752">VERTICAL_LINE</text><ellipse cx="1025" cy="141.1328" fill="none" rx="3" ry="3" style="stroke:#038048;stroke-width:1.0;"/><text fill="#000000" font-family="sans-serif" font-size="14" lengthAdjust="spacing" text-decoration="underline" textLength="37" x="1034" y="145.3613">TURN</text><ellipse cx="1025" cy="158.7422" fill="none" rx="3" ry="3" style="stroke:#038048;stroke-width:1.0;"/><text fill="#000000" font-family="sans-serif" font-size="14" lengthAdjust="spacing" text-decoration="underline" textLength="188" x="1034" y="162.9707">ENTER_COLUMN_TO_DROP</text><ellipse cx="1025" cy="176.3516" fill="none" rx="3" ry="3" style="stroke:#038048;stroke-width:1.0;"/><text fill="#000000" font-family="sans-serif" font-size="14" lengthAdjust="spacing" text-decoration="underline" textLength="117" x="1034" y="180.5801">INVALID_COLUMN</text><ellipse cx="1025" cy="193.9609" fill="none" rx="3" ry="3" style="stroke:#038048;stroke-width:1.0;"/><text fill="#000000" font-family="sans-serif" font-size="14" lengthAdjust="spacing" text-decoration="underline" textLength="152" x="1034" y="198.1895">COMPLETED_COLUMN</text><ellipse cx="1025" cy="211.5703" fill="none" rx="3" ry="3" style="stroke:#038048;stroke-width:1.0;"/><text fill="#000000" font-family="sans-serif" font-size="14" lengthAdjust="spacing" text-decoration="underline" textLength="87" x="1034" y="215.7988">PLAYER_WIN</text><ellipse cx="1025" cy="229.1797" fill="none" rx="3" ry="3" style="stroke:#038048;stroke-width:1.0;"/><text fill="#000000" font-family="sans-serif" font-size="14" lengthAdjust="spacing" text-decoration="underline" textLength="102" x="1034" y="233.4082">PLAYERS_TIED</text><ellipse cx="1025" cy="246.7891" fill="none" rx="3" ry="3" style="stroke:#038048;stroke-width:1.0;"/><text fill="#000000" font-family="sans-serif" font-size="14" lengthAdjust="spacing" text-decoration="underline" textLength="57" x="1034" y="251.0176">RESUME</text><ellipse cx="1025" cy="264.3984" fill="none" rx="3" ry="3" style="stroke:#038048;stroke-width:1.0;"/><text fill="#000000" font-family="sans-serif" font-size="14" lengthAdjust="spacing" text-decoration="underline" textLength="134" x="1034" y="268.627">CHOOSEN_COLUMN</text><rect fill="none" height="6" style="stroke:#C82930;stroke-width:1.0;" width="6" x="1022" y="279.0078"/><text fill="#000000" font-family="sans-serif" font-size="14" lengthAdjust="spacing" textLength="35" x="1034" y="286.2363">string</text><line style="stroke:#181818;stroke-width:0.5;" x1="1015" x2="1227" y1="293.3125" y2="293.3125"/><ellipse cx="1025" cy="307.6172" fill="#84BE84" rx="3" ry="3" style="stroke:#038048;stroke-width:1.0;"/><text fill="#000000" font-family="sans-serif" font-size="14" lengthAdjust="spacing" textLength="116" x="1034" y="311.8457">constructor(string)</text><ellipse cx="1025" cy="325.2266" fill="#84BE84" rx="3" ry="3" style="stroke:#038048;stroke-width:1.0;"/><text fill="#000000" font-family="sans-serif" font-size="14" lengthAdjust="spacing" textLength="39" x="1034" y="329.4551">write()</text><ellipse cx="1025" cy="342.8359" fill="#84BE84" rx="3" ry="3" style="stroke:#038048;stroke-width:1.0;"/><text fill="#000000" font-family="sans-serif" font-size="14" lengthAdjust="spacing" textLength="50" x="1034" y="347.0645">writeln()</text></g><!--class YesNoDialog--><g id="elem_YesNoDialog"><rect codeLine="16" fill="#F1F1F1" height="206.4844" id="YesNoDialog" rx="2.5" ry="2.5" style="stroke:#181818;stroke-width:0.5;" width="116" x="423" y="95"/><ellipse cx="439.35" cy="111" fill="#ADD1B2" rx="11" ry="11" style="stroke:#181818;stroke-width:1.0;"/><path d="M442.1156,106.875 Q442.2719,106.6563 442.4594,106.5469 Q442.6469,106.4375 442.8656,106.4375 Q443.2406,106.4375 443.475,106.7031 Q443.7094,106.9531 443.7094,107.5625 L443.7094,109.0156 Q443.7094,109.625 443.475,109.8906 Q443.2406,110.1563 442.8656,110.1563 Q442.5219,110.1563 442.3188,109.9531 Q442.1156,109.7656 442.0063,109.25 Q441.9594,108.8906 441.7719,108.7031 Q441.4438,108.3281 440.8344,108.1094 Q440.225,107.8906 439.6,107.8906 Q438.8344,107.8906 438.1938,108.2188 Q437.5688,108.5469 437.0688,109.2969 Q436.5844,110.0469 436.5844,111.0781 L436.5844,112.1719 Q436.5844,113.4063 437.475,114.2344 Q438.3656,115.0469 439.9594,115.0469 Q440.8969,115.0469 441.5531,114.7969 Q441.9438,114.6406 442.3656,114.2031 Q442.6313,113.9375 442.7719,113.8594 Q442.9281,113.7813 443.1313,113.7813 Q443.4594,113.7813 443.7094,114.0469 Q443.975,114.2969 443.975,114.6406 Q443.975,114.9844 443.6313,115.3906 Q443.1313,115.9688 442.3344,116.2969 Q441.2563,116.75 439.9594,116.75 Q438.4438,116.75 437.2406,116.125 Q436.2563,115.625 435.5688,114.5625 Q434.8813,113.4844 434.8813,112.2031 L434.8813,111.0469 Q434.8813,109.7188 435.4906,108.5781 Q436.1156,107.4219 437.2094,106.8125 Q438.3031,106.1875 439.5375,106.1875 Q440.2719,106.1875 440.9125,106.3594 Q441.5688,106.5156 442.1156,106.875 Z " fill="#000000"/><text fill="#000000" font-family="sans-serif" font-size="14" lengthAdjust="spacing" textLength="81" x="453.65" y="116.7285">YesNoDialog</text><line style="stroke:#181818;stroke-width:0.5;" x1="424" x2="538" y1="127" y2="127"/><rect fill="none" height="6" style="stroke:#C82930;stroke-width:1.0;" width="6" x="431" y="138.3047"/><text fill="#000000" font-family="sans-serif" font-size="14" lengthAdjust="spacing" text-decoration="underline" textLength="90" x="443" y="145.5332">AFFIRMATIVE</text><rect fill="none" height="6" style="stroke:#C82930;stroke-width:1.0;" width="6" x="431" y="155.9141"/><text fill="#000000" font-family="sans-serif" font-size="14" lengthAdjust="spacing" text-decoration="underline" textLength="68" x="443" y="163.1426">NEGATIVE</text><rect fill="none" height="6" style="stroke:#C82930;stroke-width:1.0;" width="6" x="431" y="173.5234"/><text fill="#000000" font-family="sans-serif" font-size="14" lengthAdjust="spacing" text-decoration="underline" textLength="47" x="443" y="180.752">SUFFIX</text><rect fill="none" height="6" style="stroke:#C82930;stroke-width:1.0;" width="6" x="431" y="191.1328"/><text fill="#000000" font-family="sans-serif" font-size="14" lengthAdjust="spacing" text-decoration="underline" textLength="67" x="443" y="198.3613">MESSAGE</text><rect fill="none" height="6" style="stroke:#C82930;stroke-width:1.0;" width="6" x="431" y="208.7422"/><text fill="#000000" font-family="sans-serif" font-size="14" lengthAdjust="spacing" textLength="45" x="443" y="215.9707">answer</text><line style="stroke:#181818;stroke-width:0.5;" x1="424" x2="538" y1="223.0469" y2="223.0469"/><ellipse cx="434" cy="237.3516" fill="#84BE84" rx="3" ry="3" style="stroke:#038048;stroke-width:1.0;"/><text fill="#000000" font-family="sans-serif" font-size="14" lengthAdjust="spacing" textLength="39" x="443" y="241.5801">read()</text><ellipse cx="434" cy="254.9609" fill="#84BE84" rx="3" ry="3" style="stroke:#038048;stroke-width:1.0;"/><text fill="#000000" font-family="sans-serif" font-size="14" lengthAdjust="spacing" textLength="86" x="443" y="259.1895">isAffirmative()</text><ellipse cx="434" cy="272.5703" fill="#84BE84" rx="3" ry="3" style="stroke:#038048;stroke-width:1.0;"/><text fill="#000000" font-family="sans-serif" font-size="14" lengthAdjust="spacing" textLength="75" x="443" y="276.7988">isNegative()</text><ellipse cx="434" cy="290.1797" fill="#84BE84" rx="3" ry="3" style="stroke:#038048;stroke-width:1.0;"/><text fill="#000000" font-family="sans-serif" font-size="14" lengthAdjust="spacing" textLength="76" x="443" y="294.4082">getAnswer()</text></g><!--class Option--><g id="elem_Option"><rect codeLine="33" fill="#F1F1F1" height="48" id="Option" rx="2.5" ry="2.5" style="stroke:#181818;stroke-width:0.5;" width="142" x="1842" y="1037.5"/><ellipse cx="1857" cy="1053.5" fill="#ADD1B2" rx="11" ry="11" style="stroke:#181818;stroke-width:1.0;"/><path d="M1859.7656,1049.375 Q1859.9219,1049.1563 1860.1094,1049.0469 Q1860.2969,1048.9375 1860.5156,1048.9375 Q1860.8906,1048.9375 1861.125,1049.2031 Q1861.3594,1049.4531 1861.3594,1050.0625 L1861.3594,1051.5156 Q1861.3594,1052.125 1861.125,1052.3906 Q1860.8906,1052.6563 1860.5156,1052.6563 Q1860.1719,1052.6563 1859.9688,1052.4531 Q1859.7656,1052.2656 1859.6563,1051.75 Q1859.6094,1051.3906 1859.4219,1051.2031 Q1859.0938,1050.8281 1858.4844,1050.6094 Q1857.875,1050.3906 1857.25,1050.3906 Q1856.4844,1050.3906 1855.8438,1050.7188 Q1855.2188,1051.0469 1854.7188,1051.7969 Q1854.2344,1052.5469 1854.2344,1053.5781 L1854.2344,1054.6719 Q1854.2344,1055.9063 1855.125,1056.7344 Q1856.0156,1057.5469 1857.6094,1057.5469 Q1858.5469,1057.5469 1859.2031,1057.2969 Q1859.5938,1057.1406 1860.0156,1056.7031 Q1860.2813,1056.4375 1860.4219,1056.3594 Q1860.5781,1056.2813 1860.7813,1056.2813 Q1861.1094,1056.2813 1861.3594,1056.5469 Q1861.625,1056.7969 1861.625,1057.1406 Q1861.625,1057.4844 1861.2813,1057.8906 Q1860.7813,1058.4688 1859.9844,1058.7969 Q1858.9063,1059.25 1857.6094,1059.25 Q1856.0938,1059.25 1854.8906,1058.625 Q1853.9063,1058.125 1853.2188,1057.0625 Q1852.5313,1055.9844 1852.5313,1054.7031 L1852.5313,1053.5469 Q1852.5313,1052.2188 1853.1406,1051.0781 Q1853.7656,1049.9219 1854.8594,1049.3125 Q1855.9531,1048.6875 1857.1875,1048.6875 Q1857.9219,1048.6875 1858.5625,1048.8594 Q1859.2188,1049.0156 1859.7656,1049.375 Z " fill="#000000"/><text fill="#000000" font-family="sans-serif" font-size="14" lengthAdjust="spacing" textLength="110" x="1871" y="1059.2285">utils.menu.Option</text><line style="stroke:#181818;stroke-width:0.5;" x1="1843" x2="1983" y1="1069.5" y2="1069.5"/><line style="stroke:#181818;stroke-width:0.5;" x1="1843" x2="1983" y1="1077.5" y2="1077.5"/></g><!--class SecuentialMenu--><g id="elem_SecuentialMenu"><rect codeLine="34" fill="#F1F1F1" height="48" id="SecuentialMenu" rx="2.5" ry="2.5" style="stroke:#181818;stroke-width:0.5;" width="201" x="1685.5" y="859"/><ellipse cx="1700.5" cy="875" fill="#ADD1B2" rx="11" ry="11" style="stroke:#181818;stroke-width:1.0;"/><path d="M1703.2656,870.875 Q1703.4219,870.6563 1703.6094,870.5469 Q1703.7969,870.4375 1704.0156,870.4375 Q1704.3906,870.4375 1704.625,870.7031 Q1704.8594,870.9531 1704.8594,871.5625 L1704.8594,873.0156 Q1704.8594,873.625 1704.625,873.8906 Q1704.3906,874.1563 1704.0156,874.1563 Q1703.6719,874.1563 1703.4688,873.9531 Q1703.2656,873.7656 1703.1563,873.25 Q1703.1094,872.8906 1702.9219,872.7031 Q1702.5938,872.3281 1701.9844,872.1094 Q1701.375,871.8906 1700.75,871.8906 Q1699.9844,871.8906 1699.3438,872.2188 Q1698.7188,872.5469 1698.2188,873.2969 Q1697.7344,874.0469 1697.7344,875.0781 L1697.7344,876.1719 Q1697.7344,877.4063 1698.625,878.2344 Q1699.5156,879.0469 1701.1094,879.0469 Q1702.0469,879.0469 1702.7031,878.7969 Q1703.0938,878.6406 1703.5156,878.2031 Q1703.7813,877.9375 1703.9219,877.8594 Q1704.0781,877.7813 1704.2813,877.7813 Q1704.6094,877.7813 1704.8594,878.0469 Q1705.125,878.2969 1705.125,878.6406 Q1705.125,878.9844 1704.7813,879.3906 Q1704.2813,879.9688 1703.4844,880.2969 Q1702.4063,880.75 1701.1094,880.75 Q1699.5938,880.75 1698.3906,880.125 Q1697.4063,879.625 1696.7188,878.5625 Q1696.0313,877.4844 1696.0313,876.2031 L1696.0313,875.0469 Q1696.0313,873.7188 1696.6406,872.5781 Q1697.2656,871.4219 1698.3594,870.8125 Q1699.4531,870.1875 1700.6875,870.1875 Q1701.4219,870.1875 1702.0625,870.3594 Q1702.7188,870.5156 1703.2656,870.875 Z " fill="#000000"/><text fill="#000000" font-family="sans-serif" font-size="14" lengthAdjust="spacing" textLength="169" x="1714.5" y="880.7285">utils.menu.SecuentialMenu</text><line style="stroke:#181818;stroke-width:0.5;" x1="1686.5" x2="1885.5" y1="891" y2="891"/><line style="stroke:#181818;stroke-width:0.5;" x1="1686.5" x2="1885.5" y1="899" y2="899"/></g><!--class Game--><g id="elem_Game"><rect codeLine="35" fill="#F1F1F1" height="48" id="Game" rx="2.5" ry="2.5" style="stroke:#181818;stroke-width:0.5;" width="119" x="1850.5" y="680.5"/><ellipse cx="1865.5" cy="696.5" fill="#ADD1B2" rx="11" ry="11" style="stroke:#181818;stroke-width:1.0;"/><path d="M1868.2656,692.375 Q1868.4219,692.1563 1868.6094,692.0469 Q1868.7969,691.9375 1869.0156,691.9375 Q1869.3906,691.9375 1869.625,692.2031 Q1869.8594,692.4531 1869.8594,693.0625 L1869.8594,694.5156 Q1869.8594,695.125 1869.625,695.3906 Q1869.3906,695.6563 1869.0156,695.6563 Q1868.6719,695.6563 1868.4688,695.4531 Q1868.2656,695.2656 1868.1563,694.75 Q1868.1094,694.3906 1867.9219,694.2031 Q1867.5938,693.8281 1866.9844,693.6094 Q1866.375,693.3906 1865.75,693.3906 Q1864.9844,693.3906 1864.3438,693.7188 Q1863.7188,694.0469 1863.2188,694.7969 Q1862.7344,695.5469 1862.7344,696.5781 L1862.7344,697.6719 Q1862.7344,698.9063 1863.625,699.7344 Q1864.5156,700.5469 1866.1094,700.5469 Q1867.0469,700.5469 1867.7031,700.2969 Q1868.0938,700.1406 1868.5156,699.7031 Q1868.7813,699.4375 1868.9219,699.3594 Q1869.0781,699.2813 1869.2813,699.2813 Q1869.6094,699.2813 1869.8594,699.5469 Q1870.125,699.7969 1870.125,700.1406 Q1870.125,700.4844 1869.7813,700.8906 Q1869.2813,701.4688 1868.4844,701.7969 Q1867.4063,702.25 1866.1094,702.25 Q1864.5938,702.25 1863.3906,701.625 Q1862.4063,701.125 1861.7188,700.0625 Q1861.0313,698.9844 1861.0313,697.7031 L1861.0313,696.5469 Q1861.0313,695.2188 1861.6406,694.0781 Q1862.2656,692.9219 1863.3594,692.3125 Q1864.4531,691.6875 1865.6875,691.6875 Q1866.4219,691.6875 1867.0625,691.8594 Q1867.7188,692.0156 1868.2656,692.375 Z " fill="#000000"/><text fill="#000000" font-family="sans-serif" font-size="14" lengthAdjust="spacing" textLength="87" x="1879.5" y="702.2285">models.Game</text><line style="stroke:#181818;stroke-width:0.5;" x1="1851.5" x2="1968.5" y1="712.5" y2="712.5"/><line style="stroke:#181818;stroke-width:0.5;" x1="1851.5" x2="1968.5" y1="720.5" y2="720.5"/></g><!--class Turn--><g id="elem_Turn"><rect codeLine="36" fill="#F1F1F1" height="48" id="Turn" rx="2.5" ry="2.5" style="stroke:#181818;stroke-width:0.5;" width="111" x="2019.5" y="1037.5"/><ellipse cx="2034.5" cy="1053.5" fill="#ADD1B2" rx="11" ry="11" style="stroke:#181818;stroke-width:1.0;"/><path d="M2037.2656,1049.375 Q2037.4219,1049.1563 2037.6094,1049.0469 Q2037.7969,1048.9375 2038.0156,1048.9375 Q2038.3906,1048.9375 2038.625,1049.2031 Q2038.8594,1049.4531 2038.8594,1050.0625 L2038.8594,1051.5156 Q2038.8594,1052.125 2038.625,1052.3906 Q2038.3906,1052.6563 2038.0156,1052.6563 Q2037.6719,1052.6563 2037.4688,1052.4531 Q2037.2656,1052.2656 2037.1563,1051.75 Q2037.1094,1051.3906 2036.9219,1051.2031 Q2036.5938,1050.8281 2035.9844,1050.6094 Q2035.375,1050.3906 2034.75,1050.3906 Q2033.9844,1050.3906 2033.3438,1050.7188 Q2032.7188,1051.0469 2032.2188,1051.7969 Q2031.7344,1052.5469 2031.7344,1053.5781 L2031.7344,1054.6719 Q2031.7344,1055.9063 2032.625,1056.7344 Q2033.5156,1057.5469 2035.1094,1057.5469 Q2036.0469,1057.5469 2036.7031,1057.2969 Q2037.0938,1057.1406 2037.5156,1056.7031 Q2037.7813,1056.4375 2037.9219,1056.3594 Q2038.0781,1056.2813 2038.2813,1056.2813 Q2038.6094,1056.2813 2038.8594,1056.5469 Q2039.125,1056.7969 2039.125,1057.1406 Q2039.125,1057.4844 2038.7813,1057.8906 Q2038.2813,1058.4688 2037.4844,1058.7969 Q2036.4063,1059.25 2035.1094,1059.25 Q2033.5938,1059.25 2032.3906,1058.625 Q2031.4063,1058.125 2030.7188,1057.0625 Q2030.0313,1055.9844 2030.0313,1054.7031 L2030.0313,1053.5469 Q2030.0313,1052.2188 2030.6406,1051.0781 Q2031.2656,1049.9219 2032.3594,1049.3125 Q2033.4531,1048.6875 2034.6875,1048.6875 Q2035.4219,1048.6875 2036.0625,1048.8594 Q2036.7188,1049.0156 2037.2656,1049.375 Z " fill="#000000"/><text fill="#000000" font-family="sans-serif" font-size="14" lengthAdjust="spacing" textLength="79" x="2048.5" y="1059.2285">models.Turn</text><line style="stroke:#181818;stroke-width:0.5;" x1="2020.5" x2="2129.5" y1="1069.5" y2="1069.5"/><line style="stroke:#181818;stroke-width:0.5;" x1="2020.5" x2="2129.5" y1="1077.5" y2="1077.5"/></g><!--class Coordinate--><g id="elem_Coordinate"><rect codeLine="37" fill="#F1F1F1" height="48" id="Coordinate" rx="2.5" ry="2.5" style="stroke:#181818;stroke-width:0.5;" width="132" x="1683" y="680.5"/><ellipse cx="1698" cy="696.5" fill="#ADD1B2" rx="11" ry="11" style="stroke:#181818;stroke-width:1.0;"/><path d="M1700.7656,692.375 Q1700.9219,692.1563 1701.1094,692.0469 Q1701.2969,691.9375 1701.5156,691.9375 Q1701.8906,691.9375 1702.125,692.2031 Q1702.3594,692.4531 1702.3594,693.0625 L1702.3594,694.5156 Q1702.3594,695.125 1702.125,695.3906 Q1701.8906,695.6563 1701.5156,695.6563 Q1701.1719,695.6563 1700.9688,695.4531 Q1700.7656,695.2656 1700.6563,694.75 Q1700.6094,694.3906 1700.4219,694.2031 Q1700.0938,693.8281 1699.4844,693.6094 Q1698.875,693.3906 1698.25,693.3906 Q1697.4844,693.3906 1696.8438,693.7188 Q1696.2188,694.0469 1695.7188,694.7969 Q1695.2344,695.5469 1695.2344,696.5781 L1695.2344,697.6719 Q1695.2344,698.9063 1696.125,699.7344 Q1697.0156,700.5469 1698.6094,700.5469 Q1699.5469,700.5469 1700.2031,700.2969 Q1700.5938,700.1406 1701.0156,699.7031 Q1701.2813,699.4375 1701.4219,699.3594 Q1701.5781,699.2813 1701.7813,699.2813 Q1702.1094,699.2813 1702.3594,699.5469 Q1702.625,699.7969 1702.625,700.1406 Q1702.625,700.4844 1702.2813,700.8906 Q1701.7813,701.4688 1700.9844,701.7969 Q1699.9063,702.25 1698.6094,702.25 Q1697.0938,702.25 1695.8906,701.625 Q1694.9063,701.125 1694.2188,700.0625 Q1693.5313,698.9844 1693.5313,697.7031 L1693.5313,696.5469 Q1693.5313,695.2188 1694.1406,694.0781 Q1694.7656,692.9219 1695.8594,692.3125 Q1696.9531,691.6875 1698.1875,691.6875 Q1698.9219,691.6875 1699.5625,691.8594 Q1700.2188,692.0156 1700.7656,692.375 Z " fill="#000000"/><text fill="#000000" font-family="sans-serif" font-size="14" lengthAdjust="spacing" textLength="100" x="1712" y="702.2285">Utils.Coordinate</text><line style="stroke:#181818;stroke-width:0.5;" x1="1684" x2="1814" y1="712.5" y2="712.5"/><line style="stroke:#181818;stroke-width:0.5;" x1="1684" x2="1814" y1="720.5" y2="720.5"/></g><!--class Console--><g id="elem_Console"><rect codeLine="38" fill="#F1F1F1" height="48" id="Console" rx="2.5" ry="2.5" style="stroke:#181818;stroke-width:0.5;" width="113" x="1685.5" y="174"/><ellipse cx="1700.5" cy="190" fill="#ADD1B2" rx="11" ry="11" style="stroke:#181818;stroke-width:1.0;"/><path d="M1703.2656,185.875 Q1703.4219,185.6563 1703.6094,185.5469 Q1703.7969,185.4375 1704.0156,185.4375 Q1704.3906,185.4375 1704.625,185.7031 Q1704.8594,185.9531 1704.8594,186.5625 L1704.8594,188.0156 Q1704.8594,188.625 1704.625,188.8906 Q1704.3906,189.1563 1704.0156,189.1563 Q1703.6719,189.1563 1703.4688,188.9531 Q1703.2656,188.7656 1703.1563,188.25 Q1703.1094,187.8906 1702.9219,187.7031 Q1702.5938,187.3281 1701.9844,187.1094 Q1701.375,186.8906 1700.75,186.8906 Q1699.9844,186.8906 1699.3438,187.2188 Q1698.7188,187.5469 1698.2188,188.2969 Q1697.7344,189.0469 1697.7344,190.0781 L1697.7344,191.1719 Q1697.7344,192.4063 1698.625,193.2344 Q1699.5156,194.0469 1701.1094,194.0469 Q1702.0469,194.0469 1702.7031,193.7969 Q1703.0938,193.6406 1703.5156,193.2031 Q1703.7813,192.9375 1703.9219,192.8594 Q1704.0781,192.7813 1704.2813,192.7813 Q1704.6094,192.7813 1704.8594,193.0469 Q1705.125,193.2969 1705.125,193.6406 Q1705.125,193.9844 1704.7813,194.3906 Q1704.2813,194.9688 1703.4844,195.2969 Q1702.4063,195.75 1701.1094,195.75 Q1699.5938,195.75 1698.3906,195.125 Q1697.4063,194.625 1696.7188,193.5625 Q1696.0313,192.4844 1696.0313,191.2031 L1696.0313,190.0469 Q1696.0313,188.7188 1696.6406,187.5781 Q1697.2656,186.4219 1698.3594,185.8125 Q1699.4531,185.1875 1700.6875,185.1875 Q1701.4219,185.1875 1702.0625,185.3594 Q1702.7188,185.5156 1703.2656,185.875 Z " fill="#000000"/><text fill="#000000" font-family="sans-serif" font-size="14" lengthAdjust="spacing" textLength="81" x="1714.5" y="195.7285">utils.Console</text><line style="stroke:#181818;stroke-width:0.5;" x1="1686.5" x2="1797.5" y1="206" y2="206"/><line style="stroke:#181818;stroke-width:0.5;" x1="1686.5" x2="1797.5" y1="214" y2="214"/></g><!--class Player--><g id="elem_Player"><rect codeLine="39" fill="#F1F1F1" height="48" id="Player" rx="2.5" ry="2.5" style="stroke:#181818;stroke-width:0.5;" width="121" x="1685.5" y="1037.5"/><ellipse cx="1700.5" cy="1053.5" fill="#ADD1B2" rx="11" ry="11" style="stroke:#181818;stroke-width:1.0;"/><path d="M1703.2656,1049.375 Q1703.4219,1049.1563 1703.6094,1049.0469 Q1703.7969,1048.9375 1704.0156,1048.9375 Q1704.3906,1048.9375 1704.625,1049.2031 Q1704.8594,1049.4531 1704.8594,1050.0625 L1704.8594,1051.5156 Q1704.8594,1052.125 1704.625,1052.3906 Q1704.3906,1052.6563 1704.0156,1052.6563 Q1703.6719,1052.6563 1703.4688,1052.4531 Q1703.2656,1052.2656 1703.1563,1051.75 Q1703.1094,1051.3906 1702.9219,1051.2031 Q1702.5938,1050.8281 1701.9844,1050.6094 Q1701.375,1050.3906 1700.75,1050.3906 Q1699.9844,1050.3906 1699.3438,1050.7188 Q1698.7188,1051.0469 1698.2188,1051.7969 Q1697.7344,1052.5469 1697.7344,1053.5781 L1697.7344,1054.6719 Q1697.7344,1055.9063 1698.625,1056.7344 Q1699.5156,1057.5469 1701.1094,1057.5469 Q1702.0469,1057.5469 1702.7031,1057.2969 Q1703.0938,1057.1406 1703.5156,1056.7031 Q1703.7813,1056.4375 1703.9219,1056.3594 Q1704.0781,1056.2813 1704.2813,1056.2813 Q1704.6094,1056.2813 1704.8594,1056.5469 Q1705.125,1056.7969 1705.125,1057.1406 Q1705.125,1057.4844 1704.7813,1057.8906 Q1704.2813,1058.4688 1703.4844,1058.7969 Q1702.4063,1059.25 1701.1094,1059.25 Q1699.5938,1059.25 1698.3906,1058.625 Q1697.4063,1058.125 1696.7188,1057.0625 Q1696.0313,1055.9844 1696.0313,1054.7031 L1696.0313,1053.5469 Q1696.0313,1052.2188 1696.6406,1051.0781 Q1697.2656,1049.9219 1698.3594,1049.3125 Q1699.4531,1048.6875 1700.6875,1048.6875 Q1701.4219,1048.6875 1702.0625,1048.8594 Q1702.7188,1049.0156 1703.2656,1049.375 Z " fill="#000000"/><text fill="#000000" font-family="sans-serif" font-size="14" lengthAdjust="spacing" textLength="89" x="1714.5" y="1059.2285">models.Player</text><line style="stroke:#181818;stroke-width:0.5;" x1="1686.5" x2="1805.5" y1="1069.5" y2="1069.5"/><line style="stroke:#181818;stroke-width:0.5;" x1="1686.5" x2="1805.5" y1="1077.5" y2="1077.5"/></g><!--class PlayerVisitor--><g id="elem_PlayerVisitor"><rect codeLine="40" fill="#F1F1F1" height="48" id="PlayerVisitor" rx="2.5" ry="2.5" style="stroke:#181818;stroke-width:0.5;" width="160" x="7" y="174"/><ellipse cx="22" cy="190" fill="#B4A7E5" rx="11" ry="11" style="stroke:#181818;stroke-width:1.0;"/><path d="M22.9531,186.6406 L22.9531,193.2969 L24.6719,193.2969 Q25.2813,193.2969 25.5469,193.5313 Q25.8125,193.7656 25.8125,194.1563 Q25.8125,194.5313 25.5469,194.7656 Q25.2813,195 24.6719,195 L19.5313,195 Q18.9219,195 18.6563,194.7656 Q18.3906,194.5313 18.3906,194.1406 Q18.3906,193.7656 18.6563,193.5313 Q18.9219,193.2969 19.5313,193.2969 L21.25,193.2969 L21.25,186.6406 L19.5313,186.6406 Q18.9219,186.6406 18.6563,186.4063 Q18.3906,186.1719 18.3906,185.7813 Q18.3906,185.4063 18.6563,185.1719 Q18.9219,184.9375 19.5313,184.9375 L24.6719,184.9375 Q25.2813,184.9375 25.5469,185.1719 Q25.8125,185.4063 25.8125,185.7813 Q25.8125,186.1719 25.5469,186.4063 Q25.2813,186.6406 24.6719,186.6406 L22.9531,186.6406 Z " fill="#000000"/><text fill="#000000" font-family="sans-serif" font-size="14" font-style="italic" lengthAdjust="spacing" textLength="128" x="36" y="195.7285">models.PlayerVisitor</text><line style="stroke:#181818;stroke-width:0.5;" x1="8" x2="166" y1="206" y2="206"/><line style="stroke:#181818;stroke-width:0.5;" x1="8" x2="166" y1="214" y2="214"/></g><!--reverse link GameView to TurnView--><g id="link_GameView_TurnView"><path codeLine="18" d="M1512.1148,285.3886 C1485.4748,327.3186 1458.64,369.55 1430.44,413.94 " fill="none" id="GameView-backto-TurnView" style="stroke:#181818;stroke-width:1.0;"/><polygon fill="#181818" points="1518.55,275.26,1511.9562,278.1793,1512.1148,285.3886,1518.7086,282.4694,1518.55,275.26" style="stroke:#181818;stroke-width:1.0;"/></g><!--reverse link GameView to BoardView--><g id="link_GameView_BoardView"><path codeLine="19" d="M1570.7167,287.2493 C1572.9867,340.9593 1575.46,399.79 1577.54,449.05 " fill="none" id="GameView-backto-BoardView" style="stroke:#181818;stroke-width:1.0;"/><polygon fill="#181818" points="1570.21,275.26,1566.4669,281.4236,1570.7167,287.2493,1574.4598,281.0857,1570.21,275.26" style="stroke:#181818;stroke-width:1.0;"/></g><!--link TurnView to PlayerView--><g id="link_TurnView_PlayerView"><path codeLine="20" d="M1310.7,603.09 C1297.21,624.02 1286.8391,640.1158 1275.5991,657.5658 " fill="none" id="TurnView-to-PlayerView" style="stroke:#181818;stroke-width:1.0;stroke-dasharray:7.0,7.0;"/><polygon fill="#181818" points="1272.35,662.61,1280.5864,657.2098,1275.0576,658.4065,1273.8608,652.8777,1272.35,662.61" style="stroke:#181818;stroke-width:1.0;"/></g><!--reverse link PlayerView to UserPlayerView--><g id="link_PlayerView_UserPlayerView"><path codeLine="21" d="M1325.4969,747.3407 C1361.2169,766.4207 1390.53,782.65 1430,806 C1444.03,814.3 1458.8,823.41 1472.98,832.36 " fill="none" id="PlayerView-backto-UserPlayerView" style="stroke:#181818;stroke-width:1.0;"/><polygon fill="none" points="1309.62,738.86,1322.67,752.633,1328.3238,742.0484,1309.62,738.86" style="stroke:#181818;stroke-width:1.0;"/></g><!--reverse link PlayerView to MachinePlayerView--><g id="link_PlayerView_MachinePlayerView"><path codeLine="22" d="M1165.613,740.4476 C1107.773,765.5976 1037.41,796.18 965.68,827.36 " fill="none" id="PlayerView-backto-MachinePlayerView" style="stroke:#181818;stroke-width:1.0;"/><polygon fill="none" points="1182.12,733.27,1163.2204,734.9452,1168.0055,745.9499,1182.12,733.27" style="stroke:#181818;stroke-width:1.0;"/></g><!--reverse link MachinePlayerView to MinMaxMachinePlayerView--><g id="link_MachinePlayerView_MinMaxMachinePlayerView"><path codeLine="23" d="M762.2128,973.7337 C741.5128,997.6237 731.55,1009.11 714.97,1028.23 " fill="none" id="MachinePlayerView-backto-MinMaxMachinePlayerView" style="stroke:#181818;stroke-width:1.0;"/><polygon fill="none" points="774,960.13,757.6782,969.8046,766.7473,977.6628,774,960.13" style="stroke:#181818;stroke-width:1.0;"/></g><!--reverse link MachinePlayerView to RandomMachinePlayerView--><g id="link_MachinePlayerView_RandomMachinePlayerView"><path codeLine="24" d="M697.459,935.4508 C611.569,966.4508 516.75,1000.67 439.98,1028.38 " fill="none" id="MachinePlayerView-backto-RandomMachinePlayerView" style="stroke:#181818;stroke-width:1.0;"/><polygon fill="none" points="714.39,929.34,695.4221,929.8072,699.496,941.0945,714.39,929.34" style="stroke:#181818;stroke-width:1.0;"/></g><!--reverse link TurnOption to SetRandomMachinePlayerOption--><g id="link_TurnOption_SetRandomMachinePlayerOption"><path codeLine="25" d="M1350.3382,935.6705 C1387.6082,964.2805 1422.99,991.43 1460.21,1019.99 " fill="none" id="TurnOption-backto-SetRandomMachinePlayerOption" style="stroke:#181818;stroke-width:1.0;"/><polygon fill="none" points="1336.06,924.71,1346.6847,940.4299,1353.9917,930.9111,1336.06,924.71" style="stroke:#181818;stroke-width:1.0;"/></g><!--reverse link TurnOption to SetMinMaxMachinePlayerOption--><g id="link_TurnOption_SetMinMaxMachinePlayerOption"><path codeLine="26" d="M1199.7479,933.9756 C1141.5879,968.8956 1075.27,1008.71 1027.65,1037.3 " fill="none" id="TurnOption-backto-SetMinMaxMachinePlayerOption" style="stroke:#181818;stroke-width:1.0;"/><polygon fill="none" points="1215.18,924.71,1196.6594,928.8316,1202.8365,939.1196,1215.18,924.71" style="stroke:#181818;stroke-width:1.0;"/></g><!--reverse link TurnOption to SetUserPlayerOption--><g id="link_TurnOption_SetUserPlayerOption"><path codeLine="27" d="M1269.0897,942.4502 C1262.2997,970.9602 1257.46,991.32 1250.69,1019.79 " fill="none" id="TurnOption-backto-SetUserPlayerOption" style="stroke:#181818;stroke-width:1.0;"/><polygon fill="none" points="1273.26,924.94,1263.253,941.0602,1274.9265,943.8403,1273.26,924.94" style="stroke:#181818;stroke-width:1.0;"/></g><!--link TurnView to TurnMenu--><g id="link_TurnView_TurnMenu"><path codeLine="29" d="M1431.3,603.09 C1444.79,624.02 1455.1609,640.1158 1466.4009,657.5658 " fill="none" id="TurnView-to-TurnMenu" style="stroke:#181818;stroke-width:1.0;stroke-dasharray:7.0,7.0;"/><polygon fill="#181818" points="1469.65,662.61,1468.1392,652.8777,1466.9424,658.4065,1461.4136,657.2098,1469.65,662.61" style="stroke:#181818;stroke-width:1.0;"/></g><!--reverse link TurnMenu to TurnOption--><g id="link_TurnMenu_TurnOption"><path codeLine="30" d="M1437.6297,753.8661 C1403.0997,782.4761 1366.36,812.93 1331.89,841.49 " fill="none" id="TurnMenu-backto-TurnOption" style="stroke:#181818;stroke-width:1.0;"/><polygon fill="none" points="1446.87,746.21,1439.6978,746.958,1437.6297,753.8661,1444.8019,753.1182,1446.87,746.21" style="stroke:#181818;stroke-width:1.0;"/></g><!--link TurnOption to Option--><g id="link_TurnOption_Option"><path codeLine="42" d="M1350.16,924.58 C1374.55,937.72 1402.81,951.17 1430,960 C1598.46,1014.73 1654.22,969.5 1824,1020 C1838.97,1024.45 1838.3346,1023.3799 1852.3146,1029.8499 " fill="none" id="TurnOption-to-Option" style="stroke:#181818;stroke-width:1.0;"/><polygon fill="none" points="1868.65,1037.41,1854.8346,1024.4048,1849.7946,1035.295,1868.65,1037.41" style="stroke:#181818;stroke-width:1.0;"/></g><!--link TurnMenu to SecuentialMenu--><g id="link_TurnMenu_SecuentialMenu"><path codeLine="43" d="M1566.65,746.24 C1597.61,764.28 1634.26,785.94 1667,806 C1695.32,823.36 1711.8883,833.8507 1735.4383,849.0907 " fill="none" id="TurnMenu-to-SecuentialMenu" style="stroke:#181818;stroke-width:1.0;"/><polygon fill="none" points="1750.55,858.87,1738.698,844.0534,1732.1785,854.1279,1750.55,858.87" style="stroke:#181818;stroke-width:1.0;"/></g><!--link BoardView to Game--><g id="link_BoardView_Game"><path codeLine="44" d="M1650.79,551.12 C1718.02,590.64 1811.4679,645.5688 1865.6179,677.4088 " fill="none" id="BoardView-to-Game" style="stroke:#181818;stroke-width:1.0;"/><polygon fill="#181818" points="1870.79,680.45,1865.0593,672.4401,1866.4799,677.9157,1861.0043,679.3363,1870.79,680.45" style="stroke:#181818;stroke-width:1.0;"/></g><!--link BoardView to Coordinate--><g id="link_BoardView_Coordinate"><path codeLine="45" d="M1630.71,567.71 C1663.57,605.43 1700.6586,648.0061 1724.7486,675.6561 " fill="none" id="BoardView-to-Coordinate" style="stroke:#181818;stroke-width:1.0;stroke-dasharray:7.0,7.0;"/><polygon fill="#181818" points="1728.69,680.18,1725.7938,670.7666,1725.4055,676.4101,1719.762,676.0218,1728.69,680.18" style="stroke:#181818;stroke-width:1.0;"/></g><!--link GameView to Game--><g id="link_GameView_Game"><path codeLine="46" d="M1616.15,275.36 C1632.5,300.5 1650.89,328.54 1668,354 C1751.34,478.05 1850.801,619.6374 1890.171,675.4374 " fill="none" id="GameView-to-Game" style="stroke:#181818;stroke-width:1.0;"/><polygon fill="#181818" points="1893.63,680.34,1891.7098,670.6801,1890.7475,676.2545,1885.1731,675.2922,1893.63,680.34" style="stroke:#181818;stroke-width:1.0;"/></g><!--reverse link MachinePlayerView to Player--><g id="link_MachinePlayerView_Player"><path codeLine="47" d="M977.1279,923.4579 C1029.4579,937.5379 1079.51,949.61 1136,960 C1369.58,1002.97 1439.63,951.38 1667,1020 C1680.87,1024.19 1695.21,1030.76 1707.79,1037.4 " fill="none" id="MachinePlayerView-backto-Player" style="stroke:#181818;stroke-width:1.0;"/><polygon fill="#181818" points="965.54,920.34,970.2947,925.7616,977.1279,923.4579,972.3732,918.0363,965.54,920.34" style="stroke:#181818;stroke-width:1.0;"/></g><!--reverse link UserPlayerView to Player--><g id="link_UserPlayerView_Player"><path codeLine="48" d="M1613.3371,941.638 C1651.2371,975.598 1690.8,1011.04 1720.08,1037.27 " fill="none" id="UserPlayerView-backto-Player" style="stroke:#181818;stroke-width:1.0;"/><polygon fill="#181818" points="1604.4,933.63,1606.1992,940.613,1613.3371,941.638,1611.5379,934.655,1604.4,933.63" style="stroke:#181818;stroke-width:1.0;"/></g><!--link TurnView to Game--><g id="link_TurnView_Game"><path codeLine="49" d="M1474.29,594.15 C1480.13,597.39 1486.05,600.37 1492,603 C1632.76,665.19 1687.38,613.25 1833,663 C1846.15,667.49 1854.4999,671.159 1866.5899,677.629 " fill="none" id="TurnView-to-Game" style="stroke:#181818;stroke-width:1.0;"/><polygon fill="#181818" points="1871.88,680.46,1865.8322,672.6867,1867.4716,678.1008,1862.0575,679.7402,1871.88,680.46" style="stroke:#181818;stroke-width:1.0;"/></g><!--link TurnMenu to Turn--><g id="link_TurnMenu_Turn"><path codeLine="50" d="M1647.63,742.19 C1762.53,770.1 1901.21,804.05 1904,806 C1990.8,866.71 2043.7442,981.2521 2064.0142,1031.7321 " fill="none" id="TurnMenu-to-Turn" style="stroke:#181818;stroke-width:1.0;"/><polygon fill="#181818" points="2066.25,1037.3,2066.6083,1027.4577,2064.3869,1032.6601,2059.1844,1030.4387,2066.25,1037.3" style="stroke:#181818;stroke-width:1.0;"/></g><!--link TurnOption to Turn--><g id="link_TurnOption_Turn"><path codeLine="51" d="M1348.84,924.69 C1373.46,938.09 1402.2,951.68 1430,960 C1674.88,1033.3 1758.22,943.11 2002,1020 C2014.99,1024.1 2023.0805,1027.6732 2034.7005,1034.3132 " fill="none" id="TurnOption-to-Turn" style="stroke:#181818;stroke-width:1.0;"/><polygon fill="#181818" points="2039.91,1037.29,2034.0804,1029.3518,2035.5688,1034.8093,2030.1113,1036.2977,2039.91,1037.29" style="stroke:#181818;stroke-width:1.0;"/></g><!--reverse link PlayerVisitor to TurnView--><g id="link_PlayerVisitor_TurnView"><path codeLine="52" d="M100.0887,239.266 C112.2287,274.266 134.44,322.71 183,354 C361.75,469.18 1013.01,498.29 1267.81,505.35 " fill="none" id="PlayerVisitor-backto-TurnView" style="stroke:#181818;stroke-width:1.0;"/><polygon fill="none" points="94.19,222.26,94.42,241.2323,105.7574,237.2998,94.19,222.26" style="stroke:#181818;stroke-width:1.0;"/></g><!--SRC=[XLPRRvmy47tdLrZf2_csx0z0LQJjXYP8kn01crvULYxhRAq2Zh0tQVkr_xs-0JOO-cQVSpmpdXbVoWfI2bumUgNhErYZHpxoIWDyJs1xcg35fMqa2BzIriAI0PDzgE1FrCxpUrX-mmqoP1QBcptyiQp9O7CYzRBcG54xGudmzwYvkCCJRFhCC6ciHJbY3hTkeMCFRk4GfEPvL7MN24GfF2DhoMT44tABOKNEdjSL3FmN1A0lYOKEvUjui5xV02Clmn2y-yrNZD8sfgSvdo1QE5F66VbSHOTYADrY5HpY-Keun9Dgs5dhswOR0A8JtybrhRHPIC7LXU6AhcikNYlqIcjoL5vGmtWffQMHrcQxDQAqKbcJ4whKYUqu4OR9YNd7RGbfJxY1JAq-I3y3ECWQIYfanAAHJg1oOtfHo9M76uRQ9rYYlhKePiGXrSILP-O_27xV0ACiCYCIjFFWzUtCsHkP3WCI9HesDPo3NZfjFN54rDIp-zva-Xxe3HanggwmDwCnEnEon_f3QXpU40HdFWwLQHF-scqjDCwnAM3QNEWu_I5OTMDV3Aujwfd79kQ-1GUOPeXUQdJY-B1lEq8JxiRQWq6jMaGHKocWlasTMl9SaE-e6U4l8bN-K0WNwpZyBfdZsDkornOp93PRCR7NeOlipLfuFz7RDKbbi19RijP8-9wq-1Tf6Ao4BwFB-Bh_kpVeZvaMIpD8m9ipObjINMek2W4_TPwZgqFmXc5MyJtahCNDsIa9dkKij6zqftGr0VrHPfqE9g4wRSi4RRyHGb7JoTrACp_UpFCYetLJuvYzcIT7c9YX9YP6buQHrO6PYbOsOdNyrAAZukfZ83g3CiXm-GUiYhZOHKxcFitYBsbIR7R7NPouDOzHLiJR9KLno18d4IL5b1stwUwmJuv5UhpDqWUdC4uUDxluLakTacswVzX5HRGeUjXjFdEF7-CbEZyMSNJh56HHVjYxDxczJzCyIgRU0weFKe-iIluqilPIyhlTL-orISkszgUGl24yp_Z7cH44cmyVuco_AUB7Q5QJH7VBWlp0hNoQfVTHdc_knii3sD1NtgqsogznA1w34Ohfvka9jpMt-89ST8BECnnlvutqr3qnyY7bH3VsvNz1FMblGGr_g3z0YQXi_sjh4JoTrBDBEtFw5TQlOpXvdhKdDVEjUv9x6rnpSqj_JM5dYVULZN-PaFycVhFxojtu0wgzZE71k6k1QVCl]--></g></svg>