<?xml version="1.0" encoding="us-ascii" standalone="no"?><svg xmlns="http://www.w3.org/2000/svg" xmlns:xlink="http://www.w3.org/1999/xlink" contentStyleType="text/css" height="1073px" preserveAspectRatio="none" style="width:1290px;height:1073px;background:#FFFFFF;" version="1.1" viewBox="0 0 1290 1073" width="1290px" zoomAndPan="magnify"><defs/><g><!--cluster views--><g id="cluster_views"><path d="M8.5,6 L50.5,6 A3.75,3.75 0 0 1 53,8.5 L60,29.6094 L819.5,29.6094 A2.5,2.5 0 0 1 822,32.1094 L822,1063.5 A2.5,2.5 0 0 1 819.5,1066 L8.5,1066 A2.5,2.5 0 0 1 6,1063.5 L6,8.5 A2.5,2.5 0 0 1 8.5,6 " fill="none" style="stroke:#000000;stroke-width:1.5;"/><line style="stroke:#000000;stroke-width:1.5;" x1="6" x2="60" y1="29.6094" y2="29.6094"/><text fill="#000000" font-family="sans-serif" font-size="14" font-weight="bold" lengthAdjust="spacing" textLength="41" x="10" y="22.5332">views</text></g><!--class GameView--><g id="elem_GameView"><rect codeLine="2" fill="#F1F1F1" height="153.6563" id="GameView" rx="2.5" ry="2.5" style="stroke:#181818;stroke-width:0.5;" width="167" x="637.5" y="112.5"/><ellipse cx="683.25" cy="128.5" fill="#ADD1B2" rx="11" ry="11" style="stroke:#181818;stroke-width:1.0;"/><path d="M686.0156,124.375 Q686.1719,124.1563 686.3594,124.0469 Q686.5469,123.9375 686.7656,123.9375 Q687.1406,123.9375 687.375,124.2031 Q687.6094,124.4531 687.6094,125.0625 L687.6094,126.5156 Q687.6094,127.125 687.375,127.3906 Q687.1406,127.6563 686.7656,127.6563 Q686.4219,127.6563 686.2188,127.4531 Q686.0156,127.2656 685.9063,126.75 Q685.8594,126.3906 685.6719,126.2031 Q685.3438,125.8281 684.7344,125.6094 Q684.125,125.3906 683.5,125.3906 Q682.7344,125.3906 682.0938,125.7188 Q681.4688,126.0469 680.9688,126.7969 Q680.4844,127.5469 680.4844,128.5781 L680.4844,129.6719 Q680.4844,130.9063 681.375,131.7344 Q682.2656,132.5469 683.8594,132.5469 Q684.7969,132.5469 685.4531,132.2969 Q685.8438,132.1406 686.2656,131.7031 Q686.5313,131.4375 686.6719,131.3594 Q686.8281,131.2813 687.0313,131.2813 Q687.3594,131.2813 687.6094,131.5469 Q687.875,131.7969 687.875,132.1406 Q687.875,132.4844 687.5313,132.8906 Q687.0313,133.4688 686.2344,133.7969 Q685.1563,134.25 683.8594,134.25 Q682.3438,134.25 681.1406,133.625 Q680.1563,133.125 679.4688,132.0625 Q678.7813,130.9844 678.7813,129.7031 L678.7813,128.5469 Q678.7813,127.2188 679.3906,126.0781 Q680.0156,124.9219 681.1094,124.3125 Q682.2031,123.6875 683.4375,123.6875 Q684.1719,123.6875 684.8125,123.8594 Q685.4688,124.0156 686.0156,124.375 Z " fill="#000000"/><text fill="#000000" font-family="sans-serif" font-size="14" lengthAdjust="spacing" textLength="67" x="703.75" y="134.2285">GameView</text><line style="stroke:#181818;stroke-width:0.5;" x1="638.5" x2="803.5" y1="144.5" y2="144.5"/><rect fill="none" height="6" style="stroke:#C82930;stroke-width:1.0;" width="6" x="645.5" y="155.8047"/><text fill="#000000" font-family="sans-serif" font-size="14" lengthAdjust="spacing" textLength="81" x="657.5" y="163.0332">game: Game</text><rect fill="none" height="6" style="stroke:#C82930;stroke-width:1.0;" width="6" x="645.5" y="173.4141"/><text fill="#000000" font-family="sans-serif" font-size="14" lengthAdjust="spacing" textLength="141" x="657.5" y="180.6426">boardView: BoardView</text><rect fill="none" height="6" style="stroke:#C82930;stroke-width:1.0;" width="6" x="645.5" y="191.0234"/><text fill="#000000" font-family="sans-serif" font-size="14" lengthAdjust="spacing" textLength="121" x="657.5" y="198.252">turnView: TurnView</text><line style="stroke:#181818;stroke-width:0.5;" x1="638.5" x2="803.5" y1="205.3281" y2="205.3281"/><ellipse cx="648.5" cy="219.6328" fill="#84BE84" rx="3" ry="3" style="stroke:#038048;stroke-width:1.0;"/><text fill="#000000" font-family="sans-serif" font-size="14" lengthAdjust="spacing" textLength="115" x="657.5" y="223.8613">GameView(Game)</text><ellipse cx="648.5" cy="237.2422" fill="#84BE84" rx="3" ry="3" style="stroke:#038048;stroke-width:1.0;"/><text fill="#000000" font-family="sans-serif" font-size="14" lengthAdjust="spacing" textLength="74" x="657.5" y="241.4707">playGame()</text><rect fill="#F24D5C" height="6" style="stroke:#C82930;stroke-width:1.0;" width="6" x="645.5" y="251.8516"/><text fill="#000000" font-family="sans-serif" font-size="14" lengthAdjust="spacing" textLength="80" x="657.5" y="259.0801">isResumed()</text></g><!--class BoardView--><g id="elem_BoardView"><rect codeLine="3" fill="#F1F1F1" height="118.4375" id="BoardView" rx="2.5" ry="2.5" style="stroke:#181818;stroke-width:0.5;" width="141" x="513.5" y="441"/><ellipse cx="547.4" cy="457" fill="#ADD1B2" rx="11" ry="11" style="stroke:#181818;stroke-width:1.0;"/><path d="M550.1656,452.875 Q550.3219,452.6563 550.5094,452.5469 Q550.6969,452.4375 550.9156,452.4375 Q551.2906,452.4375 551.525,452.7031 Q551.7594,452.9531 551.7594,453.5625 L551.7594,455.0156 Q551.7594,455.625 551.525,455.8906 Q551.2906,456.1563 550.9156,456.1563 Q550.5719,456.1563 550.3688,455.9531 Q550.1656,455.7656 550.0563,455.25 Q550.0094,454.8906 549.8219,454.7031 Q549.4938,454.3281 548.8844,454.1094 Q548.275,453.8906 547.65,453.8906 Q546.8844,453.8906 546.2438,454.2188 Q545.6188,454.5469 545.1188,455.2969 Q544.6344,456.0469 544.6344,457.0781 L544.6344,458.1719 Q544.6344,459.4063 545.525,460.2344 Q546.4156,461.0469 548.0094,461.0469 Q548.9469,461.0469 549.6031,460.7969 Q549.9938,460.6406 550.4156,460.2031 Q550.6813,459.9375 550.8219,459.8594 Q550.9781,459.7813 551.1813,459.7813 Q551.5094,459.7813 551.7594,460.0469 Q552.025,460.2969 552.025,460.6406 Q552.025,460.9844 551.6813,461.3906 Q551.1813,461.9688 550.3844,462.2969 Q549.3063,462.75 548.0094,462.75 Q546.4938,462.75 545.2906,462.125 Q544.3063,461.625 543.6188,460.5625 Q542.9313,459.4844 542.9313,458.2031 L542.9313,457.0469 Q542.9313,455.7188 543.5406,454.5781 Q544.1656,453.4219 545.2594,452.8125 Q546.3531,452.1875 547.5875,452.1875 Q548.3219,452.1875 548.9625,452.3594 Q549.6188,452.5156 550.1656,452.875 Z " fill="#000000"/><text fill="#000000" font-family="sans-serif" font-size="14" lengthAdjust="spacing" textLength="67" x="565.6" y="462.7285">BoardView</text><line style="stroke:#181818;stroke-width:0.5;" x1="514.5" x2="653.5" y1="473" y2="473"/><rect fill="none" height="6" style="stroke:#C82930;stroke-width:1.0;" width="6" x="521.5" y="484.3047"/><text fill="#000000" font-family="sans-serif" font-size="14" lengthAdjust="spacing" textLength="81" x="533.5" y="491.5332">game: Game</text><line style="stroke:#181818;stroke-width:0.5;" x1="514.5" x2="653.5" y1="498.6094" y2="498.6094"/><rect fill="#F24D5C" height="6" style="stroke:#C82930;stroke-width:1.0;" width="6" x="521.5" y="509.9141"/><text fill="#000000" font-family="sans-serif" font-size="14" lengthAdjust="spacing" textLength="115" x="533.5" y="517.1426">BoardView(Game)</text><ellipse cx="524.5" cy="530.5234" fill="#84BE84" rx="3" ry="3" style="stroke:#038048;stroke-width:1.0;"/><text fill="#000000" font-family="sans-serif" font-size="14" lengthAdjust="spacing" textLength="50" x="533.5" y="534.752">writeln()</text><rect fill="#F24D5C" height="6" style="stroke:#C82930;stroke-width:1.0;" width="6" x="521.5" y="545.1328"/><text fill="#000000" font-family="sans-serif" font-size="14" lengthAdjust="spacing" textLength="101" x="533.5" y="552.3613">writeHorizontal()</text></g><!--class PlayerVisitor--><g id="elem_PlayerVisitor"><rect codeLine="4" fill="#F1F1F1" height="83.2188" id="PlayerVisitor" rx="2.5" ry="2.5" style="stroke:#181818;stroke-width:0.5;" width="206" x="272" y="148"/><ellipse cx="331.25" cy="164" fill="#B4A7E5" rx="11" ry="11" style="stroke:#181818;stroke-width:1.0;"/><path d="M332.2031,160.6406 L332.2031,167.2969 L333.9219,167.2969 Q334.5313,167.2969 334.7969,167.5313 Q335.0625,167.7656 335.0625,168.1563 Q335.0625,168.5313 334.7969,168.7656 Q334.5313,169 333.9219,169 L328.7813,169 Q328.1719,169 327.9063,168.7656 Q327.6406,168.5313 327.6406,168.1406 Q327.6406,167.7656 327.9063,167.5313 Q328.1719,167.2969 328.7813,167.2969 L330.5,167.2969 L330.5,160.6406 L328.7813,160.6406 Q328.1719,160.6406 327.9063,160.4063 Q327.6406,160.1719 327.6406,159.7813 Q327.6406,159.4063 327.9063,159.1719 Q328.1719,158.9375 328.7813,158.9375 L333.9219,158.9375 Q334.5313,158.9375 334.7969,159.1719 Q335.0625,159.4063 335.0625,159.7813 Q335.0625,160.1719 334.7969,160.4063 Q334.5313,160.6406 333.9219,160.6406 L332.2031,160.6406 Z " fill="#000000"/><text fill="#000000" font-family="sans-serif" font-size="14" font-style="italic" lengthAdjust="spacing" textLength="79" x="351.75" y="169.7285">PlayerVisitor</text><line style="stroke:#181818;stroke-width:0.5;" x1="273" x2="477" y1="180" y2="180"/><line style="stroke:#181818;stroke-width:0.5;" x1="273" x2="477" y1="188" y2="188"/><ellipse cx="283" cy="202.3047" fill="#84BE84" rx="3" ry="3" style="stroke:#038048;stroke-width:1.0;"/><text fill="#000000" font-family="sans-serif" font-size="14" lengthAdjust="spacing" textLength="103" x="292" y="206.5332">visit(UserPlayer)</text><ellipse cx="283" cy="219.9141" fill="#84BE84" rx="3" ry="3" style="stroke:#038048;stroke-width:1.0;"/><text fill="#000000" font-family="sans-serif" font-size="14" lengthAdjust="spacing" textLength="180" x="292" y="224.1426">visit(RandomMachinePlayer)</text></g><!--class TurnView--><g id="elem_TurnView"><rect codeLine="5" fill="#F1F1F1" height="171.2656" id="TurnView" rx="2.5" ry="2.5" style="stroke:#181818;stroke-width:0.5;" width="206" x="272" y="414.5"/><ellipse cx="341.25" cy="430.5" fill="#ADD1B2" rx="11" ry="11" style="stroke:#181818;stroke-width:1.0;"/><path d="M344.0156,426.375 Q344.1719,426.1563 344.3594,426.0469 Q344.5469,425.9375 344.7656,425.9375 Q345.1406,425.9375 345.375,426.2031 Q345.6094,426.4531 345.6094,427.0625 L345.6094,428.5156 Q345.6094,429.125 345.375,429.3906 Q345.1406,429.6563 344.7656,429.6563 Q344.4219,429.6563 344.2188,429.4531 Q344.0156,429.2656 343.9063,428.75 Q343.8594,428.3906 343.6719,428.2031 Q343.3438,427.8281 342.7344,427.6094 Q342.125,427.3906 341.5,427.3906 Q340.7344,427.3906 340.0938,427.7188 Q339.4688,428.0469 338.9688,428.7969 Q338.4844,429.5469 338.4844,430.5781 L338.4844,431.6719 Q338.4844,432.9063 339.375,433.7344 Q340.2656,434.5469 341.8594,434.5469 Q342.7969,434.5469 343.4531,434.2969 Q343.8438,434.1406 344.2656,433.7031 Q344.5313,433.4375 344.6719,433.3594 Q344.8281,433.2813 345.0313,433.2813 Q345.3594,433.2813 345.6094,433.5469 Q345.875,433.7969 345.875,434.1406 Q345.875,434.4844 345.5313,434.8906 Q345.0313,435.4688 344.2344,435.7969 Q343.1563,436.25 341.8594,436.25 Q340.3438,436.25 339.1406,435.625 Q338.1563,435.125 337.4688,434.0625 Q336.7813,432.9844 336.7813,431.7031 L336.7813,430.5469 Q336.7813,429.2188 337.3906,428.0781 Q338.0156,426.9219 339.1094,426.3125 Q340.2031,425.6875 341.4375,425.6875 Q342.1719,425.6875 342.8125,425.8594 Q343.4688,426.0156 344.0156,426.375 Z " fill="#000000"/><text fill="#000000" font-family="sans-serif" font-size="14" lengthAdjust="spacing" textLength="59" x="361.75" y="436.2285">TurnView</text><line style="stroke:#181818;stroke-width:0.5;" x1="273" x2="477" y1="446.5" y2="446.5"/><rect fill="none" height="6" style="stroke:#C82930;stroke-width:1.0;" width="6" x="280" y="457.8047"/><text fill="#000000" font-family="sans-serif" font-size="14" lengthAdjust="spacing" textLength="81" x="292" y="465.0332">game: Game</text><line style="stroke:#181818;stroke-width:0.5;" x1="273" x2="477" y1="472.1094" y2="472.1094"/><rect fill="#F24D5C" height="6" style="stroke:#C82930;stroke-width:1.0;" width="6" x="280" y="483.4141"/><text fill="#000000" font-family="sans-serif" font-size="14" lengthAdjust="spacing" textLength="107" x="292" y="490.6426">TurnView(Game)</text><ellipse cx="283" cy="504.0234" fill="#84BE84" rx="3" ry="3" style="stroke:#038048;stroke-width:1.0;"/><text fill="#000000" font-family="sans-serif" font-size="14" lengthAdjust="spacing" textLength="89" x="292" y="508.252">resetPlayers()</text><ellipse cx="283" cy="521.6328" fill="#84BE84" rx="3" ry="3" style="stroke:#038048;stroke-width:1.0;"/><text fill="#000000" font-family="sans-serif" font-size="14" lengthAdjust="spacing" textLength="79" x="292" y="525.8613">dropToken()</text><ellipse cx="283" cy="539.2422" fill="#84BE84" rx="3" ry="3" style="stroke:#038048;stroke-width:1.0;"/><text fill="#000000" font-family="sans-serif" font-size="14" lengthAdjust="spacing" textLength="103" x="292" y="543.4707">visit(UserPlayer)</text><ellipse cx="283" cy="556.8516" fill="#84BE84" rx="3" ry="3" style="stroke:#038048;stroke-width:1.0;"/><text fill="#000000" font-family="sans-serif" font-size="14" lengthAdjust="spacing" textLength="180" x="292" y="561.0801">visit(RandomMachinePlayer)</text><ellipse cx="283" cy="574.4609" fill="#84BE84" rx="3" ry="3" style="stroke:#038048;stroke-width:1.0;"/><text fill="#000000" font-family="sans-serif" font-size="14" lengthAdjust="spacing" textLength="79" x="292" y="578.6895">writeResult()</text></g><!--class PlayerView--><g id="elem_PlayerView"><rect codeLine="6" fill="#F1F1F1" height="83.2188" id="PlayerView" rx="2.5" ry="2.5" style="stroke:#181818;stroke-width:0.5;" width="127" x="311.5" y="663"/><ellipse cx="338.2" cy="679" fill="#B4A7E5" rx="11" ry="11" style="stroke:#181818;stroke-width:1.0;"/><path d="M339.1531,675.6406 L339.1531,682.2969 L340.8719,682.2969 Q341.4813,682.2969 341.7469,682.5313 Q342.0125,682.7656 342.0125,683.1563 Q342.0125,683.5313 341.7469,683.7656 Q341.4813,684 340.8719,684 L335.7313,684 Q335.1219,684 334.8563,683.7656 Q334.5906,683.5313 334.5906,683.1406 Q334.5906,682.7656 334.8563,682.5313 Q335.1219,682.2969 335.7313,682.2969 L337.45,682.2969 L337.45,675.6406 L335.7313,675.6406 Q335.1219,675.6406 334.8563,675.4063 Q334.5906,675.1719 334.5906,674.7813 Q334.5906,674.4063 334.8563,674.1719 Q335.1219,673.9375 335.7313,673.9375 L340.8719,673.9375 Q341.4813,673.9375 341.7469,674.1719 Q342.0125,674.4063 342.0125,674.7813 Q342.0125,675.1719 341.7469,675.4063 Q341.4813,675.6406 340.8719,675.6406 L339.1531,675.6406 Z " fill="#000000"/><text fill="#000000" font-family="sans-serif" font-size="14" font-style="italic" lengthAdjust="spacing" textLength="69" x="354.8" y="684.7285">PlayerView</text><line style="stroke:#181818;stroke-width:0.5;" x1="312.5" x2="437.5" y1="695" y2="695"/><line style="stroke:#181818;stroke-width:0.5;" x1="312.5" x2="437.5" y1="703" y2="703"/><ellipse cx="322.5" cy="717.3047" fill="#84BE84" rx="3" ry="3" style="stroke:#038048;stroke-width:1.0;"/><text fill="#000000" font-family="sans-serif" font-size="14" font-style="italic" lengthAdjust="spacing" textLength="80" x="331.5" y="721.5332">dropToken()</text><ellipse cx="322.5" cy="734.9141" fill="#84BE84" rx="3" ry="3" style="stroke:#038048;stroke-width:1.0;"/><text fill="#000000" font-family="sans-serif" font-size="14" font-style="italic" lengthAdjust="spacing" textLength="101" x="331.5" y="739.1426">getColumn(): int</text></g><!--class MachinePlayerView--><g id="elem_MachinePlayerView"><rect codeLine="7" fill="#F1F1F1" height="100.8281" id="MachinePlayerView" rx="2.5" ry="2.5" style="stroke:#181818;stroke-width:0.5;" width="251" x="22.5" y="806"/><ellipse cx="82.75" cy="822" fill="#ADD1B2" rx="11" ry="11" style="stroke:#181818;stroke-width:1.0;"/><path d="M85.5156,817.875 Q85.6719,817.6563 85.8594,817.5469 Q86.0469,817.4375 86.2656,817.4375 Q86.6406,817.4375 86.875,817.7031 Q87.1094,817.9531 87.1094,818.5625 L87.1094,820.0156 Q87.1094,820.625 86.875,820.8906 Q86.6406,821.1563 86.2656,821.1563 Q85.9219,821.1563 85.7188,820.9531 Q85.5156,820.7656 85.4063,820.25 Q85.3594,819.8906 85.1719,819.7031 Q84.8438,819.3281 84.2344,819.1094 Q83.625,818.8906 83,818.8906 Q82.2344,818.8906 81.5938,819.2188 Q80.9688,819.5469 80.4688,820.2969 Q79.9844,821.0469 79.9844,822.0781 L79.9844,823.1719 Q79.9844,824.4063 80.875,825.2344 Q81.7656,826.0469 83.3594,826.0469 Q84.2969,826.0469 84.9531,825.7969 Q85.3438,825.6406 85.7656,825.2031 Q86.0313,824.9375 86.1719,824.8594 Q86.3281,824.7813 86.5313,824.7813 Q86.8594,824.7813 87.1094,825.0469 Q87.375,825.2969 87.375,825.6406 Q87.375,825.9844 87.0313,826.3906 Q86.5313,826.9688 85.7344,827.2969 Q84.6563,827.75 83.3594,827.75 Q81.8438,827.75 80.6406,827.125 Q79.6563,826.625 78.9688,825.5625 Q78.2813,824.4844 78.2813,823.2031 L78.2813,822.0469 Q78.2813,820.7188 78.8906,819.5781 Q79.5156,818.4219 80.6094,817.8125 Q81.7031,817.1875 82.9375,817.1875 Q83.6719,817.1875 84.3125,817.3594 Q84.9688,817.5156 85.5156,817.875 Z " fill="#000000"/><text fill="#000000" font-family="sans-serif" font-size="14" lengthAdjust="spacing" textLength="122" x="103.25" y="827.7285">MachinePlayerView</text><line style="stroke:#181818;stroke-width:0.5;" x1="23.5" x2="272.5" y1="838" y2="838"/><rect fill="none" height="6" style="stroke:#C82930;stroke-width:1.0;" width="6" x="30.5" y="849.3047"/><text fill="#000000" font-family="sans-serif" font-size="14" lengthAdjust="spacing" textLength="140" x="42.5" y="856.5332">player: MachinePlayer</text><line style="stroke:#181818;stroke-width:0.5;" x1="23.5" x2="272.5" y1="863.6094" y2="863.6094"/><ellipse cx="33.5" cy="877.9141" fill="#84BE84" rx="3" ry="3" style="stroke:#038048;stroke-width:1.0;"/><text fill="#000000" font-family="sans-serif" font-size="14" lengthAdjust="spacing" textLength="225" x="42.5" y="882.1426">MachinePlayerView(MachinePlayer)</text><rect fill="#F24D5C" height="6" style="stroke:#C82930;stroke-width:1.0;" width="6" x="30.5" y="892.5234"/><text fill="#000000" font-family="sans-serif" font-size="14" lengthAdjust="spacing" textLength="101" x="42.5" y="899.752">getColumn(): int</text></g><!--class UserPlayerView--><g id="elem_UserPlayerView"><rect codeLine="8" fill="#F1F1F1" height="100.8281" id="UserPlayerView" rx="2.5" ry="2.5" style="stroke:#181818;stroke-width:0.5;" width="203" x="308.5" y="806"/><ellipse cx="356.75" cy="822" fill="#ADD1B2" rx="11" ry="11" style="stroke:#181818;stroke-width:1.0;"/><path d="M359.5156,817.875 Q359.6719,817.6563 359.8594,817.5469 Q360.0469,817.4375 360.2656,817.4375 Q360.6406,817.4375 360.875,817.7031 Q361.1094,817.9531 361.1094,818.5625 L361.1094,820.0156 Q361.1094,820.625 360.875,820.8906 Q360.6406,821.1563 360.2656,821.1563 Q359.9219,821.1563 359.7188,820.9531 Q359.5156,820.7656 359.4063,820.25 Q359.3594,819.8906 359.1719,819.7031 Q358.8438,819.3281 358.2344,819.1094 Q357.625,818.8906 357,818.8906 Q356.2344,818.8906 355.5938,819.2188 Q354.9688,819.5469 354.4688,820.2969 Q353.9844,821.0469 353.9844,822.0781 L353.9844,823.1719 Q353.9844,824.4063 354.875,825.2344 Q355.7656,826.0469 357.3594,826.0469 Q358.2969,826.0469 358.9531,825.7969 Q359.3438,825.6406 359.7656,825.2031 Q360.0313,824.9375 360.1719,824.8594 Q360.3281,824.7813 360.5313,824.7813 Q360.8594,824.7813 361.1094,825.0469 Q361.375,825.2969 361.375,825.6406 Q361.375,825.9844 361.0313,826.3906 Q360.5313,826.9688 359.7344,827.2969 Q358.6563,827.75 357.3594,827.75 Q355.8438,827.75 354.6406,827.125 Q353.6563,826.625 352.9688,825.5625 Q352.2813,824.4844 352.2813,823.2031 L352.2813,822.0469 Q352.2813,820.7188 352.8906,819.5781 Q353.5156,818.4219 354.6094,817.8125 Q355.7031,817.1875 356.9375,817.1875 Q357.6719,817.1875 358.3125,817.3594 Q358.9688,817.5156 359.5156,817.875 Z " fill="#000000"/><text fill="#000000" font-family="sans-serif" font-size="14" lengthAdjust="spacing" textLength="98" x="377.25" y="827.7285">UserPlayerView</text><line style="stroke:#181818;stroke-width:0.5;" x1="309.5" x2="510.5" y1="838" y2="838"/><rect fill="none" height="6" style="stroke:#C82930;stroke-width:1.0;" width="6" x="316.5" y="849.3047"/><text fill="#000000" font-family="sans-serif" font-size="14" lengthAdjust="spacing" textLength="116" x="328.5" y="856.5332">player: UserPlayer</text><line style="stroke:#181818;stroke-width:0.5;" x1="309.5" x2="510.5" y1="863.6094" y2="863.6094"/><ellipse cx="319.5" cy="877.9141" fill="#84BE84" rx="3" ry="3" style="stroke:#038048;stroke-width:1.0;"/><text fill="#000000" font-family="sans-serif" font-size="14" lengthAdjust="spacing" textLength="177" x="328.5" y="882.1426">UserPlayerView(UserPlayer)</text><rect fill="#F24D5C" height="6" style="stroke:#C82930;stroke-width:1.0;" width="6" x="316.5" y="892.5234"/><text fill="#000000" font-family="sans-serif" font-size="14" lengthAdjust="spacing" textLength="101" x="328.5" y="899.752">getColumn(): int</text></g><!--class TurnMenu--><g id="elem_TurnMenu"><rect codeLine="9" fill="#F1F1F1" height="83.2188" id="TurnMenu" rx="2.5" ry="2.5" style="stroke:#181818;stroke-width:0.5;" width="303" x="499.5" y="663"/><ellipse cx="614.25" cy="679" fill="#ADD1B2" rx="11" ry="11" style="stroke:#181818;stroke-width:1.0;"/><path d="M617.0156,674.875 Q617.1719,674.6563 617.3594,674.5469 Q617.5469,674.4375 617.7656,674.4375 Q618.1406,674.4375 618.375,674.7031 Q618.6094,674.9531 618.6094,675.5625 L618.6094,677.0156 Q618.6094,677.625 618.375,677.8906 Q618.1406,678.1563 617.7656,678.1563 Q617.4219,678.1563 617.2188,677.9531 Q617.0156,677.7656 616.9063,677.25 Q616.8594,676.8906 616.6719,676.7031 Q616.3438,676.3281 615.7344,676.1094 Q615.125,675.8906 614.5,675.8906 Q613.7344,675.8906 613.0938,676.2188 Q612.4688,676.5469 611.9688,677.2969 Q611.4844,678.0469 611.4844,679.0781 L611.4844,680.1719 Q611.4844,681.4063 612.375,682.2344 Q613.2656,683.0469 614.8594,683.0469 Q615.7969,683.0469 616.4531,682.7969 Q616.8438,682.6406 617.2656,682.2031 Q617.5313,681.9375 617.6719,681.8594 Q617.8281,681.7813 618.0313,681.7813 Q618.3594,681.7813 618.6094,682.0469 Q618.875,682.2969 618.875,682.6406 Q618.875,682.9844 618.5313,683.3906 Q618.0313,683.9688 617.2344,684.2969 Q616.1563,684.75 614.8594,684.75 Q613.3438,684.75 612.1406,684.125 Q611.1563,683.625 610.4688,682.5625 Q609.7813,681.4844 609.7813,680.2031 L609.7813,679.0469 Q609.7813,677.7188 610.3906,676.5781 Q611.0156,675.4219 612.1094,674.8125 Q613.2031,674.1875 614.4375,674.1875 Q615.1719,674.1875 615.8125,674.3594 Q616.4688,674.5156 617.0156,674.875 Z " fill="#000000"/><text fill="#000000" font-family="sans-serif" font-size="14" lengthAdjust="spacing" textLength="65" x="634.75" y="684.7285">TurnMenu</text><line style="stroke:#181818;stroke-width:0.5;" x1="500.5" x2="801.5" y1="695" y2="695"/><line style="stroke:#181818;stroke-width:0.5;" x1="500.5" x2="801.5" y1="703" y2="703"/><ellipse cx="510.5" cy="717.3047" fill="#84BE84" rx="3" ry="3" style="stroke:#038048;stroke-width:1.0;"/><text fill="#000000" font-family="sans-serif" font-size="14" lengthAdjust="spacing" textLength="277" x="519.5" y="721.5332">TurnMenu(model: Turn, maxSecuences: int)</text><ellipse cx="510.5" cy="734.9141" fill="#84BE84" rx="3" ry="3" style="stroke:#038048;stroke-width:1.0;"/><text fill="#000000" font-family="sans-serif" font-size="14" lengthAdjust="spacing" textLength="83" x="519.5" y="739.1426">addOptions()</text></g><!--class TurnOption--><g id="elem_TurnOption"><rect codeLine="10" fill="#F1F1F1" height="83.2188" id="TurnOption" rx="2.5" ry="2.5" style="stroke:#181818;stroke-width:0.5;" width="259" x="546.5" y="815"/><ellipse cx="635.75" cy="831" fill="#A9DCDF" rx="11" ry="11" style="stroke:#181818;stroke-width:1.0;"/><path d="M637.9375,832.7656 L633.7969,832.7656 L633.375,833.7969 L633.7969,833.7969 Q634.4063,833.7969 634.6719,834.0313 Q634.9375,834.2656 634.9375,834.6563 Q634.9375,835.0313 634.6719,835.2656 Q634.4063,835.5 633.7969,835.5 L631.5,835.5 Q630.8906,835.5 630.6406,835.2656 Q630.375,835.0313 630.375,834.6406 Q630.375,834.2656 630.6563,834.0313 Q630.9219,833.7813 631.5469,833.7969 L634.2188,827.1406 L633.1094,827.1406 Q632.5,827.1406 632.2344,826.9063 Q631.9688,826.6719 631.9688,826.2813 Q631.9688,825.9063 632.2344,825.6719 Q632.5,825.4375 633.1094,825.4375 L636.7813,825.4375 L640.1719,833.7969 Q640.7656,833.7969 640.9531,833.9375 Q641.3438,834.2031 641.3438,834.6563 Q641.3438,835.0313 641.0781,835.2656 Q640.8281,835.5 640.2188,835.5 L637.9219,835.5 Q637.3125,835.5 637.0469,835.2656 Q636.7813,835.0313 636.7813,834.6406 Q636.7813,834.2656 637.0469,834.0313 Q637.3125,833.7969 637.9219,833.7969 L638.3438,833.7969 L637.9375,832.7656 Z M637.2188,831.0625 L635.8594,827.6875 L634.4844,831.0625 L637.2188,831.0625 Z " fill="#000000"/><text fill="#000000" font-family="sans-serif" font-size="14" font-style="italic" lengthAdjust="spacing" textLength="72" x="656.25" y="836.7285">TurnOption</text><line style="stroke:#181818;stroke-width:0.5;" x1="547.5" x2="804.5" y1="847" y2="847"/><rect fill="none" height="6" style="stroke:#C82930;stroke-width:1.0;" width="6" x="554.5" y="858.3047"/><text fill="#000000" font-family="sans-serif" font-size="14" lengthAdjust="spacing" textLength="63" x="566.5" y="865.5332">turn: Turn</text><line style="stroke:#181818;stroke-width:0.5;" x1="547.5" x2="804.5" y1="872.6094" y2="872.6094"/><ellipse cx="557.5" cy="886.9141" fill="#84BE84" rx="3" ry="3" style="stroke:#038048;stroke-width:1.0;"/><text fill="#000000" font-family="sans-serif" font-size="14" lengthAdjust="spacing" textLength="233" x="566.5" y="891.1426">TurnOption(title: String, model: Turn)</text></g><!--class SetRandomMachinePlayerOption--><g id="elem_SetRandomMachinePlayerOption"><rect codeLine="11" fill="#F1F1F1" height="83.2188" id="SetRandomMachinePlayerOption" rx="2.5" ry="2.5" style="stroke:#181818;stroke-width:0.5;" width="275" x="280.5" y="967"/><ellipse cx="310.8" cy="983" fill="#ADD1B2" rx="11" ry="11" style="stroke:#181818;stroke-width:1.0;"/><path d="M313.5656,978.875 Q313.7219,978.6563 313.9094,978.5469 Q314.0969,978.4375 314.3156,978.4375 Q314.6906,978.4375 314.925,978.7031 Q315.1594,978.9531 315.1594,979.5625 L315.1594,981.0156 Q315.1594,981.625 314.925,981.8906 Q314.6906,982.1563 314.3156,982.1563 Q313.9719,982.1563 313.7688,981.9531 Q313.5656,981.7656 313.4563,981.25 Q313.4094,980.8906 313.2219,980.7031 Q312.8938,980.3281 312.2844,980.1094 Q311.675,979.8906 311.05,979.8906 Q310.2844,979.8906 309.6438,980.2188 Q309.0188,980.5469 308.5188,981.2969 Q308.0344,982.0469 308.0344,983.0781 L308.0344,984.1719 Q308.0344,985.4063 308.925,986.2344 Q309.8156,987.0469 311.4094,987.0469 Q312.3469,987.0469 313.0031,986.7969 Q313.3938,986.6406 313.8156,986.2031 Q314.0813,985.9375 314.2219,985.8594 Q314.3781,985.7813 314.5813,985.7813 Q314.9094,985.7813 315.1594,986.0469 Q315.425,986.2969 315.425,986.6406 Q315.425,986.9844 315.0813,987.3906 Q314.5813,987.9688 313.7844,988.2969 Q312.7063,988.75 311.4094,988.75 Q309.8938,988.75 308.6906,988.125 Q307.7063,987.625 307.0188,986.5625 Q306.3313,985.4844 306.3313,984.2031 L306.3313,983.0469 Q306.3313,981.7188 306.9406,980.5781 Q307.5656,979.4219 308.6594,978.8125 Q309.7531,978.1875 310.9875,978.1875 Q311.7219,978.1875 312.3625,978.3594 Q313.0188,978.5156 313.5656,978.875 Z " fill="#000000"/><text fill="#000000" font-family="sans-serif" font-size="14" lengthAdjust="spacing" textLength="209" x="328.2" y="988.7285">SetRandomMachinePlayerOption</text><line style="stroke:#181818;stroke-width:0.5;" x1="281.5" x2="554.5" y1="999" y2="999"/><line style="stroke:#181818;stroke-width:0.5;" x1="281.5" x2="554.5" y1="1007" y2="1007"/><ellipse cx="291.5" cy="1021.3047" fill="#84BE84" rx="3" ry="3" style="stroke:#038048;stroke-width:1.0;"/><text fill="#000000" font-family="sans-serif" font-size="14" lengthAdjust="spacing" textLength="249" x="300.5" y="1025.5332">SetRandomMachinePlayerOption(Turn)</text><ellipse cx="291.5" cy="1038.9141" fill="#84BE84" rx="3" ry="3" style="stroke:#038048;stroke-width:1.0;"/><text fill="#000000" font-family="sans-serif" font-size="14" lengthAdjust="spacing" textLength="57" x="300.5" y="1043.1426">interact()</text></g><!--class SetUserPlayerOption--><g id="elem_SetUserPlayerOption"><rect codeLine="12" fill="#F1F1F1" height="83.2188" id="SetUserPlayerOption" rx="2.5" ry="2.5" style="stroke:#181818;stroke-width:0.5;" width="198" x="591" y="967"/><ellipse cx="621.3" cy="983" fill="#ADD1B2" rx="11" ry="11" style="stroke:#181818;stroke-width:1.0;"/><path d="M624.0656,978.875 Q624.2219,978.6563 624.4094,978.5469 Q624.5969,978.4375 624.8156,978.4375 Q625.1906,978.4375 625.425,978.7031 Q625.6594,978.9531 625.6594,979.5625 L625.6594,981.0156 Q625.6594,981.625 625.425,981.8906 Q625.1906,982.1563 624.8156,982.1563 Q624.4719,982.1563 624.2688,981.9531 Q624.0656,981.7656 623.9563,981.25 Q623.9094,980.8906 623.7219,980.7031 Q623.3938,980.3281 622.7844,980.1094 Q622.175,979.8906 621.55,979.8906 Q620.7844,979.8906 620.1438,980.2188 Q619.5188,980.5469 619.0188,981.2969 Q618.5344,982.0469 618.5344,983.0781 L618.5344,984.1719 Q618.5344,985.4063 619.425,986.2344 Q620.3156,987.0469 621.9094,987.0469 Q622.8469,987.0469 623.5031,986.7969 Q623.8938,986.6406 624.3156,986.2031 Q624.5813,985.9375 624.7219,985.8594 Q624.8781,985.7813 625.0813,985.7813 Q625.4094,985.7813 625.6594,986.0469 Q625.925,986.2969 625.925,986.6406 Q625.925,986.9844 625.5813,987.3906 Q625.0813,987.9688 624.2844,988.2969 Q623.2063,988.75 621.9094,988.75 Q620.3938,988.75 619.1906,988.125 Q618.2063,987.625 617.5188,986.5625 Q616.8313,985.4844 616.8313,984.2031 L616.8313,983.0469 Q616.8313,981.7188 617.4406,980.5781 Q618.0656,979.4219 619.1594,978.8125 Q620.2531,978.1875 621.4875,978.1875 Q622.2219,978.1875 622.8625,978.3594 Q623.5188,978.5156 624.0656,978.875 Z " fill="#000000"/><text fill="#000000" font-family="sans-serif" font-size="14" lengthAdjust="spacing" textLength="132" x="638.7" y="988.7285">SetUserPlayerOption</text><line style="stroke:#181818;stroke-width:0.5;" x1="592" x2="788" y1="999" y2="999"/><line style="stroke:#181818;stroke-width:0.5;" x1="592" x2="788" y1="1007" y2="1007"/><ellipse cx="602" cy="1021.3047" fill="#84BE84" rx="3" ry="3" style="stroke:#038048;stroke-width:1.0;"/><text fill="#000000" font-family="sans-serif" font-size="14" lengthAdjust="spacing" textLength="172" x="611" y="1025.5332">SetUserPlayerOption(Turn)</text><ellipse cx="602" cy="1038.9141" fill="#84BE84" rx="3" ry="3" style="stroke:#038048;stroke-width:1.0;"/><text fill="#000000" font-family="sans-serif" font-size="14" lengthAdjust="spacing" textLength="57" x="611" y="1043.1426">interact()</text></g><!--class Message--><g id="elem_Message"><rect codeLine="13" fill="#F1F1F1" height="294.5313" id="Message" rx="2.5" ry="2.5" style="stroke:#181818;stroke-width:0.5;" width="214" x="23" y="42"/><ellipse cx="97.25" cy="58" fill="#EB937F" rx="11" ry="11" style="stroke:#181818;stroke-width:1.0;"/><path d="M96.1094,58.7969 L96.1094,61.2969 L100.4375,61.2969 L100.4375,60.375 Q100.4375,59.7656 100.6719,59.5 Q100.9219,59.2344 101.2969,59.2344 Q101.6719,59.2344 101.9063,59.5 Q102.1406,59.7656 102.1406,60.375 L102.1406,63 L94.1406,63 Q93.5156,63 93.25,62.7656 Q93,62.5313 93,62.1406 Q93,61.7656 93.2656,61.5313 Q93.5313,61.2969 94.1406,61.2969 L94.4063,61.2969 L94.4063,54.6406 L94.1406,54.6406 Q93.5156,54.6406 93.25,54.4063 Q93,54.1719 93,53.7813 Q93,53.4063 93.25,53.1719 Q93.5156,52.9375 94.1406,52.9375 L101.7656,52.9375 L101.7656,55.5313 Q101.7656,56.1406 101.5313,56.4063 Q101.3125,56.6563 100.9219,56.6563 Q100.5469,56.6563 100.3125,56.4063 Q100.0781,56.1406 100.0781,55.5313 L100.0781,54.6406 L96.1094,54.6406 L96.1094,57.0938 L97.5938,57.0938 Q97.5938,56.4375 97.7188,56.25 Q97.9844,55.8438 98.4531,55.8438 Q98.8281,55.8438 99.0625,56.1094 Q99.2969,56.3594 99.2969,56.9688 L99.2969,58.9375 Q99.2969,59.4844 99.1719,59.6719 Q98.9063,60.0625 98.4531,60.0625 Q97.9844,60.0625 97.7188,59.6563 Q97.5938,59.4688 97.5938,58.7969 L96.1094,58.7969 Z " fill="#000000"/><text fill="#000000" font-family="sans-serif" font-size="14" lengthAdjust="spacing" textLength="57" x="117.75" y="63.7285">Message</text><line style="stroke:#181818;stroke-width:0.5;" x1="24" x2="236" y1="74" y2="74"/><ellipse cx="34" cy="88.3047" fill="none" rx="3" ry="3" style="stroke:#038048;stroke-width:1.0;"/><text fill="#000000" font-family="sans-serif" font-size="14" lengthAdjust="spacing" text-decoration="underline" textLength="38" x="43" y="92.5332">TITLE</text><ellipse cx="34" cy="105.9141" fill="none" rx="3" ry="3" style="stroke:#038048;stroke-width:1.0;"/><text fill="#000000" font-family="sans-serif" font-size="14" lengthAdjust="spacing" text-decoration="underline" textLength="124" x="43" y="110.1426">HORIZONTAL_LINE</text><ellipse cx="34" cy="123.5234" fill="none" rx="3" ry="3" style="stroke:#038048;stroke-width:1.0;"/><text fill="#000000" font-family="sans-serif" font-size="14" lengthAdjust="spacing" text-decoration="underline" textLength="104" x="43" y="127.752">VERTICAL_LINE</text><ellipse cx="34" cy="141.1328" fill="none" rx="3" ry="3" style="stroke:#038048;stroke-width:1.0;"/><text fill="#000000" font-family="sans-serif" font-size="14" lengthAdjust="spacing" text-decoration="underline" textLength="37" x="43" y="145.3613">TURN</text><ellipse cx="34" cy="158.7422" fill="none" rx="3" ry="3" style="stroke:#038048;stroke-width:1.0;"/><text fill="#000000" font-family="sans-serif" font-size="14" lengthAdjust="spacing" text-decoration="underline" textLength="188" x="43" y="162.9707">ENTER_COLUMN_TO_DROP</text><ellipse cx="34" cy="176.3516" fill="none" rx="3" ry="3" style="stroke:#038048;stroke-width:1.0;"/><text fill="#000000" font-family="sans-serif" font-size="14" lengthAdjust="spacing" text-decoration="underline" textLength="117" x="43" y="180.5801">INVALID_COLUMN</text><ellipse cx="34" cy="193.9609" fill="none" rx="3" ry="3" style="stroke:#038048;stroke-width:1.0;"/><text fill="#000000" font-family="sans-serif" font-size="14" lengthAdjust="spacing" text-decoration="underline" textLength="152" x="43" y="198.1895">COMPLETED_COLUMN</text><ellipse cx="34" cy="211.5703" fill="none" rx="3" ry="3" style="stroke:#038048;stroke-width:1.0;"/><text fill="#000000" font-family="sans-serif" font-size="14" lengthAdjust="spacing" text-decoration="underline" textLength="87" x="43" y="215.7988">PLAYER_WIN</text><ellipse cx="34" cy="229.1797" fill="none" rx="3" ry="3" style="stroke:#038048;stroke-width:1.0;"/><text fill="#000000" font-family="sans-serif" font-size="14" lengthAdjust="spacing" text-decoration="underline" textLength="102" x="43" y="233.4082">PLAYERS_TIED</text><ellipse cx="34" cy="246.7891" fill="none" rx="3" ry="3" style="stroke:#038048;stroke-width:1.0;"/><text fill="#000000" font-family="sans-serif" font-size="14" lengthAdjust="spacing" text-decoration="underline" textLength="57" x="43" y="251.0176">RESUME</text><rect fill="none" height="6" style="stroke:#C82930;stroke-width:1.0;" width="6" x="31" y="261.3984"/><text fill="#000000" font-family="sans-serif" font-size="14" lengthAdjust="spacing" textLength="35" x="43" y="268.627">string</text><line style="stroke:#181818;stroke-width:0.5;" x1="24" x2="236" y1="275.7031" y2="275.7031"/><ellipse cx="34" cy="290.0078" fill="#84BE84" rx="3" ry="3" style="stroke:#038048;stroke-width:1.0;"/><text fill="#000000" font-family="sans-serif" font-size="14" lengthAdjust="spacing" textLength="116" x="43" y="294.2363">constructor(string)</text><ellipse cx="34" cy="307.6172" fill="#84BE84" rx="3" ry="3" style="stroke:#038048;stroke-width:1.0;"/><text fill="#000000" font-family="sans-serif" font-size="14" lengthAdjust="spacing" textLength="39" x="43" y="311.8457">write()</text><ellipse cx="34" cy="325.2266" fill="#84BE84" rx="3" ry="3" style="stroke:#038048;stroke-width:1.0;"/><text fill="#000000" font-family="sans-serif" font-size="14" lengthAdjust="spacing" textLength="50" x="43" y="329.4551">writeln()</text></g><!--class YesNoDialog--><g id="elem_YesNoDialog"><rect codeLine="14" fill="#F1F1F1" height="206.4844" id="YesNoDialog" rx="2.5" ry="2.5" style="stroke:#181818;stroke-width:0.5;" width="116" x="690" y="397"/><ellipse cx="706.35" cy="413" fill="#ADD1B2" rx="11" ry="11" style="stroke:#181818;stroke-width:1.0;"/><path d="M709.1156,408.875 Q709.2719,408.6563 709.4594,408.5469 Q709.6469,408.4375 709.8656,408.4375 Q710.2406,408.4375 710.475,408.7031 Q710.7094,408.9531 710.7094,409.5625 L710.7094,411.0156 Q710.7094,411.625 710.475,411.8906 Q710.2406,412.1563 709.8656,412.1563 Q709.5219,412.1563 709.3188,411.9531 Q709.1156,411.7656 709.0063,411.25 Q708.9594,410.8906 708.7719,410.7031 Q708.4438,410.3281 707.8344,410.1094 Q707.225,409.8906 706.6,409.8906 Q705.8344,409.8906 705.1938,410.2188 Q704.5688,410.5469 704.0688,411.2969 Q703.5844,412.0469 703.5844,413.0781 L703.5844,414.1719 Q703.5844,415.4063 704.475,416.2344 Q705.3656,417.0469 706.9594,417.0469 Q707.8969,417.0469 708.5531,416.7969 Q708.9438,416.6406 709.3656,416.2031 Q709.6313,415.9375 709.7719,415.8594 Q709.9281,415.7813 710.1313,415.7813 Q710.4594,415.7813 710.7094,416.0469 Q710.975,416.2969 710.975,416.6406 Q710.975,416.9844 710.6313,417.3906 Q710.1313,417.9688 709.3344,418.2969 Q708.2563,418.75 706.9594,418.75 Q705.4438,418.75 704.2406,418.125 Q703.2563,417.625 702.5688,416.5625 Q701.8813,415.4844 701.8813,414.2031 L701.8813,413.0469 Q701.8813,411.7188 702.4906,410.5781 Q703.1156,409.4219 704.2094,408.8125 Q705.3031,408.1875 706.5375,408.1875 Q707.2719,408.1875 707.9125,408.3594 Q708.5688,408.5156 709.1156,408.875 Z " fill="#000000"/><text fill="#000000" font-family="sans-serif" font-size="14" lengthAdjust="spacing" textLength="81" x="720.65" y="418.7285">YesNoDialog</text><line style="stroke:#181818;stroke-width:0.5;" x1="691" x2="805" y1="429" y2="429"/><rect fill="none" height="6" style="stroke:#C82930;stroke-width:1.0;" width="6" x="698" y="440.3047"/><text fill="#000000" font-family="sans-serif" font-size="14" lengthAdjust="spacing" text-decoration="underline" textLength="90" x="710" y="447.5332">AFFIRMATIVE</text><rect fill="none" height="6" style="stroke:#C82930;stroke-width:1.0;" width="6" x="698" y="457.9141"/><text fill="#000000" font-family="sans-serif" font-size="14" lengthAdjust="spacing" text-decoration="underline" textLength="68" x="710" y="465.1426">NEGATIVE</text><rect fill="none" height="6" style="stroke:#C82930;stroke-width:1.0;" width="6" x="698" y="475.5234"/><text fill="#000000" font-family="sans-serif" font-size="14" lengthAdjust="spacing" text-decoration="underline" textLength="47" x="710" y="482.752">SUFFIX</text><rect fill="none" height="6" style="stroke:#C82930;stroke-width:1.0;" width="6" x="698" y="493.1328"/><text fill="#000000" font-family="sans-serif" font-size="14" lengthAdjust="spacing" text-decoration="underline" textLength="67" x="710" y="500.3613">MESSAGE</text><rect fill="none" height="6" style="stroke:#C82930;stroke-width:1.0;" width="6" x="698" y="510.7422"/><text fill="#000000" font-family="sans-serif" font-size="14" lengthAdjust="spacing" textLength="45" x="710" y="517.9707">answer</text><line style="stroke:#181818;stroke-width:0.5;" x1="691" x2="805" y1="525.0469" y2="525.0469"/><ellipse cx="701" cy="539.3516" fill="#84BE84" rx="3" ry="3" style="stroke:#038048;stroke-width:1.0;"/><text fill="#000000" font-family="sans-serif" font-size="14" lengthAdjust="spacing" textLength="39" x="710" y="543.5801">read()</text><ellipse cx="701" cy="556.9609" fill="#84BE84" rx="3" ry="3" style="stroke:#038048;stroke-width:1.0;"/><text fill="#000000" font-family="sans-serif" font-size="14" lengthAdjust="spacing" textLength="86" x="710" y="561.1895">isAffirmative()</text><ellipse cx="701" cy="574.5703" fill="#84BE84" rx="3" ry="3" style="stroke:#038048;stroke-width:1.0;"/><text fill="#000000" font-family="sans-serif" font-size="14" lengthAdjust="spacing" textLength="75" x="710" y="578.7988">isNegative()</text><ellipse cx="701" cy="592.1797" fill="#84BE84" rx="3" ry="3" style="stroke:#038048;stroke-width:1.0;"/><text fill="#000000" font-family="sans-serif" font-size="14" lengthAdjust="spacing" textLength="76" x="710" y="596.4082">getAnswer()</text></g><!--class Option--><g id="elem_Option"><rect codeLine="29" fill="#F1F1F1" height="48" id="Option" rx="2.5" ry="2.5" style="stroke:#181818;stroke-width:0.5;" width="142" x="995" y="984.5"/><ellipse cx="1010" cy="1000.5" fill="#ADD1B2" rx="11" ry="11" style="stroke:#181818;stroke-width:1.0;"/><path d="M1012.7656,996.375 Q1012.9219,996.1563 1013.1094,996.0469 Q1013.2969,995.9375 1013.5156,995.9375 Q1013.8906,995.9375 1014.125,996.2031 Q1014.3594,996.4531 1014.3594,997.0625 L1014.3594,998.5156 Q1014.3594,999.125 1014.125,999.3906 Q1013.8906,999.6563 1013.5156,999.6563 Q1013.1719,999.6563 1012.9688,999.4531 Q1012.7656,999.2656 1012.6563,998.75 Q1012.6094,998.3906 1012.4219,998.2031 Q1012.0938,997.8281 1011.4844,997.6094 Q1010.875,997.3906 1010.25,997.3906 Q1009.4844,997.3906 1008.8438,997.7188 Q1008.2188,998.0469 1007.7188,998.7969 Q1007.2344,999.5469 1007.2344,1000.5781 L1007.2344,1001.6719 Q1007.2344,1002.9063 1008.125,1003.7344 Q1009.0156,1004.5469 1010.6094,1004.5469 Q1011.5469,1004.5469 1012.2031,1004.2969 Q1012.5938,1004.1406 1013.0156,1003.7031 Q1013.2813,1003.4375 1013.4219,1003.3594 Q1013.5781,1003.2813 1013.7813,1003.2813 Q1014.1094,1003.2813 1014.3594,1003.5469 Q1014.625,1003.7969 1014.625,1004.1406 Q1014.625,1004.4844 1014.2813,1004.8906 Q1013.7813,1005.4688 1012.9844,1005.7969 Q1011.9063,1006.25 1010.6094,1006.25 Q1009.0938,1006.25 1007.8906,1005.625 Q1006.9063,1005.125 1006.2188,1004.0625 Q1005.5313,1002.9844 1005.5313,1001.7031 L1005.5313,1000.5469 Q1005.5313,999.2188 1006.1406,998.0781 Q1006.7656,996.9219 1007.8594,996.3125 Q1008.9531,995.6875 1010.1875,995.6875 Q1010.9219,995.6875 1011.5625,995.8594 Q1012.2188,996.0156 1012.7656,996.375 Z " fill="#000000"/><text fill="#000000" font-family="sans-serif" font-size="14" lengthAdjust="spacing" textLength="110" x="1024" y="1006.2285">utils.menu.Option</text><line style="stroke:#181818;stroke-width:0.5;" x1="996" x2="1136" y1="1016.5" y2="1016.5"/><line style="stroke:#181818;stroke-width:0.5;" x1="996" x2="1136" y1="1024.5" y2="1024.5"/></g><!--class SecuentialMenu--><g id="elem_SecuentialMenu"><rect codeLine="30" fill="#F1F1F1" height="48" id="SecuentialMenu" rx="2.5" ry="2.5" style="stroke:#181818;stroke-width:0.5;" width="201" x="840.5" y="832.5"/><ellipse cx="855.5" cy="848.5" fill="#ADD1B2" rx="11" ry="11" style="stroke:#181818;stroke-width:1.0;"/><path d="M858.2656,844.375 Q858.4219,844.1563 858.6094,844.0469 Q858.7969,843.9375 859.0156,843.9375 Q859.3906,843.9375 859.625,844.2031 Q859.8594,844.4531 859.8594,845.0625 L859.8594,846.5156 Q859.8594,847.125 859.625,847.3906 Q859.3906,847.6563 859.0156,847.6563 Q858.6719,847.6563 858.4688,847.4531 Q858.2656,847.2656 858.1563,846.75 Q858.1094,846.3906 857.9219,846.2031 Q857.5938,845.8281 856.9844,845.6094 Q856.375,845.3906 855.75,845.3906 Q854.9844,845.3906 854.3438,845.7188 Q853.7188,846.0469 853.2188,846.7969 Q852.7344,847.5469 852.7344,848.5781 L852.7344,849.6719 Q852.7344,850.9063 853.625,851.7344 Q854.5156,852.5469 856.1094,852.5469 Q857.0469,852.5469 857.7031,852.2969 Q858.0938,852.1406 858.5156,851.7031 Q858.7813,851.4375 858.9219,851.3594 Q859.0781,851.2813 859.2813,851.2813 Q859.6094,851.2813 859.8594,851.5469 Q860.125,851.7969 860.125,852.1406 Q860.125,852.4844 859.7813,852.8906 Q859.2813,853.4688 858.4844,853.7969 Q857.4063,854.25 856.1094,854.25 Q854.5938,854.25 853.3906,853.625 Q852.4063,853.125 851.7188,852.0625 Q851.0313,850.9844 851.0313,849.7031 L851.0313,848.5469 Q851.0313,847.2188 851.6406,846.0781 Q852.2656,844.9219 853.3594,844.3125 Q854.4531,843.6875 855.6875,843.6875 Q856.4219,843.6875 857.0625,843.8594 Q857.7188,844.0156 858.2656,844.375 Z " fill="#000000"/><text fill="#000000" font-family="sans-serif" font-size="14" lengthAdjust="spacing" textLength="169" x="869.5" y="854.2285">utils.menu.SecuentialMenu</text><line style="stroke:#181818;stroke-width:0.5;" x1="841.5" x2="1040.5" y1="864.5" y2="864.5"/><line style="stroke:#181818;stroke-width:0.5;" x1="841.5" x2="1040.5" y1="872.5" y2="872.5"/></g><!--class Game--><g id="elem_Game"><rect codeLine="31" fill="#F1F1F1" height="48" id="Game" rx="2.5" ry="2.5" style="stroke:#181818;stroke-width:0.5;" width="119" x="1005.5" y="680.5"/><ellipse cx="1020.5" cy="696.5" fill="#ADD1B2" rx="11" ry="11" style="stroke:#181818;stroke-width:1.0;"/><path d="M1023.2656,692.375 Q1023.4219,692.1563 1023.6094,692.0469 Q1023.7969,691.9375 1024.0156,691.9375 Q1024.3906,691.9375 1024.625,692.2031 Q1024.8594,692.4531 1024.8594,693.0625 L1024.8594,694.5156 Q1024.8594,695.125 1024.625,695.3906 Q1024.3906,695.6563 1024.0156,695.6563 Q1023.6719,695.6563 1023.4688,695.4531 Q1023.2656,695.2656 1023.1563,694.75 Q1023.1094,694.3906 1022.9219,694.2031 Q1022.5938,693.8281 1021.9844,693.6094 Q1021.375,693.3906 1020.75,693.3906 Q1019.9844,693.3906 1019.3438,693.7188 Q1018.7188,694.0469 1018.2188,694.7969 Q1017.7344,695.5469 1017.7344,696.5781 L1017.7344,697.6719 Q1017.7344,698.9063 1018.625,699.7344 Q1019.5156,700.5469 1021.1094,700.5469 Q1022.0469,700.5469 1022.7031,700.2969 Q1023.0938,700.1406 1023.5156,699.7031 Q1023.7813,699.4375 1023.9219,699.3594 Q1024.0781,699.2813 1024.2813,699.2813 Q1024.6094,699.2813 1024.8594,699.5469 Q1025.125,699.7969 1025.125,700.1406 Q1025.125,700.4844 1024.7813,700.8906 Q1024.2813,701.4688 1023.4844,701.7969 Q1022.4063,702.25 1021.1094,702.25 Q1019.5938,702.25 1018.3906,701.625 Q1017.4063,701.125 1016.7188,700.0625 Q1016.0313,698.9844 1016.0313,697.7031 L1016.0313,696.5469 Q1016.0313,695.2188 1016.6406,694.0781 Q1017.2656,692.9219 1018.3594,692.3125 Q1019.4531,691.6875 1020.6875,691.6875 Q1021.4219,691.6875 1022.0625,691.8594 Q1022.7188,692.0156 1023.2656,692.375 Z " fill="#000000"/><text fill="#000000" font-family="sans-serif" font-size="14" lengthAdjust="spacing" textLength="87" x="1034.5" y="702.2285">models.Game</text><line style="stroke:#181818;stroke-width:0.5;" x1="1006.5" x2="1123.5" y1="712.5" y2="712.5"/><line style="stroke:#181818;stroke-width:0.5;" x1="1006.5" x2="1123.5" y1="720.5" y2="720.5"/></g><!--class Turn--><g id="elem_Turn"><rect codeLine="32" fill="#F1F1F1" height="48" id="Turn" rx="2.5" ry="2.5" style="stroke:#181818;stroke-width:0.5;" width="111" x="1172.5" y="984.5"/><ellipse cx="1187.5" cy="1000.5" fill="#ADD1B2" rx="11" ry="11" style="stroke:#181818;stroke-width:1.0;"/><path d="M1190.2656,996.375 Q1190.4219,996.1563 1190.6094,996.0469 Q1190.7969,995.9375 1191.0156,995.9375 Q1191.3906,995.9375 1191.625,996.2031 Q1191.8594,996.4531 1191.8594,997.0625 L1191.8594,998.5156 Q1191.8594,999.125 1191.625,999.3906 Q1191.3906,999.6563 1191.0156,999.6563 Q1190.6719,999.6563 1190.4688,999.4531 Q1190.2656,999.2656 1190.1563,998.75 Q1190.1094,998.3906 1189.9219,998.2031 Q1189.5938,997.8281 1188.9844,997.6094 Q1188.375,997.3906 1187.75,997.3906 Q1186.9844,997.3906 1186.3438,997.7188 Q1185.7188,998.0469 1185.2188,998.7969 Q1184.7344,999.5469 1184.7344,1000.5781 L1184.7344,1001.6719 Q1184.7344,1002.9063 1185.625,1003.7344 Q1186.5156,1004.5469 1188.1094,1004.5469 Q1189.0469,1004.5469 1189.7031,1004.2969 Q1190.0938,1004.1406 1190.5156,1003.7031 Q1190.7813,1003.4375 1190.9219,1003.3594 Q1191.0781,1003.2813 1191.2813,1003.2813 Q1191.6094,1003.2813 1191.8594,1003.5469 Q1192.125,1003.7969 1192.125,1004.1406 Q1192.125,1004.4844 1191.7813,1004.8906 Q1191.2813,1005.4688 1190.4844,1005.7969 Q1189.4063,1006.25 1188.1094,1006.25 Q1186.5938,1006.25 1185.3906,1005.625 Q1184.4063,1005.125 1183.7188,1004.0625 Q1183.0313,1002.9844 1183.0313,1001.7031 L1183.0313,1000.5469 Q1183.0313,999.2188 1183.6406,998.0781 Q1184.2656,996.9219 1185.3594,996.3125 Q1186.4531,995.6875 1187.6875,995.6875 Q1188.4219,995.6875 1189.0625,995.8594 Q1189.7188,996.0156 1190.2656,996.375 Z " fill="#000000"/><text fill="#000000" font-family="sans-serif" font-size="14" lengthAdjust="spacing" textLength="79" x="1201.5" y="1006.2285">models.Turn</text><line style="stroke:#181818;stroke-width:0.5;" x1="1173.5" x2="1282.5" y1="1016.5" y2="1016.5"/><line style="stroke:#181818;stroke-width:0.5;" x1="1173.5" x2="1282.5" y1="1024.5" y2="1024.5"/></g><!--class Coordinate--><g id="elem_Coordinate"><rect codeLine="33" fill="#F1F1F1" height="48" id="Coordinate" rx="2.5" ry="2.5" style="stroke:#181818;stroke-width:0.5;" width="132" x="838" y="680.5"/><ellipse cx="853" cy="696.5" fill="#ADD1B2" rx="11" ry="11" style="stroke:#181818;stroke-width:1.0;"/><path d="M855.7656,692.375 Q855.9219,692.1563 856.1094,692.0469 Q856.2969,691.9375 856.5156,691.9375 Q856.8906,691.9375 857.125,692.2031 Q857.3594,692.4531 857.3594,693.0625 L857.3594,694.5156 Q857.3594,695.125 857.125,695.3906 Q856.8906,695.6563 856.5156,695.6563 Q856.1719,695.6563 855.9688,695.4531 Q855.7656,695.2656 855.6563,694.75 Q855.6094,694.3906 855.4219,694.2031 Q855.0938,693.8281 854.4844,693.6094 Q853.875,693.3906 853.25,693.3906 Q852.4844,693.3906 851.8438,693.7188 Q851.2188,694.0469 850.7188,694.7969 Q850.2344,695.5469 850.2344,696.5781 L850.2344,697.6719 Q850.2344,698.9063 851.125,699.7344 Q852.0156,700.5469 853.6094,700.5469 Q854.5469,700.5469 855.2031,700.2969 Q855.5938,700.1406 856.0156,699.7031 Q856.2813,699.4375 856.4219,699.3594 Q856.5781,699.2813 856.7813,699.2813 Q857.1094,699.2813 857.3594,699.5469 Q857.625,699.7969 857.625,700.1406 Q857.625,700.4844 857.2813,700.8906 Q856.7813,701.4688 855.9844,701.7969 Q854.9063,702.25 853.6094,702.25 Q852.0938,702.25 850.8906,701.625 Q849.9063,701.125 849.2188,700.0625 Q848.5313,698.9844 848.5313,697.7031 L848.5313,696.5469 Q848.5313,695.2188 849.1406,694.0781 Q849.7656,692.9219 850.8594,692.3125 Q851.9531,691.6875 853.1875,691.6875 Q853.9219,691.6875 854.5625,691.8594 Q855.2188,692.0156 855.7656,692.375 Z " fill="#000000"/><text fill="#000000" font-family="sans-serif" font-size="14" lengthAdjust="spacing" textLength="100" x="867" y="702.2285">Utils.Coordinate</text><line style="stroke:#181818;stroke-width:0.5;" x1="839" x2="969" y1="712.5" y2="712.5"/><line style="stroke:#181818;stroke-width:0.5;" x1="839" x2="969" y1="720.5" y2="720.5"/></g><!--class Console--><g id="elem_Console"><rect codeLine="34" fill="#F1F1F1" height="48" id="Console" rx="2.5" ry="2.5" style="stroke:#181818;stroke-width:0.5;" width="113" x="839.5" y="165.5"/><ellipse cx="854.5" cy="181.5" fill="#ADD1B2" rx="11" ry="11" style="stroke:#181818;stroke-width:1.0;"/><path d="M857.2656,177.375 Q857.4219,177.1563 857.6094,177.0469 Q857.7969,176.9375 858.0156,176.9375 Q858.3906,176.9375 858.625,177.2031 Q858.8594,177.4531 858.8594,178.0625 L858.8594,179.5156 Q858.8594,180.125 858.625,180.3906 Q858.3906,180.6563 858.0156,180.6563 Q857.6719,180.6563 857.4688,180.4531 Q857.2656,180.2656 857.1563,179.75 Q857.1094,179.3906 856.9219,179.2031 Q856.5938,178.8281 855.9844,178.6094 Q855.375,178.3906 854.75,178.3906 Q853.9844,178.3906 853.3438,178.7188 Q852.7188,179.0469 852.2188,179.7969 Q851.7344,180.5469 851.7344,181.5781 L851.7344,182.6719 Q851.7344,183.9063 852.625,184.7344 Q853.5156,185.5469 855.1094,185.5469 Q856.0469,185.5469 856.7031,185.2969 Q857.0938,185.1406 857.5156,184.7031 Q857.7813,184.4375 857.9219,184.3594 Q858.0781,184.2813 858.2813,184.2813 Q858.6094,184.2813 858.8594,184.5469 Q859.125,184.7969 859.125,185.1406 Q859.125,185.4844 858.7813,185.8906 Q858.2813,186.4688 857.4844,186.7969 Q856.4063,187.25 855.1094,187.25 Q853.5938,187.25 852.3906,186.625 Q851.4063,186.125 850.7188,185.0625 Q850.0313,183.9844 850.0313,182.7031 L850.0313,181.5469 Q850.0313,180.2188 850.6406,179.0781 Q851.2656,177.9219 852.3594,177.3125 Q853.4531,176.6875 854.6875,176.6875 Q855.4219,176.6875 856.0625,176.8594 Q856.7188,177.0156 857.2656,177.375 Z " fill="#000000"/><text fill="#000000" font-family="sans-serif" font-size="14" lengthAdjust="spacing" textLength="81" x="868.5" y="187.2285">utils.Console</text><line style="stroke:#181818;stroke-width:0.5;" x1="840.5" x2="951.5" y1="197.5" y2="197.5"/><line style="stroke:#181818;stroke-width:0.5;" x1="840.5" x2="951.5" y1="205.5" y2="205.5"/></g><!--class Player--><g id="elem_Player"><rect codeLine="35" fill="#F1F1F1" height="48" id="Player" rx="2.5" ry="2.5" style="stroke:#181818;stroke-width:0.5;" width="121" x="838.5" y="984.5"/><ellipse cx="853.5" cy="1000.5" fill="#ADD1B2" rx="11" ry="11" style="stroke:#181818;stroke-width:1.0;"/><path d="M856.2656,996.375 Q856.4219,996.1563 856.6094,996.0469 Q856.7969,995.9375 857.0156,995.9375 Q857.3906,995.9375 857.625,996.2031 Q857.8594,996.4531 857.8594,997.0625 L857.8594,998.5156 Q857.8594,999.125 857.625,999.3906 Q857.3906,999.6563 857.0156,999.6563 Q856.6719,999.6563 856.4688,999.4531 Q856.2656,999.2656 856.1563,998.75 Q856.1094,998.3906 855.9219,998.2031 Q855.5938,997.8281 854.9844,997.6094 Q854.375,997.3906 853.75,997.3906 Q852.9844,997.3906 852.3438,997.7188 Q851.7188,998.0469 851.2188,998.7969 Q850.7344,999.5469 850.7344,1000.5781 L850.7344,1001.6719 Q850.7344,1002.9063 851.625,1003.7344 Q852.5156,1004.5469 854.1094,1004.5469 Q855.0469,1004.5469 855.7031,1004.2969 Q856.0938,1004.1406 856.5156,1003.7031 Q856.7813,1003.4375 856.9219,1003.3594 Q857.0781,1003.2813 857.2813,1003.2813 Q857.6094,1003.2813 857.8594,1003.5469 Q858.125,1003.7969 858.125,1004.1406 Q858.125,1004.4844 857.7813,1004.8906 Q857.2813,1005.4688 856.4844,1005.7969 Q855.4063,1006.25 854.1094,1006.25 Q852.5938,1006.25 851.3906,1005.625 Q850.4063,1005.125 849.7188,1004.0625 Q849.0313,1002.9844 849.0313,1001.7031 L849.0313,1000.5469 Q849.0313,999.2188 849.6406,998.0781 Q850.2656,996.9219 851.3594,996.3125 Q852.4531,995.6875 853.6875,995.6875 Q854.4219,995.6875 855.0625,995.8594 Q855.7188,996.0156 856.2656,996.375 Z " fill="#000000"/><text fill="#000000" font-family="sans-serif" font-size="14" lengthAdjust="spacing" textLength="89" x="867.5" y="1006.2285">models.Player</text><line style="stroke:#181818;stroke-width:0.5;" x1="839.5" x2="958.5" y1="1016.5" y2="1016.5"/><line style="stroke:#181818;stroke-width:0.5;" x1="839.5" x2="958.5" y1="1024.5" y2="1024.5"/></g><!--reverse link GameView to TurnView--><g id="link_GameView_TurnView"><path codeLine="16" d="M628.2835,273.1663 C577.7835,318.1963 522.27,367.69 469.89,414.39 " fill="none" id="GameView-backto-TurnView" style="stroke:#181818;stroke-width:1.0;"/><polygon fill="#181818" points="637.24,265.18,630.0997,266.1877,628.2835,273.1663,635.4239,272.1587,637.24,265.18" style="stroke:#181818;stroke-width:1.0;"/></g><!--reverse link GameView to BoardView--><g id="link_GameView_BoardView"><path codeLine="17" d="M682.2599,277.7273 C658.4099,331.4373 631.83,391.29 609.96,440.55 " fill="none" id="GameView-backto-BoardView" style="stroke:#181818;stroke-width:1.0;"/><polygon fill="#181818" points="687.13,266.76,681.0392,270.6203,682.2599,277.7273,688.3507,273.867,687.13,266.76" style="stroke:#181818;stroke-width:1.0;"/></g><!--link TurnView to PlayerView--><g id="link_TurnView_PlayerView"><path codeLine="18" d="M375,585.7 C375,612.37 375,634.6 375,656.74 " fill="none" id="TurnView-to-PlayerView" style="stroke:#181818;stroke-width:1.0;stroke-dasharray:7.0,7.0;"/><polygon fill="#181818" points="375,662.74,379,653.74,375,657.74,371,653.74,375,662.74" style="stroke:#181818;stroke-width:1.0;"/></g><!--reverse link PlayerView to UserPlayerView--><g id="link_PlayerView_UserPlayerView"><path codeLine="19" d="M388.5571,763.6198 C392.8471,782.0198 393.88,786.41 398.4,805.78 " fill="none" id="PlayerView-backto-UserPlayerView" style="stroke:#181818;stroke-width:1.0;"/><polygon fill="none" points="384.47,746.09,382.7138,764.9822,394.4004,762.2575,384.47,746.09" style="stroke:#181818;stroke-width:1.0;"/></g><!--reverse link PlayerView to MachinePlayerView--><g id="link_PlayerView_MachinePlayerView"><path codeLine="20" d="M298.5534,756.0148 C270.7134,774.4148 252.56,786.41 223.25,805.78 " fill="none" id="PlayerView-backto-MachinePlayerView" style="stroke:#181818;stroke-width:1.0;"/><polygon fill="none" points="313.57,746.09,295.2451,751.0092,301.8616,761.0203,313.57,746.09" style="stroke:#181818;stroke-width:1.0;"/></g><!--reverse link TurnOption to SetRandomMachinePlayerOption--><g id="link_TurnOption_SetRandomMachinePlayerOption"><path codeLine="21" d="M590.6202,907.1394 C553.9102,928.4894 524.59,945.53 487.87,966.88 " fill="none" id="TurnOption-backto-SetRandomMachinePlayerOption" style="stroke:#181818;stroke-width:1.0;"/><polygon fill="none" points="606.18,898.09,587.6037,901.9528,593.6366,912.326,606.18,898.09" style="stroke:#181818;stroke-width:1.0;"/></g><!--reverse link TurnOption to SetUserPlayerOption--><g id="link_TurnOption_SetUserPlayerOption"><path codeLine="22" d="M681.4605,916.0123 C683.4505,937.3623 684.22,945.53 686.21,966.88 " fill="none" id="TurnOption-backto-SetUserPlayerOption" style="stroke:#181818;stroke-width:1.0;"/><polygon fill="none" points="679.79,898.09,675.4864,916.5692,687.4346,915.4555,679.79,898.09" style="stroke:#181818;stroke-width:1.0;"/></g><!--reverse link PlayerVisitor to TurnView--><g id="link_PlayerVisitor_TurnView"><path codeLine="23" d="M375,249.15 C375,295.53 375,354.67 375,414.29 " fill="none" id="PlayerVisitor-backto-TurnView" style="stroke:#181818;stroke-width:1.0;"/><polygon fill="none" points="375,231.15,369,249.15,381,249.15,375,231.15" style="stroke:#181818;stroke-width:1.0;"/></g><!--link TurnView to TurnMenu--><g id="link_TurnView_TurnMenu"><path codeLine="24" d="M473.23,585.53 C480.85,591.55 488.5,597.44 496,603 C524.21,623.91 551.5813,642.1093 579.4613,659.7693 " fill="none" id="TurnView-to-TurnMenu" style="stroke:#181818;stroke-width:1.0;stroke-dasharray:7.0,7.0;"/><polygon fill="#181818" points="584.53,662.98,579.0674,654.7849,580.3061,660.3045,574.7865,661.5431,584.53,662.98" style="stroke:#181818;stroke-width:1.0;"/></g><!--link GameView to YesNoDialog--><g id="link_GameView_YesNoDialog"><path codeLine="25" d="M727.67,266.76 C731.11,306.01 734.8275,348.4328 738.5375,390.8728 " fill="none" id="GameView-to-YesNoDialog" style="stroke:#181818;stroke-width:1.0;stroke-dasharray:7.0,7.0;"/><polygon fill="#181818" points="739.06,396.85,742.261,387.5359,738.6246,391.869,734.2914,388.2325,739.06,396.85" style="stroke:#181818;stroke-width:1.0;"/></g><!--reverse link TurnMenu to TurnOption--><g id="link_TurnMenu_TurnOption"><path codeLine="26" d="M659.7383,757.9275 C663.2883,779.2775 665.67,793.53 669.23,814.88 " fill="none" id="TurnMenu-backto-TurnOption" style="stroke:#181818;stroke-width:1.0;"/><polygon fill="none" points="657.77,746.09,654.8083,752.6648,659.7383,757.9275,662.7,751.3526,657.77,746.09" style="stroke:#181818;stroke-width:1.0;"/></g><!--link TurnOption to Option--><g id="link_TurnOption_Option"><path codeLine="37" d="M794.03,898.03 C849.89,917.83 917.29,942.6 977,967 C990.04,972.33 987.5891,971.0211 1000.4791,976.8711 " fill="none" id="TurnOption-to-Option" style="stroke:#181818;stroke-width:1.0;"/><polygon fill="none" points="1016.87,984.31,1002.9587,971.4075,997.9994,982.3348,1016.87,984.31" style="stroke:#181818;stroke-width:1.0;"/></g><!--link TurnMenu to SecuentialMenu--><g id="link_TurnMenu_SecuentialMenu"><path codeLine="38" d="M729.48,746.09 C782.99,773.77 835.9421,801.1604 880.3121,824.1104 " fill="none" id="TurnMenu-to-SecuentialMenu" style="stroke:#181818;stroke-width:1.0;"/><polygon fill="none" points="896.3,832.38,883.0686,818.7811,877.5555,829.4397,896.3,832.38" style="stroke:#181818;stroke-width:1.0;"/></g><!--link BoardView to Game--><g id="link_BoardView_Game"><path codeLine="39" d="M623.24,559.17 C637.11,575.69 654.04,592.12 673,603 C796.62,673.91 853.46,615.98 988,663 C1000.98,667.53 1009.1697,671.1294 1021.1497,677.5394 " fill="none" id="BoardView-to-Game" style="stroke:#181818;stroke-width:1.0;"/><polygon fill="#181818" points="1026.44,680.37,1020.3916,672.5972,1022.0314,678.0111,1016.6174,679.6509,1026.44,680.37" style="stroke:#181818;stroke-width:1.0;"/></g><!--link BoardView to Coordinate--><g id="link_BoardView_Coordinate"><path codeLine="40" d="M626.45,559.11 C640,574.86 655.95,590.88 673,603 C731.18,644.37 756.84,633.84 822,663 C834.03,668.38 841.4999,671.8739 853.3699,677.7339 " fill="none" id="BoardView-to-Coordinate" style="stroke:#181818;stroke-width:1.0;stroke-dasharray:7.0,7.0;"/><polygon fill="#181818" points="858.75,680.39,852.4506,672.8192,854.2666,678.1766,848.9092,679.9926,858.75,680.39" style="stroke:#181818;stroke-width:1.0;"/></g><!--link GameView to Game--><g id="link_GameView_Game"><path codeLine="41" d="M772.13,266.75 C851.77,385.51 997.9681,603.5369 1046.2281,675.4969 " fill="none" id="GameView-to-Game" style="stroke:#181818;stroke-width:1.0;"/><polygon fill="#181818" points="1049.57,680.48,1047.8792,670.7774,1046.7851,676.3274,1041.235,675.2333,1049.57,680.48" style="stroke:#181818;stroke-width:1.0;"/></g><!--reverse link MachinePlayerView to Player--><g id="link_MachinePlayerView_Player"><path codeLine="42" d="M285.4728,905.8595 C291.2328,907.3995 285.36,905.72 291,907 C522.63,959.5 594.99,897.18 822,967 C835.57,971.17 849.56,977.74 861.82,984.39 " fill="none" id="MachinePlayerView-backto-Player" style="stroke:#181818;stroke-width:1.0;"/><polygon fill="#181818" points="273.88,902.76,278.6433,908.174,285.4728,905.8595,280.7096,900.4455,273.88,902.76" style="stroke:#181818;stroke-width:1.0;"/></g><!--reverse link UserPlayerView to Player--><g id="link_UserPlayerView_Player"><path codeLine="43" d="M523.0942,905.2903 C528.8842,907.3203 523.33,905.26 529,907 C656.06,946.04 696.82,922.28 822,967 C834.94,971.62 848.42,978.08 860.4,984.48 " fill="none" id="UserPlayerView-backto-Player" style="stroke:#181818;stroke-width:1.0;"/><polygon fill="#181818" points="511.77,901.32,516.1086,907.0799,523.0942,905.2903,518.7555,899.5304,511.77,901.32" style="stroke:#181818;stroke-width:1.0;"/></g><!--link TurnView to Game--><g id="link_TurnView_Game"><path codeLine="44" d="M464.41,585.53 C474.56,592.27 485.17,598.28 496,603 C697.95,690.99 777.73,597.32 988,663 C1001.55,667.23 1010.2531,670.9644 1022.5231,677.6044 " fill="none" id="TurnView-to-Game" style="stroke:#181818;stroke-width:1.0;"/><polygon fill="#181818" points="1027.8,680.46,1021.7884,672.6587,1023.4026,678.0803,1017.9809,679.6945,1027.8,680.46" style="stroke:#181818;stroke-width:1.0;"/></g><!--link TurnMenu to Turn--><g id="link_TurnMenu_Turn"><path codeLine="45" d="M802.51,741.68 C916.2,769.01 1053.24,802.41 1059,806 C1133.21,852.24 1187.9645,936.8512 1212.3545,979.1812 " fill="none" id="TurnMenu-to-Turn" style="stroke:#181818;stroke-width:1.0;"/><polygon fill="#181818" points="1215.35,984.38,1214.3227,974.5849,1212.8538,980.0477,1207.391,978.5788,1215.35,984.38" style="stroke:#181818;stroke-width:1.0;"/></g><!--link TurnOption to Turn--><g id="link_TurnOption_Turn"><path codeLine="46" d="M791.08,898.02 C801.81,901.26 812.57,904.32 823,907 C968.22,944.36 1013.77,916.62 1155,967 C1167.56,971.48 1175.2982,975.0148 1186.7482,981.4948 " fill="none" id="TurnOption-to-Turn" style="stroke:#181818;stroke-width:1.0;"/><polygon fill="#181818" points="1191.97,984.45,1186.1075,976.536,1187.6185,981.9873,1182.1672,983.4984,1191.97,984.45" style="stroke:#181818;stroke-width:1.0;"/></g><!--SRC=[XLRTRfim6BtdAL2lw3Bo06Ygn1AQ8YKa0fAjkubSS3DhW2FijDlQllkCRS06XzsPSyxtwyysMG48iLyGV2Np5IZXWQsiJ06_Ob3d74KLXVKpoA1aTWNu0-i38eZYMhD9BtKrQJA8iG7PJrJ1A-oUmFeArGJQmEfYWIT2Qv1HUyXkpnJXIZDA88r1bUDI2siMzh4bpuALRTQG4722ciaZ915U8b3WasMr_RG_kQxTzKH3- -wsl3sVtzbAkVtI_lBEB0RT6DBZLlPT48h9yWtYKGkqVHUohZYjYcvtkf8RL6rHgx2nT293MBAfCXL0x9iBHGMPbqmy5-YDr2Gmky2ACeVSqq2hiwrDan1NbZY7XPZybclIKBdck-KM6DSvgW0LrdiUfmTxMKLm0PLS9D8AH0lLA0AviTGTSDttErlP65uV1_Mgh6wA67l7YrEWfkTzYlrUTDBHoF3959-MFcugqsrrvqZ9KMo-Nep4b7FXsUw9hJrXhi9FRVgUSaHK0PNHFSF1yknPktQQnQr6dLdwpRUZmIuYCIIN4kOCxslJCrJXTYqZADIiXWHIqINYw5HUutEAVy5gWByqfydfcsrY3QTMbxtMYCAcYe8sHVGZe5UXuTs7h4CbXSEYoLMpuV03hj5VN55GDB6K4M5sR-rr_A7MUqrpWdI1Yql9D9xDNWpBC94iwfb_UVeDPvJEHg0pw9enm3YFmV0hIVJCM3JJ4MrNnnx7KVNxrJWSLoJ62R7aEyLaRuG2Yh8FUvQ6wJemCW_REFonZL9_VLo7aLbp2E8qN4mfqdqS6OaWIeFukDYkzvlec6wFotYxCmh3wE2lmwMK6YMBxMQt3j9WKhHR-uyiuhTmYawEQHWiZO8uIFORjKYNZIsgJWeoozZjJkjBnZR34UojIlFpuemXVh8iItaGrSYkVtyVnXi_3G_1LKqKhAO5oPvv-NwLtWH9ug-6vYweo2iRRHrbznfeRiS1YeZ__8pgadbyWIOwWgSh79jzdqTgxrp-UZ2YNJlyTHHt_6Ux1B_5mvT1mi_AhMO4yboyDQHr9vyU-LnuepT9HX9V3aMqO7TamZUGHUj3CtTJVqsDdodU4Jx-vuB_BBCBqH7XXlzTCieGxfsR35IV_m00]--></g></svg>