<?xml version="1.0" encoding="us-ascii" standalone="no"?><svg xmlns="http://www.w3.org/2000/svg" xmlns:xlink="http://www.w3.org/1999/xlink" contentStyleType="text/css" height="1312px" preserveAspectRatio="none" style="width:2046px;height:1312px;background:#FFFFFF;" version="1.1" viewBox="0 0 2046 1312" width="2046px" zoomAndPan="magnify"><defs/><g><!--cluster console--><g id="cluster_console"><path d="M685,185 L742,185 A3.75,3.75 0 0 1 744.5,187.5 L751.5,208.6094 L1636,208.6094 A2.5,2.5 0 0 1 1638.5,211.1094 L1638.5,1303 A2.5,2.5 0 0 1 1636,1305.5 L685,1305.5 A2.5,2.5 0 0 1 682.5,1303 L682.5,187.5 A2.5,2.5 0 0 1 685,185 " fill="none" style="stroke:#000000;stroke-width:1.5;"/><line style="stroke:#000000;stroke-width:1.5;" x1="682.5" x2="751.5" y1="208.6094" y2="208.6094"/><text fill="#000000" font-family="sans-serif" font-size="14" font-weight="bold" lengthAdjust="spacing" textLength="56" x="686.5" y="201.5332">console</text></g><!--class Consoleview--><g id="elem_Consoleview"><rect codeLine="2" fill="#F1F1F1" height="48" id="Consoleview" rx="2.5" ry="2.5" style="stroke:#181818;stroke-width:0.5;" width="111" x="962" y="221"/><ellipse cx="977" cy="237" fill="#ADD1B2" rx="11" ry="11" style="stroke:#181818;stroke-width:1.0;"/><path d="M979.7656,232.875 Q979.9219,232.6563 980.1094,232.5469 Q980.2969,232.4375 980.5156,232.4375 Q980.8906,232.4375 981.125,232.7031 Q981.3594,232.9531 981.3594,233.5625 L981.3594,235.0156 Q981.3594,235.625 981.125,235.8906 Q980.8906,236.1563 980.5156,236.1563 Q980.1719,236.1563 979.9688,235.9531 Q979.7656,235.7656 979.6563,235.25 Q979.6094,234.8906 979.4219,234.7031 Q979.0938,234.3281 978.4844,234.1094 Q977.875,233.8906 977.25,233.8906 Q976.4844,233.8906 975.8438,234.2188 Q975.2188,234.5469 974.7188,235.2969 Q974.2344,236.0469 974.2344,237.0781 L974.2344,238.1719 Q974.2344,239.4063 975.125,240.2344 Q976.0156,241.0469 977.6094,241.0469 Q978.5469,241.0469 979.2031,240.7969 Q979.5938,240.6406 980.0156,240.2031 Q980.2813,239.9375 980.4219,239.8594 Q980.5781,239.7813 980.7813,239.7813 Q981.1094,239.7813 981.3594,240.0469 Q981.625,240.2969 981.625,240.6406 Q981.625,240.9844 981.2813,241.3906 Q980.7813,241.9688 979.9844,242.2969 Q978.9063,242.75 977.6094,242.75 Q976.0938,242.75 974.8906,242.125 Q973.9063,241.625 973.2188,240.5625 Q972.5313,239.4844 972.5313,238.2031 L972.5313,237.0469 Q972.5313,235.7188 973.1406,234.5781 Q973.7656,233.4219 974.8594,232.8125 Q975.9531,232.1875 977.1875,232.1875 Q977.9219,232.1875 978.5625,232.3594 Q979.2188,232.5156 979.7656,232.875 Z " fill="#000000"/><text fill="#000000" font-family="sans-serif" font-size="14" lengthAdjust="spacing" textLength="79" x="991" y="242.7285">Consoleview</text><line style="stroke:#181818;stroke-width:0.5;" x1="963" x2="1072" y1="253" y2="253"/><line style="stroke:#181818;stroke-width:0.5;" x1="963" x2="1072" y1="261" y2="261"/></g><!--class StartView--><g id="elem_StartView"><rect codeLine="4" fill="#F1F1F1" height="65.6094" id="StartView" rx="2.5" ry="2.5" style="stroke:#181818;stroke-width:0.5;" width="175" x="1139" y="329"/><ellipse cx="1192.75" cy="345" fill="#ADD1B2" rx="11" ry="11" style="stroke:#181818;stroke-width:1.0;"/><path d="M1195.5156,340.875 Q1195.6719,340.6563 1195.8594,340.5469 Q1196.0469,340.4375 1196.2656,340.4375 Q1196.6406,340.4375 1196.875,340.7031 Q1197.1094,340.9531 1197.1094,341.5625 L1197.1094,343.0156 Q1197.1094,343.625 1196.875,343.8906 Q1196.6406,344.1563 1196.2656,344.1563 Q1195.9219,344.1563 1195.7188,343.9531 Q1195.5156,343.7656 1195.4063,343.25 Q1195.3594,342.8906 1195.1719,342.7031 Q1194.8438,342.3281 1194.2344,342.1094 Q1193.625,341.8906 1193,341.8906 Q1192.2344,341.8906 1191.5938,342.2188 Q1190.9688,342.5469 1190.4688,343.2969 Q1189.9844,344.0469 1189.9844,345.0781 L1189.9844,346.1719 Q1189.9844,347.4063 1190.875,348.2344 Q1191.7656,349.0469 1193.3594,349.0469 Q1194.2969,349.0469 1194.9531,348.7969 Q1195.3438,348.6406 1195.7656,348.2031 Q1196.0313,347.9375 1196.1719,347.8594 Q1196.3281,347.7813 1196.5313,347.7813 Q1196.8594,347.7813 1197.1094,348.0469 Q1197.375,348.2969 1197.375,348.6406 Q1197.375,348.9844 1197.0313,349.3906 Q1196.5313,349.9688 1195.7344,350.2969 Q1194.6563,350.75 1193.3594,350.75 Q1191.8438,350.75 1190.6406,350.125 Q1189.6563,349.625 1188.9688,348.5625 Q1188.2813,347.4844 1188.2813,346.2031 L1188.2813,345.0469 Q1188.2813,343.7188 1188.8906,342.5781 Q1189.5156,341.4219 1190.6094,340.8125 Q1191.7031,340.1875 1192.9375,340.1875 Q1193.6719,340.1875 1194.3125,340.3594 Q1194.9688,340.5156 1195.5156,340.875 Z " fill="#000000"/><text fill="#000000" font-family="sans-serif" font-size="14" lengthAdjust="spacing" textLength="59" x="1213.25" y="350.7285">StartView</text><line style="stroke:#181818;stroke-width:0.5;" x1="1140" x2="1313" y1="361" y2="361"/><line style="stroke:#181818;stroke-width:0.5;" x1="1140" x2="1313" y1="369" y2="369"/><ellipse cx="1150" cy="383.3047" fill="#84BE84" rx="3" ry="3" style="stroke:#038048;stroke-width:1.0;"/><text fill="#000000" font-family="sans-serif" font-size="14" lengthAdjust="spacing" textLength="149" x="1159" y="387.5332">interact(StartController)</text></g><!--class PlayView--><g id="elem_PlayView"><rect codeLine="8" fill="#F1F1F1" height="65.6094" id="PlayView" rx="2.5" ry="2.5" style="stroke:#181818;stroke-width:0.5;" width="172" x="931.5" y="329"/><ellipse cx="985.25" cy="345" fill="#ADD1B2" rx="11" ry="11" style="stroke:#181818;stroke-width:1.0;"/><path d="M988.0156,340.875 Q988.1719,340.6563 988.3594,340.5469 Q988.5469,340.4375 988.7656,340.4375 Q989.1406,340.4375 989.375,340.7031 Q989.6094,340.9531 989.6094,341.5625 L989.6094,343.0156 Q989.6094,343.625 989.375,343.8906 Q989.1406,344.1563 988.7656,344.1563 Q988.4219,344.1563 988.2188,343.9531 Q988.0156,343.7656 987.9063,343.25 Q987.8594,342.8906 987.6719,342.7031 Q987.3438,342.3281 986.7344,342.1094 Q986.125,341.8906 985.5,341.8906 Q984.7344,341.8906 984.0938,342.2188 Q983.4688,342.5469 982.9688,343.2969 Q982.4844,344.0469 982.4844,345.0781 L982.4844,346.1719 Q982.4844,347.4063 983.375,348.2344 Q984.2656,349.0469 985.8594,349.0469 Q986.7969,349.0469 987.4531,348.7969 Q987.8438,348.6406 988.2656,348.2031 Q988.5313,347.9375 988.6719,347.8594 Q988.8281,347.7813 989.0313,347.7813 Q989.3594,347.7813 989.6094,348.0469 Q989.875,348.2969 989.875,348.6406 Q989.875,348.9844 989.5313,349.3906 Q989.0313,349.9688 988.2344,350.2969 Q987.1563,350.75 985.8594,350.75 Q984.3438,350.75 983.1406,350.125 Q982.1563,349.625 981.4688,348.5625 Q980.7813,347.4844 980.7813,346.2031 L980.7813,345.0469 Q980.7813,343.7188 981.3906,342.5781 Q982.0156,341.4219 983.1094,340.8125 Q984.2031,340.1875 985.4375,340.1875 Q986.1719,340.1875 986.8125,340.3594 Q987.4688,340.5156 988.0156,340.875 Z " fill="#000000"/><text fill="#000000" font-family="sans-serif" font-size="14" lengthAdjust="spacing" textLength="56" x="1005.75" y="350.7285">PlayView</text><line style="stroke:#181818;stroke-width:0.5;" x1="932.5" x2="1102.5" y1="361" y2="361"/><line style="stroke:#181818;stroke-width:0.5;" x1="932.5" x2="1102.5" y1="369" y2="369"/><ellipse cx="942.5" cy="383.3047" fill="#84BE84" rx="3" ry="3" style="stroke:#038048;stroke-width:1.0;"/><text fill="#000000" font-family="sans-serif" font-size="14" lengthAdjust="spacing" textLength="146" x="951.5" y="387.5332">interact(PlayController)</text></g><!--class ResumeView--><g id="elem_ResumeView"><rect codeLine="12" fill="#F1F1F1" height="65.6094" id="ResumeView" rx="2.5" ry="2.5" style="stroke:#181818;stroke-width:0.5;" width="197" x="699" y="329"/><ellipse cx="752.75" cy="345" fill="#ADD1B2" rx="11" ry="11" style="stroke:#181818;stroke-width:1.0;"/><path d="M755.5156,340.875 Q755.6719,340.6563 755.8594,340.5469 Q756.0469,340.4375 756.2656,340.4375 Q756.6406,340.4375 756.875,340.7031 Q757.1094,340.9531 757.1094,341.5625 L757.1094,343.0156 Q757.1094,343.625 756.875,343.8906 Q756.6406,344.1563 756.2656,344.1563 Q755.9219,344.1563 755.7188,343.9531 Q755.5156,343.7656 755.4063,343.25 Q755.3594,342.8906 755.1719,342.7031 Q754.8438,342.3281 754.2344,342.1094 Q753.625,341.8906 753,341.8906 Q752.2344,341.8906 751.5938,342.2188 Q750.9688,342.5469 750.4688,343.2969 Q749.9844,344.0469 749.9844,345.0781 L749.9844,346.1719 Q749.9844,347.4063 750.875,348.2344 Q751.7656,349.0469 753.3594,349.0469 Q754.2969,349.0469 754.9531,348.7969 Q755.3438,348.6406 755.7656,348.2031 Q756.0313,347.9375 756.1719,347.8594 Q756.3281,347.7813 756.5313,347.7813 Q756.8594,347.7813 757.1094,348.0469 Q757.375,348.2969 757.375,348.6406 Q757.375,348.9844 757.0313,349.3906 Q756.5313,349.9688 755.7344,350.2969 Q754.6563,350.75 753.3594,350.75 Q751.8438,350.75 750.6406,350.125 Q749.6563,349.625 748.9688,348.5625 Q748.2813,347.4844 748.2813,346.2031 L748.2813,345.0469 Q748.2813,343.7188 748.8906,342.5781 Q749.5156,341.4219 750.6094,340.8125 Q751.7031,340.1875 752.9375,340.1875 Q753.6719,340.1875 754.3125,340.3594 Q754.9688,340.5156 755.5156,340.875 Z " fill="#000000"/><text fill="#000000" font-family="sans-serif" font-size="14" lengthAdjust="spacing" textLength="81" x="773.25" y="350.7285">ResumeView</text><line style="stroke:#181818;stroke-width:0.5;" x1="700" x2="895" y1="361" y2="361"/><line style="stroke:#181818;stroke-width:0.5;" x1="700" x2="895" y1="369" y2="369"/><ellipse cx="710" cy="383.3047" fill="#84BE84" rx="3" ry="3" style="stroke:#038048;stroke-width:1.0;"/><text fill="#000000" font-family="sans-serif" font-size="14" lengthAdjust="spacing" textLength="171" x="719" y="387.5332">interact(ResumeController)</text></g><!--class BoardView--><g id="elem_BoardView"><rect codeLine="16" fill="#F1F1F1" height="83.2188" id="BoardView" rx="2.5" ry="2.5" style="stroke:#181818;stroke-width:0.5;" width="127" x="889" y="464"/><ellipse cx="916.6" cy="480" fill="#ADD1B2" rx="11" ry="11" style="stroke:#181818;stroke-width:1.0;"/><path d="M919.3656,475.875 Q919.5219,475.6563 919.7094,475.5469 Q919.8969,475.4375 920.1156,475.4375 Q920.4906,475.4375 920.725,475.7031 Q920.9594,475.9531 920.9594,476.5625 L920.9594,478.0156 Q920.9594,478.625 920.725,478.8906 Q920.4906,479.1563 920.1156,479.1563 Q919.7719,479.1563 919.5688,478.9531 Q919.3656,478.7656 919.2563,478.25 Q919.2094,477.8906 919.0219,477.7031 Q918.6938,477.3281 918.0844,477.1094 Q917.475,476.8906 916.85,476.8906 Q916.0844,476.8906 915.4438,477.2188 Q914.8188,477.5469 914.3188,478.2969 Q913.8344,479.0469 913.8344,480.0781 L913.8344,481.1719 Q913.8344,482.4063 914.725,483.2344 Q915.6156,484.0469 917.2094,484.0469 Q918.1469,484.0469 918.8031,483.7969 Q919.1938,483.6406 919.6156,483.2031 Q919.8813,482.9375 920.0219,482.8594 Q920.1781,482.7813 920.3813,482.7813 Q920.7094,482.7813 920.9594,483.0469 Q921.225,483.2969 921.225,483.6406 Q921.225,483.9844 920.8813,484.3906 Q920.3813,484.9688 919.5844,485.2969 Q918.5063,485.75 917.2094,485.75 Q915.6938,485.75 914.4906,485.125 Q913.5063,484.625 912.8188,483.5625 Q912.1313,482.4844 912.1313,481.2031 L912.1313,480.0469 Q912.1313,478.7188 912.7406,477.5781 Q913.3656,476.4219 914.4594,475.8125 Q915.5531,475.1875 916.7875,475.1875 Q917.5219,475.1875 918.1625,475.3594 Q918.8188,475.5156 919.3656,475.875 Z " fill="#000000"/><text fill="#000000" font-family="sans-serif" font-size="14" lengthAdjust="spacing" textLength="67" x="933.4" y="485.7285">BoardView</text><line style="stroke:#181818;stroke-width:0.5;" x1="890" x2="1015" y1="496" y2="496"/><line style="stroke:#181818;stroke-width:0.5;" x1="890" x2="1015" y1="504" y2="504"/><ellipse cx="900" cy="518.3047" fill="#84BE84" rx="3" ry="3" style="stroke:#038048;stroke-width:1.0;"/><text fill="#000000" font-family="sans-serif" font-size="14" lengthAdjust="spacing" textLength="50" x="909" y="522.5332">writeln()</text><ellipse cx="900" cy="535.9141" fill="#84BE84" rx="3" ry="3" style="stroke:#038048;stroke-width:1.0;"/><text fill="#000000" font-family="sans-serif" font-size="14" lengthAdjust="spacing" textLength="101" x="909" y="540.1426">writeHorizontal()</text></g><!--class TurnView--><g id="elem_TurnView"><rect codeLine="21" fill="#F1F1F1" height="100.8281" id="TurnView" rx="2.5" ry="2.5" style="stroke:#181818;stroke-width:0.5;" width="212" x="1063.5" y="455"/><ellipse cx="1135.75" cy="471" fill="#ADD1B2" rx="11" ry="11" style="stroke:#181818;stroke-width:1.0;"/><path d="M1138.5156,466.875 Q1138.6719,466.6563 1138.8594,466.5469 Q1139.0469,466.4375 1139.2656,466.4375 Q1139.6406,466.4375 1139.875,466.7031 Q1140.1094,466.9531 1140.1094,467.5625 L1140.1094,469.0156 Q1140.1094,469.625 1139.875,469.8906 Q1139.6406,470.1563 1139.2656,470.1563 Q1138.9219,470.1563 1138.7188,469.9531 Q1138.5156,469.7656 1138.4063,469.25 Q1138.3594,468.8906 1138.1719,468.7031 Q1137.8438,468.3281 1137.2344,468.1094 Q1136.625,467.8906 1136,467.8906 Q1135.2344,467.8906 1134.5938,468.2188 Q1133.9688,468.5469 1133.4688,469.2969 Q1132.9844,470.0469 1132.9844,471.0781 L1132.9844,472.1719 Q1132.9844,473.4063 1133.875,474.2344 Q1134.7656,475.0469 1136.3594,475.0469 Q1137.2969,475.0469 1137.9531,474.7969 Q1138.3438,474.6406 1138.7656,474.2031 Q1139.0313,473.9375 1139.1719,473.8594 Q1139.3281,473.7813 1139.5313,473.7813 Q1139.8594,473.7813 1140.1094,474.0469 Q1140.375,474.2969 1140.375,474.6406 Q1140.375,474.9844 1140.0313,475.3906 Q1139.5313,475.9688 1138.7344,476.2969 Q1137.6563,476.75 1136.3594,476.75 Q1134.8438,476.75 1133.6406,476.125 Q1132.6563,475.625 1131.9688,474.5625 Q1131.2813,473.4844 1131.2813,472.2031 L1131.2813,471.0469 Q1131.2813,469.7188 1131.8906,468.5781 Q1132.5156,467.4219 1133.6094,466.8125 Q1134.7031,466.1875 1135.9375,466.1875 Q1136.6719,466.1875 1137.3125,466.3594 Q1137.9688,466.5156 1138.5156,466.875 Z " fill="#000000"/><text fill="#000000" font-family="sans-serif" font-size="14" lengthAdjust="spacing" textLength="59" x="1156.25" y="476.7285">TurnView</text><line style="stroke:#181818;stroke-width:0.5;" x1="1064.5" x2="1274.5" y1="487" y2="487"/><line style="stroke:#181818;stroke-width:0.5;" x1="1064.5" x2="1274.5" y1="495" y2="495"/><ellipse cx="1074.5" cy="509.3047" fill="#84BE84" rx="3" ry="3" style="stroke:#038048;stroke-width:1.0;"/><text fill="#000000" font-family="sans-serif" font-size="14" lengthAdjust="spacing" textLength="186" x="1083.5" y="513.5332">selectPlayers(StartController)</text><ellipse cx="1074.5" cy="526.9141" fill="#84BE84" rx="3" ry="3" style="stroke:#038048;stroke-width:1.0;"/><text fill="#000000" font-family="sans-serif" font-size="14" lengthAdjust="spacing" textLength="168" x="1083.5" y="531.1426">dropToken(PlayController)</text><ellipse cx="1074.5" cy="544.5234" fill="#84BE84" rx="3" ry="3" style="stroke:#038048;stroke-width:1.0;"/><text fill="#000000" font-family="sans-serif" font-size="14" lengthAdjust="spacing" textLength="168" x="1083.5" y="548.752">writeResult(PlayController)</text></g><!--class PlayerView--><g id="elem_PlayerView"><rect codeLine="27" fill="#F1F1F1" height="118.4375" id="PlayerView" rx="2.5" ry="2.5" style="stroke:#181818;stroke-width:0.5;" width="178" x="1444.5" y="949"/><ellipse cx="1494.75" cy="965" fill="#A9DCDF" rx="11" ry="11" style="stroke:#181818;stroke-width:1.0;"/><path d="M1496.9375,966.7656 L1492.7969,966.7656 L1492.375,967.7969 L1492.7969,967.7969 Q1493.4063,967.7969 1493.6719,968.0313 Q1493.9375,968.2656 1493.9375,968.6563 Q1493.9375,969.0313 1493.6719,969.2656 Q1493.4063,969.5 1492.7969,969.5 L1490.5,969.5 Q1489.8906,969.5 1489.6406,969.2656 Q1489.375,969.0313 1489.375,968.6406 Q1489.375,968.2656 1489.6563,968.0313 Q1489.9219,967.7813 1490.5469,967.7969 L1493.2188,961.1406 L1492.1094,961.1406 Q1491.5,961.1406 1491.2344,960.9063 Q1490.9688,960.6719 1490.9688,960.2813 Q1490.9688,959.9063 1491.2344,959.6719 Q1491.5,959.4375 1492.1094,959.4375 L1495.7813,959.4375 L1499.1719,967.7969 Q1499.7656,967.7969 1499.9531,967.9375 Q1500.3438,968.2031 1500.3438,968.6563 Q1500.3438,969.0313 1500.0781,969.2656 Q1499.8281,969.5 1499.2188,969.5 L1496.9219,969.5 Q1496.3125,969.5 1496.0469,969.2656 Q1495.7813,969.0313 1495.7813,968.6406 Q1495.7813,968.2656 1496.0469,968.0313 Q1496.3125,967.7969 1496.9219,967.7969 L1497.3438,967.7969 L1496.9375,966.7656 Z M1496.2188,965.0625 L1494.8594,961.6875 L1493.4844,965.0625 L1496.2188,965.0625 Z " fill="#000000"/><text fill="#000000" font-family="sans-serif" font-size="14" font-style="italic" lengthAdjust="spacing" textLength="69" x="1515.25" y="970.7285">PlayerView</text><line style="stroke:#181818;stroke-width:0.5;" x1="1445.5" x2="1621.5" y1="981" y2="981"/><line style="stroke:#181818;stroke-width:0.5;" x1="1445.5" x2="1621.5" y1="989" y2="989"/><ellipse cx="1455.5" cy="1003.3047" fill="#84BE84" rx="3" ry="3" style="stroke:#038048;stroke-width:1.0;"/><text fill="#000000" font-family="sans-serif" font-size="14" lengthAdjust="spacing" textLength="101" x="1464.5" y="1007.5332">getColumn(): int</text><ellipse cx="1455.5" cy="1020.9141" fill="#84BE84" rx="3" ry="3" style="stroke:#038048;stroke-width:1.0;"/><text fill="#000000" font-family="sans-serif" font-size="14" lengthAdjust="spacing" textLength="79" x="1464.5" y="1025.1426">dropToken()</text><ellipse cx="1455.5" cy="1038.5234" fill="#84BE84" rx="3" ry="3" style="stroke:#038048;stroke-width:1.0;"/><text fill="#000000" font-family="sans-serif" font-size="14" lengthAdjust="spacing" textLength="152" x="1464.5" y="1042.752">setPlayer(Player player)</text><ellipse cx="1455.5" cy="1056.1328" fill="#84BE84" rx="3" ry="3" style="stroke:#038048;stroke-width:1.0;"/><text fill="#000000" font-family="sans-serif" font-size="14" lengthAdjust="spacing" textLength="121" x="1464.5" y="1060.3613">copy() : PlayerView</text></g><!--class MachinePlayerView--><g id="elem_MachinePlayerView"><rect codeLine="34" fill="#F1F1F1" height="48" id="MachinePlayerView" rx="2.5" ry="2.5" style="stroke:#181818;stroke-width:0.5;" width="155" x="1302" y="1127"/><ellipse cx="1317" cy="1143" fill="#A9DCDF" rx="11" ry="11" style="stroke:#181818;stroke-width:1.0;"/><path d="M1319.1875,1144.7656 L1315.0469,1144.7656 L1314.625,1145.7969 L1315.0469,1145.7969 Q1315.6563,1145.7969 1315.9219,1146.0313 Q1316.1875,1146.2656 1316.1875,1146.6563 Q1316.1875,1147.0313 1315.9219,1147.2656 Q1315.6563,1147.5 1315.0469,1147.5 L1312.75,1147.5 Q1312.1406,1147.5 1311.8906,1147.2656 Q1311.625,1147.0313 1311.625,1146.6406 Q1311.625,1146.2656 1311.9063,1146.0313 Q1312.1719,1145.7813 1312.7969,1145.7969 L1315.4688,1139.1406 L1314.3594,1139.1406 Q1313.75,1139.1406 1313.4844,1138.9063 Q1313.2188,1138.6719 1313.2188,1138.2813 Q1313.2188,1137.9063 1313.4844,1137.6719 Q1313.75,1137.4375 1314.3594,1137.4375 L1318.0313,1137.4375 L1321.4219,1145.7969 Q1322.0156,1145.7969 1322.2031,1145.9375 Q1322.5938,1146.2031 1322.5938,1146.6563 Q1322.5938,1147.0313 1322.3281,1147.2656 Q1322.0781,1147.5 1321.4688,1147.5 L1319.1719,1147.5 Q1318.5625,1147.5 1318.2969,1147.2656 Q1318.0313,1147.0313 1318.0313,1146.6406 Q1318.0313,1146.2656 1318.2969,1146.0313 Q1318.5625,1145.7969 1319.1719,1145.7969 L1319.5938,1145.7969 L1319.1875,1144.7656 Z M1318.4688,1143.0625 L1317.1094,1139.6875 L1315.7344,1143.0625 L1318.4688,1143.0625 Z " fill="#000000"/><text fill="#000000" font-family="sans-serif" font-size="14" font-style="italic" lengthAdjust="spacing" textLength="123" x="1331" y="1148.7285">MachinePlayerView</text><line style="stroke:#181818;stroke-width:0.5;" x1="1303" x2="1456" y1="1159" y2="1159"/><line style="stroke:#181818;stroke-width:0.5;" x1="1303" x2="1456" y1="1167" y2="1167"/></g><!--class MinMaxMachinePlayerView--><g id="elem_MinMaxMachinePlayerView"><rect codeLine="35" fill="#F1F1F1" height="48" id="MinMaxMachinePlayerView" rx="2.5" ry="2.5" style="stroke:#181818;stroke-width:0.5;" width="201" x="1349" y="1241.5"/><ellipse cx="1364" cy="1257.5" fill="#ADD1B2" rx="11" ry="11" style="stroke:#181818;stroke-width:1.0;"/><path d="M1366.7656,1253.375 Q1366.9219,1253.1563 1367.1094,1253.0469 Q1367.2969,1252.9375 1367.5156,1252.9375 Q1367.8906,1252.9375 1368.125,1253.2031 Q1368.3594,1253.4531 1368.3594,1254.0625 L1368.3594,1255.5156 Q1368.3594,1256.125 1368.125,1256.3906 Q1367.8906,1256.6563 1367.5156,1256.6563 Q1367.1719,1256.6563 1366.9688,1256.4531 Q1366.7656,1256.2656 1366.6563,1255.75 Q1366.6094,1255.3906 1366.4219,1255.2031 Q1366.0938,1254.8281 1365.4844,1254.6094 Q1364.875,1254.3906 1364.25,1254.3906 Q1363.4844,1254.3906 1362.8438,1254.7188 Q1362.2188,1255.0469 1361.7188,1255.7969 Q1361.2344,1256.5469 1361.2344,1257.5781 L1361.2344,1258.6719 Q1361.2344,1259.9063 1362.125,1260.7344 Q1363.0156,1261.5469 1364.6094,1261.5469 Q1365.5469,1261.5469 1366.2031,1261.2969 Q1366.5938,1261.1406 1367.0156,1260.7031 Q1367.2813,1260.4375 1367.4219,1260.3594 Q1367.5781,1260.2813 1367.7813,1260.2813 Q1368.1094,1260.2813 1368.3594,1260.5469 Q1368.625,1260.7969 1368.625,1261.1406 Q1368.625,1261.4844 1368.2813,1261.8906 Q1367.7813,1262.4688 1366.9844,1262.7969 Q1365.9063,1263.25 1364.6094,1263.25 Q1363.0938,1263.25 1361.8906,1262.625 Q1360.9063,1262.125 1360.2188,1261.0625 Q1359.5313,1259.9844 1359.5313,1258.7031 L1359.5313,1257.5469 Q1359.5313,1256.2188 1360.1406,1255.0781 Q1360.7656,1253.9219 1361.8594,1253.3125 Q1362.9531,1252.6875 1364.1875,1252.6875 Q1364.9219,1252.6875 1365.5625,1252.8594 Q1366.2188,1253.0156 1366.7656,1253.375 Z " fill="#000000"/><text fill="#000000" font-family="sans-serif" font-size="14" lengthAdjust="spacing" textLength="169" x="1378" y="1263.2285">MinMaxMachinePlayerView</text><line style="stroke:#181818;stroke-width:0.5;" x1="1350" x2="1549" y1="1273.5" y2="1273.5"/><line style="stroke:#181818;stroke-width:0.5;" x1="1350" x2="1549" y1="1281.5" y2="1281.5"/></g><!--class RandomMachinePlayerView--><g id="elem_RandomMachinePlayerView"><rect codeLine="36" fill="#F1F1F1" height="48" id="RandomMachinePlayerView" rx="2.5" ry="2.5" style="stroke:#181818;stroke-width:0.5;" width="207" x="1107" y="1241.5"/><ellipse cx="1122" cy="1257.5" fill="#ADD1B2" rx="11" ry="11" style="stroke:#181818;stroke-width:1.0;"/><path d="M1124.7656,1253.375 Q1124.9219,1253.1563 1125.1094,1253.0469 Q1125.2969,1252.9375 1125.5156,1252.9375 Q1125.8906,1252.9375 1126.125,1253.2031 Q1126.3594,1253.4531 1126.3594,1254.0625 L1126.3594,1255.5156 Q1126.3594,1256.125 1126.125,1256.3906 Q1125.8906,1256.6563 1125.5156,1256.6563 Q1125.1719,1256.6563 1124.9688,1256.4531 Q1124.7656,1256.2656 1124.6563,1255.75 Q1124.6094,1255.3906 1124.4219,1255.2031 Q1124.0938,1254.8281 1123.4844,1254.6094 Q1122.875,1254.3906 1122.25,1254.3906 Q1121.4844,1254.3906 1120.8438,1254.7188 Q1120.2188,1255.0469 1119.7188,1255.7969 Q1119.2344,1256.5469 1119.2344,1257.5781 L1119.2344,1258.6719 Q1119.2344,1259.9063 1120.125,1260.7344 Q1121.0156,1261.5469 1122.6094,1261.5469 Q1123.5469,1261.5469 1124.2031,1261.2969 Q1124.5938,1261.1406 1125.0156,1260.7031 Q1125.2813,1260.4375 1125.4219,1260.3594 Q1125.5781,1260.2813 1125.7813,1260.2813 Q1126.1094,1260.2813 1126.3594,1260.5469 Q1126.625,1260.7969 1126.625,1261.1406 Q1126.625,1261.4844 1126.2813,1261.8906 Q1125.7813,1262.4688 1124.9844,1262.7969 Q1123.9063,1263.25 1122.6094,1263.25 Q1121.0938,1263.25 1119.8906,1262.625 Q1118.9063,1262.125 1118.2188,1261.0625 Q1117.5313,1259.9844 1117.5313,1258.7031 L1117.5313,1257.5469 Q1117.5313,1256.2188 1118.1406,1255.0781 Q1118.7656,1253.9219 1119.8594,1253.3125 Q1120.9531,1252.6875 1122.1875,1252.6875 Q1122.9219,1252.6875 1123.5625,1252.8594 Q1124.2188,1253.0156 1124.7656,1253.375 Z " fill="#000000"/><text fill="#000000" font-family="sans-serif" font-size="14" lengthAdjust="spacing" textLength="175" x="1136" y="1263.2285">RandomMachinePlayerView</text><line style="stroke:#181818;stroke-width:0.5;" x1="1108" x2="1313" y1="1273.5" y2="1273.5"/><line style="stroke:#181818;stroke-width:0.5;" x1="1108" x2="1313" y1="1281.5" y2="1281.5"/></g><!--class UserPlayerView--><g id="elem_UserPlayerView"><rect codeLine="37" fill="#F1F1F1" height="48" id="UserPlayerView" rx="2.5" ry="2.5" style="stroke:#181818;stroke-width:0.5;" width="130" x="1492.5" y="1127"/><ellipse cx="1507.5" cy="1143" fill="#ADD1B2" rx="11" ry="11" style="stroke:#181818;stroke-width:1.0;"/><path d="M1510.2656,1138.875 Q1510.4219,1138.6563 1510.6094,1138.5469 Q1510.7969,1138.4375 1511.0156,1138.4375 Q1511.3906,1138.4375 1511.625,1138.7031 Q1511.8594,1138.9531 1511.8594,1139.5625 L1511.8594,1141.0156 Q1511.8594,1141.625 1511.625,1141.8906 Q1511.3906,1142.1563 1511.0156,1142.1563 Q1510.6719,1142.1563 1510.4688,1141.9531 Q1510.2656,1141.7656 1510.1563,1141.25 Q1510.1094,1140.8906 1509.9219,1140.7031 Q1509.5938,1140.3281 1508.9844,1140.1094 Q1508.375,1139.8906 1507.75,1139.8906 Q1506.9844,1139.8906 1506.3438,1140.2188 Q1505.7188,1140.5469 1505.2188,1141.2969 Q1504.7344,1142.0469 1504.7344,1143.0781 L1504.7344,1144.1719 Q1504.7344,1145.4063 1505.625,1146.2344 Q1506.5156,1147.0469 1508.1094,1147.0469 Q1509.0469,1147.0469 1509.7031,1146.7969 Q1510.0938,1146.6406 1510.5156,1146.2031 Q1510.7813,1145.9375 1510.9219,1145.8594 Q1511.0781,1145.7813 1511.2813,1145.7813 Q1511.6094,1145.7813 1511.8594,1146.0469 Q1512.125,1146.2969 1512.125,1146.6406 Q1512.125,1146.9844 1511.7813,1147.3906 Q1511.2813,1147.9688 1510.4844,1148.2969 Q1509.4063,1148.75 1508.1094,1148.75 Q1506.5938,1148.75 1505.3906,1148.125 Q1504.4063,1147.625 1503.7188,1146.5625 Q1503.0313,1145.4844 1503.0313,1144.2031 L1503.0313,1143.0469 Q1503.0313,1141.7188 1503.6406,1140.5781 Q1504.2656,1139.4219 1505.3594,1138.8125 Q1506.4531,1138.1875 1507.6875,1138.1875 Q1508.4219,1138.1875 1509.0625,1138.3594 Q1509.7188,1138.5156 1510.2656,1138.875 Z " fill="#000000"/><text fill="#000000" font-family="sans-serif" font-size="14" lengthAdjust="spacing" textLength="98" x="1521.5" y="1148.7285">UserPlayerView</text><line style="stroke:#181818;stroke-width:0.5;" x1="1493.5" x2="1621.5" y1="1159" y2="1159"/><line style="stroke:#181818;stroke-width:0.5;" x1="1493.5" x2="1621.5" y1="1167" y2="1167"/></g><!--class TurnMenu--><g id="elem_TurnMenu"><rect codeLine="38" fill="#F1F1F1" height="100.8281" id="TurnMenu" rx="2.5" ry="2.5" style="stroke:#181818;stroke-width:0.5;" width="213" x="1409" y="616"/><ellipse cx="1478.75" cy="632" fill="#ADD1B2" rx="11" ry="11" style="stroke:#181818;stroke-width:1.0;"/><path d="M1481.5156,627.875 Q1481.6719,627.6563 1481.8594,627.5469 Q1482.0469,627.4375 1482.2656,627.4375 Q1482.6406,627.4375 1482.875,627.7031 Q1483.1094,627.9531 1483.1094,628.5625 L1483.1094,630.0156 Q1483.1094,630.625 1482.875,630.8906 Q1482.6406,631.1563 1482.2656,631.1563 Q1481.9219,631.1563 1481.7188,630.9531 Q1481.5156,630.7656 1481.4063,630.25 Q1481.3594,629.8906 1481.1719,629.7031 Q1480.8438,629.3281 1480.2344,629.1094 Q1479.625,628.8906 1479,628.8906 Q1478.2344,628.8906 1477.5938,629.2188 Q1476.9688,629.5469 1476.4688,630.2969 Q1475.9844,631.0469 1475.9844,632.0781 L1475.9844,633.1719 Q1475.9844,634.4063 1476.875,635.2344 Q1477.7656,636.0469 1479.3594,636.0469 Q1480.2969,636.0469 1480.9531,635.7969 Q1481.3438,635.6406 1481.7656,635.2031 Q1482.0313,634.9375 1482.1719,634.8594 Q1482.3281,634.7813 1482.5313,634.7813 Q1482.8594,634.7813 1483.1094,635.0469 Q1483.375,635.2969 1483.375,635.6406 Q1483.375,635.9844 1483.0313,636.3906 Q1482.5313,636.9688 1481.7344,637.2969 Q1480.6563,637.75 1479.3594,637.75 Q1477.8438,637.75 1476.6406,637.125 Q1475.6563,636.625 1474.9688,635.5625 Q1474.2813,634.4844 1474.2813,633.2031 L1474.2813,632.0469 Q1474.2813,630.7188 1474.8906,629.5781 Q1475.5156,628.4219 1476.6094,627.8125 Q1477.7031,627.1875 1478.9375,627.1875 Q1479.6719,627.1875 1480.3125,627.3594 Q1480.9688,627.5156 1481.5156,627.875 Z " fill="#000000"/><text fill="#000000" font-family="sans-serif" font-size="14" lengthAdjust="spacing" textLength="65" x="1499.25" y="637.7285">TurnMenu</text><line style="stroke:#181818;stroke-width:0.5;" x1="1410" x2="1621" y1="648" y2="648"/><line style="stroke:#181818;stroke-width:0.5;" x1="1410" x2="1621" y1="656" y2="656"/><ellipse cx="1420" cy="670.3047" fill="#84BE84" rx="3" ry="3" style="stroke:#038048;stroke-width:1.0;"/><text fill="#000000" font-family="sans-serif" font-size="14" lengthAdjust="spacing" textLength="187" x="1429" y="674.5332">TurnMenu(Startcontroller, int)</text><ellipse cx="1420" cy="687.9141" fill="#84BE84" rx="3" ry="3" style="stroke:#038048;stroke-width:1.0;"/><text fill="#000000" font-family="sans-serif" font-size="14" lengthAdjust="spacing" textLength="83" x="1429" y="692.1426">addOptions()</text><ellipse cx="1420" cy="705.5234" fill="#84BE84" rx="3" ry="3" style="stroke:#038048;stroke-width:1.0;"/><text fill="#000000" font-family="sans-serif" font-size="14" lengthAdjust="spacing" textLength="57" x="1429" y="709.752">interact()</text></g><!--class TurnOption--><g id="elem_TurnOption"><rect codeLine="44" fill="#F1F1F1" height="65.6094" id="TurnOption" rx="2.5" ry="2.5" style="stroke:#181818;stroke-width:0.5;" width="260" x="698.5" y="800"/><ellipse cx="788.25" cy="816" fill="#A9DCDF" rx="11" ry="11" style="stroke:#181818;stroke-width:1.0;"/><path d="M790.4375,817.7656 L786.2969,817.7656 L785.875,818.7969 L786.2969,818.7969 Q786.9063,818.7969 787.1719,819.0313 Q787.4375,819.2656 787.4375,819.6563 Q787.4375,820.0313 787.1719,820.2656 Q786.9063,820.5 786.2969,820.5 L784,820.5 Q783.3906,820.5 783.1406,820.2656 Q782.875,820.0313 782.875,819.6406 Q782.875,819.2656 783.1563,819.0313 Q783.4219,818.7813 784.0469,818.7969 L786.7188,812.1406 L785.6094,812.1406 Q785,812.1406 784.7344,811.9063 Q784.4688,811.6719 784.4688,811.2813 Q784.4688,810.9063 784.7344,810.6719 Q785,810.4375 785.6094,810.4375 L789.2813,810.4375 L792.6719,818.7969 Q793.2656,818.7969 793.4531,818.9375 Q793.8438,819.2031 793.8438,819.6563 Q793.8438,820.0313 793.5781,820.2656 Q793.3281,820.5 792.7188,820.5 L790.4219,820.5 Q789.8125,820.5 789.5469,820.2656 Q789.2813,820.0313 789.2813,819.6406 Q789.2813,819.2656 789.5469,819.0313 Q789.8125,818.7969 790.4219,818.7969 L790.8438,818.7969 L790.4375,817.7656 Z M789.7188,816.0625 L788.3594,812.6875 L786.9844,816.0625 L789.7188,816.0625 Z " fill="#000000"/><text fill="#000000" font-family="sans-serif" font-size="14" font-style="italic" lengthAdjust="spacing" textLength="72" x="808.75" y="821.7285">TurnOption</text><line style="stroke:#181818;stroke-width:0.5;" x1="699.5" x2="957.5" y1="832" y2="832"/><line style="stroke:#181818;stroke-width:0.5;" x1="699.5" x2="957.5" y1="840" y2="840"/><ellipse cx="709.5" cy="854.3047" fill="#84BE84" rx="3" ry="3" style="stroke:#038048;stroke-width:1.0;"/><text fill="#000000" font-family="sans-serif" font-size="14" lengthAdjust="spacing" textLength="234" x="718.5" y="858.5332">SetUserPlayerOption(StartController)</text></g><!--class SetRandomMachinePlayerOption--><g id="elem_SetRandomMachinePlayerOption"><rect codeLine="48" fill="#F1F1F1" height="65.6094" id="SetRandomMachinePlayerOption" rx="2.5" ry="2.5" style="stroke:#181818;stroke-width:0.5;" width="241" x="699" y="975"/><ellipse cx="714" cy="991" fill="#ADD1B2" rx="11" ry="11" style="stroke:#181818;stroke-width:1.0;"/><path d="M716.7656,986.875 Q716.9219,986.6563 717.1094,986.5469 Q717.2969,986.4375 717.5156,986.4375 Q717.8906,986.4375 718.125,986.7031 Q718.3594,986.9531 718.3594,987.5625 L718.3594,989.0156 Q718.3594,989.625 718.125,989.8906 Q717.8906,990.1563 717.5156,990.1563 Q717.1719,990.1563 716.9688,989.9531 Q716.7656,989.7656 716.6563,989.25 Q716.6094,988.8906 716.4219,988.7031 Q716.0938,988.3281 715.4844,988.1094 Q714.875,987.8906 714.25,987.8906 Q713.4844,987.8906 712.8438,988.2188 Q712.2188,988.5469 711.7188,989.2969 Q711.2344,990.0469 711.2344,991.0781 L711.2344,992.1719 Q711.2344,993.4063 712.125,994.2344 Q713.0156,995.0469 714.6094,995.0469 Q715.5469,995.0469 716.2031,994.7969 Q716.5938,994.6406 717.0156,994.2031 Q717.2813,993.9375 717.4219,993.8594 Q717.5781,993.7813 717.7813,993.7813 Q718.1094,993.7813 718.3594,994.0469 Q718.625,994.2969 718.625,994.6406 Q718.625,994.9844 718.2813,995.3906 Q717.7813,995.9688 716.9844,996.2969 Q715.9063,996.75 714.6094,996.75 Q713.0938,996.75 711.8906,996.125 Q710.9063,995.625 710.2188,994.5625 Q709.5313,993.4844 709.5313,992.2031 L709.5313,991.0469 Q709.5313,989.7188 710.1406,988.5781 Q710.7656,987.4219 711.8594,986.8125 Q712.9531,986.1875 714.1875,986.1875 Q714.9219,986.1875 715.5625,986.3594 Q716.2188,986.5156 716.7656,986.875 Z " fill="#000000"/><text fill="#000000" font-family="sans-serif" font-size="14" lengthAdjust="spacing" textLength="209" x="728" y="996.7285">SetRandomMachinePlayerOption</text><line style="stroke:#181818;stroke-width:0.5;" x1="700" x2="939" y1="1007" y2="1007"/><line style="stroke:#181818;stroke-width:0.5;" x1="700" x2="939" y1="1015" y2="1015"/><ellipse cx="710" cy="1029.3047" fill="#84BE84" rx="3" ry="3" style="stroke:#038048;stroke-width:1.0;"/><text fill="#000000" font-family="sans-serif" font-size="14" lengthAdjust="spacing" textLength="57" x="719" y="1033.5332">interact()</text></g><!--class SetMinMaxMachinePlayerOption--><g id="elem_SetMinMaxMachinePlayerOption"><rect codeLine="52" fill="#F1F1F1" height="65.6094" id="SetMinMaxMachinePlayerOption" rx="2.5" ry="2.5" style="stroke:#181818;stroke-width:0.5;" width="235" x="975" y="975"/><ellipse cx="990" cy="991" fill="#ADD1B2" rx="11" ry="11" style="stroke:#181818;stroke-width:1.0;"/><path d="M992.7656,986.875 Q992.9219,986.6563 993.1094,986.5469 Q993.2969,986.4375 993.5156,986.4375 Q993.8906,986.4375 994.125,986.7031 Q994.3594,986.9531 994.3594,987.5625 L994.3594,989.0156 Q994.3594,989.625 994.125,989.8906 Q993.8906,990.1563 993.5156,990.1563 Q993.1719,990.1563 992.9688,989.9531 Q992.7656,989.7656 992.6563,989.25 Q992.6094,988.8906 992.4219,988.7031 Q992.0938,988.3281 991.4844,988.1094 Q990.875,987.8906 990.25,987.8906 Q989.4844,987.8906 988.8438,988.2188 Q988.2188,988.5469 987.7188,989.2969 Q987.2344,990.0469 987.2344,991.0781 L987.2344,992.1719 Q987.2344,993.4063 988.125,994.2344 Q989.0156,995.0469 990.6094,995.0469 Q991.5469,995.0469 992.2031,994.7969 Q992.5938,994.6406 993.0156,994.2031 Q993.2813,993.9375 993.4219,993.8594 Q993.5781,993.7813 993.7813,993.7813 Q994.1094,993.7813 994.3594,994.0469 Q994.625,994.2969 994.625,994.6406 Q994.625,994.9844 994.2813,995.3906 Q993.7813,995.9688 992.9844,996.2969 Q991.9063,996.75 990.6094,996.75 Q989.0938,996.75 987.8906,996.125 Q986.9063,995.625 986.2188,994.5625 Q985.5313,993.4844 985.5313,992.2031 L985.5313,991.0469 Q985.5313,989.7188 986.1406,988.5781 Q986.7656,987.4219 987.8594,986.8125 Q988.9531,986.1875 990.1875,986.1875 Q990.9219,986.1875 991.5625,986.3594 Q992.2188,986.5156 992.7656,986.875 Z " fill="#000000"/><text fill="#000000" font-family="sans-serif" font-size="14" lengthAdjust="spacing" textLength="203" x="1004" y="996.7285">SetMinMaxMachinePlayerOption</text><line style="stroke:#181818;stroke-width:0.5;" x1="976" x2="1209" y1="1007" y2="1007"/><line style="stroke:#181818;stroke-width:0.5;" x1="976" x2="1209" y1="1015" y2="1015"/><ellipse cx="986" cy="1029.3047" fill="#84BE84" rx="3" ry="3" style="stroke:#038048;stroke-width:1.0;"/><text fill="#000000" font-family="sans-serif" font-size="14" lengthAdjust="spacing" textLength="57" x="995" y="1033.5332">interact()</text></g><!--class SetUserPlayerOption--><g id="elem_SetUserPlayerOption"><rect codeLine="56" fill="#F1F1F1" height="65.6094" id="SetUserPlayerOption" rx="2.5" ry="2.5" style="stroke:#181818;stroke-width:0.5;" width="164" x="1245.5" y="975"/><ellipse cx="1260.5" cy="991" fill="#ADD1B2" rx="11" ry="11" style="stroke:#181818;stroke-width:1.0;"/><path d="M1263.2656,986.875 Q1263.4219,986.6563 1263.6094,986.5469 Q1263.7969,986.4375 1264.0156,986.4375 Q1264.3906,986.4375 1264.625,986.7031 Q1264.8594,986.9531 1264.8594,987.5625 L1264.8594,989.0156 Q1264.8594,989.625 1264.625,989.8906 Q1264.3906,990.1563 1264.0156,990.1563 Q1263.6719,990.1563 1263.4688,989.9531 Q1263.2656,989.7656 1263.1563,989.25 Q1263.1094,988.8906 1262.9219,988.7031 Q1262.5938,988.3281 1261.9844,988.1094 Q1261.375,987.8906 1260.75,987.8906 Q1259.9844,987.8906 1259.3438,988.2188 Q1258.7188,988.5469 1258.2188,989.2969 Q1257.7344,990.0469 1257.7344,991.0781 L1257.7344,992.1719 Q1257.7344,993.4063 1258.625,994.2344 Q1259.5156,995.0469 1261.1094,995.0469 Q1262.0469,995.0469 1262.7031,994.7969 Q1263.0938,994.6406 1263.5156,994.2031 Q1263.7813,993.9375 1263.9219,993.8594 Q1264.0781,993.7813 1264.2813,993.7813 Q1264.6094,993.7813 1264.8594,994.0469 Q1265.125,994.2969 1265.125,994.6406 Q1265.125,994.9844 1264.7813,995.3906 Q1264.2813,995.9688 1263.4844,996.2969 Q1262.4063,996.75 1261.1094,996.75 Q1259.5938,996.75 1258.3906,996.125 Q1257.4063,995.625 1256.7188,994.5625 Q1256.0313,993.4844 1256.0313,992.2031 L1256.0313,991.0469 Q1256.0313,989.7188 1256.6406,988.5781 Q1257.2656,987.4219 1258.3594,986.8125 Q1259.4531,986.1875 1260.6875,986.1875 Q1261.4219,986.1875 1262.0625,986.3594 Q1262.7188,986.5156 1263.2656,986.875 Z " fill="#000000"/><text fill="#000000" font-family="sans-serif" font-size="14" lengthAdjust="spacing" textLength="132" x="1274.5" y="996.7285">SetUserPlayerOption</text><line style="stroke:#181818;stroke-width:0.5;" x1="1246.5" x2="1408.5" y1="1007" y2="1007"/><line style="stroke:#181818;stroke-width:0.5;" x1="1246.5" x2="1408.5" y1="1015" y2="1015"/><ellipse cx="1256.5" cy="1029.3047" fill="#84BE84" rx="3" ry="3" style="stroke:#038048;stroke-width:1.0;"/><text fill="#000000" font-family="sans-serif" font-size="14" lengthAdjust="spacing" textLength="57" x="1265.5" y="1033.5332">interact()</text></g><!--class Message--><g id="elem_Message"><rect codeLine="60" fill="#F1F1F1" height="48" id="Message" rx="2.5" ry="2.5" style="stroke:#181818;stroke-width:0.5;" width="89" x="769" y="221"/><ellipse cx="784" cy="237" fill="#EB937F" rx="11" ry="11" style="stroke:#181818;stroke-width:1.0;"/><path d="M782.8594,237.7969 L782.8594,240.2969 L787.1875,240.2969 L787.1875,239.375 Q787.1875,238.7656 787.4219,238.5 Q787.6719,238.2344 788.0469,238.2344 Q788.4219,238.2344 788.6563,238.5 Q788.8906,238.7656 788.8906,239.375 L788.8906,242 L780.8906,242 Q780.2656,242 780,241.7656 Q779.75,241.5313 779.75,241.1406 Q779.75,240.7656 780.0156,240.5313 Q780.2813,240.2969 780.8906,240.2969 L781.1563,240.2969 L781.1563,233.6406 L780.8906,233.6406 Q780.2656,233.6406 780,233.4063 Q779.75,233.1719 779.75,232.7813 Q779.75,232.4063 780,232.1719 Q780.2656,231.9375 780.8906,231.9375 L788.5156,231.9375 L788.5156,234.5313 Q788.5156,235.1406 788.2813,235.4063 Q788.0625,235.6563 787.6719,235.6563 Q787.2969,235.6563 787.0625,235.4063 Q786.8281,235.1406 786.8281,234.5313 L786.8281,233.6406 L782.8594,233.6406 L782.8594,236.0938 L784.3438,236.0938 Q784.3438,235.4375 784.4688,235.25 Q784.7344,234.8438 785.2031,234.8438 Q785.5781,234.8438 785.8125,235.1094 Q786.0469,235.3594 786.0469,235.9688 L786.0469,237.9375 Q786.0469,238.4844 785.9219,238.6719 Q785.6563,239.0625 785.2031,239.0625 Q784.7344,239.0625 784.4688,238.6563 Q784.3438,238.4688 784.3438,237.7969 L782.8594,237.7969 Z " fill="#000000"/><text fill="#000000" font-family="sans-serif" font-size="14" lengthAdjust="spacing" textLength="57" x="798" y="242.7285">Message</text><line style="stroke:#181818;stroke-width:0.5;" x1="770" x2="857" y1="253" y2="253"/><line style="stroke:#181818;stroke-width:0.5;" x1="770" x2="857" y1="261" y2="261"/></g><!--class YesNoDialog--><g id="elem_YesNoDialog"><rect codeLine="62" fill="#F1F1F1" height="48" id="YesNoDialog" rx="2.5" ry="2.5" style="stroke:#181818;stroke-width:0.5;" width="113" x="741" y="481.5"/><ellipse cx="756" cy="497.5" fill="#ADD1B2" rx="11" ry="11" style="stroke:#181818;stroke-width:1.0;"/><path d="M758.7656,493.375 Q758.9219,493.1563 759.1094,493.0469 Q759.2969,492.9375 759.5156,492.9375 Q759.8906,492.9375 760.125,493.2031 Q760.3594,493.4531 760.3594,494.0625 L760.3594,495.5156 Q760.3594,496.125 760.125,496.3906 Q759.8906,496.6563 759.5156,496.6563 Q759.1719,496.6563 758.9688,496.4531 Q758.7656,496.2656 758.6563,495.75 Q758.6094,495.3906 758.4219,495.2031 Q758.0938,494.8281 757.4844,494.6094 Q756.875,494.3906 756.25,494.3906 Q755.4844,494.3906 754.8438,494.7188 Q754.2188,495.0469 753.7188,495.7969 Q753.2344,496.5469 753.2344,497.5781 L753.2344,498.6719 Q753.2344,499.9063 754.125,500.7344 Q755.0156,501.5469 756.6094,501.5469 Q757.5469,501.5469 758.2031,501.2969 Q758.5938,501.1406 759.0156,500.7031 Q759.2813,500.4375 759.4219,500.3594 Q759.5781,500.2813 759.7813,500.2813 Q760.1094,500.2813 760.3594,500.5469 Q760.625,500.7969 760.625,501.1406 Q760.625,501.4844 760.2813,501.8906 Q759.7813,502.4688 758.9844,502.7969 Q757.9063,503.25 756.6094,503.25 Q755.0938,503.25 753.8906,502.625 Q752.9063,502.125 752.2188,501.0625 Q751.5313,499.9844 751.5313,498.7031 L751.5313,497.5469 Q751.5313,496.2188 752.1406,495.0781 Q752.7656,493.9219 753.8594,493.3125 Q754.9531,492.6875 756.1875,492.6875 Q756.9219,492.6875 757.5625,492.8594 Q758.2188,493.0156 758.7656,493.375 Z " fill="#000000"/><text fill="#000000" font-family="sans-serif" font-size="14" lengthAdjust="spacing" textLength="81" x="770" y="503.2285">YesNoDialog</text><line style="stroke:#181818;stroke-width:0.5;" x1="742" x2="853" y1="513.5" y2="513.5"/><line style="stroke:#181818;stroke-width:0.5;" x1="742" x2="853" y1="521.5" y2="521.5"/></g><!--class PlayerViewPrototypeDirector--><g id="elem_PlayerViewPrototypeDirector"><rect codeLine="64" fill="#F1F1F1" height="76.3125" id="PlayerViewPrototypeDirector" rx="2.5" ry="2.5" style="stroke:#181818;stroke-width:0.5;" width="385" x="989" y="628.5"/><ellipse cx="1087.25" cy="649.8516" fill="#ADD1B2" rx="11" ry="11" style="stroke:#181818;stroke-width:1.0;"/><path d="M1090.0156,645.7266 Q1090.1719,645.5078 1090.3594,645.3984 Q1090.5469,645.2891 1090.7656,645.2891 Q1091.1406,645.2891 1091.375,645.5547 Q1091.6094,645.8047 1091.6094,646.4141 L1091.6094,647.8672 Q1091.6094,648.4766 1091.375,648.7422 Q1091.1406,649.0078 1090.7656,649.0078 Q1090.4219,649.0078 1090.2188,648.8047 Q1090.0156,648.6172 1089.9063,648.1016 Q1089.8594,647.7422 1089.6719,647.5547 Q1089.3438,647.1797 1088.7344,646.9609 Q1088.125,646.7422 1087.5,646.7422 Q1086.7344,646.7422 1086.0938,647.0703 Q1085.4688,647.3984 1084.9688,648.1484 Q1084.4844,648.8984 1084.4844,649.9297 L1084.4844,651.0234 Q1084.4844,652.2578 1085.375,653.0859 Q1086.2656,653.8984 1087.8594,653.8984 Q1088.7969,653.8984 1089.4531,653.6484 Q1089.8438,653.4922 1090.2656,653.0547 Q1090.5313,652.7891 1090.6719,652.7109 Q1090.8281,652.6328 1091.0313,652.6328 Q1091.3594,652.6328 1091.6094,652.8984 Q1091.875,653.1484 1091.875,653.4922 Q1091.875,653.8359 1091.5313,654.2422 Q1091.0313,654.8203 1090.2344,655.1484 Q1089.1563,655.6016 1087.8594,655.6016 Q1086.3438,655.6016 1085.1406,654.9766 Q1084.1563,654.4766 1083.4688,653.4141 Q1082.7813,652.3359 1082.7813,651.0547 L1082.7813,649.8984 Q1082.7813,648.5703 1083.3906,647.4297 Q1084.0156,646.2734 1085.1094,645.6641 Q1086.2031,645.0391 1087.4375,645.0391 Q1088.1719,645.0391 1088.8125,645.2109 Q1089.4688,645.3672 1090.0156,645.7266 Z " fill="#000000"/><text fill="#000000" font-family="sans-serif" font-size="12" font-style="italic" lengthAdjust="spacing" textLength="57" x="1169.25" y="645.957">&#171;Director&#187;</text><text fill="#000000" font-family="sans-serif" font-size="14" lengthAdjust="spacing" textLength="180" x="1107.75" y="663.127">PlayerViewPrototypeDirector</text><line style="stroke:#181818;stroke-width:0.5;" x1="990" x2="1373" y1="671.2031" y2="671.2031"/><line style="stroke:#181818;stroke-width:0.5;" x1="990" x2="1373" y1="679.2031" y2="679.2031"/><text fill="#000000" font-family="sans-serif" font-size="14" lengthAdjust="spacing" textLength="373" x="995" y="697.7363">get(PlayerViewPrototypeRegistry, PlayerType) : PlayerView</text></g><!--class PlayerViewPrototypeRegistry--><g id="elem_PlayerViewPrototypeRegistry"><rect codeLine="68" fill="#F1F1F1" height="111.5313" id="PlayerViewPrototypeRegistry" rx="2.5" ry="2.5" style="stroke:#181818;stroke-width:0.5;" width="305" x="1031" y="777"/><ellipse cx="1088.25" cy="798.3516" fill="#ADD1B2" rx="11" ry="11" style="stroke:#181818;stroke-width:1.0;"/><path d="M1091.0156,794.2266 Q1091.1719,794.0078 1091.3594,793.8984 Q1091.5469,793.7891 1091.7656,793.7891 Q1092.1406,793.7891 1092.375,794.0547 Q1092.6094,794.3047 1092.6094,794.9141 L1092.6094,796.3672 Q1092.6094,796.9766 1092.375,797.2422 Q1092.1406,797.5078 1091.7656,797.5078 Q1091.4219,797.5078 1091.2188,797.3047 Q1091.0156,797.1172 1090.9063,796.6016 Q1090.8594,796.2422 1090.6719,796.0547 Q1090.3438,795.6797 1089.7344,795.4609 Q1089.125,795.2422 1088.5,795.2422 Q1087.7344,795.2422 1087.0938,795.5703 Q1086.4688,795.8984 1085.9688,796.6484 Q1085.4844,797.3984 1085.4844,798.4297 L1085.4844,799.5234 Q1085.4844,800.7578 1086.375,801.5859 Q1087.2656,802.3984 1088.8594,802.3984 Q1089.7969,802.3984 1090.4531,802.1484 Q1090.8438,801.9922 1091.2656,801.5547 Q1091.5313,801.2891 1091.6719,801.2109 Q1091.8281,801.1328 1092.0313,801.1328 Q1092.3594,801.1328 1092.6094,801.3984 Q1092.875,801.6484 1092.875,801.9922 Q1092.875,802.3359 1092.5313,802.7422 Q1092.0313,803.3203 1091.2344,803.6484 Q1090.1563,804.1016 1088.8594,804.1016 Q1087.3438,804.1016 1086.1406,803.4766 Q1085.1563,802.9766 1084.4688,801.9141 Q1083.7813,800.8359 1083.7813,799.5547 L1083.7813,798.3984 Q1083.7813,797.0703 1084.3906,795.9297 Q1085.0156,794.7734 1086.1094,794.1641 Q1087.2031,793.5391 1088.4375,793.5391 Q1089.1719,793.5391 1089.8125,793.7109 Q1090.4688,793.8672 1091.0156,794.2266 Z " fill="#000000"/><text fill="#000000" font-family="sans-serif" font-size="12" font-style="italic" lengthAdjust="spacing" textLength="111" x="1144.25" y="794.457">&#171;PrototypeRegistry&#187;</text><text fill="#000000" font-family="sans-serif" font-size="14" lengthAdjust="spacing" textLength="182" x="1108.75" y="811.627">PlayerViewPrototypeRegistry</text><line style="stroke:#181818;stroke-width:0.5;" x1="1032" x2="1335" y1="819.7031" y2="819.7031"/><rect fill="none" height="6" style="stroke:#C82930;stroke-width:1.0;" width="6" x="1039" y="831.0078"/><text fill="#000000" font-family="sans-serif" font-size="14" lengthAdjust="spacing" textLength="279" x="1051" y="838.2363">playerViews : Map&lt;PlayerType, PlayerView&gt;</text><line style="stroke:#181818;stroke-width:0.5;" x1="1032" x2="1335" y1="845.3125" y2="845.3125"/><rect fill="#F24D5C" height="6" style="stroke:#C82930;stroke-width:1.0;" width="6" x="1039" y="856.6172"/><text fill="#000000" font-family="sans-serif" font-size="14" lengthAdjust="spacing" textLength="252" x="1051" y="863.8457">addPlayerView(PlayerType, PlayerView)</text><ellipse cx="1042" cy="877.2266" fill="#84BE84" rx="3" ry="3" style="stroke:#038048;stroke-width:1.0;"/><text fill="#000000" font-family="sans-serif" font-size="14" lengthAdjust="spacing" textLength="252" x="1051" y="881.4551">getPlayerView(PlayerType) : PlayerView</text></g><!--class StartController--><g id="elem_StartController"><rect codeLine="73" fill="#F1F1F1" height="48" id="StartController" rx="2.5" ry="2.5" style="stroke:#181818;stroke-width:0.5;" width="194" x="1845.5" y="809"/><ellipse cx="1860.5" cy="825" fill="#ADD1B2" rx="11" ry="11" style="stroke:#181818;stroke-width:1.0;"/><path d="M1863.2656,820.875 Q1863.4219,820.6563 1863.6094,820.5469 Q1863.7969,820.4375 1864.0156,820.4375 Q1864.3906,820.4375 1864.625,820.7031 Q1864.8594,820.9531 1864.8594,821.5625 L1864.8594,823.0156 Q1864.8594,823.625 1864.625,823.8906 Q1864.3906,824.1563 1864.0156,824.1563 Q1863.6719,824.1563 1863.4688,823.9531 Q1863.2656,823.7656 1863.1563,823.25 Q1863.1094,822.8906 1862.9219,822.7031 Q1862.5938,822.3281 1861.9844,822.1094 Q1861.375,821.8906 1860.75,821.8906 Q1859.9844,821.8906 1859.3438,822.2188 Q1858.7188,822.5469 1858.2188,823.2969 Q1857.7344,824.0469 1857.7344,825.0781 L1857.7344,826.1719 Q1857.7344,827.4063 1858.625,828.2344 Q1859.5156,829.0469 1861.1094,829.0469 Q1862.0469,829.0469 1862.7031,828.7969 Q1863.0938,828.6406 1863.5156,828.2031 Q1863.7813,827.9375 1863.9219,827.8594 Q1864.0781,827.7813 1864.2813,827.7813 Q1864.6094,827.7813 1864.8594,828.0469 Q1865.125,828.2969 1865.125,828.6406 Q1865.125,828.9844 1864.7813,829.3906 Q1864.2813,829.9688 1863.4844,830.2969 Q1862.4063,830.75 1861.1094,830.75 Q1859.5938,830.75 1858.3906,830.125 Q1857.4063,829.625 1856.7188,828.5625 Q1856.0313,827.4844 1856.0313,826.2031 L1856.0313,825.0469 Q1856.0313,823.7188 1856.6406,822.5781 Q1857.2656,821.4219 1858.3594,820.8125 Q1859.4531,820.1875 1860.6875,820.1875 Q1861.4219,820.1875 1862.0625,820.3594 Q1862.7188,820.5156 1863.2656,820.875 Z " fill="#000000"/><text fill="#000000" font-family="sans-serif" font-size="14" lengthAdjust="spacing" textLength="162" x="1874.5" y="830.7285">controllers.StartController</text><line style="stroke:#181818;stroke-width:0.5;" x1="1846.5" x2="2038.5" y1="841" y2="841"/><line style="stroke:#181818;stroke-width:0.5;" x1="1846.5" x2="2038.5" y1="849" y2="849"/></g><!--class PlayController--><g id="elem_PlayController"><rect codeLine="74" fill="#F1F1F1" height="48" id="PlayController" rx="2.5" ry="2.5" style="stroke:#181818;stroke-width:0.5;" width="191" x="7" y="642.5"/><ellipse cx="22" cy="658.5" fill="#ADD1B2" rx="11" ry="11" style="stroke:#181818;stroke-width:1.0;"/><path d="M24.7656,654.375 Q24.9219,654.1563 25.1094,654.0469 Q25.2969,653.9375 25.5156,653.9375 Q25.8906,653.9375 26.125,654.2031 Q26.3594,654.4531 26.3594,655.0625 L26.3594,656.5156 Q26.3594,657.125 26.125,657.3906 Q25.8906,657.6563 25.5156,657.6563 Q25.1719,657.6563 24.9688,657.4531 Q24.7656,657.2656 24.6563,656.75 Q24.6094,656.3906 24.4219,656.2031 Q24.0938,655.8281 23.4844,655.6094 Q22.875,655.3906 22.25,655.3906 Q21.4844,655.3906 20.8438,655.7188 Q20.2188,656.0469 19.7188,656.7969 Q19.2344,657.5469 19.2344,658.5781 L19.2344,659.6719 Q19.2344,660.9063 20.125,661.7344 Q21.0156,662.5469 22.6094,662.5469 Q23.5469,662.5469 24.2031,662.2969 Q24.5938,662.1406 25.0156,661.7031 Q25.2813,661.4375 25.4219,661.3594 Q25.5781,661.2813 25.7813,661.2813 Q26.1094,661.2813 26.3594,661.5469 Q26.625,661.7969 26.625,662.1406 Q26.625,662.4844 26.2813,662.8906 Q25.7813,663.4688 24.9844,663.7969 Q23.9063,664.25 22.6094,664.25 Q21.0938,664.25 19.8906,663.625 Q18.9063,663.125 18.2188,662.0625 Q17.5313,660.9844 17.5313,659.7031 L17.5313,658.5469 Q17.5313,657.2188 18.1406,656.0781 Q18.7656,654.9219 19.8594,654.3125 Q20.9531,653.6875 22.1875,653.6875 Q22.9219,653.6875 23.5625,653.8594 Q24.2188,654.0156 24.7656,654.375 Z " fill="#000000"/><text fill="#000000" font-family="sans-serif" font-size="14" lengthAdjust="spacing" textLength="159" x="36" y="664.2285">controllers.PlayController</text><line style="stroke:#181818;stroke-width:0.5;" x1="8" x2="197" y1="674.5" y2="674.5"/><line style="stroke:#181818;stroke-width:0.5;" x1="8" x2="197" y1="682.5" y2="682.5"/></g><!--class ResumeController--><g id="elem_ResumeController"><rect codeLine="75" fill="#F1F1F1" height="48" id="ResumeController" rx="2.5" ry="2.5" style="stroke:#181818;stroke-width:0.5;" width="216" x="418.5" y="481.5"/><ellipse cx="433.5" cy="497.5" fill="#ADD1B2" rx="11" ry="11" style="stroke:#181818;stroke-width:1.0;"/><path d="M436.2656,493.375 Q436.4219,493.1563 436.6094,493.0469 Q436.7969,492.9375 437.0156,492.9375 Q437.3906,492.9375 437.625,493.2031 Q437.8594,493.4531 437.8594,494.0625 L437.8594,495.5156 Q437.8594,496.125 437.625,496.3906 Q437.3906,496.6563 437.0156,496.6563 Q436.6719,496.6563 436.4688,496.4531 Q436.2656,496.2656 436.1563,495.75 Q436.1094,495.3906 435.9219,495.2031 Q435.5938,494.8281 434.9844,494.6094 Q434.375,494.3906 433.75,494.3906 Q432.9844,494.3906 432.3438,494.7188 Q431.7188,495.0469 431.2188,495.7969 Q430.7344,496.5469 430.7344,497.5781 L430.7344,498.6719 Q430.7344,499.9063 431.625,500.7344 Q432.5156,501.5469 434.1094,501.5469 Q435.0469,501.5469 435.7031,501.2969 Q436.0938,501.1406 436.5156,500.7031 Q436.7813,500.4375 436.9219,500.3594 Q437.0781,500.2813 437.2813,500.2813 Q437.6094,500.2813 437.8594,500.5469 Q438.125,500.7969 438.125,501.1406 Q438.125,501.4844 437.7813,501.8906 Q437.2813,502.4688 436.4844,502.7969 Q435.4063,503.25 434.1094,503.25 Q432.5938,503.25 431.3906,502.625 Q430.4063,502.125 429.7188,501.0625 Q429.0313,499.9844 429.0313,498.7031 L429.0313,497.5469 Q429.0313,496.2188 429.6406,495.0781 Q430.2656,493.9219 431.3594,493.3125 Q432.4531,492.6875 433.6875,492.6875 Q434.4219,492.6875 435.0625,492.8594 Q435.7188,493.0156 436.2656,493.375 Z " fill="#000000"/><text fill="#000000" font-family="sans-serif" font-size="14" lengthAdjust="spacing" textLength="184" x="447.5" y="503.2285">controllers.ResumeController</text><line style="stroke:#181818;stroke-width:0.5;" x1="419.5" x2="633.5" y1="513.5" y2="513.5"/><line style="stroke:#181818;stroke-width:0.5;" x1="419.5" x2="633.5" y1="521.5" y2="521.5"/></g><!--class View--><g id="elem_View"><rect codeLine="77" fill="#F1F1F1" height="153.6563" id="View" rx="2.5" ry="2.5" style="stroke:#181818;stroke-width:0.5;" width="197" x="919" y="7"/><ellipse cx="998.75" cy="23" fill="#B4A7E5" rx="11" ry="11" style="stroke:#181818;stroke-width:1.0;"/><path d="M999.7031,19.6406 L999.7031,26.2969 L1001.4219,26.2969 Q1002.0313,26.2969 1002.2969,26.5313 Q1002.5625,26.7656 1002.5625,27.1563 Q1002.5625,27.5313 1002.2969,27.7656 Q1002.0313,28 1001.4219,28 L996.2813,28 Q995.6719,28 995.4063,27.7656 Q995.1406,27.5313 995.1406,27.1406 Q995.1406,26.7656 995.4063,26.5313 Q995.6719,26.2969 996.2813,26.2969 L998,26.2969 L998,19.6406 L996.2813,19.6406 Q995.6719,19.6406 995.4063,19.4063 Q995.1406,19.1719 995.1406,18.7813 Q995.1406,18.4063 995.4063,18.1719 Q995.6719,17.9375 996.2813,17.9375 L1001.4219,17.9375 Q1002.0313,17.9375 1002.2969,18.1719 Q1002.5625,18.4063 1002.5625,18.7813 Q1002.5625,19.1719 1002.2969,19.4063 Q1002.0313,19.6406 1001.4219,19.6406 L999.7031,19.6406 Z " fill="#000000"/><text fill="#000000" font-family="sans-serif" font-size="14" font-style="italic" lengthAdjust="spacing" textLength="29" x="1019.25" y="28.7285">View</text><line style="stroke:#181818;stroke-width:0.5;" x1="920" x2="1115" y1="39" y2="39"/><line style="stroke:#181818;stroke-width:0.5;" x1="920" x2="1115" y1="47" y2="47"/><ellipse cx="930" cy="61.3047" fill="#84BE84" rx="3" ry="3" style="stroke:#038048;stroke-width:1.0;"/><text fill="#000000" font-family="sans-serif" font-size="14" lengthAdjust="spacing" textLength="130" x="939" y="65.5332">start(StartController)</text><ellipse cx="930" cy="78.9141" fill="#84BE84" rx="3" ry="3" style="stroke:#038048;stroke-width:1.0;"/><text fill="#000000" font-family="sans-serif" font-size="14" lengthAdjust="spacing" textLength="130" x="939" y="83.1426">play(Playcoontroller)</text><ellipse cx="930" cy="96.5234" fill="#84BE84" rx="3" ry="3" style="stroke:#038048;stroke-width:1.0;"/><text fill="#000000" font-family="sans-serif" font-size="14" lengthAdjust="spacing" textLength="171" x="939" y="100.752">resume(ResumeController)</text><ellipse cx="930" cy="114.1328" fill="#84BE84" rx="3" ry="3" style="stroke:#038048;stroke-width:1.0;"/><text fill="#000000" font-family="sans-serif" font-size="14" lengthAdjust="spacing" textLength="126" x="939" y="118.3613">visit(StartController)</text><ellipse cx="930" cy="131.7422" fill="#84BE84" rx="3" ry="3" style="stroke:#038048;stroke-width:1.0;"/><text fill="#000000" font-family="sans-serif" font-size="14" lengthAdjust="spacing" textLength="123" x="939" y="135.9707">visit(PlayController)</text><ellipse cx="930" cy="149.3516" fill="#84BE84" rx="3" ry="3" style="stroke:#038048;stroke-width:1.0;"/><text fill="#000000" font-family="sans-serif" font-size="14" lengthAdjust="spacing" textLength="148" x="939" y="153.5801">visit(ResumeController)</text></g><!--class Option--><g id="elem_Option"><rect codeLine="123" fill="#F1F1F1" height="48" id="Option" rx="2.5" ry="2.5" style="stroke:#181818;stroke-width:0.5;" width="204" x="233.5" y="642.5"/><ellipse cx="248.5" cy="658.5" fill="#ADD1B2" rx="11" ry="11" style="stroke:#181818;stroke-width:1.0;"/><path d="M251.2656,654.375 Q251.4219,654.1563 251.6094,654.0469 Q251.7969,653.9375 252.0156,653.9375 Q252.3906,653.9375 252.625,654.2031 Q252.8594,654.4531 252.8594,655.0625 L252.8594,656.5156 Q252.8594,657.125 252.625,657.3906 Q252.3906,657.6563 252.0156,657.6563 Q251.6719,657.6563 251.4688,657.4531 Q251.2656,657.2656 251.1563,656.75 Q251.1094,656.3906 250.9219,656.2031 Q250.5938,655.8281 249.9844,655.6094 Q249.375,655.3906 248.75,655.3906 Q247.9844,655.3906 247.3438,655.7188 Q246.7188,656.0469 246.2188,656.7969 Q245.7344,657.5469 245.7344,658.5781 L245.7344,659.6719 Q245.7344,660.9063 246.625,661.7344 Q247.5156,662.5469 249.1094,662.5469 Q250.0469,662.5469 250.7031,662.2969 Q251.0938,662.1406 251.5156,661.7031 Q251.7813,661.4375 251.9219,661.3594 Q252.0781,661.2813 252.2813,661.2813 Q252.6094,661.2813 252.8594,661.5469 Q253.125,661.7969 253.125,662.1406 Q253.125,662.4844 252.7813,662.8906 Q252.2813,663.4688 251.4844,663.7969 Q250.4063,664.25 249.1094,664.25 Q247.5938,664.25 246.3906,663.625 Q245.4063,663.125 244.7188,662.0625 Q244.0313,660.9844 244.0313,659.7031 L244.0313,658.5469 Q244.0313,657.2188 244.6406,656.0781 Q245.2656,654.9219 246.3594,654.3125 Q247.4531,653.6875 248.6875,653.6875 Q249.4219,653.6875 250.0625,653.8594 Q250.7188,654.0156 251.2656,654.375 Z " fill="#000000"/><text fill="#000000" font-family="sans-serif" font-size="14" lengthAdjust="spacing" textLength="172" x="262.5" y="664.2285">connect4.utils.menu.Option</text><line style="stroke:#181818;stroke-width:0.5;" x1="234.5" x2="436.5" y1="674.5" y2="674.5"/><line style="stroke:#181818;stroke-width:0.5;" x1="234.5" x2="436.5" y1="682.5" y2="682.5"/></g><!--class SecuentialMenu--><g id="elem_SecuentialMenu"><rect codeLine="124" fill="#F1F1F1" height="48" id="SecuentialMenu" rx="2.5" ry="2.5" style="stroke:#181818;stroke-width:0.5;" width="263" x="1655" y="481.5"/><ellipse cx="1670" cy="497.5" fill="#ADD1B2" rx="11" ry="11" style="stroke:#181818;stroke-width:1.0;"/><path d="M1672.7656,493.375 Q1672.9219,493.1563 1673.1094,493.0469 Q1673.2969,492.9375 1673.5156,492.9375 Q1673.8906,492.9375 1674.125,493.2031 Q1674.3594,493.4531 1674.3594,494.0625 L1674.3594,495.5156 Q1674.3594,496.125 1674.125,496.3906 Q1673.8906,496.6563 1673.5156,496.6563 Q1673.1719,496.6563 1672.9688,496.4531 Q1672.7656,496.2656 1672.6563,495.75 Q1672.6094,495.3906 1672.4219,495.2031 Q1672.0938,494.8281 1671.4844,494.6094 Q1670.875,494.3906 1670.25,494.3906 Q1669.4844,494.3906 1668.8438,494.7188 Q1668.2188,495.0469 1667.7188,495.7969 Q1667.2344,496.5469 1667.2344,497.5781 L1667.2344,498.6719 Q1667.2344,499.9063 1668.125,500.7344 Q1669.0156,501.5469 1670.6094,501.5469 Q1671.5469,501.5469 1672.2031,501.2969 Q1672.5938,501.1406 1673.0156,500.7031 Q1673.2813,500.4375 1673.4219,500.3594 Q1673.5781,500.2813 1673.7813,500.2813 Q1674.1094,500.2813 1674.3594,500.5469 Q1674.625,500.7969 1674.625,501.1406 Q1674.625,501.4844 1674.2813,501.8906 Q1673.7813,502.4688 1672.9844,502.7969 Q1671.9063,503.25 1670.6094,503.25 Q1669.0938,503.25 1667.8906,502.625 Q1666.9063,502.125 1666.2188,501.0625 Q1665.5313,499.9844 1665.5313,498.7031 L1665.5313,497.5469 Q1665.5313,496.2188 1666.1406,495.0781 Q1666.7656,493.9219 1667.8594,493.3125 Q1668.9531,492.6875 1670.1875,492.6875 Q1670.9219,492.6875 1671.5625,492.8594 Q1672.2188,493.0156 1672.7656,493.375 Z " fill="#000000"/><text fill="#000000" font-family="sans-serif" font-size="14" lengthAdjust="spacing" textLength="231" x="1684" y="503.2285">connect4.utils.menu.SecuentialMenu</text><line style="stroke:#181818;stroke-width:0.5;" x1="1656" x2="1917" y1="513.5" y2="513.5"/><line style="stroke:#181818;stroke-width:0.5;" x1="1656" x2="1917" y1="521.5" y2="521.5"/></g><!--class Coordinate--><g id="elem_Coordinate"><rect codeLine="125" fill="#F1F1F1" height="48" id="Coordinate" rx="2.5" ry="2.5" style="stroke:#181818;stroke-width:0.5;" width="194" x="472.5" y="642.5"/><ellipse cx="487.5" cy="658.5" fill="#ADD1B2" rx="11" ry="11" style="stroke:#181818;stroke-width:1.0;"/><path d="M490.2656,654.375 Q490.4219,654.1563 490.6094,654.0469 Q490.7969,653.9375 491.0156,653.9375 Q491.3906,653.9375 491.625,654.2031 Q491.8594,654.4531 491.8594,655.0625 L491.8594,656.5156 Q491.8594,657.125 491.625,657.3906 Q491.3906,657.6563 491.0156,657.6563 Q490.6719,657.6563 490.4688,657.4531 Q490.2656,657.2656 490.1563,656.75 Q490.1094,656.3906 489.9219,656.2031 Q489.5938,655.8281 488.9844,655.6094 Q488.375,655.3906 487.75,655.3906 Q486.9844,655.3906 486.3438,655.7188 Q485.7188,656.0469 485.2188,656.7969 Q484.7344,657.5469 484.7344,658.5781 L484.7344,659.6719 Q484.7344,660.9063 485.625,661.7344 Q486.5156,662.5469 488.1094,662.5469 Q489.0469,662.5469 489.7031,662.2969 Q490.0938,662.1406 490.5156,661.7031 Q490.7813,661.4375 490.9219,661.3594 Q491.0781,661.2813 491.2813,661.2813 Q491.6094,661.2813 491.8594,661.5469 Q492.125,661.7969 492.125,662.1406 Q492.125,662.4844 491.7813,662.8906 Q491.2813,663.4688 490.4844,663.7969 Q489.4063,664.25 488.1094,664.25 Q486.5938,664.25 485.3906,663.625 Q484.4063,663.125 483.7188,662.0625 Q483.0313,660.9844 483.0313,659.7031 L483.0313,658.5469 Q483.0313,657.2188 483.6406,656.0781 Q484.2656,654.9219 485.3594,654.3125 Q486.4531,653.6875 487.6875,653.6875 Q488.4219,653.6875 489.0625,653.8594 Q489.7188,654.0156 490.2656,654.375 Z " fill="#000000"/><text fill="#000000" font-family="sans-serif" font-size="14" lengthAdjust="spacing" textLength="162" x="501.5" y="664.2285">connect4.Utils.Coordinate</text><line style="stroke:#181818;stroke-width:0.5;" x1="473.5" x2="665.5" y1="674.5" y2="674.5"/><line style="stroke:#181818;stroke-width:0.5;" x1="473.5" x2="665.5" y1="682.5" y2="682.5"/></g><!--class Console--><g id="elem_Console"><rect codeLine="126" fill="#F1F1F1" height="48" id="Console" rx="2.5" ry="2.5" style="stroke:#181818;stroke-width:0.5;" width="175" x="1151" y="60"/><ellipse cx="1166" cy="76" fill="#ADD1B2" rx="11" ry="11" style="stroke:#181818;stroke-width:1.0;"/><path d="M1168.7656,71.875 Q1168.9219,71.6563 1169.1094,71.5469 Q1169.2969,71.4375 1169.5156,71.4375 Q1169.8906,71.4375 1170.125,71.7031 Q1170.3594,71.9531 1170.3594,72.5625 L1170.3594,74.0156 Q1170.3594,74.625 1170.125,74.8906 Q1169.8906,75.1563 1169.5156,75.1563 Q1169.1719,75.1563 1168.9688,74.9531 Q1168.7656,74.7656 1168.6563,74.25 Q1168.6094,73.8906 1168.4219,73.7031 Q1168.0938,73.3281 1167.4844,73.1094 Q1166.875,72.8906 1166.25,72.8906 Q1165.4844,72.8906 1164.8438,73.2188 Q1164.2188,73.5469 1163.7188,74.2969 Q1163.2344,75.0469 1163.2344,76.0781 L1163.2344,77.1719 Q1163.2344,78.4063 1164.125,79.2344 Q1165.0156,80.0469 1166.6094,80.0469 Q1167.5469,80.0469 1168.2031,79.7969 Q1168.5938,79.6406 1169.0156,79.2031 Q1169.2813,78.9375 1169.4219,78.8594 Q1169.5781,78.7813 1169.7813,78.7813 Q1170.1094,78.7813 1170.3594,79.0469 Q1170.625,79.2969 1170.625,79.6406 Q1170.625,79.9844 1170.2813,80.3906 Q1169.7813,80.9688 1168.9844,81.2969 Q1167.9063,81.75 1166.6094,81.75 Q1165.0938,81.75 1163.8906,81.125 Q1162.9063,80.625 1162.2188,79.5625 Q1161.5313,78.4844 1161.5313,77.2031 L1161.5313,76.0469 Q1161.5313,74.7188 1162.1406,73.5781 Q1162.7656,72.4219 1163.8594,71.8125 Q1164.9531,71.1875 1166.1875,71.1875 Q1166.9219,71.1875 1167.5625,71.3594 Q1168.2188,71.5156 1168.7656,71.875 Z " fill="#000000"/><text fill="#000000" font-family="sans-serif" font-size="14" lengthAdjust="spacing" textLength="143" x="1180" y="81.7285">connect4.utils.Console</text><line style="stroke:#181818;stroke-width:0.5;" x1="1152" x2="1325" y1="92" y2="92"/><line style="stroke:#181818;stroke-width:0.5;" x1="1152" x2="1325" y1="100" y2="100"/></g><!--class Player--><g id="elem_Player"><rect codeLine="127" fill="#F1F1F1" height="61.2188" id="Player" rx="2.5" ry="2.5" style="stroke:#181818;stroke-width:0.5;" width="156" x="1654.5" y="1235"/><ellipse cx="1669.5" cy="1257.6094" fill="#ADD1B2" rx="11" ry="11" style="stroke:#181818;stroke-width:1.0;"/><path d="M1672.2656,1253.4844 Q1672.4219,1253.2656 1672.6094,1253.1563 Q1672.7969,1253.0469 1673.0156,1253.0469 Q1673.3906,1253.0469 1673.625,1253.3125 Q1673.8594,1253.5625 1673.8594,1254.1719 L1673.8594,1255.625 Q1673.8594,1256.2344 1673.625,1256.5 Q1673.3906,1256.7656 1673.0156,1256.7656 Q1672.6719,1256.7656 1672.4688,1256.5625 Q1672.2656,1256.375 1672.1563,1255.8594 Q1672.1094,1255.5 1671.9219,1255.3125 Q1671.5938,1254.9375 1670.9844,1254.7188 Q1670.375,1254.5 1669.75,1254.5 Q1668.9844,1254.5 1668.3438,1254.8281 Q1667.7188,1255.1563 1667.2188,1255.9063 Q1666.7344,1256.6563 1666.7344,1257.6875 L1666.7344,1258.7813 Q1666.7344,1260.0156 1667.625,1260.8438 Q1668.5156,1261.6563 1670.1094,1261.6563 Q1671.0469,1261.6563 1671.7031,1261.4063 Q1672.0938,1261.25 1672.5156,1260.8125 Q1672.7813,1260.5469 1672.9219,1260.4688 Q1673.0781,1260.3906 1673.2813,1260.3906 Q1673.6094,1260.3906 1673.8594,1260.6563 Q1674.125,1260.9063 1674.125,1261.25 Q1674.125,1261.5938 1673.7813,1262 Q1673.2813,1262.5781 1672.4844,1262.9063 Q1671.4063,1263.3594 1670.1094,1263.3594 Q1668.5938,1263.3594 1667.3906,1262.7344 Q1666.4063,1262.2344 1665.7188,1261.1719 Q1665.0313,1260.0938 1665.0313,1258.8125 L1665.0313,1257.6563 Q1665.0313,1256.3281 1665.6406,1255.1875 Q1666.2656,1254.0313 1667.3594,1253.4219 Q1668.4531,1252.7969 1669.6875,1252.7969 Q1670.4219,1252.7969 1671.0625,1252.9688 Q1671.7188,1253.125 1672.2656,1253.4844 Z " fill="#000000"/><text fill="#000000" font-family="sans-serif" font-size="14" lengthAdjust="spacing" textLength="124" x="1683.5" y="1254.5332">connect4.connect4.</text><text fill="#000000" font-family="sans-serif" font-size="14" lengthAdjust="spacing" textLength="89" x="1701" y="1272.1426">models.Player</text><line style="stroke:#181818;stroke-width:0.5;" x1="1655.5" x2="1809.5" y1="1280.2188" y2="1280.2188"/><line style="stroke:#181818;stroke-width:0.5;" x1="1655.5" x2="1809.5" y1="1288.2188" y2="1288.2188"/></g><!--class PlayerType--><g id="elem_PlayerType"><rect codeLine="128" fill="#F1F1F1" height="61.2188" id="PlayerType" rx="2.5" ry="2.5" style="stroke:#181818;stroke-width:0.5;" width="156" x="1654.5" y="802.5"/><ellipse cx="1669.5" cy="825.1094" fill="#EB937F" rx="11" ry="11" style="stroke:#181818;stroke-width:1.0;"/><path d="M1668.3594,825.9063 L1668.3594,828.4063 L1672.6875,828.4063 L1672.6875,827.4844 Q1672.6875,826.875 1672.9219,826.6094 Q1673.1719,826.3438 1673.5469,826.3438 Q1673.9219,826.3438 1674.1563,826.6094 Q1674.3906,826.875 1674.3906,827.4844 L1674.3906,830.1094 L1666.3906,830.1094 Q1665.7656,830.1094 1665.5,829.875 Q1665.25,829.6406 1665.25,829.25 Q1665.25,828.875 1665.5156,828.6406 Q1665.7813,828.4063 1666.3906,828.4063 L1666.6563,828.4063 L1666.6563,821.75 L1666.3906,821.75 Q1665.7656,821.75 1665.5,821.5156 Q1665.25,821.2813 1665.25,820.8906 Q1665.25,820.5156 1665.5,820.2813 Q1665.7656,820.0469 1666.3906,820.0469 L1674.0156,820.0469 L1674.0156,822.6406 Q1674.0156,823.25 1673.7813,823.5156 Q1673.5625,823.7656 1673.1719,823.7656 Q1672.7969,823.7656 1672.5625,823.5156 Q1672.3281,823.25 1672.3281,822.6406 L1672.3281,821.75 L1668.3594,821.75 L1668.3594,824.2031 L1669.8438,824.2031 Q1669.8438,823.5469 1669.9688,823.3594 Q1670.2344,822.9531 1670.7031,822.9531 Q1671.0781,822.9531 1671.3125,823.2188 Q1671.5469,823.4688 1671.5469,824.0781 L1671.5469,826.0469 Q1671.5469,826.5938 1671.4219,826.7813 Q1671.1563,827.1719 1670.7031,827.1719 Q1670.2344,827.1719 1669.9688,826.7656 Q1669.8438,826.5781 1669.8438,825.9063 L1668.3594,825.9063 Z " fill="#000000"/><text fill="#000000" font-family="sans-serif" font-size="14" lengthAdjust="spacing" textLength="124" x="1683.5" y="822.0332">connect4.connect4.</text><text fill="#000000" font-family="sans-serif" font-size="14" lengthAdjust="spacing" textLength="110" x="1690.5" y="839.6426">types.PlayerType</text><line style="stroke:#181818;stroke-width:0.5;" x1="1655.5" x2="1809.5" y1="847.7188" y2="847.7188"/><line style="stroke:#181818;stroke-width:0.5;" x1="1655.5" x2="1809.5" y1="855.7188" y2="855.7188"/></g><!--reverse link View to Consoleview--><g id="link_View_Consoleview"><path codeLine="86" d="M1017.5,179.24 C1017.5,200.92 1017.5,204.92 1017.5,220.78 " fill="none" id="View-backto-Consoleview" style="stroke:#181818;stroke-width:1.0;"/><polygon fill="none" points="1017.5,161.24,1011.5,179.24,1023.5,179.24,1017.5,161.24" style="stroke:#181818;stroke-width:1.0;"/></g><!--link Consoleview to StartView--><g id="link_Consoleview_StartView"><path codeLine="87" d="M1070.0527,274.9165 C1101.2827,292.1065 1128.5033,307.0775 1163.0333,326.0775 " fill="none" id="Consoleview-StartView" style="stroke:#181818;stroke-width:1.0;"/><polygon fill="#181818" points="1059.54,269.13,1062.8675,275.5275,1070.0527,274.9165,1066.7252,268.519,1059.54,269.13" style="stroke:#181818;stroke-width:1.0;"/><polygon fill="#181818" points="1168.29,328.97,1162.3332,321.1267,1163.9094,326.5596,1158.4765,328.1357,1168.29,328.97" style="stroke:#181818;stroke-width:1.0;"/></g><!--link Consoleview to PlayView--><g id="link_Consoleview_PlayView"><path codeLine="88" d="M1017.5,281.27 C1017.5,298.34 1017.5,303.72 1017.5,322.61 " fill="none" id="Consoleview-PlayView" style="stroke:#181818;stroke-width:1.0;"/><polygon fill="#181818" points="1017.5,269.27,1013.5,275.27,1017.5,281.27,1021.5,275.27,1017.5,269.27" style="stroke:#181818;stroke-width:1.0;"/><polygon fill="#181818" points="1017.5,328.61,1021.5,319.61,1017.5,323.61,1013.5,319.61,1017.5,328.61" style="stroke:#181818;stroke-width:1.0;"/></g><!--link Consoleview to ResumeView--><g id="link_Consoleview_ResumeView"><path codeLine="89" d="M962.6064,274.6911 C929.7364,291.8811 900.4374,307.1906 864.0874,326.1906 " fill="none" id="Consoleview-ResumeView" style="stroke:#181818;stroke-width:1.0;"/><polygon fill="#181818" points="973.24,269.13,966.0695,268.366,962.6064,274.6911,969.7769,275.4551,973.24,269.13" style="stroke:#181818;stroke-width:1.0;"/><polygon fill="#181818" points="858.77,328.97,868.5991,328.3459,863.2012,326.6538,864.8932,321.256,858.77,328.97" style="stroke:#181818;stroke-width:1.0;"/></g><!--link StartView to StartController--><g id="link_StartView_StartController"><path codeLine="91" d="M1314.25,368.06 C1494.83,379.37 1894.62,409.34 1935.5,455 C2026.76,556.94 1975.6336,738.0404 1953.0736,803.1804 " fill="none" id="StartView-to-StartController" style="stroke:#181818;stroke-width:1.0;stroke-dasharray:7.0,7.0;"/><polygon fill="#181818" points="1951.11,808.85,1957.8351,801.6546,1952.7463,804.1253,1950.2756,799.0366,1951.11,808.85" style="stroke:#181818;stroke-width:1.0;"/></g><!--link PlayView to PlayController--><g id="link_PlayView_PlayController"><path codeLine="92" d="M931.35,389.6 C845.39,416.2 725.72,453.39 723.5,455 C678.87,487.36 698.67,527.46 651.5,556 C484.14,657.26 403.76,562.92 215.5,616 C192.31,622.54 173.1107,630.3389 152.7807,639.8889 " fill="none" id="PlayView-to-PlayController" style="stroke:#181818;stroke-width:1.0;stroke-dasharray:7.0,7.0;"/><polygon fill="#181818" points="147.35,642.44,157.1967,642.2339,151.8756,640.3141,153.7953,634.993,147.35,642.44" style="stroke:#181818;stroke-width:1.0;"/></g><!--link ResumeView to ResumeController--><g id="link_ResumeView_ResumeController"><path codeLine="93" d="M736.01,395.11 C685.72,421.36 621.1386,455.0829 576.1886,478.5529 " fill="none" id="ResumeView-to-ResumeController" style="stroke:#181818;stroke-width:1.0;stroke-dasharray:7.0,7.0;"/><polygon fill="#181818" points="570.87,481.33,580.6993,480.7102,575.3022,479.0158,576.9966,473.6187,570.87,481.33" style="stroke:#181818;stroke-width:1.0;"/></g><!--link StartView to TurnView--><g id="link_StartView_TurnView"><path codeLine="95" d="M1213.57,395.11 C1206.47,412.72 1199.7619,429.3746 1191.7819,449.1846 " fill="none" id="StartView-to-TurnView" style="stroke:#181818;stroke-width:1.0;stroke-dasharray:7.0,7.0;"/><polygon fill="#181818" points="1189.54,454.75,1196.6131,447.8965,1191.4083,450.1122,1189.1926,444.9073,1189.54,454.75" style="stroke:#181818;stroke-width:1.0;"/></g><!--link PlayView to TurnView--><g id="link_PlayView_TurnView"><path codeLine="97" d="M1051.99,395.11 C1070.91,412.72 1090.3884,430.8518 1111.6684,450.6618 " fill="none" id="PlayView-to-TurnView" style="stroke:#181818;stroke-width:1.0;stroke-dasharray:7.0,7.0;"/><polygon fill="#181818" points="1116.06,454.75,1112.1981,445.6899,1112.4003,451.3431,1106.7471,451.5454,1116.06,454.75" style="stroke:#181818;stroke-width:1.0;"/></g><!--link PlayView to BoardView--><g id="link_PlayView_BoardView"><path codeLine="98" d="M1002.75,395.11 C993.39,415.49 983.6952,436.598 973.6552,458.448 " fill="none" id="PlayView-to-BoardView" style="stroke:#181818;stroke-width:1.0;stroke-dasharray:7.0,7.0;"/><polygon fill="#181818" points="971.15,463.9,978.5424,457.3921,973.2376,459.3567,971.2731,454.0519,971.15,463.9" style="stroke:#181818;stroke-width:1.0;"/></g><!--link ResumeView to YesNoDialog--><g id="link_ResumeView_YesNoDialog"><path codeLine="100" d="M797.5,395.11 C797.5,421.36 797.5,451.86 797.5,475.33 " fill="none" id="ResumeView-to-YesNoDialog" style="stroke:#181818;stroke-width:1.0;stroke-dasharray:7.0,7.0;"/><polygon fill="#181818" points="797.5,481.33,801.5,472.33,797.5,476.33,793.5,472.33,797.5,481.33" style="stroke:#181818;stroke-width:1.0;"/></g><!--link TurnView to PlayerView--><g id="link_TurnView_PlayerView"><path codeLine="102" d="M1063.28,545.79 C1012.5,566.94 959.68,593.28 945.5,616 C921.73,654.08 934.9,673.38 945.5,717 C952.59,746.17 964.87,749.33 976.5,777 C996.82,825.33 973.33,855.31 1013.5,889 C1155.96,1008.47 1251.15,890.11 1427.5,949 C1433.07,950.86 1433.1589,950.6848 1438.7489,953.0348 " fill="none" id="TurnView-to-PlayerView" style="stroke:#181818;stroke-width:1.0;stroke-dasharray:7.0,7.0;"/><polygon fill="#181818" points="1444.28,955.36,1437.5335,948.1847,1439.6707,953.4223,1434.4332,955.5595,1444.28,955.36" style="stroke:#181818;stroke-width:1.0;"/></g><!--link TurnView to StartController--><g id="link_TurnView_StartController"><path codeLine="103" d="M1275.51,519.16 C1373.33,533.6 1520.95,562.47 1639.5,616 C1753.43,667.44 1863.7801,760.5064 1913.0501,804.8464 " fill="none" id="TurnView-to-StartController" style="stroke:#181818;stroke-width:1.0;stroke-dasharray:7.0,7.0;"/><polygon fill="#181818" points="1917.51,808.86,1913.4959,799.8663,1913.7934,805.5153,1908.1444,805.8128,1917.51,808.86" style="stroke:#181818;stroke-width:1.0;"/></g><!--link TurnView to PlayController--><g id="link_TurnView_PlayController"><path codeLine="104" d="M1063.41,548.25 C1053.4,551.24 1043.33,553.89 1033.5,556 C677.06,632.4 569.32,528.27 215.5,616 C191.59,621.93 171.768,629.9213 151.228,639.7913 " fill="none" id="TurnView-to-PlayController" style="stroke:#181818;stroke-width:1.0;stroke-dasharray:7.0,7.0;"/><polygon fill="#181818" points="145.82,642.39,155.6645,642.0973,150.3267,640.2244,152.1996,634.8866,145.82,642.39" style="stroke:#181818;stroke-width:1.0;"/></g><!--link TurnView to TurnMenu--><g id="link_TurnView_TurnMenu"><path codeLine="105" d="M1275.66,555.29 C1317.98,574.73 1361.138,594.5648 1403.488,614.0248 " fill="none" id="TurnView-to-TurnMenu" style="stroke:#181818;stroke-width:1.0;stroke-dasharray:7.0,7.0;"/><polygon fill="#181818" points="1408.94,616.53,1402.4322,609.1376,1404.3967,614.4423,1399.0919,616.4068,1408.94,616.53" style="stroke:#181818;stroke-width:1.0;"/></g><!--reverse link TurnMenu to TurnOption--><g id="link_TurnMenu_TurnOption"><path codeLine="106" d="M1397.3852,715.4808 C1391.5652,717.3508 1397.2,715.43 1391.5,717 C1227.5,762.14 1179.38,739.35 1013.5,777 C985.4,783.38 955.3,791.68 927.72,799.89 " fill="none" id="TurnMenu-backto-TurnOption" style="stroke:#181818;stroke-width:1.0;"/><polygon fill="#181818" points="1408.81,711.81,1401.874,709.8372,1397.3852,715.4808,1404.3212,717.4537,1408.81,711.81" style="stroke:#181818;stroke-width:1.0;"/><text fill="#000000" font-family="sans-serif" font-size="13" lengthAdjust="spacing" textLength="7" x="940.4623" y="788.9827">3</text></g><!--link TurnView to PlayerViewPrototypeDirector--><g id="link_TurnView_PlayerViewPrototypeDirector"><path codeLine="107" d="M1173.26,556.37 C1175.02,579.69 1176.6281,600.987 1178.2481,622.437 " fill="none" id="TurnView-to-PlayerViewPrototypeDirector" style="stroke:#181818;stroke-width:1.0;stroke-dasharray:7.0,7.0;"/><polygon fill="#181818" points="1178.7,628.42,1182.0109,619.1443,1178.3235,623.4342,1174.0336,619.7468,1178.7,628.42" style="stroke:#181818;stroke-width:1.0;"/></g><!--link TurnView to PlayerViewPrototypeRegistry--><g id="link_TurnView_PlayerViewPrototypeRegistry"><path codeLine="108" d="M1063.37,539.99 C1027.77,556.85 991.95,581.32 971.5,616 C948.7,654.67 948.54,678.43 971.5,717 C986.17,741.65 1003.1198,758.1004 1027.4698,773.7204 " fill="none" id="TurnView-to-PlayerViewPrototypeRegistry" style="stroke:#181818;stroke-width:1.0;stroke-dasharray:7.0,7.0;"/><polygon fill="#181818" points="1032.52,776.96,1027.1044,768.7338,1028.3115,774.2603,1022.7849,775.4674,1032.52,776.96" style="stroke:#181818;stroke-width:1.0;"/></g><!--reverse link PlayerView to UserPlayerView--><g id="link_PlayerView_UserPlayerView"><path codeLine="110" d="M1546.4169,1084.9054 C1549.9769,1105.8454 1550.78,1110.54 1553.55,1126.77 " fill="none" id="PlayerView-backto-UserPlayerView" style="stroke:#181818;stroke-width:1.0;"/><polygon fill="none" points="1543.4,1067.16,1540.5018,1085.911,1552.332,1083.8997,1543.4,1067.16" style="stroke:#181818;stroke-width:1.0;"/></g><!--reverse link PlayerView to MachinePlayerView--><g id="link_PlayerView_MachinePlayerView"><path codeLine="111" d="M1456.6969,1079.3183 C1433.8369,1100.2583 1422.6,1110.54 1404.87,1126.77 " fill="none" id="PlayerView-backto-MachinePlayerView" style="stroke:#181818;stroke-width:1.0;"/><polygon fill="none" points="1469.97,1067.16,1452.6441,1074.8939,1460.7497,1083.7427,1469.97,1067.16" style="stroke:#181818;stroke-width:1.0;"/></g><!--reverse link MachinePlayerView to MinMaxMachinePlayerView--><g id="link_MachinePlayerView_MinMaxMachinePlayerView"><path codeLine="112" d="M1403.3409,1190.3221 C1415.4209,1209.7321 1423.11,1222.09 1435.18,1241.49 " fill="none" id="MachinePlayerView-backto-MinMaxMachinePlayerView" style="stroke:#181818;stroke-width:1.0;"/><polygon fill="none" points="1393.83,1175.04,1398.2469,1193.4924,1408.435,1187.1518,1393.83,1175.04" style="stroke:#181818;stroke-width:1.0;"/></g><!--reverse link MachinePlayerView to RandomMachinePlayerView--><g id="link_MachinePlayerView_RandomMachinePlayerView"><path codeLine="113" d="M1329.906,1185.0139 C1300.746,1204.4239 1274.21,1222.09 1245.06,1241.49 " fill="none" id="MachinePlayerView-backto-RandomMachinePlayerView" style="stroke:#181818;stroke-width:1.0;"/><polygon fill="none" points="1344.89,1175.04,1326.5813,1180.0193,1333.2306,1190.0086,1344.89,1175.04" style="stroke:#181818;stroke-width:1.0;"/></g><!--reverse link TurnOption to SetRandomMachinePlayerOption--><g id="link_TurnOption_SetRandomMachinePlayerOption"><path codeLine="115" d="M825.8958,884.1057 C824.2858,915.0857 822.79,943.73 821.18,974.74 " fill="none" id="TurnOption-backto-SetRandomMachinePlayerOption" style="stroke:#181818;stroke-width:1.0;"/><polygon fill="none" points="826.83,866.13,819.9039,883.7943,831.8877,884.4171,826.83,866.13" style="stroke:#181818;stroke-width:1.0;"/></g><!--reverse link TurnOption to SetMinMaxMachinePlayerOption--><g id="link_TurnOption_SetMinMaxMachinePlayerOption"><path codeLine="116" d="M892.5948,875.9967 C939.8648,906.9767 995.95,943.73 1043.28,974.74 " fill="none" id="TurnOption-backto-SetMinMaxMachinePlayerOption" style="stroke:#181818;stroke-width:1.0;"/><polygon fill="none" points="877.54,866.13,889.3059,881.015,895.8837,870.9784,877.54,866.13" style="stroke:#181818;stroke-width:1.0;"/></g><!--reverse link TurnOption to SetUserPlayerOption--><g id="link_TurnOption_SetUserPlayerOption"><path codeLine="117" d="M932.2131,871.946 C954.9431,879.886 962.53,882.15 985.5,889 C1091.69,920.69 1124.77,907.45 1227.5,949 C1244.8,956 1262.73,965.57 1278.55,974.91 " fill="none" id="TurnOption-backto-SetUserPlayerOption" style="stroke:#181818;stroke-width:1.0;"/><polygon fill="none" points="915.22,866.01,930.2344,877.6103,934.1917,866.2816,915.22,866.01" style="stroke:#181818;stroke-width:1.0;"/></g><!--link TurnMenu to StartController--><g id="link_TurnMenu_StartController"><path codeLine="118" d="M1622.03,701.44 C1683.1,721.72 1760.83,748.94 1828.5,777 C1851.74,786.64 1871.6262,795.9912 1892.4462,806.3312 " fill="none" id="TurnMenu-to-StartController" style="stroke:#181818;stroke-width:1.0;"/><polygon fill="#181818" points="1897.82,809,1891.5386,801.4143,1893.3419,806.776,1887.9801,808.5793,1897.82,809" style="stroke:#181818;stroke-width:1.0;"/></g><!--link PlayerViewPrototypeDirector to PlayerViewPrototypeRegistry--><g id="link_PlayerViewPrototypeDirector_PlayerViewPrototypeRegistry"><path codeLine="120" d="M1181.95,704.83 C1182.21,726.06 1182.4664,747.0605 1182.7564,770.7105 " fill="none" id="PlayerViewPrototypeDirector-to-PlayerViewPrototypeRegistry" style="stroke:#181818;stroke-width:1.0;stroke-dasharray:7.0,7.0;"/><polygon fill="#181818" points="1182.83,776.71,1186.7193,767.6616,1182.7687,771.7104,1178.7199,767.7597,1182.83,776.71" style="stroke:#181818;stroke-width:1.0;"/></g><!--reverse link PlayerViewPrototypeRegistry to PlayerView--><g id="link_PlayerViewPrototypeRegistry_PlayerView"><path codeLine="121" d="M1314.8268,894.1104 C1354.4268,912.6604 1387.64,928.72 1427.5,949 C1433.02,951.81 1438.67,954.73 1444.35,957.72 " fill="none" id="PlayerViewPrototypeRegistry-backto-PlayerView" style="stroke:#181818;stroke-width:1.0;"/><polygon fill="none" points="1303.96,889.02,1307.6966,895.1875,1314.8268,894.1104,1311.0902,887.9429,1303.96,889.02" style="stroke:#181818;stroke-width:1.0;"/></g><!--reverse link Option to TurnOption--><g id="link_Option_TurnOption"><path codeLine="131" d="M404.3715,697.5574 C424.9815,706.2974 432.4,709.03 454.5,717 C540.6,748.07 639.68,778.29 714.22,799.95 " fill="none" id="Option-backto-TurnOption" style="stroke:#181818;stroke-width:1.0;"/><polygon fill="none" points="387.8,690.53,402.029,703.0813,406.714,692.0336,387.8,690.53" style="stroke:#181818;stroke-width:1.0;"/></g><!--reverse link SecuentialMenu to TurnMenu--><g id="link_SecuentialMenu_TurnMenu"><path codeLine="132" d="M1731.5652,538.7294 C1693.1852,561.2494 1649.12,587.1 1600,615.92 " fill="none" id="SecuentialMenu-backto-TurnMenu" style="stroke:#181818;stroke-width:1.0;"/><polygon fill="none" points="1747.09,529.62,1728.5287,533.5545,1734.6017,543.9043,1747.09,529.62" style="stroke:#181818;stroke-width:1.0;"/></g><!--link BoardView to PlayController--><g id="link_BoardView_PlayController"><path codeLine="133" d="M892.48,547.2 C885.61,550.63 878.54,553.67 871.5,556 C593.58,648.06 499.02,542.99 215.5,616 C191.75,622.12 172.0543,630.0744 151.5543,639.8644 " fill="none" id="BoardView-to-PlayController" style="stroke:#181818;stroke-width:1.0;"/><polygon fill="#181818" points="146.14,642.45,155.9852,642.181,150.6519,640.2953,152.5377,634.962,146.14,642.45" style="stroke:#181818;stroke-width:1.0;"/></g><!--link BoardView to Coordinate--><g id="link_BoardView_Coordinate"><path codeLine="134" d="M889.17,547.15 C883.29,550.33 877.35,553.33 871.5,556 C791.32,592.58 764.98,584.94 682.5,616 C661.45,623.93 644.138,631.2323 624.578,639.9723 " fill="none" id="BoardView-to-Coordinate" style="stroke:#181818;stroke-width:1.0;stroke-dasharray:7.0,7.0;"/><polygon fill="#181818" points="619.1,642.42,628.9488,642.4004,623.665,640.3802,625.6852,635.0964,619.1,642.42" style="stroke:#181818;stroke-width:1.0;"/></g><!--reverse link MachinePlayerView to Player--><g id="link_MachinePlayerView_Player"><path codeLine="135" d="M1463.2236,1178.6832 C1522.2236,1197.4832 1593.99,1220.36 1654.49,1239.64 " fill="none" id="MachinePlayerView-backto-Player" style="stroke:#181818;stroke-width:1.0;"/><polygon fill="#181818" points="1451.79,1175.04,1456.2924,1180.6728,1463.2236,1178.6832,1458.7212,1173.0504,1451.79,1175.04" style="stroke:#181818;stroke-width:1.0;"/></g><!--reverse link UserPlayerView to Player--><g id="link_UserPlayerView_Player"><path codeLine="136" d="M1603.4346,1181.5283 C1630.3346,1198.8183 1657.28,1216.15 1686.39,1234.86 " fill="none" id="UserPlayerView-backto-Player" style="stroke:#181818;stroke-width:1.0;"/><polygon fill="#181818" points="1593.34,1175.04,1596.2245,1181.649,1603.4346,1181.5283,1600.5501,1174.9193,1593.34,1175.04" style="stroke:#181818;stroke-width:1.0;"/></g><!--link PlayerViewPrototypeDirector to PlayerType--><g id="link_PlayerViewPrototypeDirector_PlayerType"><path codeLine="140" d="M1338.5,704.55 C1467.85,735.17 1631.23,774.08 1638.5,777 C1655.34,783.77 1667.6271,790.1095 1682.8371,799.2495 " fill="none" id="PlayerViewPrototypeDirector-to-PlayerType" style="stroke:#181818;stroke-width:1.0;stroke-dasharray:7.0,7.0;"/><polygon fill="#181818" points="1687.98,802.34,1682.326,794.2757,1683.6943,799.7646,1678.2054,801.1329,1687.98,802.34" style="stroke:#181818;stroke-width:1.0;"/></g><!--SRC=[bLMxRjim5Dtv5OGdEOsrj5DWU6WoT74Rn4w10bqOYNM9og90qadTnx-NRr8a9QTQ9F7SSz-yj-aGvx2XFQSThc_D-vdW5m2Q4RGJY8dF4lWDe7pUa5vWXXfHQK0I1QDTXzaI_4sfznqwbvZgV9RuWFdfY4jKWyoItrF4seZxmeZ0NLyjezyFb95VKWdggeA6_OdraGAEEzm8vJHcF0zRoxIC3dlw0_TPSC6eyhqhHe-Uk53XmJn_c4MU7B2qt9sECfWRA7EIsbuwXwstbNd1GRyisj3XN2tX3GpgPtpOekOxwN4ac-2atwAVbwGUKD_IuoMfHuxP9AYAiiNzoQR2_PfwD3wVroelDbBKjfy6GQG2bndVHtDfLweDpzhQOH5SCyWhkb-o2c77YWikPIeA-VrV5QdlaqoPpcCeBEOS7N2gxmlc7-aTGHqzbAwxATqzeuAAyu3l29DNXpAuNhlFpGOQ1sGpLmNA0puGMPRpjUtFlJmRToiiJve9FT9qTkPzM0sUoAMDBHhMmUfrP7C3ZRnigN1ObMMN_h8MHREhPq996WeY3XUXhNcTu0jB6q-JZ3M67IcTeXaj5LW0e5lb6semZ4UZScfY9AhKwh0Rca9CgoyCSuq-4qwcb1giE6CDL5mGkclMVrOh62qw2EAVgzLg0_skoo6tot8aB2i0l09OrvkqfC3fqE0u1X2qQ3GD8rNjLXGOA_N7erE_4K5gPdIR7TcxPpjqT9x6b96cC3UmWVjGsOEBjuimRgSyoCR9HK5tqKrwxDZG3P3ic1JELrHsOWKdzjw4-DG2125w8pYtDKh2a_kX99nkWb0Bt_rnoyqDz4k9dvl8L7eJvy0C9Ukh7KMzDFEkFWdIyVeeFQmDx2RO3ZSdt0lPkThzAT9Op95lAMKjwP70O-AZ9WOqoEihNx9YeNWQXt5g1Ft7r_v8MznnkwqMPj-6nJ19KybpB2Kefp68AnlTe2Gl7jOtpyy1w2PQLEq0gjA691Gw-ihN3uolKuo0r_QFYWY0Vm00]--></g></svg>