<?xml version="1.0" encoding="us-ascii" standalone="no"?><svg xmlns="http://www.w3.org/2000/svg" xmlns:xlink="http://www.w3.org/1999/xlink" contentStyleType="text/css" height="972px" preserveAspectRatio="none" style="width:1847px;height:972px;background:#FFFFFF;" version="1.1" viewBox="0 0 1847 972" width="1847px" zoomAndPan="magnify"><defs/><g><!--cluster views--><g id="cluster_views"><path d="M8.5,79 L50.5,79 A3.75,3.75 0 0 1 53,81.5 L60,102.6094 L883.5,102.6094 A2.5,2.5 0 0 1 886,105.1094 L886,963 A2.5,2.5 0 0 1 883.5,965.5 L8.5,965.5 A2.5,2.5 0 0 1 6,963 L6,81.5 A2.5,2.5 0 0 1 8.5,79 " fill="none" style="stroke:#000000;stroke-width:1.5;"/><line style="stroke:#000000;stroke-width:1.5;" x1="6" x2="60" y1="102.6094" y2="102.6094"/><text fill="#000000" font-family="sans-serif" font-size="14" font-weight="bold" lengthAdjust="spacing" textLength="41" x="10" y="95.5332">views</text></g><!--class Consoleview--><g id="elem_Consoleview"><rect codeLine="2" fill="#F1F1F1" height="48" id="Consoleview" rx="2.5" ry="2.5" style="stroke:#181818;stroke-width:0.5;" width="111" x="621.5" y="115"/><ellipse cx="636.5" cy="131" fill="#ADD1B2" rx="11" ry="11" style="stroke:#181818;stroke-width:1.0;"/><path d="M639.2656,126.875 Q639.4219,126.6563 639.6094,126.5469 Q639.7969,126.4375 640.0156,126.4375 Q640.3906,126.4375 640.625,126.7031 Q640.8594,126.9531 640.8594,127.5625 L640.8594,129.0156 Q640.8594,129.625 640.625,129.8906 Q640.3906,130.1563 640.0156,130.1563 Q639.6719,130.1563 639.4688,129.9531 Q639.2656,129.7656 639.1563,129.25 Q639.1094,128.8906 638.9219,128.7031 Q638.5938,128.3281 637.9844,128.1094 Q637.375,127.8906 636.75,127.8906 Q635.9844,127.8906 635.3438,128.2188 Q634.7188,128.5469 634.2188,129.2969 Q633.7344,130.0469 633.7344,131.0781 L633.7344,132.1719 Q633.7344,133.4063 634.625,134.2344 Q635.5156,135.0469 637.1094,135.0469 Q638.0469,135.0469 638.7031,134.7969 Q639.0938,134.6406 639.5156,134.2031 Q639.7813,133.9375 639.9219,133.8594 Q640.0781,133.7813 640.2813,133.7813 Q640.6094,133.7813 640.8594,134.0469 Q641.125,134.2969 641.125,134.6406 Q641.125,134.9844 640.7813,135.3906 Q640.2813,135.9688 639.4844,136.2969 Q638.4063,136.75 637.1094,136.75 Q635.5938,136.75 634.3906,136.125 Q633.4063,135.625 632.7188,134.5625 Q632.0313,133.4844 632.0313,132.2031 L632.0313,131.0469 Q632.0313,129.7188 632.6406,128.5781 Q633.2656,127.4219 634.3594,126.8125 Q635.4531,126.1875 636.6875,126.1875 Q637.4219,126.1875 638.0625,126.3594 Q638.7188,126.5156 639.2656,126.875 Z " fill="#000000"/><text fill="#000000" font-family="sans-serif" font-size="14" lengthAdjust="spacing" textLength="79" x="650.5" y="136.7285">Consoleview</text><line style="stroke:#181818;stroke-width:0.5;" x1="622.5" x2="731.5" y1="147" y2="147"/><line style="stroke:#181818;stroke-width:0.5;" x1="622.5" x2="731.5" y1="155" y2="155"/></g><!--class StartView--><g id="elem_StartView"><rect codeLine="3" fill="#F1F1F1" height="48" id="StartView" rx="2.5" ry="2.5" style="stroke:#181818;stroke-width:0.5;" width="91" x="506.5" y="223"/><ellipse cx="521.5" cy="239" fill="#ADD1B2" rx="11" ry="11" style="stroke:#181818;stroke-width:1.0;"/><path d="M524.2656,234.875 Q524.4219,234.6563 524.6094,234.5469 Q524.7969,234.4375 525.0156,234.4375 Q525.3906,234.4375 525.625,234.7031 Q525.8594,234.9531 525.8594,235.5625 L525.8594,237.0156 Q525.8594,237.625 525.625,237.8906 Q525.3906,238.1563 525.0156,238.1563 Q524.6719,238.1563 524.4688,237.9531 Q524.2656,237.7656 524.1563,237.25 Q524.1094,236.8906 523.9219,236.7031 Q523.5938,236.3281 522.9844,236.1094 Q522.375,235.8906 521.75,235.8906 Q520.9844,235.8906 520.3438,236.2188 Q519.7188,236.5469 519.2188,237.2969 Q518.7344,238.0469 518.7344,239.0781 L518.7344,240.1719 Q518.7344,241.4063 519.625,242.2344 Q520.5156,243.0469 522.1094,243.0469 Q523.0469,243.0469 523.7031,242.7969 Q524.0938,242.6406 524.5156,242.2031 Q524.7813,241.9375 524.9219,241.8594 Q525.0781,241.7813 525.2813,241.7813 Q525.6094,241.7813 525.8594,242.0469 Q526.125,242.2969 526.125,242.6406 Q526.125,242.9844 525.7813,243.3906 Q525.2813,243.9688 524.4844,244.2969 Q523.4063,244.75 522.1094,244.75 Q520.5938,244.75 519.3906,244.125 Q518.4063,243.625 517.7188,242.5625 Q517.0313,241.4844 517.0313,240.2031 L517.0313,239.0469 Q517.0313,237.7188 517.6406,236.5781 Q518.2656,235.4219 519.3594,234.8125 Q520.4531,234.1875 521.6875,234.1875 Q522.4219,234.1875 523.0625,234.3594 Q523.7188,234.5156 524.2656,234.875 Z " fill="#000000"/><text fill="#000000" font-family="sans-serif" font-size="14" lengthAdjust="spacing" textLength="59" x="535.5" y="244.7285">StartView</text><line style="stroke:#181818;stroke-width:0.5;" x1="507.5" x2="596.5" y1="255" y2="255"/><line style="stroke:#181818;stroke-width:0.5;" x1="507.5" x2="596.5" y1="263" y2="263"/></g><!--class PlayView--><g id="elem_PlayView"><rect codeLine="4" fill="#F1F1F1" height="48" id="PlayView" rx="2.5" ry="2.5" style="stroke:#181818;stroke-width:0.5;" width="88" x="633" y="223"/><ellipse cx="648" cy="239" fill="#ADD1B2" rx="11" ry="11" style="stroke:#181818;stroke-width:1.0;"/><path d="M650.7656,234.875 Q650.9219,234.6563 651.1094,234.5469 Q651.2969,234.4375 651.5156,234.4375 Q651.8906,234.4375 652.125,234.7031 Q652.3594,234.9531 652.3594,235.5625 L652.3594,237.0156 Q652.3594,237.625 652.125,237.8906 Q651.8906,238.1563 651.5156,238.1563 Q651.1719,238.1563 650.9688,237.9531 Q650.7656,237.7656 650.6563,237.25 Q650.6094,236.8906 650.4219,236.7031 Q650.0938,236.3281 649.4844,236.1094 Q648.875,235.8906 648.25,235.8906 Q647.4844,235.8906 646.8438,236.2188 Q646.2188,236.5469 645.7188,237.2969 Q645.2344,238.0469 645.2344,239.0781 L645.2344,240.1719 Q645.2344,241.4063 646.125,242.2344 Q647.0156,243.0469 648.6094,243.0469 Q649.5469,243.0469 650.2031,242.7969 Q650.5938,242.6406 651.0156,242.2031 Q651.2813,241.9375 651.4219,241.8594 Q651.5781,241.7813 651.7813,241.7813 Q652.1094,241.7813 652.3594,242.0469 Q652.625,242.2969 652.625,242.6406 Q652.625,242.9844 652.2813,243.3906 Q651.7813,243.9688 650.9844,244.2969 Q649.9063,244.75 648.6094,244.75 Q647.0938,244.75 645.8906,244.125 Q644.9063,243.625 644.2188,242.5625 Q643.5313,241.4844 643.5313,240.2031 L643.5313,239.0469 Q643.5313,237.7188 644.1406,236.5781 Q644.7656,235.4219 645.8594,234.8125 Q646.9531,234.1875 648.1875,234.1875 Q648.9219,234.1875 649.5625,234.3594 Q650.2188,234.5156 650.7656,234.875 Z " fill="#000000"/><text fill="#000000" font-family="sans-serif" font-size="14" lengthAdjust="spacing" textLength="56" x="662" y="244.7285">PlayView</text><line style="stroke:#181818;stroke-width:0.5;" x1="634" x2="720" y1="255" y2="255"/><line style="stroke:#181818;stroke-width:0.5;" x1="634" x2="720" y1="263" y2="263"/></g><!--class ResumeView--><g id="elem_ResumeView"><rect codeLine="5" fill="#F1F1F1" height="48" id="ResumeView" rx="2.5" ry="2.5" style="stroke:#181818;stroke-width:0.5;" width="113" x="756.5" y="223"/><ellipse cx="771.5" cy="239" fill="#ADD1B2" rx="11" ry="11" style="stroke:#181818;stroke-width:1.0;"/><path d="M774.2656,234.875 Q774.4219,234.6563 774.6094,234.5469 Q774.7969,234.4375 775.0156,234.4375 Q775.3906,234.4375 775.625,234.7031 Q775.8594,234.9531 775.8594,235.5625 L775.8594,237.0156 Q775.8594,237.625 775.625,237.8906 Q775.3906,238.1563 775.0156,238.1563 Q774.6719,238.1563 774.4688,237.9531 Q774.2656,237.7656 774.1563,237.25 Q774.1094,236.8906 773.9219,236.7031 Q773.5938,236.3281 772.9844,236.1094 Q772.375,235.8906 771.75,235.8906 Q770.9844,235.8906 770.3438,236.2188 Q769.7188,236.5469 769.2188,237.2969 Q768.7344,238.0469 768.7344,239.0781 L768.7344,240.1719 Q768.7344,241.4063 769.625,242.2344 Q770.5156,243.0469 772.1094,243.0469 Q773.0469,243.0469 773.7031,242.7969 Q774.0938,242.6406 774.5156,242.2031 Q774.7813,241.9375 774.9219,241.8594 Q775.0781,241.7813 775.2813,241.7813 Q775.6094,241.7813 775.8594,242.0469 Q776.125,242.2969 776.125,242.6406 Q776.125,242.9844 775.7813,243.3906 Q775.2813,243.9688 774.4844,244.2969 Q773.4063,244.75 772.1094,244.75 Q770.5938,244.75 769.3906,244.125 Q768.4063,243.625 767.7188,242.5625 Q767.0313,241.4844 767.0313,240.2031 L767.0313,239.0469 Q767.0313,237.7188 767.6406,236.5781 Q768.2656,235.4219 769.3594,234.8125 Q770.4531,234.1875 771.6875,234.1875 Q772.4219,234.1875 773.0625,234.3594 Q773.7188,234.5156 774.2656,234.875 Z " fill="#000000"/><text fill="#000000" font-family="sans-serif" font-size="14" lengthAdjust="spacing" textLength="81" x="785.5" y="244.7285">ResumeView</text><line style="stroke:#181818;stroke-width:0.5;" x1="757.5" x2="868.5" y1="255" y2="255"/><line style="stroke:#181818;stroke-width:0.5;" x1="757.5" x2="868.5" y1="263" y2="263"/></g><!--class BoardView--><g id="elem_BoardView"><rect codeLine="6" fill="#F1F1F1" height="48" id="BoardView" rx="2.5" ry="2.5" style="stroke:#181818;stroke-width:0.5;" width="99" x="622.5" y="331"/><ellipse cx="637.5" cy="347" fill="#ADD1B2" rx="11" ry="11" style="stroke:#181818;stroke-width:1.0;"/><path d="M640.2656,342.875 Q640.4219,342.6563 640.6094,342.5469 Q640.7969,342.4375 641.0156,342.4375 Q641.3906,342.4375 641.625,342.7031 Q641.8594,342.9531 641.8594,343.5625 L641.8594,345.0156 Q641.8594,345.625 641.625,345.8906 Q641.3906,346.1563 641.0156,346.1563 Q640.6719,346.1563 640.4688,345.9531 Q640.2656,345.7656 640.1563,345.25 Q640.1094,344.8906 639.9219,344.7031 Q639.5938,344.3281 638.9844,344.1094 Q638.375,343.8906 637.75,343.8906 Q636.9844,343.8906 636.3438,344.2188 Q635.7188,344.5469 635.2188,345.2969 Q634.7344,346.0469 634.7344,347.0781 L634.7344,348.1719 Q634.7344,349.4063 635.625,350.2344 Q636.5156,351.0469 638.1094,351.0469 Q639.0469,351.0469 639.7031,350.7969 Q640.0938,350.6406 640.5156,350.2031 Q640.7813,349.9375 640.9219,349.8594 Q641.0781,349.7813 641.2813,349.7813 Q641.6094,349.7813 641.8594,350.0469 Q642.125,350.2969 642.125,350.6406 Q642.125,350.9844 641.7813,351.3906 Q641.2813,351.9688 640.4844,352.2969 Q639.4063,352.75 638.1094,352.75 Q636.5938,352.75 635.3906,352.125 Q634.4063,351.625 633.7188,350.5625 Q633.0313,349.4844 633.0313,348.2031 L633.0313,347.0469 Q633.0313,345.7188 633.6406,344.5781 Q634.2656,343.4219 635.3594,342.8125 Q636.4531,342.1875 637.6875,342.1875 Q638.4219,342.1875 639.0625,342.3594 Q639.7188,342.5156 640.2656,342.875 Z " fill="#000000"/><text fill="#000000" font-family="sans-serif" font-size="14" lengthAdjust="spacing" textLength="67" x="651.5" y="352.7285">BoardView</text><line style="stroke:#181818;stroke-width:0.5;" x1="623.5" x2="720.5" y1="363" y2="363"/><line style="stroke:#181818;stroke-width:0.5;" x1="623.5" x2="720.5" y1="371" y2="371"/></g><!--class TurnView--><g id="elem_TurnView"><rect codeLine="7" fill="#F1F1F1" height="48" id="TurnView" rx="2.5" ry="2.5" style="stroke:#181818;stroke-width:0.5;" width="91" x="496.5" y="331"/><ellipse cx="511.5" cy="347" fill="#ADD1B2" rx="11" ry="11" style="stroke:#181818;stroke-width:1.0;"/><path d="M514.2656,342.875 Q514.4219,342.6563 514.6094,342.5469 Q514.7969,342.4375 515.0156,342.4375 Q515.3906,342.4375 515.625,342.7031 Q515.8594,342.9531 515.8594,343.5625 L515.8594,345.0156 Q515.8594,345.625 515.625,345.8906 Q515.3906,346.1563 515.0156,346.1563 Q514.6719,346.1563 514.4688,345.9531 Q514.2656,345.7656 514.1563,345.25 Q514.1094,344.8906 513.9219,344.7031 Q513.5938,344.3281 512.9844,344.1094 Q512.375,343.8906 511.75,343.8906 Q510.9844,343.8906 510.3438,344.2188 Q509.7188,344.5469 509.2188,345.2969 Q508.7344,346.0469 508.7344,347.0781 L508.7344,348.1719 Q508.7344,349.4063 509.625,350.2344 Q510.5156,351.0469 512.1094,351.0469 Q513.0469,351.0469 513.7031,350.7969 Q514.0938,350.6406 514.5156,350.2031 Q514.7813,349.9375 514.9219,349.8594 Q515.0781,349.7813 515.2813,349.7813 Q515.6094,349.7813 515.8594,350.0469 Q516.125,350.2969 516.125,350.6406 Q516.125,350.9844 515.7813,351.3906 Q515.2813,351.9688 514.4844,352.2969 Q513.4063,352.75 512.1094,352.75 Q510.5938,352.75 509.3906,352.125 Q508.4063,351.625 507.7188,350.5625 Q507.0313,349.4844 507.0313,348.2031 L507.0313,347.0469 Q507.0313,345.7188 507.6406,344.5781 Q508.2656,343.4219 509.3594,342.8125 Q510.4531,342.1875 511.6875,342.1875 Q512.4219,342.1875 513.0625,342.3594 Q513.7188,342.5156 514.2656,342.875 Z " fill="#000000"/><text fill="#000000" font-family="sans-serif" font-size="14" lengthAdjust="spacing" textLength="59" x="525.5" y="352.7285">TurnView</text><line style="stroke:#181818;stroke-width:0.5;" x1="497.5" x2="586.5" y1="363" y2="363"/><line style="stroke:#181818;stroke-width:0.5;" x1="497.5" x2="586.5" y1="371" y2="371"/></g><!--class PlayerView--><g id="elem_PlayerView"><rect codeLine="8" fill="#F1F1F1" height="48" id="PlayerView" rx="2.5" ry="2.5" style="stroke:#181818;stroke-width:0.5;" width="101" x="22.5" y="679"/><ellipse cx="37.5" cy="695" fill="#A9DCDF" rx="11" ry="11" style="stroke:#181818;stroke-width:1.0;"/><path d="M39.6875,696.7656 L35.5469,696.7656 L35.125,697.7969 L35.5469,697.7969 Q36.1563,697.7969 36.4219,698.0313 Q36.6875,698.2656 36.6875,698.6563 Q36.6875,699.0313 36.4219,699.2656 Q36.1563,699.5 35.5469,699.5 L33.25,699.5 Q32.6406,699.5 32.3906,699.2656 Q32.125,699.0313 32.125,698.6406 Q32.125,698.2656 32.4063,698.0313 Q32.6719,697.7813 33.2969,697.7969 L35.9688,691.1406 L34.8594,691.1406 Q34.25,691.1406 33.9844,690.9063 Q33.7188,690.6719 33.7188,690.2813 Q33.7188,689.9063 33.9844,689.6719 Q34.25,689.4375 34.8594,689.4375 L38.5313,689.4375 L41.9219,697.7969 Q42.5156,697.7969 42.7031,697.9375 Q43.0938,698.2031 43.0938,698.6563 Q43.0938,699.0313 42.8281,699.2656 Q42.5781,699.5 41.9688,699.5 L39.6719,699.5 Q39.0625,699.5 38.7969,699.2656 Q38.5313,699.0313 38.5313,698.6406 Q38.5313,698.2656 38.7969,698.0313 Q39.0625,697.7969 39.6719,697.7969 L40.0938,697.7969 L39.6875,696.7656 Z M38.9688,695.0625 L37.6094,691.6875 L36.2344,695.0625 L38.9688,695.0625 Z " fill="#000000"/><text fill="#000000" font-family="sans-serif" font-size="14" font-style="italic" lengthAdjust="spacing" textLength="69" x="51.5" y="700.7285">PlayerView</text><line style="stroke:#181818;stroke-width:0.5;" x1="23.5" x2="122.5" y1="711" y2="711"/><line style="stroke:#181818;stroke-width:0.5;" x1="23.5" x2="122.5" y1="719" y2="719"/></g><!--class MachinePlayerView--><g id="elem_MachinePlayerView"><rect codeLine="9" fill="#F1F1F1" height="48" id="MachinePlayerView" rx="2.5" ry="2.5" style="stroke:#181818;stroke-width:0.5;" width="155" x="236.5" y="787"/><ellipse cx="251.5" cy="803" fill="#A9DCDF" rx="11" ry="11" style="stroke:#181818;stroke-width:1.0;"/><path d="M253.6875,804.7656 L249.5469,804.7656 L249.125,805.7969 L249.5469,805.7969 Q250.1563,805.7969 250.4219,806.0313 Q250.6875,806.2656 250.6875,806.6563 Q250.6875,807.0313 250.4219,807.2656 Q250.1563,807.5 249.5469,807.5 L247.25,807.5 Q246.6406,807.5 246.3906,807.2656 Q246.125,807.0313 246.125,806.6406 Q246.125,806.2656 246.4063,806.0313 Q246.6719,805.7813 247.2969,805.7969 L249.9688,799.1406 L248.8594,799.1406 Q248.25,799.1406 247.9844,798.9063 Q247.7188,798.6719 247.7188,798.2813 Q247.7188,797.9063 247.9844,797.6719 Q248.25,797.4375 248.8594,797.4375 L252.5313,797.4375 L255.9219,805.7969 Q256.5156,805.7969 256.7031,805.9375 Q257.0938,806.2031 257.0938,806.6563 Q257.0938,807.0313 256.8281,807.2656 Q256.5781,807.5 255.9688,807.5 L253.6719,807.5 Q253.0625,807.5 252.7969,807.2656 Q252.5313,807.0313 252.5313,806.6406 Q252.5313,806.2656 252.7969,806.0313 Q253.0625,805.7969 253.6719,805.7969 L254.0938,805.7969 L253.6875,804.7656 Z M252.9688,803.0625 L251.6094,799.6875 L250.2344,803.0625 L252.9688,803.0625 Z " fill="#000000"/><text fill="#000000" font-family="sans-serif" font-size="14" font-style="italic" lengthAdjust="spacing" textLength="123" x="265.5" y="808.7285">MachinePlayerView</text><line style="stroke:#181818;stroke-width:0.5;" x1="237.5" x2="390.5" y1="819" y2="819"/><line style="stroke:#181818;stroke-width:0.5;" x1="237.5" x2="390.5" y1="827" y2="827"/></g><!--class MinMaxMachinePlayerView--><g id="elem_MinMaxMachinePlayerView"><rect codeLine="10" fill="#F1F1F1" height="48" id="MinMaxMachinePlayerView" rx="2.5" ry="2.5" style="stroke:#181818;stroke-width:0.5;" width="201" x="389.5" y="901.5"/><ellipse cx="404.5" cy="917.5" fill="#ADD1B2" rx="11" ry="11" style="stroke:#181818;stroke-width:1.0;"/><path d="M407.2656,913.375 Q407.4219,913.1563 407.6094,913.0469 Q407.7969,912.9375 408.0156,912.9375 Q408.3906,912.9375 408.625,913.2031 Q408.8594,913.4531 408.8594,914.0625 L408.8594,915.5156 Q408.8594,916.125 408.625,916.3906 Q408.3906,916.6563 408.0156,916.6563 Q407.6719,916.6563 407.4688,916.4531 Q407.2656,916.2656 407.1563,915.75 Q407.1094,915.3906 406.9219,915.2031 Q406.5938,914.8281 405.9844,914.6094 Q405.375,914.3906 404.75,914.3906 Q403.9844,914.3906 403.3438,914.7188 Q402.7188,915.0469 402.2188,915.7969 Q401.7344,916.5469 401.7344,917.5781 L401.7344,918.6719 Q401.7344,919.9063 402.625,920.7344 Q403.5156,921.5469 405.1094,921.5469 Q406.0469,921.5469 406.7031,921.2969 Q407.0938,921.1406 407.5156,920.7031 Q407.7813,920.4375 407.9219,920.3594 Q408.0781,920.2813 408.2813,920.2813 Q408.6094,920.2813 408.8594,920.5469 Q409.125,920.7969 409.125,921.1406 Q409.125,921.4844 408.7813,921.8906 Q408.2813,922.4688 407.4844,922.7969 Q406.4063,923.25 405.1094,923.25 Q403.5938,923.25 402.3906,922.625 Q401.4063,922.125 400.7188,921.0625 Q400.0313,919.9844 400.0313,918.7031 L400.0313,917.5469 Q400.0313,916.2188 400.6406,915.0781 Q401.2656,913.9219 402.3594,913.3125 Q403.4531,912.6875 404.6875,912.6875 Q405.4219,912.6875 406.0625,912.8594 Q406.7188,913.0156 407.2656,913.375 Z " fill="#000000"/><text fill="#000000" font-family="sans-serif" font-size="14" lengthAdjust="spacing" textLength="169" x="418.5" y="923.2285">MinMaxMachinePlayerView</text><line style="stroke:#181818;stroke-width:0.5;" x1="390.5" x2="589.5" y1="933.5" y2="933.5"/><line style="stroke:#181818;stroke-width:0.5;" x1="390.5" x2="589.5" y1="941.5" y2="941.5"/></g><!--class RandomMachinePlayerView--><g id="elem_RandomMachinePlayerView"><rect codeLine="11" fill="#F1F1F1" height="48" id="RandomMachinePlayerView" rx="2.5" ry="2.5" style="stroke:#181818;stroke-width:0.5;" width="207" x="147.5" y="901.5"/><ellipse cx="162.5" cy="917.5" fill="#ADD1B2" rx="11" ry="11" style="stroke:#181818;stroke-width:1.0;"/><path d="M165.2656,913.375 Q165.4219,913.1563 165.6094,913.0469 Q165.7969,912.9375 166.0156,912.9375 Q166.3906,912.9375 166.625,913.2031 Q166.8594,913.4531 166.8594,914.0625 L166.8594,915.5156 Q166.8594,916.125 166.625,916.3906 Q166.3906,916.6563 166.0156,916.6563 Q165.6719,916.6563 165.4688,916.4531 Q165.2656,916.2656 165.1563,915.75 Q165.1094,915.3906 164.9219,915.2031 Q164.5938,914.8281 163.9844,914.6094 Q163.375,914.3906 162.75,914.3906 Q161.9844,914.3906 161.3438,914.7188 Q160.7188,915.0469 160.2188,915.7969 Q159.7344,916.5469 159.7344,917.5781 L159.7344,918.6719 Q159.7344,919.9063 160.625,920.7344 Q161.5156,921.5469 163.1094,921.5469 Q164.0469,921.5469 164.7031,921.2969 Q165.0938,921.1406 165.5156,920.7031 Q165.7813,920.4375 165.9219,920.3594 Q166.0781,920.2813 166.2813,920.2813 Q166.6094,920.2813 166.8594,920.5469 Q167.125,920.7969 167.125,921.1406 Q167.125,921.4844 166.7813,921.8906 Q166.2813,922.4688 165.4844,922.7969 Q164.4063,923.25 163.1094,923.25 Q161.5938,923.25 160.3906,922.625 Q159.4063,922.125 158.7188,921.0625 Q158.0313,919.9844 158.0313,918.7031 L158.0313,917.5469 Q158.0313,916.2188 158.6406,915.0781 Q159.2656,913.9219 160.3594,913.3125 Q161.4531,912.6875 162.6875,912.6875 Q163.4219,912.6875 164.0625,912.8594 Q164.7188,913.0156 165.2656,913.375 Z " fill="#000000"/><text fill="#000000" font-family="sans-serif" font-size="14" lengthAdjust="spacing" textLength="175" x="176.5" y="923.2285">RandomMachinePlayerView</text><line style="stroke:#181818;stroke-width:0.5;" x1="148.5" x2="353.5" y1="933.5" y2="933.5"/><line style="stroke:#181818;stroke-width:0.5;" x1="148.5" x2="353.5" y1="941.5" y2="941.5"/></g><!--class UserPlayerView--><g id="elem_UserPlayerView"><rect codeLine="12" fill="#F1F1F1" height="48" id="UserPlayerView" rx="2.5" ry="2.5" style="stroke:#181818;stroke-width:0.5;" width="130" x="677" y="787"/><ellipse cx="692" cy="803" fill="#ADD1B2" rx="11" ry="11" style="stroke:#181818;stroke-width:1.0;"/><path d="M694.7656,798.875 Q694.9219,798.6563 695.1094,798.5469 Q695.2969,798.4375 695.5156,798.4375 Q695.8906,798.4375 696.125,798.7031 Q696.3594,798.9531 696.3594,799.5625 L696.3594,801.0156 Q696.3594,801.625 696.125,801.8906 Q695.8906,802.1563 695.5156,802.1563 Q695.1719,802.1563 694.9688,801.9531 Q694.7656,801.7656 694.6563,801.25 Q694.6094,800.8906 694.4219,800.7031 Q694.0938,800.3281 693.4844,800.1094 Q692.875,799.8906 692.25,799.8906 Q691.4844,799.8906 690.8438,800.2188 Q690.2188,800.5469 689.7188,801.2969 Q689.2344,802.0469 689.2344,803.0781 L689.2344,804.1719 Q689.2344,805.4063 690.125,806.2344 Q691.0156,807.0469 692.6094,807.0469 Q693.5469,807.0469 694.2031,806.7969 Q694.5938,806.6406 695.0156,806.2031 Q695.2813,805.9375 695.4219,805.8594 Q695.5781,805.7813 695.7813,805.7813 Q696.1094,805.7813 696.3594,806.0469 Q696.625,806.2969 696.625,806.6406 Q696.625,806.9844 696.2813,807.3906 Q695.7813,807.9688 694.9844,808.2969 Q693.9063,808.75 692.6094,808.75 Q691.0938,808.75 689.8906,808.125 Q688.9063,807.625 688.2188,806.5625 Q687.5313,805.4844 687.5313,804.2031 L687.5313,803.0469 Q687.5313,801.7188 688.1406,800.5781 Q688.7656,799.4219 689.8594,798.8125 Q690.9531,798.1875 692.1875,798.1875 Q692.9219,798.1875 693.5625,798.3594 Q694.2188,798.5156 694.7656,798.875 Z " fill="#000000"/><text fill="#000000" font-family="sans-serif" font-size="14" lengthAdjust="spacing" textLength="98" x="706" y="808.7285">UserPlayerView</text><line style="stroke:#181818;stroke-width:0.5;" x1="678" x2="806" y1="819" y2="819"/><line style="stroke:#181818;stroke-width:0.5;" x1="678" x2="806" y1="827" y2="827"/></g><!--class TurnMenu--><g id="elem_TurnMenu"><rect codeLine="13" fill="#F1F1F1" height="48" id="TurnMenu" rx="2.5" ry="2.5" style="stroke:#181818;stroke-width:0.5;" width="97" x="753.5" y="444.5"/><ellipse cx="768.5" cy="460.5" fill="#ADD1B2" rx="11" ry="11" style="stroke:#181818;stroke-width:1.0;"/><path d="M771.2656,456.375 Q771.4219,456.1563 771.6094,456.0469 Q771.7969,455.9375 772.0156,455.9375 Q772.3906,455.9375 772.625,456.2031 Q772.8594,456.4531 772.8594,457.0625 L772.8594,458.5156 Q772.8594,459.125 772.625,459.3906 Q772.3906,459.6563 772.0156,459.6563 Q771.6719,459.6563 771.4688,459.4531 Q771.2656,459.2656 771.1563,458.75 Q771.1094,458.3906 770.9219,458.2031 Q770.5938,457.8281 769.9844,457.6094 Q769.375,457.3906 768.75,457.3906 Q767.9844,457.3906 767.3438,457.7188 Q766.7188,458.0469 766.2188,458.7969 Q765.7344,459.5469 765.7344,460.5781 L765.7344,461.6719 Q765.7344,462.9063 766.625,463.7344 Q767.5156,464.5469 769.1094,464.5469 Q770.0469,464.5469 770.7031,464.2969 Q771.0938,464.1406 771.5156,463.7031 Q771.7813,463.4375 771.9219,463.3594 Q772.0781,463.2813 772.2813,463.2813 Q772.6094,463.2813 772.8594,463.5469 Q773.125,463.7969 773.125,464.1406 Q773.125,464.4844 772.7813,464.8906 Q772.2813,465.4688 771.4844,465.7969 Q770.4063,466.25 769.1094,466.25 Q767.5938,466.25 766.3906,465.625 Q765.4063,465.125 764.7188,464.0625 Q764.0313,462.9844 764.0313,461.7031 L764.0313,460.5469 Q764.0313,459.2188 764.6406,458.0781 Q765.2656,456.9219 766.3594,456.3125 Q767.4531,455.6875 768.6875,455.6875 Q769.4219,455.6875 770.0625,455.8594 Q770.7188,456.0156 771.2656,456.375 Z " fill="#000000"/><text fill="#000000" font-family="sans-serif" font-size="14" lengthAdjust="spacing" textLength="65" x="782.5" y="466.2285">TurnMenu</text><line style="stroke:#181818;stroke-width:0.5;" x1="754.5" x2="849.5" y1="476.5" y2="476.5"/><line style="stroke:#181818;stroke-width:0.5;" x1="754.5" x2="849.5" y1="484.5" y2="484.5"/></g><!--class TurnOption--><g id="elem_TurnOption"><rect codeLine="14" fill="#F1F1F1" height="48" id="TurnOption" rx="2.5" ry="2.5" style="stroke:#181818;stroke-width:0.5;" width="104" x="731" y="564.5"/><ellipse cx="746" cy="580.5" fill="#A9DCDF" rx="11" ry="11" style="stroke:#181818;stroke-width:1.0;"/><path d="M748.1875,582.2656 L744.0469,582.2656 L743.625,583.2969 L744.0469,583.2969 Q744.6563,583.2969 744.9219,583.5313 Q745.1875,583.7656 745.1875,584.1563 Q745.1875,584.5313 744.9219,584.7656 Q744.6563,585 744.0469,585 L741.75,585 Q741.1406,585 740.8906,584.7656 Q740.625,584.5313 740.625,584.1406 Q740.625,583.7656 740.9063,583.5313 Q741.1719,583.2813 741.7969,583.2969 L744.4688,576.6406 L743.3594,576.6406 Q742.75,576.6406 742.4844,576.4063 Q742.2188,576.1719 742.2188,575.7813 Q742.2188,575.4063 742.4844,575.1719 Q742.75,574.9375 743.3594,574.9375 L747.0313,574.9375 L750.4219,583.2969 Q751.0156,583.2969 751.2031,583.4375 Q751.5938,583.7031 751.5938,584.1563 Q751.5938,584.5313 751.3281,584.7656 Q751.0781,585 750.4688,585 L748.1719,585 Q747.5625,585 747.2969,584.7656 Q747.0313,584.5313 747.0313,584.1406 Q747.0313,583.7656 747.2969,583.5313 Q747.5625,583.2969 748.1719,583.2969 L748.5938,583.2969 L748.1875,582.2656 Z M747.4688,580.5625 L746.1094,577.1875 L744.7344,580.5625 L747.4688,580.5625 Z " fill="#000000"/><text fill="#000000" font-family="sans-serif" font-size="14" font-style="italic" lengthAdjust="spacing" textLength="72" x="760" y="586.2285">TurnOption</text><line style="stroke:#181818;stroke-width:0.5;" x1="732" x2="834" y1="596.5" y2="596.5"/><line style="stroke:#181818;stroke-width:0.5;" x1="732" x2="834" y1="604.5" y2="604.5"/></g><!--class SetRandomMachinePlayerOption--><g id="elem_SetRandomMachinePlayerOption"><rect codeLine="15" fill="#F1F1F1" height="48" id="SetRandomMachinePlayerOption" rx="2.5" ry="2.5" style="stroke:#181818;stroke-width:0.5;" width="241" x="358.5" y="679"/><ellipse cx="373.5" cy="695" fill="#ADD1B2" rx="11" ry="11" style="stroke:#181818;stroke-width:1.0;"/><path d="M376.2656,690.875 Q376.4219,690.6563 376.6094,690.5469 Q376.7969,690.4375 377.0156,690.4375 Q377.3906,690.4375 377.625,690.7031 Q377.8594,690.9531 377.8594,691.5625 L377.8594,693.0156 Q377.8594,693.625 377.625,693.8906 Q377.3906,694.1563 377.0156,694.1563 Q376.6719,694.1563 376.4688,693.9531 Q376.2656,693.7656 376.1563,693.25 Q376.1094,692.8906 375.9219,692.7031 Q375.5938,692.3281 374.9844,692.1094 Q374.375,691.8906 373.75,691.8906 Q372.9844,691.8906 372.3438,692.2188 Q371.7188,692.5469 371.2188,693.2969 Q370.7344,694.0469 370.7344,695.0781 L370.7344,696.1719 Q370.7344,697.4063 371.625,698.2344 Q372.5156,699.0469 374.1094,699.0469 Q375.0469,699.0469 375.7031,698.7969 Q376.0938,698.6406 376.5156,698.2031 Q376.7813,697.9375 376.9219,697.8594 Q377.0781,697.7813 377.2813,697.7813 Q377.6094,697.7813 377.8594,698.0469 Q378.125,698.2969 378.125,698.6406 Q378.125,698.9844 377.7813,699.3906 Q377.2813,699.9688 376.4844,700.2969 Q375.4063,700.75 374.1094,700.75 Q372.5938,700.75 371.3906,700.125 Q370.4063,699.625 369.7188,698.5625 Q369.0313,697.4844 369.0313,696.2031 L369.0313,695.0469 Q369.0313,693.7188 369.6406,692.5781 Q370.2656,691.4219 371.3594,690.8125 Q372.4531,690.1875 373.6875,690.1875 Q374.4219,690.1875 375.0625,690.3594 Q375.7188,690.5156 376.2656,690.875 Z " fill="#000000"/><text fill="#000000" font-family="sans-serif" font-size="14" lengthAdjust="spacing" textLength="209" x="387.5" y="700.7285">SetRandomMachinePlayerOption</text><line style="stroke:#181818;stroke-width:0.5;" x1="359.5" x2="598.5" y1="711" y2="711"/><line style="stroke:#181818;stroke-width:0.5;" x1="359.5" x2="598.5" y1="719" y2="719"/></g><!--class SetMinMaxMachinePlayerOption--><g id="elem_SetMinMaxMachinePlayerOption"><rect codeLine="16" fill="#F1F1F1" height="48" id="SetMinMaxMachinePlayerOption" rx="2.5" ry="2.5" style="stroke:#181818;stroke-width:0.5;" width="235" x="634.5" y="679"/><ellipse cx="649.5" cy="695" fill="#ADD1B2" rx="11" ry="11" style="stroke:#181818;stroke-width:1.0;"/><path d="M652.2656,690.875 Q652.4219,690.6563 652.6094,690.5469 Q652.7969,690.4375 653.0156,690.4375 Q653.3906,690.4375 653.625,690.7031 Q653.8594,690.9531 653.8594,691.5625 L653.8594,693.0156 Q653.8594,693.625 653.625,693.8906 Q653.3906,694.1563 653.0156,694.1563 Q652.6719,694.1563 652.4688,693.9531 Q652.2656,693.7656 652.1563,693.25 Q652.1094,692.8906 651.9219,692.7031 Q651.5938,692.3281 650.9844,692.1094 Q650.375,691.8906 649.75,691.8906 Q648.9844,691.8906 648.3438,692.2188 Q647.7188,692.5469 647.2188,693.2969 Q646.7344,694.0469 646.7344,695.0781 L646.7344,696.1719 Q646.7344,697.4063 647.625,698.2344 Q648.5156,699.0469 650.1094,699.0469 Q651.0469,699.0469 651.7031,698.7969 Q652.0938,698.6406 652.5156,698.2031 Q652.7813,697.9375 652.9219,697.8594 Q653.0781,697.7813 653.2813,697.7813 Q653.6094,697.7813 653.8594,698.0469 Q654.125,698.2969 654.125,698.6406 Q654.125,698.9844 653.7813,699.3906 Q653.2813,699.9688 652.4844,700.2969 Q651.4063,700.75 650.1094,700.75 Q648.5938,700.75 647.3906,700.125 Q646.4063,699.625 645.7188,698.5625 Q645.0313,697.4844 645.0313,696.2031 L645.0313,695.0469 Q645.0313,693.7188 645.6406,692.5781 Q646.2656,691.4219 647.3594,690.8125 Q648.4531,690.1875 649.6875,690.1875 Q650.4219,690.1875 651.0625,690.3594 Q651.7188,690.5156 652.2656,690.875 Z " fill="#000000"/><text fill="#000000" font-family="sans-serif" font-size="14" lengthAdjust="spacing" textLength="203" x="663.5" y="700.7285">SetMinMaxMachinePlayerOption</text><line style="stroke:#181818;stroke-width:0.5;" x1="635.5" x2="868.5" y1="711" y2="711"/><line style="stroke:#181818;stroke-width:0.5;" x1="635.5" x2="868.5" y1="719" y2="719"/></g><!--class SetUserPlayerOption--><g id="elem_SetUserPlayerOption"><rect codeLine="17" fill="#F1F1F1" height="48" id="SetUserPlayerOption" rx="2.5" ry="2.5" style="stroke:#181818;stroke-width:0.5;" width="164" x="159" y="679"/><ellipse cx="174" cy="695" fill="#ADD1B2" rx="11" ry="11" style="stroke:#181818;stroke-width:1.0;"/><path d="M176.7656,690.875 Q176.9219,690.6563 177.1094,690.5469 Q177.2969,690.4375 177.5156,690.4375 Q177.8906,690.4375 178.125,690.7031 Q178.3594,690.9531 178.3594,691.5625 L178.3594,693.0156 Q178.3594,693.625 178.125,693.8906 Q177.8906,694.1563 177.5156,694.1563 Q177.1719,694.1563 176.9688,693.9531 Q176.7656,693.7656 176.6563,693.25 Q176.6094,692.8906 176.4219,692.7031 Q176.0938,692.3281 175.4844,692.1094 Q174.875,691.8906 174.25,691.8906 Q173.4844,691.8906 172.8438,692.2188 Q172.2188,692.5469 171.7188,693.2969 Q171.2344,694.0469 171.2344,695.0781 L171.2344,696.1719 Q171.2344,697.4063 172.125,698.2344 Q173.0156,699.0469 174.6094,699.0469 Q175.5469,699.0469 176.2031,698.7969 Q176.5938,698.6406 177.0156,698.2031 Q177.2813,697.9375 177.4219,697.8594 Q177.5781,697.7813 177.7813,697.7813 Q178.1094,697.7813 178.3594,698.0469 Q178.625,698.2969 178.625,698.6406 Q178.625,698.9844 178.2813,699.3906 Q177.7813,699.9688 176.9844,700.2969 Q175.9063,700.75 174.6094,700.75 Q173.0938,700.75 171.8906,700.125 Q170.9063,699.625 170.2188,698.5625 Q169.5313,697.4844 169.5313,696.2031 L169.5313,695.0469 Q169.5313,693.7188 170.1406,692.5781 Q170.7656,691.4219 171.8594,690.8125 Q172.9531,690.1875 174.1875,690.1875 Q174.9219,690.1875 175.5625,690.3594 Q176.2188,690.5156 176.7656,690.875 Z " fill="#000000"/><text fill="#000000" font-family="sans-serif" font-size="14" lengthAdjust="spacing" textLength="132" x="188" y="700.7285">SetUserPlayerOption</text><line style="stroke:#181818;stroke-width:0.5;" x1="160" x2="322" y1="711" y2="711"/><line style="stroke:#181818;stroke-width:0.5;" x1="160" x2="322" y1="719" y2="719"/></g><!--class Message--><g id="elem_Message"><rect codeLine="18" fill="#F1F1F1" height="48" id="Message" rx="2.5" ry="2.5" style="stroke:#181818;stroke-width:0.5;" width="89" x="260.5" y="115"/><ellipse cx="275.5" cy="131" fill="#EB937F" rx="11" ry="11" style="stroke:#181818;stroke-width:1.0;"/><path d="M274.3594,131.7969 L274.3594,134.2969 L278.6875,134.2969 L278.6875,133.375 Q278.6875,132.7656 278.9219,132.5 Q279.1719,132.2344 279.5469,132.2344 Q279.9219,132.2344 280.1563,132.5 Q280.3906,132.7656 280.3906,133.375 L280.3906,136 L272.3906,136 Q271.7656,136 271.5,135.7656 Q271.25,135.5313 271.25,135.1406 Q271.25,134.7656 271.5156,134.5313 Q271.7813,134.2969 272.3906,134.2969 L272.6563,134.2969 L272.6563,127.6406 L272.3906,127.6406 Q271.7656,127.6406 271.5,127.4063 Q271.25,127.1719 271.25,126.7813 Q271.25,126.4063 271.5,126.1719 Q271.7656,125.9375 272.3906,125.9375 L280.0156,125.9375 L280.0156,128.5313 Q280.0156,129.1406 279.7813,129.4063 Q279.5625,129.6563 279.1719,129.6563 Q278.7969,129.6563 278.5625,129.4063 Q278.3281,129.1406 278.3281,128.5313 L278.3281,127.6406 L274.3594,127.6406 L274.3594,130.0938 L275.8438,130.0938 Q275.8438,129.4375 275.9688,129.25 Q276.2344,128.8438 276.7031,128.8438 Q277.0781,128.8438 277.3125,129.1094 Q277.5469,129.3594 277.5469,129.9688 L277.5469,131.9375 Q277.5469,132.4844 277.4219,132.6719 Q277.1563,133.0625 276.7031,133.0625 Q276.2344,133.0625 275.9688,132.6563 Q275.8438,132.4688 275.8438,131.7969 L274.3594,131.7969 Z " fill="#000000"/><text fill="#000000" font-family="sans-serif" font-size="14" lengthAdjust="spacing" textLength="57" x="289.5" y="136.7285">Message</text><line style="stroke:#181818;stroke-width:0.5;" x1="261.5" x2="348.5" y1="147" y2="147"/><line style="stroke:#181818;stroke-width:0.5;" x1="261.5" x2="348.5" y1="155" y2="155"/></g><!--class YesNoDialog--><g id="elem_YesNoDialog"><rect codeLine="19" fill="#F1F1F1" height="48" id="YesNoDialog" rx="2.5" ry="2.5" style="stroke:#181818;stroke-width:0.5;" width="113" x="756.5" y="331"/><ellipse cx="771.5" cy="347" fill="#ADD1B2" rx="11" ry="11" style="stroke:#181818;stroke-width:1.0;"/><path d="M774.2656,342.875 Q774.4219,342.6563 774.6094,342.5469 Q774.7969,342.4375 775.0156,342.4375 Q775.3906,342.4375 775.625,342.7031 Q775.8594,342.9531 775.8594,343.5625 L775.8594,345.0156 Q775.8594,345.625 775.625,345.8906 Q775.3906,346.1563 775.0156,346.1563 Q774.6719,346.1563 774.4688,345.9531 Q774.2656,345.7656 774.1563,345.25 Q774.1094,344.8906 773.9219,344.7031 Q773.5938,344.3281 772.9844,344.1094 Q772.375,343.8906 771.75,343.8906 Q770.9844,343.8906 770.3438,344.2188 Q769.7188,344.5469 769.2188,345.2969 Q768.7344,346.0469 768.7344,347.0781 L768.7344,348.1719 Q768.7344,349.4063 769.625,350.2344 Q770.5156,351.0469 772.1094,351.0469 Q773.0469,351.0469 773.7031,350.7969 Q774.0938,350.6406 774.5156,350.2031 Q774.7813,349.9375 774.9219,349.8594 Q775.0781,349.7813 775.2813,349.7813 Q775.6094,349.7813 775.8594,350.0469 Q776.125,350.2969 776.125,350.6406 Q776.125,350.9844 775.7813,351.3906 Q775.2813,351.9688 774.4844,352.2969 Q773.4063,352.75 772.1094,352.75 Q770.5938,352.75 769.3906,352.125 Q768.4063,351.625 767.7188,350.5625 Q767.0313,349.4844 767.0313,348.2031 L767.0313,347.0469 Q767.0313,345.7188 767.6406,344.5781 Q768.2656,343.4219 769.3594,342.8125 Q770.4531,342.1875 771.6875,342.1875 Q772.4219,342.1875 773.0625,342.3594 Q773.7188,342.5156 774.2656,342.875 Z " fill="#000000"/><text fill="#000000" font-family="sans-serif" font-size="14" lengthAdjust="spacing" textLength="81" x="785.5" y="352.7285">YesNoDialog</text><line style="stroke:#181818;stroke-width:0.5;" x1="757.5" x2="868.5" y1="363" y2="363"/><line style="stroke:#181818;stroke-width:0.5;" x1="757.5" x2="868.5" y1="371" y2="371"/></g><!--class PlayerViewPrototypeDirector--><g id="elem_PlayerViewPrototypeDirector"><rect codeLine="20" fill="#F1F1F1" height="58.7031" id="PlayerViewPrototypeDirector" rx="2.5" ry="2.5" style="stroke:#181818;stroke-width:0.5;" width="212" x="436" y="439"/><ellipse cx="451" cy="460.3516" fill="#ADD1B2" rx="11" ry="11" style="stroke:#181818;stroke-width:1.0;"/><path d="M453.7656,456.2266 Q453.9219,456.0078 454.1094,455.8984 Q454.2969,455.7891 454.5156,455.7891 Q454.8906,455.7891 455.125,456.0547 Q455.3594,456.3047 455.3594,456.9141 L455.3594,458.3672 Q455.3594,458.9766 455.125,459.2422 Q454.8906,459.5078 454.5156,459.5078 Q454.1719,459.5078 453.9688,459.3047 Q453.7656,459.1172 453.6563,458.6016 Q453.6094,458.2422 453.4219,458.0547 Q453.0938,457.6797 452.4844,457.4609 Q451.875,457.2422 451.25,457.2422 Q450.4844,457.2422 449.8438,457.5703 Q449.2188,457.8984 448.7188,458.6484 Q448.2344,459.3984 448.2344,460.4297 L448.2344,461.5234 Q448.2344,462.7578 449.125,463.5859 Q450.0156,464.3984 451.6094,464.3984 Q452.5469,464.3984 453.2031,464.1484 Q453.5938,463.9922 454.0156,463.5547 Q454.2813,463.2891 454.4219,463.2109 Q454.5781,463.1328 454.7813,463.1328 Q455.1094,463.1328 455.3594,463.3984 Q455.625,463.6484 455.625,463.9922 Q455.625,464.3359 455.2813,464.7422 Q454.7813,465.3203 453.9844,465.6484 Q452.9063,466.1016 451.6094,466.1016 Q450.0938,466.1016 448.8906,465.4766 Q447.9063,464.9766 447.2188,463.9141 Q446.5313,462.8359 446.5313,461.5547 L446.5313,460.3984 Q446.5313,459.0703 447.1406,457.9297 Q447.7656,456.7734 448.8594,456.1641 Q449.9531,455.5391 451.1875,455.5391 Q451.9219,455.5391 452.5625,455.7109 Q453.2188,455.8672 453.7656,456.2266 Z " fill="#000000"/><text fill="#000000" font-family="sans-serif" font-size="12" font-style="italic" lengthAdjust="spacing" textLength="57" x="526.5" y="456.457">&#171;Director&#187;</text><text fill="#000000" font-family="sans-serif" font-size="14" lengthAdjust="spacing" textLength="180" x="465" y="473.627">PlayerViewPrototypeDirector</text><line style="stroke:#181818;stroke-width:0.5;" x1="437" x2="647" y1="481.7031" y2="481.7031"/><line style="stroke:#181818;stroke-width:0.5;" x1="437" x2="647" y1="489.7031" y2="489.7031"/></g><!--class PlayerViewPrototypeRegistry--><g id="elem_PlayerViewPrototypeRegistry"><rect codeLine="21" fill="#F1F1F1" height="58.7031" id="PlayerViewPrototypeRegistry" rx="2.5" ry="2.5" style="stroke:#181818;stroke-width:0.5;" width="214" x="354" y="559"/><ellipse cx="369" cy="580.3516" fill="#ADD1B2" rx="11" ry="11" style="stroke:#181818;stroke-width:1.0;"/><path d="M371.7656,576.2266 Q371.9219,576.0078 372.1094,575.8984 Q372.2969,575.7891 372.5156,575.7891 Q372.8906,575.7891 373.125,576.0547 Q373.3594,576.3047 373.3594,576.9141 L373.3594,578.3672 Q373.3594,578.9766 373.125,579.2422 Q372.8906,579.5078 372.5156,579.5078 Q372.1719,579.5078 371.9688,579.3047 Q371.7656,579.1172 371.6563,578.6016 Q371.6094,578.2422 371.4219,578.0547 Q371.0938,577.6797 370.4844,577.4609 Q369.875,577.2422 369.25,577.2422 Q368.4844,577.2422 367.8438,577.5703 Q367.2188,577.8984 366.7188,578.6484 Q366.2344,579.3984 366.2344,580.4297 L366.2344,581.5234 Q366.2344,582.7578 367.125,583.5859 Q368.0156,584.3984 369.6094,584.3984 Q370.5469,584.3984 371.2031,584.1484 Q371.5938,583.9922 372.0156,583.5547 Q372.2813,583.2891 372.4219,583.2109 Q372.5781,583.1328 372.7813,583.1328 Q373.1094,583.1328 373.3594,583.3984 Q373.625,583.6484 373.625,583.9922 Q373.625,584.3359 373.2813,584.7422 Q372.7813,585.3203 371.9844,585.6484 Q370.9063,586.1016 369.6094,586.1016 Q368.0938,586.1016 366.8906,585.4766 Q365.9063,584.9766 365.2188,583.9141 Q364.5313,582.8359 364.5313,581.5547 L364.5313,580.3984 Q364.5313,579.0703 365.1406,577.9297 Q365.7656,576.7734 366.8594,576.1641 Q367.9531,575.5391 369.1875,575.5391 Q369.9219,575.5391 370.5625,575.7109 Q371.2188,575.8672 371.7656,576.2266 Z " fill="#000000"/><text fill="#000000" font-family="sans-serif" font-size="12" font-style="italic" lengthAdjust="spacing" textLength="111" x="418.5" y="576.457">&#171;PrototypeRegistry&#187;</text><text fill="#000000" font-family="sans-serif" font-size="14" lengthAdjust="spacing" textLength="182" x="383" y="593.627">PlayerViewPrototypeRegistry</text><line style="stroke:#181818;stroke-width:0.5;" x1="355" x2="567" y1="601.7031" y2="601.7031"/><line style="stroke:#181818;stroke-width:0.5;" x1="355" x2="567" y1="609.7031" y2="609.7031"/></g><!--class View--><g id="elem_View"><rect codeLine="23" fill="#F1F1F1" height="48" id="View" rx="2.5" ry="2.5" style="stroke:#181818;stroke-width:0.5;" width="61" x="646.5" y="7"/><ellipse cx="661.5" cy="23" fill="#ADD1B2" rx="11" ry="11" style="stroke:#181818;stroke-width:1.0;"/><path d="M664.2656,18.875 Q664.4219,18.6563 664.6094,18.5469 Q664.7969,18.4375 665.0156,18.4375 Q665.3906,18.4375 665.625,18.7031 Q665.8594,18.9531 665.8594,19.5625 L665.8594,21.0156 Q665.8594,21.625 665.625,21.8906 Q665.3906,22.1563 665.0156,22.1563 Q664.6719,22.1563 664.4688,21.9531 Q664.2656,21.7656 664.1563,21.25 Q664.1094,20.8906 663.9219,20.7031 Q663.5938,20.3281 662.9844,20.1094 Q662.375,19.8906 661.75,19.8906 Q660.9844,19.8906 660.3438,20.2188 Q659.7188,20.5469 659.2188,21.2969 Q658.7344,22.0469 658.7344,23.0781 L658.7344,24.1719 Q658.7344,25.4063 659.625,26.2344 Q660.5156,27.0469 662.1094,27.0469 Q663.0469,27.0469 663.7031,26.7969 Q664.0938,26.6406 664.5156,26.2031 Q664.7813,25.9375 664.9219,25.8594 Q665.0781,25.7813 665.2813,25.7813 Q665.6094,25.7813 665.8594,26.0469 Q666.125,26.2969 666.125,26.6406 Q666.125,26.9844 665.7813,27.3906 Q665.2813,27.9688 664.4844,28.2969 Q663.4063,28.75 662.1094,28.75 Q660.5938,28.75 659.3906,28.125 Q658.4063,27.625 657.7188,26.5625 Q657.0313,25.4844 657.0313,24.2031 L657.0313,23.0469 Q657.0313,21.7188 657.6406,20.5781 Q658.2656,19.4219 659.3594,18.8125 Q660.4531,18.1875 661.6875,18.1875 Q662.4219,18.1875 663.0625,18.3594 Q663.7188,18.5156 664.2656,18.875 Z " fill="#000000"/><text fill="#000000" font-family="sans-serif" font-size="14" lengthAdjust="spacing" textLength="29" x="675.5" y="28.7285">View</text><line style="stroke:#181818;stroke-width:0.5;" x1="647.5" x2="706.5" y1="39" y2="39"/><line style="stroke:#181818;stroke-width:0.5;" x1="647.5" x2="706.5" y1="47" y2="47"/></g><!--class Logic--><g id="elem_Logic"><rect codeLine="29" fill="#F1F1F1" height="48" id="Logic" rx="2.5" ry="2.5" style="stroke:#181818;stroke-width:0.5;" width="66" x="1465" y="679"/><ellipse cx="1480" cy="695" fill="#ADD1B2" rx="11" ry="11" style="stroke:#181818;stroke-width:1.0;"/><path d="M1482.7656,690.875 Q1482.9219,690.6563 1483.1094,690.5469 Q1483.2969,690.4375 1483.5156,690.4375 Q1483.8906,690.4375 1484.125,690.7031 Q1484.3594,690.9531 1484.3594,691.5625 L1484.3594,693.0156 Q1484.3594,693.625 1484.125,693.8906 Q1483.8906,694.1563 1483.5156,694.1563 Q1483.1719,694.1563 1482.9688,693.9531 Q1482.7656,693.7656 1482.6563,693.25 Q1482.6094,692.8906 1482.4219,692.7031 Q1482.0938,692.3281 1481.4844,692.1094 Q1480.875,691.8906 1480.25,691.8906 Q1479.4844,691.8906 1478.8438,692.2188 Q1478.2188,692.5469 1477.7188,693.2969 Q1477.2344,694.0469 1477.2344,695.0781 L1477.2344,696.1719 Q1477.2344,697.4063 1478.125,698.2344 Q1479.0156,699.0469 1480.6094,699.0469 Q1481.5469,699.0469 1482.2031,698.7969 Q1482.5938,698.6406 1483.0156,698.2031 Q1483.2813,697.9375 1483.4219,697.8594 Q1483.5781,697.7813 1483.7813,697.7813 Q1484.1094,697.7813 1484.3594,698.0469 Q1484.625,698.2969 1484.625,698.6406 Q1484.625,698.9844 1484.2813,699.3906 Q1483.7813,699.9688 1482.9844,700.2969 Q1481.9063,700.75 1480.6094,700.75 Q1479.0938,700.75 1477.8906,700.125 Q1476.9063,699.625 1476.2188,698.5625 Q1475.5313,697.4844 1475.5313,696.2031 L1475.5313,695.0469 Q1475.5313,693.7188 1476.1406,692.5781 Q1476.7656,691.4219 1477.8594,690.8125 Q1478.9531,690.1875 1480.1875,690.1875 Q1480.9219,690.1875 1481.5625,690.3594 Q1482.2188,690.5156 1482.7656,690.875 Z " fill="#000000"/><text fill="#000000" font-family="sans-serif" font-size="14" lengthAdjust="spacing" textLength="34" x="1494" y="700.7285">Logic</text><line style="stroke:#181818;stroke-width:0.5;" x1="1466" x2="1530" y1="711" y2="711"/><line style="stroke:#181818;stroke-width:0.5;" x1="1466" x2="1530" y1="719" y2="719"/></g><!--class Option--><g id="elem_Option"><rect codeLine="61" fill="#F1F1F1" height="48" id="Option" rx="2.5" ry="2.5" style="stroke:#181818;stroke-width:0.5;" width="204" x="905" y="679"/><ellipse cx="920" cy="695" fill="#ADD1B2" rx="11" ry="11" style="stroke:#181818;stroke-width:1.0;"/><path d="M922.7656,690.875 Q922.9219,690.6563 923.1094,690.5469 Q923.2969,690.4375 923.5156,690.4375 Q923.8906,690.4375 924.125,690.7031 Q924.3594,690.9531 924.3594,691.5625 L924.3594,693.0156 Q924.3594,693.625 924.125,693.8906 Q923.8906,694.1563 923.5156,694.1563 Q923.1719,694.1563 922.9688,693.9531 Q922.7656,693.7656 922.6563,693.25 Q922.6094,692.8906 922.4219,692.7031 Q922.0938,692.3281 921.4844,692.1094 Q920.875,691.8906 920.25,691.8906 Q919.4844,691.8906 918.8438,692.2188 Q918.2188,692.5469 917.7188,693.2969 Q917.2344,694.0469 917.2344,695.0781 L917.2344,696.1719 Q917.2344,697.4063 918.125,698.2344 Q919.0156,699.0469 920.6094,699.0469 Q921.5469,699.0469 922.2031,698.7969 Q922.5938,698.6406 923.0156,698.2031 Q923.2813,697.9375 923.4219,697.8594 Q923.5781,697.7813 923.7813,697.7813 Q924.1094,697.7813 924.3594,698.0469 Q924.625,698.2969 924.625,698.6406 Q924.625,698.9844 924.2813,699.3906 Q923.7813,699.9688 922.9844,700.2969 Q921.9063,700.75 920.6094,700.75 Q919.0938,700.75 917.8906,700.125 Q916.9063,699.625 916.2188,698.5625 Q915.5313,697.4844 915.5313,696.2031 L915.5313,695.0469 Q915.5313,693.7188 916.1406,692.5781 Q916.7656,691.4219 917.8594,690.8125 Q918.9531,690.1875 920.1875,690.1875 Q920.9219,690.1875 921.5625,690.3594 Q922.2188,690.5156 922.7656,690.875 Z " fill="#000000"/><text fill="#000000" font-family="sans-serif" font-size="14" lengthAdjust="spacing" textLength="172" x="934" y="700.7285">connect4.utils.menu.Option</text><line style="stroke:#181818;stroke-width:0.5;" x1="906" x2="1108" y1="711" y2="711"/><line style="stroke:#181818;stroke-width:0.5;" x1="906" x2="1108" y1="719" y2="719"/></g><!--class SecuentialMenu--><g id="elem_SecuentialMenu"><rect codeLine="62" fill="#F1F1F1" height="48" id="SecuentialMenu" rx="2.5" ry="2.5" style="stroke:#181818;stroke-width:0.5;" width="263" x="1093.5" y="564.5"/><ellipse cx="1108.5" cy="580.5" fill="#ADD1B2" rx="11" ry="11" style="stroke:#181818;stroke-width:1.0;"/><path d="M1111.2656,576.375 Q1111.4219,576.1563 1111.6094,576.0469 Q1111.7969,575.9375 1112.0156,575.9375 Q1112.3906,575.9375 1112.625,576.2031 Q1112.8594,576.4531 1112.8594,577.0625 L1112.8594,578.5156 Q1112.8594,579.125 1112.625,579.3906 Q1112.3906,579.6563 1112.0156,579.6563 Q1111.6719,579.6563 1111.4688,579.4531 Q1111.2656,579.2656 1111.1563,578.75 Q1111.1094,578.3906 1110.9219,578.2031 Q1110.5938,577.8281 1109.9844,577.6094 Q1109.375,577.3906 1108.75,577.3906 Q1107.9844,577.3906 1107.3438,577.7188 Q1106.7188,578.0469 1106.2188,578.7969 Q1105.7344,579.5469 1105.7344,580.5781 L1105.7344,581.6719 Q1105.7344,582.9063 1106.625,583.7344 Q1107.5156,584.5469 1109.1094,584.5469 Q1110.0469,584.5469 1110.7031,584.2969 Q1111.0938,584.1406 1111.5156,583.7031 Q1111.7813,583.4375 1111.9219,583.3594 Q1112.0781,583.2813 1112.2813,583.2813 Q1112.6094,583.2813 1112.8594,583.5469 Q1113.125,583.7969 1113.125,584.1406 Q1113.125,584.4844 1112.7813,584.8906 Q1112.2813,585.4688 1111.4844,585.7969 Q1110.4063,586.25 1109.1094,586.25 Q1107.5938,586.25 1106.3906,585.625 Q1105.4063,585.125 1104.7188,584.0625 Q1104.0313,582.9844 1104.0313,581.7031 L1104.0313,580.5469 Q1104.0313,579.2188 1104.6406,578.0781 Q1105.2656,576.9219 1106.3594,576.3125 Q1107.4531,575.6875 1108.6875,575.6875 Q1109.4219,575.6875 1110.0625,575.8594 Q1110.7188,576.0156 1111.2656,576.375 Z " fill="#000000"/><text fill="#000000" font-family="sans-serif" font-size="14" lengthAdjust="spacing" textLength="231" x="1122.5" y="586.2285">connect4.utils.menu.SecuentialMenu</text><line style="stroke:#181818;stroke-width:0.5;" x1="1094.5" x2="1355.5" y1="596.5" y2="596.5"/><line style="stroke:#181818;stroke-width:0.5;" x1="1094.5" x2="1355.5" y1="604.5" y2="604.5"/></g><!--class Coordinate--><g id="elem_Coordinate"><rect codeLine="63" fill="#F1F1F1" height="48" id="Coordinate" rx="2.5" ry="2.5" style="stroke:#181818;stroke-width:0.5;" width="194" x="1339" y="444.5"/><ellipse cx="1354" cy="460.5" fill="#ADD1B2" rx="11" ry="11" style="stroke:#181818;stroke-width:1.0;"/><path d="M1356.7656,456.375 Q1356.9219,456.1563 1357.1094,456.0469 Q1357.2969,455.9375 1357.5156,455.9375 Q1357.8906,455.9375 1358.125,456.2031 Q1358.3594,456.4531 1358.3594,457.0625 L1358.3594,458.5156 Q1358.3594,459.125 1358.125,459.3906 Q1357.8906,459.6563 1357.5156,459.6563 Q1357.1719,459.6563 1356.9688,459.4531 Q1356.7656,459.2656 1356.6563,458.75 Q1356.6094,458.3906 1356.4219,458.2031 Q1356.0938,457.8281 1355.4844,457.6094 Q1354.875,457.3906 1354.25,457.3906 Q1353.4844,457.3906 1352.8438,457.7188 Q1352.2188,458.0469 1351.7188,458.7969 Q1351.2344,459.5469 1351.2344,460.5781 L1351.2344,461.6719 Q1351.2344,462.9063 1352.125,463.7344 Q1353.0156,464.5469 1354.6094,464.5469 Q1355.5469,464.5469 1356.2031,464.2969 Q1356.5938,464.1406 1357.0156,463.7031 Q1357.2813,463.4375 1357.4219,463.3594 Q1357.5781,463.2813 1357.7813,463.2813 Q1358.1094,463.2813 1358.3594,463.5469 Q1358.625,463.7969 1358.625,464.1406 Q1358.625,464.4844 1358.2813,464.8906 Q1357.7813,465.4688 1356.9844,465.7969 Q1355.9063,466.25 1354.6094,466.25 Q1353.0938,466.25 1351.8906,465.625 Q1350.9063,465.125 1350.2188,464.0625 Q1349.5313,462.9844 1349.5313,461.7031 L1349.5313,460.5469 Q1349.5313,459.2188 1350.1406,458.0781 Q1350.7656,456.9219 1351.8594,456.3125 Q1352.9531,455.6875 1354.1875,455.6875 Q1354.9219,455.6875 1355.5625,455.8594 Q1356.2188,456.0156 1356.7656,456.375 Z " fill="#000000"/><text fill="#000000" font-family="sans-serif" font-size="14" lengthAdjust="spacing" textLength="162" x="1368" y="466.2285">connect4.Utils.Coordinate</text><line style="stroke:#181818;stroke-width:0.5;" x1="1340" x2="1532" y1="476.5" y2="476.5"/><line style="stroke:#181818;stroke-width:0.5;" x1="1340" x2="1532" y1="484.5" y2="484.5"/></g><!--class Console--><g id="elem_Console"><rect codeLine="64" fill="#F1F1F1" height="48" id="Console" rx="2.5" ry="2.5" style="stroke:#181818;stroke-width:0.5;" width="175" x="742.5" y="7"/><ellipse cx="757.5" cy="23" fill="#ADD1B2" rx="11" ry="11" style="stroke:#181818;stroke-width:1.0;"/><path d="M760.2656,18.875 Q760.4219,18.6563 760.6094,18.5469 Q760.7969,18.4375 761.0156,18.4375 Q761.3906,18.4375 761.625,18.7031 Q761.8594,18.9531 761.8594,19.5625 L761.8594,21.0156 Q761.8594,21.625 761.625,21.8906 Q761.3906,22.1563 761.0156,22.1563 Q760.6719,22.1563 760.4688,21.9531 Q760.2656,21.7656 760.1563,21.25 Q760.1094,20.8906 759.9219,20.7031 Q759.5938,20.3281 758.9844,20.1094 Q758.375,19.8906 757.75,19.8906 Q756.9844,19.8906 756.3438,20.2188 Q755.7188,20.5469 755.2188,21.2969 Q754.7344,22.0469 754.7344,23.0781 L754.7344,24.1719 Q754.7344,25.4063 755.625,26.2344 Q756.5156,27.0469 758.1094,27.0469 Q759.0469,27.0469 759.7031,26.7969 Q760.0938,26.6406 760.5156,26.2031 Q760.7813,25.9375 760.9219,25.8594 Q761.0781,25.7813 761.2813,25.7813 Q761.6094,25.7813 761.8594,26.0469 Q762.125,26.2969 762.125,26.6406 Q762.125,26.9844 761.7813,27.3906 Q761.2813,27.9688 760.4844,28.2969 Q759.4063,28.75 758.1094,28.75 Q756.5938,28.75 755.3906,28.125 Q754.4063,27.625 753.7188,26.5625 Q753.0313,25.4844 753.0313,24.2031 L753.0313,23.0469 Q753.0313,21.7188 753.6406,20.5781 Q754.2656,19.4219 755.3594,18.8125 Q756.4531,18.1875 757.6875,18.1875 Q758.4219,18.1875 759.0625,18.3594 Q759.7188,18.5156 760.2656,18.875 Z " fill="#000000"/><text fill="#000000" font-family="sans-serif" font-size="14" lengthAdjust="spacing" textLength="143" x="771.5" y="28.7285">connect4.utils.Console</text><line style="stroke:#181818;stroke-width:0.5;" x1="743.5" x2="916.5" y1="39" y2="39"/><line style="stroke:#181818;stroke-width:0.5;" x1="743.5" x2="916.5" y1="47" y2="47"/></g><!--class Player--><g id="elem_Player"><rect codeLine="65" fill="#F1F1F1" height="61.2188" id="Player" rx="2.5" ry="2.5" style="stroke:#181818;stroke-width:0.5;" width="156" x="902" y="895"/><ellipse cx="917" cy="917.6094" fill="#ADD1B2" rx="11" ry="11" style="stroke:#181818;stroke-width:1.0;"/><path d="M919.7656,913.4844 Q919.9219,913.2656 920.1094,913.1563 Q920.2969,913.0469 920.5156,913.0469 Q920.8906,913.0469 921.125,913.3125 Q921.3594,913.5625 921.3594,914.1719 L921.3594,915.625 Q921.3594,916.2344 921.125,916.5 Q920.8906,916.7656 920.5156,916.7656 Q920.1719,916.7656 919.9688,916.5625 Q919.7656,916.375 919.6563,915.8594 Q919.6094,915.5 919.4219,915.3125 Q919.0938,914.9375 918.4844,914.7188 Q917.875,914.5 917.25,914.5 Q916.4844,914.5 915.8438,914.8281 Q915.2188,915.1563 914.7188,915.9063 Q914.2344,916.6563 914.2344,917.6875 L914.2344,918.7813 Q914.2344,920.0156 915.125,920.8438 Q916.0156,921.6563 917.6094,921.6563 Q918.5469,921.6563 919.2031,921.4063 Q919.5938,921.25 920.0156,920.8125 Q920.2813,920.5469 920.4219,920.4688 Q920.5781,920.3906 920.7813,920.3906 Q921.1094,920.3906 921.3594,920.6563 Q921.625,920.9063 921.625,921.25 Q921.625,921.5938 921.2813,922 Q920.7813,922.5781 919.9844,922.9063 Q918.9063,923.3594 917.6094,923.3594 Q916.0938,923.3594 914.8906,922.7344 Q913.9063,922.2344 913.2188,921.1719 Q912.5313,920.0938 912.5313,918.8125 L912.5313,917.6563 Q912.5313,916.3281 913.1406,915.1875 Q913.7656,914.0313 914.8594,913.4219 Q915.9531,912.7969 917.1875,912.7969 Q917.9219,912.7969 918.5625,912.9688 Q919.2188,913.125 919.7656,913.4844 Z " fill="#000000"/><text fill="#000000" font-family="sans-serif" font-size="14" lengthAdjust="spacing" textLength="124" x="931" y="914.5332">connect4.connect4.</text><text fill="#000000" font-family="sans-serif" font-size="14" lengthAdjust="spacing" textLength="89" x="948.5" y="932.1426">models.Player</text><line style="stroke:#181818;stroke-width:0.5;" x1="903" x2="1057" y1="940.2188" y2="940.2188"/><line style="stroke:#181818;stroke-width:0.5;" x1="903" x2="1057" y1="948.2188" y2="948.2188"/></g><!--class PlayerType--><g id="elem_PlayerType"><rect codeLine="66" fill="#F1F1F1" height="61.2188" id="PlayerType" rx="2.5" ry="2.5" style="stroke:#181818;stroke-width:0.5;" width="156" x="902" y="558"/><ellipse cx="917" cy="580.6094" fill="#EB937F" rx="11" ry="11" style="stroke:#181818;stroke-width:1.0;"/><path d="M915.8594,581.4063 L915.8594,583.9063 L920.1875,583.9063 L920.1875,582.9844 Q920.1875,582.375 920.4219,582.1094 Q920.6719,581.8438 921.0469,581.8438 Q921.4219,581.8438 921.6563,582.1094 Q921.8906,582.375 921.8906,582.9844 L921.8906,585.6094 L913.8906,585.6094 Q913.2656,585.6094 913,585.375 Q912.75,585.1406 912.75,584.75 Q912.75,584.375 913.0156,584.1406 Q913.2813,583.9063 913.8906,583.9063 L914.1563,583.9063 L914.1563,577.25 L913.8906,577.25 Q913.2656,577.25 913,577.0156 Q912.75,576.7813 912.75,576.3906 Q912.75,576.0156 913,575.7813 Q913.2656,575.5469 913.8906,575.5469 L921.5156,575.5469 L921.5156,578.1406 Q921.5156,578.75 921.2813,579.0156 Q921.0625,579.2656 920.6719,579.2656 Q920.2969,579.2656 920.0625,579.0156 Q919.8281,578.75 919.8281,578.1406 L919.8281,577.25 L915.8594,577.25 L915.8594,579.7031 L917.3438,579.7031 Q917.3438,579.0469 917.4688,578.8594 Q917.7344,578.4531 918.2031,578.4531 Q918.5781,578.4531 918.8125,578.7188 Q919.0469,578.9688 919.0469,579.5781 L919.0469,581.5469 Q919.0469,582.0938 918.9219,582.2813 Q918.6563,582.6719 918.2031,582.6719 Q917.7344,582.6719 917.4688,582.2656 Q917.3438,582.0781 917.3438,581.4063 L915.8594,581.4063 Z " fill="#000000"/><text fill="#000000" font-family="sans-serif" font-size="14" lengthAdjust="spacing" textLength="124" x="931" y="577.5332">connect4.connect4.</text><text fill="#000000" font-family="sans-serif" font-size="14" lengthAdjust="spacing" textLength="110" x="938" y="595.1426">types.PlayerType</text><line style="stroke:#181818;stroke-width:0.5;" x1="903" x2="1057" y1="603.2188" y2="603.2188"/><line style="stroke:#181818;stroke-width:0.5;" x1="903" x2="1057" y1="611.2188" y2="611.2188"/></g><!--reverse link View to Consoleview--><g id="link_View_Consoleview"><path codeLine="24" d="M677,73 C677,90.66 677,96.94 677,114.68 " fill="none" id="View-backto-Consoleview" style="stroke:#181818;stroke-width:1.0;"/><polygon fill="none" points="677,55,671,73,683,73,677,55" style="stroke:#181818;stroke-width:1.0;"/></g><!--link Consoleview to StartView--><g id="link_Consoleview_StartView"><path codeLine="25" d="M640.7269,170.7602 C619.8969,188.4202 604.9962,201.0594 584.0762,218.7994 " fill="none" id="Consoleview-StartView" style="stroke:#181818;stroke-width:1.0;"/><polygon fill="#181818" points="649.88,163,642.7167,163.829,640.7269,170.7602,647.8902,169.9311,649.88,163" style="stroke:#181818;stroke-width:1.0;"/><polygon fill="#181818" points="579.5,222.68,588.9513,219.9099,583.3135,219.4462,583.7772,213.8084,579.5,222.68" style="stroke:#181818;stroke-width:1.0;"/></g><!--link Consoleview to PlayView--><g id="link_Consoleview_PlayView"><path codeLine="26" d="M677,175 C677,192.66 677,198.94 677,216.68 " fill="none" id="Consoleview-PlayView" style="stroke:#181818;stroke-width:1.0;"/><polygon fill="#181818" points="677,163,673,169,677,175,681,169,677,163" style="stroke:#181818;stroke-width:1.0;"/><polygon fill="#181818" points="677,222.68,681,213.68,677,217.68,673,213.68,677,222.68" style="stroke:#181818;stroke-width:1.0;"/></g><!--link Consoleview to ResumeView--><g id="link_Consoleview_ResumeView"><path codeLine="27" d="M715.975,170.3765 C738.635,188.0365 755.5877,201.2515 778.3477,218.9915 " fill="none" id="Consoleview-ResumeView" style="stroke:#181818;stroke-width:1.0;"/><polygon fill="#181818" points="706.51,163,708.7837,169.8433,715.975,170.3765,713.7014,163.5333,706.51,163" style="stroke:#181818;stroke-width:1.0;"/><polygon fill="#181818" points="783.08,222.68,778.4406,213.9923,779.1364,219.6062,773.5225,220.3021,783.08,222.68" style="stroke:#181818;stroke-width:1.0;"/></g><!--link StartView to Logic--><g id="link_StartView_Logic"><path codeLine="31" d="M597.8,265.8 C603.54,267.71 609.37,269.5 615,271 C827.23,327.56 1447.5,271.01 1589,439 C1602.98,455.6 1607.49,568.77 1585,619 C1573.65,644.34 1555.3994,662.1359 1535.8794,676.8659 " fill="none" id="StartView-to-Logic" style="stroke:#181818;stroke-width:1.0;"/><polygon fill="#181818" points="1531.09,680.48,1540.6835,678.2517,1535.0811,677.4682,1535.8647,671.8659,1531.09,680.48" style="stroke:#181818;stroke-width:1.0;"/></g><!--link PlayView to Logic--><g id="link_PlayView_Logic"><path codeLine="32" d="M721.24,266.18 C727.14,268.07 733.16,269.76 739,271 C841.81,292.84 1611.08,254.36 1683,331 C1770.59,424.34 1752.56,511.55 1683,619 C1649.33,671.01 1580.4383,689.7532 1536.9583,697.0032 " fill="none" id="PlayView-to-Logic" style="stroke:#181818;stroke-width:1.0;"/><polygon fill="#181818" points="1531.04,697.99,1540.5753,700.4553,1535.9719,697.1676,1539.2595,692.5642,1531.04,697.99" style="stroke:#181818;stroke-width:1.0;"/></g><!--link ResumeView to Logic--><g id="link_ResumeView_Logic"><path codeLine="33" d="M869.69,248.65 C1063.94,251.47 1694.12,265.61 1754,331 C1840.44,425.4 1829.27,515.47 1754,619 C1702.21,690.23 1593.889,701.462 1537.209,702.482 " fill="none" id="ResumeView-to-Logic" style="stroke:#181818;stroke-width:1.0;"/><polygon fill="#181818" points="1531.21,702.59,1540.2805,706.4274,1536.2092,702.5,1540.1366,698.4287,1531.21,702.59" style="stroke:#181818;stroke-width:1.0;"/></g><!--link StartView to TurnView--><g id="link_StartView_TurnView"><path codeLine="35" d="M549.83,271 C548.16,288.66 546.4323,306.9664 544.7623,324.7064 " fill="none" id="StartView-to-TurnView" style="stroke:#181818;stroke-width:1.0;stroke-dasharray:7.0,7.0;"/><polygon fill="#181818" points="544.2,330.68,549.0259,322.0945,544.6686,325.702,541.0611,321.3447,544.2,330.68" style="stroke:#181818;stroke-width:1.0;"/></g><!--link StartView to BoardView--><g id="link_StartView_BoardView"><path codeLine="36" d="M578.04,271 C598.03,288.66 621.0235,308.9675 641.1035,326.7075 " fill="none" id="StartView-to-BoardView" style="stroke:#181818;stroke-width:1.0;stroke-dasharray:7.0,7.0;"/><polygon fill="#181818" points="645.6,330.68,641.5035,321.7235,641.8529,327.3695,636.2068,327.7189,645.6,330.68" style="stroke:#181818;stroke-width:1.0;"/></g><!--link PlayView to TurnView--><g id="link_PlayView_TurnView"><path codeLine="38" d="M647.71,271 C625.22,288.66 599.0089,309.2343 576.4189,326.9743 " fill="none" id="PlayView-to-TurnView" style="stroke:#181818;stroke-width:1.0;stroke-dasharray:7.0,7.0;"/><polygon fill="#181818" points="571.7,330.68,581.2488,328.2673,575.6324,327.5919,576.3078,321.9755,571.7,330.68" style="stroke:#181818;stroke-width:1.0;"/></g><!--link PlayView to BoardView--><g id="link_PlayView_BoardView"><path codeLine="39" d="M675.92,271 C675.08,288.66 674.2238,306.9467 673.3838,324.6867 " fill="none" id="PlayView-to-BoardView" style="stroke:#181818;stroke-width:1.0;stroke-dasharray:7.0,7.0;"/><polygon fill="#181818" points="673.1,330.68,677.5212,321.8793,673.3365,325.6856,669.5302,321.5009,673.1,330.68" style="stroke:#181818;stroke-width:1.0;"/></g><!--link ResumeView to YesNoDialog--><g id="link_ResumeView_YesNoDialog"><path codeLine="41" d="M813,271 C813,288.66 813,306.94 813,324.68 " fill="none" id="ResumeView-to-YesNoDialog" style="stroke:#181818;stroke-width:1.0;stroke-dasharray:7.0,7.0;"/><polygon fill="#181818" points="813,330.68,817,321.68,813,325.68,809,321.68,813,330.68" style="stroke:#181818;stroke-width:1.0;"/></g><!--link TurnView to PlayerView--><g id="link_TurnView_PlayerView"><path codeLine="43" d="M506.33,379.04 C481.33,395.39 447.29,418.06 418,439 C298.52,524.4 165.5938,628.5752 106.7838,675.1452 " fill="none" id="TurnView-to-PlayerView" style="stroke:#181818;stroke-width:1.0;stroke-dasharray:7.0,7.0;"/><polygon fill="#181818" points="102.08,678.87,111.6189,676.4187,105.9998,675.766,106.6525,670.1469,102.08,678.87" style="stroke:#181818;stroke-width:1.0;"/></g><!--reverse link PlayerView to UserPlayerView--><g id="link_PlayerView_UserPlayerView"><path codeLine="45" d="M140.8019,727.4721 C146.6319,729.2321 135.3,725.65 141,727 C332.96,772.29 565.65,795.73 676.78,805.06 " fill="none" id="PlayerView-backto-UserPlayerView" style="stroke:#181818;stroke-width:1.0;"/><polygon fill="none" points="123.57,722.27,139.0679,733.216,142.5359,721.7281,123.57,722.27" style="stroke:#181818;stroke-width:1.0;"/></g><!--reverse link PlayerView to MachinePlayerView--><g id="link_PlayerView_MachinePlayerView"><path codeLine="46" d="M139.9962,733.4681 C180.4362,751.2581 220.5,768.87 261.46,786.89 " fill="none" id="PlayerView-backto-MachinePlayerView" style="stroke:#181818;stroke-width:1.0;"/><polygon fill="none" points="123.52,726.22,137.5802,738.9601,142.4122,727.976,123.52,726.22" style="stroke:#181818;stroke-width:1.0;"/></g><!--reverse link MachinePlayerView to MinMaxMachinePlayerView--><g id="link_MachinePlayerView_MinMaxMachinePlayerView"><path codeLine="47" d="M365.207,844.7335 C395.577,864.1435 423.65,882.09 454.01,901.49 " fill="none" id="MachinePlayerView-backto-MinMaxMachinePlayerView" style="stroke:#181818;stroke-width:1.0;"/><polygon fill="none" points="350.04,835.04,361.9758,849.7891,368.4381,839.6778,350.04,835.04" style="stroke:#181818;stroke-width:1.0;"/></g><!--reverse link MachinePlayerView to RandomMachinePlayerView--><g id="link_MachinePlayerView_RandomMachinePlayerView"><path codeLine="48" d="M292.3049,850.745 C281.4349,870.155 274.75,882.09 263.88,901.49 " fill="none" id="MachinePlayerView-backto-RandomMachinePlayerView" style="stroke:#181818;stroke-width:1.0;"/><polygon fill="none" points="301.1,835.04,287.0699,847.8133,297.5399,853.6767,301.1,835.04" style="stroke:#181818;stroke-width:1.0;"/></g><!--reverse link TurnOption to SetRandomMachinePlayerOption--><g id="link_TurnOption_SetRandomMachinePlayerOption"><path codeLine="50" d="M713.8585,615.0862 C661.3185,634.5262 597.19,658.26 541.33,678.93 " fill="none" id="TurnOption-backto-SetRandomMachinePlayerOption" style="stroke:#181818;stroke-width:1.0;"/><polygon fill="none" points="730.74,608.84,711.7764,609.4591,715.9406,620.7134,730.74,608.84" style="stroke:#181818;stroke-width:1.0;"/></g><!--reverse link TurnOption to SetMinMaxMachinePlayerOption--><g id="link_TurnOption_SetMinMaxMachinePlayerOption"><path codeLine="51" d="M771.867,629.8929 C766.517,649.3029 763.69,659.59 758.34,678.99 " fill="none" id="TurnOption-backto-SetMinMaxMachinePlayerOption" style="stroke:#181818;stroke-width:1.0;"/><polygon fill="none" points="776.65,612.54,766.0827,628.2986,777.6513,631.4872,776.65,612.54" style="stroke:#181818;stroke-width:1.0;"/></g><!--reverse link TurnOption to SetUserPlayerOption--><g id="link_TurnOption_SetUserPlayerOption"><path codeLine="52" d="M713.1824,603.0434 C630.4224,619.1734 481.62,648.6 341,679 C335.17,680.26 329.15,681.59 323.09,682.94 " fill="none" id="TurnOption-backto-SetUserPlayerOption" style="stroke:#181818;stroke-width:1.0;"/><polygon fill="none" points="730.85,599.6,712.0346,597.1542,714.3302,608.9326,730.85,599.6" style="stroke:#181818;stroke-width:1.0;"/></g><!--link TurnView to TurnMenu--><g id="link_TurnView_TurnMenu"><path codeLine="54" d="M587.59,375.55 C634.04,395.47 700.326,423.8945 747.856,444.2845 " fill="none" id="TurnView-to-TurnMenu" style="stroke:#181818;stroke-width:1.0;stroke-dasharray:7.0,7.0;"/><polygon fill="#181818" points="753.37,446.65,746.6759,439.4258,748.775,444.6788,743.522,446.7778,753.37,446.65" style="stroke:#181818;stroke-width:1.0;"/></g><!--reverse link TurnMenu to TurnOption--><g id="link_TurnMenu_TurnOption"><path codeLine="55" d="M796.3861,504.378 C793.0661,525.038 790.11,543.36 786.76,564.12 " fill="none" id="TurnMenu-backto-TurnOption" style="stroke:#181818;stroke-width:1.0;"/><polygon fill="none" points="798.29,492.53,793.3887,497.8194,796.3861,504.378,801.2874,499.0886,798.29,492.53" style="stroke:#181818;stroke-width:1.0;"/></g><!--link TurnView to PlayerViewPrototypeDirector--><g id="link_TurnView_PlayerViewPrototypeDirector"><path codeLine="56" d="M542,379.1 C542,396.45 542,414.32 542,432.88 " fill="none" id="TurnView-to-PlayerViewPrototypeDirector" style="stroke:#181818;stroke-width:1.0;stroke-dasharray:7.0,7.0;"/><polygon fill="#181818" points="542,438.88,546,429.88,542,433.88,538,429.88,542,438.88" style="stroke:#181818;stroke-width:1.0;"/></g><!--link PlayerViewPrototypeDirector to PlayerViewPrototypeRegistry--><g id="link_PlayerViewPrototypeDirector_PlayerViewPrototypeRegistry"><path codeLine="58" d="M522.39,498.06 C509.75,516.48 496.7647,535.3927 484.1047,553.8427 " fill="none" id="PlayerViewPrototypeDirector-to-PlayerViewPrototypeRegistry" style="stroke:#181818;stroke-width:1.0;stroke-dasharray:7.0,7.0;"/><polygon fill="#181818" points="480.71,558.79,489.1003,553.6322,483.5389,554.6672,482.5039,549.1059,480.71,558.79" style="stroke:#181818;stroke-width:1.0;"/></g><!--reverse link PlayerViewPrototypeRegistry to PlayerView--><g id="link_PlayerViewPrototypeRegistry_PlayerView"><path codeLine="59" d="M342.3391,621.0536 C279.9691,637.9836 211.55,657.22 141,679 C135.4,680.73 129.57,682.6 123.77,684.5 " fill="none" id="PlayerViewPrototypeRegistry-backto-PlayerView" style="stroke:#181818;stroke-width:1.0;"/><polygon fill="none" points="353.92,617.91,347.0817,615.6215,342.3391,621.0536,349.1774,623.3421,353.92,617.91" style="stroke:#181818;stroke-width:1.0;"/></g><!--link TurnOption to Option--><g id="link_TurnOption_Option"><path codeLine="68" d="M828.87,612.54 C867.53,631.95 906.4637,651.5135 945.1037,670.9135 " fill="none" id="TurnOption-to-Option" style="stroke:#181818;stroke-width:1.0;"/><polygon fill="none" points="961.19,678.99,947.7958,665.5514,942.4115,676.2756,961.19,678.99" style="stroke:#181818;stroke-width:1.0;"/></g><!--link TurnMenu to SecuentialMenu--><g id="link_TurnMenu_SecuentialMenu"><path codeLine="69" d="M850.52,483.04 C921.7,502.89 1038.0322,535.3427 1124.9122,559.5827 " fill="none" id="TurnMenu-to-SecuentialMenu" style="stroke:#181818;stroke-width:1.0;"/><polygon fill="none" points="1142.25,564.42,1126.5246,553.8034,1123.2997,565.3619,1142.25,564.42" style="stroke:#181818;stroke-width:1.0;"/></g><!--link BoardView to Logic--><g id="link_BoardView_Logic"><path codeLine="70" d="M721.73,374.64 C727.5,376.33 733.34,377.84 739,379 C827.62,397.17 1489.43,372.71 1551,439 C1614.08,506.91 1550.3342,623.1321 1517.3642,673.7621 " fill="none" id="BoardView-to-Logic" style="stroke:#181818;stroke-width:1.0;"/><polygon fill="#181818" points="1514.09,678.79,1522.3532,673.4309,1516.8185,674.6001,1515.6493,669.0654,1514.09,678.79" style="stroke:#181818;stroke-width:1.0;"/></g><!--link BoardView to Coordinate--><g id="link_BoardView_Coordinate"><path codeLine="71" d="M721.77,374.46 C727.53,376.19 733.36,377.75 739,379 C989.03,434.26 1059.42,396.91 1312,439 C1321.48,440.58 1325.4424,441.2345 1335.2424,443.2445 " fill="none" id="BoardView-to-Coordinate" style="stroke:#181818;stroke-width:1.0;stroke-dasharray:7.0,7.0;"/><polygon fill="#181818" points="1341.12,444.45,1333.1072,438.7233,1336.222,443.4454,1331.4999,446.5602,1341.12,444.45" style="stroke:#181818;stroke-width:1.0;"/></g><!--reverse link MachinePlayerView to Player--><g id="link_MachinePlayerView_Player"><path codeLine="72" d="M403.4481,820.4869 C514.1081,831.7669 711.36,855.2 886,895 C891.17,896.18 896.47,897.5 901.78,898.92 " fill="none" id="MachinePlayerView-backto-Player" style="stroke:#181818;stroke-width:1.0;"/><polygon fill="#181818" points="391.51,819.27,397.0734,823.8578,403.4481,820.4869,397.8847,815.8991,391.51,819.27" style="stroke:#181818;stroke-width:1.0;"/></g><!--reverse link UserPlayerView to Player--><g id="link_UserPlayerView_Player"><path codeLine="73" d="M801.5891,840.168 C838.1691,857.458 877.71,876.15 917.29,894.86 " fill="none" id="UserPlayerView-backto-Player" style="stroke:#181818;stroke-width:1.0;"/><polygon fill="#181818" points="790.74,835.04,794.4552,841.2204,801.5891,840.168,797.8739,833.9876,790.74,835.04" style="stroke:#181818;stroke-width:1.0;"/></g><!--link TurnView to Logic--><g id="link_TurnView_Logic"><path codeLine="74" d="M587.66,378.9 C587.78,378.94 587.89,378.97 588,379 C769.06,431.33 1270.76,439.11 1417,558 C1454.89,588.81 1468.9531,641.0421 1481.0331,673.2521 " fill="none" id="TurnView-to-Logic" style="stroke:#181818;stroke-width:1.0;"/><polygon fill="#181818" points="1483.14,678.87,1483.7249,669.0385,1481.3842,674.1884,1476.2343,671.8478,1483.14,678.87" style="stroke:#181818;stroke-width:1.0;"/></g><!--link TurnView to Logic--><g id="link_TurnView_Logic"><path codeLine="75" d="M587.79,367.49 C599.51,371.47 611.7,375.73 623,379 C804.06,431.33 1305.76,439.11 1452,558 C1489.89,588.81 1506.0209,640.6601 1506.2309,672.8701 " fill="none" id="TurnView-to-Logic-1" style="stroke:#181818;stroke-width:1.0;"/><polygon fill="#181818" points="1506.27,678.87,1510.2112,669.8441,1506.2374,673.8701,1502.2114,669.8963,1506.27,678.87" style="stroke:#181818;stroke-width:1.0;"/></g><!--link TurnMenu to Logic--><g id="link_TurnMenu_Logic"><path codeLine="76" d="M850.78,472.72 C972.08,481.4 1284.05,508.08 1374,558 C1425.78,586.74 1462.8629,640.8013 1482.2229,673.6413 " fill="none" id="TurnMenu-to-Logic" style="stroke:#181818;stroke-width:1.0;"/><polygon fill="#181818" points="1485.27,678.81,1484.1452,669.0256,1482.7308,674.5028,1477.2536,673.0883,1485.27,678.81" style="stroke:#181818;stroke-width:1.0;"/></g><!--link TurnOption to Logic--><g id="link_TurnOption_Logic"><path codeLine="77" d="M835.04,606.32 C850.66,610.92 867.92,615.58 884,619 C1103.12,665.54 1366.0721,690.7754 1458.7721,698.7554 " fill="none" id="TurnOption-to-Logic" style="stroke:#181818;stroke-width:1.0;"/><polygon fill="#181818" points="1464.75,699.27,1456.1262,694.5128,1459.7684,698.8412,1455.4401,702.4834,1464.75,699.27" style="stroke:#181818;stroke-width:1.0;"/></g><!--link PlayerViewPrototypeDirector to PlayerType--><g id="link_PlayerViewPrototypeDirector_PlayerType"><path codeLine="78" d="M648.16,495.29 C716.35,512.23 806.69,535.37 886,558 C891.18,559.48 890.7607,559.3238 896.1207,560.9238 " fill="none" id="PlayerViewPrototypeDirector-to-PlayerType" style="stroke:#181818;stroke-width:1.0;stroke-dasharray:7.0,7.0;"/><polygon fill="#181818" points="901.87,562.64,894.3902,556.2328,897.0789,561.2098,892.1019,563.8986,901.87,562.64" style="stroke:#181818;stroke-width:1.0;"/></g><!--SRC=[XLJBRkiW4Dtp5IZBIlRgBYClsYwRUwlq8LNgXZgZ5Cc62l1j8_NZ2xQ18K2wiV1v03EUutvWMjF_73vrUoE5bWEu5z8Z_C4mPPxFqVk1dJ9m3teQ8OEl9LE737sSb9X1zgQDOhsXv_k3glCxrhzp0KYMi5pisDTbpPw9WnmlQvuqg0hbhhy3CPMlvzX_7uPBaVOIJE7Oih1GGraOBxdozbQZRmHepOwGM5v0_vMtd0toICejlrVII7FwW5kke3TIqUtMBxlkDzCUZjosv6HD6MRTgtrkg7lGxNVJK3HzbE2NgwRfQ9p1Z0g3c35e6jSpx-IHzuI4tQYJBQ3V1a7HZq1aRjkEXY5EuJZnSUD4dg18ZSvq3FvKn9jd1aqbYUkbbsTJUqxd8vyXgx2Ieegy5YWImx08BwQW8AudeI3Eqf3sBSJMBwYqFXJNIfUpIE2svtcfc7qCoANOk0lXzYspkvR9DDtqKWXxp9zsCdpGxMYhQ1TwiueVe9z063iuSuarKohpvXifrO4BPY0rFit6o4Rz7BpIAIlbbKjLgJ0iNiKe3p3uNyfc-OqjBu-sFrMRQvvtEU4ccRYc-Uue-hPpGsOmhPw45AAqHynzq5Xw8G9NuQkHD7-O2SCLZwX0wpKn50h2_wpV1z2rX90V]--></g></svg>