<?xml version="1.0" encoding="us-ascii" standalone="no"?><svg xmlns="http://www.w3.org/2000/svg" xmlns:xlink="http://www.w3.org/1999/xlink" contentStyleType="text/css" height="972px" preserveAspectRatio="none" style="width:1757px;height:972px;background:#FFFFFF;" version="1.1" viewBox="0 0 1757 972" width="1757px" zoomAndPan="magnify"><defs/><g><!--cluster views--><g id="cluster_views"><path d="M8.5,79 L50.5,79 A3.75,3.75 0 0 1 53,81.5 L60,102.6094 L882.5,102.6094 A2.5,2.5 0 0 1 885,105.1094 L885,963 A2.5,2.5 0 0 1 882.5,965.5 L8.5,965.5 A2.5,2.5 0 0 1 6,963 L6,81.5 A2.5,2.5 0 0 1 8.5,79 " fill="none" style="stroke:#000000;stroke-width:1.5;"/><line style="stroke:#000000;stroke-width:1.5;" x1="6" x2="60" y1="102.6094" y2="102.6094"/><text fill="#000000" font-family="sans-serif" font-size="14" font-weight="bold" lengthAdjust="spacing" textLength="41" x="10" y="95.5332">views</text></g><!--class Consoleview--><g id="elem_Consoleview"><rect codeLine="2" fill="#F1F1F1" height="48" id="Consoleview" rx="2.5" ry="2.5" style="stroke:#181818;stroke-width:0.5;" width="111" x="619.5" y="115"/><ellipse cx="634.5" cy="131" fill="#ADD1B2" rx="11" ry="11" style="stroke:#181818;stroke-width:1.0;"/><path d="M637.2656,126.875 Q637.4219,126.6563 637.6094,126.5469 Q637.7969,126.4375 638.0156,126.4375 Q638.3906,126.4375 638.625,126.7031 Q638.8594,126.9531 638.8594,127.5625 L638.8594,129.0156 Q638.8594,129.625 638.625,129.8906 Q638.3906,130.1563 638.0156,130.1563 Q637.6719,130.1563 637.4688,129.9531 Q637.2656,129.7656 637.1563,129.25 Q637.1094,128.8906 636.9219,128.7031 Q636.5938,128.3281 635.9844,128.1094 Q635.375,127.8906 634.75,127.8906 Q633.9844,127.8906 633.3438,128.2188 Q632.7188,128.5469 632.2188,129.2969 Q631.7344,130.0469 631.7344,131.0781 L631.7344,132.1719 Q631.7344,133.4063 632.625,134.2344 Q633.5156,135.0469 635.1094,135.0469 Q636.0469,135.0469 636.7031,134.7969 Q637.0938,134.6406 637.5156,134.2031 Q637.7813,133.9375 637.9219,133.8594 Q638.0781,133.7813 638.2813,133.7813 Q638.6094,133.7813 638.8594,134.0469 Q639.125,134.2969 639.125,134.6406 Q639.125,134.9844 638.7813,135.3906 Q638.2813,135.9688 637.4844,136.2969 Q636.4063,136.75 635.1094,136.75 Q633.5938,136.75 632.3906,136.125 Q631.4063,135.625 630.7188,134.5625 Q630.0313,133.4844 630.0313,132.2031 L630.0313,131.0469 Q630.0313,129.7188 630.6406,128.5781 Q631.2656,127.4219 632.3594,126.8125 Q633.4531,126.1875 634.6875,126.1875 Q635.4219,126.1875 636.0625,126.3594 Q636.7188,126.5156 637.2656,126.875 Z " fill="#000000"/><text fill="#000000" font-family="sans-serif" font-size="14" lengthAdjust="spacing" textLength="79" x="648.5" y="136.7285">Consoleview</text><line style="stroke:#181818;stroke-width:0.5;" x1="620.5" x2="729.5" y1="147" y2="147"/><line style="stroke:#181818;stroke-width:0.5;" x1="620.5" x2="729.5" y1="155" y2="155"/></g><!--class StartView--><g id="elem_StartView"><rect codeLine="3" fill="#F1F1F1" height="48" id="StartView" rx="2.5" ry="2.5" style="stroke:#181818;stroke-width:0.5;" width="91" x="629.5" y="223"/><ellipse cx="644.5" cy="239" fill="#ADD1B2" rx="11" ry="11" style="stroke:#181818;stroke-width:1.0;"/><path d="M647.2656,234.875 Q647.4219,234.6563 647.6094,234.5469 Q647.7969,234.4375 648.0156,234.4375 Q648.3906,234.4375 648.625,234.7031 Q648.8594,234.9531 648.8594,235.5625 L648.8594,237.0156 Q648.8594,237.625 648.625,237.8906 Q648.3906,238.1563 648.0156,238.1563 Q647.6719,238.1563 647.4688,237.9531 Q647.2656,237.7656 647.1563,237.25 Q647.1094,236.8906 646.9219,236.7031 Q646.5938,236.3281 645.9844,236.1094 Q645.375,235.8906 644.75,235.8906 Q643.9844,235.8906 643.3438,236.2188 Q642.7188,236.5469 642.2188,237.2969 Q641.7344,238.0469 641.7344,239.0781 L641.7344,240.1719 Q641.7344,241.4063 642.625,242.2344 Q643.5156,243.0469 645.1094,243.0469 Q646.0469,243.0469 646.7031,242.7969 Q647.0938,242.6406 647.5156,242.2031 Q647.7813,241.9375 647.9219,241.8594 Q648.0781,241.7813 648.2813,241.7813 Q648.6094,241.7813 648.8594,242.0469 Q649.125,242.2969 649.125,242.6406 Q649.125,242.9844 648.7813,243.3906 Q648.2813,243.9688 647.4844,244.2969 Q646.4063,244.75 645.1094,244.75 Q643.5938,244.75 642.3906,244.125 Q641.4063,243.625 640.7188,242.5625 Q640.0313,241.4844 640.0313,240.2031 L640.0313,239.0469 Q640.0313,237.7188 640.6406,236.5781 Q641.2656,235.4219 642.3594,234.8125 Q643.4531,234.1875 644.6875,234.1875 Q645.4219,234.1875 646.0625,234.3594 Q646.7188,234.5156 647.2656,234.875 Z " fill="#000000"/><text fill="#000000" font-family="sans-serif" font-size="14" lengthAdjust="spacing" textLength="59" x="658.5" y="244.7285">StartView</text><line style="stroke:#181818;stroke-width:0.5;" x1="630.5" x2="719.5" y1="255" y2="255"/><line style="stroke:#181818;stroke-width:0.5;" x1="630.5" x2="719.5" y1="263" y2="263"/></g><!--class PlayView--><g id="elem_PlayView"><rect codeLine="4" fill="#F1F1F1" height="48" id="PlayView" rx="2.5" ry="2.5" style="stroke:#181818;stroke-width:0.5;" width="88" x="506" y="223"/><ellipse cx="521" cy="239" fill="#ADD1B2" rx="11" ry="11" style="stroke:#181818;stroke-width:1.0;"/><path d="M523.7656,234.875 Q523.9219,234.6563 524.1094,234.5469 Q524.2969,234.4375 524.5156,234.4375 Q524.8906,234.4375 525.125,234.7031 Q525.3594,234.9531 525.3594,235.5625 L525.3594,237.0156 Q525.3594,237.625 525.125,237.8906 Q524.8906,238.1563 524.5156,238.1563 Q524.1719,238.1563 523.9688,237.9531 Q523.7656,237.7656 523.6563,237.25 Q523.6094,236.8906 523.4219,236.7031 Q523.0938,236.3281 522.4844,236.1094 Q521.875,235.8906 521.25,235.8906 Q520.4844,235.8906 519.8438,236.2188 Q519.2188,236.5469 518.7188,237.2969 Q518.2344,238.0469 518.2344,239.0781 L518.2344,240.1719 Q518.2344,241.4063 519.125,242.2344 Q520.0156,243.0469 521.6094,243.0469 Q522.5469,243.0469 523.2031,242.7969 Q523.5938,242.6406 524.0156,242.2031 Q524.2813,241.9375 524.4219,241.8594 Q524.5781,241.7813 524.7813,241.7813 Q525.1094,241.7813 525.3594,242.0469 Q525.625,242.2969 525.625,242.6406 Q525.625,242.9844 525.2813,243.3906 Q524.7813,243.9688 523.9844,244.2969 Q522.9063,244.75 521.6094,244.75 Q520.0938,244.75 518.8906,244.125 Q517.9063,243.625 517.2188,242.5625 Q516.5313,241.4844 516.5313,240.2031 L516.5313,239.0469 Q516.5313,237.7188 517.1406,236.5781 Q517.7656,235.4219 518.8594,234.8125 Q519.9531,234.1875 521.1875,234.1875 Q521.9219,234.1875 522.5625,234.3594 Q523.2188,234.5156 523.7656,234.875 Z " fill="#000000"/><text fill="#000000" font-family="sans-serif" font-size="14" lengthAdjust="spacing" textLength="56" x="535" y="244.7285">PlayView</text><line style="stroke:#181818;stroke-width:0.5;" x1="507" x2="593" y1="255" y2="255"/><line style="stroke:#181818;stroke-width:0.5;" x1="507" x2="593" y1="263" y2="263"/></g><!--class ResumeView--><g id="elem_ResumeView"><rect codeLine="5" fill="#F1F1F1" height="48" id="ResumeView" rx="2.5" ry="2.5" style="stroke:#181818;stroke-width:0.5;" width="113" x="755.5" y="223"/><ellipse cx="770.5" cy="239" fill="#ADD1B2" rx="11" ry="11" style="stroke:#181818;stroke-width:1.0;"/><path d="M773.2656,234.875 Q773.4219,234.6563 773.6094,234.5469 Q773.7969,234.4375 774.0156,234.4375 Q774.3906,234.4375 774.625,234.7031 Q774.8594,234.9531 774.8594,235.5625 L774.8594,237.0156 Q774.8594,237.625 774.625,237.8906 Q774.3906,238.1563 774.0156,238.1563 Q773.6719,238.1563 773.4688,237.9531 Q773.2656,237.7656 773.1563,237.25 Q773.1094,236.8906 772.9219,236.7031 Q772.5938,236.3281 771.9844,236.1094 Q771.375,235.8906 770.75,235.8906 Q769.9844,235.8906 769.3438,236.2188 Q768.7188,236.5469 768.2188,237.2969 Q767.7344,238.0469 767.7344,239.0781 L767.7344,240.1719 Q767.7344,241.4063 768.625,242.2344 Q769.5156,243.0469 771.1094,243.0469 Q772.0469,243.0469 772.7031,242.7969 Q773.0938,242.6406 773.5156,242.2031 Q773.7813,241.9375 773.9219,241.8594 Q774.0781,241.7813 774.2813,241.7813 Q774.6094,241.7813 774.8594,242.0469 Q775.125,242.2969 775.125,242.6406 Q775.125,242.9844 774.7813,243.3906 Q774.2813,243.9688 773.4844,244.2969 Q772.4063,244.75 771.1094,244.75 Q769.5938,244.75 768.3906,244.125 Q767.4063,243.625 766.7188,242.5625 Q766.0313,241.4844 766.0313,240.2031 L766.0313,239.0469 Q766.0313,237.7188 766.6406,236.5781 Q767.2656,235.4219 768.3594,234.8125 Q769.4531,234.1875 770.6875,234.1875 Q771.4219,234.1875 772.0625,234.3594 Q772.7188,234.5156 773.2656,234.875 Z " fill="#000000"/><text fill="#000000" font-family="sans-serif" font-size="14" lengthAdjust="spacing" textLength="81" x="784.5" y="244.7285">ResumeView</text><line style="stroke:#181818;stroke-width:0.5;" x1="756.5" x2="867.5" y1="255" y2="255"/><line style="stroke:#181818;stroke-width:0.5;" x1="756.5" x2="867.5" y1="263" y2="263"/></g><!--class BoardView--><g id="elem_BoardView"><rect codeLine="6" fill="#F1F1F1" height="48" id="BoardView" rx="2.5" ry="2.5" style="stroke:#181818;stroke-width:0.5;" width="99" x="621.5" y="331"/><ellipse cx="636.5" cy="347" fill="#ADD1B2" rx="11" ry="11" style="stroke:#181818;stroke-width:1.0;"/><path d="M639.2656,342.875 Q639.4219,342.6563 639.6094,342.5469 Q639.7969,342.4375 640.0156,342.4375 Q640.3906,342.4375 640.625,342.7031 Q640.8594,342.9531 640.8594,343.5625 L640.8594,345.0156 Q640.8594,345.625 640.625,345.8906 Q640.3906,346.1563 640.0156,346.1563 Q639.6719,346.1563 639.4688,345.9531 Q639.2656,345.7656 639.1563,345.25 Q639.1094,344.8906 638.9219,344.7031 Q638.5938,344.3281 637.9844,344.1094 Q637.375,343.8906 636.75,343.8906 Q635.9844,343.8906 635.3438,344.2188 Q634.7188,344.5469 634.2188,345.2969 Q633.7344,346.0469 633.7344,347.0781 L633.7344,348.1719 Q633.7344,349.4063 634.625,350.2344 Q635.5156,351.0469 637.1094,351.0469 Q638.0469,351.0469 638.7031,350.7969 Q639.0938,350.6406 639.5156,350.2031 Q639.7813,349.9375 639.9219,349.8594 Q640.0781,349.7813 640.2813,349.7813 Q640.6094,349.7813 640.8594,350.0469 Q641.125,350.2969 641.125,350.6406 Q641.125,350.9844 640.7813,351.3906 Q640.2813,351.9688 639.4844,352.2969 Q638.4063,352.75 637.1094,352.75 Q635.5938,352.75 634.3906,352.125 Q633.4063,351.625 632.7188,350.5625 Q632.0313,349.4844 632.0313,348.2031 L632.0313,347.0469 Q632.0313,345.7188 632.6406,344.5781 Q633.2656,343.4219 634.3594,342.8125 Q635.4531,342.1875 636.6875,342.1875 Q637.4219,342.1875 638.0625,342.3594 Q638.7188,342.5156 639.2656,342.875 Z " fill="#000000"/><text fill="#000000" font-family="sans-serif" font-size="14" lengthAdjust="spacing" textLength="67" x="650.5" y="352.7285">BoardView</text><line style="stroke:#181818;stroke-width:0.5;" x1="622.5" x2="719.5" y1="363" y2="363"/><line style="stroke:#181818;stroke-width:0.5;" x1="622.5" x2="719.5" y1="371" y2="371"/></g><!--class TurnView--><g id="elem_TurnView"><rect codeLine="7" fill="#F1F1F1" height="48" id="TurnView" rx="2.5" ry="2.5" style="stroke:#181818;stroke-width:0.5;" width="91" x="495.5" y="331"/><ellipse cx="510.5" cy="347" fill="#ADD1B2" rx="11" ry="11" style="stroke:#181818;stroke-width:1.0;"/><path d="M513.2656,342.875 Q513.4219,342.6563 513.6094,342.5469 Q513.7969,342.4375 514.0156,342.4375 Q514.3906,342.4375 514.625,342.7031 Q514.8594,342.9531 514.8594,343.5625 L514.8594,345.0156 Q514.8594,345.625 514.625,345.8906 Q514.3906,346.1563 514.0156,346.1563 Q513.6719,346.1563 513.4688,345.9531 Q513.2656,345.7656 513.1563,345.25 Q513.1094,344.8906 512.9219,344.7031 Q512.5938,344.3281 511.9844,344.1094 Q511.375,343.8906 510.75,343.8906 Q509.9844,343.8906 509.3438,344.2188 Q508.7188,344.5469 508.2188,345.2969 Q507.7344,346.0469 507.7344,347.0781 L507.7344,348.1719 Q507.7344,349.4063 508.625,350.2344 Q509.5156,351.0469 511.1094,351.0469 Q512.0469,351.0469 512.7031,350.7969 Q513.0938,350.6406 513.5156,350.2031 Q513.7813,349.9375 513.9219,349.8594 Q514.0781,349.7813 514.2813,349.7813 Q514.6094,349.7813 514.8594,350.0469 Q515.125,350.2969 515.125,350.6406 Q515.125,350.9844 514.7813,351.3906 Q514.2813,351.9688 513.4844,352.2969 Q512.4063,352.75 511.1094,352.75 Q509.5938,352.75 508.3906,352.125 Q507.4063,351.625 506.7188,350.5625 Q506.0313,349.4844 506.0313,348.2031 L506.0313,347.0469 Q506.0313,345.7188 506.6406,344.5781 Q507.2656,343.4219 508.3594,342.8125 Q509.4531,342.1875 510.6875,342.1875 Q511.4219,342.1875 512.0625,342.3594 Q512.7188,342.5156 513.2656,342.875 Z " fill="#000000"/><text fill="#000000" font-family="sans-serif" font-size="14" lengthAdjust="spacing" textLength="59" x="524.5" y="352.7285">TurnView</text><line style="stroke:#181818;stroke-width:0.5;" x1="496.5" x2="585.5" y1="363" y2="363"/><line style="stroke:#181818;stroke-width:0.5;" x1="496.5" x2="585.5" y1="371" y2="371"/></g><!--class PlayerView--><g id="elem_PlayerView"><rect codeLine="8" fill="#F1F1F1" height="48" id="PlayerView" rx="2.5" ry="2.5" style="stroke:#181818;stroke-width:0.5;" width="101" x="22.5" y="679"/><ellipse cx="37.5" cy="695" fill="#A9DCDF" rx="11" ry="11" style="stroke:#181818;stroke-width:1.0;"/><path d="M39.6875,696.7656 L35.5469,696.7656 L35.125,697.7969 L35.5469,697.7969 Q36.1563,697.7969 36.4219,698.0313 Q36.6875,698.2656 36.6875,698.6563 Q36.6875,699.0313 36.4219,699.2656 Q36.1563,699.5 35.5469,699.5 L33.25,699.5 Q32.6406,699.5 32.3906,699.2656 Q32.125,699.0313 32.125,698.6406 Q32.125,698.2656 32.4063,698.0313 Q32.6719,697.7813 33.2969,697.7969 L35.9688,691.1406 L34.8594,691.1406 Q34.25,691.1406 33.9844,690.9063 Q33.7188,690.6719 33.7188,690.2813 Q33.7188,689.9063 33.9844,689.6719 Q34.25,689.4375 34.8594,689.4375 L38.5313,689.4375 L41.9219,697.7969 Q42.5156,697.7969 42.7031,697.9375 Q43.0938,698.2031 43.0938,698.6563 Q43.0938,699.0313 42.8281,699.2656 Q42.5781,699.5 41.9688,699.5 L39.6719,699.5 Q39.0625,699.5 38.7969,699.2656 Q38.5313,699.0313 38.5313,698.6406 Q38.5313,698.2656 38.7969,698.0313 Q39.0625,697.7969 39.6719,697.7969 L40.0938,697.7969 L39.6875,696.7656 Z M38.9688,695.0625 L37.6094,691.6875 L36.2344,695.0625 L38.9688,695.0625 Z " fill="#000000"/><text fill="#000000" font-family="sans-serif" font-size="14" font-style="italic" lengthAdjust="spacing" textLength="69" x="51.5" y="700.7285">PlayerView</text><line style="stroke:#181818;stroke-width:0.5;" x1="23.5" x2="122.5" y1="711" y2="711"/><line style="stroke:#181818;stroke-width:0.5;" x1="23.5" x2="122.5" y1="719" y2="719"/></g><!--class MachinePlayerView--><g id="elem_MachinePlayerView"><rect codeLine="9" fill="#F1F1F1" height="48" id="MachinePlayerView" rx="2.5" ry="2.5" style="stroke:#181818;stroke-width:0.5;" width="155" x="234.5" y="787"/><ellipse cx="249.5" cy="803" fill="#A9DCDF" rx="11" ry="11" style="stroke:#181818;stroke-width:1.0;"/><path d="M251.6875,804.7656 L247.5469,804.7656 L247.125,805.7969 L247.5469,805.7969 Q248.1563,805.7969 248.4219,806.0313 Q248.6875,806.2656 248.6875,806.6563 Q248.6875,807.0313 248.4219,807.2656 Q248.1563,807.5 247.5469,807.5 L245.25,807.5 Q244.6406,807.5 244.3906,807.2656 Q244.125,807.0313 244.125,806.6406 Q244.125,806.2656 244.4063,806.0313 Q244.6719,805.7813 245.2969,805.7969 L247.9688,799.1406 L246.8594,799.1406 Q246.25,799.1406 245.9844,798.9063 Q245.7188,798.6719 245.7188,798.2813 Q245.7188,797.9063 245.9844,797.6719 Q246.25,797.4375 246.8594,797.4375 L250.5313,797.4375 L253.9219,805.7969 Q254.5156,805.7969 254.7031,805.9375 Q255.0938,806.2031 255.0938,806.6563 Q255.0938,807.0313 254.8281,807.2656 Q254.5781,807.5 253.9688,807.5 L251.6719,807.5 Q251.0625,807.5 250.7969,807.2656 Q250.5313,807.0313 250.5313,806.6406 Q250.5313,806.2656 250.7969,806.0313 Q251.0625,805.7969 251.6719,805.7969 L252.0938,805.7969 L251.6875,804.7656 Z M250.9688,803.0625 L249.6094,799.6875 L248.2344,803.0625 L250.9688,803.0625 Z " fill="#000000"/><text fill="#000000" font-family="sans-serif" font-size="14" font-style="italic" lengthAdjust="spacing" textLength="123" x="263.5" y="808.7285">MachinePlayerView</text><line style="stroke:#181818;stroke-width:0.5;" x1="235.5" x2="388.5" y1="819" y2="819"/><line style="stroke:#181818;stroke-width:0.5;" x1="235.5" x2="388.5" y1="827" y2="827"/></g><!--class MinMaxMachinePlayerView--><g id="elem_MinMaxMachinePlayerView"><rect codeLine="10" fill="#F1F1F1" height="48" id="MinMaxMachinePlayerView" rx="2.5" ry="2.5" style="stroke:#181818;stroke-width:0.5;" width="201" x="148.5" y="901.5"/><ellipse cx="163.5" cy="917.5" fill="#ADD1B2" rx="11" ry="11" style="stroke:#181818;stroke-width:1.0;"/><path d="M166.2656,913.375 Q166.4219,913.1563 166.6094,913.0469 Q166.7969,912.9375 167.0156,912.9375 Q167.3906,912.9375 167.625,913.2031 Q167.8594,913.4531 167.8594,914.0625 L167.8594,915.5156 Q167.8594,916.125 167.625,916.3906 Q167.3906,916.6563 167.0156,916.6563 Q166.6719,916.6563 166.4688,916.4531 Q166.2656,916.2656 166.1563,915.75 Q166.1094,915.3906 165.9219,915.2031 Q165.5938,914.8281 164.9844,914.6094 Q164.375,914.3906 163.75,914.3906 Q162.9844,914.3906 162.3438,914.7188 Q161.7188,915.0469 161.2188,915.7969 Q160.7344,916.5469 160.7344,917.5781 L160.7344,918.6719 Q160.7344,919.9063 161.625,920.7344 Q162.5156,921.5469 164.1094,921.5469 Q165.0469,921.5469 165.7031,921.2969 Q166.0938,921.1406 166.5156,920.7031 Q166.7813,920.4375 166.9219,920.3594 Q167.0781,920.2813 167.2813,920.2813 Q167.6094,920.2813 167.8594,920.5469 Q168.125,920.7969 168.125,921.1406 Q168.125,921.4844 167.7813,921.8906 Q167.2813,922.4688 166.4844,922.7969 Q165.4063,923.25 164.1094,923.25 Q162.5938,923.25 161.3906,922.625 Q160.4063,922.125 159.7188,921.0625 Q159.0313,919.9844 159.0313,918.7031 L159.0313,917.5469 Q159.0313,916.2188 159.6406,915.0781 Q160.2656,913.9219 161.3594,913.3125 Q162.4531,912.6875 163.6875,912.6875 Q164.4219,912.6875 165.0625,912.8594 Q165.7188,913.0156 166.2656,913.375 Z " fill="#000000"/><text fill="#000000" font-family="sans-serif" font-size="14" lengthAdjust="spacing" textLength="169" x="177.5" y="923.2285">MinMaxMachinePlayerView</text><line style="stroke:#181818;stroke-width:0.5;" x1="149.5" x2="348.5" y1="933.5" y2="933.5"/><line style="stroke:#181818;stroke-width:0.5;" x1="149.5" x2="348.5" y1="941.5" y2="941.5"/></g><!--class RandomMachinePlayerView--><g id="elem_RandomMachinePlayerView"><rect codeLine="11" fill="#F1F1F1" height="48" id="RandomMachinePlayerView" rx="2.5" ry="2.5" style="stroke:#181818;stroke-width:0.5;" width="207" x="384.5" y="901.5"/><ellipse cx="399.5" cy="917.5" fill="#ADD1B2" rx="11" ry="11" style="stroke:#181818;stroke-width:1.0;"/><path d="M402.2656,913.375 Q402.4219,913.1563 402.6094,913.0469 Q402.7969,912.9375 403.0156,912.9375 Q403.3906,912.9375 403.625,913.2031 Q403.8594,913.4531 403.8594,914.0625 L403.8594,915.5156 Q403.8594,916.125 403.625,916.3906 Q403.3906,916.6563 403.0156,916.6563 Q402.6719,916.6563 402.4688,916.4531 Q402.2656,916.2656 402.1563,915.75 Q402.1094,915.3906 401.9219,915.2031 Q401.5938,914.8281 400.9844,914.6094 Q400.375,914.3906 399.75,914.3906 Q398.9844,914.3906 398.3438,914.7188 Q397.7188,915.0469 397.2188,915.7969 Q396.7344,916.5469 396.7344,917.5781 L396.7344,918.6719 Q396.7344,919.9063 397.625,920.7344 Q398.5156,921.5469 400.1094,921.5469 Q401.0469,921.5469 401.7031,921.2969 Q402.0938,921.1406 402.5156,920.7031 Q402.7813,920.4375 402.9219,920.3594 Q403.0781,920.2813 403.2813,920.2813 Q403.6094,920.2813 403.8594,920.5469 Q404.125,920.7969 404.125,921.1406 Q404.125,921.4844 403.7813,921.8906 Q403.2813,922.4688 402.4844,922.7969 Q401.4063,923.25 400.1094,923.25 Q398.5938,923.25 397.3906,922.625 Q396.4063,922.125 395.7188,921.0625 Q395.0313,919.9844 395.0313,918.7031 L395.0313,917.5469 Q395.0313,916.2188 395.6406,915.0781 Q396.2656,913.9219 397.3594,913.3125 Q398.4531,912.6875 399.6875,912.6875 Q400.4219,912.6875 401.0625,912.8594 Q401.7188,913.0156 402.2656,913.375 Z " fill="#000000"/><text fill="#000000" font-family="sans-serif" font-size="14" lengthAdjust="spacing" textLength="175" x="413.5" y="923.2285">RandomMachinePlayerView</text><line style="stroke:#181818;stroke-width:0.5;" x1="385.5" x2="590.5" y1="933.5" y2="933.5"/><line style="stroke:#181818;stroke-width:0.5;" x1="385.5" x2="590.5" y1="941.5" y2="941.5"/></g><!--class UserPlayerView--><g id="elem_UserPlayerView"><rect codeLine="12" fill="#F1F1F1" height="48" id="UserPlayerView" rx="2.5" ry="2.5" style="stroke:#181818;stroke-width:0.5;" width="130" x="676" y="787"/><ellipse cx="691" cy="803" fill="#ADD1B2" rx="11" ry="11" style="stroke:#181818;stroke-width:1.0;"/><path d="M693.7656,798.875 Q693.9219,798.6563 694.1094,798.5469 Q694.2969,798.4375 694.5156,798.4375 Q694.8906,798.4375 695.125,798.7031 Q695.3594,798.9531 695.3594,799.5625 L695.3594,801.0156 Q695.3594,801.625 695.125,801.8906 Q694.8906,802.1563 694.5156,802.1563 Q694.1719,802.1563 693.9688,801.9531 Q693.7656,801.7656 693.6563,801.25 Q693.6094,800.8906 693.4219,800.7031 Q693.0938,800.3281 692.4844,800.1094 Q691.875,799.8906 691.25,799.8906 Q690.4844,799.8906 689.8438,800.2188 Q689.2188,800.5469 688.7188,801.2969 Q688.2344,802.0469 688.2344,803.0781 L688.2344,804.1719 Q688.2344,805.4063 689.125,806.2344 Q690.0156,807.0469 691.6094,807.0469 Q692.5469,807.0469 693.2031,806.7969 Q693.5938,806.6406 694.0156,806.2031 Q694.2813,805.9375 694.4219,805.8594 Q694.5781,805.7813 694.7813,805.7813 Q695.1094,805.7813 695.3594,806.0469 Q695.625,806.2969 695.625,806.6406 Q695.625,806.9844 695.2813,807.3906 Q694.7813,807.9688 693.9844,808.2969 Q692.9063,808.75 691.6094,808.75 Q690.0938,808.75 688.8906,808.125 Q687.9063,807.625 687.2188,806.5625 Q686.5313,805.4844 686.5313,804.2031 L686.5313,803.0469 Q686.5313,801.7188 687.1406,800.5781 Q687.7656,799.4219 688.8594,798.8125 Q689.9531,798.1875 691.1875,798.1875 Q691.9219,798.1875 692.5625,798.3594 Q693.2188,798.5156 693.7656,798.875 Z " fill="#000000"/><text fill="#000000" font-family="sans-serif" font-size="14" lengthAdjust="spacing" textLength="98" x="705" y="808.7285">UserPlayerView</text><line style="stroke:#181818;stroke-width:0.5;" x1="677" x2="805" y1="819" y2="819"/><line style="stroke:#181818;stroke-width:0.5;" x1="677" x2="805" y1="827" y2="827"/></g><!--class TurnMenu--><g id="elem_TurnMenu"><rect codeLine="13" fill="#F1F1F1" height="48" id="TurnMenu" rx="2.5" ry="2.5" style="stroke:#181818;stroke-width:0.5;" width="97" x="738.5" y="444.5"/><ellipse cx="753.5" cy="460.5" fill="#ADD1B2" rx="11" ry="11" style="stroke:#181818;stroke-width:1.0;"/><path d="M756.2656,456.375 Q756.4219,456.1563 756.6094,456.0469 Q756.7969,455.9375 757.0156,455.9375 Q757.3906,455.9375 757.625,456.2031 Q757.8594,456.4531 757.8594,457.0625 L757.8594,458.5156 Q757.8594,459.125 757.625,459.3906 Q757.3906,459.6563 757.0156,459.6563 Q756.6719,459.6563 756.4688,459.4531 Q756.2656,459.2656 756.1563,458.75 Q756.1094,458.3906 755.9219,458.2031 Q755.5938,457.8281 754.9844,457.6094 Q754.375,457.3906 753.75,457.3906 Q752.9844,457.3906 752.3438,457.7188 Q751.7188,458.0469 751.2188,458.7969 Q750.7344,459.5469 750.7344,460.5781 L750.7344,461.6719 Q750.7344,462.9063 751.625,463.7344 Q752.5156,464.5469 754.1094,464.5469 Q755.0469,464.5469 755.7031,464.2969 Q756.0938,464.1406 756.5156,463.7031 Q756.7813,463.4375 756.9219,463.3594 Q757.0781,463.2813 757.2813,463.2813 Q757.6094,463.2813 757.8594,463.5469 Q758.125,463.7969 758.125,464.1406 Q758.125,464.4844 757.7813,464.8906 Q757.2813,465.4688 756.4844,465.7969 Q755.4063,466.25 754.1094,466.25 Q752.5938,466.25 751.3906,465.625 Q750.4063,465.125 749.7188,464.0625 Q749.0313,462.9844 749.0313,461.7031 L749.0313,460.5469 Q749.0313,459.2188 749.6406,458.0781 Q750.2656,456.9219 751.3594,456.3125 Q752.4531,455.6875 753.6875,455.6875 Q754.4219,455.6875 755.0625,455.8594 Q755.7188,456.0156 756.2656,456.375 Z " fill="#000000"/><text fill="#000000" font-family="sans-serif" font-size="14" lengthAdjust="spacing" textLength="65" x="767.5" y="466.2285">TurnMenu</text><line style="stroke:#181818;stroke-width:0.5;" x1="739.5" x2="834.5" y1="476.5" y2="476.5"/><line style="stroke:#181818;stroke-width:0.5;" x1="739.5" x2="834.5" y1="484.5" y2="484.5"/></g><!--class TurnOption--><g id="elem_TurnOption"><rect codeLine="14" fill="#F1F1F1" height="48" id="TurnOption" rx="2.5" ry="2.5" style="stroke:#181818;stroke-width:0.5;" width="104" x="735" y="564.5"/><ellipse cx="750" cy="580.5" fill="#A9DCDF" rx="11" ry="11" style="stroke:#181818;stroke-width:1.0;"/><path d="M752.1875,582.2656 L748.0469,582.2656 L747.625,583.2969 L748.0469,583.2969 Q748.6563,583.2969 748.9219,583.5313 Q749.1875,583.7656 749.1875,584.1563 Q749.1875,584.5313 748.9219,584.7656 Q748.6563,585 748.0469,585 L745.75,585 Q745.1406,585 744.8906,584.7656 Q744.625,584.5313 744.625,584.1406 Q744.625,583.7656 744.9063,583.5313 Q745.1719,583.2813 745.7969,583.2969 L748.4688,576.6406 L747.3594,576.6406 Q746.75,576.6406 746.4844,576.4063 Q746.2188,576.1719 746.2188,575.7813 Q746.2188,575.4063 746.4844,575.1719 Q746.75,574.9375 747.3594,574.9375 L751.0313,574.9375 L754.4219,583.2969 Q755.0156,583.2969 755.2031,583.4375 Q755.5938,583.7031 755.5938,584.1563 Q755.5938,584.5313 755.3281,584.7656 Q755.0781,585 754.4688,585 L752.1719,585 Q751.5625,585 751.2969,584.7656 Q751.0313,584.5313 751.0313,584.1406 Q751.0313,583.7656 751.2969,583.5313 Q751.5625,583.2969 752.1719,583.2969 L752.5938,583.2969 L752.1875,582.2656 Z M751.4688,580.5625 L750.1094,577.1875 L748.7344,580.5625 L751.4688,580.5625 Z " fill="#000000"/><text fill="#000000" font-family="sans-serif" font-size="14" font-style="italic" lengthAdjust="spacing" textLength="72" x="764" y="586.2285">TurnOption</text><line style="stroke:#181818;stroke-width:0.5;" x1="736" x2="838" y1="596.5" y2="596.5"/><line style="stroke:#181818;stroke-width:0.5;" x1="736" x2="838" y1="604.5" y2="604.5"/></g><!--class SetRandomMachinePlayerOption--><g id="elem_SetRandomMachinePlayerOption"><rect codeLine="15" fill="#F1F1F1" height="48" id="SetRandomMachinePlayerOption" rx="2.5" ry="2.5" style="stroke:#181818;stroke-width:0.5;" width="241" x="158.5" y="679"/><ellipse cx="173.5" cy="695" fill="#ADD1B2" rx="11" ry="11" style="stroke:#181818;stroke-width:1.0;"/><path d="M176.2656,690.875 Q176.4219,690.6563 176.6094,690.5469 Q176.7969,690.4375 177.0156,690.4375 Q177.3906,690.4375 177.625,690.7031 Q177.8594,690.9531 177.8594,691.5625 L177.8594,693.0156 Q177.8594,693.625 177.625,693.8906 Q177.3906,694.1563 177.0156,694.1563 Q176.6719,694.1563 176.4688,693.9531 Q176.2656,693.7656 176.1563,693.25 Q176.1094,692.8906 175.9219,692.7031 Q175.5938,692.3281 174.9844,692.1094 Q174.375,691.8906 173.75,691.8906 Q172.9844,691.8906 172.3438,692.2188 Q171.7188,692.5469 171.2188,693.2969 Q170.7344,694.0469 170.7344,695.0781 L170.7344,696.1719 Q170.7344,697.4063 171.625,698.2344 Q172.5156,699.0469 174.1094,699.0469 Q175.0469,699.0469 175.7031,698.7969 Q176.0938,698.6406 176.5156,698.2031 Q176.7813,697.9375 176.9219,697.8594 Q177.0781,697.7813 177.2813,697.7813 Q177.6094,697.7813 177.8594,698.0469 Q178.125,698.2969 178.125,698.6406 Q178.125,698.9844 177.7813,699.3906 Q177.2813,699.9688 176.4844,700.2969 Q175.4063,700.75 174.1094,700.75 Q172.5938,700.75 171.3906,700.125 Q170.4063,699.625 169.7188,698.5625 Q169.0313,697.4844 169.0313,696.2031 L169.0313,695.0469 Q169.0313,693.7188 169.6406,692.5781 Q170.2656,691.4219 171.3594,690.8125 Q172.4531,690.1875 173.6875,690.1875 Q174.4219,690.1875 175.0625,690.3594 Q175.7188,690.5156 176.2656,690.875 Z " fill="#000000"/><text fill="#000000" font-family="sans-serif" font-size="14" lengthAdjust="spacing" textLength="209" x="187.5" y="700.7285">SetRandomMachinePlayerOption</text><line style="stroke:#181818;stroke-width:0.5;" x1="159.5" x2="398.5" y1="711" y2="711"/><line style="stroke:#181818;stroke-width:0.5;" x1="159.5" x2="398.5" y1="719" y2="719"/></g><!--class SetMinMaxMachinePlayerOption--><g id="elem_SetMinMaxMachinePlayerOption"><rect codeLine="16" fill="#F1F1F1" height="48" id="SetMinMaxMachinePlayerOption" rx="2.5" ry="2.5" style="stroke:#181818;stroke-width:0.5;" width="235" x="434.5" y="679"/><ellipse cx="449.5" cy="695" fill="#ADD1B2" rx="11" ry="11" style="stroke:#181818;stroke-width:1.0;"/><path d="M452.2656,690.875 Q452.4219,690.6563 452.6094,690.5469 Q452.7969,690.4375 453.0156,690.4375 Q453.3906,690.4375 453.625,690.7031 Q453.8594,690.9531 453.8594,691.5625 L453.8594,693.0156 Q453.8594,693.625 453.625,693.8906 Q453.3906,694.1563 453.0156,694.1563 Q452.6719,694.1563 452.4688,693.9531 Q452.2656,693.7656 452.1563,693.25 Q452.1094,692.8906 451.9219,692.7031 Q451.5938,692.3281 450.9844,692.1094 Q450.375,691.8906 449.75,691.8906 Q448.9844,691.8906 448.3438,692.2188 Q447.7188,692.5469 447.2188,693.2969 Q446.7344,694.0469 446.7344,695.0781 L446.7344,696.1719 Q446.7344,697.4063 447.625,698.2344 Q448.5156,699.0469 450.1094,699.0469 Q451.0469,699.0469 451.7031,698.7969 Q452.0938,698.6406 452.5156,698.2031 Q452.7813,697.9375 452.9219,697.8594 Q453.0781,697.7813 453.2813,697.7813 Q453.6094,697.7813 453.8594,698.0469 Q454.125,698.2969 454.125,698.6406 Q454.125,698.9844 453.7813,699.3906 Q453.2813,699.9688 452.4844,700.2969 Q451.4063,700.75 450.1094,700.75 Q448.5938,700.75 447.3906,700.125 Q446.4063,699.625 445.7188,698.5625 Q445.0313,697.4844 445.0313,696.2031 L445.0313,695.0469 Q445.0313,693.7188 445.6406,692.5781 Q446.2656,691.4219 447.3594,690.8125 Q448.4531,690.1875 449.6875,690.1875 Q450.4219,690.1875 451.0625,690.3594 Q451.7188,690.5156 452.2656,690.875 Z " fill="#000000"/><text fill="#000000" font-family="sans-serif" font-size="14" lengthAdjust="spacing" textLength="203" x="463.5" y="700.7285">SetMinMaxMachinePlayerOption</text><line style="stroke:#181818;stroke-width:0.5;" x1="435.5" x2="668.5" y1="711" y2="711"/><line style="stroke:#181818;stroke-width:0.5;" x1="435.5" x2="668.5" y1="719" y2="719"/></g><!--class SetUserPlayerOption--><g id="elem_SetUserPlayerOption"><rect codeLine="17" fill="#F1F1F1" height="48" id="SetUserPlayerOption" rx="2.5" ry="2.5" style="stroke:#181818;stroke-width:0.5;" width="164" x="705" y="679"/><ellipse cx="720" cy="695" fill="#ADD1B2" rx="11" ry="11" style="stroke:#181818;stroke-width:1.0;"/><path d="M722.7656,690.875 Q722.9219,690.6563 723.1094,690.5469 Q723.2969,690.4375 723.5156,690.4375 Q723.8906,690.4375 724.125,690.7031 Q724.3594,690.9531 724.3594,691.5625 L724.3594,693.0156 Q724.3594,693.625 724.125,693.8906 Q723.8906,694.1563 723.5156,694.1563 Q723.1719,694.1563 722.9688,693.9531 Q722.7656,693.7656 722.6563,693.25 Q722.6094,692.8906 722.4219,692.7031 Q722.0938,692.3281 721.4844,692.1094 Q720.875,691.8906 720.25,691.8906 Q719.4844,691.8906 718.8438,692.2188 Q718.2188,692.5469 717.7188,693.2969 Q717.2344,694.0469 717.2344,695.0781 L717.2344,696.1719 Q717.2344,697.4063 718.125,698.2344 Q719.0156,699.0469 720.6094,699.0469 Q721.5469,699.0469 722.2031,698.7969 Q722.5938,698.6406 723.0156,698.2031 Q723.2813,697.9375 723.4219,697.8594 Q723.5781,697.7813 723.7813,697.7813 Q724.1094,697.7813 724.3594,698.0469 Q724.625,698.2969 724.625,698.6406 Q724.625,698.9844 724.2813,699.3906 Q723.7813,699.9688 722.9844,700.2969 Q721.9063,700.75 720.6094,700.75 Q719.0938,700.75 717.8906,700.125 Q716.9063,699.625 716.2188,698.5625 Q715.5313,697.4844 715.5313,696.2031 L715.5313,695.0469 Q715.5313,693.7188 716.1406,692.5781 Q716.7656,691.4219 717.8594,690.8125 Q718.9531,690.1875 720.1875,690.1875 Q720.9219,690.1875 721.5625,690.3594 Q722.2188,690.5156 722.7656,690.875 Z " fill="#000000"/><text fill="#000000" font-family="sans-serif" font-size="14" lengthAdjust="spacing" textLength="132" x="734" y="700.7285">SetUserPlayerOption</text><line style="stroke:#181818;stroke-width:0.5;" x1="706" x2="868" y1="711" y2="711"/><line style="stroke:#181818;stroke-width:0.5;" x1="706" x2="868" y1="719" y2="719"/></g><!--class Message--><g id="elem_Message"><rect codeLine="18" fill="#F1F1F1" height="48" id="Message" rx="2.5" ry="2.5" style="stroke:#181818;stroke-width:0.5;" width="89" x="259.5" y="115"/><ellipse cx="274.5" cy="131" fill="#EB937F" rx="11" ry="11" style="stroke:#181818;stroke-width:1.0;"/><path d="M273.3594,131.7969 L273.3594,134.2969 L277.6875,134.2969 L277.6875,133.375 Q277.6875,132.7656 277.9219,132.5 Q278.1719,132.2344 278.5469,132.2344 Q278.9219,132.2344 279.1563,132.5 Q279.3906,132.7656 279.3906,133.375 L279.3906,136 L271.3906,136 Q270.7656,136 270.5,135.7656 Q270.25,135.5313 270.25,135.1406 Q270.25,134.7656 270.5156,134.5313 Q270.7813,134.2969 271.3906,134.2969 L271.6563,134.2969 L271.6563,127.6406 L271.3906,127.6406 Q270.7656,127.6406 270.5,127.4063 Q270.25,127.1719 270.25,126.7813 Q270.25,126.4063 270.5,126.1719 Q270.7656,125.9375 271.3906,125.9375 L279.0156,125.9375 L279.0156,128.5313 Q279.0156,129.1406 278.7813,129.4063 Q278.5625,129.6563 278.1719,129.6563 Q277.7969,129.6563 277.5625,129.4063 Q277.3281,129.1406 277.3281,128.5313 L277.3281,127.6406 L273.3594,127.6406 L273.3594,130.0938 L274.8438,130.0938 Q274.8438,129.4375 274.9688,129.25 Q275.2344,128.8438 275.7031,128.8438 Q276.0781,128.8438 276.3125,129.1094 Q276.5469,129.3594 276.5469,129.9688 L276.5469,131.9375 Q276.5469,132.4844 276.4219,132.6719 Q276.1563,133.0625 275.7031,133.0625 Q275.2344,133.0625 274.9688,132.6563 Q274.8438,132.4688 274.8438,131.7969 L273.3594,131.7969 Z " fill="#000000"/><text fill="#000000" font-family="sans-serif" font-size="14" lengthAdjust="spacing" textLength="57" x="288.5" y="136.7285">Message</text><line style="stroke:#181818;stroke-width:0.5;" x1="260.5" x2="347.5" y1="147" y2="147"/><line style="stroke:#181818;stroke-width:0.5;" x1="260.5" x2="347.5" y1="155" y2="155"/></g><!--class YesNoDialog--><g id="elem_YesNoDialog"><rect codeLine="19" fill="#F1F1F1" height="48" id="YesNoDialog" rx="2.5" ry="2.5" style="stroke:#181818;stroke-width:0.5;" width="113" x="755.5" y="331"/><ellipse cx="770.5" cy="347" fill="#ADD1B2" rx="11" ry="11" style="stroke:#181818;stroke-width:1.0;"/><path d="M773.2656,342.875 Q773.4219,342.6563 773.6094,342.5469 Q773.7969,342.4375 774.0156,342.4375 Q774.3906,342.4375 774.625,342.7031 Q774.8594,342.9531 774.8594,343.5625 L774.8594,345.0156 Q774.8594,345.625 774.625,345.8906 Q774.3906,346.1563 774.0156,346.1563 Q773.6719,346.1563 773.4688,345.9531 Q773.2656,345.7656 773.1563,345.25 Q773.1094,344.8906 772.9219,344.7031 Q772.5938,344.3281 771.9844,344.1094 Q771.375,343.8906 770.75,343.8906 Q769.9844,343.8906 769.3438,344.2188 Q768.7188,344.5469 768.2188,345.2969 Q767.7344,346.0469 767.7344,347.0781 L767.7344,348.1719 Q767.7344,349.4063 768.625,350.2344 Q769.5156,351.0469 771.1094,351.0469 Q772.0469,351.0469 772.7031,350.7969 Q773.0938,350.6406 773.5156,350.2031 Q773.7813,349.9375 773.9219,349.8594 Q774.0781,349.7813 774.2813,349.7813 Q774.6094,349.7813 774.8594,350.0469 Q775.125,350.2969 775.125,350.6406 Q775.125,350.9844 774.7813,351.3906 Q774.2813,351.9688 773.4844,352.2969 Q772.4063,352.75 771.1094,352.75 Q769.5938,352.75 768.3906,352.125 Q767.4063,351.625 766.7188,350.5625 Q766.0313,349.4844 766.0313,348.2031 L766.0313,347.0469 Q766.0313,345.7188 766.6406,344.5781 Q767.2656,343.4219 768.3594,342.8125 Q769.4531,342.1875 770.6875,342.1875 Q771.4219,342.1875 772.0625,342.3594 Q772.7188,342.5156 773.2656,342.875 Z " fill="#000000"/><text fill="#000000" font-family="sans-serif" font-size="14" lengthAdjust="spacing" textLength="81" x="784.5" y="352.7285">YesNoDialog</text><line style="stroke:#181818;stroke-width:0.5;" x1="756.5" x2="867.5" y1="363" y2="363"/><line style="stroke:#181818;stroke-width:0.5;" x1="756.5" x2="867.5" y1="371" y2="371"/></g><!--class PlayerViewPrototypeDirector--><g id="elem_PlayerViewPrototypeDirector"><rect codeLine="20" fill="#F1F1F1" height="58.7031" id="PlayerViewPrototypeDirector" rx="2.5" ry="2.5" style="stroke:#181818;stroke-width:0.5;" width="212" x="435" y="439"/><ellipse cx="450" cy="460.3516" fill="#ADD1B2" rx="11" ry="11" style="stroke:#181818;stroke-width:1.0;"/><path d="M452.7656,456.2266 Q452.9219,456.0078 453.1094,455.8984 Q453.2969,455.7891 453.5156,455.7891 Q453.8906,455.7891 454.125,456.0547 Q454.3594,456.3047 454.3594,456.9141 L454.3594,458.3672 Q454.3594,458.9766 454.125,459.2422 Q453.8906,459.5078 453.5156,459.5078 Q453.1719,459.5078 452.9688,459.3047 Q452.7656,459.1172 452.6563,458.6016 Q452.6094,458.2422 452.4219,458.0547 Q452.0938,457.6797 451.4844,457.4609 Q450.875,457.2422 450.25,457.2422 Q449.4844,457.2422 448.8438,457.5703 Q448.2188,457.8984 447.7188,458.6484 Q447.2344,459.3984 447.2344,460.4297 L447.2344,461.5234 Q447.2344,462.7578 448.125,463.5859 Q449.0156,464.3984 450.6094,464.3984 Q451.5469,464.3984 452.2031,464.1484 Q452.5938,463.9922 453.0156,463.5547 Q453.2813,463.2891 453.4219,463.2109 Q453.5781,463.1328 453.7813,463.1328 Q454.1094,463.1328 454.3594,463.3984 Q454.625,463.6484 454.625,463.9922 Q454.625,464.3359 454.2813,464.7422 Q453.7813,465.3203 452.9844,465.6484 Q451.9063,466.1016 450.6094,466.1016 Q449.0938,466.1016 447.8906,465.4766 Q446.9063,464.9766 446.2188,463.9141 Q445.5313,462.8359 445.5313,461.5547 L445.5313,460.3984 Q445.5313,459.0703 446.1406,457.9297 Q446.7656,456.7734 447.8594,456.1641 Q448.9531,455.5391 450.1875,455.5391 Q450.9219,455.5391 451.5625,455.7109 Q452.2188,455.8672 452.7656,456.2266 Z " fill="#000000"/><text fill="#000000" font-family="sans-serif" font-size="12" font-style="italic" lengthAdjust="spacing" textLength="57" x="525.5" y="456.457">&#171;Director&#187;</text><text fill="#000000" font-family="sans-serif" font-size="14" lengthAdjust="spacing" textLength="180" x="464" y="473.627">PlayerViewPrototypeDirector</text><line style="stroke:#181818;stroke-width:0.5;" x1="436" x2="646" y1="481.7031" y2="481.7031"/><line style="stroke:#181818;stroke-width:0.5;" x1="436" x2="646" y1="489.7031" y2="489.7031"/></g><!--class PlayerViewPrototypeRegistry--><g id="elem_PlayerViewPrototypeRegistry"><rect codeLine="21" fill="#F1F1F1" height="58.7031" id="PlayerViewPrototypeRegistry" rx="2.5" ry="2.5" style="stroke:#181818;stroke-width:0.5;" width="214" x="353" y="559"/><ellipse cx="368" cy="580.3516" fill="#ADD1B2" rx="11" ry="11" style="stroke:#181818;stroke-width:1.0;"/><path d="M370.7656,576.2266 Q370.9219,576.0078 371.1094,575.8984 Q371.2969,575.7891 371.5156,575.7891 Q371.8906,575.7891 372.125,576.0547 Q372.3594,576.3047 372.3594,576.9141 L372.3594,578.3672 Q372.3594,578.9766 372.125,579.2422 Q371.8906,579.5078 371.5156,579.5078 Q371.1719,579.5078 370.9688,579.3047 Q370.7656,579.1172 370.6563,578.6016 Q370.6094,578.2422 370.4219,578.0547 Q370.0938,577.6797 369.4844,577.4609 Q368.875,577.2422 368.25,577.2422 Q367.4844,577.2422 366.8438,577.5703 Q366.2188,577.8984 365.7188,578.6484 Q365.2344,579.3984 365.2344,580.4297 L365.2344,581.5234 Q365.2344,582.7578 366.125,583.5859 Q367.0156,584.3984 368.6094,584.3984 Q369.5469,584.3984 370.2031,584.1484 Q370.5938,583.9922 371.0156,583.5547 Q371.2813,583.2891 371.4219,583.2109 Q371.5781,583.1328 371.7813,583.1328 Q372.1094,583.1328 372.3594,583.3984 Q372.625,583.6484 372.625,583.9922 Q372.625,584.3359 372.2813,584.7422 Q371.7813,585.3203 370.9844,585.6484 Q369.9063,586.1016 368.6094,586.1016 Q367.0938,586.1016 365.8906,585.4766 Q364.9063,584.9766 364.2188,583.9141 Q363.5313,582.8359 363.5313,581.5547 L363.5313,580.3984 Q363.5313,579.0703 364.1406,577.9297 Q364.7656,576.7734 365.8594,576.1641 Q366.9531,575.5391 368.1875,575.5391 Q368.9219,575.5391 369.5625,575.7109 Q370.2188,575.8672 370.7656,576.2266 Z " fill="#000000"/><text fill="#000000" font-family="sans-serif" font-size="12" font-style="italic" lengthAdjust="spacing" textLength="111" x="417.5" y="576.457">&#171;PrototypeRegistry&#187;</text><text fill="#000000" font-family="sans-serif" font-size="14" lengthAdjust="spacing" textLength="182" x="382" y="593.627">PlayerViewPrototypeRegistry</text><line style="stroke:#181818;stroke-width:0.5;" x1="354" x2="566" y1="601.7031" y2="601.7031"/><line style="stroke:#181818;stroke-width:0.5;" x1="354" x2="566" y1="609.7031" y2="609.7031"/></g><!--class View--><g id="elem_View"><rect codeLine="23" fill="#F1F1F1" height="48" id="View" rx="2.5" ry="2.5" style="stroke:#181818;stroke-width:0.5;" width="61" x="644.5" y="7"/><ellipse cx="659.5" cy="23" fill="#ADD1B2" rx="11" ry="11" style="stroke:#181818;stroke-width:1.0;"/><path d="M662.2656,18.875 Q662.4219,18.6563 662.6094,18.5469 Q662.7969,18.4375 663.0156,18.4375 Q663.3906,18.4375 663.625,18.7031 Q663.8594,18.9531 663.8594,19.5625 L663.8594,21.0156 Q663.8594,21.625 663.625,21.8906 Q663.3906,22.1563 663.0156,22.1563 Q662.6719,22.1563 662.4688,21.9531 Q662.2656,21.7656 662.1563,21.25 Q662.1094,20.8906 661.9219,20.7031 Q661.5938,20.3281 660.9844,20.1094 Q660.375,19.8906 659.75,19.8906 Q658.9844,19.8906 658.3438,20.2188 Q657.7188,20.5469 657.2188,21.2969 Q656.7344,22.0469 656.7344,23.0781 L656.7344,24.1719 Q656.7344,25.4063 657.625,26.2344 Q658.5156,27.0469 660.1094,27.0469 Q661.0469,27.0469 661.7031,26.7969 Q662.0938,26.6406 662.5156,26.2031 Q662.7813,25.9375 662.9219,25.8594 Q663.0781,25.7813 663.2813,25.7813 Q663.6094,25.7813 663.8594,26.0469 Q664.125,26.2969 664.125,26.6406 Q664.125,26.9844 663.7813,27.3906 Q663.2813,27.9688 662.4844,28.2969 Q661.4063,28.75 660.1094,28.75 Q658.5938,28.75 657.3906,28.125 Q656.4063,27.625 655.7188,26.5625 Q655.0313,25.4844 655.0313,24.2031 L655.0313,23.0469 Q655.0313,21.7188 655.6406,20.5781 Q656.2656,19.4219 657.3594,18.8125 Q658.4531,18.1875 659.6875,18.1875 Q660.4219,18.1875 661.0625,18.3594 Q661.7188,18.5156 662.2656,18.875 Z " fill="#000000"/><text fill="#000000" font-family="sans-serif" font-size="14" lengthAdjust="spacing" textLength="29" x="673.5" y="28.7285">View</text><line style="stroke:#181818;stroke-width:0.5;" x1="645.5" x2="704.5" y1="39" y2="39"/><line style="stroke:#181818;stroke-width:0.5;" x1="645.5" x2="704.5" y1="47" y2="47"/></g><!--class StartController--><g id="elem_StartController"><rect codeLine="29" fill="#F1F1F1" height="48" id="StartController" rx="2.5" ry="2.5" style="stroke:#181818;stroke-width:0.5;" width="124" x="1382" y="679"/><ellipse cx="1397" cy="695" fill="#ADD1B2" rx="11" ry="11" style="stroke:#181818;stroke-width:1.0;"/><path d="M1399.7656,690.875 Q1399.9219,690.6563 1400.1094,690.5469 Q1400.2969,690.4375 1400.5156,690.4375 Q1400.8906,690.4375 1401.125,690.7031 Q1401.3594,690.9531 1401.3594,691.5625 L1401.3594,693.0156 Q1401.3594,693.625 1401.125,693.8906 Q1400.8906,694.1563 1400.5156,694.1563 Q1400.1719,694.1563 1399.9688,693.9531 Q1399.7656,693.7656 1399.6563,693.25 Q1399.6094,692.8906 1399.4219,692.7031 Q1399.0938,692.3281 1398.4844,692.1094 Q1397.875,691.8906 1397.25,691.8906 Q1396.4844,691.8906 1395.8438,692.2188 Q1395.2188,692.5469 1394.7188,693.2969 Q1394.2344,694.0469 1394.2344,695.0781 L1394.2344,696.1719 Q1394.2344,697.4063 1395.125,698.2344 Q1396.0156,699.0469 1397.6094,699.0469 Q1398.5469,699.0469 1399.2031,698.7969 Q1399.5938,698.6406 1400.0156,698.2031 Q1400.2813,697.9375 1400.4219,697.8594 Q1400.5781,697.7813 1400.7813,697.7813 Q1401.1094,697.7813 1401.3594,698.0469 Q1401.625,698.2969 1401.625,698.6406 Q1401.625,698.9844 1401.2813,699.3906 Q1400.7813,699.9688 1399.9844,700.2969 Q1398.9063,700.75 1397.6094,700.75 Q1396.0938,700.75 1394.8906,700.125 Q1393.9063,699.625 1393.2188,698.5625 Q1392.5313,697.4844 1392.5313,696.2031 L1392.5313,695.0469 Q1392.5313,693.7188 1393.1406,692.5781 Q1393.7656,691.4219 1394.8594,690.8125 Q1395.9531,690.1875 1397.1875,690.1875 Q1397.9219,690.1875 1398.5625,690.3594 Q1399.2188,690.5156 1399.7656,690.875 Z " fill="#000000"/><text fill="#000000" font-family="sans-serif" font-size="14" lengthAdjust="spacing" textLength="92" x="1411" y="700.7285">StartController</text><line style="stroke:#181818;stroke-width:0.5;" x1="1383" x2="1505" y1="711" y2="711"/><line style="stroke:#181818;stroke-width:0.5;" x1="1383" x2="1505" y1="719" y2="719"/></g><!--class PlayController--><g id="elem_PlayController"><rect codeLine="30" fill="#F1F1F1" height="48" id="PlayController" rx="2.5" ry="2.5" style="stroke:#181818;stroke-width:0.5;" width="121" x="1300.5" y="444.5"/><ellipse cx="1315.5" cy="460.5" fill="#ADD1B2" rx="11" ry="11" style="stroke:#181818;stroke-width:1.0;"/><path d="M1318.2656,456.375 Q1318.4219,456.1563 1318.6094,456.0469 Q1318.7969,455.9375 1319.0156,455.9375 Q1319.3906,455.9375 1319.625,456.2031 Q1319.8594,456.4531 1319.8594,457.0625 L1319.8594,458.5156 Q1319.8594,459.125 1319.625,459.3906 Q1319.3906,459.6563 1319.0156,459.6563 Q1318.6719,459.6563 1318.4688,459.4531 Q1318.2656,459.2656 1318.1563,458.75 Q1318.1094,458.3906 1317.9219,458.2031 Q1317.5938,457.8281 1316.9844,457.6094 Q1316.375,457.3906 1315.75,457.3906 Q1314.9844,457.3906 1314.3438,457.7188 Q1313.7188,458.0469 1313.2188,458.7969 Q1312.7344,459.5469 1312.7344,460.5781 L1312.7344,461.6719 Q1312.7344,462.9063 1313.625,463.7344 Q1314.5156,464.5469 1316.1094,464.5469 Q1317.0469,464.5469 1317.7031,464.2969 Q1318.0938,464.1406 1318.5156,463.7031 Q1318.7813,463.4375 1318.9219,463.3594 Q1319.0781,463.2813 1319.2813,463.2813 Q1319.6094,463.2813 1319.8594,463.5469 Q1320.125,463.7969 1320.125,464.1406 Q1320.125,464.4844 1319.7813,464.8906 Q1319.2813,465.4688 1318.4844,465.7969 Q1317.4063,466.25 1316.1094,466.25 Q1314.5938,466.25 1313.3906,465.625 Q1312.4063,465.125 1311.7188,464.0625 Q1311.0313,462.9844 1311.0313,461.7031 L1311.0313,460.5469 Q1311.0313,459.2188 1311.6406,458.0781 Q1312.2656,456.9219 1313.3594,456.3125 Q1314.4531,455.6875 1315.6875,455.6875 Q1316.4219,455.6875 1317.0625,455.8594 Q1317.7188,456.0156 1318.2656,456.375 Z " fill="#000000"/><text fill="#000000" font-family="sans-serif" font-size="14" lengthAdjust="spacing" textLength="89" x="1329.5" y="466.2285">PlayController</text><line style="stroke:#181818;stroke-width:0.5;" x1="1301.5" x2="1420.5" y1="476.5" y2="476.5"/><line style="stroke:#181818;stroke-width:0.5;" x1="1301.5" x2="1420.5" y1="484.5" y2="484.5"/></g><!--class ResumeController--><g id="elem_ResumeController"><rect codeLine="31" fill="#F1F1F1" height="48" id="ResumeController" rx="2.5" ry="2.5" style="stroke:#181818;stroke-width:0.5;" width="146" x="1604" y="331"/><ellipse cx="1619" cy="347" fill="#ADD1B2" rx="11" ry="11" style="stroke:#181818;stroke-width:1.0;"/><path d="M1621.7656,342.875 Q1621.9219,342.6563 1622.1094,342.5469 Q1622.2969,342.4375 1622.5156,342.4375 Q1622.8906,342.4375 1623.125,342.7031 Q1623.3594,342.9531 1623.3594,343.5625 L1623.3594,345.0156 Q1623.3594,345.625 1623.125,345.8906 Q1622.8906,346.1563 1622.5156,346.1563 Q1622.1719,346.1563 1621.9688,345.9531 Q1621.7656,345.7656 1621.6563,345.25 Q1621.6094,344.8906 1621.4219,344.7031 Q1621.0938,344.3281 1620.4844,344.1094 Q1619.875,343.8906 1619.25,343.8906 Q1618.4844,343.8906 1617.8438,344.2188 Q1617.2188,344.5469 1616.7188,345.2969 Q1616.2344,346.0469 1616.2344,347.0781 L1616.2344,348.1719 Q1616.2344,349.4063 1617.125,350.2344 Q1618.0156,351.0469 1619.6094,351.0469 Q1620.5469,351.0469 1621.2031,350.7969 Q1621.5938,350.6406 1622.0156,350.2031 Q1622.2813,349.9375 1622.4219,349.8594 Q1622.5781,349.7813 1622.7813,349.7813 Q1623.1094,349.7813 1623.3594,350.0469 Q1623.625,350.2969 1623.625,350.6406 Q1623.625,350.9844 1623.2813,351.3906 Q1622.7813,351.9688 1621.9844,352.2969 Q1620.9063,352.75 1619.6094,352.75 Q1618.0938,352.75 1616.8906,352.125 Q1615.9063,351.625 1615.2188,350.5625 Q1614.5313,349.4844 1614.5313,348.2031 L1614.5313,347.0469 Q1614.5313,345.7188 1615.1406,344.5781 Q1615.7656,343.4219 1616.8594,342.8125 Q1617.9531,342.1875 1619.1875,342.1875 Q1619.9219,342.1875 1620.5625,342.3594 Q1621.2188,342.5156 1621.7656,342.875 Z " fill="#000000"/><text fill="#000000" font-family="sans-serif" font-size="14" lengthAdjust="spacing" textLength="114" x="1633" y="352.7285">ResumeController</text><line style="stroke:#181818;stroke-width:0.5;" x1="1605" x2="1749" y1="363" y2="363"/><line style="stroke:#181818;stroke-width:0.5;" x1="1605" x2="1749" y1="371" y2="371"/></g><!--class Option--><g id="elem_Option"><rect codeLine="65" fill="#F1F1F1" height="48" id="Option" rx="2.5" ry="2.5" style="stroke:#181818;stroke-width:0.5;" width="204" x="904" y="679"/><ellipse cx="919" cy="695" fill="#ADD1B2" rx="11" ry="11" style="stroke:#181818;stroke-width:1.0;"/><path d="M921.7656,690.875 Q921.9219,690.6563 922.1094,690.5469 Q922.2969,690.4375 922.5156,690.4375 Q922.8906,690.4375 923.125,690.7031 Q923.3594,690.9531 923.3594,691.5625 L923.3594,693.0156 Q923.3594,693.625 923.125,693.8906 Q922.8906,694.1563 922.5156,694.1563 Q922.1719,694.1563 921.9688,693.9531 Q921.7656,693.7656 921.6563,693.25 Q921.6094,692.8906 921.4219,692.7031 Q921.0938,692.3281 920.4844,692.1094 Q919.875,691.8906 919.25,691.8906 Q918.4844,691.8906 917.8438,692.2188 Q917.2188,692.5469 916.7188,693.2969 Q916.2344,694.0469 916.2344,695.0781 L916.2344,696.1719 Q916.2344,697.4063 917.125,698.2344 Q918.0156,699.0469 919.6094,699.0469 Q920.5469,699.0469 921.2031,698.7969 Q921.5938,698.6406 922.0156,698.2031 Q922.2813,697.9375 922.4219,697.8594 Q922.5781,697.7813 922.7813,697.7813 Q923.1094,697.7813 923.3594,698.0469 Q923.625,698.2969 923.625,698.6406 Q923.625,698.9844 923.2813,699.3906 Q922.7813,699.9688 921.9844,700.2969 Q920.9063,700.75 919.6094,700.75 Q918.0938,700.75 916.8906,700.125 Q915.9063,699.625 915.2188,698.5625 Q914.5313,697.4844 914.5313,696.2031 L914.5313,695.0469 Q914.5313,693.7188 915.1406,692.5781 Q915.7656,691.4219 916.8594,690.8125 Q917.9531,690.1875 919.1875,690.1875 Q919.9219,690.1875 920.5625,690.3594 Q921.2188,690.5156 921.7656,690.875 Z " fill="#000000"/><text fill="#000000" font-family="sans-serif" font-size="14" lengthAdjust="spacing" textLength="172" x="933" y="700.7285">connect4.utils.menu.Option</text><line style="stroke:#181818;stroke-width:0.5;" x1="905" x2="1107" y1="711" y2="711"/><line style="stroke:#181818;stroke-width:0.5;" x1="905" x2="1107" y1="719" y2="719"/></g><!--class SecuentialMenu--><g id="elem_SecuentialMenu"><rect codeLine="66" fill="#F1F1F1" height="48" id="SecuentialMenu" rx="2.5" ry="2.5" style="stroke:#181818;stroke-width:0.5;" width="263" x="1092.5" y="564.5"/><ellipse cx="1107.5" cy="580.5" fill="#ADD1B2" rx="11" ry="11" style="stroke:#181818;stroke-width:1.0;"/><path d="M1110.2656,576.375 Q1110.4219,576.1563 1110.6094,576.0469 Q1110.7969,575.9375 1111.0156,575.9375 Q1111.3906,575.9375 1111.625,576.2031 Q1111.8594,576.4531 1111.8594,577.0625 L1111.8594,578.5156 Q1111.8594,579.125 1111.625,579.3906 Q1111.3906,579.6563 1111.0156,579.6563 Q1110.6719,579.6563 1110.4688,579.4531 Q1110.2656,579.2656 1110.1563,578.75 Q1110.1094,578.3906 1109.9219,578.2031 Q1109.5938,577.8281 1108.9844,577.6094 Q1108.375,577.3906 1107.75,577.3906 Q1106.9844,577.3906 1106.3438,577.7188 Q1105.7188,578.0469 1105.2188,578.7969 Q1104.7344,579.5469 1104.7344,580.5781 L1104.7344,581.6719 Q1104.7344,582.9063 1105.625,583.7344 Q1106.5156,584.5469 1108.1094,584.5469 Q1109.0469,584.5469 1109.7031,584.2969 Q1110.0938,584.1406 1110.5156,583.7031 Q1110.7813,583.4375 1110.9219,583.3594 Q1111.0781,583.2813 1111.2813,583.2813 Q1111.6094,583.2813 1111.8594,583.5469 Q1112.125,583.7969 1112.125,584.1406 Q1112.125,584.4844 1111.7813,584.8906 Q1111.2813,585.4688 1110.4844,585.7969 Q1109.4063,586.25 1108.1094,586.25 Q1106.5938,586.25 1105.3906,585.625 Q1104.4063,585.125 1103.7188,584.0625 Q1103.0313,582.9844 1103.0313,581.7031 L1103.0313,580.5469 Q1103.0313,579.2188 1103.6406,578.0781 Q1104.2656,576.9219 1105.3594,576.3125 Q1106.4531,575.6875 1107.6875,575.6875 Q1108.4219,575.6875 1109.0625,575.8594 Q1109.7188,576.0156 1110.2656,576.375 Z " fill="#000000"/><text fill="#000000" font-family="sans-serif" font-size="14" lengthAdjust="spacing" textLength="231" x="1121.5" y="586.2285">connect4.utils.menu.SecuentialMenu</text><line style="stroke:#181818;stroke-width:0.5;" x1="1093.5" x2="1354.5" y1="596.5" y2="596.5"/><line style="stroke:#181818;stroke-width:0.5;" x1="1093.5" x2="1354.5" y1="604.5" y2="604.5"/></g><!--class Coordinate--><g id="elem_Coordinate"><rect codeLine="67" fill="#F1F1F1" height="48" id="Coordinate" rx="2.5" ry="2.5" style="stroke:#181818;stroke-width:0.5;" width="194" x="1071" y="444.5"/><ellipse cx="1086" cy="460.5" fill="#ADD1B2" rx="11" ry="11" style="stroke:#181818;stroke-width:1.0;"/><path d="M1088.7656,456.375 Q1088.9219,456.1563 1089.1094,456.0469 Q1089.2969,455.9375 1089.5156,455.9375 Q1089.8906,455.9375 1090.125,456.2031 Q1090.3594,456.4531 1090.3594,457.0625 L1090.3594,458.5156 Q1090.3594,459.125 1090.125,459.3906 Q1089.8906,459.6563 1089.5156,459.6563 Q1089.1719,459.6563 1088.9688,459.4531 Q1088.7656,459.2656 1088.6563,458.75 Q1088.6094,458.3906 1088.4219,458.2031 Q1088.0938,457.8281 1087.4844,457.6094 Q1086.875,457.3906 1086.25,457.3906 Q1085.4844,457.3906 1084.8438,457.7188 Q1084.2188,458.0469 1083.7188,458.7969 Q1083.2344,459.5469 1083.2344,460.5781 L1083.2344,461.6719 Q1083.2344,462.9063 1084.125,463.7344 Q1085.0156,464.5469 1086.6094,464.5469 Q1087.5469,464.5469 1088.2031,464.2969 Q1088.5938,464.1406 1089.0156,463.7031 Q1089.2813,463.4375 1089.4219,463.3594 Q1089.5781,463.2813 1089.7813,463.2813 Q1090.1094,463.2813 1090.3594,463.5469 Q1090.625,463.7969 1090.625,464.1406 Q1090.625,464.4844 1090.2813,464.8906 Q1089.7813,465.4688 1088.9844,465.7969 Q1087.9063,466.25 1086.6094,466.25 Q1085.0938,466.25 1083.8906,465.625 Q1082.9063,465.125 1082.2188,464.0625 Q1081.5313,462.9844 1081.5313,461.7031 L1081.5313,460.5469 Q1081.5313,459.2188 1082.1406,458.0781 Q1082.7656,456.9219 1083.8594,456.3125 Q1084.9531,455.6875 1086.1875,455.6875 Q1086.9219,455.6875 1087.5625,455.8594 Q1088.2188,456.0156 1088.7656,456.375 Z " fill="#000000"/><text fill="#000000" font-family="sans-serif" font-size="14" lengthAdjust="spacing" textLength="162" x="1100" y="466.2285">connect4.Utils.Coordinate</text><line style="stroke:#181818;stroke-width:0.5;" x1="1072" x2="1264" y1="476.5" y2="476.5"/><line style="stroke:#181818;stroke-width:0.5;" x1="1072" x2="1264" y1="484.5" y2="484.5"/></g><!--class Console--><g id="elem_Console"><rect codeLine="68" fill="#F1F1F1" height="48" id="Console" rx="2.5" ry="2.5" style="stroke:#181818;stroke-width:0.5;" width="175" x="740.5" y="7"/><ellipse cx="755.5" cy="23" fill="#ADD1B2" rx="11" ry="11" style="stroke:#181818;stroke-width:1.0;"/><path d="M758.2656,18.875 Q758.4219,18.6563 758.6094,18.5469 Q758.7969,18.4375 759.0156,18.4375 Q759.3906,18.4375 759.625,18.7031 Q759.8594,18.9531 759.8594,19.5625 L759.8594,21.0156 Q759.8594,21.625 759.625,21.8906 Q759.3906,22.1563 759.0156,22.1563 Q758.6719,22.1563 758.4688,21.9531 Q758.2656,21.7656 758.1563,21.25 Q758.1094,20.8906 757.9219,20.7031 Q757.5938,20.3281 756.9844,20.1094 Q756.375,19.8906 755.75,19.8906 Q754.9844,19.8906 754.3438,20.2188 Q753.7188,20.5469 753.2188,21.2969 Q752.7344,22.0469 752.7344,23.0781 L752.7344,24.1719 Q752.7344,25.4063 753.625,26.2344 Q754.5156,27.0469 756.1094,27.0469 Q757.0469,27.0469 757.7031,26.7969 Q758.0938,26.6406 758.5156,26.2031 Q758.7813,25.9375 758.9219,25.8594 Q759.0781,25.7813 759.2813,25.7813 Q759.6094,25.7813 759.8594,26.0469 Q760.125,26.2969 760.125,26.6406 Q760.125,26.9844 759.7813,27.3906 Q759.2813,27.9688 758.4844,28.2969 Q757.4063,28.75 756.1094,28.75 Q754.5938,28.75 753.3906,28.125 Q752.4063,27.625 751.7188,26.5625 Q751.0313,25.4844 751.0313,24.2031 L751.0313,23.0469 Q751.0313,21.7188 751.6406,20.5781 Q752.2656,19.4219 753.3594,18.8125 Q754.4531,18.1875 755.6875,18.1875 Q756.4219,18.1875 757.0625,18.3594 Q757.7188,18.5156 758.2656,18.875 Z " fill="#000000"/><text fill="#000000" font-family="sans-serif" font-size="14" lengthAdjust="spacing" textLength="143" x="769.5" y="28.7285">connect4.utils.Console</text><line style="stroke:#181818;stroke-width:0.5;" x1="741.5" x2="914.5" y1="39" y2="39"/><line style="stroke:#181818;stroke-width:0.5;" x1="741.5" x2="914.5" y1="47" y2="47"/></g><!--class Player--><g id="elem_Player"><rect codeLine="69" fill="#F1F1F1" height="61.2188" id="Player" rx="2.5" ry="2.5" style="stroke:#181818;stroke-width:0.5;" width="156" x="901" y="895"/><ellipse cx="916" cy="917.6094" fill="#ADD1B2" rx="11" ry="11" style="stroke:#181818;stroke-width:1.0;"/><path d="M918.7656,913.4844 Q918.9219,913.2656 919.1094,913.1563 Q919.2969,913.0469 919.5156,913.0469 Q919.8906,913.0469 920.125,913.3125 Q920.3594,913.5625 920.3594,914.1719 L920.3594,915.625 Q920.3594,916.2344 920.125,916.5 Q919.8906,916.7656 919.5156,916.7656 Q919.1719,916.7656 918.9688,916.5625 Q918.7656,916.375 918.6563,915.8594 Q918.6094,915.5 918.4219,915.3125 Q918.0938,914.9375 917.4844,914.7188 Q916.875,914.5 916.25,914.5 Q915.4844,914.5 914.8438,914.8281 Q914.2188,915.1563 913.7188,915.9063 Q913.2344,916.6563 913.2344,917.6875 L913.2344,918.7813 Q913.2344,920.0156 914.125,920.8438 Q915.0156,921.6563 916.6094,921.6563 Q917.5469,921.6563 918.2031,921.4063 Q918.5938,921.25 919.0156,920.8125 Q919.2813,920.5469 919.4219,920.4688 Q919.5781,920.3906 919.7813,920.3906 Q920.1094,920.3906 920.3594,920.6563 Q920.625,920.9063 920.625,921.25 Q920.625,921.5938 920.2813,922 Q919.7813,922.5781 918.9844,922.9063 Q917.9063,923.3594 916.6094,923.3594 Q915.0938,923.3594 913.8906,922.7344 Q912.9063,922.2344 912.2188,921.1719 Q911.5313,920.0938 911.5313,918.8125 L911.5313,917.6563 Q911.5313,916.3281 912.1406,915.1875 Q912.7656,914.0313 913.8594,913.4219 Q914.9531,912.7969 916.1875,912.7969 Q916.9219,912.7969 917.5625,912.9688 Q918.2188,913.125 918.7656,913.4844 Z " fill="#000000"/><text fill="#000000" font-family="sans-serif" font-size="14" lengthAdjust="spacing" textLength="124" x="930" y="914.5332">connect4.connect4.</text><text fill="#000000" font-family="sans-serif" font-size="14" lengthAdjust="spacing" textLength="89" x="947.5" y="932.1426">models.Player</text><line style="stroke:#181818;stroke-width:0.5;" x1="902" x2="1056" y1="940.2188" y2="940.2188"/><line style="stroke:#181818;stroke-width:0.5;" x1="902" x2="1056" y1="948.2188" y2="948.2188"/></g><!--class PlayerType--><g id="elem_PlayerType"><rect codeLine="70" fill="#F1F1F1" height="61.2188" id="PlayerType" rx="2.5" ry="2.5" style="stroke:#181818;stroke-width:0.5;" width="156" x="901" y="558"/><ellipse cx="916" cy="580.6094" fill="#EB937F" rx="11" ry="11" style="stroke:#181818;stroke-width:1.0;"/><path d="M914.8594,581.4063 L914.8594,583.9063 L919.1875,583.9063 L919.1875,582.9844 Q919.1875,582.375 919.4219,582.1094 Q919.6719,581.8438 920.0469,581.8438 Q920.4219,581.8438 920.6563,582.1094 Q920.8906,582.375 920.8906,582.9844 L920.8906,585.6094 L912.8906,585.6094 Q912.2656,585.6094 912,585.375 Q911.75,585.1406 911.75,584.75 Q911.75,584.375 912.0156,584.1406 Q912.2813,583.9063 912.8906,583.9063 L913.1563,583.9063 L913.1563,577.25 L912.8906,577.25 Q912.2656,577.25 912,577.0156 Q911.75,576.7813 911.75,576.3906 Q911.75,576.0156 912,575.7813 Q912.2656,575.5469 912.8906,575.5469 L920.5156,575.5469 L920.5156,578.1406 Q920.5156,578.75 920.2813,579.0156 Q920.0625,579.2656 919.6719,579.2656 Q919.2969,579.2656 919.0625,579.0156 Q918.8281,578.75 918.8281,578.1406 L918.8281,577.25 L914.8594,577.25 L914.8594,579.7031 L916.3438,579.7031 Q916.3438,579.0469 916.4688,578.8594 Q916.7344,578.4531 917.2031,578.4531 Q917.5781,578.4531 917.8125,578.7188 Q918.0469,578.9688 918.0469,579.5781 L918.0469,581.5469 Q918.0469,582.0938 917.9219,582.2813 Q917.6563,582.6719 917.2031,582.6719 Q916.7344,582.6719 916.4688,582.2656 Q916.3438,582.0781 916.3438,581.4063 L914.8594,581.4063 Z " fill="#000000"/><text fill="#000000" font-family="sans-serif" font-size="14" lengthAdjust="spacing" textLength="124" x="930" y="577.5332">connect4.connect4.</text><text fill="#000000" font-family="sans-serif" font-size="14" lengthAdjust="spacing" textLength="110" x="937" y="595.1426">types.PlayerType</text><line style="stroke:#181818;stroke-width:0.5;" x1="902" x2="1056" y1="603.2188" y2="603.2188"/><line style="stroke:#181818;stroke-width:0.5;" x1="902" x2="1056" y1="611.2188" y2="611.2188"/></g><!--class Controller--><g id="elem_Controller"><rect fill="#F1F1F1" height="48" id="Controller" rx="2.5" ry="2.5" style="stroke:#181818;stroke-width:0.5;" width="94" x="942" y="444.5"/><ellipse cx="957" cy="460.5" fill="#ADD1B2" rx="11" ry="11" style="stroke:#181818;stroke-width:1.0;"/><path d="M959.7656,456.375 Q959.9219,456.1563 960.1094,456.0469 Q960.2969,455.9375 960.5156,455.9375 Q960.8906,455.9375 961.125,456.2031 Q961.3594,456.4531 961.3594,457.0625 L961.3594,458.5156 Q961.3594,459.125 961.125,459.3906 Q960.8906,459.6563 960.5156,459.6563 Q960.1719,459.6563 959.9688,459.4531 Q959.7656,459.2656 959.6563,458.75 Q959.6094,458.3906 959.4219,458.2031 Q959.0938,457.8281 958.4844,457.6094 Q957.875,457.3906 957.25,457.3906 Q956.4844,457.3906 955.8438,457.7188 Q955.2188,458.0469 954.7188,458.7969 Q954.2344,459.5469 954.2344,460.5781 L954.2344,461.6719 Q954.2344,462.9063 955.125,463.7344 Q956.0156,464.5469 957.6094,464.5469 Q958.5469,464.5469 959.2031,464.2969 Q959.5938,464.1406 960.0156,463.7031 Q960.2813,463.4375 960.4219,463.3594 Q960.5781,463.2813 960.7813,463.2813 Q961.1094,463.2813 961.3594,463.5469 Q961.625,463.7969 961.625,464.1406 Q961.625,464.4844 961.2813,464.8906 Q960.7813,465.4688 959.9844,465.7969 Q958.9063,466.25 957.6094,466.25 Q956.0938,466.25 954.8906,465.625 Q953.9063,465.125 953.2188,464.0625 Q952.5313,462.9844 952.5313,461.7031 L952.5313,460.5469 Q952.5313,459.2188 953.1406,458.0781 Q953.7656,456.9219 954.8594,456.3125 Q955.9531,455.6875 957.1875,455.6875 Q957.9219,455.6875 958.5625,455.8594 Q959.2188,456.0156 959.7656,456.375 Z " fill="#000000"/><text fill="#000000" font-family="sans-serif" font-size="14" lengthAdjust="spacing" textLength="62" x="971" y="466.2285">Controller</text><line style="stroke:#181818;stroke-width:0.5;" x1="943" x2="1035" y1="476.5" y2="476.5"/><line style="stroke:#181818;stroke-width:0.5;" x1="943" x2="1035" y1="484.5" y2="484.5"/></g><!--reverse link View to Consoleview--><g id="link_View_Consoleview"><path codeLine="24" d="M675,73 C675,90.66 675,96.94 675,114.68 " fill="none" id="View-backto-Consoleview" style="stroke:#181818;stroke-width:1.0;"/><polygon fill="none" points="675,55,669,73,681,73,675,55" style="stroke:#181818;stroke-width:1.0;"/></g><!--link Consoleview to StartView--><g id="link_Consoleview_StartView"><path codeLine="25" d="M675,175 C675,192.66 675,198.94 675,216.68 " fill="none" id="Consoleview-StartView" style="stroke:#181818;stroke-width:1.0;"/><polygon fill="#181818" points="675,163,671,169,675,175,679,169,675,163" style="stroke:#181818;stroke-width:1.0;"/><polygon fill="#181818" points="675,222.68,679,213.68,675,217.68,671,213.68,675,222.68" style="stroke:#181818;stroke-width:1.0;"/></g><!--link Consoleview to PlayView--><g id="link_Consoleview_PlayView"><path codeLine="26" d="M638.7269,170.7602 C617.8969,188.4202 602.9962,201.0594 582.0762,218.7994 " fill="none" id="Consoleview-PlayView" style="stroke:#181818;stroke-width:1.0;"/><polygon fill="#181818" points="647.88,163,640.7167,163.829,638.7269,170.7602,645.8902,169.9311,647.88,163" style="stroke:#181818;stroke-width:1.0;"/><polygon fill="#181818" points="577.5,222.68,586.9513,219.9099,581.3135,219.4462,581.7772,213.8084,577.5,222.68" style="stroke:#181818;stroke-width:1.0;"/></g><!--link Consoleview to ResumeView--><g id="link_Consoleview_ResumeView"><path codeLine="27" d="M714.2201,170.3442 C737.0401,188.0042 754.1844,201.2685 777.1144,219.0085 " fill="none" id="Consoleview-ResumeView" style="stroke:#181818;stroke-width:1.0;"/><polygon fill="#181818" points="704.73,163,707.027,169.8355,714.2201,170.3442,711.9231,163.5087,704.73,163" style="stroke:#181818;stroke-width:1.0;"/><polygon fill="#181818" points="781.86,222.68,777.1893,214.0091,777.9054,219.6205,772.294,220.3365,781.86,222.68" style="stroke:#181818;stroke-width:1.0;"/></g><!--link StartView to StartController--><g id="link_StartView_StartController"><path codeLine="33" d="M720.53,265.42 C726.37,267.42 732.3,269.33 738,271 C1045.51,360.88 1219.67,205.47 1439,439 C1501.37,505.41 1471.4791,622.3518 1454.3991,673.2418 " fill="none" id="StartView-to-StartController" style="stroke:#181818;stroke-width:1.0;"/><polygon fill="#181818" points="1452.49,678.93,1459.1458,671.6705,1454.0809,674.1899,1451.5615,669.125,1452.49,678.93" style="stroke:#181818;stroke-width:1.0;"/></g><!--link PlayView to PlayController--><g id="link_PlayView_PlayController"><path codeLine="34" d="M594.11,265.22 C600.08,267.3 606.16,269.29 612,271 C731.62,306.1 764.93,301.3 886,331 C1063.59,374.57 1108.75,383.57 1283,439 C1288.63,440.79 1288.7887,440.7814 1294.6087,442.7914 " fill="none" id="PlayView-to-PlayController" style="stroke:#181818;stroke-width:1.0;"/><polygon fill="#181818" points="1300.28,444.75,1293.0788,438.0312,1295.5539,443.1178,1290.4673,445.5929,1300.28,444.75" style="stroke:#181818;stroke-width:1.0;"/></g><!--link ResumeView to ResumeController--><g id="link_ResumeView_ResumeController"><path codeLine="35" d="M868.94,251.87 C996.41,261.03 1314.2,286.68 1577,331 C1585.7,332.47 1588.8976,332.9992 1597.8676,334.8792 " fill="none" id="ResumeView-to-ResumeController" style="stroke:#181818;stroke-width:1.0;"/><polygon fill="#181818" points="1603.74,336.11,1595.7519,330.3489,1598.8463,335.0843,1594.1109,338.1788,1603.74,336.11" style="stroke:#181818;stroke-width:1.0;"/></g><!--link StartView to TurnView--><g id="link_StartView_TurnView"><path codeLine="37" d="M645.92,271 C623.6,288.66 597.616,309.218 575.186,326.958 " fill="none" id="StartView-to-TurnView" style="stroke:#181818;stroke-width:1.0;stroke-dasharray:7.0,7.0;"/><polygon fill="#181818" points="570.48,330.68,580.0204,328.2343,574.4017,327.5783,575.0577,321.9596,570.48,330.68" style="stroke:#181818;stroke-width:1.0;"/></g><!--link StartView to BoardView--><g id="link_StartView_BoardView"><path codeLine="38" d="M674.13,271 C673.47,288.66 672.7764,306.9443 672.1064,324.6843 " fill="none" id="StartView-to-BoardView" style="stroke:#181818;stroke-width:1.0;stroke-dasharray:7.0,7.0;"/><polygon fill="#181818" points="671.88,330.68,676.2168,321.8374,672.0687,325.6836,668.2225,321.5354,671.88,330.68" style="stroke:#181818;stroke-width:1.0;"/></g><!--link PlayView to TurnView--><g id="link_PlayView_TurnView"><path codeLine="40" d="M548.05,271 C546.55,288.66 544.9989,306.9616 543.4889,324.7016 " fill="none" id="PlayView-to-TurnView" style="stroke:#181818;stroke-width:1.0;stroke-dasharray:7.0,7.0;"/><polygon fill="#181818" points="542.98,330.68,547.7289,322.0517,543.4041,325.698,539.7577,321.3732,542.98,330.68" style="stroke:#181818;stroke-width:1.0;"/></g><!--link PlayView to BoardView--><g id="link_PlayView_BoardView"><path codeLine="41" d="M576.26,271 C596.41,288.66 619.6169,308.9863 639.8669,326.7263 " fill="none" id="PlayView-to-BoardView" style="stroke:#181818;stroke-width:1.0;stroke-dasharray:7.0,7.0;"/><polygon fill="#181818" points="644.38,330.68,640.2461,321.7407,640.6191,327.3852,634.9745,327.7582,644.38,330.68" style="stroke:#181818;stroke-width:1.0;"/></g><!--link ResumeView to YesNoDialog--><g id="link_ResumeView_YesNoDialog"><path codeLine="43" d="M812,271 C812,288.66 812,306.94 812,324.68 " fill="none" id="ResumeView-to-YesNoDialog" style="stroke:#181818;stroke-width:1.0;stroke-dasharray:7.0,7.0;"/><polygon fill="#181818" points="812,330.68,816,321.68,812,325.68,808,321.68,812,330.68" style="stroke:#181818;stroke-width:1.0;"/></g><!--link TurnView to PlayerView--><g id="link_TurnView_PlayerView"><path codeLine="45" d="M505.32,379.03 C480.32,395.37 446.28,418.04 417,439 C297.8,524.33 165.2971,628.5268 106.6771,675.1168 " fill="none" id="TurnView-to-PlayerView" style="stroke:#181818;stroke-width:1.0;stroke-dasharray:7.0,7.0;"/><polygon fill="#181818" points="101.98,678.85,111.5145,676.3816,105.8943,675.739,106.5369,670.1188,101.98,678.85" style="stroke:#181818;stroke-width:1.0;"/></g><!--reverse link PlayerView to UserPlayerView--><g id="link_PlayerView_UserPlayerView"><path codeLine="47" d="M140.8019,727.4721 C146.6319,729.2321 135.3,725.65 141,727 C332.64,772.24 564.94,795.7 675.89,805.04 " fill="none" id="PlayerView-backto-UserPlayerView" style="stroke:#181818;stroke-width:1.0;"/><polygon fill="none" points="123.57,722.27,139.0679,733.216,142.5359,721.7281,123.57,722.27" style="stroke:#181818;stroke-width:1.0;"/></g><!--reverse link PlayerView to MachinePlayerView--><g id="link_PlayerView_MachinePlayerView"><path codeLine="48" d="M140.1435,733.7794 C180.1535,751.5294 219.32,768.9 259.74,786.82 " fill="none" id="PlayerView-backto-MachinePlayerView" style="stroke:#181818;stroke-width:1.0;"/><polygon fill="none" points="123.69,726.48,137.7104,739.2639,142.5767,728.2949,123.69,726.48" style="stroke:#181818;stroke-width:1.0;"/></g><!--reverse link MachinePlayerView to MinMaxMachinePlayerView--><g id="link_MachinePlayerView_MinMaxMachinePlayerView"><path codeLine="49" d="M290.3049,850.745 C279.4349,870.155 272.75,882.09 261.88,901.49 " fill="none" id="MachinePlayerView-backto-MinMaxMachinePlayerView" style="stroke:#181818;stroke-width:1.0;"/><polygon fill="none" points="299.1,835.04,285.0699,847.8133,295.5399,853.6767,299.1,835.04" style="stroke:#181818;stroke-width:1.0;"/></g><!--reverse link MachinePlayerView to RandomMachinePlayerView--><g id="link_MachinePlayerView_RandomMachinePlayerView"><path codeLine="50" d="M363.207,844.7335 C393.577,864.1435 421.65,882.09 452.01,901.49 " fill="none" id="MachinePlayerView-backto-RandomMachinePlayerView" style="stroke:#181818;stroke-width:1.0;"/><polygon fill="none" points="348.04,835.04,359.9758,849.7891,366.4381,839.6778,348.04,835.04" style="stroke:#181818;stroke-width:1.0;"/></g><!--reverse link TurnOption to SetRandomMachinePlayerOption--><g id="link_TurnOption_SetRandomMachinePlayerOption"><path codeLine="52" d="M716.9757,605.0117 C634.3357,623.3117 489.82,655.31 382.96,678.98 " fill="none" id="TurnOption-backto-SetRandomMachinePlayerOption" style="stroke:#181818;stroke-width:1.0;"/><polygon fill="none" points="734.55,601.12,715.6785,599.1536,718.273,610.8698,734.55,601.12" style="stroke:#181818;stroke-width:1.0;"/></g><!--reverse link TurnOption to SetMinMaxMachinePlayerOption--><g id="link_TurnOption_SetMinMaxMachinePlayerOption"><path codeLine="53" d="M722.6434,620.31 C682.0834,639.72 640.59,659.59 600.06,678.99 " fill="none" id="TurnOption-backto-SetMinMaxMachinePlayerOption" style="stroke:#181818;stroke-width:1.0;"/><polygon fill="none" points="738.88,612.54,720.0534,614.8978,725.2334,625.7222,738.88,612.54" style="stroke:#181818;stroke-width:1.0;"/></g><!--reverse link TurnOption to SetUserPlayerOption--><g id="link_TurnOption_SetUserPlayerOption"><path codeLine="54" d="M787,630.54 C787,649.95 787,659.59 787,678.99 " fill="none" id="TurnOption-backto-SetUserPlayerOption" style="stroke:#181818;stroke-width:1.0;"/><polygon fill="none" points="787,612.54,781,630.54,793,630.54,787,612.54" style="stroke:#181818;stroke-width:1.0;"/></g><!--link TurnView to TurnMenu--><g id="link_TurnView_TurnMenu"><path codeLine="56" d="M586.69,376.71 C629.77,396.23 688.6449,422.9235 732.7149,442.8935 " fill="none" id="TurnView-to-TurnMenu" style="stroke:#181818;stroke-width:1.0;stroke-dasharray:7.0,7.0;"/><polygon fill="#181818" points="738.18,445.37,731.6334,438.0119,733.6258,443.3063,728.3314,445.2987,738.18,445.37" style="stroke:#181818;stroke-width:1.0;"/></g><!--reverse link TurnMenu to TurnOption--><g id="link_TurnMenu_TurnOption"><path codeLine="57" d="M787,504.53 C787,525.19 787,543.36 787,564.12 " fill="none" id="TurnMenu-backto-TurnOption" style="stroke:#181818;stroke-width:1.0;"/><polygon fill="none" points="787,492.53,783,498.53,787,504.53,791,498.53,787,492.53" style="stroke:#181818;stroke-width:1.0;"/></g><!--link TurnView to PlayerViewPrototypeDirector--><g id="link_TurnView_PlayerViewPrototypeDirector"><path codeLine="58" d="M541,379.1 C541,396.45 541,414.32 541,432.88 " fill="none" id="TurnView-to-PlayerViewPrototypeDirector" style="stroke:#181818;stroke-width:1.0;stroke-dasharray:7.0,7.0;"/><polygon fill="#181818" points="541,438.88,545,429.88,541,433.88,537,429.88,541,438.88" style="stroke:#181818;stroke-width:1.0;"/></g><!--link PlayerViewPrototypeDirector to PlayerViewPrototypeRegistry--><g id="link_PlayerViewPrototypeDirector_PlayerViewPrototypeRegistry"><path codeLine="60" d="M521.39,498.06 C508.75,516.48 495.7647,535.3927 483.1047,553.8427 " fill="none" id="PlayerViewPrototypeDirector-to-PlayerViewPrototypeRegistry" style="stroke:#181818;stroke-width:1.0;stroke-dasharray:7.0,7.0;"/><polygon fill="#181818" points="479.71,558.79,488.1003,553.6322,482.5389,554.6672,481.5039,549.1059,479.71,558.79" style="stroke:#181818;stroke-width:1.0;"/></g><!--reverse link PlayerViewPrototypeRegistry to PlayerView--><g id="link_PlayerViewPrototypeRegistry_PlayerView"><path codeLine="61" d="M341.3124,621.1958 C279.2024,638.1258 211.2,657.3 141,679 C135.4,680.73 129.57,682.6 123.78,684.5 " fill="none" id="PlayerViewPrototypeRegistry-backto-PlayerView" style="stroke:#181818;stroke-width:1.0;"/><polygon fill="none" points="352.89,618.04,346.0493,615.7587,341.3124,621.1958,348.1531,623.4771,352.89,618.04" style="stroke:#181818;stroke-width:1.0;"/></g><!--link TurnOption to Option--><g id="link_TurnOption_Option"><path codeLine="72" d="M831.85,612.54 C869.64,631.95 907.4286,651.366 945.1986,670.766 " fill="none" id="TurnOption-to-Option" style="stroke:#181818;stroke-width:1.0;"/><polygon fill="none" points="961.21,678.99,947.9399,665.4288,942.4572,676.1031,961.21,678.99" style="stroke:#181818;stroke-width:1.0;"/></g><!--link TurnMenu to SecuentialMenu--><g id="link_TurnMenu_SecuentialMenu"><path codeLine="73" d="M835.77,488.74 C844.76,492.01 854.12,495.24 863,498 C947.49,524.22 1027.3781,544.0187 1099.7181,560.4687 " fill="none" id="TurnMenu-to-SecuentialMenu" style="stroke:#181818;stroke-width:1.0;"/><polygon fill="none" points="1117.27,564.46,1101.0485,554.6181,1098.3877,566.3194,1117.27,564.46" style="stroke:#181818;stroke-width:1.0;"/></g><!--link BoardView to Controller--><g id="link_BoardView_Controller"><path codeLine="74" d="M720.75,373.1 C726.57,375.09 732.41,377.09 738,379 C816.62,405.82 836.89,410.73 915,439 C923.67,442.14 927.2741,443.4514 936.1341,446.8314 " fill="none" id="BoardView-to-Controller" style="stroke:#181818;stroke-width:1.0;"/><polygon fill="#181818" points="941.74,448.97,934.7569,442.0248,937.0684,447.1878,931.9054,449.4994,941.74,448.97" style="stroke:#181818;stroke-width:1.0;"/></g><!--link BoardView to Coordinate--><g id="link_BoardView_Coordinate"><path codeLine="75" d="M720.52,373.88 C726.37,375.73 732.29,377.49 738,379 C876.18,415.63 914.38,408.32 1054,439 C1061.77,440.71 1063.9801,441.1833 1072.0401,443.0833 " fill="none" id="BoardView-to-Coordinate" style="stroke:#181818;stroke-width:1.0;stroke-dasharray:7.0,7.0;"/><polygon fill="#181818" points="1077.88,444.46,1070.0379,438.5017,1073.0134,443.3128,1068.2023,446.2883,1077.88,444.46" style="stroke:#181818;stroke-width:1.0;"/></g><!--reverse link MachinePlayerView to Player--><g id="link_MachinePlayerView_Player"><path codeLine="76" d="M401.5886,820.4727 C512.4386,831.7327 710.06,855.15 885,895 C890.17,896.18 895.47,897.5 900.78,898.92 " fill="none" id="MachinePlayerView-backto-Player" style="stroke:#181818;stroke-width:1.0;"/><polygon fill="#181818" points="389.65,819.26,395.215,823.8459,401.5886,820.4727,396.0235,815.8868,389.65,819.26" style="stroke:#181818;stroke-width:1.0;"/></g><!--reverse link UserPlayerView to Player--><g id="link_UserPlayerView_Player"><path codeLine="77" d="M800.5891,840.168 C837.1691,857.458 876.71,876.15 916.29,894.86 " fill="none" id="UserPlayerView-backto-Player" style="stroke:#181818;stroke-width:1.0;"/><polygon fill="#181818" points="789.74,835.04,793.4552,841.2204,800.5891,840.168,796.8739,833.9876,789.74,835.04" style="stroke:#181818;stroke-width:1.0;"/></g><!--link TurnView to StartController--><g id="link_TurnView_StartController"><path codeLine="78" d="M586.56,373.32 C592.4,375.34 598.32,377.28 604,379 C712.97,411.91 751.07,388.31 853,439 C890.04,457.42 886.95,481.76 925,498 C1027.32,541.66 1342.11,480.58 1422,558 C1454.33,589.33 1453.123,640.7613 1448.903,672.8213 " fill="none" id="TurnView-to-StartController" style="stroke:#181818;stroke-width:1.0;"/><polygon fill="#181818" points="1448.12,678.77,1453.2603,670.369,1448.7725,673.8128,1445.3287,669.325,1448.12,678.77" style="stroke:#181818;stroke-width:1.0;"/></g><!--link TurnView to PlayController--><g id="link_TurnView_PlayController"><path codeLine="79" d="M586.69,374.25 C592.45,376.09 598.32,377.73 604,379 C899.71,444.84 987.3,373.12 1283,439 C1289.61,440.47 1290.7056,440.5726 1297.4256,442.6826 " fill="none" id="TurnView-to-PlayController" style="stroke:#181818;stroke-width:1.0;"/><polygon fill="#181818" points="1303.15,444.48,1295.7616,437.9676,1298.3796,442.9822,1293.3651,445.6002,1303.15,444.48" style="stroke:#181818;stroke-width:1.0;"/></g><!--link TurnMenu to StartController--><g id="link_TurnMenu_StartController"><path codeLine="80" d="M835.51,489.67 C844.53,492.85 853.96,495.81 863,498 C973.9,524.9 1279.79,492.17 1373,558 C1413.87,586.86 1431.0108,640.1968 1438.4008,672.9868 " fill="none" id="TurnMenu-to-StartController" style="stroke:#181818;stroke-width:1.0;"/><polygon fill="#181818" points="1439.72,678.84,1441.6434,669.1808,1438.6207,673.9623,1433.8391,670.9397,1439.72,678.84" style="stroke:#181818;stroke-width:1.0;"/></g><!--link TurnOption to StartController--><g id="link_TurnOption_StartController"><path codeLine="81" d="M839.23,606.93 C853.62,611.31 869.32,615.7 884,619 C1062.59,659.16 1271.7733,684.1887 1375.7433,695.1887 " fill="none" id="TurnOption-to-StartController" style="stroke:#181818;stroke-width:1.0;"/><polygon fill="#181818" points="1381.71,695.82,1373.1808,690.8953,1376.7378,695.2939,1372.3391,698.8509,1381.71,695.82" style="stroke:#181818;stroke-width:1.0;"/></g><!--link PlayerViewPrototypeDirector to PlayerType--><g id="link_PlayerViewPrototypeDirector_PlayerType"><path codeLine="82" d="M647.16,495.29 C715.35,512.23 805.69,535.37 885,558 C890.18,559.48 889.7607,559.3238 895.1207,560.9238 " fill="none" id="PlayerViewPrototypeDirector-to-PlayerType" style="stroke:#181818;stroke-width:1.0;stroke-dasharray:7.0,7.0;"/><polygon fill="#181818" points="900.87,562.64,893.3902,556.2328,896.0789,561.2098,891.1019,563.8986,900.87,562.64" style="stroke:#181818;stroke-width:1.0;"/></g><!--SRC=[XLJ1RjmW4Btp5SZ7IFQfnvKFJQxRHjkaKgHSY7UqjMH31BZjIldu03Om6DXSB3plFHY6UJDCJ2dwTuH_ghiNN8a9x0yPKFoNPbB_taSV9tRDWYTGomnP-BjWyfn5dnR9NP2zAItPeEb-Vv1r_CY6FoC7H4lGaH_P_zkS4-DdCT_cF2kG5SYcVmI-bDEpwCztFGgUrX9quTWoiN27CZ4ckU4cgzaN0fHY5qWaBw1-Y8UHJU92oYL_b48BVNs7Xr72e8MaXuDVzlrNeXDSHbEIgn5bCQFUvAwWzaCF7srBKVTHWd_kshQdiGSpA3HYXg1ktCvqsnYUbcAQG6vHkqCMNCKeJ48ED6I4O9y6zJaXB2P2OrxbhRkkfy4OQJYwA1wMq9CeOgFZBOAVdtYnGr2daxXUtsVdX3sSsoYBRCIAColqcab9DDXAlEci0hdkhW8vSrXQjp0A_88AeqCZe5Bbp6QuxBa7As9lBNBBYZOXN3xlYEsYJD5c49oRWxvrYnudrStc7jqADzu-C2p0jMaTTycQAALvyRqGyZnofY4LFZjXH2FVsRbqoWOroByWKs9OlF9Pd67oWwfPX-FwysGgL9NPydcL9JP9pxNjHq_Hwxg2k61wUn9ywAoFJ1y1-wxn_WKdt8N78waDCH9wh3IT4d0tdL3wPM6uSddgVTskjdo4V080]--></g></svg>