<?xml version="1.0" encoding="us-ascii" standalone="no"?><svg xmlns="http://www.w3.org/2000/svg" xmlns:xlink="http://www.w3.org/1999/xlink" contentStyleType="text/css" height="558px" preserveAspectRatio="none" style="width:1132px;height:558px;background:#FFFFFF;" version="1.1" viewBox="0 0 1132 558" width="1132px" zoomAndPan="magnify"><defs/><g><!--cluster controllers--><g id="cluster_controllers"><path d="M148,6 L226,6 A3.75,3.75 0 0 1 228.5,8.5 L235.5,29.6094 L967,29.6094 A2.5,2.5 0 0 1 969.5,32.1094 L969.5,548.5 A2.5,2.5 0 0 1 967,551 L148,551 A2.5,2.5 0 0 1 145.5,548.5 L145.5,8.5 A2.5,2.5 0 0 1 148,6 " fill="none" style="stroke:#000000;stroke-width:1.5;"/><line style="stroke:#000000;stroke-width:1.5;" x1="145.5" x2="235.5" y1="29.6094" y2="29.6094"/><text fill="#000000" font-family="sans-serif" font-size="14" font-weight="bold" lengthAdjust="spacing" textLength="77" x="149.5" y="22.5332">controllers</text></g><!--class Logic--><g id="elem_Logic"><rect codeLine="2" fill="#F1F1F1" height="100.8281" id="Logic" rx="2.5" ry="2.5" style="stroke:#181818;stroke-width:0.5;" width="286" x="605.5" y="42"/><ellipse cx="727.25" cy="58" fill="#ADD1B2" rx="11" ry="11" style="stroke:#181818;stroke-width:1.0;"/><path d="M730.0156,53.875 Q730.1719,53.6563 730.3594,53.5469 Q730.5469,53.4375 730.7656,53.4375 Q731.1406,53.4375 731.375,53.7031 Q731.6094,53.9531 731.6094,54.5625 L731.6094,56.0156 Q731.6094,56.625 731.375,56.8906 Q731.1406,57.1563 730.7656,57.1563 Q730.4219,57.1563 730.2188,56.9531 Q730.0156,56.7656 729.9063,56.25 Q729.8594,55.8906 729.6719,55.7031 Q729.3438,55.3281 728.7344,55.1094 Q728.125,54.8906 727.5,54.8906 Q726.7344,54.8906 726.0938,55.2188 Q725.4688,55.5469 724.9688,56.2969 Q724.4844,57.0469 724.4844,58.0781 L724.4844,59.1719 Q724.4844,60.4063 725.375,61.2344 Q726.2656,62.0469 727.8594,62.0469 Q728.7969,62.0469 729.4531,61.7969 Q729.8438,61.6406 730.2656,61.2031 Q730.5313,60.9375 730.6719,60.8594 Q730.8281,60.7813 731.0313,60.7813 Q731.3594,60.7813 731.6094,61.0469 Q731.875,61.2969 731.875,61.6406 Q731.875,61.9844 731.5313,62.3906 Q731.0313,62.9688 730.2344,63.2969 Q729.1563,63.75 727.8594,63.75 Q726.3438,63.75 725.1406,63.125 Q724.1563,62.625 723.4688,61.5625 Q722.7813,60.4844 722.7813,59.2031 L722.7813,58.0469 Q722.7813,56.7188 723.3906,55.5781 Q724.0156,54.4219 725.1094,53.8125 Q726.2031,53.1875 727.4375,53.1875 Q728.1719,53.1875 728.8125,53.3594 Q729.4688,53.5156 730.0156,53.875 Z " fill="#000000"/><text fill="#000000" font-family="sans-serif" font-size="14" lengthAdjust="spacing" textLength="34" x="747.75" y="63.7285">Logic</text><line style="stroke:#181818;stroke-width:0.5;" x1="606.5" x2="890.5" y1="74" y2="74"/><rect fill="none" height="6" style="stroke:#C82930;stroke-width:1.0;" width="6" x="613.5" y="85.3047"/><text fill="#000000" font-family="sans-serif" font-size="14" lengthAdjust="spacing" textLength="260" x="625.5" y="92.5332">controllers : Map&lt;StateValue, Controller&gt;</text><line style="stroke:#181818;stroke-width:0.5;" x1="606.5" x2="890.5" y1="99.6094" y2="99.6094"/><ellipse cx="616.5" cy="113.9141" fill="#84BE84" rx="3" ry="3" style="stroke:#038048;stroke-width:1.0;"/><text fill="#000000" font-family="sans-serif" font-size="14" lengthAdjust="spacing" textLength="44" x="625.5" y="118.1426">Logic()</text><ellipse cx="616.5" cy="131.5234" fill="#84BE84" rx="3" ry="3" style="stroke:#038048;stroke-width:1.0;"/><text fill="#000000" font-family="sans-serif" font-size="14" lengthAdjust="spacing" textLength="166" x="625.5" y="135.752">getController() : Controller</text></g><!--class Controller--><g id="elem_Controller"><rect codeLine="8" fill="#F1F1F1" height="83.2188" id="Controller" rx="2.5" ry="2.5" style="stroke:#181818;stroke-width:0.5;" width="177" x="589" y="203"/><ellipse cx="642.25" cy="219" fill="#A9DCDF" rx="11" ry="11" style="stroke:#181818;stroke-width:1.0;"/><path d="M644.4375,220.7656 L640.2969,220.7656 L639.875,221.7969 L640.2969,221.7969 Q640.9063,221.7969 641.1719,222.0313 Q641.4375,222.2656 641.4375,222.6563 Q641.4375,223.0313 641.1719,223.2656 Q640.9063,223.5 640.2969,223.5 L638,223.5 Q637.3906,223.5 637.1406,223.2656 Q636.875,223.0313 636.875,222.6406 Q636.875,222.2656 637.1563,222.0313 Q637.4219,221.7813 638.0469,221.7969 L640.7188,215.1406 L639.6094,215.1406 Q639,215.1406 638.7344,214.9063 Q638.4688,214.6719 638.4688,214.2813 Q638.4688,213.9063 638.7344,213.6719 Q639,213.4375 639.6094,213.4375 L643.2813,213.4375 L646.6719,221.7969 Q647.2656,221.7969 647.4531,221.9375 Q647.8438,222.2031 647.8438,222.6563 Q647.8438,223.0313 647.5781,223.2656 Q647.3281,223.5 646.7188,223.5 L644.4219,223.5 Q643.8125,223.5 643.5469,223.2656 Q643.2813,223.0313 643.2813,222.6406 Q643.2813,222.2656 643.5469,222.0313 Q643.8125,221.7969 644.4219,221.7969 L644.8438,221.7969 L644.4375,220.7656 Z M643.7188,219.0625 L642.3594,215.6875 L640.9844,219.0625 L643.7188,219.0625 Z " fill="#000000"/><text fill="#000000" font-family="sans-serif" font-size="14" font-style="italic" lengthAdjust="spacing" textLength="62" x="662.75" y="224.7285">Controller</text><line style="stroke:#181818;stroke-width:0.5;" x1="590" x2="765" y1="235" y2="235"/><line style="stroke:#181818;stroke-width:0.5;" x1="590" x2="765" y1="243" y2="243"/><ellipse cx="600" cy="257.3047" fill="#84BE84" rx="3" ry="3" style="stroke:#038048;stroke-width:1.0;"/><text fill="#000000" font-family="sans-serif" font-size="14" lengthAdjust="spacing" textLength="151" x="609" y="261.5332">Controller(Game, State)</text><ellipse cx="600" cy="274.9141" fill="#84BE84" rx="3" ry="3" style="stroke:#038048;stroke-width:1.0;"/><text fill="#000000" font-family="sans-serif" font-size="14" lengthAdjust="spacing" textLength="69" x="609" y="279.1426">nextState()</text></g><!--class Startcontroller--><g id="elem_Startcontroller"><rect codeLine="13" fill="#F1F1F1" height="188.875" id="Startcontroller" rx="2.5" ry="2.5" style="stroke:#181818;stroke-width:0.5;" width="318" x="161.5" y="346"/><ellipse cx="271.75" cy="362" fill="#ADD1B2" rx="11" ry="11" style="stroke:#181818;stroke-width:1.0;"/><path d="M274.5156,357.875 Q274.6719,357.6563 274.8594,357.5469 Q275.0469,357.4375 275.2656,357.4375 Q275.6406,357.4375 275.875,357.7031 Q276.1094,357.9531 276.1094,358.5625 L276.1094,360.0156 Q276.1094,360.625 275.875,360.8906 Q275.6406,361.1563 275.2656,361.1563 Q274.9219,361.1563 274.7188,360.9531 Q274.5156,360.7656 274.4063,360.25 Q274.3594,359.8906 274.1719,359.7031 Q273.8438,359.3281 273.2344,359.1094 Q272.625,358.8906 272,358.8906 Q271.2344,358.8906 270.5938,359.2188 Q269.9688,359.5469 269.4688,360.2969 Q268.9844,361.0469 268.9844,362.0781 L268.9844,363.1719 Q268.9844,364.4063 269.875,365.2344 Q270.7656,366.0469 272.3594,366.0469 Q273.2969,366.0469 273.9531,365.7969 Q274.3438,365.6406 274.7656,365.2031 Q275.0313,364.9375 275.1719,364.8594 Q275.3281,364.7813 275.5313,364.7813 Q275.8594,364.7813 276.1094,365.0469 Q276.375,365.2969 276.375,365.6406 Q276.375,365.9844 276.0313,366.3906 Q275.5313,366.9688 274.7344,367.2969 Q273.6563,367.75 272.3594,367.75 Q270.8438,367.75 269.6406,367.125 Q268.6563,366.625 267.9688,365.5625 Q267.2813,364.4844 267.2813,363.2031 L267.2813,362.0469 Q267.2813,360.7188 267.8906,359.5781 Q268.5156,358.4219 269.6094,357.8125 Q270.7031,357.1875 271.9375,357.1875 Q272.6719,357.1875 273.3125,357.3594 Q273.9688,357.5156 274.5156,357.875 Z " fill="#000000"/><text fill="#000000" font-family="sans-serif" font-size="14" lengthAdjust="spacing" textLength="89" x="292.25" y="367.7285">Startcontroller</text><line style="stroke:#181818;stroke-width:0.5;" x1="162.5" x2="478.5" y1="378" y2="378"/><line style="stroke:#181818;stroke-width:0.5;" x1="162.5" x2="478.5" y1="386" y2="386"/><ellipse cx="172.5" cy="400.3047" fill="#84BE84" rx="3" ry="3" style="stroke:#038048;stroke-width:1.0;"/><text fill="#000000" font-family="sans-serif" font-size="14" lengthAdjust="spacing" textLength="201" x="181.5" y="404.5332">getPlayerTypes() : PlayerType[]</text><ellipse cx="172.5" cy="417.9141" fill="#84BE84" rx="3" ry="3" style="stroke:#038048;stroke-width:1.0;"/><text fill="#000000" font-family="sans-serif" font-size="14" lengthAdjust="spacing" textLength="153" x="181.5" y="422.1426">getNumberPlayers() : int</text><ellipse cx="172.5" cy="435.5234" fill="#84BE84" rx="3" ry="3" style="stroke:#038048;stroke-width:1.0;"/><text fill="#000000" font-family="sans-serif" font-size="14" lengthAdjust="spacing" textLength="42" x="181.5" y="439.752">reset()</text><ellipse cx="172.5" cy="453.1328" fill="#84BE84" rx="3" ry="3" style="stroke:#038048;stroke-width:1.0;"/><text fill="#000000" font-family="sans-serif" font-size="14" lengthAdjust="spacing" textLength="120" x="181.5" y="457.3613">isReset() : boolean</text><ellipse cx="172.5" cy="470.7422" fill="#84BE84" rx="3" ry="3" style="stroke:#038048;stroke-width:1.0;"/><text fill="#000000" font-family="sans-serif" font-size="14" lengthAdjust="spacing" textLength="146" x="181.5" y="474.9707">addPlayer(PlayerType)</text><ellipse cx="172.5" cy="488.3516" fill="#84BE84" rx="3" ry="3" style="stroke:#038048;stroke-width:1.0;"/><text fill="#000000" font-family="sans-serif" font-size="14" lengthAdjust="spacing" textLength="286" x="181.5" y="492.5801">getMinMaxMachinePlayerType() : PlayerType</text><ellipse cx="172.5" cy="505.9609" fill="#84BE84" rx="3" ry="3" style="stroke:#038048;stroke-width:1.0;"/><text fill="#000000" font-family="sans-serif" font-size="14" lengthAdjust="spacing" textLength="292" x="181.5" y="510.1895">getRandomMachinePlayerType() : PlayerType</text><ellipse cx="172.5" cy="523.5703" fill="#84BE84" rx="3" ry="3" style="stroke:#038048;stroke-width:1.0;"/><text fill="#000000" font-family="sans-serif" font-size="14" lengthAdjust="spacing" textLength="255" x="181.5" y="527.7988">getUserPlayerPlayerType() : PlayerType</text></g><!--class PlayController--><g id="elem_PlayController"><rect codeLine="25" fill="#F1F1F1" height="188.875" id="PlayController" rx="2.5" ry="2.5" style="stroke:#181818;stroke-width:0.5;" width="250" x="514.5" y="346"/><ellipse cx="590.75" cy="362" fill="#ADD1B2" rx="11" ry="11" style="stroke:#181818;stroke-width:1.0;"/><path d="M593.5156,357.875 Q593.6719,357.6563 593.8594,357.5469 Q594.0469,357.4375 594.2656,357.4375 Q594.6406,357.4375 594.875,357.7031 Q595.1094,357.9531 595.1094,358.5625 L595.1094,360.0156 Q595.1094,360.625 594.875,360.8906 Q594.6406,361.1563 594.2656,361.1563 Q593.9219,361.1563 593.7188,360.9531 Q593.5156,360.7656 593.4063,360.25 Q593.3594,359.8906 593.1719,359.7031 Q592.8438,359.3281 592.2344,359.1094 Q591.625,358.8906 591,358.8906 Q590.2344,358.8906 589.5938,359.2188 Q588.9688,359.5469 588.4688,360.2969 Q587.9844,361.0469 587.9844,362.0781 L587.9844,363.1719 Q587.9844,364.4063 588.875,365.2344 Q589.7656,366.0469 591.3594,366.0469 Q592.2969,366.0469 592.9531,365.7969 Q593.3438,365.6406 593.7656,365.2031 Q594.0313,364.9375 594.1719,364.8594 Q594.3281,364.7813 594.5313,364.7813 Q594.8594,364.7813 595.1094,365.0469 Q595.375,365.2969 595.375,365.6406 Q595.375,365.9844 595.0313,366.3906 Q594.5313,366.9688 593.7344,367.2969 Q592.6563,367.75 591.3594,367.75 Q589.8438,367.75 588.6406,367.125 Q587.6563,366.625 586.9688,365.5625 Q586.2813,364.4844 586.2813,363.2031 L586.2813,362.0469 Q586.2813,360.7188 586.8906,359.5781 Q587.5156,358.4219 588.6094,357.8125 Q589.7031,357.1875 590.9375,357.1875 Q591.6719,357.1875 592.3125,357.3594 Q592.9688,357.5156 593.5156,357.875 Z " fill="#000000"/><text fill="#000000" font-family="sans-serif" font-size="14" lengthAdjust="spacing" textLength="89" x="611.25" y="367.7285">PlayController</text><line style="stroke:#181818;stroke-width:0.5;" x1="515.5" x2="763.5" y1="378" y2="378"/><line style="stroke:#181818;stroke-width:0.5;" x1="515.5" x2="763.5" y1="386" y2="386"/><ellipse cx="525.5" cy="400.3047" fill="#84BE84" rx="3" ry="3" style="stroke:#038048;stroke-width:1.0;"/><text fill="#000000" font-family="sans-serif" font-size="14" lengthAdjust="spacing" textLength="160" x="534.5" y="404.5332">getActivePlayer() : Player</text><ellipse cx="525.5" cy="417.9141" fill="#84BE84" rx="3" ry="3" style="stroke:#038048;stroke-width:1.0;"/><text fill="#000000" font-family="sans-serif" font-size="14" lengthAdjust="spacing" textLength="224" x="534.5" y="422.1426">getActivePlayerType() : PlayerType</text><ellipse cx="525.5" cy="435.5234" fill="#84BE84" rx="3" ry="3" style="stroke:#038048;stroke-width:1.0;"/><text fill="#000000" font-family="sans-serif" font-size="14" lengthAdjust="spacing" textLength="180" x="534.5" y="439.752">getColor(Coordinate) : Color</text><ellipse cx="525.5" cy="453.1328" fill="#84BE84" rx="3" ry="3" style="stroke:#038048;stroke-width:1.0;"/><text fill="#000000" font-family="sans-serif" font-size="14" lengthAdjust="spacing" textLength="137" x="534.5" y="457.3613">isFinished() : boolean</text><ellipse cx="525.5" cy="470.7422" fill="#84BE84" rx="3" ry="3" style="stroke:#038048;stroke-width:1.0;"/><text fill="#000000" font-family="sans-serif" font-size="14" lengthAdjust="spacing" textLength="36" x="534.5" y="474.9707">next()</text><ellipse cx="525.5" cy="488.3516" fill="#84BE84" rx="3" ry="3" style="stroke:#038048;stroke-width:1.0;"/><text fill="#000000" font-family="sans-serif" font-size="14" lengthAdjust="spacing" textLength="94" x="534.5" y="492.5801">dropToken(int)</text><ellipse cx="525.5" cy="505.9609" fill="#84BE84" rx="3" ry="3" style="stroke:#038048;stroke-width:1.0;"/><text fill="#000000" font-family="sans-serif" font-size="14" lengthAdjust="spacing" textLength="105" x="534.5" y="510.1895">getColumn() : int</text><ellipse cx="525.5" cy="523.5703" fill="#84BE84" rx="3" ry="3" style="stroke:#038048;stroke-width:1.0;"/><text fill="#000000" font-family="sans-serif" font-size="14" lengthAdjust="spacing" textLength="128" x="534.5" y="527.7988">isWinner() : boolean</text></g><!--class ResumeController--><g id="elem_ResumeController"><rect codeLine="35" fill="#F1F1F1" height="83.2188" id="ResumeController" rx="2.5" ry="2.5" style="stroke:#181818;stroke-width:0.5;" width="154" x="799.5" y="399"/><ellipse cx="818.1" cy="415" fill="#ADD1B2" rx="11" ry="11" style="stroke:#181818;stroke-width:1.0;"/><path d="M820.8656,410.875 Q821.0219,410.6563 821.2094,410.5469 Q821.3969,410.4375 821.6156,410.4375 Q821.9906,410.4375 822.225,410.7031 Q822.4594,410.9531 822.4594,411.5625 L822.4594,413.0156 Q822.4594,413.625 822.225,413.8906 Q821.9906,414.1563 821.6156,414.1563 Q821.2719,414.1563 821.0688,413.9531 Q820.8656,413.7656 820.7563,413.25 Q820.7094,412.8906 820.5219,412.7031 Q820.1938,412.3281 819.5844,412.1094 Q818.975,411.8906 818.35,411.8906 Q817.5844,411.8906 816.9438,412.2188 Q816.3188,412.5469 815.8188,413.2969 Q815.3344,414.0469 815.3344,415.0781 L815.3344,416.1719 Q815.3344,417.4063 816.225,418.2344 Q817.1156,419.0469 818.7094,419.0469 Q819.6469,419.0469 820.3031,418.7969 Q820.6938,418.6406 821.1156,418.2031 Q821.3813,417.9375 821.5219,417.8594 Q821.6781,417.7813 821.8813,417.7813 Q822.2094,417.7813 822.4594,418.0469 Q822.725,418.2969 822.725,418.6406 Q822.725,418.9844 822.3813,419.3906 Q821.8813,419.9688 821.0844,420.2969 Q820.0063,420.75 818.7094,420.75 Q817.1938,420.75 815.9906,420.125 Q815.0063,419.625 814.3188,418.5625 Q813.6313,417.4844 813.6313,416.2031 L813.6313,415.0469 Q813.6313,413.7188 814.2406,412.5781 Q814.8656,411.4219 815.9594,410.8125 Q817.0531,410.1875 818.2875,410.1875 Q819.0219,410.1875 819.6625,410.3594 Q820.3188,410.5156 820.8656,410.875 Z " fill="#000000"/><text fill="#000000" font-family="sans-serif" font-size="14" lengthAdjust="spacing" textLength="114" x="832.9" y="420.7285">ResumeController</text><line style="stroke:#181818;stroke-width:0.5;" x1="800.5" x2="952.5" y1="431" y2="431"/><line style="stroke:#181818;stroke-width:0.5;" x1="800.5" x2="952.5" y1="439" y2="439"/><ellipse cx="810.5" cy="453.3047" fill="#84BE84" rx="3" ry="3" style="stroke:#038048;stroke-width:1.0;"/><text fill="#000000" font-family="sans-serif" font-size="14" lengthAdjust="spacing" textLength="128" x="819.5" y="457.5332">isWinner() : boolean</text><ellipse cx="810.5" cy="470.9141" fill="#84BE84" rx="3" ry="3" style="stroke:#038048;stroke-width:1.0;"/><text fill="#000000" font-family="sans-serif" font-size="14" lengthAdjust="spacing" textLength="42" x="819.5" y="475.1426">reset()</text></g><!--class Game--><g id="elem_Game"><rect codeLine="40" fill="#F1F1F1" height="48" id="Game" rx="2.5" ry="2.5" style="stroke:#181818;stroke-width:0.5;" width="119" x="7" y="416.5"/><ellipse cx="22" cy="432.5" fill="#ADD1B2" rx="11" ry="11" style="stroke:#181818;stroke-width:1.0;"/><path d="M24.7656,428.375 Q24.9219,428.1563 25.1094,428.0469 Q25.2969,427.9375 25.5156,427.9375 Q25.8906,427.9375 26.125,428.2031 Q26.3594,428.4531 26.3594,429.0625 L26.3594,430.5156 Q26.3594,431.125 26.125,431.3906 Q25.8906,431.6563 25.5156,431.6563 Q25.1719,431.6563 24.9688,431.4531 Q24.7656,431.2656 24.6563,430.75 Q24.6094,430.3906 24.4219,430.2031 Q24.0938,429.8281 23.4844,429.6094 Q22.875,429.3906 22.25,429.3906 Q21.4844,429.3906 20.8438,429.7188 Q20.2188,430.0469 19.7188,430.7969 Q19.2344,431.5469 19.2344,432.5781 L19.2344,433.6719 Q19.2344,434.9063 20.125,435.7344 Q21.0156,436.5469 22.6094,436.5469 Q23.5469,436.5469 24.2031,436.2969 Q24.5938,436.1406 25.0156,435.7031 Q25.2813,435.4375 25.4219,435.3594 Q25.5781,435.2813 25.7813,435.2813 Q26.1094,435.2813 26.3594,435.5469 Q26.625,435.7969 26.625,436.1406 Q26.625,436.4844 26.2813,436.8906 Q25.7813,437.4688 24.9844,437.7969 Q23.9063,438.25 22.6094,438.25 Q21.0938,438.25 19.8906,437.625 Q18.9063,437.125 18.2188,436.0625 Q17.5313,434.9844 17.5313,433.7031 L17.5313,432.5469 Q17.5313,431.2188 18.1406,430.0781 Q18.7656,428.9219 19.8594,428.3125 Q20.9531,427.6875 22.1875,427.6875 Q22.9219,427.6875 23.5625,427.8594 Q24.2188,428.0156 24.7656,428.375 Z " fill="#000000"/><text fill="#000000" font-family="sans-serif" font-size="14" lengthAdjust="spacing" textLength="87" x="36" y="438.2285">models.Game</text><line style="stroke:#181818;stroke-width:0.5;" x1="8" x2="125" y1="448.5" y2="448.5"/><line style="stroke:#181818;stroke-width:0.5;" x1="8" x2="125" y1="456.5" y2="456.5"/></g><!--class State--><g id="elem_State"><rect codeLine="41" fill="#F1F1F1" height="48" id="State" rx="2.5" ry="2.5" style="stroke:#181818;stroke-width:0.5;" width="114" x="988.5" y="416.5"/><ellipse cx="1003.5" cy="432.5" fill="#ADD1B2" rx="11" ry="11" style="stroke:#181818;stroke-width:1.0;"/><path d="M1006.2656,428.375 Q1006.4219,428.1563 1006.6094,428.0469 Q1006.7969,427.9375 1007.0156,427.9375 Q1007.3906,427.9375 1007.625,428.2031 Q1007.8594,428.4531 1007.8594,429.0625 L1007.8594,430.5156 Q1007.8594,431.125 1007.625,431.3906 Q1007.3906,431.6563 1007.0156,431.6563 Q1006.6719,431.6563 1006.4688,431.4531 Q1006.2656,431.2656 1006.1563,430.75 Q1006.1094,430.3906 1005.9219,430.2031 Q1005.5938,429.8281 1004.9844,429.6094 Q1004.375,429.3906 1003.75,429.3906 Q1002.9844,429.3906 1002.3438,429.7188 Q1001.7188,430.0469 1001.2188,430.7969 Q1000.7344,431.5469 1000.7344,432.5781 L1000.7344,433.6719 Q1000.7344,434.9063 1001.625,435.7344 Q1002.5156,436.5469 1004.1094,436.5469 Q1005.0469,436.5469 1005.7031,436.2969 Q1006.0938,436.1406 1006.5156,435.7031 Q1006.7813,435.4375 1006.9219,435.3594 Q1007.0781,435.2813 1007.2813,435.2813 Q1007.6094,435.2813 1007.8594,435.5469 Q1008.125,435.7969 1008.125,436.1406 Q1008.125,436.4844 1007.7813,436.8906 Q1007.2813,437.4688 1006.4844,437.7969 Q1005.4063,438.25 1004.1094,438.25 Q1002.5938,438.25 1001.3906,437.625 Q1000.4063,437.125 999.7188,436.0625 Q999.0313,434.9844 999.0313,433.7031 L999.0313,432.5469 Q999.0313,431.2188 999.6406,430.0781 Q1000.2656,428.9219 1001.3594,428.3125 Q1002.4531,427.6875 1003.6875,427.6875 Q1004.4219,427.6875 1005.0625,427.8594 Q1005.7188,428.0156 1006.2656,428.375 Z " fill="#000000"/><text fill="#000000" font-family="sans-serif" font-size="14" lengthAdjust="spacing" textLength="82" x="1017.5" y="438.2285">models.State</text><line style="stroke:#181818;stroke-width:0.5;" x1="989.5" x2="1101.5" y1="448.5" y2="448.5"/><line style="stroke:#181818;stroke-width:0.5;" x1="989.5" x2="1101.5" y1="456.5" y2="456.5"/></g><!--class StateValue--><g id="elem_StateValue"><rect codeLine="42" fill="#F1F1F1" height="48" id="StateValue" rx="2.5" ry="2.5" style="stroke:#181818;stroke-width:0.5;" width="139" x="986" y="220.5"/><ellipse cx="1001" cy="236.5" fill="#ADD1B2" rx="11" ry="11" style="stroke:#181818;stroke-width:1.0;"/><path d="M1003.7656,232.375 Q1003.9219,232.1563 1004.1094,232.0469 Q1004.2969,231.9375 1004.5156,231.9375 Q1004.8906,231.9375 1005.125,232.2031 Q1005.3594,232.4531 1005.3594,233.0625 L1005.3594,234.5156 Q1005.3594,235.125 1005.125,235.3906 Q1004.8906,235.6563 1004.5156,235.6563 Q1004.1719,235.6563 1003.9688,235.4531 Q1003.7656,235.2656 1003.6563,234.75 Q1003.6094,234.3906 1003.4219,234.2031 Q1003.0938,233.8281 1002.4844,233.6094 Q1001.875,233.3906 1001.25,233.3906 Q1000.4844,233.3906 999.8438,233.7188 Q999.2188,234.0469 998.7188,234.7969 Q998.2344,235.5469 998.2344,236.5781 L998.2344,237.6719 Q998.2344,238.9063 999.125,239.7344 Q1000.0156,240.5469 1001.6094,240.5469 Q1002.5469,240.5469 1003.2031,240.2969 Q1003.5938,240.1406 1004.0156,239.7031 Q1004.2813,239.4375 1004.4219,239.3594 Q1004.5781,239.2813 1004.7813,239.2813 Q1005.1094,239.2813 1005.3594,239.5469 Q1005.625,239.7969 1005.625,240.1406 Q1005.625,240.4844 1005.2813,240.8906 Q1004.7813,241.4688 1003.9844,241.7969 Q1002.9063,242.25 1001.6094,242.25 Q1000.0938,242.25 998.8906,241.625 Q997.9063,241.125 997.2188,240.0625 Q996.5313,238.9844 996.5313,237.7031 L996.5313,236.5469 Q996.5313,235.2188 997.1406,234.0781 Q997.7656,232.9219 998.8594,232.3125 Q999.9531,231.6875 1001.1875,231.6875 Q1001.9219,231.6875 1002.5625,231.8594 Q1003.2188,232.0156 1003.7656,232.375 Z " fill="#000000"/><text fill="#000000" font-family="sans-serif" font-size="14" lengthAdjust="spacing" textLength="107" x="1015" y="242.2285">types.StateValue</text><line style="stroke:#181818;stroke-width:0.5;" x1="987" x2="1124" y1="252.5" y2="252.5"/><line style="stroke:#181818;stroke-width:0.5;" x1="987" x2="1124" y1="260.5" y2="260.5"/></g><!--reverse link Controller to Startcontroller--><g id="link_Controller_Startcontroller"><path codeLine="47" d="M586.8437,294.7633 C551.0637,314.2033 522.6,329.68 479.8,352.93 " fill="none" id="Controller-backto-Startcontroller" style="stroke:#181818;stroke-width:1.0;"/><polygon fill="none" points="602.66,286.17,583.9793,289.4912,589.7081,300.0354,602.66,286.17" style="stroke:#181818;stroke-width:1.0;"/></g><!--reverse link Controller to PlayController--><g id="link_Controller_PlayController"><path codeLine="48" d="M666.0759,303.8355 C662.6659,321.2755 661.97,324.78 657.87,345.74 " fill="none" id="Controller-backto-PlayController" style="stroke:#181818;stroke-width:1.0;"/><polygon fill="none" points="669.53,286.17,660.1874,302.6841,671.9644,304.9868,669.53,286.17" style="stroke:#181818;stroke-width:1.0;"/></g><!--reverse link Controller to ResumeController--><g id="link_Controller_ResumeController"><path codeLine="49" d="M733.361,298.5679 C752.461,316.7979 762.18,326.17 782.5,346 C800.13,363.2 819.44,382.36 835.95,398.83 " fill="none" id="Controller-backto-ResumeController" style="stroke:#181818;stroke-width:1.0;"/><polygon fill="none" points="720.34,286.14,729.2184,302.9083,737.5037,294.2276,720.34,286.14" style="stroke:#181818;stroke-width:1.0;"/></g><!--link Logic to Game--><g id="link_Logic_Game"><path codeLine="51" d="M593.8713,135.9112 C465.1613,175.5412 286.66,242.45 145.5,346 C118.94,365.48 98.9809,390.7069 84.6909,411.4769 " fill="none" id="Logic-Game" style="stroke:#181818;stroke-width:1.0;"/><polygon fill="#181818" points="605.34,132.38,598.4286,130.3227,593.8713,135.9112,600.7827,137.9685,605.34,132.38" style="stroke:#181818;stroke-width:1.0;"/><polygon fill="#181818" points="81.29,416.42,89.6867,411.2727,84.1241,412.3008,83.096,406.7381,81.29,416.42" style="stroke:#181818;stroke-width:1.0;"/></g><!--link Logic to State--><g id="link_Logic_State"><path codeLine="52" d="M801.0484,152.3035 C846.0784,202.8935 909.4,274.75 969.5,346 C989.46,369.66 1007.9879,392.5379 1023.2379,411.5679 " fill="none" id="Logic-State" style="stroke:#181818;stroke-width:1.0;"/><polygon fill="#181818" points="793.07,143.34,794.0714,150.4812,801.0484,152.3035,800.0471,145.1623,793.07,143.34" style="stroke:#181818;stroke-width:1.0;"/><polygon fill="#181818" points="1026.99,416.25,1024.4833,406.7255,1023.8633,412.3483,1018.2405,411.7282,1026.99,416.25" style="stroke:#181818;stroke-width:1.0;"/></g><!--link Logic to Controller--><g id="link_Logic_Controller"><path codeLine="53" d="M719.9263,153.8765 C710.7963,173.1665 708.157,178.7269 699.457,197.1069 " fill="none" id="Logic-Controller" style="stroke:#181818;stroke-width:1.0;"/><polygon fill="#181818" points="725.06,143.03,718.8777,146.742,719.9263,153.8765,726.1087,150.1644,725.06,143.03" style="stroke:#181818;stroke-width:1.0;"/><polygon fill="#181818" points="696.89,202.53,704.3559,196.1066,699.0292,198.0107,697.1251,192.6839,696.89,202.53" style="stroke:#181818;stroke-width:1.0;"/></g><!--link Logic to StateValue--><g id="link_Logic_StateValue"><path codeLine="54" d="M860.6523,148.2971 C914.1023,174.4071 960.9393,197.2955 1002.9893,217.8455 " fill="none" id="Logic-StateValue" style="stroke:#181818;stroke-width:1.0;"/><polygon fill="#181818" points="849.87,143.03,853.5055,149.2576,860.6523,148.2971,857.0168,142.0694,849.87,143.03" style="stroke:#181818;stroke-width:1.0;"/><polygon fill="#181818" points="1008.38,220.48,1002.0503,212.9345,1003.8878,218.2846,998.5376,220.1221,1008.38,220.48" style="stroke:#181818;stroke-width:1.0;"/></g><!--link Controller to Game--><g id="link_Controller_Game"><path codeLine="56" d="M588.9,254.97 C457.76,270.2 219.49,302.85 145.5,346 C116.5,362.92 96.3777,389.4806 82.7977,411.2306 " fill="none" id="Controller-to-Game" style="stroke:#181818;stroke-width:1.0;"/><polygon fill="#181818" points="79.62,416.32,87.7795,410.8043,82.2681,412.0788,80.9936,406.5674,79.62,416.32" style="stroke:#181818;stroke-width:1.0;"/></g><!--link Controller to State--><g id="link_Controller_State"><path codeLine="57" d="M766.12,262.46 C827.29,277.26 908.3,303.24 969.5,346 C996.25,364.69 1015.4012,390.2564 1028.8012,411.3364 " fill="none" id="Controller-to-State" style="stroke:#181818;stroke-width:1.0;"/><polygon fill="#181818" points="1032.02,416.4,1030.5676,406.6588,1029.3377,412.1804,1023.8162,410.9505,1032.02,416.4" style="stroke:#181818;stroke-width:1.0;"/></g><!--SRC=[ZLJBJiCm4BpxAwoUKahw0QYgX2h1XI1K2XmG1zTPjHQENTaEQbNwxpXs4ZiF4BdjpdWy-t0e9rfZAeLHadDGUluWTupYCyBsIoC0t-2C71RFXXXu9Ro4QxngqILs_9axd4nzi0CJ6CdK2eGGNH0YMsqKeGRJWOb0h9tC8gLxKjZBdP7w9W57us9xjHKUwbbG6HgBjXQVE3c1sfmEe9t74Bz_jAJ7ijY2yf2dCM4yga23QKfcUkr3ozXAoO483v0yzwUJe1_Qb36HaMD6w9u928IUdvQ-9YANnR_fBxgn_Zjtj6iL7lf-RWLlgM5VzSMHq2Z-bx6Lv58bAobLpaGrJRSYDjSqyuu9flUG3_jPJRnfUgxaOIC_GIHsAF7kyR8GtM4n_SQ4g5qtWfUHqkqOom86nO-Uxwn1syXgIp7HU5B87BYUL_6anjokng1BT53tn1p5LAiv3ya9ghxeXIo-qnJtDdo0TsSvWFlr8kJ_0rTfkdIbnB7p4YUYStsQizonsohsSbuL_G00]--></g></svg>