<?xml version="1.0" encoding="us-ascii" standalone="no"?><svg xmlns="http://www.w3.org/2000/svg" xmlns:xlink="http://www.w3.org/1999/xlink" contentStyleType="text/css" height="313px" preserveAspectRatio="none" style="width:524px;height:313px;background:#FFFFFF;" version="1.1" viewBox="0 0 524 313" width="524px" zoomAndPan="magnify"><defs/><g><!--cluster controllers--><g id="cluster_controllers"><path d="M8.5,6 L86.5,6 A3.75,3.75 0 0 1 89,8.5 L96,29.6094 L494.5,29.6094 A2.5,2.5 0 0 1 497,32.1094 L497,211.5 A2.5,2.5 0 0 1 494.5,214 L8.5,214 A2.5,2.5 0 0 1 6,211.5 L6,8.5 A2.5,2.5 0 0 1 8.5,6 " fill="none" style="stroke:#000000;stroke-width:1.5;"/><line style="stroke:#000000;stroke-width:1.5;" x1="6" x2="96" y1="29.6094" y2="29.6094"/><text fill="#000000" font-family="sans-serif" font-size="14" font-weight="bold" lengthAdjust="spacing" textLength="77" x="10" y="22.5332">controllers</text></g><!--class Controller--><g id="elem_Controller"><rect codeLine="2" fill="#F1F1F1" height="48" id="Controller" rx="2.5" ry="2.5" style="stroke:#181818;stroke-width:0.5;" width="94" x="192" y="42"/><ellipse cx="207" cy="58" fill="#A9DCDF" rx="11" ry="11" style="stroke:#181818;stroke-width:1.0;"/><path d="M209.1875,59.7656 L205.0469,59.7656 L204.625,60.7969 L205.0469,60.7969 Q205.6563,60.7969 205.9219,61.0313 Q206.1875,61.2656 206.1875,61.6563 Q206.1875,62.0313 205.9219,62.2656 Q205.6563,62.5 205.0469,62.5 L202.75,62.5 Q202.1406,62.5 201.8906,62.2656 Q201.625,62.0313 201.625,61.6406 Q201.625,61.2656 201.9063,61.0313 Q202.1719,60.7813 202.7969,60.7969 L205.4688,54.1406 L204.3594,54.1406 Q203.75,54.1406 203.4844,53.9063 Q203.2188,53.6719 203.2188,53.2813 Q203.2188,52.9063 203.4844,52.6719 Q203.75,52.4375 204.3594,52.4375 L208.0313,52.4375 L211.4219,60.7969 Q212.0156,60.7969 212.2031,60.9375 Q212.5938,61.2031 212.5938,61.6563 Q212.5938,62.0313 212.3281,62.2656 Q212.0781,62.5 211.4688,62.5 L209.1719,62.5 Q208.5625,62.5 208.2969,62.2656 Q208.0313,62.0313 208.0313,61.6406 Q208.0313,61.2656 208.2969,61.0313 Q208.5625,60.7969 209.1719,60.7969 L209.5938,60.7969 L209.1875,59.7656 Z M208.4688,58.0625 L207.1094,54.6875 L205.7344,58.0625 L208.4688,58.0625 Z " fill="#000000"/><text fill="#000000" font-family="sans-serif" font-size="14" font-style="italic" lengthAdjust="spacing" textLength="62" x="221" y="63.7285">Controller</text><line style="stroke:#181818;stroke-width:0.5;" x1="193" x2="285" y1="74" y2="74"/><line style="stroke:#181818;stroke-width:0.5;" x1="193" x2="285" y1="82" y2="82"/></g><!--class Startcontroller--><g id="elem_Startcontroller"><rect codeLine="3" fill="#F1F1F1" height="48" id="Startcontroller" rx="2.5" ry="2.5" style="stroke:#181818;stroke-width:0.5;" width="121" x="22.5" y="150"/><ellipse cx="37.5" cy="166" fill="#ADD1B2" rx="11" ry="11" style="stroke:#181818;stroke-width:1.0;"/><path d="M40.2656,161.875 Q40.4219,161.6563 40.6094,161.5469 Q40.7969,161.4375 41.0156,161.4375 Q41.3906,161.4375 41.625,161.7031 Q41.8594,161.9531 41.8594,162.5625 L41.8594,164.0156 Q41.8594,164.625 41.625,164.8906 Q41.3906,165.1563 41.0156,165.1563 Q40.6719,165.1563 40.4688,164.9531 Q40.2656,164.7656 40.1563,164.25 Q40.1094,163.8906 39.9219,163.7031 Q39.5938,163.3281 38.9844,163.1094 Q38.375,162.8906 37.75,162.8906 Q36.9844,162.8906 36.3438,163.2188 Q35.7188,163.5469 35.2188,164.2969 Q34.7344,165.0469 34.7344,166.0781 L34.7344,167.1719 Q34.7344,168.4063 35.625,169.2344 Q36.5156,170.0469 38.1094,170.0469 Q39.0469,170.0469 39.7031,169.7969 Q40.0938,169.6406 40.5156,169.2031 Q40.7813,168.9375 40.9219,168.8594 Q41.0781,168.7813 41.2813,168.7813 Q41.6094,168.7813 41.8594,169.0469 Q42.125,169.2969 42.125,169.6406 Q42.125,169.9844 41.7813,170.3906 Q41.2813,170.9688 40.4844,171.2969 Q39.4063,171.75 38.1094,171.75 Q36.5938,171.75 35.3906,171.125 Q34.4063,170.625 33.7188,169.5625 Q33.0313,168.4844 33.0313,167.2031 L33.0313,166.0469 Q33.0313,164.7188 33.6406,163.5781 Q34.2656,162.4219 35.3594,161.8125 Q36.4531,161.1875 37.6875,161.1875 Q38.4219,161.1875 39.0625,161.3594 Q39.7188,161.5156 40.2656,161.875 Z " fill="#000000"/><text fill="#000000" font-family="sans-serif" font-size="14" lengthAdjust="spacing" textLength="89" x="51.5" y="171.7285">Startcontroller</text><line style="stroke:#181818;stroke-width:0.5;" x1="23.5" x2="142.5" y1="182" y2="182"/><line style="stroke:#181818;stroke-width:0.5;" x1="23.5" x2="142.5" y1="190" y2="190"/></g><!--class PlayController--><g id="elem_PlayController"><rect codeLine="4" fill="#F1F1F1" height="48" id="PlayController" rx="2.5" ry="2.5" style="stroke:#181818;stroke-width:0.5;" width="121" x="178.5" y="150"/><ellipse cx="193.5" cy="166" fill="#ADD1B2" rx="11" ry="11" style="stroke:#181818;stroke-width:1.0;"/><path d="M196.2656,161.875 Q196.4219,161.6563 196.6094,161.5469 Q196.7969,161.4375 197.0156,161.4375 Q197.3906,161.4375 197.625,161.7031 Q197.8594,161.9531 197.8594,162.5625 L197.8594,164.0156 Q197.8594,164.625 197.625,164.8906 Q197.3906,165.1563 197.0156,165.1563 Q196.6719,165.1563 196.4688,164.9531 Q196.2656,164.7656 196.1563,164.25 Q196.1094,163.8906 195.9219,163.7031 Q195.5938,163.3281 194.9844,163.1094 Q194.375,162.8906 193.75,162.8906 Q192.9844,162.8906 192.3438,163.2188 Q191.7188,163.5469 191.2188,164.2969 Q190.7344,165.0469 190.7344,166.0781 L190.7344,167.1719 Q190.7344,168.4063 191.625,169.2344 Q192.5156,170.0469 194.1094,170.0469 Q195.0469,170.0469 195.7031,169.7969 Q196.0938,169.6406 196.5156,169.2031 Q196.7813,168.9375 196.9219,168.8594 Q197.0781,168.7813 197.2813,168.7813 Q197.6094,168.7813 197.8594,169.0469 Q198.125,169.2969 198.125,169.6406 Q198.125,169.9844 197.7813,170.3906 Q197.2813,170.9688 196.4844,171.2969 Q195.4063,171.75 194.1094,171.75 Q192.5938,171.75 191.3906,171.125 Q190.4063,170.625 189.7188,169.5625 Q189.0313,168.4844 189.0313,167.2031 L189.0313,166.0469 Q189.0313,164.7188 189.6406,163.5781 Q190.2656,162.4219 191.3594,161.8125 Q192.4531,161.1875 193.6875,161.1875 Q194.4219,161.1875 195.0625,161.3594 Q195.7188,161.5156 196.2656,161.875 Z " fill="#000000"/><text fill="#000000" font-family="sans-serif" font-size="14" lengthAdjust="spacing" textLength="89" x="207.5" y="171.7285">PlayController</text><line style="stroke:#181818;stroke-width:0.5;" x1="179.5" x2="298.5" y1="182" y2="182"/><line style="stroke:#181818;stroke-width:0.5;" x1="179.5" x2="298.5" y1="190" y2="190"/></g><!--class ResumeController--><g id="elem_ResumeController"><rect codeLine="5" fill="#F1F1F1" height="48" id="ResumeController" rx="2.5" ry="2.5" style="stroke:#181818;stroke-width:0.5;" width="146" x="335" y="150"/><ellipse cx="350" cy="166" fill="#ADD1B2" rx="11" ry="11" style="stroke:#181818;stroke-width:1.0;"/><path d="M352.7656,161.875 Q352.9219,161.6563 353.1094,161.5469 Q353.2969,161.4375 353.5156,161.4375 Q353.8906,161.4375 354.125,161.7031 Q354.3594,161.9531 354.3594,162.5625 L354.3594,164.0156 Q354.3594,164.625 354.125,164.8906 Q353.8906,165.1563 353.5156,165.1563 Q353.1719,165.1563 352.9688,164.9531 Q352.7656,164.7656 352.6563,164.25 Q352.6094,163.8906 352.4219,163.7031 Q352.0938,163.3281 351.4844,163.1094 Q350.875,162.8906 350.25,162.8906 Q349.4844,162.8906 348.8438,163.2188 Q348.2188,163.5469 347.7188,164.2969 Q347.2344,165.0469 347.2344,166.0781 L347.2344,167.1719 Q347.2344,168.4063 348.125,169.2344 Q349.0156,170.0469 350.6094,170.0469 Q351.5469,170.0469 352.2031,169.7969 Q352.5938,169.6406 353.0156,169.2031 Q353.2813,168.9375 353.4219,168.8594 Q353.5781,168.7813 353.7813,168.7813 Q354.1094,168.7813 354.3594,169.0469 Q354.625,169.2969 354.625,169.6406 Q354.625,169.9844 354.2813,170.3906 Q353.7813,170.9688 352.9844,171.2969 Q351.9063,171.75 350.6094,171.75 Q349.0938,171.75 347.8906,171.125 Q346.9063,170.625 346.2188,169.5625 Q345.5313,168.4844 345.5313,167.2031 L345.5313,166.0469 Q345.5313,164.7188 346.1406,163.5781 Q346.7656,162.4219 347.8594,161.8125 Q348.9531,161.1875 350.1875,161.1875 Q350.9219,161.1875 351.5625,161.3594 Q352.2188,161.5156 352.7656,161.875 Z " fill="#000000"/><text fill="#000000" font-family="sans-serif" font-size="14" lengthAdjust="spacing" textLength="114" x="364" y="171.7285">ResumeController</text><line style="stroke:#181818;stroke-width:0.5;" x1="336" x2="480" y1="182" y2="182"/><line style="stroke:#181818;stroke-width:0.5;" x1="336" x2="480" y1="190" y2="190"/></g><!--class Logic--><g id="elem_Logic"><rect codeLine="6" fill="#F1F1F1" height="48" id="Logic" rx="2.5" ry="2.5" style="stroke:#181818;stroke-width:0.5;" width="66" x="348" y="42"/><ellipse cx="363" cy="58" fill="#ADD1B2" rx="11" ry="11" style="stroke:#181818;stroke-width:1.0;"/><path d="M365.7656,53.875 Q365.9219,53.6563 366.1094,53.5469 Q366.2969,53.4375 366.5156,53.4375 Q366.8906,53.4375 367.125,53.7031 Q367.3594,53.9531 367.3594,54.5625 L367.3594,56.0156 Q367.3594,56.625 367.125,56.8906 Q366.8906,57.1563 366.5156,57.1563 Q366.1719,57.1563 365.9688,56.9531 Q365.7656,56.7656 365.6563,56.25 Q365.6094,55.8906 365.4219,55.7031 Q365.0938,55.3281 364.4844,55.1094 Q363.875,54.8906 363.25,54.8906 Q362.4844,54.8906 361.8438,55.2188 Q361.2188,55.5469 360.7188,56.2969 Q360.2344,57.0469 360.2344,58.0781 L360.2344,59.1719 Q360.2344,60.4063 361.125,61.2344 Q362.0156,62.0469 363.6094,62.0469 Q364.5469,62.0469 365.2031,61.7969 Q365.5938,61.6406 366.0156,61.2031 Q366.2813,60.9375 366.4219,60.8594 Q366.5781,60.7813 366.7813,60.7813 Q367.1094,60.7813 367.3594,61.0469 Q367.625,61.2969 367.625,61.6406 Q367.625,61.9844 367.2813,62.3906 Q366.7813,62.9688 365.9844,63.2969 Q364.9063,63.75 363.6094,63.75 Q362.0938,63.75 360.8906,63.125 Q359.9063,62.625 359.2188,61.5625 Q358.5313,60.4844 358.5313,59.2031 L358.5313,58.0469 Q358.5313,56.7188 359.1406,55.5781 Q359.7656,54.4219 360.8594,53.8125 Q361.9531,53.1875 363.1875,53.1875 Q363.9219,53.1875 364.5625,53.3594 Q365.2188,53.5156 365.7656,53.875 Z " fill="#000000"/><text fill="#000000" font-family="sans-serif" font-size="14" lengthAdjust="spacing" textLength="34" x="377" y="63.7285">Logic</text><line style="stroke:#181818;stroke-width:0.5;" x1="349" x2="413" y1="74" y2="74"/><line style="stroke:#181818;stroke-width:0.5;" x1="349" x2="413" y1="82" y2="82"/></g><!--class Game--><g id="elem_Game"><rect codeLine="7" fill="#F1F1F1" height="48" id="Game" rx="2.5" ry="2.5" style="stroke:#181818;stroke-width:0.5;" width="119" x="263.5" y="258"/><ellipse cx="278.5" cy="274" fill="#ADD1B2" rx="11" ry="11" style="stroke:#181818;stroke-width:1.0;"/><path d="M281.2656,269.875 Q281.4219,269.6563 281.6094,269.5469 Q281.7969,269.4375 282.0156,269.4375 Q282.3906,269.4375 282.625,269.7031 Q282.8594,269.9531 282.8594,270.5625 L282.8594,272.0156 Q282.8594,272.625 282.625,272.8906 Q282.3906,273.1563 282.0156,273.1563 Q281.6719,273.1563 281.4688,272.9531 Q281.2656,272.7656 281.1563,272.25 Q281.1094,271.8906 280.9219,271.7031 Q280.5938,271.3281 279.9844,271.1094 Q279.375,270.8906 278.75,270.8906 Q277.9844,270.8906 277.3438,271.2188 Q276.7188,271.5469 276.2188,272.2969 Q275.7344,273.0469 275.7344,274.0781 L275.7344,275.1719 Q275.7344,276.4063 276.625,277.2344 Q277.5156,278.0469 279.1094,278.0469 Q280.0469,278.0469 280.7031,277.7969 Q281.0938,277.6406 281.5156,277.2031 Q281.7813,276.9375 281.9219,276.8594 Q282.0781,276.7813 282.2813,276.7813 Q282.6094,276.7813 282.8594,277.0469 Q283.125,277.2969 283.125,277.6406 Q283.125,277.9844 282.7813,278.3906 Q282.2813,278.9688 281.4844,279.2969 Q280.4063,279.75 279.1094,279.75 Q277.5938,279.75 276.3906,279.125 Q275.4063,278.625 274.7188,277.5625 Q274.0313,276.4844 274.0313,275.2031 L274.0313,274.0469 Q274.0313,272.7188 274.6406,271.5781 Q275.2656,270.4219 276.3594,269.8125 Q277.4531,269.1875 278.6875,269.1875 Q279.4219,269.1875 280.0625,269.3594 Q280.7188,269.5156 281.2656,269.875 Z " fill="#000000"/><text fill="#000000" font-family="sans-serif" font-size="14" lengthAdjust="spacing" textLength="87" x="292.5" y="279.7285">models.Game</text><line style="stroke:#181818;stroke-width:0.5;" x1="264.5" x2="381.5" y1="290" y2="290"/><line style="stroke:#181818;stroke-width:0.5;" x1="264.5" x2="381.5" y1="298" y2="298"/></g><!--reverse link Controller to Startcontroller--><g id="link_Controller_Startcontroller"><path codeLine="9" d="M190.2615,100.116 C164.1815,117.836 143.18,132.11 117.05,149.86 " fill="none" id="Controller-backto-Startcontroller" style="stroke:#181818;stroke-width:1.0;"/><polygon fill="none" points="205.15,90,186.8895,95.1531,193.6335,105.0788,205.15,90" style="stroke:#181818;stroke-width:1.0;"/></g><!--reverse link Controller to PlayController--><g id="link_Controller_PlayController"><path codeLine="10" d="M239,108 C239,125.66 239,131.94 239,149.68 " fill="none" id="Controller-backto-PlayController" style="stroke:#181818;stroke-width:1.0;"/><polygon fill="none" points="239,90,233,108,245,108,239,90" style="stroke:#181818;stroke-width:1.0;"/></g><!--reverse link Controller to ResumeController--><g id="link_Controller_ResumeController"><path codeLine="11" d="M290.9185,99.5647 C319.1685,117.2847 342.8,132.11 371.11,149.86 " fill="none" id="Controller-backto-ResumeController" style="stroke:#181818;stroke-width:1.0;"/><polygon fill="none" points="275.67,90,287.7302,104.6475,294.1067,94.4819,275.67,90" style="stroke:#181818;stroke-width:1.0;"/></g><!--link Logic to Game--><g id="link_Logic_Game"><path codeLine="13" d="M414.08,79.85 C442.39,92.84 481.28,115.88 499,150 C513.75,178.4 517.69,196.02 499,222 C472.74,258.49 428.7858,271.9254 388.8058,277.3354 " fill="none" id="Logic-to-Game" style="stroke:#181818;stroke-width:1.0;"/><polygon fill="#181818" points="382.86,278.14,392.3151,280.897,387.8148,277.4695,391.2423,272.9693,382.86,278.14" style="stroke:#181818;stroke-width:1.0;"/></g><!--link Logic to Startcontroller--><g id="link_Logic_Startcontroller"><path codeLine="14" d="M336.6641,82.7719 C287.4141,100.2919 210.8829,127.5087 149.1629,149.4687 " fill="none" id="Logic-Startcontroller" style="stroke:#181818;stroke-width:1.0;"/><polygon fill="#181818" points="347.97,78.75,340.9764,76.9923,336.6641,82.7719,343.6577,84.5296,347.97,78.75" style="stroke:#181818;stroke-width:1.0;"/><polygon fill="#181818" points="143.51,151.48,153.3301,152.2316,148.2207,149.8039,150.6484,144.6945,143.51,151.48" style="stroke:#181818;stroke-width:1.0;"/></g><!--link Logic to PlayController--><g id="link_Logic_PlayController"><path codeLine="15" d="M340.5734,97.1779 C316.9134,114.8379 298.8078,128.3504 275.0478,146.0904 " fill="none" id="Logic-PlayController" style="stroke:#181818;stroke-width:1.0;"/><polygon fill="#181818" points="350.19,90,342.9891,90.3834,340.5734,97.1779,347.7743,96.7945,350.19,90" style="stroke:#181818;stroke-width:1.0;"/><polygon fill="#181818" points="270.24,149.68,279.8447,147.5007,274.2465,146.6886,275.0586,141.0904,270.24,149.68" style="stroke:#181818;stroke-width:1.0;"/></g><!--link Logic to ResumeController--><g id="link_Logic_ResumeController"><path codeLine="16" d="M389.8231,101.6284 C394.3231,119.2884 396.0586,126.1258 400.5786,143.8658 " fill="none" id="Logic-ResumeController" style="stroke:#181818;stroke-width:1.0;"/><polygon fill="#181818" points="386.86,90,384.4654,96.8019,389.8231,101.6284,392.2177,94.8265,386.86,90" style="stroke:#181818;stroke-width:1.0;"/><polygon fill="#181818" points="402.06,149.68,403.714,139.971,400.8255,144.8348,395.9617,141.9463,402.06,149.68" style="stroke:#181818;stroke-width:1.0;"/></g><!--link Startcontroller to Game--><g id="link_Startcontroller_Game"><path codeLine="18" d="M117.92,198.01 C131.11,206.17 146.45,215.05 161,222 C193.95,237.75 226.6047,249.9624 257.7047,260.4524 " fill="none" id="Startcontroller-to-Game" style="stroke:#181818;stroke-width:1.0;"/><polygon fill="#181818" points="263.39,262.37,256.1405,255.7033,258.6523,260.772,253.5836,263.2837,263.39,262.37" style="stroke:#181818;stroke-width:1.0;"/></g><!--link PlayController to Game--><g id="link_PlayController_Game"><path codeLine="19" d="M257.23,198 C271.22,215.66 286.7332,235.2378 300.7932,252.9778 " fill="none" id="PlayController-to-Game" style="stroke:#181818;stroke-width:1.0;"/><polygon fill="#181818" points="304.52,257.68,302.0646,248.1421,301.4143,253.7615,295.795,253.1112,304.52,257.68" style="stroke:#181818;stroke-width:1.0;"/></g><!--link ResumeController to Game--><g id="link_ResumeController_Game"><path codeLine="20" d="M389.56,198 C375.4,215.66 359.6727,235.2584 345.4527,252.9984 " fill="none" id="ResumeController-to-Game" style="stroke:#181818;stroke-width:1.0;"/><polygon fill="#181818" points="341.7,257.68,350.4501,253.1594,344.8272,253.7787,344.2079,248.1558,341.7,257.68" style="stroke:#181818;stroke-width:1.0;"/></g><!--SRC=[VOun2W9134Nxd29iASoUG6miR2n4Jn1Z427Zm6Gi10ylkopEce7fylEI_pzThMJYWgnaXfoU9ITLoJRkVpEqy58e5-vTd9JUNOkps2jAz-IOxWzUzWUAWcGun7GJjN7I0q3zn-qd1FJ5F7UrF6vAmTm1GzZD3HQvcRIFMY6NiY9jWBEfKVycTUyjAe4l]--></g></svg>