<?xml version="1.0" encoding="us-ascii" standalone="no"?><svg xmlns="http://www.w3.org/2000/svg" xmlns:xlink="http://www.w3.org/1999/xlink" contentStyleType="text/css" height="576px" preserveAspectRatio="none" style="width:1365px;height:576px;background:#FFFFFF;" version="1.1" viewBox="0 0 1365 576" width="1365px" zoomAndPan="magnify"><defs/><g><!--cluster controllers--><g id="cluster_controllers"><path d="M148,6 L226,6 A3.75,3.75 0 0 1 228.5,8.5 L235.5,29.6094 L1200,29.6094 A2.5,2.5 0 0 1 1202.5,32.1094 L1202.5,566.5 A2.5,2.5 0 0 1 1200,569 L148,569 A2.5,2.5 0 0 1 145.5,566.5 L145.5,8.5 A2.5,2.5 0 0 1 148,6 " fill="none" style="stroke:#000000;stroke-width:1.5;"/><line style="stroke:#000000;stroke-width:1.5;" x1="145.5" x2="235.5" y1="29.6094" y2="29.6094"/><text fill="#000000" font-family="sans-serif" font-size="14" font-weight="bold" lengthAdjust="spacing" textLength="77" x="149.5" y="22.5332">controllers</text></g><!--class Logic--><g id="elem_Logic"><rect codeLine="2" fill="#F1F1F1" height="100.8281" id="Logic" rx="2.5" ry="2.5" style="stroke:#181818;stroke-width:0.5;" width="286" x="800.5" y="42"/><ellipse cx="922.25" cy="58" fill="#ADD1B2" rx="11" ry="11" style="stroke:#181818;stroke-width:1.0;"/><path d="M925.0156,53.875 Q925.1719,53.6563 925.3594,53.5469 Q925.5469,53.4375 925.7656,53.4375 Q926.1406,53.4375 926.375,53.7031 Q926.6094,53.9531 926.6094,54.5625 L926.6094,56.0156 Q926.6094,56.625 926.375,56.8906 Q926.1406,57.1563 925.7656,57.1563 Q925.4219,57.1563 925.2188,56.9531 Q925.0156,56.7656 924.9063,56.25 Q924.8594,55.8906 924.6719,55.7031 Q924.3438,55.3281 923.7344,55.1094 Q923.125,54.8906 922.5,54.8906 Q921.7344,54.8906 921.0938,55.2188 Q920.4688,55.5469 919.9688,56.2969 Q919.4844,57.0469 919.4844,58.0781 L919.4844,59.1719 Q919.4844,60.4063 920.375,61.2344 Q921.2656,62.0469 922.8594,62.0469 Q923.7969,62.0469 924.4531,61.7969 Q924.8438,61.6406 925.2656,61.2031 Q925.5313,60.9375 925.6719,60.8594 Q925.8281,60.7813 926.0313,60.7813 Q926.3594,60.7813 926.6094,61.0469 Q926.875,61.2969 926.875,61.6406 Q926.875,61.9844 926.5313,62.3906 Q926.0313,62.9688 925.2344,63.2969 Q924.1563,63.75 922.8594,63.75 Q921.3438,63.75 920.1406,63.125 Q919.1563,62.625 918.4688,61.5625 Q917.7813,60.4844 917.7813,59.2031 L917.7813,58.0469 Q917.7813,56.7188 918.3906,55.5781 Q919.0156,54.4219 920.1094,53.8125 Q921.2031,53.1875 922.4375,53.1875 Q923.1719,53.1875 923.8125,53.3594 Q924.4688,53.5156 925.0156,53.875 Z " fill="#000000"/><text fill="#000000" font-family="sans-serif" font-size="14" lengthAdjust="spacing" textLength="34" x="942.75" y="63.7285">Logic</text><line style="stroke:#181818;stroke-width:0.5;" x1="801.5" x2="1085.5" y1="74" y2="74"/><rect fill="none" height="6" style="stroke:#C82930;stroke-width:1.0;" width="6" x="808.5" y="85.3047"/><text fill="#000000" font-family="sans-serif" font-size="14" lengthAdjust="spacing" textLength="260" x="820.5" y="92.5332">controllers : Map&lt;StateValue, Controller&gt;</text><line style="stroke:#181818;stroke-width:0.5;" x1="801.5" x2="1085.5" y1="99.6094" y2="99.6094"/><ellipse cx="811.5" cy="113.9141" fill="#84BE84" rx="3" ry="3" style="stroke:#038048;stroke-width:1.0;"/><text fill="#000000" font-family="sans-serif" font-size="14" lengthAdjust="spacing" textLength="44" x="820.5" y="118.1426">Logic()</text><ellipse cx="811.5" cy="131.5234" fill="#84BE84" rx="3" ry="3" style="stroke:#038048;stroke-width:1.0;"/><text fill="#000000" font-family="sans-serif" font-size="14" lengthAdjust="spacing" textLength="166" x="820.5" y="135.752">getController() : Controller</text></g><!--class Controller--><g id="elem_Controller"><rect codeLine="8" fill="#F1F1F1" height="100.8281" id="Controller" rx="2.5" ry="2.5" style="stroke:#181818;stroke-width:0.5;" width="179" x="783" y="203"/><ellipse cx="837.25" cy="219" fill="#A9DCDF" rx="11" ry="11" style="stroke:#181818;stroke-width:1.0;"/><path d="M839.4375,220.7656 L835.2969,220.7656 L834.875,221.7969 L835.2969,221.7969 Q835.9063,221.7969 836.1719,222.0313 Q836.4375,222.2656 836.4375,222.6563 Q836.4375,223.0313 836.1719,223.2656 Q835.9063,223.5 835.2969,223.5 L833,223.5 Q832.3906,223.5 832.1406,223.2656 Q831.875,223.0313 831.875,222.6406 Q831.875,222.2656 832.1563,222.0313 Q832.4219,221.7813 833.0469,221.7969 L835.7188,215.1406 L834.6094,215.1406 Q834,215.1406 833.7344,214.9063 Q833.4688,214.6719 833.4688,214.2813 Q833.4688,213.9063 833.7344,213.6719 Q834,213.4375 834.6094,213.4375 L838.2813,213.4375 L841.6719,221.7969 Q842.2656,221.7969 842.4531,221.9375 Q842.8438,222.2031 842.8438,222.6563 Q842.8438,223.0313 842.5781,223.2656 Q842.3281,223.5 841.7188,223.5 L839.4219,223.5 Q838.8125,223.5 838.5469,223.2656 Q838.2813,223.0313 838.2813,222.6406 Q838.2813,222.2656 838.5469,222.0313 Q838.8125,221.7969 839.4219,221.7969 L839.8438,221.7969 L839.4375,220.7656 Z M838.7188,219.0625 L837.3594,215.6875 L835.9844,219.0625 L838.7188,219.0625 Z " fill="#000000"/><text fill="#000000" font-family="sans-serif" font-size="14" font-style="italic" lengthAdjust="spacing" textLength="62" x="857.75" y="224.7285">Controller</text><line style="stroke:#181818;stroke-width:0.5;" x1="784" x2="961" y1="235" y2="235"/><line style="stroke:#181818;stroke-width:0.5;" x1="784" x2="961" y1="243" y2="243"/><ellipse cx="794" cy="257.3047" fill="#84BE84" rx="3" ry="3" style="stroke:#038048;stroke-width:1.0;"/><text fill="#000000" font-family="sans-serif" font-size="14" lengthAdjust="spacing" textLength="151" x="803" y="261.5332">Controller(Game, State)</text><ellipse cx="794" cy="274.9141" fill="#84BE84" rx="3" ry="3" style="stroke:#038048;stroke-width:1.0;"/><text fill="#000000" font-family="sans-serif" font-size="14" lengthAdjust="spacing" textLength="69" x="803" y="279.1426">nextState()</text><ellipse cx="794" cy="292.5234" fill="#84BE84" rx="3" ry="3" style="stroke:#038048;stroke-width:1.0;"/><text fill="#000000" font-family="sans-serif" font-size="14" font-style="italic" lengthAdjust="spacing" textLength="153" x="803" y="296.752">accept(ControllerVisitor)</text></g><!--class Startcontroller--><g id="elem_Startcontroller"><rect codeLine="14" fill="#F1F1F1" height="188.875" id="Startcontroller" rx="2.5" ry="2.5" style="stroke:#181818;stroke-width:0.5;" width="318" x="161.5" y="364"/><ellipse cx="271.75" cy="380" fill="#ADD1B2" rx="11" ry="11" style="stroke:#181818;stroke-width:1.0;"/><path d="M274.5156,375.875 Q274.6719,375.6563 274.8594,375.5469 Q275.0469,375.4375 275.2656,375.4375 Q275.6406,375.4375 275.875,375.7031 Q276.1094,375.9531 276.1094,376.5625 L276.1094,378.0156 Q276.1094,378.625 275.875,378.8906 Q275.6406,379.1563 275.2656,379.1563 Q274.9219,379.1563 274.7188,378.9531 Q274.5156,378.7656 274.4063,378.25 Q274.3594,377.8906 274.1719,377.7031 Q273.8438,377.3281 273.2344,377.1094 Q272.625,376.8906 272,376.8906 Q271.2344,376.8906 270.5938,377.2188 Q269.9688,377.5469 269.4688,378.2969 Q268.9844,379.0469 268.9844,380.0781 L268.9844,381.1719 Q268.9844,382.4063 269.875,383.2344 Q270.7656,384.0469 272.3594,384.0469 Q273.2969,384.0469 273.9531,383.7969 Q274.3438,383.6406 274.7656,383.2031 Q275.0313,382.9375 275.1719,382.8594 Q275.3281,382.7813 275.5313,382.7813 Q275.8594,382.7813 276.1094,383.0469 Q276.375,383.2969 276.375,383.6406 Q276.375,383.9844 276.0313,384.3906 Q275.5313,384.9688 274.7344,385.2969 Q273.6563,385.75 272.3594,385.75 Q270.8438,385.75 269.6406,385.125 Q268.6563,384.625 267.9688,383.5625 Q267.2813,382.4844 267.2813,381.2031 L267.2813,380.0469 Q267.2813,378.7188 267.8906,377.5781 Q268.5156,376.4219 269.6094,375.8125 Q270.7031,375.1875 271.9375,375.1875 Q272.6719,375.1875 273.3125,375.3594 Q273.9688,375.5156 274.5156,375.875 Z " fill="#000000"/><text fill="#000000" font-family="sans-serif" font-size="14" lengthAdjust="spacing" textLength="89" x="292.25" y="385.7285">Startcontroller</text><line style="stroke:#181818;stroke-width:0.5;" x1="162.5" x2="478.5" y1="396" y2="396"/><line style="stroke:#181818;stroke-width:0.5;" x1="162.5" x2="478.5" y1="404" y2="404"/><ellipse cx="172.5" cy="418.3047" fill="#84BE84" rx="3" ry="3" style="stroke:#038048;stroke-width:1.0;"/><text fill="#000000" font-family="sans-serif" font-size="14" lengthAdjust="spacing" textLength="201" x="181.5" y="422.5332">getPlayerTypes() : PlayerType[]</text><ellipse cx="172.5" cy="435.9141" fill="#84BE84" rx="3" ry="3" style="stroke:#038048;stroke-width:1.0;"/><text fill="#000000" font-family="sans-serif" font-size="14" lengthAdjust="spacing" textLength="153" x="181.5" y="440.1426">getNumberPlayers() : int</text><ellipse cx="172.5" cy="453.5234" fill="#84BE84" rx="3" ry="3" style="stroke:#038048;stroke-width:1.0;"/><text fill="#000000" font-family="sans-serif" font-size="14" lengthAdjust="spacing" textLength="42" x="181.5" y="457.752">reset()</text><ellipse cx="172.5" cy="471.1328" fill="#84BE84" rx="3" ry="3" style="stroke:#038048;stroke-width:1.0;"/><text fill="#000000" font-family="sans-serif" font-size="14" lengthAdjust="spacing" textLength="120" x="181.5" y="475.3613">isReset() : boolean</text><ellipse cx="172.5" cy="488.7422" fill="#84BE84" rx="3" ry="3" style="stroke:#038048;stroke-width:1.0;"/><text fill="#000000" font-family="sans-serif" font-size="14" lengthAdjust="spacing" textLength="146" x="181.5" y="492.9707">addPlayer(PlayerType)</text><ellipse cx="172.5" cy="506.3516" fill="#84BE84" rx="3" ry="3" style="stroke:#038048;stroke-width:1.0;"/><text fill="#000000" font-family="sans-serif" font-size="14" lengthAdjust="spacing" textLength="286" x="181.5" y="510.5801">getMinMaxMachinePlayerType() : PlayerType</text><ellipse cx="172.5" cy="523.9609" fill="#84BE84" rx="3" ry="3" style="stroke:#038048;stroke-width:1.0;"/><text fill="#000000" font-family="sans-serif" font-size="14" lengthAdjust="spacing" textLength="292" x="181.5" y="528.1895">getRandomMachinePlayerType() : PlayerType</text><ellipse cx="172.5" cy="541.5703" fill="#84BE84" rx="3" ry="3" style="stroke:#038048;stroke-width:1.0;"/><text fill="#000000" font-family="sans-serif" font-size="14" lengthAdjust="spacing" textLength="255" x="181.5" y="545.7988">getUserPlayerPlayerType() : PlayerType</text></g><!--class ControllerVisitor--><g id="elem_ControllerVisitor"><rect codeLine="26" fill="#F1F1F1" height="100.8281" id="ControllerVisitor" rx="2.5" ry="2.5" style="stroke:#181818;stroke-width:0.5;" width="197" x="515" y="408"/><ellipse cx="558.8" cy="424" fill="#B4A7E5" rx="11" ry="11" style="stroke:#181818;stroke-width:1.0;"/><path d="M559.7531,420.6406 L559.7531,427.2969 L561.4719,427.2969 Q562.0813,427.2969 562.3469,427.5313 Q562.6125,427.7656 562.6125,428.1563 Q562.6125,428.5313 562.3469,428.7656 Q562.0813,429 561.4719,429 L556.3313,429 Q555.7219,429 555.4563,428.7656 Q555.1906,428.5313 555.1906,428.1406 Q555.1906,427.7656 555.4563,427.5313 Q555.7219,427.2969 556.3313,427.2969 L558.05,427.2969 L558.05,420.6406 L556.3313,420.6406 Q555.7219,420.6406 555.4563,420.4063 Q555.1906,420.1719 555.1906,419.7813 Q555.1906,419.4063 555.4563,419.1719 Q555.7219,418.9375 556.3313,418.9375 L561.4719,418.9375 Q562.0813,418.9375 562.3469,419.1719 Q562.6125,419.4063 562.6125,419.7813 Q562.6125,420.1719 562.3469,420.4063 Q562.0813,420.6406 561.4719,420.6406 L559.7531,420.6406 Z " fill="#000000"/><text fill="#000000" font-family="sans-serif" font-size="14" font-style="italic" lengthAdjust="spacing" textLength="101" x="579.2" y="429.7285">ControllerVisitor</text><line style="stroke:#181818;stroke-width:0.5;" x1="516" x2="711" y1="440" y2="440"/><line style="stroke:#181818;stroke-width:0.5;" x1="516" x2="711" y1="448" y2="448"/><ellipse cx="526" cy="462.3047" fill="#84BE84" rx="3" ry="3" style="stroke:#038048;stroke-width:1.0;"/><text fill="#000000" font-family="sans-serif" font-size="14" lengthAdjust="spacing" textLength="127" x="535" y="466.5332">start(Startcontroller)</text><ellipse cx="526" cy="479.9141" fill="#84BE84" rx="3" ry="3" style="stroke:#038048;stroke-width:1.0;"/><text fill="#000000" font-family="sans-serif" font-size="14" lengthAdjust="spacing" textLength="125" x="535" y="484.1426">play(PlayController)</text><ellipse cx="526" cy="497.5234" fill="#84BE84" rx="3" ry="3" style="stroke:#038048;stroke-width:1.0;"/><text fill="#000000" font-family="sans-serif" font-size="14" lengthAdjust="spacing" textLength="171" x="535" y="501.752">resume(ResumeController)</text></g><!--class PlayController--><g id="elem_PlayController"><rect codeLine="32" fill="#F1F1F1" height="188.875" id="PlayController" rx="2.5" ry="2.5" style="stroke:#181818;stroke-width:0.5;" width="250" x="747.5" y="364"/><ellipse cx="823.75" cy="380" fill="#ADD1B2" rx="11" ry="11" style="stroke:#181818;stroke-width:1.0;"/><path d="M826.5156,375.875 Q826.6719,375.6563 826.8594,375.5469 Q827.0469,375.4375 827.2656,375.4375 Q827.6406,375.4375 827.875,375.7031 Q828.1094,375.9531 828.1094,376.5625 L828.1094,378.0156 Q828.1094,378.625 827.875,378.8906 Q827.6406,379.1563 827.2656,379.1563 Q826.9219,379.1563 826.7188,378.9531 Q826.5156,378.7656 826.4063,378.25 Q826.3594,377.8906 826.1719,377.7031 Q825.8438,377.3281 825.2344,377.1094 Q824.625,376.8906 824,376.8906 Q823.2344,376.8906 822.5938,377.2188 Q821.9688,377.5469 821.4688,378.2969 Q820.9844,379.0469 820.9844,380.0781 L820.9844,381.1719 Q820.9844,382.4063 821.875,383.2344 Q822.7656,384.0469 824.3594,384.0469 Q825.2969,384.0469 825.9531,383.7969 Q826.3438,383.6406 826.7656,383.2031 Q827.0313,382.9375 827.1719,382.8594 Q827.3281,382.7813 827.5313,382.7813 Q827.8594,382.7813 828.1094,383.0469 Q828.375,383.2969 828.375,383.6406 Q828.375,383.9844 828.0313,384.3906 Q827.5313,384.9688 826.7344,385.2969 Q825.6563,385.75 824.3594,385.75 Q822.8438,385.75 821.6406,385.125 Q820.6563,384.625 819.9688,383.5625 Q819.2813,382.4844 819.2813,381.2031 L819.2813,380.0469 Q819.2813,378.7188 819.8906,377.5781 Q820.5156,376.4219 821.6094,375.8125 Q822.7031,375.1875 823.9375,375.1875 Q824.6719,375.1875 825.3125,375.3594 Q825.9688,375.5156 826.5156,375.875 Z " fill="#000000"/><text fill="#000000" font-family="sans-serif" font-size="14" lengthAdjust="spacing" textLength="89" x="844.25" y="385.7285">PlayController</text><line style="stroke:#181818;stroke-width:0.5;" x1="748.5" x2="996.5" y1="396" y2="396"/><line style="stroke:#181818;stroke-width:0.5;" x1="748.5" x2="996.5" y1="404" y2="404"/><ellipse cx="758.5" cy="418.3047" fill="#84BE84" rx="3" ry="3" style="stroke:#038048;stroke-width:1.0;"/><text fill="#000000" font-family="sans-serif" font-size="14" lengthAdjust="spacing" textLength="160" x="767.5" y="422.5332">getActivePlayer() : Player</text><ellipse cx="758.5" cy="435.9141" fill="#84BE84" rx="3" ry="3" style="stroke:#038048;stroke-width:1.0;"/><text fill="#000000" font-family="sans-serif" font-size="14" lengthAdjust="spacing" textLength="224" x="767.5" y="440.1426">getActivePlayerType() : PlayerType</text><ellipse cx="758.5" cy="453.5234" fill="#84BE84" rx="3" ry="3" style="stroke:#038048;stroke-width:1.0;"/><text fill="#000000" font-family="sans-serif" font-size="14" lengthAdjust="spacing" textLength="180" x="767.5" y="457.752">getColor(Coordinate) : Color</text><ellipse cx="758.5" cy="471.1328" fill="#84BE84" rx="3" ry="3" style="stroke:#038048;stroke-width:1.0;"/><text fill="#000000" font-family="sans-serif" font-size="14" lengthAdjust="spacing" textLength="137" x="767.5" y="475.3613">isFinished() : boolean</text><ellipse cx="758.5" cy="488.7422" fill="#84BE84" rx="3" ry="3" style="stroke:#038048;stroke-width:1.0;"/><text fill="#000000" font-family="sans-serif" font-size="14" lengthAdjust="spacing" textLength="36" x="767.5" y="492.9707">next()</text><ellipse cx="758.5" cy="506.3516" fill="#84BE84" rx="3" ry="3" style="stroke:#038048;stroke-width:1.0;"/><text fill="#000000" font-family="sans-serif" font-size="14" lengthAdjust="spacing" textLength="94" x="767.5" y="510.5801">dropToken(int)</text><ellipse cx="758.5" cy="523.9609" fill="#84BE84" rx="3" ry="3" style="stroke:#038048;stroke-width:1.0;"/><text fill="#000000" font-family="sans-serif" font-size="14" lengthAdjust="spacing" textLength="105" x="767.5" y="528.1895">getColumn() : int</text><ellipse cx="758.5" cy="541.5703" fill="#84BE84" rx="3" ry="3" style="stroke:#038048;stroke-width:1.0;"/><text fill="#000000" font-family="sans-serif" font-size="14" lengthAdjust="spacing" textLength="128" x="767.5" y="545.7988">isWinner() : boolean</text></g><!--class ResumeController--><g id="elem_ResumeController"><rect codeLine="42" fill="#F1F1F1" height="83.2188" id="ResumeController" rx="2.5" ry="2.5" style="stroke:#181818;stroke-width:0.5;" width="154" x="1032.5" y="417"/><ellipse cx="1051.1" cy="433" fill="#ADD1B2" rx="11" ry="11" style="stroke:#181818;stroke-width:1.0;"/><path d="M1053.8656,428.875 Q1054.0219,428.6563 1054.2094,428.5469 Q1054.3969,428.4375 1054.6156,428.4375 Q1054.9906,428.4375 1055.225,428.7031 Q1055.4594,428.9531 1055.4594,429.5625 L1055.4594,431.0156 Q1055.4594,431.625 1055.225,431.8906 Q1054.9906,432.1563 1054.6156,432.1563 Q1054.2719,432.1563 1054.0688,431.9531 Q1053.8656,431.7656 1053.7563,431.25 Q1053.7094,430.8906 1053.5219,430.7031 Q1053.1938,430.3281 1052.5844,430.1094 Q1051.975,429.8906 1051.35,429.8906 Q1050.5844,429.8906 1049.9438,430.2188 Q1049.3188,430.5469 1048.8188,431.2969 Q1048.3344,432.0469 1048.3344,433.0781 L1048.3344,434.1719 Q1048.3344,435.4063 1049.225,436.2344 Q1050.1156,437.0469 1051.7094,437.0469 Q1052.6469,437.0469 1053.3031,436.7969 Q1053.6938,436.6406 1054.1156,436.2031 Q1054.3813,435.9375 1054.5219,435.8594 Q1054.6781,435.7813 1054.8813,435.7813 Q1055.2094,435.7813 1055.4594,436.0469 Q1055.725,436.2969 1055.725,436.6406 Q1055.725,436.9844 1055.3813,437.3906 Q1054.8813,437.9688 1054.0844,438.2969 Q1053.0063,438.75 1051.7094,438.75 Q1050.1938,438.75 1048.9906,438.125 Q1048.0063,437.625 1047.3188,436.5625 Q1046.6313,435.4844 1046.6313,434.2031 L1046.6313,433.0469 Q1046.6313,431.7188 1047.2406,430.5781 Q1047.8656,429.4219 1048.9594,428.8125 Q1050.0531,428.1875 1051.2875,428.1875 Q1052.0219,428.1875 1052.6625,428.3594 Q1053.3188,428.5156 1053.8656,428.875 Z " fill="#000000"/><text fill="#000000" font-family="sans-serif" font-size="14" lengthAdjust="spacing" textLength="114" x="1065.9" y="438.7285">ResumeController</text><line style="stroke:#181818;stroke-width:0.5;" x1="1033.5" x2="1185.5" y1="449" y2="449"/><line style="stroke:#181818;stroke-width:0.5;" x1="1033.5" x2="1185.5" y1="457" y2="457"/><ellipse cx="1043.5" cy="471.3047" fill="#84BE84" rx="3" ry="3" style="stroke:#038048;stroke-width:1.0;"/><text fill="#000000" font-family="sans-serif" font-size="14" lengthAdjust="spacing" textLength="128" x="1052.5" y="475.5332">isWinner() : boolean</text><ellipse cx="1043.5" cy="488.9141" fill="#84BE84" rx="3" ry="3" style="stroke:#038048;stroke-width:1.0;"/><text fill="#000000" font-family="sans-serif" font-size="14" lengthAdjust="spacing" textLength="42" x="1052.5" y="493.1426">reset()</text></g><!--class Game--><g id="elem_Game"><rect codeLine="47" fill="#F1F1F1" height="48" id="Game" rx="2.5" ry="2.5" style="stroke:#181818;stroke-width:0.5;" width="119" x="7" y="434.5"/><ellipse cx="22" cy="450.5" fill="#ADD1B2" rx="11" ry="11" style="stroke:#181818;stroke-width:1.0;"/><path d="M24.7656,446.375 Q24.9219,446.1563 25.1094,446.0469 Q25.2969,445.9375 25.5156,445.9375 Q25.8906,445.9375 26.125,446.2031 Q26.3594,446.4531 26.3594,447.0625 L26.3594,448.5156 Q26.3594,449.125 26.125,449.3906 Q25.8906,449.6563 25.5156,449.6563 Q25.1719,449.6563 24.9688,449.4531 Q24.7656,449.2656 24.6563,448.75 Q24.6094,448.3906 24.4219,448.2031 Q24.0938,447.8281 23.4844,447.6094 Q22.875,447.3906 22.25,447.3906 Q21.4844,447.3906 20.8438,447.7188 Q20.2188,448.0469 19.7188,448.7969 Q19.2344,449.5469 19.2344,450.5781 L19.2344,451.6719 Q19.2344,452.9063 20.125,453.7344 Q21.0156,454.5469 22.6094,454.5469 Q23.5469,454.5469 24.2031,454.2969 Q24.5938,454.1406 25.0156,453.7031 Q25.2813,453.4375 25.4219,453.3594 Q25.5781,453.2813 25.7813,453.2813 Q26.1094,453.2813 26.3594,453.5469 Q26.625,453.7969 26.625,454.1406 Q26.625,454.4844 26.2813,454.8906 Q25.7813,455.4688 24.9844,455.7969 Q23.9063,456.25 22.6094,456.25 Q21.0938,456.25 19.8906,455.625 Q18.9063,455.125 18.2188,454.0625 Q17.5313,452.9844 17.5313,451.7031 L17.5313,450.5469 Q17.5313,449.2188 18.1406,448.0781 Q18.7656,446.9219 19.8594,446.3125 Q20.9531,445.6875 22.1875,445.6875 Q22.9219,445.6875 23.5625,445.8594 Q24.2188,446.0156 24.7656,446.375 Z " fill="#000000"/><text fill="#000000" font-family="sans-serif" font-size="14" lengthAdjust="spacing" textLength="87" x="36" y="456.2285">models.Game</text><line style="stroke:#181818;stroke-width:0.5;" x1="8" x2="125" y1="466.5" y2="466.5"/><line style="stroke:#181818;stroke-width:0.5;" x1="8" x2="125" y1="474.5" y2="474.5"/></g><!--class State--><g id="elem_State"><rect codeLine="48" fill="#F1F1F1" height="48" id="State" rx="2.5" ry="2.5" style="stroke:#181818;stroke-width:0.5;" width="114" x="1221.5" y="434.5"/><ellipse cx="1236.5" cy="450.5" fill="#ADD1B2" rx="11" ry="11" style="stroke:#181818;stroke-width:1.0;"/><path d="M1239.2656,446.375 Q1239.4219,446.1563 1239.6094,446.0469 Q1239.7969,445.9375 1240.0156,445.9375 Q1240.3906,445.9375 1240.625,446.2031 Q1240.8594,446.4531 1240.8594,447.0625 L1240.8594,448.5156 Q1240.8594,449.125 1240.625,449.3906 Q1240.3906,449.6563 1240.0156,449.6563 Q1239.6719,449.6563 1239.4688,449.4531 Q1239.2656,449.2656 1239.1563,448.75 Q1239.1094,448.3906 1238.9219,448.2031 Q1238.5938,447.8281 1237.9844,447.6094 Q1237.375,447.3906 1236.75,447.3906 Q1235.9844,447.3906 1235.3438,447.7188 Q1234.7188,448.0469 1234.2188,448.7969 Q1233.7344,449.5469 1233.7344,450.5781 L1233.7344,451.6719 Q1233.7344,452.9063 1234.625,453.7344 Q1235.5156,454.5469 1237.1094,454.5469 Q1238.0469,454.5469 1238.7031,454.2969 Q1239.0938,454.1406 1239.5156,453.7031 Q1239.7813,453.4375 1239.9219,453.3594 Q1240.0781,453.2813 1240.2813,453.2813 Q1240.6094,453.2813 1240.8594,453.5469 Q1241.125,453.7969 1241.125,454.1406 Q1241.125,454.4844 1240.7813,454.8906 Q1240.2813,455.4688 1239.4844,455.7969 Q1238.4063,456.25 1237.1094,456.25 Q1235.5938,456.25 1234.3906,455.625 Q1233.4063,455.125 1232.7188,454.0625 Q1232.0313,452.9844 1232.0313,451.7031 L1232.0313,450.5469 Q1232.0313,449.2188 1232.6406,448.0781 Q1233.2656,446.9219 1234.3594,446.3125 Q1235.4531,445.6875 1236.6875,445.6875 Q1237.4219,445.6875 1238.0625,445.8594 Q1238.7188,446.0156 1239.2656,446.375 Z " fill="#000000"/><text fill="#000000" font-family="sans-serif" font-size="14" lengthAdjust="spacing" textLength="82" x="1250.5" y="456.2285">models.State</text><line style="stroke:#181818;stroke-width:0.5;" x1="1222.5" x2="1334.5" y1="466.5" y2="466.5"/><line style="stroke:#181818;stroke-width:0.5;" x1="1222.5" x2="1334.5" y1="474.5" y2="474.5"/></g><!--class StateValue--><g id="elem_StateValue"><rect codeLine="49" fill="#F1F1F1" height="48" id="StateValue" rx="2.5" ry="2.5" style="stroke:#181818;stroke-width:0.5;" width="139" x="1219" y="229.5"/><ellipse cx="1234" cy="245.5" fill="#ADD1B2" rx="11" ry="11" style="stroke:#181818;stroke-width:1.0;"/><path d="M1236.7656,241.375 Q1236.9219,241.1563 1237.1094,241.0469 Q1237.2969,240.9375 1237.5156,240.9375 Q1237.8906,240.9375 1238.125,241.2031 Q1238.3594,241.4531 1238.3594,242.0625 L1238.3594,243.5156 Q1238.3594,244.125 1238.125,244.3906 Q1237.8906,244.6563 1237.5156,244.6563 Q1237.1719,244.6563 1236.9688,244.4531 Q1236.7656,244.2656 1236.6563,243.75 Q1236.6094,243.3906 1236.4219,243.2031 Q1236.0938,242.8281 1235.4844,242.6094 Q1234.875,242.3906 1234.25,242.3906 Q1233.4844,242.3906 1232.8438,242.7188 Q1232.2188,243.0469 1231.7188,243.7969 Q1231.2344,244.5469 1231.2344,245.5781 L1231.2344,246.6719 Q1231.2344,247.9063 1232.125,248.7344 Q1233.0156,249.5469 1234.6094,249.5469 Q1235.5469,249.5469 1236.2031,249.2969 Q1236.5938,249.1406 1237.0156,248.7031 Q1237.2813,248.4375 1237.4219,248.3594 Q1237.5781,248.2813 1237.7813,248.2813 Q1238.1094,248.2813 1238.3594,248.5469 Q1238.625,248.7969 1238.625,249.1406 Q1238.625,249.4844 1238.2813,249.8906 Q1237.7813,250.4688 1236.9844,250.7969 Q1235.9063,251.25 1234.6094,251.25 Q1233.0938,251.25 1231.8906,250.625 Q1230.9063,250.125 1230.2188,249.0625 Q1229.5313,247.9844 1229.5313,246.7031 L1229.5313,245.5469 Q1229.5313,244.2188 1230.1406,243.0781 Q1230.7656,241.9219 1231.8594,241.3125 Q1232.9531,240.6875 1234.1875,240.6875 Q1234.9219,240.6875 1235.5625,240.8594 Q1236.2188,241.0156 1236.7656,241.375 Z " fill="#000000"/><text fill="#000000" font-family="sans-serif" font-size="14" lengthAdjust="spacing" textLength="107" x="1248" y="251.2285">types.StateValue</text><line style="stroke:#181818;stroke-width:0.5;" x1="1220" x2="1357" y1="261.5" y2="261.5"/><line style="stroke:#181818;stroke-width:0.5;" x1="1220" x2="1357" y1="269.5" y2="269.5"/></g><!--link Controller to ControllerVisitor--><g id="link_Controller_ControllerVisitor"><path codeLine="53" d="M807.64,304.14 C783.36,322.82 755.6,344.3 730.5,364 C712.5,378.13 697.736,389.8428 679.966,404.0528 " fill="none" id="Controller-to-ControllerVisitor" style="stroke:#181818;stroke-width:1.0;stroke-dasharray:7.0,7.0;"/><polygon fill="#181818" points="675.28,407.8,684.8071,405.3032,679.185,404.6773,679.8108,399.0552,675.28,407.8" style="stroke:#181818;stroke-width:1.0;"/></g><!--reverse link Controller to Startcontroller--><g id="link_Controller_Startcontroller"><path codeLine="54" d="M765.4192,279.5726 C688.3592,298.6826 592.41,325.53 497.5,364 C491.7,366.35 485.85,368.83 479.97,371.41 " fill="none" id="Controller-backto-Startcontroller" style="stroke:#181818;stroke-width:1.0;"/><polygon fill="none" points="782.89,275.24,763.975,273.749,766.8634,285.3962,782.89,275.24" style="stroke:#181818;stroke-width:1.0;"/></g><!--reverse link Controller to PlayController--><g id="link_Controller_PlayController"><path codeLine="55" d="M872.5,322.16 C872.5,340.24 872.5,343.31 872.5,363.94 " fill="none" id="Controller-backto-PlayController" style="stroke:#181818;stroke-width:1.0;"/><polygon fill="none" points="872.5,304.16,866.5,322.16,878.5,322.16,872.5,304.16" style="stroke:#181818;stroke-width:1.0;"/></g><!--reverse link Controller to ResumeController--><g id="link_Controller_ResumeController"><path codeLine="56" d="M955.2256,314.8557 C979.3456,333.0657 991.95,343.43 1015.5,364 C1034.39,380.51 1054.24,399.91 1070.8,416.75 " fill="none" id="Controller-backto-ResumeController" style="stroke:#181818;stroke-width:1.0;"/><polygon fill="none" points="940.86,304.01,951.6104,319.6442,958.8409,310.0671,940.86,304.01" style="stroke:#181818;stroke-width:1.0;"/></g><!--link Logic to Game--><g id="link_Logic_Game"><path codeLine="58" d="M788.6742,120.1194 C620.3742,153.8694 349.81,224.81 145.5,364 C118.1,382.67 98.0882,408.3077 84.0282,429.3977 " fill="none" id="Logic-Game" style="stroke:#181818;stroke-width:1.0;"/><polygon fill="#181818" points="800.44,117.76,793.7706,115.0178,788.6742,120.1194,795.3436,122.8616,800.44,117.76" style="stroke:#181818;stroke-width:1.0;"/><polygon fill="#181818" points="80.7,434.39,89.0205,429.1203,83.4735,430.2297,82.3641,424.6827,80.7,434.39" style="stroke:#181818;stroke-width:1.0;"/></g><!--link Logic to State--><g id="link_Logic_State"><path codeLine="59" d="M1001.9021,151.7084 C1055.0121,205.1084 1132.37,284.54 1202.5,364 C1223.12,387.37 1241.7812,410.4935 1256.8712,429.6835 " fill="none" id="Logic-State" style="stroke:#181818;stroke-width:1.0;"/><polygon fill="#181818" points="993.44,143.2,994.835,150.2749,1001.9021,151.7084,1000.5072,144.6335,993.44,143.2" style="stroke:#181818;stroke-width:1.0;"/><polygon fill="#181818" points="1260.58,434.4,1258.1611,424.8528,1257.4894,430.4696,1251.8725,429.7978,1260.58,434.4" style="stroke:#181818;stroke-width:1.0;"/></g><!--link Logic to Controller--><g id="link_Logic_Controller"><path codeLine="60" d="M916.3381,154.3276 C907.8781,173.2776 905.5868,178.4016 897.1368,197.3216 " fill="none" id="Logic-Controller" style="stroke:#181818;stroke-width:1.0;"/><polygon fill="#181818" points="921.23,143.37,915.1315,147.2182,916.3381,154.3276,922.4366,150.4794,921.23,143.37" style="stroke:#181818;stroke-width:1.0;"/><polygon fill="#181818" points="894.69,202.8,902.0124,196.2135,896.729,198.2346,894.7079,192.9512,894.69,202.8" style="stroke:#181818;stroke-width:1.0;"/></g><!--link Logic to StateValue--><g id="link_Logic_StateValue"><path codeLine="61" d="M1080.4685,147.7017 C1123.2285,165.5017 1159.87,181.82 1202.5,203 C1218.54,210.97 1230.5741,217.6052 1245.3441,226.2652 " fill="none" id="Logic-StateValue" style="stroke:#181818;stroke-width:1.0;"/><polygon fill="#181818" points="1069.39,143.09,1073.392,149.0887,1080.4685,147.7017,1076.4665,141.703,1069.39,143.09" style="stroke:#181818;stroke-width:1.0;"/><polygon fill="#181818" points="1250.52,229.3,1244.7793,221.2972,1246.2067,226.771,1240.7329,228.1985,1250.52,229.3" style="stroke:#181818;stroke-width:1.0;"/></g><!--link Controller to Game--><g id="link_Controller_Game"><path codeLine="63" d="M782.85,264.42 C600.8,285.09 200.35,333.37 145.5,364 C116,380.48 95.8031,407.433 82.3631,429.383 " fill="none" id="Controller-to-Game" style="stroke:#181818;stroke-width:1.0;"/><polygon fill="#181818" points="79.23,434.5,87.341,428.9133,81.8409,430.2358,80.5184,424.7358,79.23,434.5" style="stroke:#181818;stroke-width:1.0;"/></g><!--link Controller to State--><g id="link_Controller_State"><path codeLine="64" d="M962.12,278.11 C1045.64,301.21 1163.07,336.77 1202.5,364 C1229.35,382.54 1248.4924,408.1393 1261.8524,429.2593 " fill="none" id="Controller-to-State" style="stroke:#181818;stroke-width:1.0;"/><polygon fill="#181818" points="1265.06,434.33,1263.6291,424.5856,1262.387,430.1045,1256.8682,428.8624,1265.06,434.33" style="stroke:#181818;stroke-width:1.0;"/></g><!--SRC=[ZLJHRi8W57tlLn2Vwbpx0OinMKosbtLPd7CFonwGtYaPXGPmqJZ_VHJQGbirwqjpEOV3FVTU80mhXOZWMWh6GAhqIMmeGSS8cIy907I7CbnENpNMiC9i1xTetg8pPFaJkpaUks03sZFYiH7mONIA8hnMMcAY4HaauObr9fD0wH4Nvd2RI7qIXxssSNCqEZRY9uG9WLB7Nc155TL2ZgiSXaSR7Qb9U7xhveNX0yZbeGHbxVZuuxCbFU-ADKW7EHhbsg4I5EWcHQeMBZICjH0CC7S0pdEtE_Rwlg8PvHdUPvXiAGTFwENJqXUOvwBuD_rDDQbVvfgg6KSWlp212qshAzpqJbKbZNk5hIsLHjWQdVSHKwrT0V72_aBqRDkw4iVMqJtHzATs7ZWvYr-hp5mm8SqG2PbJNasU7MUprdJpWNAgjf0F6rfDPzFrN8foARw1nwQ6uJrXku9tfuMgTyfvdNKZU3fZlL-XuvNzdJbi2rdTA8GL6XKY1wRIAXxLcBrN8MWNEgXz3Yn5LtSZzOkZo7p1PKxJ6HgCIKYO_YO9watA0E_sUW3twn55xasxIPAPjHh6DjTm8TZNfrbB7J-jOc_DgKP_]--></g></svg>