<?xml version="1.0" encoding="us-ascii" standalone="no"?><svg xmlns="http://www.w3.org/2000/svg" xmlns:xlink="http://www.w3.org/1999/xlink" contentStyleType="text/css" height="457px" preserveAspectRatio="none" style="width:601px;height:457px;background:#FFFFFF;" version="1.1" viewBox="0 0 601 457" width="601px" zoomAndPan="magnify"><defs/><g><!--entity connect4.launchers--><g id="elem_connect4.launchers"><path d="M235,6 L387,6 A3.75,3.75 0 0 1 389.5,8.5 L396.5,29.6094 L411,29.6094 A2.5,2.5 0 0 1 413.5,32.1094 L413.5,44.1094 A2.5,2.5 0 0 1 411,46.6094 L235,46.6094 A2.5,2.5 0 0 1 232.5,44.1094 L232.5,8.5 A2.5,2.5 0 0 1 235,6 " fill="#F1F1F1" style="stroke:#181818;stroke-width:0.5;"/><line style="stroke:#181818;stroke-width:0.5;" x1="232.5" x2="396.5" y1="29.6094" y2="29.6094"/><text fill="#000000" font-family="sans-serif" font-size="14" font-weight="bold" lengthAdjust="spacing" textLength="139" x="242.5" y="23.5332">connect4.launchers</text></g><!--entity connect4.models--><g id="elem_connect4.models"><path d="M8.5,309 L141.5,309 A3.75,3.75 0 0 1 144,311.5 L151,332.6094 L165.5,332.6094 A2.5,2.5 0 0 1 168,335.1094 L168,347.1094 A2.5,2.5 0 0 1 165.5,349.6094 L8.5,349.6094 A2.5,2.5 0 0 1 6,347.1094 L6,311.5 A2.5,2.5 0 0 1 8.5,309 " fill="#F1F1F1" style="stroke:#181818;stroke-width:0.5;"/><line style="stroke:#181818;stroke-width:0.5;" x1="6" x2="151" y1="332.6094" y2="332.6094"/><text fill="#000000" font-family="sans-serif" font-size="14" font-weight="bold" lengthAdjust="spacing" textLength="120" x="16" y="326.5332">connect4.models</text></g><!--entity connect4.types--><g id="elem_connect4.types"><path d="M66,410 L186,410 A3.75,3.75 0 0 1 188.5,412.5 L195.5,433.6094 L210,433.6094 A2.5,2.5 0 0 1 212.5,436.1094 L212.5,448.1094 A2.5,2.5 0 0 1 210,450.6094 L66,450.6094 A2.5,2.5 0 0 1 63.5,448.1094 L63.5,412.5 A2.5,2.5 0 0 1 66,410 " fill="#F1F1F1" style="stroke:#181818;stroke-width:0.5;"/><line style="stroke:#181818;stroke-width:0.5;" x1="63.5" x2="195.5" y1="433.6094" y2="433.6094"/><text fill="#000000" font-family="sans-serif" font-size="14" font-weight="bold" lengthAdjust="spacing" textLength="107" x="73.5" y="427.5332">connect4.types</text></g><!--entity connect4.views--><g id="elem_connect4.views"><path d="M354.5,107 L477.5,107 A3.75,3.75 0 0 1 480,109.5 L487,130.6094 L501.5,130.6094 A2.5,2.5 0 0 1 504,133.1094 L504,145.1094 A2.5,2.5 0 0 1 501.5,147.6094 L354.5,147.6094 A2.5,2.5 0 0 1 352,145.1094 L352,109.5 A2.5,2.5 0 0 1 354.5,107 " fill="#F1F1F1" style="stroke:#181818;stroke-width:0.5;"/><line style="stroke:#181818;stroke-width:0.5;" x1="352" x2="487" y1="130.6094" y2="130.6094"/><text fill="#000000" font-family="sans-serif" font-size="14" font-weight="bold" lengthAdjust="spacing" textLength="110" x="362" y="124.5332">connect4.views</text></g><!--entity connect4.controllers--><g id="elem_connect4.controllers"><path d="M127.5,208 L286.5,208 A3.75,3.75 0 0 1 289,210.5 L296,231.6094 L310.5,231.6094 A2.5,2.5 0 0 1 313,234.1094 L313,246.1094 A2.5,2.5 0 0 1 310.5,248.6094 L127.5,248.6094 A2.5,2.5 0 0 1 125,246.1094 L125,210.5 A2.5,2.5 0 0 1 127.5,208 " fill="#F1F1F1" style="stroke:#181818;stroke-width:0.5;"/><line style="stroke:#181818;stroke-width:0.5;" x1="125" x2="296" y1="231.6094" y2="231.6094"/><text fill="#000000" font-family="sans-serif" font-size="14" font-weight="bold" lengthAdjust="spacing" textLength="146" x="135" y="225.5332">connect4.controllers</text></g><!--entity connect4.utils--><g id="elem_connect4.utils"><path d="M298,410 L410,410 A3.75,3.75 0 0 1 412.5,412.5 L419.5,433.6094 L434,433.6094 A2.5,2.5 0 0 1 436.5,436.1094 L436.5,448.1094 A2.5,2.5 0 0 1 434,450.6094 L298,450.6094 A2.5,2.5 0 0 1 295.5,448.1094 L295.5,412.5 A2.5,2.5 0 0 1 298,410 " fill="#F1F1F1" style="stroke:#181818;stroke-width:0.5;"/><line style="stroke:#181818;stroke-width:0.5;" x1="295.5" x2="419.5" y1="433.6094" y2="433.6094"/><text fill="#000000" font-family="sans-serif" font-size="14" font-weight="bold" lengthAdjust="spacing" textLength="99" x="305.5" y="427.5332">connect4.utils</text></g><!--entity connect4.persistence--><g id="elem_connect4.persistence"><path d="M124,107 L290,107 A3.75,3.75 0 0 1 292.5,109.5 L299.5,130.6094 L314,130.6094 A2.5,2.5 0 0 1 316.5,133.1094 L316.5,145.1094 A2.5,2.5 0 0 1 314,147.6094 L124,147.6094 A2.5,2.5 0 0 1 121.5,145.1094 L121.5,109.5 A2.5,2.5 0 0 1 124,107 " fill="#F1F1F1" style="stroke:#181818;stroke-width:0.5;"/><line style="stroke:#181818;stroke-width:0.5;" x1="121.5" x2="299.5" y1="130.6094" y2="130.6094"/><text fill="#000000" font-family="sans-serif" font-size="14" font-weight="bold" lengthAdjust="spacing" textLength="153" x="131.5" y="124.5332">connect4.persistence</text></g><!--link connect4.launchers to connect4.views--><g id="link_connect4.launchers_connect4.views"><path d="M343.74,47.06 C362.15,64.42 384.5334,85.525 402.9334,102.865 " fill="none" id="connect4.launchers-to-connect4.views" style="stroke:#181818;stroke-width:1.0;stroke-dasharray:7.0,7.0;"/><polygon fill="#181818" points="407.3,106.98,403.4935,97.8965,403.6612,103.5508,398.0068,103.7185,407.3,106.98" style="stroke:#181818;stroke-width:1.0;"/></g><!--link connect4.launchers to connect4.controllers--><g id="link_connect4.launchers_connect4.controllers"><path d="M232.45,36.12 C185.91,45.67 133.02,65.6 104,107 C76.45,146.31 127.6626,182.5306 170.8226,205.0906 " fill="none" id="connect4.launchers-to-connect4.controllers" style="stroke:#181818;stroke-width:1.0;stroke-dasharray:7.0,7.0;"/><polygon fill="#181818" points="176.14,207.87,170.0169,200.1559,171.7088,205.5538,166.3109,207.2458,176.14,207.87" style="stroke:#181818;stroke-width:1.0;"/></g><!--link connect4.launchers to connect4.utils--><g id="link_connect4.launchers_connect4.utils"><path d="M413.7,40.49 C453.92,51.26 497.59,70.96 522,107 C594.03,213.34 452.8538,353.9956 393.8238,405.9556 " fill="none" id="connect4.launchers-to-connect4.utils" style="stroke:#181818;stroke-width:1.0;stroke-dasharray:7.0,7.0;"/><polygon fill="#181818" points="389.32,409.92,398.7186,406.976,393.0731,406.6164,393.4327,400.971,389.32,409.92" style="stroke:#181818;stroke-width:1.0;"/></g><!--link connect4.views to connect4.controllers--><g id="link_connect4.views_connect4.controllers"><path d="M386.71,148.06 C350.07,165.42 302.2425,188.0717 265.6325,205.4117 " fill="none" id="connect4.views-to-connect4.controllers" style="stroke:#181818;stroke-width:1.0;stroke-dasharray:7.0,7.0;"/><polygon fill="#181818" points="260.21,207.98,270.056,207.7425,264.7288,205.8397,266.6316,200.5125,260.21,207.98" style="stroke:#181818;stroke-width:1.0;"/></g><!--link connect4.views to connect4.utils--><g id="link_connect4.views_connect4.utils"><path d="M425.83,148.26 C421.33,187.22 409.86,276.56 392,350 C386.95,370.74 381.166,388.236 375.416,404.176 " fill="none" id="connect4.views-to-connect4.utils" style="stroke:#181818;stroke-width:1.0;stroke-dasharray:7.0,7.0;"/><polygon fill="#181818" points="373.38,409.82,380.1966,402.7113,375.0766,405.1167,372.6713,399.9967,373.38,409.82" style="stroke:#181818;stroke-width:1.0;"/></g><!--link connect4.controllers to connect4.models--><g id="link_connect4.controllers_connect4.models"><path d="M192.92,249.06 C169.78,266.42 140.9507,288.041 117.8207,305.381 " fill="none" id="connect4.controllers-to-connect4.models" style="stroke:#181818;stroke-width:1.0;stroke-dasharray:7.0,7.0;"/><polygon fill="#181818" points="113.02,308.98,122.6205,306.782,117.0206,305.9808,117.8218,300.381,113.02,308.98" style="stroke:#181818;stroke-width:1.0;"/></g><!--link connect4.controllers to connect4.types--><g id="link_connect4.controllers_connect4.types"><path d="M215.34,249.26 C210.43,273.6 200.62,315.91 186,350 C176.78,371.48 165.9734,389.1713 155.4134,404.7713 " fill="none" id="connect4.controllers-to-connect4.types" style="stroke:#181818;stroke-width:1.0;stroke-dasharray:7.0,7.0;"/><polygon fill="#181818" points="152.05,409.74,160.4075,404.5293,154.8528,405.5995,153.7827,400.0447,152.05,409.74" style="stroke:#181818;stroke-width:1.0;"/></g><!--link connect4.controllers to connect4.utils--><g id="link_connect4.controllers_connect4.utils"><path d="M233.36,249.04 C261.47,287.28 319.8766,366.7454 348.0266,405.0454 " fill="none" id="connect4.controllers-to-connect4.utils" style="stroke:#181818;stroke-width:1.0;stroke-dasharray:7.0,7.0;"/><polygon fill="#181818" points="351.58,409.88,349.473,400.2592,348.6189,405.8512,343.0269,404.997,351.58,409.88" style="stroke:#181818;stroke-width:1.0;"/></g><!--link connect4.persistence to connect4.controllers--><g id="link_connect4.persistence_connect4.controllers"><path d="M219,148.06 C219,165.42 219,184.64 219,201.98 " fill="none" id="connect4.persistence-to-connect4.controllers" style="stroke:#181818;stroke-width:1.0;stroke-dasharray:7.0,7.0;"/><polygon fill="#181818" points="219,207.98,223,198.98,219,202.98,215,198.98,219,207.98" style="stroke:#181818;stroke-width:1.0;"/></g><!--link connect4.models to connect4.types--><g id="link_connect4.models_connect4.types"><path d="M97.08,350.06 C106.02,367.42 116.2629,387.3058 125.1929,404.6458 " fill="none" id="connect4.models-to-connect4.types" style="stroke:#181818;stroke-width:1.0;stroke-dasharray:7.0,7.0;"/><polygon fill="#181818" points="127.94,409.98,127.3755,400.1473,125.6508,405.5348,120.2633,403.8101,127.94,409.98" style="stroke:#181818;stroke-width:1.0;"/></g><!--link connect4.models to connect4.utils--><g id="link_connect4.models_connect4.utils"><path d="M142.12,350.06 C191.03,367.42 256.4654,390.6336 305.3354,407.9736 " fill="none" id="connect4.models-to-connect4.utils" style="stroke:#181818;stroke-width:1.0;stroke-dasharray:7.0,7.0;"/><polygon fill="#181818" points="310.99,409.98,303.8457,403.2007,306.2778,408.308,301.1705,410.7402,310.99,409.98" style="stroke:#181818;stroke-width:1.0;"/></g><!--link connect4.launchers to connect4.persistence--><g id="link_connect4.launchers_connect4.persistence"><path d="M302.45,47.06 C284.22,64.42 262.0663,85.5036 243.8463,102.8436 " fill="none" id="connect4.launchers-to-connect4.persistence" style="stroke:#181818;stroke-width:1.0;stroke-dasharray:7.0,7.0;"/><polygon fill="#181818" points="239.5,106.98,248.777,103.673,243.1219,103.533,243.2619,97.8779,239.5,106.98" style="stroke:#181818;stroke-width:1.0;"/></g><!--link connect4.persistence to connect4.models--><g id="link_connect4.persistence_connect4.models"><path d="M177.27,148.05 C153.2,161.5 124.52,181.71 108,208 C88.34,239.29 85.634,277.7105 85.954,302.9605 " fill="none" id="connect4.persistence-to-connect4.models" style="stroke:#181818;stroke-width:1.0;stroke-dasharray:7.0,7.0;"/><polygon fill="#181818" points="86.03,308.96,89.9156,299.91,85.9666,303.9604,81.9163,300.0114,86.03,308.96" style="stroke:#181818;stroke-width:1.0;"/></g><!--link connect4.persistence to connect4.utils--><g id="link_connect4.persistence_connect4.utils"><path d="M261.54,148.02 C285.82,161.41 314.6,181.55 331,208 C371.32,273.01 370.7428,362.7322 368.1228,403.7122 " fill="none" id="connect4.persistence-to-connect4.utils" style="stroke:#181818;stroke-width:1.0;stroke-dasharray:7.0,7.0;"/><polygon fill="#181818" points="367.74,409.7,372.3061,400.9736,368.059,404.7102,364.3224,400.4631,367.74,409.7" style="stroke:#181818;stroke-width:1.0;"/></g><!--SRC=[ZP513eGW34NtdC8Ji7BjNKYdKJ88HAl6suy9Bh1JhJjI7hpF9plukXuRI34YK6k3Mo8CECqcywqnVJ08Szep2kFLuoQCZmLDAGHHiP2N3Fc0_KmO0OtvZzfOst6lHjKnDBQakWfUt2PmxARgs9KxgzR1qhtECN5Lw8k7b3IFOWbXpfjowx_Ly_5YRi4Y_m40]--></g></svg>