<?xml version="1.0" encoding="us-ascii" standalone="no"?><svg xmlns="http://www.w3.org/2000/svg" xmlns:xlink="http://www.w3.org/1999/xlink" contentStyleType="text/css" height="293px" preserveAspectRatio="none" style="width:305px;height:293px;background:#FFFFFF;" version="1.1" viewBox="0 0 305 293" width="305px" zoomAndPan="magnify"><defs/><g><!--cluster connect4--><g id="cluster_connect4"><path d="M51,6 L117,6 A3.75,3.75 0 0 1 119.5,8.5 L126.5,29.6094 L244,29.6094 A2.5,2.5 0 0 1 246.5,32.1094 L246.5,191.5 A2.5,2.5 0 0 1 244,194 L51,194 A2.5,2.5 0 0 1 48.5,191.5 L48.5,8.5 A2.5,2.5 0 0 1 51,6 " fill="none" style="stroke:#000000;stroke-width:1.5;"/><line style="stroke:#000000;stroke-width:1.5;" x1="48.5" x2="126.5" y1="29.6094" y2="29.6094"/><text fill="#000000" font-family="sans-serif" font-size="14" font-weight="bold" lengthAdjust="spacing" textLength="65" x="52.5" y="22.5332">connect4</text></g><!--class Connect4--><g id="elem_Connect4"><rect codeLine="2" fill="#F1F1F1" height="136.0469" id="Connect4" rx="2.5" ry="2.5" style="stroke:#181818;stroke-width:0.5;" width="165" x="65" y="42"/><ellipse cx="112.75" cy="58" fill="#ADD1B2" rx="11" ry="11" style="stroke:#181818;stroke-width:1.0;"/><path d="M115.5156,53.875 Q115.6719,53.6563 115.8594,53.5469 Q116.0469,53.4375 116.2656,53.4375 Q116.6406,53.4375 116.875,53.7031 Q117.1094,53.9531 117.1094,54.5625 L117.1094,56.0156 Q117.1094,56.625 116.875,56.8906 Q116.6406,57.1563 116.2656,57.1563 Q115.9219,57.1563 115.7188,56.9531 Q115.5156,56.7656 115.4063,56.25 Q115.3594,55.8906 115.1719,55.7031 Q114.8438,55.3281 114.2344,55.1094 Q113.625,54.8906 113,54.8906 Q112.2344,54.8906 111.5938,55.2188 Q110.9688,55.5469 110.4688,56.2969 Q109.9844,57.0469 109.9844,58.0781 L109.9844,59.1719 Q109.9844,60.4063 110.875,61.2344 Q111.7656,62.0469 113.3594,62.0469 Q114.2969,62.0469 114.9531,61.7969 Q115.3438,61.6406 115.7656,61.2031 Q116.0313,60.9375 116.1719,60.8594 Q116.3281,60.7813 116.5313,60.7813 Q116.8594,60.7813 117.1094,61.0469 Q117.375,61.2969 117.375,61.6406 Q117.375,61.9844 117.0313,62.3906 Q116.5313,62.9688 115.7344,63.2969 Q114.6563,63.75 113.3594,63.75 Q111.8438,63.75 110.6406,63.125 Q109.6563,62.625 108.9688,61.5625 Q108.2813,60.4844 108.2813,59.2031 L108.2813,58.0469 Q108.2813,56.7188 108.8906,55.5781 Q109.5156,54.4219 110.6094,53.8125 Q111.7031,53.1875 112.9375,53.1875 Q113.6719,53.1875 114.3125,53.3594 Q114.9688,53.5156 115.5156,53.875 Z " fill="#000000"/><text fill="#000000" font-family="sans-serif" font-size="14" lengthAdjust="spacing" textLength="61" x="133.25" y="63.7285">Connect4</text><line style="stroke:#181818;stroke-width:0.5;" x1="66" x2="229" y1="74" y2="74"/><rect fill="none" height="6" style="stroke:#C82930;stroke-width:1.0;" width="6" x="73" y="85.3047"/><text fill="#000000" font-family="sans-serif" font-size="14" lengthAdjust="spacing" textLength="81" x="85" y="92.5332">game: Game</text><rect fill="none" height="6" style="stroke:#C82930;stroke-width:1.0;" width="6" x="73" y="102.9141"/><text fill="#000000" font-family="sans-serif" font-size="14" lengthAdjust="spacing" textLength="139" x="85" y="110.1426">gameView: GameView</text><line style="stroke:#181818;stroke-width:0.5;" x1="66" x2="229" y1="117.2188" y2="117.2188"/><ellipse cx="76" cy="131.5234" fill="#84BE84" rx="3" ry="3" style="stroke:#038048;stroke-width:1.0;"/><text fill="#000000" font-family="sans-serif" font-size="14" lengthAdjust="spacing" textLength="71" x="85" y="135.752">Connect4()</text><ellipse cx="76" cy="149.1328" fill="#84BE84" rx="3" ry="3" style="stroke:#038048;stroke-width:1.0;"/><text fill="#000000" font-family="sans-serif" font-size="14" lengthAdjust="spacing" textLength="85" x="85" y="153.3613">main(String[])</text><rect fill="#F24D5C" height="6" style="stroke:#C82930;stroke-width:1.0;" width="6" x="73" y="163.7422"/><text fill="#000000" font-family="sans-serif" font-size="14" lengthAdjust="spacing" textLength="81" x="85" y="170.9707">playGames()</text></g><!--class Game--><g id="elem_Game"><rect codeLine="3" fill="#F1F1F1" height="48" id="Game" rx="2.5" ry="2.5" style="stroke:#181818;stroke-width:0.5;" width="119" x="7" y="238"/><ellipse cx="22" cy="254" fill="#ADD1B2" rx="11" ry="11" style="stroke:#181818;stroke-width:1.0;"/><path d="M24.7656,249.875 Q24.9219,249.6563 25.1094,249.5469 Q25.2969,249.4375 25.5156,249.4375 Q25.8906,249.4375 26.125,249.7031 Q26.3594,249.9531 26.3594,250.5625 L26.3594,252.0156 Q26.3594,252.625 26.125,252.8906 Q25.8906,253.1563 25.5156,253.1563 Q25.1719,253.1563 24.9688,252.9531 Q24.7656,252.7656 24.6563,252.25 Q24.6094,251.8906 24.4219,251.7031 Q24.0938,251.3281 23.4844,251.1094 Q22.875,250.8906 22.25,250.8906 Q21.4844,250.8906 20.8438,251.2188 Q20.2188,251.5469 19.7188,252.2969 Q19.2344,253.0469 19.2344,254.0781 L19.2344,255.1719 Q19.2344,256.4063 20.125,257.2344 Q21.0156,258.0469 22.6094,258.0469 Q23.5469,258.0469 24.2031,257.7969 Q24.5938,257.6406 25.0156,257.2031 Q25.2813,256.9375 25.4219,256.8594 Q25.5781,256.7813 25.7813,256.7813 Q26.1094,256.7813 26.3594,257.0469 Q26.625,257.2969 26.625,257.6406 Q26.625,257.9844 26.2813,258.3906 Q25.7813,258.9688 24.9844,259.2969 Q23.9063,259.75 22.6094,259.75 Q21.0938,259.75 19.8906,259.125 Q18.9063,258.625 18.2188,257.5625 Q17.5313,256.4844 17.5313,255.2031 L17.5313,254.0469 Q17.5313,252.7188 18.1406,251.5781 Q18.7656,250.4219 19.8594,249.8125 Q20.9531,249.1875 22.1875,249.1875 Q22.9219,249.1875 23.5625,249.3594 Q24.2188,249.5156 24.7656,249.875 Z " fill="#000000"/><text fill="#000000" font-family="sans-serif" font-size="14" lengthAdjust="spacing" textLength="87" x="36" y="259.7285">models.Game</text><line style="stroke:#181818;stroke-width:0.5;" x1="8" x2="125" y1="270" y2="270"/><line style="stroke:#181818;stroke-width:0.5;" x1="8" x2="125" y1="278" y2="278"/></g><!--class GameView--><g id="elem_GameView"><rect codeLine="4" fill="#F1F1F1" height="48" id="GameView" rx="2.5" ry="2.5" style="stroke:#181818;stroke-width:0.5;" width="137" x="161" y="238"/><ellipse cx="176" cy="254" fill="#ADD1B2" rx="11" ry="11" style="stroke:#181818;stroke-width:1.0;"/><path d="M178.7656,249.875 Q178.9219,249.6563 179.1094,249.5469 Q179.2969,249.4375 179.5156,249.4375 Q179.8906,249.4375 180.125,249.7031 Q180.3594,249.9531 180.3594,250.5625 L180.3594,252.0156 Q180.3594,252.625 180.125,252.8906 Q179.8906,253.1563 179.5156,253.1563 Q179.1719,253.1563 178.9688,252.9531 Q178.7656,252.7656 178.6563,252.25 Q178.6094,251.8906 178.4219,251.7031 Q178.0938,251.3281 177.4844,251.1094 Q176.875,250.8906 176.25,250.8906 Q175.4844,250.8906 174.8438,251.2188 Q174.2188,251.5469 173.7188,252.2969 Q173.2344,253.0469 173.2344,254.0781 L173.2344,255.1719 Q173.2344,256.4063 174.125,257.2344 Q175.0156,258.0469 176.6094,258.0469 Q177.5469,258.0469 178.2031,257.7969 Q178.5938,257.6406 179.0156,257.2031 Q179.2813,256.9375 179.4219,256.8594 Q179.5781,256.7813 179.7813,256.7813 Q180.1094,256.7813 180.3594,257.0469 Q180.625,257.2969 180.625,257.6406 Q180.625,257.9844 180.2813,258.3906 Q179.7813,258.9688 178.9844,259.2969 Q177.9063,259.75 176.6094,259.75 Q175.0938,259.75 173.8906,259.125 Q172.9063,258.625 172.2188,257.5625 Q171.5313,256.4844 171.5313,255.2031 L171.5313,254.0469 Q171.5313,252.7188 172.1406,251.5781 Q172.7656,250.4219 173.8594,249.8125 Q174.9531,249.1875 176.1875,249.1875 Q176.9219,249.1875 177.5625,249.3594 Q178.2188,249.5156 178.7656,249.875 Z " fill="#000000"/><text fill="#000000" font-family="sans-serif" font-size="14" lengthAdjust="spacing" textLength="105" x="190" y="259.7285">views.GameView</text><line style="stroke:#181818;stroke-width:0.5;" x1="162" x2="297" y1="270" y2="270"/><line style="stroke:#181818;stroke-width:0.5;" x1="162" x2="297" y1="278" y2="278"/></g><!--reverse link Connect4 to Game--><g id="link_Connect4_Game"><path codeLine="6" d="M105.5602,188.6599 C94.0202,210.0399 87.71,221.71 79.04,237.77 " fill="none" id="Connect4-backto-Game" style="stroke:#181818;stroke-width:1.0;"/><polygon fill="#181818" points="111.26,178.1,104.8901,181.48,105.5602,188.6599,111.9301,185.2799,111.26,178.1" style="stroke:#181818;stroke-width:1.0;"/></g><!--reverse link Connect4 to GameView--><g id="link_Connect4_GameView"><path codeLine="7" d="M189.9369,188.6289 C201.6269,210.0089 208.02,221.71 216.8,237.77 " fill="none" id="Connect4-backto-GameView" style="stroke:#181818;stroke-width:1.0;"/><polygon fill="#181818" points="184.18,178.1,183.5488,185.2834,189.9369,188.6289,190.5681,181.4455,184.18,178.1" style="stroke:#181818;stroke-width:1.0;"/></g><!--SRC=[Iyv9B2vMICxFoqjDBZ7HSuOok9B1ukw9kQaAYSKAIhdvAQavnNeWlXAIN5XcQZbOlWp8W4Y3X9Iuk606AMZfweALOeg0L28fj5BGJGUAMg6fXWg355iXj259QyFO6feemWgvYPbv6i4bHPbvwT6nA7Aw1Jc9bI2pYe5w0000]--></g></svg>