<?xml version="1.0" encoding="us-ascii" standalone="no"?><svg xmlns="http://www.w3.org/2000/svg" xmlns:xlink="http://www.w3.org/1999/xlink" contentStyleType="text/css" height="384px" preserveAspectRatio="none" style="width:686px;height:384px;background:#FFFFFF;" version="1.1" viewBox="0 0 686 384" width="686px" zoomAndPan="magnify"><defs/><g><!--cluster views--><g id="cluster_views"><path d="M219.5,132 L261.5,132 A3.75,3.75 0 0 1 264,134.5 L271,155.6094 L444.5,155.6094 A2.5,2.5 0 0 1 447,158.1094 L447,282.5 A2.5,2.5 0 0 1 444.5,285 L219.5,285 A2.5,2.5 0 0 1 217,282.5 L217,134.5 A2.5,2.5 0 0 1 219.5,132 " fill="none" style="stroke:#000000;stroke-width:1.5;"/><line style="stroke:#000000;stroke-width:1.5;" x1="217" x2="271" y1="155.6094" y2="155.6094"/><text fill="#000000" font-family="sans-serif" font-size="14" font-weight="bold" lengthAdjust="spacing" textLength="41" x="221" y="148.5332">views</text></g><!--class View--><g id="elem_View"><rect codeLine="3" fill="#F1F1F1" height="100.8281" id="View" rx="2.5" ry="2.5" style="stroke:#181818;stroke-width:0.5;" width="197" x="233.5" y="168"/><ellipse cx="313.25" cy="184" fill="#B4A7E5" rx="11" ry="11" style="stroke:#181818;stroke-width:1.0;"/><path d="M314.2031,180.6406 L314.2031,187.2969 L315.9219,187.2969 Q316.5313,187.2969 316.7969,187.5313 Q317.0625,187.7656 317.0625,188.1563 Q317.0625,188.5313 316.7969,188.7656 Q316.5313,189 315.9219,189 L310.7813,189 Q310.1719,189 309.9063,188.7656 Q309.6406,188.5313 309.6406,188.1406 Q309.6406,187.7656 309.9063,187.5313 Q310.1719,187.2969 310.7813,187.2969 L312.5,187.2969 L312.5,180.6406 L310.7813,180.6406 Q310.1719,180.6406 309.9063,180.4063 Q309.6406,180.1719 309.6406,179.7813 Q309.6406,179.4063 309.9063,179.1719 Q310.1719,178.9375 310.7813,178.9375 L315.9219,178.9375 Q316.5313,178.9375 316.7969,179.1719 Q317.0625,179.4063 317.0625,179.7813 Q317.0625,180.1719 316.7969,180.4063 Q316.5313,180.6406 315.9219,180.6406 L314.2031,180.6406 Z " fill="#000000"/><text fill="#000000" font-family="sans-serif" font-size="14" font-style="italic" lengthAdjust="spacing" textLength="29" x="333.75" y="189.7285">View</text><line style="stroke:#181818;stroke-width:0.5;" x1="234.5" x2="429.5" y1="200" y2="200"/><line style="stroke:#181818;stroke-width:0.5;" x1="234.5" x2="429.5" y1="208" y2="208"/><ellipse cx="244.5" cy="222.3047" fill="#84BE84" rx="3" ry="3" style="stroke:#038048;stroke-width:1.0;"/><text fill="#000000" font-family="sans-serif" font-size="14" lengthAdjust="spacing" textLength="130" x="253.5" y="226.5332">start(StartController)</text><ellipse cx="244.5" cy="239.9141" fill="#84BE84" rx="3" ry="3" style="stroke:#038048;stroke-width:1.0;"/><text fill="#000000" font-family="sans-serif" font-size="14" lengthAdjust="spacing" textLength="125" x="253.5" y="244.1426">play(PlayController)</text><ellipse cx="244.5" cy="257.5234" fill="#84BE84" rx="3" ry="3" style="stroke:#038048;stroke-width:1.0;"/><text fill="#000000" font-family="sans-serif" font-size="14" lengthAdjust="spacing" textLength="171" x="253.5" y="261.752">resume(ResumeController)</text></g><!--class StartController--><g id="elem_StartController"><rect codeLine="4" fill="#F1F1F1" height="48" id="StartController" rx="2.5" ry="2.5" style="stroke:#181818;stroke-width:0.5;" width="194" x="7" y="329"/><ellipse cx="22" cy="345" fill="#ADD1B2" rx="11" ry="11" style="stroke:#181818;stroke-width:1.0;"/><path d="M24.7656,340.875 Q24.9219,340.6563 25.1094,340.5469 Q25.2969,340.4375 25.5156,340.4375 Q25.8906,340.4375 26.125,340.7031 Q26.3594,340.9531 26.3594,341.5625 L26.3594,343.0156 Q26.3594,343.625 26.125,343.8906 Q25.8906,344.1563 25.5156,344.1563 Q25.1719,344.1563 24.9688,343.9531 Q24.7656,343.7656 24.6563,343.25 Q24.6094,342.8906 24.4219,342.7031 Q24.0938,342.3281 23.4844,342.1094 Q22.875,341.8906 22.25,341.8906 Q21.4844,341.8906 20.8438,342.2188 Q20.2188,342.5469 19.7188,343.2969 Q19.2344,344.0469 19.2344,345.0781 L19.2344,346.1719 Q19.2344,347.4063 20.125,348.2344 Q21.0156,349.0469 22.6094,349.0469 Q23.5469,349.0469 24.2031,348.7969 Q24.5938,348.6406 25.0156,348.2031 Q25.2813,347.9375 25.4219,347.8594 Q25.5781,347.7813 25.7813,347.7813 Q26.1094,347.7813 26.3594,348.0469 Q26.625,348.2969 26.625,348.6406 Q26.625,348.9844 26.2813,349.3906 Q25.7813,349.9688 24.9844,350.2969 Q23.9063,350.75 22.6094,350.75 Q21.0938,350.75 19.8906,350.125 Q18.9063,349.625 18.2188,348.5625 Q17.5313,347.4844 17.5313,346.2031 L17.5313,345.0469 Q17.5313,343.7188 18.1406,342.5781 Q18.7656,341.4219 19.8594,340.8125 Q20.9531,340.1875 22.1875,340.1875 Q22.9219,340.1875 23.5625,340.3594 Q24.2188,340.5156 24.7656,340.875 Z " fill="#000000"/><text fill="#000000" font-family="sans-serif" font-size="14" lengthAdjust="spacing" textLength="162" x="36" y="350.7285">controllers.StartController</text><line style="stroke:#181818;stroke-width:0.5;" x1="8" x2="200" y1="361" y2="361"/><line style="stroke:#181818;stroke-width:0.5;" x1="8" x2="200" y1="369" y2="369"/></g><!--class PlayController--><g id="elem_PlayController"><rect codeLine="5" fill="#F1F1F1" height="48" id="PlayController" rx="2.5" ry="2.5" style="stroke:#181818;stroke-width:0.5;" width="191" x="236.5" y="329"/><ellipse cx="251.5" cy="345" fill="#ADD1B2" rx="11" ry="11" style="stroke:#181818;stroke-width:1.0;"/><path d="M254.2656,340.875 Q254.4219,340.6563 254.6094,340.5469 Q254.7969,340.4375 255.0156,340.4375 Q255.3906,340.4375 255.625,340.7031 Q255.8594,340.9531 255.8594,341.5625 L255.8594,343.0156 Q255.8594,343.625 255.625,343.8906 Q255.3906,344.1563 255.0156,344.1563 Q254.6719,344.1563 254.4688,343.9531 Q254.2656,343.7656 254.1563,343.25 Q254.1094,342.8906 253.9219,342.7031 Q253.5938,342.3281 252.9844,342.1094 Q252.375,341.8906 251.75,341.8906 Q250.9844,341.8906 250.3438,342.2188 Q249.7188,342.5469 249.2188,343.2969 Q248.7344,344.0469 248.7344,345.0781 L248.7344,346.1719 Q248.7344,347.4063 249.625,348.2344 Q250.5156,349.0469 252.1094,349.0469 Q253.0469,349.0469 253.7031,348.7969 Q254.0938,348.6406 254.5156,348.2031 Q254.7813,347.9375 254.9219,347.8594 Q255.0781,347.7813 255.2813,347.7813 Q255.6094,347.7813 255.8594,348.0469 Q256.125,348.2969 256.125,348.6406 Q256.125,348.9844 255.7813,349.3906 Q255.2813,349.9688 254.4844,350.2969 Q253.4063,350.75 252.1094,350.75 Q250.5938,350.75 249.3906,350.125 Q248.4063,349.625 247.7188,348.5625 Q247.0313,347.4844 247.0313,346.2031 L247.0313,345.0469 Q247.0313,343.7188 247.6406,342.5781 Q248.2656,341.4219 249.3594,340.8125 Q250.4531,340.1875 251.6875,340.1875 Q252.4219,340.1875 253.0625,340.3594 Q253.7188,340.5156 254.2656,340.875 Z " fill="#000000"/><text fill="#000000" font-family="sans-serif" font-size="14" lengthAdjust="spacing" textLength="159" x="265.5" y="350.7285">controllers.PlayController</text><line style="stroke:#181818;stroke-width:0.5;" x1="237.5" x2="426.5" y1="361" y2="361"/><line style="stroke:#181818;stroke-width:0.5;" x1="237.5" x2="426.5" y1="369" y2="369"/></g><!--class ResumeController--><g id="elem_ResumeController"><rect codeLine="6" fill="#F1F1F1" height="48" id="ResumeController" rx="2.5" ry="2.5" style="stroke:#181818;stroke-width:0.5;" width="216" x="463" y="329"/><ellipse cx="478" cy="345" fill="#ADD1B2" rx="11" ry="11" style="stroke:#181818;stroke-width:1.0;"/><path d="M480.7656,340.875 Q480.9219,340.6563 481.1094,340.5469 Q481.2969,340.4375 481.5156,340.4375 Q481.8906,340.4375 482.125,340.7031 Q482.3594,340.9531 482.3594,341.5625 L482.3594,343.0156 Q482.3594,343.625 482.125,343.8906 Q481.8906,344.1563 481.5156,344.1563 Q481.1719,344.1563 480.9688,343.9531 Q480.7656,343.7656 480.6563,343.25 Q480.6094,342.8906 480.4219,342.7031 Q480.0938,342.3281 479.4844,342.1094 Q478.875,341.8906 478.25,341.8906 Q477.4844,341.8906 476.8438,342.2188 Q476.2188,342.5469 475.7188,343.2969 Q475.2344,344.0469 475.2344,345.0781 L475.2344,346.1719 Q475.2344,347.4063 476.125,348.2344 Q477.0156,349.0469 478.6094,349.0469 Q479.5469,349.0469 480.2031,348.7969 Q480.5938,348.6406 481.0156,348.2031 Q481.2813,347.9375 481.4219,347.8594 Q481.5781,347.7813 481.7813,347.7813 Q482.1094,347.7813 482.3594,348.0469 Q482.625,348.2969 482.625,348.6406 Q482.625,348.9844 482.2813,349.3906 Q481.7813,349.9688 480.9844,350.2969 Q479.9063,350.75 478.6094,350.75 Q477.0938,350.75 475.8906,350.125 Q474.9063,349.625 474.2188,348.5625 Q473.5313,347.4844 473.5313,346.2031 L473.5313,345.0469 Q473.5313,343.7188 474.1406,342.5781 Q474.7656,341.4219 475.8594,340.8125 Q476.9531,340.1875 478.1875,340.1875 Q478.9219,340.1875 479.5625,340.3594 Q480.2188,340.5156 480.7656,340.875 Z " fill="#000000"/><text fill="#000000" font-family="sans-serif" font-size="14" lengthAdjust="spacing" textLength="184" x="492" y="350.7285">controllers.ResumeController</text><line style="stroke:#181818;stroke-width:0.5;" x1="464" x2="678" y1="361" y2="361"/><line style="stroke:#181818;stroke-width:0.5;" x1="464" x2="678" y1="369" y2="369"/></g><!--class ControllerVisitor--><g id="elem_ControllerVisitor"><rect codeLine="7" fill="#F1F1F1" height="100.8281" id="ControllerVisitor" rx="2.5" ry="2.5" style="stroke:#181818;stroke-width:0.5;" width="203" x="230.5" y="7"/><ellipse cx="245.5" cy="23" fill="#B4A7E5" rx="11" ry="11" style="stroke:#181818;stroke-width:1.0;"/><path d="M246.4531,19.6406 L246.4531,26.2969 L248.1719,26.2969 Q248.7813,26.2969 249.0469,26.5313 Q249.3125,26.7656 249.3125,27.1563 Q249.3125,27.5313 249.0469,27.7656 Q248.7813,28 248.1719,28 L243.0313,28 Q242.4219,28 242.1563,27.7656 Q241.8906,27.5313 241.8906,27.1406 Q241.8906,26.7656 242.1563,26.5313 Q242.4219,26.2969 243.0313,26.2969 L244.75,26.2969 L244.75,19.6406 L243.0313,19.6406 Q242.4219,19.6406 242.1563,19.4063 Q241.8906,19.1719 241.8906,18.7813 Q241.8906,18.4063 242.1563,18.1719 Q242.4219,17.9375 243.0313,17.9375 L248.1719,17.9375 Q248.7813,17.9375 249.0469,18.1719 Q249.3125,18.4063 249.3125,18.7813 Q249.3125,19.1719 249.0469,19.4063 Q248.7813,19.6406 248.1719,19.6406 L246.4531,19.6406 Z " fill="#000000"/><text fill="#000000" font-family="sans-serif" font-size="14" font-style="italic" lengthAdjust="spacing" textLength="171" x="259.5" y="28.7285">controllers.ControllerVisitor</text><line style="stroke:#181818;stroke-width:0.5;" x1="231.5" x2="432.5" y1="39" y2="39"/><line style="stroke:#181818;stroke-width:0.5;" x1="231.5" x2="432.5" y1="47" y2="47"/><ellipse cx="241.5" cy="61.3047" fill="#84BE84" rx="3" ry="3" style="stroke:#038048;stroke-width:1.0;"/><text fill="#000000" font-family="sans-serif" font-size="14" lengthAdjust="spacing" textLength="126" x="250.5" y="65.5332">visit(StartController)</text><ellipse cx="241.5" cy="78.9141" fill="#84BE84" rx="3" ry="3" style="stroke:#038048;stroke-width:1.0;"/><text fill="#000000" font-family="sans-serif" font-size="14" lengthAdjust="spacing" textLength="123" x="250.5" y="83.1426">visit(PlayController)</text><ellipse cx="241.5" cy="96.5234" fill="#84BE84" rx="3" ry="3" style="stroke:#038048;stroke-width:1.0;"/><text fill="#000000" font-family="sans-serif" font-size="14" lengthAdjust="spacing" textLength="148" x="250.5" y="100.752">visit(ResumeController)</text></g><!--link View to StartController--><g id="link_View_StartController"><path codeLine="17" d="M246.78,269.03 C211.49,289.53 177.4475,309.3151 149.0575,325.8151 " fill="none" id="View-to-StartController" style="stroke:#181818;stroke-width:1.0;stroke-dasharray:7.0,7.0;"/><polygon fill="#181818" points="143.87,328.83,153.6612,327.7659,148.1929,326.3176,149.6413,320.8493,143.87,328.83" style="stroke:#181818;stroke-width:1.0;"/></g><!--link View to PlayController--><g id="link_View_PlayController"><path codeLine="18" d="M332,269.22 C332,289.63 332,306.28 332,322.72 " fill="none" id="View-to-PlayController" style="stroke:#181818;stroke-width:1.0;stroke-dasharray:7.0,7.0;"/><polygon fill="#181818" points="332,328.72,336,319.72,332,323.72,328,319.72,332,328.72" style="stroke:#181818;stroke-width:1.0;"/></g><!--link View to ResumeController--><g id="link_View_ResumeController"><path codeLine="19" d="M421.33,269.03 C458.33,289.53 494.1921,309.4214 523.9621,325.9214 " fill="none" id="View-to-ResumeController" style="stroke:#181818;stroke-width:1.0;stroke-dasharray:7.0,7.0;"/><polygon fill="#181818" points="529.21,328.83,523.2773,320.9685,524.8368,326.4062,519.3991,327.9656,529.21,328.83" style="stroke:#181818;stroke-width:1.0;"/></g><!--reverse link ControllerVisitor to View--><g id="link_ControllerVisitor_View"><path codeLine="21" d="M332,126.37 C332,145.32 332,148.88 332,167.8 " fill="none" id="ControllerVisitor-backto-View" style="stroke:#181818;stroke-width:1.0;"/><polygon fill="none" points="332,108.37,326,126.37,338,126.37,332,108.37" style="stroke:#181818;stroke-width:1.0;"/></g><!--SRC=[VPB12i8m38RlUOhGasEi3o3YnHSGXTtBg52egpHr8kgxsqwtsbRMGo7vytyaQLNlf3s9JkAWv8ruws_ej232enFMxKplhD5QMXI4h9j3ufdElhQz5lS5LofFfeEawraksF821chkF6PRHSgPqbrKC7m0-bCF8LvberI_Mjfm8kLDLV0221l4DTOKc2LvaYyUMx0dqOxWF_nF1UVR_7MYa39ZFeS1b7lRF9i6noy0Rm00]--></g></svg>