<?xml version="1.0" encoding="us-ascii" standalone="no"?><svg xmlns="http://www.w3.org/2000/svg" xmlns:xlink="http://www.w3.org/1999/xlink" contentStyleType="text/css" height="397px" preserveAspectRatio="none" style="width:207px;height:397px;background:#FFFFFF;" version="1.1" viewBox="0 0 207 397" width="207px" zoomAndPan="magnify"><defs/><g><!--cluster views--><g id="cluster_views"><path d="M8.5,6 L50.5,6 A3.75,3.75 0 0 1 53,8.5 L60,29.6094 L163.5,29.6094 A2.5,2.5 0 0 1 166,32.1094 L166,282.5 A2.5,2.5 0 0 1 163.5,285 L8.5,285 A2.5,2.5 0 0 1 6,282.5 L6,8.5 A2.5,2.5 0 0 1 8.5,6 " fill="none" style="stroke:#000000;stroke-width:1.5;"/><line style="stroke:#000000;stroke-width:1.5;" x1="6" x2="60" y1="29.6094" y2="29.6094"/><text fill="#000000" font-family="sans-serif" font-size="14" font-weight="bold" lengthAdjust="spacing" textLength="41" x="10" y="22.5332">views</text></g><!--class WithGameView--><g id="elem_WithGameView"><rect codeLine="2" fill="#F1F1F1" height="65.6094" id="WithGameView" rx="2.5" ry="2.5" style="stroke:#181818;stroke-width:0.5;" width="128" x="22" y="42"/><ellipse cx="37" cy="58" fill="#A9DCDF" rx="11" ry="11" style="stroke:#181818;stroke-width:1.0;"/><path d="M39.1875,59.7656 L35.0469,59.7656 L34.625,60.7969 L35.0469,60.7969 Q35.6563,60.7969 35.9219,61.0313 Q36.1875,61.2656 36.1875,61.6563 Q36.1875,62.0313 35.9219,62.2656 Q35.6563,62.5 35.0469,62.5 L32.75,62.5 Q32.1406,62.5 31.8906,62.2656 Q31.625,62.0313 31.625,61.6406 Q31.625,61.2656 31.9063,61.0313 Q32.1719,60.7813 32.7969,60.7969 L35.4688,54.1406 L34.3594,54.1406 Q33.75,54.1406 33.4844,53.9063 Q33.2188,53.6719 33.2188,53.2813 Q33.2188,52.9063 33.4844,52.6719 Q33.75,52.4375 34.3594,52.4375 L38.0313,52.4375 L41.4219,60.7969 Q42.0156,60.7969 42.2031,60.9375 Q42.5938,61.2031 42.5938,61.6563 Q42.5938,62.0313 42.3281,62.2656 Q42.0781,62.5 41.4688,62.5 L39.1719,62.5 Q38.5625,62.5 38.2969,62.2656 Q38.0313,62.0313 38.0313,61.6406 Q38.0313,61.2656 38.2969,61.0313 Q38.5625,60.7969 39.1719,60.7969 L39.5938,60.7969 L39.1875,59.7656 Z M38.4688,58.0625 L37.1094,54.6875 L35.7344,58.0625 L38.4688,58.0625 Z " fill="#000000"/><text fill="#000000" font-family="sans-serif" font-size="14" font-style="italic" lengthAdjust="spacing" textLength="96" x="51" y="63.7285">WithGameView</text><line style="stroke:#181818;stroke-width:0.5;" x1="23" x2="149" y1="74" y2="74"/><polygon fill="none" points="33,83.3047,37,87.3047,33,91.3047,29,87.3047" style="stroke:#B38D22;stroke-width:1.0;"/><text fill="#000000" font-family="sans-serif" font-size="14" lengthAdjust="spacing" textLength="35" x="42" y="92.5332">game</text><line style="stroke:#181818;stroke-width:0.5;" x1="23" x2="149" y1="99.6094" y2="99.6094"/></g><!--class View--><g id="elem_View"><rect codeLine="3" fill="#F1F1F1" height="100.8281" id="View" rx="2.5" ry="2.5" style="stroke:#181818;stroke-width:0.5;" width="83" x="33.5" y="168"/><ellipse cx="58.4" cy="184" fill="#A9DCDF" rx="11" ry="11" style="stroke:#181818;stroke-width:1.0;"/><path d="M60.5875,185.7656 L56.4469,185.7656 L56.025,186.7969 L56.4469,186.7969 Q57.0563,186.7969 57.3219,187.0313 Q57.5875,187.2656 57.5875,187.6563 Q57.5875,188.0313 57.3219,188.2656 Q57.0563,188.5 56.4469,188.5 L54.15,188.5 Q53.5406,188.5 53.2906,188.2656 Q53.025,188.0313 53.025,187.6406 Q53.025,187.2656 53.3063,187.0313 Q53.5719,186.7813 54.1969,186.7969 L56.8688,180.1406 L55.7594,180.1406 Q55.15,180.1406 54.8844,179.9063 Q54.6188,179.6719 54.6188,179.2813 Q54.6188,178.9063 54.8844,178.6719 Q55.15,178.4375 55.7594,178.4375 L59.4313,178.4375 L62.8219,186.7969 Q63.4156,186.7969 63.6031,186.9375 Q63.9938,187.2031 63.9938,187.6563 Q63.9938,188.0313 63.7281,188.2656 Q63.4781,188.5 62.8688,188.5 L60.5719,188.5 Q59.9625,188.5 59.6969,188.2656 Q59.4313,188.0313 59.4313,187.6406 Q59.4313,187.2656 59.6969,187.0313 Q59.9625,186.7969 60.5719,186.7969 L60.9938,186.7969 L60.5875,185.7656 Z M59.8688,184.0625 L58.5094,180.6875 L57.1344,184.0625 L59.8688,184.0625 Z " fill="#000000"/><text fill="#000000" font-family="sans-serif" font-size="14" font-style="italic" lengthAdjust="spacing" textLength="29" x="74.6" y="189.7285">View</text><line style="stroke:#181818;stroke-width:0.5;" x1="34.5" x2="115.5" y1="200" y2="200"/><line style="stroke:#181818;stroke-width:0.5;" x1="34.5" x2="115.5" y1="208" y2="208"/><ellipse cx="44.5" cy="222.3047" fill="#84BE84" rx="3" ry="3" style="stroke:#038048;stroke-width:1.0;"/><text fill="#000000" font-family="sans-serif" font-size="14" font-style="italic" lengthAdjust="spacing" textLength="38" x="53.5" y="226.5332">start()</text><ellipse cx="44.5" cy="239.9141" fill="#84BE84" rx="3" ry="3" style="stroke:#038048;stroke-width:1.0;"/><text fill="#000000" font-family="sans-serif" font-size="14" font-style="italic" lengthAdjust="spacing" textLength="36" x="53.5" y="244.1426">play()</text><ellipse cx="44.5" cy="257.5234" fill="#84BE84" rx="3" ry="3" style="stroke:#038048;stroke-width:1.0;"/><text fill="#000000" font-family="sans-serif" font-size="14" font-style="italic" lengthAdjust="spacing" textLength="57" x="53.5" y="261.752">resume()</text></g><!--class Game--><g id="elem_Game"><rect codeLine="4" fill="#F1F1F1" height="61.2188" id="Game" rx="2.5" ry="2.5" style="stroke:#181818;stroke-width:0.5;" width="156" x="44" y="329"/><ellipse cx="59" cy="351.6094" fill="#ADD1B2" rx="11" ry="11" style="stroke:#181818;stroke-width:1.0;"/><path d="M61.7656,347.4844 Q61.9219,347.2656 62.1094,347.1563 Q62.2969,347.0469 62.5156,347.0469 Q62.8906,347.0469 63.125,347.3125 Q63.3594,347.5625 63.3594,348.1719 L63.3594,349.625 Q63.3594,350.2344 63.125,350.5 Q62.8906,350.7656 62.5156,350.7656 Q62.1719,350.7656 61.9688,350.5625 Q61.7656,350.375 61.6563,349.8594 Q61.6094,349.5 61.4219,349.3125 Q61.0938,348.9375 60.4844,348.7188 Q59.875,348.5 59.25,348.5 Q58.4844,348.5 57.8438,348.8281 Q57.2188,349.1563 56.7188,349.9063 Q56.2344,350.6563 56.2344,351.6875 L56.2344,352.7813 Q56.2344,354.0156 57.125,354.8438 Q58.0156,355.6563 59.6094,355.6563 Q60.5469,355.6563 61.2031,355.4063 Q61.5938,355.25 62.0156,354.8125 Q62.2813,354.5469 62.4219,354.4688 Q62.5781,354.3906 62.7813,354.3906 Q63.1094,354.3906 63.3594,354.6563 Q63.625,354.9063 63.625,355.25 Q63.625,355.5938 63.2813,356 Q62.7813,356.5781 61.9844,356.9063 Q60.9063,357.3594 59.6094,357.3594 Q58.0938,357.3594 56.8906,356.7344 Q55.9063,356.2344 55.2188,355.1719 Q54.5313,354.0938 54.5313,352.8125 L54.5313,351.6563 Q54.5313,350.3281 55.1406,349.1875 Q55.7656,348.0313 56.8594,347.4219 Q57.9531,346.7969 59.1875,346.7969 Q59.9219,346.7969 60.5625,346.9688 Q61.2188,347.125 61.7656,347.4844 Z " fill="#000000"/><text fill="#000000" font-family="sans-serif" font-size="14" lengthAdjust="spacing" textLength="124" x="73" y="348.5332">connect4.connect4.</text><text fill="#000000" font-family="sans-serif" font-size="14" lengthAdjust="spacing" textLength="87" x="91.5" y="366.1426">models.Game</text><line style="stroke:#181818;stroke-width:0.5;" x1="45" x2="199" y1="374.2188" y2="374.2188"/><line style="stroke:#181818;stroke-width:0.5;" x1="45" x2="199" y1="382.2188" y2="382.2188"/></g><!--reverse link WithGameView to View--><g id="link_WithGameView_View"><path codeLine="6" d="M82.1039,126.0558 C80.7339,143.6658 80.41,147.94 78.87,167.75 " fill="none" id="WithGameView-backto-View" style="stroke:#181818;stroke-width:1.0;"/><polygon fill="none" points="83.5,108.11,76.122,125.5904,88.0858,126.5211,83.5,108.11" style="stroke:#181818;stroke-width:1.0;"/></g><!--link WithGameView to Game--><g id="link_WithGameView_Game"><path codeLine="7" d="M107.64,108.11 C117.8,125.12 128.81,146.83 134,168 C147.65,223.68 138.625,285.2327 130.525,323.1027 " fill="none" id="WithGameView-to-Game" style="stroke:#181818;stroke-width:1.0;"/><polygon fill="#181818" points="129.27,328.97,135.064,321.0057,130.3158,324.0806,127.2409,319.3324,129.27,328.97" style="stroke:#181818;stroke-width:1.0;"/></g><!--link View to Game--><g id="link_View_Game"><path codeLine="8" d="M91.84,269.29 C98.58,289.23 104.2,305.8455 110.05,323.1655 " fill="none" id="View-to-Game" style="stroke:#181818;stroke-width:1.0;"/><polygon fill="#181818" points="111.97,328.85,112.8797,319.0432,110.37,324.1129,105.3003,321.6032,111.97,328.85" style="stroke:#181818;stroke-width:1.0;"/></g><!--SRC=[IqmgBYbAJ2vHICv9B2vMACjCBI_M2yyioN1Fp4qD0_Au4h6f0Cj0140A5HAB5PIIy_FoKfDBJFJWZ9YytFoKr9nYFP0Q9IukP7CLR6fqTHN0vg08w-hQWOtaGkMXQRPIK4w7Ax9Ig8OvibP1kxWaiQX4GnERL45EOYLscQBKujBSLA0S5m00]--></g></svg>