<?xml version="1.0" encoding="us-ascii" standalone="no"?><svg xmlns="http://www.w3.org/2000/svg" xmlns:xlink="http://www.w3.org/1999/xlink" contentStyleType="text/css" height="292px" preserveAspectRatio="none" style="width:321px;height:292px;background:#FFFFFF;" version="1.1" viewBox="0 0 321 292" width="321px" zoomAndPan="magnify"><defs/><g><!--cluster views--><g id="cluster_views"><path d="M8.5,6 L50.5,6 A3.75,3.75 0 0 1 53,8.5 L60,29.6094 L159.5,29.6094 A2.5,2.5 0 0 1 162,32.1094 L162,282.5 A2.5,2.5 0 0 1 159.5,285 L8.5,285 A2.5,2.5 0 0 1 6,282.5 L6,8.5 A2.5,2.5 0 0 1 8.5,6 " fill="none" style="stroke:#000000;stroke-width:1.5;"/><line style="stroke:#000000;stroke-width:1.5;" x1="6" x2="60" y1="29.6094" y2="29.6094"/><text fill="#000000" font-family="sans-serif" font-size="14" font-weight="bold" lengthAdjust="spacing" textLength="41" x="10" y="22.5332">views</text></g><!--class WithLogicView--><g id="elem_WithLogicView"><rect codeLine="2" fill="#F1F1F1" height="65.6094" id="WithLogicView" rx="2.5" ry="2.5" style="stroke:#181818;stroke-width:0.5;" width="124" x="22" y="42"/><ellipse cx="37" cy="58" fill="#A9DCDF" rx="11" ry="11" style="stroke:#181818;stroke-width:1.0;"/><path d="M39.1875,59.7656 L35.0469,59.7656 L34.625,60.7969 L35.0469,60.7969 Q35.6563,60.7969 35.9219,61.0313 Q36.1875,61.2656 36.1875,61.6563 Q36.1875,62.0313 35.9219,62.2656 Q35.6563,62.5 35.0469,62.5 L32.75,62.5 Q32.1406,62.5 31.8906,62.2656 Q31.625,62.0313 31.625,61.6406 Q31.625,61.2656 31.9063,61.0313 Q32.1719,60.7813 32.7969,60.7969 L35.4688,54.1406 L34.3594,54.1406 Q33.75,54.1406 33.4844,53.9063 Q33.2188,53.6719 33.2188,53.2813 Q33.2188,52.9063 33.4844,52.6719 Q33.75,52.4375 34.3594,52.4375 L38.0313,52.4375 L41.4219,60.7969 Q42.0156,60.7969 42.2031,60.9375 Q42.5938,61.2031 42.5938,61.6563 Q42.5938,62.0313 42.3281,62.2656 Q42.0781,62.5 41.4688,62.5 L39.1719,62.5 Q38.5625,62.5 38.2969,62.2656 Q38.0313,62.0313 38.0313,61.6406 Q38.0313,61.2656 38.2969,61.0313 Q38.5625,60.7969 39.1719,60.7969 L39.5938,60.7969 L39.1875,59.7656 Z M38.4688,58.0625 L37.1094,54.6875 L35.7344,58.0625 L38.4688,58.0625 Z " fill="#000000"/><text fill="#000000" font-family="sans-serif" font-size="14" font-style="italic" lengthAdjust="spacing" textLength="92" x="51" y="63.7285">WithLogicView</text><line style="stroke:#181818;stroke-width:0.5;" x1="23" x2="145" y1="74" y2="74"/><polygon fill="none" points="33,83.3047,37,87.3047,33,91.3047,29,87.3047" style="stroke:#B38D22;stroke-width:1.0;"/><text fill="#000000" font-family="sans-serif" font-size="14" lengthAdjust="spacing" textLength="29" x="42" y="92.5332">logic</text><line style="stroke:#181818;stroke-width:0.5;" x1="23" x2="145" y1="99.6094" y2="99.6094"/></g><!--class View--><g id="elem_View"><rect codeLine="3" fill="#F1F1F1" height="100.8281" id="View" rx="2.5" ry="2.5" style="stroke:#181818;stroke-width:0.5;" width="83" x="42.5" y="168"/><ellipse cx="67.4" cy="184" fill="#A9DCDF" rx="11" ry="11" style="stroke:#181818;stroke-width:1.0;"/><path d="M69.5875,185.7656 L65.4469,185.7656 L65.025,186.7969 L65.4469,186.7969 Q66.0563,186.7969 66.3219,187.0313 Q66.5875,187.2656 66.5875,187.6563 Q66.5875,188.0313 66.3219,188.2656 Q66.0563,188.5 65.4469,188.5 L63.15,188.5 Q62.5406,188.5 62.2906,188.2656 Q62.025,188.0313 62.025,187.6406 Q62.025,187.2656 62.3063,187.0313 Q62.5719,186.7813 63.1969,186.7969 L65.8688,180.1406 L64.7594,180.1406 Q64.15,180.1406 63.8844,179.9063 Q63.6188,179.6719 63.6188,179.2813 Q63.6188,178.9063 63.8844,178.6719 Q64.15,178.4375 64.7594,178.4375 L68.4313,178.4375 L71.8219,186.7969 Q72.4156,186.7969 72.6031,186.9375 Q72.9938,187.2031 72.9938,187.6563 Q72.9938,188.0313 72.7281,188.2656 Q72.4781,188.5 71.8688,188.5 L69.5719,188.5 Q68.9625,188.5 68.6969,188.2656 Q68.4313,188.0313 68.4313,187.6406 Q68.4313,187.2656 68.6969,187.0313 Q68.9625,186.7969 69.5719,186.7969 L69.9938,186.7969 L69.5875,185.7656 Z M68.8688,184.0625 L67.5094,180.6875 L66.1344,184.0625 L68.8688,184.0625 Z " fill="#000000"/><text fill="#000000" font-family="sans-serif" font-size="14" font-style="italic" lengthAdjust="spacing" textLength="29" x="83.6" y="189.7285">View</text><line style="stroke:#181818;stroke-width:0.5;" x1="43.5" x2="124.5" y1="200" y2="200"/><line style="stroke:#181818;stroke-width:0.5;" x1="43.5" x2="124.5" y1="208" y2="208"/><ellipse cx="53.5" cy="222.3047" fill="#84BE84" rx="3" ry="3" style="stroke:#038048;stroke-width:1.0;"/><text fill="#000000" font-family="sans-serif" font-size="14" font-style="italic" lengthAdjust="spacing" textLength="38" x="62.5" y="226.5332">start()</text><ellipse cx="53.5" cy="239.9141" fill="#84BE84" rx="3" ry="3" style="stroke:#038048;stroke-width:1.0;"/><text fill="#000000" font-family="sans-serif" font-size="14" font-style="italic" lengthAdjust="spacing" textLength="36" x="62.5" y="244.1426">play()</text><ellipse cx="53.5" cy="257.5234" fill="#84BE84" rx="3" ry="3" style="stroke:#038048;stroke-width:1.0;"/><text fill="#000000" font-family="sans-serif" font-size="14" font-style="italic" lengthAdjust="spacing" textLength="57" x="62.5" y="261.752">resume()</text></g><!--class Logic--><g id="elem_Logic"><rect codeLine="4" fill="#F1F1F1" height="48" id="Logic" rx="2.5" ry="2.5" style="stroke:#181818;stroke-width:0.5;" width="136" x="178" y="194.5"/><ellipse cx="193" cy="210.5" fill="#ADD1B2" rx="11" ry="11" style="stroke:#181818;stroke-width:1.0;"/><path d="M195.7656,206.375 Q195.9219,206.1563 196.1094,206.0469 Q196.2969,205.9375 196.5156,205.9375 Q196.8906,205.9375 197.125,206.2031 Q197.3594,206.4531 197.3594,207.0625 L197.3594,208.5156 Q197.3594,209.125 197.125,209.3906 Q196.8906,209.6563 196.5156,209.6563 Q196.1719,209.6563 195.9688,209.4531 Q195.7656,209.2656 195.6563,208.75 Q195.6094,208.3906 195.4219,208.2031 Q195.0938,207.8281 194.4844,207.6094 Q193.875,207.3906 193.25,207.3906 Q192.4844,207.3906 191.8438,207.7188 Q191.2188,208.0469 190.7188,208.7969 Q190.2344,209.5469 190.2344,210.5781 L190.2344,211.6719 Q190.2344,212.9063 191.125,213.7344 Q192.0156,214.5469 193.6094,214.5469 Q194.5469,214.5469 195.2031,214.2969 Q195.5938,214.1406 196.0156,213.7031 Q196.2813,213.4375 196.4219,213.3594 Q196.5781,213.2813 196.7813,213.2813 Q197.1094,213.2813 197.3594,213.5469 Q197.625,213.7969 197.625,214.1406 Q197.625,214.4844 197.2813,214.8906 Q196.7813,215.4688 195.9844,215.7969 Q194.9063,216.25 193.6094,216.25 Q192.0938,216.25 190.8906,215.625 Q189.9063,215.125 189.2188,214.0625 Q188.5313,212.9844 188.5313,211.7031 L188.5313,210.5469 Q188.5313,209.2188 189.1406,208.0781 Q189.7656,206.9219 190.8594,206.3125 Q191.9531,205.6875 193.1875,205.6875 Q193.9219,205.6875 194.5625,205.8594 Q195.2188,206.0156 195.7656,206.375 Z " fill="#000000"/><text fill="#000000" font-family="sans-serif" font-size="14" lengthAdjust="spacing" textLength="104" x="207" y="216.2285">controllers.Logic</text><line style="stroke:#181818;stroke-width:0.5;" x1="179" x2="313" y1="226.5" y2="226.5"/><line style="stroke:#181818;stroke-width:0.5;" x1="179" x2="313" y1="234.5" y2="234.5"/></g><!--link WithLogicView to Logic--><g id="link_WithLogicView_Logic"><path codeLine="6" d="M129.7987,116.0031 C159.8587,142.2531 188.0911,166.9129 214.9611,190.3829 " fill="none" id="WithLogicView-Logic" style="stroke:#181818;stroke-width:1.0;"/><polygon fill="#181818" points="120.76,108.11,122.6483,115.0695,129.7987,116.0031,127.9104,109.0436,120.76,108.11" style="stroke:#181818;stroke-width:1.0;"/><polygon fill="#181818" points="219.48,194.33,215.3331,185.3968,215.7143,191.0408,210.0703,191.422,219.48,194.33" style="stroke:#181818;stroke-width:1.0;"/></g><!--reverse link WithLogicView to View--><g id="link_WithLogicView_View"><path codeLine="7" d="M84,126.11 C84,143.72 84,147.94 84,167.75 " fill="none" id="WithLogicView-backto-View" style="stroke:#181818;stroke-width:1.0;"/><polygon fill="none" points="84,108.11,78,126.11,90,126.11,84,108.11" style="stroke:#181818;stroke-width:1.0;"/></g><!--SRC=[ROv12i9034NtEKMe6xLC3o3Y2LphEWw33aH7agWKzUwML1UMMVx_NZwXWvfGD8nCgdZFwQ7TFjjfMuuvxeO8L5ESZ8MRI8fDB1UJmfn4EsyRWByjN8Qm6GycOFqA0Nrq0bOuO_VX6v-_VzxOgf7OV553LwQ-JYJfxPm61Xy0]--></g></svg>