<?xml version="1.0" encoding="us-ascii" standalone="no"?><svg xmlns="http://www.w3.org/2000/svg" xmlns:xlink="http://www.w3.org/1999/xlink" contentStyleType="text/css" height="258px" preserveAspectRatio="none" style="width:686px;height:258px;background:#FFFFFF;" version="1.1" viewBox="0 0 686 258" width="686px" zoomAndPan="magnify"><defs/><g><!--cluster views--><g id="cluster_views"><path d="M219.5,6 L261.5,6 A3.75,3.75 0 0 1 264,8.5 L271,29.6094 L444.5,29.6094 A2.5,2.5 0 0 1 447,32.1094 L447,156.5 A2.5,2.5 0 0 1 444.5,159 L219.5,159 A2.5,2.5 0 0 1 217,156.5 L217,8.5 A2.5,2.5 0 0 1 219.5,6 " fill="none" style="stroke:#000000;stroke-width:1.5;"/><line style="stroke:#000000;stroke-width:1.5;" x1="217" x2="271" y1="29.6094" y2="29.6094"/><text fill="#000000" font-family="sans-serif" font-size="14" font-weight="bold" lengthAdjust="spacing" textLength="41" x="221" y="22.5332">views</text></g><!--class View--><g id="elem_View"><rect codeLine="3" fill="#F1F1F1" height="100.8281" id="View" rx="2.5" ry="2.5" style="stroke:#181818;stroke-width:0.5;" width="197" x="233.5" y="42"/><ellipse cx="313.25" cy="58" fill="#A9DCDF" rx="11" ry="11" style="stroke:#181818;stroke-width:1.0;"/><path d="M315.4375,59.7656 L311.2969,59.7656 L310.875,60.7969 L311.2969,60.7969 Q311.9063,60.7969 312.1719,61.0313 Q312.4375,61.2656 312.4375,61.6563 Q312.4375,62.0313 312.1719,62.2656 Q311.9063,62.5 311.2969,62.5 L309,62.5 Q308.3906,62.5 308.1406,62.2656 Q307.875,62.0313 307.875,61.6406 Q307.875,61.2656 308.1563,61.0313 Q308.4219,60.7813 309.0469,60.7969 L311.7188,54.1406 L310.6094,54.1406 Q310,54.1406 309.7344,53.9063 Q309.4688,53.6719 309.4688,53.2813 Q309.4688,52.9063 309.7344,52.6719 Q310,52.4375 310.6094,52.4375 L314.2813,52.4375 L317.6719,60.7969 Q318.2656,60.7969 318.4531,60.9375 Q318.8438,61.2031 318.8438,61.6563 Q318.8438,62.0313 318.5781,62.2656 Q318.3281,62.5 317.7188,62.5 L315.4219,62.5 Q314.8125,62.5 314.5469,62.2656 Q314.2813,62.0313 314.2813,61.6406 Q314.2813,61.2656 314.5469,61.0313 Q314.8125,60.7969 315.4219,60.7969 L315.8438,60.7969 L315.4375,59.7656 Z M314.7188,58.0625 L313.3594,54.6875 L311.9844,58.0625 L314.7188,58.0625 Z " fill="#000000"/><text fill="#000000" font-family="sans-serif" font-size="14" font-style="italic" lengthAdjust="spacing" textLength="29" x="333.75" y="63.7285">View</text><line style="stroke:#181818;stroke-width:0.5;" x1="234.5" x2="429.5" y1="74" y2="74"/><line style="stroke:#181818;stroke-width:0.5;" x1="234.5" x2="429.5" y1="82" y2="82"/><ellipse cx="244.5" cy="96.3047" fill="#84BE84" rx="3" ry="3" style="stroke:#038048;stroke-width:1.0;"/><text fill="#000000" font-family="sans-serif" font-size="14" font-style="italic" lengthAdjust="spacing" textLength="130" x="253.5" y="100.5332">start(StartController)</text><ellipse cx="244.5" cy="113.9141" fill="#84BE84" rx="3" ry="3" style="stroke:#038048;stroke-width:1.0;"/><text fill="#000000" font-family="sans-serif" font-size="14" font-style="italic" lengthAdjust="spacing" textLength="125" x="253.5" y="118.1426">play(PlayController)</text><ellipse cx="244.5" cy="131.5234" fill="#84BE84" rx="3" ry="3" style="stroke:#038048;stroke-width:1.0;"/><text fill="#000000" font-family="sans-serif" font-size="14" font-style="italic" lengthAdjust="spacing" textLength="171" x="253.5" y="135.752">resume(ResumeController)</text></g><!--class StartController--><g id="elem_StartController"><rect codeLine="4" fill="#F1F1F1" height="48" id="StartController" rx="2.5" ry="2.5" style="stroke:#181818;stroke-width:0.5;" width="194" x="7" y="203"/><ellipse cx="22" cy="219" fill="#ADD1B2" rx="11" ry="11" style="stroke:#181818;stroke-width:1.0;"/><path d="M24.7656,214.875 Q24.9219,214.6563 25.1094,214.5469 Q25.2969,214.4375 25.5156,214.4375 Q25.8906,214.4375 26.125,214.7031 Q26.3594,214.9531 26.3594,215.5625 L26.3594,217.0156 Q26.3594,217.625 26.125,217.8906 Q25.8906,218.1563 25.5156,218.1563 Q25.1719,218.1563 24.9688,217.9531 Q24.7656,217.7656 24.6563,217.25 Q24.6094,216.8906 24.4219,216.7031 Q24.0938,216.3281 23.4844,216.1094 Q22.875,215.8906 22.25,215.8906 Q21.4844,215.8906 20.8438,216.2188 Q20.2188,216.5469 19.7188,217.2969 Q19.2344,218.0469 19.2344,219.0781 L19.2344,220.1719 Q19.2344,221.4063 20.125,222.2344 Q21.0156,223.0469 22.6094,223.0469 Q23.5469,223.0469 24.2031,222.7969 Q24.5938,222.6406 25.0156,222.2031 Q25.2813,221.9375 25.4219,221.8594 Q25.5781,221.7813 25.7813,221.7813 Q26.1094,221.7813 26.3594,222.0469 Q26.625,222.2969 26.625,222.6406 Q26.625,222.9844 26.2813,223.3906 Q25.7813,223.9688 24.9844,224.2969 Q23.9063,224.75 22.6094,224.75 Q21.0938,224.75 19.8906,224.125 Q18.9063,223.625 18.2188,222.5625 Q17.5313,221.4844 17.5313,220.2031 L17.5313,219.0469 Q17.5313,217.7188 18.1406,216.5781 Q18.7656,215.4219 19.8594,214.8125 Q20.9531,214.1875 22.1875,214.1875 Q22.9219,214.1875 23.5625,214.3594 Q24.2188,214.5156 24.7656,214.875 Z " fill="#000000"/><text fill="#000000" font-family="sans-serif" font-size="14" lengthAdjust="spacing" textLength="162" x="36" y="224.7285">controllers.StartController</text><line style="stroke:#181818;stroke-width:0.5;" x1="8" x2="200" y1="235" y2="235"/><line style="stroke:#181818;stroke-width:0.5;" x1="8" x2="200" y1="243" y2="243"/></g><!--class PlayController--><g id="elem_PlayController"><rect codeLine="5" fill="#F1F1F1" height="48" id="PlayController" rx="2.5" ry="2.5" style="stroke:#181818;stroke-width:0.5;" width="191" x="236.5" y="203"/><ellipse cx="251.5" cy="219" fill="#ADD1B2" rx="11" ry="11" style="stroke:#181818;stroke-width:1.0;"/><path d="M254.2656,214.875 Q254.4219,214.6563 254.6094,214.5469 Q254.7969,214.4375 255.0156,214.4375 Q255.3906,214.4375 255.625,214.7031 Q255.8594,214.9531 255.8594,215.5625 L255.8594,217.0156 Q255.8594,217.625 255.625,217.8906 Q255.3906,218.1563 255.0156,218.1563 Q254.6719,218.1563 254.4688,217.9531 Q254.2656,217.7656 254.1563,217.25 Q254.1094,216.8906 253.9219,216.7031 Q253.5938,216.3281 252.9844,216.1094 Q252.375,215.8906 251.75,215.8906 Q250.9844,215.8906 250.3438,216.2188 Q249.7188,216.5469 249.2188,217.2969 Q248.7344,218.0469 248.7344,219.0781 L248.7344,220.1719 Q248.7344,221.4063 249.625,222.2344 Q250.5156,223.0469 252.1094,223.0469 Q253.0469,223.0469 253.7031,222.7969 Q254.0938,222.6406 254.5156,222.2031 Q254.7813,221.9375 254.9219,221.8594 Q255.0781,221.7813 255.2813,221.7813 Q255.6094,221.7813 255.8594,222.0469 Q256.125,222.2969 256.125,222.6406 Q256.125,222.9844 255.7813,223.3906 Q255.2813,223.9688 254.4844,224.2969 Q253.4063,224.75 252.1094,224.75 Q250.5938,224.75 249.3906,224.125 Q248.4063,223.625 247.7188,222.5625 Q247.0313,221.4844 247.0313,220.2031 L247.0313,219.0469 Q247.0313,217.7188 247.6406,216.5781 Q248.2656,215.4219 249.3594,214.8125 Q250.4531,214.1875 251.6875,214.1875 Q252.4219,214.1875 253.0625,214.3594 Q253.7188,214.5156 254.2656,214.875 Z " fill="#000000"/><text fill="#000000" font-family="sans-serif" font-size="14" lengthAdjust="spacing" textLength="159" x="265.5" y="224.7285">controllers.PlayController</text><line style="stroke:#181818;stroke-width:0.5;" x1="237.5" x2="426.5" y1="235" y2="235"/><line style="stroke:#181818;stroke-width:0.5;" x1="237.5" x2="426.5" y1="243" y2="243"/></g><!--class ResumeController--><g id="elem_ResumeController"><rect codeLine="6" fill="#F1F1F1" height="48" id="ResumeController" rx="2.5" ry="2.5" style="stroke:#181818;stroke-width:0.5;" width="216" x="463" y="203"/><ellipse cx="478" cy="219" fill="#ADD1B2" rx="11" ry="11" style="stroke:#181818;stroke-width:1.0;"/><path d="M480.7656,214.875 Q480.9219,214.6563 481.1094,214.5469 Q481.2969,214.4375 481.5156,214.4375 Q481.8906,214.4375 482.125,214.7031 Q482.3594,214.9531 482.3594,215.5625 L482.3594,217.0156 Q482.3594,217.625 482.125,217.8906 Q481.8906,218.1563 481.5156,218.1563 Q481.1719,218.1563 480.9688,217.9531 Q480.7656,217.7656 480.6563,217.25 Q480.6094,216.8906 480.4219,216.7031 Q480.0938,216.3281 479.4844,216.1094 Q478.875,215.8906 478.25,215.8906 Q477.4844,215.8906 476.8438,216.2188 Q476.2188,216.5469 475.7188,217.2969 Q475.2344,218.0469 475.2344,219.0781 L475.2344,220.1719 Q475.2344,221.4063 476.125,222.2344 Q477.0156,223.0469 478.6094,223.0469 Q479.5469,223.0469 480.2031,222.7969 Q480.5938,222.6406 481.0156,222.2031 Q481.2813,221.9375 481.4219,221.8594 Q481.5781,221.7813 481.7813,221.7813 Q482.1094,221.7813 482.3594,222.0469 Q482.625,222.2969 482.625,222.6406 Q482.625,222.9844 482.2813,223.3906 Q481.7813,223.9688 480.9844,224.2969 Q479.9063,224.75 478.6094,224.75 Q477.0938,224.75 475.8906,224.125 Q474.9063,223.625 474.2188,222.5625 Q473.5313,221.4844 473.5313,220.2031 L473.5313,219.0469 Q473.5313,217.7188 474.1406,216.5781 Q474.7656,215.4219 475.8594,214.8125 Q476.9531,214.1875 478.1875,214.1875 Q478.9219,214.1875 479.5625,214.3594 Q480.2188,214.5156 480.7656,214.875 Z " fill="#000000"/><text fill="#000000" font-family="sans-serif" font-size="14" lengthAdjust="spacing" textLength="184" x="492" y="224.7285">controllers.ResumeController</text><line style="stroke:#181818;stroke-width:0.5;" x1="464" x2="678" y1="235" y2="235"/><line style="stroke:#181818;stroke-width:0.5;" x1="464" x2="678" y1="243" y2="243"/></g><!--link View to StartController--><g id="link_View_StartController"><path codeLine="12" d="M246.78,143.03 C211.49,163.53 177.4475,183.3151 149.0575,199.8151 " fill="none" id="View-to-StartController" style="stroke:#181818;stroke-width:1.0;stroke-dasharray:7.0,7.0;"/><polygon fill="#181818" points="143.87,202.83,153.6612,201.7659,148.1929,200.3176,149.6413,194.8493,143.87,202.83" style="stroke:#181818;stroke-width:1.0;"/></g><!--link View to PlayController--><g id="link_View_PlayController"><path codeLine="13" d="M332,143.22 C332,163.63 332,180.28 332,196.72 " fill="none" id="View-to-PlayController" style="stroke:#181818;stroke-width:1.0;stroke-dasharray:7.0,7.0;"/><polygon fill="#181818" points="332,202.72,336,193.72,332,197.72,328,193.72,332,202.72" style="stroke:#181818;stroke-width:1.0;"/></g><!--link View to ResumeController--><g id="link_View_ResumeController"><path codeLine="14" d="M421.33,143.03 C458.33,163.53 494.1921,183.4214 523.9621,199.9214 " fill="none" id="View-to-ResumeController" style="stroke:#181818;stroke-width:1.0;stroke-dasharray:7.0,7.0;"/><polygon fill="#181818" points="529.21,202.83,523.2773,194.9685,524.8368,200.4062,519.3991,201.9656,529.21,202.83" style="stroke:#181818;stroke-width:1.0;"/></g><!--SRC=[IqmgBYbAJ2vHICv9B2vMACjCBI_M2mEIN121u9B4eXBd_BoIeloSdDGYXSHY1QLaEBTO3qrU2Qej82Un4eykL6cOfg3KujBSL3pQq1KeSN61dAfWfL2T2FL7hO9sCSX96cWEqyIciW3e30rKjs1LLmIsLmFTUasezNfwTkZXX910DHuXZcuO5nS0]--></g></svg>