<?xml version="1.0" encoding="us-ascii" standalone="no"?><svg xmlns="http://www.w3.org/2000/svg" xmlns:xlink="http://www.w3.org/1999/xlink" contentStyleType="text/css" height="1121px" preserveAspectRatio="none" style="width:1096px;height:1121px;background:#FFFFFF;" version="1.1" viewBox="0 0 1096 1121" width="1096px" zoomAndPan="magnify"><defs/><g><!--cluster utils--><g id="cluster_utils"><path d="M8.5,6 L39.5,6 A3.75,3.75 0 0 1 42,8.5 L49,29.6094 L1086.5,29.6094 A2.5,2.5 0 0 1 1089,32.1094 L1089,1111.5 A2.5,2.5 0 0 1 1086.5,1114 L8.5,1114 A2.5,2.5 0 0 1 6,1111.5 L6,8.5 A2.5,2.5 0 0 1 8.5,6 " fill="none" style="stroke:#000000;stroke-width:1.5;"/><line style="stroke:#000000;stroke-width:1.5;" x1="6" x2="49" y1="29.6094" y2="29.6094"/><text fill="#000000" font-family="sans-serif" font-size="14" font-weight="bold" lengthAdjust="spacing" textLength="30" x="10" y="22.5332">utils</text></g><!--cluster menu--><g id="cluster_menu"><path d="M508.5,50 L548.5,50 A3.75,3.75 0 0 1 551,52.5 L558,73.6094 L1062.5,73.6094 A2.5,2.5 0 0 1 1065,76.1094 L1065,1087.5 A2.5,2.5 0 0 1 1062.5,1090 L508.5,1090 A2.5,2.5 0 0 1 506,1087.5 L506,52.5 A2.5,2.5 0 0 1 508.5,50 " fill="none" style="stroke:#000000;stroke-width:1.5;"/><line style="stroke:#000000;stroke-width:1.5;" x1="506" x2="558" y1="73.6094" y2="73.6094"/><text fill="#000000" font-family="sans-serif" font-size="14" font-weight="bold" lengthAdjust="spacing" textLength="39" x="510" y="66.5332">menu</text></g><!--class Direction--><g id="elem_Direction"><rect codeLine="2" fill="#F1F1F1" height="276.9219" id="Direction" rx="2.5" ry="2.5" style="stroke:#181818;stroke-width:0.5;" width="213" x="22.5" y="86"/><ellipse cx="96.75" cy="102" fill="#EB937F" rx="11" ry="11" style="stroke:#181818;stroke-width:1.0;"/><path d="M95.6094,102.7969 L95.6094,105.2969 L99.9375,105.2969 L99.9375,104.375 Q99.9375,103.7656 100.1719,103.5 Q100.4219,103.2344 100.7969,103.2344 Q101.1719,103.2344 101.4063,103.5 Q101.6406,103.7656 101.6406,104.375 L101.6406,107 L93.6406,107 Q93.0156,107 92.75,106.7656 Q92.5,106.5313 92.5,106.1406 Q92.5,105.7656 92.7656,105.5313 Q93.0313,105.2969 93.6406,105.2969 L93.9063,105.2969 L93.9063,98.6406 L93.6406,98.6406 Q93.0156,98.6406 92.75,98.4063 Q92.5,98.1719 92.5,97.7813 Q92.5,97.4063 92.75,97.1719 Q93.0156,96.9375 93.6406,96.9375 L101.2656,96.9375 L101.2656,99.5313 Q101.2656,100.1406 101.0313,100.4063 Q100.8125,100.6563 100.4219,100.6563 Q100.0469,100.6563 99.8125,100.4063 Q99.5781,100.1406 99.5781,99.5313 L99.5781,98.6406 L95.6094,98.6406 L95.6094,101.0938 L97.0938,101.0938 Q97.0938,100.4375 97.2188,100.25 Q97.4844,99.8438 97.9531,99.8438 Q98.3281,99.8438 98.5625,100.1094 Q98.7969,100.3594 98.7969,100.9688 L98.7969,102.9375 Q98.7969,103.4844 98.6719,103.6719 Q98.4063,104.0625 97.9531,104.0625 Q97.4844,104.0625 97.2188,103.6563 Q97.0938,103.4688 97.0938,102.7969 L95.6094,102.7969 Z " fill="#000000"/><text fill="#000000" font-family="sans-serif" font-size="14" lengthAdjust="spacing" textLength="56" x="117.25" y="107.7285">Direction</text><line style="stroke:#181818;stroke-width:0.5;" x1="23.5" x2="234.5" y1="118" y2="118"/><ellipse cx="33.5" cy="132.3047" fill="none" rx="3" ry="3" style="stroke:#038048;stroke-width:1.0;"/><text fill="#000000" font-family="sans-serif" font-size="14" lengthAdjust="spacing" textLength="48" x="42.5" y="136.5332">NORTH</text><ellipse cx="33.5" cy="149.9141" fill="none" rx="3" ry="3" style="stroke:#038048;stroke-width:1.0;"/><text fill="#000000" font-family="sans-serif" font-size="14" lengthAdjust="spacing" textLength="92" x="42.5" y="154.1426">NORTH_EAST</text><ellipse cx="33.5" cy="167.5234" fill="none" rx="3" ry="3" style="stroke:#038048;stroke-width:1.0;"/><text fill="#000000" font-family="sans-serif" font-size="14" lengthAdjust="spacing" textLength="36" x="42.5" y="171.752">EAST</text><ellipse cx="33.5" cy="185.1328" fill="none" rx="3" ry="3" style="stroke:#038048;stroke-width:1.0;"/><text fill="#000000" font-family="sans-serif" font-size="14" lengthAdjust="spacing" textLength="91" x="42.5" y="189.3613">SOUTH_EAST</text><ellipse cx="33.5" cy="202.7422" fill="none" rx="3" ry="3" style="stroke:#038048;stroke-width:1.0;"/><text fill="#000000" font-family="sans-serif" font-size="14" lengthAdjust="spacing" textLength="47" x="42.5" y="206.9707">SOUTH</text><ellipse cx="33.5" cy="220.3516" fill="none" rx="3" ry="3" style="stroke:#038048;stroke-width:1.0;"/><text fill="#000000" font-family="sans-serif" font-size="14" lengthAdjust="spacing" textLength="95" x="42.5" y="224.5801">SOUTH_WEST</text><ellipse cx="33.5" cy="237.9609" fill="none" rx="3" ry="3" style="stroke:#038048;stroke-width:1.0;"/><text fill="#000000" font-family="sans-serif" font-size="14" lengthAdjust="spacing" textLength="40" x="42.5" y="242.1895">WEST</text><ellipse cx="33.5" cy="255.5703" fill="none" rx="3" ry="3" style="stroke:#038048;stroke-width:1.0;"/><text fill="#000000" font-family="sans-serif" font-size="14" lengthAdjust="spacing" textLength="96" x="42.5" y="259.7988">NORTH_WEST</text><rect fill="none" height="6" style="stroke:#C82930;stroke-width:1.0;" width="6" x="30.5" y="270.1797"/><text fill="#000000" font-family="sans-serif" font-size="14" lengthAdjust="spacing" textLength="145" x="42.5" y="277.4082">coordinate: Coordinate</text><line style="stroke:#181818;stroke-width:0.5;" x1="23.5" x2="234.5" y1="284.4844" y2="284.4844"/><ellipse cx="33.5" cy="298.7891" fill="#84BE84" rx="3" ry="3" style="stroke:#038048;stroke-width:1.0;"/><text fill="#000000" font-family="sans-serif" font-size="14" lengthAdjust="spacing" textLength="187" x="42.5" y="303.0176">Direction(row: int, column: int)</text><ellipse cx="33.5" cy="316.3984" fill="#84BE84" rx="3" ry="3" style="stroke:#038048;stroke-width:1.0;"/><text fill="#000000" font-family="sans-serif" font-size="14" lengthAdjust="spacing" textLength="151" x="42.5" y="320.627">getOpposite(): Direction</text><ellipse cx="33.5" cy="334.0078" fill="#84BE84" rx="3" ry="3" style="stroke:#038048;stroke-width:1.0;"/><text fill="#000000" font-family="sans-serif" font-size="14" lengthAdjust="spacing" textLength="183" x="42.5" y="338.2363">getCoordinate(): Coordenate</text><ellipse cx="33.5" cy="351.6172" fill="#84BE84" rx="3" ry="3" style="stroke:#038048;stroke-width:1.0;"/><text fill="#000000" font-family="sans-serif" font-size="14" lengthAdjust="spacing" text-decoration="underline" textLength="152" x="42.5" y="355.8457">halfValues(): Direction[ ]</text></g><!--class ClosedInterval--><g id="elem_ClosedInterval"><rect codeLine="3" fill="#F1F1F1" height="118.4375" id="ClosedInterval" rx="2.5" ry="2.5" style="stroke:#181818;stroke-width:0.5;" width="219" x="270.5" y="165.5"/><ellipse cx="330.75" cy="181.5" fill="#ADD1B2" rx="11" ry="11" style="stroke:#181818;stroke-width:1.0;"/><path d="M333.5156,177.375 Q333.6719,177.1563 333.8594,177.0469 Q334.0469,176.9375 334.2656,176.9375 Q334.6406,176.9375 334.875,177.2031 Q335.1094,177.4531 335.1094,178.0625 L335.1094,179.5156 Q335.1094,180.125 334.875,180.3906 Q334.6406,180.6563 334.2656,180.6563 Q333.9219,180.6563 333.7188,180.4531 Q333.5156,180.2656 333.4063,179.75 Q333.3594,179.3906 333.1719,179.2031 Q332.8438,178.8281 332.2344,178.6094 Q331.625,178.3906 331,178.3906 Q330.2344,178.3906 329.5938,178.7188 Q328.9688,179.0469 328.4688,179.7969 Q327.9844,180.5469 327.9844,181.5781 L327.9844,182.6719 Q327.9844,183.9063 328.875,184.7344 Q329.7656,185.5469 331.3594,185.5469 Q332.2969,185.5469 332.9531,185.2969 Q333.3438,185.1406 333.7656,184.7031 Q334.0313,184.4375 334.1719,184.3594 Q334.3281,184.2813 334.5313,184.2813 Q334.8594,184.2813 335.1094,184.5469 Q335.375,184.7969 335.375,185.1406 Q335.375,185.4844 335.0313,185.8906 Q334.5313,186.4688 333.7344,186.7969 Q332.6563,187.25 331.3594,187.25 Q329.8438,187.25 328.6406,186.625 Q327.6563,186.125 326.9688,185.0625 Q326.2813,183.9844 326.2813,182.7031 L326.2813,181.5469 Q326.2813,180.2188 326.8906,179.0781 Q327.5156,177.9219 328.6094,177.3125 Q329.7031,176.6875 330.9375,176.6875 Q331.6719,176.6875 332.3125,176.8594 Q332.9688,177.0156 333.5156,177.375 Z " fill="#000000"/><text fill="#000000" font-family="sans-serif" font-size="14" lengthAdjust="spacing" textLength="90" x="351.25" y="187.2285">ClosedInterval</text><line style="stroke:#181818;stroke-width:0.5;" x1="271.5" x2="488.5" y1="197.5" y2="197.5"/><rect fill="none" height="6" style="stroke:#C82930;stroke-width:1.0;" width="6" x="278.5" y="208.8047"/><text fill="#000000" font-family="sans-serif" font-size="14" lengthAdjust="spacing" textLength="45" x="290.5" y="216.0332">min: int</text><rect fill="none" height="6" style="stroke:#C82930;stroke-width:1.0;" width="6" x="278.5" y="226.4141"/><text fill="#000000" font-family="sans-serif" font-size="14" lengthAdjust="spacing" textLength="48" x="290.5" y="233.6426">max: int</text><line style="stroke:#181818;stroke-width:0.5;" x1="271.5" x2="488.5" y1="240.7188" y2="240.7188"/><ellipse cx="281.5" cy="255.0234" fill="#84BE84" rx="3" ry="3" style="stroke:#038048;stroke-width:1.0;"/><text fill="#000000" font-family="sans-serif" font-size="14" lengthAdjust="spacing" textLength="193" x="290.5" y="259.252">ClosedInterval(int min, int max)</text><ellipse cx="281.5" cy="272.6328" fill="#84BE84" rx="3" ry="3" style="stroke:#038048;stroke-width:1.0;"/><text fill="#000000" font-family="sans-serif" font-size="14" lengthAdjust="spacing" textLength="147" x="290.5" y="276.8613">isIncluded(int): boolean</text></g><!--class Coordinate--><g id="elem_Coordinate"><rect codeLine="4" fill="#F1F1F1" height="329.75" id="Coordinate" rx="2.5" ry="2.5" style="stroke:#181818;stroke-width:0.5;" width="229" x="22.5" y="423"/><ellipse cx="97.75" cy="439" fill="#ADD1B2" rx="11" ry="11" style="stroke:#181818;stroke-width:1.0;"/><path d="M100.5156,434.875 Q100.6719,434.6563 100.8594,434.5469 Q101.0469,434.4375 101.2656,434.4375 Q101.6406,434.4375 101.875,434.7031 Q102.1094,434.9531 102.1094,435.5625 L102.1094,437.0156 Q102.1094,437.625 101.875,437.8906 Q101.6406,438.1563 101.2656,438.1563 Q100.9219,438.1563 100.7188,437.9531 Q100.5156,437.7656 100.4063,437.25 Q100.3594,436.8906 100.1719,436.7031 Q99.8438,436.3281 99.2344,436.1094 Q98.625,435.8906 98,435.8906 Q97.2344,435.8906 96.5938,436.2188 Q95.9688,436.5469 95.4688,437.2969 Q94.9844,438.0469 94.9844,439.0781 L94.9844,440.1719 Q94.9844,441.4063 95.875,442.2344 Q96.7656,443.0469 98.3594,443.0469 Q99.2969,443.0469 99.9531,442.7969 Q100.3438,442.6406 100.7656,442.2031 Q101.0313,441.9375 101.1719,441.8594 Q101.3281,441.7813 101.5313,441.7813 Q101.8594,441.7813 102.1094,442.0469 Q102.375,442.2969 102.375,442.6406 Q102.375,442.9844 102.0313,443.3906 Q101.5313,443.9688 100.7344,444.2969 Q99.6563,444.75 98.3594,444.75 Q96.8438,444.75 95.6406,444.125 Q94.6563,443.625 93.9688,442.5625 Q93.2813,441.4844 93.2813,440.2031 L93.2813,439.0469 Q93.2813,437.7188 93.8906,436.5781 Q94.5156,435.4219 95.6094,434.8125 Q96.7031,434.1875 97.9375,434.1875 Q98.6719,434.1875 99.3125,434.3594 Q99.9688,434.5156 100.5156,434.875 Z " fill="#000000"/><text fill="#000000" font-family="sans-serif" font-size="14" lengthAdjust="spacing" textLength="70" x="118.25" y="444.7285">Coordinate</text><line style="stroke:#181818;stroke-width:0.5;" x1="23.5" x2="250.5" y1="455" y2="455"/><ellipse cx="33.5" cy="469.3047" fill="none" rx="3" ry="3" style="stroke:#038048;stroke-width:1.0;"/><text fill="#000000" font-family="sans-serif" font-size="14" lengthAdjust="spacing" text-decoration="underline" textLength="125" x="42.5" y="473.5332">ORIGIN: Coordinate</text><ellipse cx="33.5" cy="486.9141" fill="none" rx="3" ry="3" style="stroke:#038048;stroke-width:1.0;"/><text fill="#000000" font-family="sans-serif" font-size="14" lengthAdjust="spacing" text-decoration="underline" textLength="131" x="42.5" y="491.1426">NUMBER_ROWS: int</text><rect fill="none" height="6" style="stroke:#C82930;stroke-width:1.0;" width="6" x="30.5" y="501.5234"/><text fill="#000000" font-family="sans-serif" font-size="14" lengthAdjust="spacing" text-decoration="underline" textLength="141" x="42.5" y="508.752">ROWS: ClosedInterval</text><ellipse cx="33.5" cy="522.1328" fill="none" rx="3" ry="3" style="stroke:#038048;stroke-width:1.0;"/><text fill="#000000" font-family="sans-serif" font-size="14" lengthAdjust="spacing" text-decoration="underline" textLength="155" x="42.5" y="526.3613">NUMBER_COLUMNS: int</text><rect fill="none" height="6" style="stroke:#C82930;stroke-width:1.0;" width="6" x="30.5" y="536.7422"/><text fill="#000000" font-family="sans-serif" font-size="14" lengthAdjust="spacing" text-decoration="underline" textLength="165" x="42.5" y="543.9707">COLUMNS: ClosedInterval</text><rect fill="none" height="6" style="stroke:#C82930;stroke-width:1.0;" width="6" x="30.5" y="554.3516"/><text fill="#000000" font-family="sans-serif" font-size="14" lengthAdjust="spacing" textLength="45" x="42.5" y="561.5801">row: int</text><rect fill="none" height="6" style="stroke:#C82930;stroke-width:1.0;" width="6" x="30.5" y="571.9609"/><text fill="#000000" font-family="sans-serif" font-size="14" lengthAdjust="spacing" textLength="68" x="42.5" y="579.1895">column: int</text><line style="stroke:#181818;stroke-width:0.5;" x1="23.5" x2="250.5" y1="586.2656" y2="586.2656"/><ellipse cx="33.5" cy="600.5703" fill="#84BE84" rx="3" ry="3" style="stroke:#038048;stroke-width:1.0;"/><text fill="#000000" font-family="sans-serif" font-size="14" lengthAdjust="spacing" textLength="201" x="42.5" y="604.7988">Coordinate(row: int, column: int)</text><ellipse cx="33.5" cy="618.1797" fill="#84BE84" rx="3" ry="3" style="stroke:#038048;stroke-width:1.0;"/><text fill="#000000" font-family="sans-serif" font-size="14" lengthAdjust="spacing" textLength="197" x="42.5" y="622.4082">shifted(coordinate): Coordinate</text><ellipse cx="33.5" cy="635.7891" fill="#84BE84" rx="3" ry="3" style="stroke:#038048;stroke-width:1.0;"/><text fill="#000000" font-family="sans-serif" font-size="14" lengthAdjust="spacing" textLength="110" x="42.5" y="640.0176">isValid(): boolean</text><ellipse cx="33.5" cy="653.3984" fill="#84BE84" rx="3" ry="3" style="stroke:#038048;stroke-width:1.0;"/><text fill="#000000" font-family="sans-serif" font-size="14" lengthAdjust="spacing" text-decoration="underline" textLength="203" x="42.5" y="657.627">isColumnValid(column): boolean</text><rect fill="#F24D5C" height="6" style="stroke:#C82930;stroke-width:1.0;" width="6" x="30.5" y="668.0078"/><text fill="#000000" font-family="sans-serif" font-size="14" lengthAdjust="spacing" text-decoration="underline" textLength="159" x="42.5" y="675.2363">isRowValid(row): boolean</text><ellipse cx="33.5" cy="688.6172" fill="#84BE84" rx="3" ry="3" style="stroke:#038048;stroke-width:1.0;"/><text fill="#000000" font-family="sans-serif" font-size="14" lengthAdjust="spacing" textLength="80" x="42.5" y="692.8457">getRow(): int</text><ellipse cx="33.5" cy="706.2266" fill="#84BE84" rx="3" ry="3" style="stroke:#038048;stroke-width:1.0;"/><text fill="#000000" font-family="sans-serif" font-size="14" lengthAdjust="spacing" textLength="101" x="42.5" y="710.4551">getColumn(): int</text><ellipse cx="33.5" cy="723.8359" fill="#84BE84" rx="3" ry="3" style="stroke:#038048;stroke-width:1.0;"/><text fill="#000000" font-family="sans-serif" font-size="14" lengthAdjust="spacing" textLength="178" x="42.5" y="728.0645">equals(coordinate): boolean</text><ellipse cx="33.5" cy="741.4453" fill="#84BE84" rx="3" ry="3" style="stroke:#038048;stroke-width:1.0;"/><text fill="#000000" font-family="sans-serif" font-size="14" lengthAdjust="spacing" textLength="118" x="42.5" y="745.6738">toString(): boolean</text></g><!--class Console--><g id="elem_Console"><rect codeLine="5" fill="#F1F1F1" height="48" id="Console" rx="2.5" ry="2.5" style="stroke:#181818;stroke-width:0.5;" width="84" x="287" y="564"/><ellipse cx="302" cy="580" fill="#ADD1B2" rx="11" ry="11" style="stroke:#181818;stroke-width:1.0;"/><path d="M304.7656,575.875 Q304.9219,575.6563 305.1094,575.5469 Q305.2969,575.4375 305.5156,575.4375 Q305.8906,575.4375 306.125,575.7031 Q306.3594,575.9531 306.3594,576.5625 L306.3594,578.0156 Q306.3594,578.625 306.125,578.8906 Q305.8906,579.1563 305.5156,579.1563 Q305.1719,579.1563 304.9688,578.9531 Q304.7656,578.7656 304.6563,578.25 Q304.6094,577.8906 304.4219,577.7031 Q304.0938,577.3281 303.4844,577.1094 Q302.875,576.8906 302.25,576.8906 Q301.4844,576.8906 300.8438,577.2188 Q300.2188,577.5469 299.7188,578.2969 Q299.2344,579.0469 299.2344,580.0781 L299.2344,581.1719 Q299.2344,582.4063 300.125,583.2344 Q301.0156,584.0469 302.6094,584.0469 Q303.5469,584.0469 304.2031,583.7969 Q304.5938,583.6406 305.0156,583.2031 Q305.2813,582.9375 305.4219,582.8594 Q305.5781,582.7813 305.7813,582.7813 Q306.1094,582.7813 306.3594,583.0469 Q306.625,583.2969 306.625,583.6406 Q306.625,583.9844 306.2813,584.3906 Q305.7813,584.9688 304.9844,585.2969 Q303.9063,585.75 302.6094,585.75 Q301.0938,585.75 299.8906,585.125 Q298.9063,584.625 298.2188,583.5625 Q297.5313,582.4844 297.5313,581.2031 L297.5313,580.0469 Q297.5313,578.7188 298.1406,577.5781 Q298.7656,576.4219 299.8594,575.8125 Q300.9531,575.1875 302.1875,575.1875 Q302.9219,575.1875 303.5625,575.3594 Q304.2188,575.5156 304.7656,575.875 Z " fill="#000000"/><text fill="#000000" font-family="sans-serif" font-size="14" lengthAdjust="spacing" textLength="52" x="316" y="585.7285">Console</text><line style="stroke:#181818;stroke-width:0.5;" x1="288" x2="370" y1="596" y2="596"/><line style="stroke:#181818;stroke-width:0.5;" x1="288" x2="370" y1="604" y2="604"/></g><!--class Option--><g id="elem_Option"><rect codeLine="7" fill="#F1F1F1" height="136.0469" id="Option" rx="2.5" ry="2.5" style="stroke:#181818;stroke-width:0.5;" width="128" x="522" y="520"/><ellipse cx="561.3" cy="536" fill="#A9DCDF" rx="11" ry="11" style="stroke:#181818;stroke-width:1.0;"/><path d="M563.4875,537.7656 L559.3469,537.7656 L558.925,538.7969 L559.3469,538.7969 Q559.9563,538.7969 560.2219,539.0313 Q560.4875,539.2656 560.4875,539.6563 Q560.4875,540.0313 560.2219,540.2656 Q559.9563,540.5 559.3469,540.5 L557.05,540.5 Q556.4406,540.5 556.1906,540.2656 Q555.925,540.0313 555.925,539.6406 Q555.925,539.2656 556.2063,539.0313 Q556.4719,538.7813 557.0969,538.7969 L559.7688,532.1406 L558.6594,532.1406 Q558.05,532.1406 557.7844,531.9063 Q557.5188,531.6719 557.5188,531.2813 Q557.5188,530.9063 557.7844,530.6719 Q558.05,530.4375 558.6594,530.4375 L562.3313,530.4375 L565.7219,538.7969 Q566.3156,538.7969 566.5031,538.9375 Q566.8938,539.2031 566.8938,539.6563 Q566.8938,540.0313 566.6281,540.2656 Q566.3781,540.5 565.7688,540.5 L563.4719,540.5 Q562.8625,540.5 562.5969,540.2656 Q562.3313,540.0313 562.3313,539.6406 Q562.3313,539.2656 562.5969,539.0313 Q562.8625,538.7969 563.4719,538.7969 L563.8938,538.7969 L563.4875,537.7656 Z M562.7688,536.0625 L561.4094,532.6875 L560.0344,536.0625 L562.7688,536.0625 Z " fill="#000000"/><text fill="#000000" font-family="sans-serif" font-size="14" font-style="italic" lengthAdjust="spacing" textLength="42" x="580.7" y="541.7285">Option</text><line style="stroke:#181818;stroke-width:0.5;" x1="523" x2="649" y1="552" y2="552"/><polygon fill="none" points="533,561.3047,537,565.3047,533,569.3047,529,565.3047" style="stroke:#B38D22;stroke-width:1.0;"/><text fill="#000000" font-family="sans-serif" font-size="14" lengthAdjust="spacing" textLength="22" x="542" y="570.5332">title</text><line style="stroke:#181818;stroke-width:0.5;" x1="523" x2="649" y1="577.6094" y2="577.6094"/><text fill="#000000" font-family="sans-serif" font-size="14" lengthAdjust="spacing" textLength="74" x="542" y="596.1426">Option(title)</text><ellipse cx="533" cy="609.5234" fill="#84BE84" rx="3" ry="3" style="stroke:#038048;stroke-width:1.0;"/><text fill="#000000" font-family="sans-serif" font-size="14" font-style="italic" lengthAdjust="spacing" textLength="57" x="542" y="613.752">interact()</text><polygon fill="#FFFF44" points="533,622.1328,537,626.1328,533,630.1328,529,626.1328" style="stroke:#B38D22;stroke-width:1.0;"/><text fill="#000000" font-family="sans-serif" font-size="14" lengthAdjust="spacing" textLength="102" x="542" y="631.3613">showTitle(index)</text><polygon fill="#FFFF44" points="533,639.7422,537,643.7422,533,647.7422,529,643.7422" style="stroke:#B38D22;stroke-width:1.0;"/><text fill="#000000" font-family="sans-serif" font-size="14" lengthAdjust="spacing" textLength="57" x="542" y="648.9707">getTitle()</text></g><!--class DynamicMenu--><g id="elem_DynamicMenu"><rect codeLine="8" fill="#F1F1F1" height="83.2188" id="DynamicMenu" rx="2.5" ry="2.5" style="stroke:#181818;stroke-width:0.5;" width="147" x="696.5" y="991"/><ellipse cx="722.75" cy="1007" fill="#A9DCDF" rx="11" ry="11" style="stroke:#181818;stroke-width:1.0;"/><path d="M724.9375,1008.7656 L720.7969,1008.7656 L720.375,1009.7969 L720.7969,1009.7969 Q721.4063,1009.7969 721.6719,1010.0313 Q721.9375,1010.2656 721.9375,1010.6563 Q721.9375,1011.0313 721.6719,1011.2656 Q721.4063,1011.5 720.7969,1011.5 L718.5,1011.5 Q717.8906,1011.5 717.6406,1011.2656 Q717.375,1011.0313 717.375,1010.6406 Q717.375,1010.2656 717.6563,1010.0313 Q717.9219,1009.7813 718.5469,1009.7969 L721.2188,1003.1406 L720.1094,1003.1406 Q719.5,1003.1406 719.2344,1002.9063 Q718.9688,1002.6719 718.9688,1002.2813 Q718.9688,1001.9063 719.2344,1001.6719 Q719.5,1001.4375 720.1094,1001.4375 L723.7813,1001.4375 L727.1719,1009.7969 Q727.7656,1009.7969 727.9531,1009.9375 Q728.3438,1010.2031 728.3438,1010.6563 Q728.3438,1011.0313 728.0781,1011.2656 Q727.8281,1011.5 727.2188,1011.5 L724.9219,1011.5 Q724.3125,1011.5 724.0469,1011.2656 Q723.7813,1011.0313 723.7813,1010.6406 Q723.7813,1010.2656 724.0469,1010.0313 Q724.3125,1009.7969 724.9219,1009.7969 L725.3438,1009.7969 L724.9375,1008.7656 Z M724.2188,1007.0625 L722.8594,1003.6875 L721.4844,1007.0625 L724.2188,1007.0625 Z " fill="#000000"/><text fill="#000000" font-family="sans-serif" font-size="14" font-style="italic" lengthAdjust="spacing" textLength="90" x="739.25" y="1012.7285">DynamicMenu</text><line style="stroke:#181818;stroke-width:0.5;" x1="697.5" x2="842.5" y1="1023" y2="1023"/><line style="stroke:#181818;stroke-width:0.5;" x1="697.5" x2="842.5" y1="1031" y2="1031"/><ellipse cx="707.5" cy="1045.3047" fill="#84BE84" rx="3" ry="3" style="stroke:#038048;stroke-width:1.0;"/><text fill="#000000" font-family="sans-serif" font-size="14" lengthAdjust="spacing" textLength="121" x="716.5" y="1049.5332">DynamicMenu(title)</text><ellipse cx="707.5" cy="1062.9141" fill="#84BE84" rx="3" ry="3" style="stroke:#038048;stroke-width:1.0;"/><text fill="#000000" font-family="sans-serif" font-size="14" lengthAdjust="spacing" textLength="57" x="716.5" y="1067.1426">interact()</text></g><!--class IterativeMenu--><g id="elem_IterativeMenu"><rect codeLine="9" fill="#F1F1F1" height="83.2188" id="IterativeMenu" rx="2.5" ry="2.5" style="stroke:#181818;stroke-width:0.5;" width="143" x="698.5" y="830.5"/><ellipse cx="724.75" cy="846.5" fill="#A9DCDF" rx="11" ry="11" style="stroke:#181818;stroke-width:1.0;"/><path d="M726.9375,848.2656 L722.7969,848.2656 L722.375,849.2969 L722.7969,849.2969 Q723.4063,849.2969 723.6719,849.5313 Q723.9375,849.7656 723.9375,850.1563 Q723.9375,850.5313 723.6719,850.7656 Q723.4063,851 722.7969,851 L720.5,851 Q719.8906,851 719.6406,850.7656 Q719.375,850.5313 719.375,850.1406 Q719.375,849.7656 719.6563,849.5313 Q719.9219,849.2813 720.5469,849.2969 L723.2188,842.6406 L722.1094,842.6406 Q721.5,842.6406 721.2344,842.4063 Q720.9688,842.1719 720.9688,841.7813 Q720.9688,841.4063 721.2344,841.1719 Q721.5,840.9375 722.1094,840.9375 L725.7813,840.9375 L729.1719,849.2969 Q729.7656,849.2969 729.9531,849.4375 Q730.3438,849.7031 730.3438,850.1563 Q730.3438,850.5313 730.0781,850.7656 Q729.8281,851 729.2188,851 L726.9219,851 Q726.3125,851 726.0469,850.7656 Q725.7813,850.5313 725.7813,850.1406 Q725.7813,849.7656 726.0469,849.5313 Q726.3125,849.2969 726.9219,849.2969 L727.3438,849.2969 L726.9375,848.2656 Z M726.2188,846.5625 L724.8594,843.1875 L723.4844,846.5625 L726.2188,846.5625 Z " fill="#000000"/><text fill="#000000" font-family="sans-serif" font-size="14" font-style="italic" lengthAdjust="spacing" textLength="86" x="741.25" y="852.2285">IterativeMenu</text><line style="stroke:#181818;stroke-width:0.5;" x1="699.5" x2="840.5" y1="862.5" y2="862.5"/><line style="stroke:#181818;stroke-width:0.5;" x1="699.5" x2="840.5" y1="870.5" y2="870.5"/><ellipse cx="709.5" cy="884.8047" fill="#84BE84" rx="3" ry="3" style="stroke:#038048;stroke-width:1.0;"/><text fill="#000000" font-family="sans-serif" font-size="14" lengthAdjust="spacing" textLength="117" x="718.5" y="889.0332">IterativeMenu(title)</text><ellipse cx="709.5" cy="902.4141" fill="#84BE84" rx="3" ry="3" style="stroke:#038048;stroke-width:1.0;"/><text fill="#000000" font-family="sans-serif" font-size="14" lengthAdjust="spacing" textLength="57" x="718.5" y="906.6426">interact()</text></g><!--class Menu--><g id="elem_Menu"><rect codeLine="10" fill="#F1F1F1" height="276.9219" id="Menu" rx="2.5" ry="2.5" style="stroke:#181818;stroke-width:0.5;" width="164" x="688" y="86"/><ellipse cx="747.75" cy="102" fill="#A9DCDF" rx="11" ry="11" style="stroke:#181818;stroke-width:1.0;"/><path d="M749.9375,103.7656 L745.7969,103.7656 L745.375,104.7969 L745.7969,104.7969 Q746.4063,104.7969 746.6719,105.0313 Q746.9375,105.2656 746.9375,105.6563 Q746.9375,106.0313 746.6719,106.2656 Q746.4063,106.5 745.7969,106.5 L743.5,106.5 Q742.8906,106.5 742.6406,106.2656 Q742.375,106.0313 742.375,105.6406 Q742.375,105.2656 742.6563,105.0313 Q742.9219,104.7813 743.5469,104.7969 L746.2188,98.1406 L745.1094,98.1406 Q744.5,98.1406 744.2344,97.9063 Q743.9688,97.6719 743.9688,97.2813 Q743.9688,96.9063 744.2344,96.6719 Q744.5,96.4375 745.1094,96.4375 L748.7813,96.4375 L752.1719,104.7969 Q752.7656,104.7969 752.9531,104.9375 Q753.3438,105.2031 753.3438,105.6563 Q753.3438,106.0313 753.0781,106.2656 Q752.8281,106.5 752.2188,106.5 L749.9219,106.5 Q749.3125,106.5 749.0469,106.2656 Q748.7813,106.0313 748.7813,105.6406 Q748.7813,105.2656 749.0469,105.0313 Q749.3125,104.7969 749.9219,104.7969 L750.3438,104.7969 L749.9375,103.7656 Z M749.2188,102.0625 L747.8594,98.6875 L746.4844,102.0625 L749.2188,102.0625 Z " fill="#000000"/><text fill="#000000" font-family="sans-serif" font-size="14" font-style="italic" lengthAdjust="spacing" textLength="36" x="768.25" y="107.7285">Menu</text><line style="stroke:#181818;stroke-width:0.5;" x1="689" x2="851" y1="118" y2="118"/><rect fill="none" height="6" style="stroke:#C82930;stroke-width:1.0;" width="6" x="696" y="129.3047"/><text fill="#000000" font-family="sans-serif" font-size="14" lengthAdjust="spacing" textLength="22" x="708" y="136.5332">title</text><rect fill="none" height="6" style="stroke:#C82930;stroke-width:1.0;" width="6" x="696" y="146.9141"/><text fill="#000000" font-family="sans-serif" font-size="14" lengthAdjust="spacing" textLength="46" x="708" y="154.1426">options</text><rect fill="none" height="6" style="stroke:#C82930;stroke-width:1.0;" width="6" x="696" y="164.5234"/><text fill="#000000" font-family="sans-serif" font-size="14" lengthAdjust="spacing" textLength="28" x="708" y="171.752">MAX</text><line style="stroke:#181818;stroke-width:0.5;" x1="689" x2="851" y1="178.8281" y2="178.8281"/><ellipse cx="699" cy="193.1328" fill="#84BE84" rx="3" ry="3" style="stroke:#038048;stroke-width:1.0;"/><text fill="#000000" font-family="sans-serif" font-size="14" lengthAdjust="spacing" textLength="67" x="708" y="197.3613">Menu(title)</text><ellipse cx="699" cy="210.7422" fill="#84BE84" rx="3" ry="3" style="stroke:#038048;stroke-width:1.0;"/><text fill="#000000" font-family="sans-serif" font-size="14" lengthAdjust="spacing" textLength="57" x="708" y="214.9707">interact()</text><polygon fill="#FFFF44" points="699,223.3516,703,227.3516,699,231.3516,695,227.3516" style="stroke:#B38D22;stroke-width:1.0;"/><text fill="#000000" font-family="sans-serif" font-size="14" font-style="italic" lengthAdjust="spacing" textLength="83" x="708" y="232.5801">addOptions()</text><polygon fill="#FFFF44" points="699,240.9609,703,244.9609,699,248.9609,695,244.9609" style="stroke:#B38D22;stroke-width:1.0;"/><text fill="#000000" font-family="sans-serif" font-size="14" lengthAdjust="spacing" textLength="65" x="708" y="250.1895">interact_()</text><polygon fill="#FFFF44" points="699,258.5703,703,262.5703,699,266.5703,695,262.5703" style="stroke:#B38D22;stroke-width:1.0;"/><text fill="#000000" font-family="sans-serif" font-size="14" lengthAdjust="spacing" textLength="76" x="708" y="267.7988">showTitles()</text><rect fill="#F24D5C" height="6" style="stroke:#C82930;stroke-width:1.0;" width="6" x="696" y="278.1797"/><text fill="#000000" font-family="sans-serif" font-size="14" lengthAdjust="spacing" textLength="69" x="708" y="285.4082">showTitle()</text><polygon fill="#FFFF44" points="699,293.7891,703,297.7891,699,301.7891,695,297.7891" style="stroke:#B38D22;stroke-width:1.0;"/><text fill="#000000" font-family="sans-serif" font-size="14" lengthAdjust="spacing" textLength="138" x="708" y="303.0176">execChoosedOption()</text><polygon fill="#FFFF44" points="699,311.3984,703,315.3984,699,319.3984,695,315.3984" style="stroke:#B38D22;stroke-width:1.0;"/><text fill="#000000" font-family="sans-serif" font-size="14" lengthAdjust="spacing" textLength="73" x="708" y="320.627">add(option)</text><polygon fill="#FFFF44" points="699,329.0078,703,333.0078,699,337.0078,695,333.0078" style="stroke:#B38D22;stroke-width:1.0;"/><text fill="#000000" font-family="sans-serif" font-size="14" lengthAdjust="spacing" textLength="106" x="708" y="338.2363">removeOptions()</text><polygon fill="#FFFF44" points="699,346.6172,703,350.6172,699,354.6172,695,350.6172" style="stroke:#B38D22;stroke-width:1.0;"/><text fill="#000000" font-family="sans-serif" font-size="14" lengthAdjust="spacing" textLength="114" x="708" y="355.8457">hasOption(option)</text></g><!--class QuitMenu--><g id="elem_QuitMenu"><rect codeLine="11" fill="#F1F1F1" height="118.4375" id="QuitMenu" rx="2.5" ry="2.5" style="stroke:#181818;stroke-width:0.5;" width="169" x="685.5" y="529"/><ellipse cx="734.75" cy="545" fill="#A9DCDF" rx="11" ry="11" style="stroke:#181818;stroke-width:1.0;"/><path d="M736.9375,546.7656 L732.7969,546.7656 L732.375,547.7969 L732.7969,547.7969 Q733.4063,547.7969 733.6719,548.0313 Q733.9375,548.2656 733.9375,548.6563 Q733.9375,549.0313 733.6719,549.2656 Q733.4063,549.5 732.7969,549.5 L730.5,549.5 Q729.8906,549.5 729.6406,549.2656 Q729.375,549.0313 729.375,548.6406 Q729.375,548.2656 729.6563,548.0313 Q729.9219,547.7813 730.5469,547.7969 L733.2188,541.1406 L732.1094,541.1406 Q731.5,541.1406 731.2344,540.9063 Q730.9688,540.6719 730.9688,540.2813 Q730.9688,539.9063 731.2344,539.6719 Q731.5,539.4375 732.1094,539.4375 L735.7813,539.4375 L739.1719,547.7969 Q739.7656,547.7969 739.9531,547.9375 Q740.3438,548.2031 740.3438,548.6563 Q740.3438,549.0313 740.0781,549.2656 Q739.8281,549.5 739.2188,549.5 L736.9219,549.5 Q736.3125,549.5 736.0469,549.2656 Q735.7813,549.0313 735.7813,548.6406 Q735.7813,548.2656 736.0469,548.0313 Q736.3125,547.7969 736.9219,547.7969 L737.3438,547.7969 L736.9375,546.7656 Z M736.2188,545.0625 L734.8594,541.6875 L733.4844,545.0625 L736.2188,545.0625 Z " fill="#000000"/><text fill="#000000" font-family="sans-serif" font-size="14" font-style="italic" lengthAdjust="spacing" textLength="62" x="755.25" y="550.7285">QuitMenu</text><line style="stroke:#181818;stroke-width:0.5;" x1="686.5" x2="853.5" y1="561" y2="561"/><polygon fill="none" points="696.5,570.3047,700.5,574.3047,696.5,578.3047,692.5,574.3047" style="stroke:#B38D22;stroke-width:1.0;"/><text fill="#000000" font-family="sans-serif" font-size="14" lengthAdjust="spacing" textLength="69" x="705.5" y="579.5332">quitOption;</text><line style="stroke:#181818;stroke-width:0.5;" x1="686.5" x2="853.5" y1="586.6094" y2="586.6094"/><ellipse cx="696.5" cy="600.9141" fill="#84BE84" rx="3" ry="3" style="stroke:#038048;stroke-width:1.0;"/><text fill="#000000" font-family="sans-serif" font-size="14" lengthAdjust="spacing" textLength="93" x="705.5" y="605.1426">QuitMenu(title)</text><polygon fill="#FFFF44" points="696.5,613.5234,700.5,617.5234,696.5,621.5234,692.5,617.5234" style="stroke:#B38D22;stroke-width:1.0;"/><text fill="#000000" font-family="sans-serif" font-size="14" lengthAdjust="spacing" textLength="76" x="705.5" y="622.752">showTitles()</text><polygon fill="#FFFF44" points="696.5,631.1328,700.5,635.1328,696.5,639.1328,692.5,635.1328" style="stroke:#B38D22;stroke-width:1.0;"/><text fill="#000000" font-family="sans-serif" font-size="14" lengthAdjust="spacing" textLength="143" x="705.5" y="640.3613">isExecutedquitOption()</text></g><!--class SecuentialMenu--><g id="elem_SecuentialMenu"><rect codeLine="12" fill="#F1F1F1" height="83.2188" id="SecuentialMenu" rx="2.5" ry="2.5" style="stroke:#181818;stroke-width:0.5;" width="159" x="889.5" y="546.5"/><ellipse cx="915.75" cy="562.5" fill="#A9DCDF" rx="11" ry="11" style="stroke:#181818;stroke-width:1.0;"/><path d="M917.9375,564.2656 L913.7969,564.2656 L913.375,565.2969 L913.7969,565.2969 Q914.4063,565.2969 914.6719,565.5313 Q914.9375,565.7656 914.9375,566.1563 Q914.9375,566.5313 914.6719,566.7656 Q914.4063,567 913.7969,567 L911.5,567 Q910.8906,567 910.6406,566.7656 Q910.375,566.5313 910.375,566.1406 Q910.375,565.7656 910.6563,565.5313 Q910.9219,565.2813 911.5469,565.2969 L914.2188,558.6406 L913.1094,558.6406 Q912.5,558.6406 912.2344,558.4063 Q911.9688,558.1719 911.9688,557.7813 Q911.9688,557.4063 912.2344,557.1719 Q912.5,556.9375 913.1094,556.9375 L916.7813,556.9375 L920.1719,565.2969 Q920.7656,565.2969 920.9531,565.4375 Q921.3438,565.7031 921.3438,566.1563 Q921.3438,566.5313 921.0781,566.7656 Q920.8281,567 920.2188,567 L917.9219,567 Q917.3125,567 917.0469,566.7656 Q916.7813,566.5313 916.7813,566.1406 Q916.7813,565.7656 917.0469,565.5313 Q917.3125,565.2969 917.9219,565.2969 L918.3438,565.2969 L917.9375,564.2656 Z M917.2188,562.5625 L915.8594,559.1875 L914.4844,562.5625 L917.2188,562.5625 Z " fill="#000000"/><text fill="#000000" font-family="sans-serif" font-size="14" font-style="italic" lengthAdjust="spacing" textLength="102" x="932.25" y="568.2285">SecuentialMenu</text><line style="stroke:#181818;stroke-width:0.5;" x1="890.5" x2="1047.5" y1="578.5" y2="578.5"/><line style="stroke:#181818;stroke-width:0.5;" x1="890.5" x2="1047.5" y1="586.5" y2="586.5"/><ellipse cx="900.5" cy="600.8047" fill="#84BE84" rx="3" ry="3" style="stroke:#038048;stroke-width:1.0;"/><text fill="#000000" font-family="sans-serif" font-size="14" lengthAdjust="spacing" textLength="133" x="909.5" y="605.0332">SecuentialMenu(title)</text><polygon fill="#FFFF44" points="900.5,613.4141,904.5,617.4141,900.5,621.4141,896.5,617.4141" style="stroke:#B38D22;stroke-width:1.0;"/><text fill="#000000" font-family="sans-serif" font-size="14" lengthAdjust="spacing" textLength="65" x="909.5" y="622.6426">interact_()</text></g><!--class QuitOption--><g id="elem_QuitOption"><rect codeLine="13" fill="#F1F1F1" height="118.4375" id="QuitOption" rx="2.5" ry="2.5" style="stroke:#181818;stroke-width:0.5;" width="104" x="546" y="813"/><ellipse cx="562.8" cy="829" fill="#ADD1B2" rx="11" ry="11" style="stroke:#181818;stroke-width:1.0;"/><path d="M565.5656,824.875 Q565.7219,824.6563 565.9094,824.5469 Q566.0969,824.4375 566.3156,824.4375 Q566.6906,824.4375 566.925,824.7031 Q567.1594,824.9531 567.1594,825.5625 L567.1594,827.0156 Q567.1594,827.625 566.925,827.8906 Q566.6906,828.1563 566.3156,828.1563 Q565.9719,828.1563 565.7688,827.9531 Q565.5656,827.7656 565.4563,827.25 Q565.4094,826.8906 565.2219,826.7031 Q564.8938,826.3281 564.2844,826.1094 Q563.675,825.8906 563.05,825.8906 Q562.2844,825.8906 561.6438,826.2188 Q561.0188,826.5469 560.5188,827.2969 Q560.0344,828.0469 560.0344,829.0781 L560.0344,830.1719 Q560.0344,831.4063 560.925,832.2344 Q561.8156,833.0469 563.4094,833.0469 Q564.3469,833.0469 565.0031,832.7969 Q565.3938,832.6406 565.8156,832.2031 Q566.0813,831.9375 566.2219,831.8594 Q566.3781,831.7813 566.5813,831.7813 Q566.9094,831.7813 567.1594,832.0469 Q567.425,832.2969 567.425,832.6406 Q567.425,832.9844 567.0813,833.3906 Q566.5813,833.9688 565.7844,834.2969 Q564.7063,834.75 563.4094,834.75 Q561.8938,834.75 560.6906,834.125 Q559.7063,833.625 559.0188,832.5625 Q558.3313,831.4844 558.3313,830.2031 L558.3313,829.0469 Q558.3313,827.7188 558.9406,826.5781 Q559.5656,825.4219 560.6594,824.8125 Q561.7531,824.1875 562.9875,824.1875 Q563.7219,824.1875 564.3625,824.3594 Q565.0188,824.5156 565.5656,824.875 Z " fill="#000000"/><text fill="#000000" font-family="sans-serif" font-size="14" lengthAdjust="spacing" textLength="68" x="577.2" y="834.7285">QuitOption</text><line style="stroke:#181818;stroke-width:0.5;" x1="547" x2="649" y1="845" y2="845"/><rect fill="none" height="6" style="stroke:#C82930;stroke-width:1.0;" width="6" x="554" y="856.3047"/><text fill="#000000" font-family="sans-serif" font-size="14" lengthAdjust="spacing" textLength="57" x="566" y="863.5332">executed</text><line style="stroke:#181818;stroke-width:0.5;" x1="547" x2="649" y1="870.6094" y2="870.6094"/><ellipse cx="557" cy="884.9141" fill="#84BE84" rx="3" ry="3" style="stroke:#038048;stroke-width:1.0;"/><text fill="#000000" font-family="sans-serif" font-size="14" lengthAdjust="spacing" textLength="78" x="566" y="889.1426">QuitOption()</text><ellipse cx="557" cy="902.5234" fill="#84BE84" rx="3" ry="3" style="stroke:#038048;stroke-width:1.0;"/><text fill="#000000" font-family="sans-serif" font-size="14" lengthAdjust="spacing" textLength="57" x="566" y="906.752">interact()</text><polygon fill="#FFFF44" points="557,915.1328,561,919.1328,557,923.1328,553,919.1328" style="stroke:#B38D22;stroke-width:1.0;"/><text fill="#000000" font-family="sans-serif" font-size="14" lengthAdjust="spacing" textLength="78" x="566" y="924.3613">isExecuted()</text></g><!--reverse link Menu to SecuentialMenu--><g id="link_Menu_SecuentialMenu"><path codeLine="15" d="M854.4816,378.968 C890.5116,444.408 922.26,502.09 946.66,546.42 " fill="none" id="Menu-backto-SecuentialMenu" style="stroke:#181818;stroke-width:1.0;"/><polygon fill="none" points="845.8,363.2,849.2256,381.8619,859.7376,376.0742,845.8,363.2" style="stroke:#181818;stroke-width:1.0;"/></g><!--reverse link Menu to QuitMenu--><g id="link_Menu_QuitMenu"><path codeLine="16" d="M770,381.2 C770,438.66 770,484.29 770,528.97 " fill="none" id="Menu-backto-QuitMenu" style="stroke:#181818;stroke-width:1.0;"/><polygon fill="none" points="770,363.2,764,381.2,776,381.2,770,363.2" style="stroke:#181818;stroke-width:1.0;"/></g><!--reverse link Menu to Option--><g id="link_Menu_Option"><path codeLine="17" d="M693.0823,373.9117 C682.7823,393.9417 677.83,403.65 668,423 C651.85,454.78 634.13,490.15 619.32,519.87 " fill="none" id="Menu-backto-Option" style="stroke:#181818;stroke-width:1.0;"/><polygon fill="#181818" points="698.57,363.24,692.2689,366.7466,693.0823,373.9117,699.3834,370.4051,698.57,363.24" style="stroke:#181818;stroke-width:1.0;"/></g><!--reverse link IterativeMenu to DynamicMenu--><g id="link_IterativeMenu_DynamicMenu"><path codeLine="18" d="M770,931.82 C770,955.48 770,967.18 770,990.82 " fill="none" id="IterativeMenu-backto-DynamicMenu" style="stroke:#181818;stroke-width:1.0;"/><polygon fill="none" points="770,913.82,764,931.82,776,931.82,770,913.82" style="stroke:#181818;stroke-width:1.0;"/></g><!--reverse link QuitMenu to IterativeMenu--><g id="link_QuitMenu_IterativeMenu"><path codeLine="19" d="M770,665.09 C770,719.75 770,782.19 770,830.3 " fill="none" id="QuitMenu-backto-IterativeMenu" style="stroke:#181818;stroke-width:1.0;"/><polygon fill="none" points="770,647.09,764,665.09,776,665.09,770,647.09" style="stroke:#181818;stroke-width:1.0;"/></g><!--reverse link Option to QuitOption--><g id="link_Option_QuitOption"><path codeLine="20" d="M589.6249,674.1737 C591.6549,721.9037 593.59,767.37 595.53,812.92 " fill="none" id="Option-backto-QuitOption" style="stroke:#181818;stroke-width:1.0;"/><polygon fill="none" points="588.86,656.19,583.6303,674.4287,595.6194,673.9188,588.86,656.19" style="stroke:#181818;stroke-width:1.0;"/></g><!--reverse link QuitMenu to QuitOption--><g id="link_QuitMenu_QuitOption"><path codeLine="21" d="M728.3214,657.3348 C698.7214,705.8648 662.97,764.48 633.38,812.99 " fill="none" id="QuitMenu-backto-QuitOption" style="stroke:#181818;stroke-width:1.0;"/><polygon fill="#181818" points="734.57,647.09,728.0308,650.1295,728.3214,657.3348,734.8606,654.2952,734.57,647.09" style="stroke:#181818;stroke-width:1.0;"/></g><!--SRC=[XLNPZjem57tFLrZY1IQJ-G3Qboc3MgH2L9PEfQf2diGpM0esn0vGJUVVwoNUii1Jx7FElTTtYOr8jGSLnmLxUC8boZYc9CeAo5YDJWhAK3uZ79KdM8GKfMME2UIe0HD62nH5y8Nn4cOS-EmUaUeXFQWu_OAdlmJkSJONwokgcJWKvFY4RkXkq3ygp6z8LYYh4E4O5ahOwQ9EAf8AyFbVae26bIDiH0NT2QGs3Z82MkpNmXXg9inVkt01QfVMv2x4ZNuC1XnpqI-xrukXGaSEVZVb-G0nblCWbaEF7x0TFQ-bqH2J75rywWrnpOoYo9r1C0cwY29nb8Tmx7R29AHSR10o0yocjJSPHoKj8kZip8ugDRFx-UCliuxbrwHjC2_J6lBgC81vhiCpnm-CoTR3R6qyOU8AveIo7fCTbJ-TpTzm8jfGdzzX9ThJ4seVOWTPRMyit2G8-cWBzyd7OxCsPV1jWXnymjNzwBUjCSt2Um3K8K1RvjKyygPVKjxMsZSaldNu1qesHAoFbZ3eOcJlHkbYaIxNtpgWxVHnjGxnDh9ADvrAXNT9dwTDQHlHuLjuajaRUWoyspgmjPjXISzZ8DA-1najgZrHcr6e5ZzoUZXGXhaOsZ5mRqPJvS99dTgXTl1tnaNdiuyTB5v_mgAIe-Lv_Gt-H97p97- -sW34wNBsTRO8ykfHBZRpBzFbTfa-hrHAFRf42neFtdMVa_JxPhwuxjPghdbEJF4RiDU9a8cz0lSqBjIp7NwLDwERYL5_yMBCH3jmBhlnGiLh3abV9J2RgA1Qhmzmqoh1R4dFsaISlayl1qdev2dQ1L139gDrq-XOmOA5wNO7uNJ5IqpU_6IZi5co5Nji-j2cuAM7YaD4l8mS24VtG2sWU2JR9fZDI5PKkMYMxACxr7y0]--></g></svg>