<?xml version="1.0" encoding="us-ascii" standalone="no"?><svg xmlns="http://www.w3.org/2000/svg" xmlns:xlink="http://www.w3.org/1999/xlink" contentStyleType="text/css" height="485px" preserveAspectRatio="none" style="width:550px;height:485px;background:#FFFFFF;" version="1.1" viewBox="0 0 550 485" width="550px" zoomAndPan="magnify"><defs/><g><!--cluster connect4--><g id="cluster_connect4"><path d="M8.5,6 L74.5,6 A3.75,3.75 0 0 1 77,8.5 L84,29.6094 L370.5,29.6094 A2.5,2.5 0 0 1 373,32.1094 L373,373.5 A2.5,2.5 0 0 1 370.5,376 L8.5,376 A2.5,2.5 0 0 1 6,373.5 L6,8.5 A2.5,2.5 0 0 1 8.5,6 " fill="none" style="stroke:#000000;stroke-width:1.5;"/><line style="stroke:#000000;stroke-width:1.5;" x1="6" x2="84" y1="29.6094" y2="29.6094"/><text fill="#000000" font-family="sans-serif" font-size="14" font-weight="bold" lengthAdjust="spacing" textLength="65" x="10" y="22.5332">connect4</text></g><!--class Connect4--><g id="elem_Connect4"><rect codeLine="2" fill="#F1F1F1" height="129.1406" id="Connect4" rx="2.5" ry="2.5" style="stroke:#181818;stroke-width:0.5;" width="180" x="177" y="42"/><ellipse cx="232.25" cy="63.3516" fill="#A9DCDF" rx="11" ry="11" style="stroke:#181818;stroke-width:1.0;"/><path d="M234.4375,65.1172 L230.2969,65.1172 L229.875,66.1484 L230.2969,66.1484 Q230.9063,66.1484 231.1719,66.3828 Q231.4375,66.6172 231.4375,67.0078 Q231.4375,67.3828 231.1719,67.6172 Q230.9063,67.8516 230.2969,67.8516 L228,67.8516 Q227.3906,67.8516 227.1406,67.6172 Q226.875,67.3828 226.875,66.9922 Q226.875,66.6172 227.1563,66.3828 Q227.4219,66.1328 228.0469,66.1484 L230.7188,59.4922 L229.6094,59.4922 Q229,59.4922 228.7344,59.2578 Q228.4688,59.0234 228.4688,58.6328 Q228.4688,58.2578 228.7344,58.0234 Q229,57.7891 229.6094,57.7891 L233.2813,57.7891 L236.6719,66.1484 Q237.2656,66.1484 237.4531,66.2891 Q237.8438,66.5547 237.8438,67.0078 Q237.8438,67.3828 237.5781,67.6172 Q237.3281,67.8516 236.7188,67.8516 L234.4219,67.8516 Q233.8125,67.8516 233.5469,67.6172 Q233.2813,67.3828 233.2813,66.9922 Q233.2813,66.6172 233.5469,66.3828 Q233.8125,66.1484 234.4219,66.1484 L234.8438,66.1484 L234.4375,65.1172 Z M233.7188,63.4141 L232.3594,60.0391 L230.9844,63.4141 L233.7188,63.4141 Z " fill="#000000"/><text fill="#000000" font-family="sans-serif" font-size="12" font-style="italic" lengthAdjust="spacing" textLength="55" x="255.75" y="59.457">&#171;Creator&#187;</text><text fill="#000000" font-family="sans-serif" font-size="14" font-style="italic" lengthAdjust="spacing" textLength="61" x="252.75" y="76.627">Connect4</text><line style="stroke:#181818;stroke-width:0.5;" x1="178" x2="356" y1="84.7031" y2="84.7031"/><line style="stroke:#181818;stroke-width:0.5;" x1="178" x2="356" y1="92.7031" y2="92.7031"/><polygon fill="#FFFF44" points="188,102.0078,192,106.0078,188,110.0078,184,106.0078" style="stroke:#B38D22;stroke-width:1.0;"/><text fill="#000000" font-family="sans-serif" font-size="14" lengthAdjust="spacing" textLength="71" x="197" y="111.2363">Connect4()</text><polygon fill="#FFFF44" points="188,119.6172,192,123.6172,188,127.6172,184,123.6172" style="stroke:#B38D22;stroke-width:1.0;"/><text fill="#000000" font-family="sans-serif" font-size="14" font-style="italic" lengthAdjust="spacing" textLength="154" x="197" y="128.8457">createView(Game): View</text><polygon fill="#FFFF44" points="188,137.2266,192,141.2266,188,145.2266,184,141.2266" style="stroke:#B38D22;stroke-width:1.0;"/><text fill="#000000" font-family="sans-serif" font-size="14" font-style="italic" lengthAdjust="spacing" textLength="82" x="197" y="146.4551">PlayGames()</text><polygon fill="#FFFF44" points="188,154.8359,192,158.8359,188,162.8359,184,158.8359" style="stroke:#B38D22;stroke-width:1.0;"/><text fill="#000000" font-family="sans-serif" font-size="14" lengthAdjust="spacing" textLength="96" x="197" y="164.0645">getView(): View</text></g><!--class ConsoleConnect4--><g id="elem_ConsoleConnect4"><rect codeLine="3" fill="#F1F1F1" height="58.7031" id="ConsoleConnect4" rx="2.5" ry="2.5" style="stroke:#181818;stroke-width:0.5;" width="145" x="22.5" y="266"/><ellipse cx="37.5" cy="287.3516" fill="#ADD1B2" rx="11" ry="11" style="stroke:#181818;stroke-width:1.0;"/><path d="M40.2656,283.2266 Q40.4219,283.0078 40.6094,282.8984 Q40.7969,282.7891 41.0156,282.7891 Q41.3906,282.7891 41.625,283.0547 Q41.8594,283.3047 41.8594,283.9141 L41.8594,285.3672 Q41.8594,285.9766 41.625,286.2422 Q41.3906,286.5078 41.0156,286.5078 Q40.6719,286.5078 40.4688,286.3047 Q40.2656,286.1172 40.1563,285.6016 Q40.1094,285.2422 39.9219,285.0547 Q39.5938,284.6797 38.9844,284.4609 Q38.375,284.2422 37.75,284.2422 Q36.9844,284.2422 36.3438,284.5703 Q35.7188,284.8984 35.2188,285.6484 Q34.7344,286.3984 34.7344,287.4297 L34.7344,288.5234 Q34.7344,289.7578 35.625,290.5859 Q36.5156,291.3984 38.1094,291.3984 Q39.0469,291.3984 39.7031,291.1484 Q40.0938,290.9922 40.5156,290.5547 Q40.7813,290.2891 40.9219,290.2109 Q41.0781,290.1328 41.2813,290.1328 Q41.6094,290.1328 41.8594,290.3984 Q42.125,290.6484 42.125,290.9922 Q42.125,291.3359 41.7813,291.7422 Q41.2813,292.3203 40.4844,292.6484 Q39.4063,293.1016 38.1094,293.1016 Q36.5938,293.1016 35.3906,292.4766 Q34.4063,291.9766 33.7188,290.9141 Q33.0313,289.8359 33.0313,288.5547 L33.0313,287.3984 Q33.0313,286.0703 33.6406,284.9297 Q34.2656,283.7734 35.3594,283.1641 Q36.4531,282.5391 37.6875,282.5391 Q38.4219,282.5391 39.0625,282.7109 Q39.7188,282.8672 40.2656,283.2266 Z " fill="#000000"/><text fill="#000000" font-family="sans-serif" font-size="12" font-style="italic" lengthAdjust="spacing" textLength="105" x="55.5" y="283.457">&#171;ConcreteCreator&#187;</text><text fill="#000000" font-family="sans-serif" font-size="14" lengthAdjust="spacing" textLength="113" x="51.5" y="300.627">ConsoleConnect4</text><line style="stroke:#181818;stroke-width:0.5;" x1="23.5" x2="166.5" y1="308.7031" y2="308.7031"/><line style="stroke:#181818;stroke-width:0.5;" x1="23.5" x2="166.5" y1="316.7031" y2="316.7031"/></g><!--class GraphicsConnect4--><g id="elem_GraphicsConnect4"><rect codeLine="4" fill="#F1F1F1" height="129.1406" id="GraphicsConnect4" rx="2.5" ry="2.5" style="stroke:#181818;stroke-width:0.5;" width="154" x="203" y="231"/><ellipse cx="219.8" cy="252.3516" fill="#ADD1B2" rx="11" ry="11" style="stroke:#181818;stroke-width:1.0;"/><path d="M222.5656,248.2266 Q222.7219,248.0078 222.9094,247.8984 Q223.0969,247.7891 223.3156,247.7891 Q223.6906,247.7891 223.925,248.0547 Q224.1594,248.3047 224.1594,248.9141 L224.1594,250.3672 Q224.1594,250.9766 223.925,251.2422 Q223.6906,251.5078 223.3156,251.5078 Q222.9719,251.5078 222.7688,251.3047 Q222.5656,251.1172 222.4563,250.6016 Q222.4094,250.2422 222.2219,250.0547 Q221.8938,249.6797 221.2844,249.4609 Q220.675,249.2422 220.05,249.2422 Q219.2844,249.2422 218.6438,249.5703 Q218.0188,249.8984 217.5188,250.6484 Q217.0344,251.3984 217.0344,252.4297 L217.0344,253.5234 Q217.0344,254.7578 217.925,255.5859 Q218.8156,256.3984 220.4094,256.3984 Q221.3469,256.3984 222.0031,256.1484 Q222.3938,255.9922 222.8156,255.5547 Q223.0813,255.2891 223.2219,255.2109 Q223.3781,255.1328 223.5813,255.1328 Q223.9094,255.1328 224.1594,255.3984 Q224.425,255.6484 224.425,255.9922 Q224.425,256.3359 224.0813,256.7422 Q223.5813,257.3203 222.7844,257.6484 Q221.7063,258.1016 220.4094,258.1016 Q218.8938,258.1016 217.6906,257.4766 Q216.7063,256.9766 216.0188,255.9141 Q215.3313,254.8359 215.3313,253.5547 L215.3313,252.3984 Q215.3313,251.0703 215.9406,249.9297 Q216.5656,248.7734 217.6594,248.1641 Q218.7531,247.5391 219.9875,247.5391 Q220.7219,247.5391 221.3625,247.7109 Q222.0188,247.8672 222.5656,248.2266 Z " fill="#000000"/><text fill="#000000" font-family="sans-serif" font-size="12" font-style="italic" lengthAdjust="spacing" textLength="105" x="240.7" y="248.457">&#171;ConcreteCreator&#187;</text><text fill="#000000" font-family="sans-serif" font-size="14" lengthAdjust="spacing" textLength="118" x="234.2" y="265.627">GraphicsConnect4</text><line style="stroke:#181818;stroke-width:0.5;" x1="204" x2="356" y1="273.7031" y2="273.7031"/><line style="stroke:#181818;stroke-width:0.5;" x1="204" x2="356" y1="281.7031" y2="281.7031"/><polygon fill="#FFFF44" points="214,291.0078,218,295.0078,214,299.0078,210,295.0078" style="stroke:#B38D22;stroke-width:1.0;"/><text fill="#000000" font-family="sans-serif" font-size="14" lengthAdjust="spacing" textLength="128" x="223" y="300.2363">GraphicsConnect4()</text><polygon fill="#FFFF44" points="214,308.6172,218,312.6172,214,316.6172,210,312.6172" style="stroke:#B38D22;stroke-width:1.0;"/><text fill="#000000" font-family="sans-serif" font-size="14" lengthAdjust="spacing" textLength="79" x="223" y="317.8457">createView()</text><polygon fill="#FFFF44" points="214,326.2266,218,330.2266,214,334.2266,210,330.2266" style="stroke:#B38D22;stroke-width:1.0;"/><text fill="#000000" font-family="sans-serif" font-size="14" lengthAdjust="spacing" textLength="81" x="223" y="335.4551">playGames()</text><ellipse cx="214" cy="348.8359" fill="#84BE84" rx="3" ry="3" style="stroke:#038048;stroke-width:1.0;"/><text fill="#000000" font-family="sans-serif" font-size="14" lengthAdjust="spacing" text-decoration="underline" textLength="85" x="223" y="353.0645">main(String[])</text></g><!--class ConsoleView--><g id="elem_ConsoleView"><rect codeLine="5" fill="#F1F1F1" height="58.7031" id="ConsoleView" rx="2.5" ry="2.5" style="stroke:#181818;stroke-width:0.5;" width="151" x="392.5" y="420"/><ellipse cx="407.5" cy="441.3516" fill="#ADD1B2" rx="11" ry="11" style="stroke:#181818;stroke-width:1.0;"/><path d="M410.2656,437.2266 Q410.4219,437.0078 410.6094,436.8984 Q410.7969,436.7891 411.0156,436.7891 Q411.3906,436.7891 411.625,437.0547 Q411.8594,437.3047 411.8594,437.9141 L411.8594,439.3672 Q411.8594,439.9766 411.625,440.2422 Q411.3906,440.5078 411.0156,440.5078 Q410.6719,440.5078 410.4688,440.3047 Q410.2656,440.1172 410.1563,439.6016 Q410.1094,439.2422 409.9219,439.0547 Q409.5938,438.6797 408.9844,438.4609 Q408.375,438.2422 407.75,438.2422 Q406.9844,438.2422 406.3438,438.5703 Q405.7188,438.8984 405.2188,439.6484 Q404.7344,440.3984 404.7344,441.4297 L404.7344,442.5234 Q404.7344,443.7578 405.625,444.5859 Q406.5156,445.3984 408.1094,445.3984 Q409.0469,445.3984 409.7031,445.1484 Q410.0938,444.9922 410.5156,444.5547 Q410.7813,444.2891 410.9219,444.2109 Q411.0781,444.1328 411.2813,444.1328 Q411.6094,444.1328 411.8594,444.3984 Q412.125,444.6484 412.125,444.9922 Q412.125,445.3359 411.7813,445.7422 Q411.2813,446.3203 410.4844,446.6484 Q409.4063,447.1016 408.1094,447.1016 Q406.5938,447.1016 405.3906,446.4766 Q404.4063,445.9766 403.7188,444.9141 Q403.0313,443.8359 403.0313,442.5547 L403.0313,441.3984 Q403.0313,440.0703 403.6406,438.9297 Q404.2656,437.7734 405.3594,437.1641 Q406.4531,436.5391 407.6875,436.5391 Q408.4219,436.5391 409.0625,436.7109 Q409.7188,436.8672 410.2656,437.2266 Z " fill="#000000"/><text fill="#000000" font-family="sans-serif" font-size="12" font-style="italic" lengthAdjust="spacing" textLength="106" x="428" y="437.457">&#171;ConcreteProduct&#187;</text><text fill="#000000" font-family="sans-serif" font-size="14" lengthAdjust="spacing" textLength="119" x="421.5" y="454.627">views.ConsoleView</text><line style="stroke:#181818;stroke-width:0.5;" x1="393.5" x2="542.5" y1="462.7031" y2="462.7031"/><line style="stroke:#181818;stroke-width:0.5;" x1="393.5" x2="542.5" y1="470.7031" y2="470.7031"/></g><!--class GraphicsView--><g id="elem_GraphicsView"><rect codeLine="6" fill="#F1F1F1" height="58.7031" id="GraphicsView" rx="2.5" ry="2.5" style="stroke:#181818;stroke-width:0.5;" width="156" x="201" y="420"/><ellipse cx="216" cy="441.3516" fill="#ADD1B2" rx="11" ry="11" style="stroke:#181818;stroke-width:1.0;"/><path d="M218.7656,437.2266 Q218.9219,437.0078 219.1094,436.8984 Q219.2969,436.7891 219.5156,436.7891 Q219.8906,436.7891 220.125,437.0547 Q220.3594,437.3047 220.3594,437.9141 L220.3594,439.3672 Q220.3594,439.9766 220.125,440.2422 Q219.8906,440.5078 219.5156,440.5078 Q219.1719,440.5078 218.9688,440.3047 Q218.7656,440.1172 218.6563,439.6016 Q218.6094,439.2422 218.4219,439.0547 Q218.0938,438.6797 217.4844,438.4609 Q216.875,438.2422 216.25,438.2422 Q215.4844,438.2422 214.8438,438.5703 Q214.2188,438.8984 213.7188,439.6484 Q213.2344,440.3984 213.2344,441.4297 L213.2344,442.5234 Q213.2344,443.7578 214.125,444.5859 Q215.0156,445.3984 216.6094,445.3984 Q217.5469,445.3984 218.2031,445.1484 Q218.5938,444.9922 219.0156,444.5547 Q219.2813,444.2891 219.4219,444.2109 Q219.5781,444.1328 219.7813,444.1328 Q220.1094,444.1328 220.3594,444.3984 Q220.625,444.6484 220.625,444.9922 Q220.625,445.3359 220.2813,445.7422 Q219.7813,446.3203 218.9844,446.6484 Q217.9063,447.1016 216.6094,447.1016 Q215.0938,447.1016 213.8906,446.4766 Q212.9063,445.9766 212.2188,444.9141 Q211.5313,443.8359 211.5313,442.5547 L211.5313,441.3984 Q211.5313,440.0703 212.1406,438.9297 Q212.7656,437.7734 213.8594,437.1641 Q214.9531,436.5391 216.1875,436.5391 Q216.9219,436.5391 217.5625,436.7109 Q218.2188,436.8672 218.7656,437.2266 Z " fill="#000000"/><text fill="#000000" font-family="sans-serif" font-size="12" font-style="italic" lengthAdjust="spacing" textLength="106" x="239" y="437.457">&#171;ConcreteProduct&#187;</text><text fill="#000000" font-family="sans-serif" font-size="14" lengthAdjust="spacing" textLength="124" x="230" y="454.627">views.GraphicsView</text><line style="stroke:#181818;stroke-width:0.5;" x1="202" x2="356" y1="462.7031" y2="462.7031"/><line style="stroke:#181818;stroke-width:0.5;" x1="202" x2="356" y1="470.7031" y2="470.7031"/></g><!--class View--><g id="elem_View"><rect codeLine="7" fill="#F1F1F1" height="58.7031" id="View" rx="2.5" ry="2.5" style="stroke:#181818;stroke-width:0.5;" width="99" x="392.5" y="266"/><ellipse cx="407.5" cy="287.3516" fill="#ADD1B2" rx="11" ry="11" style="stroke:#181818;stroke-width:1.0;"/><path d="M410.2656,283.2266 Q410.4219,283.0078 410.6094,282.8984 Q410.7969,282.7891 411.0156,282.7891 Q411.3906,282.7891 411.625,283.0547 Q411.8594,283.3047 411.8594,283.9141 L411.8594,285.3672 Q411.8594,285.9766 411.625,286.2422 Q411.3906,286.5078 411.0156,286.5078 Q410.6719,286.5078 410.4688,286.3047 Q410.2656,286.1172 410.1563,285.6016 Q410.1094,285.2422 409.9219,285.0547 Q409.5938,284.6797 408.9844,284.4609 Q408.375,284.2422 407.75,284.2422 Q406.9844,284.2422 406.3438,284.5703 Q405.7188,284.8984 405.2188,285.6484 Q404.7344,286.3984 404.7344,287.4297 L404.7344,288.5234 Q404.7344,289.7578 405.625,290.5859 Q406.5156,291.3984 408.1094,291.3984 Q409.0469,291.3984 409.7031,291.1484 Q410.0938,290.9922 410.5156,290.5547 Q410.7813,290.2891 410.9219,290.2109 Q411.0781,290.1328 411.2813,290.1328 Q411.6094,290.1328 411.8594,290.3984 Q412.125,290.6484 412.125,290.9922 Q412.125,291.3359 411.7813,291.7422 Q411.2813,292.3203 410.4844,292.6484 Q409.4063,293.1016 408.1094,293.1016 Q406.5938,293.1016 405.3906,292.4766 Q404.4063,291.9766 403.7188,290.9141 Q403.0313,289.8359 403.0313,288.5547 L403.0313,287.3984 Q403.0313,286.0703 403.6406,284.9297 Q404.2656,283.7734 405.3594,283.1641 Q406.4531,282.5391 407.6875,282.5391 Q408.4219,282.5391 409.0625,282.7109 Q409.7188,282.8672 410.2656,283.2266 Z " fill="#000000"/><text fill="#000000" font-family="sans-serif" font-size="12" font-style="italic" lengthAdjust="spacing" textLength="56" x="427" y="283.457">&#171;Product&#187;</text><text fill="#000000" font-family="sans-serif" font-size="14" lengthAdjust="spacing" textLength="67" x="421.5" y="300.627">views.View</text><line style="stroke:#181818;stroke-width:0.5;" x1="393.5" x2="490.5" y1="308.7031" y2="308.7031"/><line style="stroke:#181818;stroke-width:0.5;" x1="393.5" x2="490.5" y1="316.7031" y2="316.7031"/></g><!--class Logic--><g id="elem_Logic"><rect codeLine="14" fill="#F1F1F1" height="48" id="Logic" rx="2.5" ry="2.5" style="stroke:#181818;stroke-width:0.5;" width="136" x="29" y="425.5"/><ellipse cx="44" cy="441.5" fill="#ADD1B2" rx="11" ry="11" style="stroke:#181818;stroke-width:1.0;"/><path d="M46.7656,437.375 Q46.9219,437.1563 47.1094,437.0469 Q47.2969,436.9375 47.5156,436.9375 Q47.8906,436.9375 48.125,437.2031 Q48.3594,437.4531 48.3594,438.0625 L48.3594,439.5156 Q48.3594,440.125 48.125,440.3906 Q47.8906,440.6563 47.5156,440.6563 Q47.1719,440.6563 46.9688,440.4531 Q46.7656,440.2656 46.6563,439.75 Q46.6094,439.3906 46.4219,439.2031 Q46.0938,438.8281 45.4844,438.6094 Q44.875,438.3906 44.25,438.3906 Q43.4844,438.3906 42.8438,438.7188 Q42.2188,439.0469 41.7188,439.7969 Q41.2344,440.5469 41.2344,441.5781 L41.2344,442.6719 Q41.2344,443.9063 42.125,444.7344 Q43.0156,445.5469 44.6094,445.5469 Q45.5469,445.5469 46.2031,445.2969 Q46.5938,445.1406 47.0156,444.7031 Q47.2813,444.4375 47.4219,444.3594 Q47.5781,444.2813 47.7813,444.2813 Q48.1094,444.2813 48.3594,444.5469 Q48.625,444.7969 48.625,445.1406 Q48.625,445.4844 48.2813,445.8906 Q47.7813,446.4688 46.9844,446.7969 Q45.9063,447.25 44.6094,447.25 Q43.0938,447.25 41.8906,446.625 Q40.9063,446.125 40.2188,445.0625 Q39.5313,443.9844 39.5313,442.7031 L39.5313,441.5469 Q39.5313,440.2188 40.1406,439.0781 Q40.7656,437.9219 41.8594,437.3125 Q42.9531,436.6875 44.1875,436.6875 Q44.9219,436.6875 45.5625,436.8594 Q46.2188,437.0156 46.7656,437.375 Z " fill="#000000"/><text fill="#000000" font-family="sans-serif" font-size="14" lengthAdjust="spacing" textLength="104" x="58" y="447.2285">controllers.Logic</text><line style="stroke:#181818;stroke-width:0.5;" x1="30" x2="164" y1="457.5" y2="457.5"/><line style="stroke:#181818;stroke-width:0.5;" x1="30" x2="164" y1="465.5" y2="465.5"/></g><!--reverse link Connect4 to ConsoleConnect4--><g id="link_Connect4_ConsoleConnect4"><path codeLine="9" d="M196.3441,184.3177 C166.7341,216.5077 144.45,240.74 121.33,265.88 " fill="none" id="Connect4-backto-ConsoleConnect4" style="stroke:#181818;stroke-width:1.0;"/><polygon fill="none" points="208.53,171.07,191.9281,180.2558,200.76,188.3797,208.53,171.07" style="stroke:#181818;stroke-width:1.0;"/></g><!--reverse link Connect4 to GraphicsConnect4--><g id="link_Connect4_GraphicsConnect4"><path codeLine="10" d="M272.6687,189.0266 C274.0087,208.2966 274.23,211.51 275.57,230.79 " fill="none" id="Connect4-backto-GraphicsConnect4" style="stroke:#181818;stroke-width:1.0;"/><polygon fill="none" points="271.42,171.07,266.6831,189.4429,278.6542,188.6104,271.42,171.07" style="stroke:#181818;stroke-width:1.0;"/></g><!--link Connect4 to View--><g id="link_Connect4_View"><path codeLine="11" d="M334.6889,179.8323 C364.8089,212.0223 387.5909,236.3585 411.1109,261.4985 " fill="none" id="Connect4-View" style="stroke:#181818;stroke-width:1.0;"/><polygon fill="#181818" points="326.49,171.07,327.6687,178.1841,334.6889,179.8323,333.5102,172.7182,326.49,171.07" style="stroke:#181818;stroke-width:1.0;"/><polygon fill="#181818" points="415.21,265.88,411.9823,256.5751,411.7941,262.2288,406.1403,262.0406,415.21,265.88" style="stroke:#181818;stroke-width:1.0;"/></g><!--link GraphicsConnect4 to GraphicsView--><g id="link_GraphicsConnect4_GraphicsView"><path codeLine="13" d="M279.58,360.08 C279.44,380.91 279.3391,397.0101 279.2291,413.9101 " fill="none" id="GraphicsConnect4-to-GraphicsView" style="stroke:#181818;stroke-width:1.0;stroke-dasharray:7.0,7.0;"/><polygon fill="#181818" points="279.19,419.91,283.2485,410.9362,279.2225,414.9101,275.2487,410.8842,279.19,419.91" style="stroke:#181818;stroke-width:1.0;"/></g><!--link GraphicsConnect4 to Logic--><g id="link_GraphicsConnect4_Logic"><path codeLine="15" d="M212.84,360.06 C203.63,368.28 194.18,376.45 185,384 C167.45,398.44 151.8957,410.0373 135.1457,421.9773 " fill="none" id="GraphicsConnect4-to-Logic" style="stroke:#181818;stroke-width:1.0;stroke-dasharray:7.0,7.0;"/><polygon fill="#181818" points="130.26,425.46,139.9104,423.4931,134.3315,422.5577,135.2668,416.9787,130.26,425.46" style="stroke:#181818;stroke-width:1.0;"/></g><!--link ConsoleConnect4 to GraphicsView--><g id="link_ConsoleConnect4_GraphicsView"><path codeLine="16" d="M122.23,325.37 C139.51,343.08 162.75,365.77 185,384 C200.31,396.54 213.0212,405.7816 228.9012,416.4616 " fill="none" id="ConsoleConnect4-to-GraphicsView" style="stroke:#181818;stroke-width:1.0;stroke-dasharray:7.0,7.0;"/><polygon fill="#181818" points="233.88,419.81,228.6442,411.4682,229.731,417.0196,224.1796,418.1065,233.88,419.81" style="stroke:#181818;stroke-width:1.0;"/></g><!--link ConsoleConnect4 to Logic--><g id="link_ConsoleConnect4_Logic"><path codeLine="17" d="M95.38,325.09 C95.76,354.16 96.2596,392.6305 96.6196,419.5005 " fill="none" id="ConsoleConnect4-to-Logic" style="stroke:#181818;stroke-width:1.0;stroke-dasharray:7.0,7.0;"/><polygon fill="#181818" points="96.7,425.5,100.5791,416.4472,96.633,420.5004,92.5798,416.5544,96.7,425.5" style="stroke:#181818;stroke-width:1.0;"/></g><!--reverse link View to ConsoleView--><g id="link_View_ConsoleView"><path codeLine="19" d="M449.9224,342.8327 C454.5524,369.9227 458.45,392.65 463.09,419.78 " fill="none" id="View-backto-ConsoleView" style="stroke:#181818;stroke-width:1.0;"/><polygon fill="none" points="446.89,325.09,444.0082,343.8435,455.8367,341.8219,446.89,325.09" style="stroke:#181818;stroke-width:1.0;"/></g><!--reverse link View to GraphicsView--><g id="link_View_GraphicsView"><path codeLine="20" d="M412.3623,339.7605 C399.4923,357.7905 391.93,366.29 373,384 C358.98,397.12 342.09,409.55 326.52,419.94 " fill="none" id="View-backto-GraphicsView" style="stroke:#181818;stroke-width:1.0;"/><polygon fill="none" points="422.82,325.11,407.4788,336.2746,417.2458,343.2464,422.82,325.11" style="stroke:#181818;stroke-width:1.0;"/></g><!--SRC=[ZLAnJiCm4Dtz5LQo9A1uOgggB1swC5H2Oa4CXx629TUkxACLAlrtKXDZnp68xVJklUTtTuONXnOuKgx0ESgDreBZ7TjC1LslDrO06jltPCbnHecKQZIt0iMlags5mvlaxX-QoVrHYXC5HwlZM3YMe5KYtbdp-ixnHnpUoTGf_9SyamLwf94um6VNqMmJMJSVEhPlkgxtZn6os0nZ_MoCATgz6IJtsSQbeZLA2UkOHwkoYU-H_5WB-nBXMqhyEj91lI2YCvyutOhMeMxQ53x3zEikDRzUtVirMzYBTaL3c09vf-3Zod9pkteGw1s2Uhc7aPHZeqU9bWGg4mv9Y4B_x11Gyilj7gHk7j1AFJmzj-GB]--></g></svg>