<?xml version="1.0" encoding="us-ascii" standalone="no"?><svg xmlns="http://www.w3.org/2000/svg" xmlns:xlink="http://www.w3.org/1999/xlink" contentStyleType="text/css" height="293px" preserveAspectRatio="none" style="width:510px;height:293px;background:#FFFFFF;" version="1.1" viewBox="0 0 510 293" width="510px" zoomAndPan="magnify"><defs/><g><!--cluster connect4--><g id="cluster_connect4"><path d="M24,6 L90,6 A3.75,3.75 0 0 1 92.5,8.5 L99.5,29.6094 L488,29.6094 A2.5,2.5 0 0 1 490.5,32.1094 L490.5,191.5 A2.5,2.5 0 0 1 488,194 L24,194 A2.5,2.5 0 0 1 21.5,191.5 L21.5,8.5 A2.5,2.5 0 0 1 24,6 " fill="none" style="stroke:#000000;stroke-width:1.5;"/><line style="stroke:#000000;stroke-width:1.5;" x1="21.5" x2="99.5" y1="29.6094" y2="29.6094"/><text fill="#000000" font-family="sans-serif" font-size="14" font-weight="bold" lengthAdjust="spacing" textLength="65" x="25.5" y="22.5332">connect4</text></g><!--class ConsoleConnect4--><g id="elem_ConsoleConnect4"><rect codeLine="2" fill="#F1F1F1" height="136.0469" id="ConsoleConnect4" rx="2.5" ry="2.5" style="stroke:#181818;stroke-width:0.5;" width="196" x="37.5" y="42"/><ellipse cx="75.45" cy="58" fill="#ADD1B2" rx="11" ry="11" style="stroke:#181818;stroke-width:1.0;"/><path d="M78.2156,53.875 Q78.3719,53.6563 78.5594,53.5469 Q78.7469,53.4375 78.9656,53.4375 Q79.3406,53.4375 79.575,53.7031 Q79.8094,53.9531 79.8094,54.5625 L79.8094,56.0156 Q79.8094,56.625 79.575,56.8906 Q79.3406,57.1563 78.9656,57.1563 Q78.6219,57.1563 78.4188,56.9531 Q78.2156,56.7656 78.1063,56.25 Q78.0594,55.8906 77.8719,55.7031 Q77.5438,55.3281 76.9344,55.1094 Q76.325,54.8906 75.7,54.8906 Q74.9344,54.8906 74.2938,55.2188 Q73.6688,55.5469 73.1688,56.2969 Q72.6844,57.0469 72.6844,58.0781 L72.6844,59.1719 Q72.6844,60.4063 73.575,61.2344 Q74.4656,62.0469 76.0594,62.0469 Q76.9969,62.0469 77.6531,61.7969 Q78.0438,61.6406 78.4656,61.2031 Q78.7313,60.9375 78.8719,60.8594 Q79.0281,60.7813 79.2313,60.7813 Q79.5594,60.7813 79.8094,61.0469 Q80.075,61.2969 80.075,61.6406 Q80.075,61.9844 79.7313,62.3906 Q79.2313,62.9688 78.4344,63.2969 Q77.3563,63.75 76.0594,63.75 Q74.5438,63.75 73.3406,63.125 Q72.3563,62.625 71.6688,61.5625 Q70.9813,60.4844 70.9813,59.2031 L70.9813,58.0469 Q70.9813,56.7188 71.5906,55.5781 Q72.2156,54.4219 73.3094,53.8125 Q74.4031,53.1875 75.6375,53.1875 Q76.3719,53.1875 77.0125,53.3594 Q77.6688,53.5156 78.2156,53.875 Z " fill="#000000"/><text fill="#000000" font-family="sans-serif" font-size="14" lengthAdjust="spacing" textLength="113" x="94.55" y="63.7285">ConsoleConnect4</text><line style="stroke:#181818;stroke-width:0.5;" x1="38.5" x2="232.5" y1="74" y2="74"/><rect fill="none" height="6" style="stroke:#C82930;stroke-width:1.0;" width="6" x="45.5" y="85.3047"/><text fill="#000000" font-family="sans-serif" font-size="14" lengthAdjust="spacing" textLength="81" x="57.5" y="92.5332">game: Game</text><rect fill="none" height="6" style="stroke:#C82930;stroke-width:1.0;" width="6" x="45.5" y="102.9141"/><text fill="#000000" font-family="sans-serif" font-size="14" lengthAdjust="spacing" textLength="170" x="57.5" y="110.1426">ConsoleView: ConsoleView</text><line style="stroke:#181818;stroke-width:0.5;" x1="38.5" x2="232.5" y1="117.2188" y2="117.2188"/><ellipse cx="48.5" cy="131.5234" fill="#84BE84" rx="3" ry="3" style="stroke:#038048;stroke-width:1.0;"/><text fill="#000000" font-family="sans-serif" font-size="14" lengthAdjust="spacing" textLength="123" x="57.5" y="135.752">ConsoleConnect4()</text><ellipse cx="48.5" cy="149.1328" fill="#84BE84" rx="3" ry="3" style="stroke:#038048;stroke-width:1.0;"/><text fill="#000000" font-family="sans-serif" font-size="14" lengthAdjust="spacing" textLength="85" x="57.5" y="153.3613">main(String[])</text><rect fill="#F24D5C" height="6" style="stroke:#C82930;stroke-width:1.0;" width="6" x="45.5" y="163.7422"/><text fill="#000000" font-family="sans-serif" font-size="14" lengthAdjust="spacing" textLength="81" x="57.5" y="170.9707">playGames()</text></g><!--class GraphicsConnect4--><g id="elem_GraphicsConnect4"><rect codeLine="3" fill="#F1F1F1" height="136.0469" id="GraphicsConnect4" rx="2.5" ry="2.5" style="stroke:#181818;stroke-width:0.5;" width="206" x="268.5" y="42"/><ellipse cx="308.7" cy="58" fill="#ADD1B2" rx="11" ry="11" style="stroke:#181818;stroke-width:1.0;"/><path d="M311.4656,53.875 Q311.6219,53.6563 311.8094,53.5469 Q311.9969,53.4375 312.2156,53.4375 Q312.5906,53.4375 312.825,53.7031 Q313.0594,53.9531 313.0594,54.5625 L313.0594,56.0156 Q313.0594,56.625 312.825,56.8906 Q312.5906,57.1563 312.2156,57.1563 Q311.8719,57.1563 311.6688,56.9531 Q311.4656,56.7656 311.3563,56.25 Q311.3094,55.8906 311.1219,55.7031 Q310.7938,55.3281 310.1844,55.1094 Q309.575,54.8906 308.95,54.8906 Q308.1844,54.8906 307.5438,55.2188 Q306.9188,55.5469 306.4188,56.2969 Q305.9344,57.0469 305.9344,58.0781 L305.9344,59.1719 Q305.9344,60.4063 306.825,61.2344 Q307.7156,62.0469 309.3094,62.0469 Q310.2469,62.0469 310.9031,61.7969 Q311.2938,61.6406 311.7156,61.2031 Q311.9813,60.9375 312.1219,60.8594 Q312.2781,60.7813 312.4813,60.7813 Q312.8094,60.7813 313.0594,61.0469 Q313.325,61.2969 313.325,61.6406 Q313.325,61.9844 312.9813,62.3906 Q312.4813,62.9688 311.6844,63.2969 Q310.6063,63.75 309.3094,63.75 Q307.7938,63.75 306.5906,63.125 Q305.6063,62.625 304.9188,61.5625 Q304.2313,60.4844 304.2313,59.2031 L304.2313,58.0469 Q304.2313,56.7188 304.8406,55.5781 Q305.4656,54.4219 306.5594,53.8125 Q307.6531,53.1875 308.8875,53.1875 Q309.6219,53.1875 310.2625,53.3594 Q310.9188,53.5156 311.4656,53.875 Z " fill="#000000"/><text fill="#000000" font-family="sans-serif" font-size="14" lengthAdjust="spacing" textLength="118" x="328.3" y="63.7285">GraphicsConnect4</text><line style="stroke:#181818;stroke-width:0.5;" x1="269.5" x2="473.5" y1="74" y2="74"/><rect fill="none" height="6" style="stroke:#C82930;stroke-width:1.0;" width="6" x="276.5" y="85.3047"/><text fill="#000000" font-family="sans-serif" font-size="14" lengthAdjust="spacing" textLength="81" x="288.5" y="92.5332">game: Game</text><rect fill="none" height="6" style="stroke:#C82930;stroke-width:1.0;" width="6" x="276.5" y="102.9141"/><text fill="#000000" font-family="sans-serif" font-size="14" lengthAdjust="spacing" textLength="180" x="288.5" y="110.1426">GraphicsView: GraphicsView</text><line style="stroke:#181818;stroke-width:0.5;" x1="269.5" x2="473.5" y1="117.2188" y2="117.2188"/><ellipse cx="279.5" cy="131.5234" fill="#84BE84" rx="3" ry="3" style="stroke:#038048;stroke-width:1.0;"/><text fill="#000000" font-family="sans-serif" font-size="14" lengthAdjust="spacing" textLength="128" x="288.5" y="135.752">GraphicsConnect4()</text><ellipse cx="279.5" cy="149.1328" fill="#84BE84" rx="3" ry="3" style="stroke:#038048;stroke-width:1.0;"/><text fill="#000000" font-family="sans-serif" font-size="14" lengthAdjust="spacing" textLength="85" x="288.5" y="153.3613">main(String[])</text><rect fill="#F24D5C" height="6" style="stroke:#C82930;stroke-width:1.0;" width="6" x="276.5" y="163.7422"/><text fill="#000000" font-family="sans-serif" font-size="14" lengthAdjust="spacing" textLength="81" x="288.5" y="170.9707">playGames()</text></g><!--class Game--><g id="elem_Game"><rect codeLine="4" fill="#F1F1F1" height="48" id="Game" rx="2.5" ry="2.5" style="stroke:#181818;stroke-width:0.5;" width="119" x="193" y="238"/><ellipse cx="208" cy="254" fill="#ADD1B2" rx="11" ry="11" style="stroke:#181818;stroke-width:1.0;"/><path d="M210.7656,249.875 Q210.9219,249.6563 211.1094,249.5469 Q211.2969,249.4375 211.5156,249.4375 Q211.8906,249.4375 212.125,249.7031 Q212.3594,249.9531 212.3594,250.5625 L212.3594,252.0156 Q212.3594,252.625 212.125,252.8906 Q211.8906,253.1563 211.5156,253.1563 Q211.1719,253.1563 210.9688,252.9531 Q210.7656,252.7656 210.6563,252.25 Q210.6094,251.8906 210.4219,251.7031 Q210.0938,251.3281 209.4844,251.1094 Q208.875,250.8906 208.25,250.8906 Q207.4844,250.8906 206.8438,251.2188 Q206.2188,251.5469 205.7188,252.2969 Q205.2344,253.0469 205.2344,254.0781 L205.2344,255.1719 Q205.2344,256.4063 206.125,257.2344 Q207.0156,258.0469 208.6094,258.0469 Q209.5469,258.0469 210.2031,257.7969 Q210.5938,257.6406 211.0156,257.2031 Q211.2813,256.9375 211.4219,256.8594 Q211.5781,256.7813 211.7813,256.7813 Q212.1094,256.7813 212.3594,257.0469 Q212.625,257.2969 212.625,257.6406 Q212.625,257.9844 212.2813,258.3906 Q211.7813,258.9688 210.9844,259.2969 Q209.9063,259.75 208.6094,259.75 Q207.0938,259.75 205.8906,259.125 Q204.9063,258.625 204.2188,257.5625 Q203.5313,256.4844 203.5313,255.2031 L203.5313,254.0469 Q203.5313,252.7188 204.1406,251.5781 Q204.7656,250.4219 205.8594,249.8125 Q206.9531,249.1875 208.1875,249.1875 Q208.9219,249.1875 209.5625,249.3594 Q210.2188,249.5156 210.7656,249.875 Z " fill="#000000"/><text fill="#000000" font-family="sans-serif" font-size="14" lengthAdjust="spacing" textLength="87" x="222" y="259.7285">models.Game</text><line style="stroke:#181818;stroke-width:0.5;" x1="194" x2="311" y1="270" y2="270"/><line style="stroke:#181818;stroke-width:0.5;" x1="194" x2="311" y1="278" y2="278"/></g><!--class ConsoleView--><g id="elem_ConsoleView"><rect codeLine="5" fill="#F1F1F1" height="48" id="ConsoleView" rx="2.5" ry="2.5" style="stroke:#181818;stroke-width:0.5;" width="151" x="7" y="238"/><ellipse cx="22" cy="254" fill="#ADD1B2" rx="11" ry="11" style="stroke:#181818;stroke-width:1.0;"/><path d="M24.7656,249.875 Q24.9219,249.6563 25.1094,249.5469 Q25.2969,249.4375 25.5156,249.4375 Q25.8906,249.4375 26.125,249.7031 Q26.3594,249.9531 26.3594,250.5625 L26.3594,252.0156 Q26.3594,252.625 26.125,252.8906 Q25.8906,253.1563 25.5156,253.1563 Q25.1719,253.1563 24.9688,252.9531 Q24.7656,252.7656 24.6563,252.25 Q24.6094,251.8906 24.4219,251.7031 Q24.0938,251.3281 23.4844,251.1094 Q22.875,250.8906 22.25,250.8906 Q21.4844,250.8906 20.8438,251.2188 Q20.2188,251.5469 19.7188,252.2969 Q19.2344,253.0469 19.2344,254.0781 L19.2344,255.1719 Q19.2344,256.4063 20.125,257.2344 Q21.0156,258.0469 22.6094,258.0469 Q23.5469,258.0469 24.2031,257.7969 Q24.5938,257.6406 25.0156,257.2031 Q25.2813,256.9375 25.4219,256.8594 Q25.5781,256.7813 25.7813,256.7813 Q26.1094,256.7813 26.3594,257.0469 Q26.625,257.2969 26.625,257.6406 Q26.625,257.9844 26.2813,258.3906 Q25.7813,258.9688 24.9844,259.2969 Q23.9063,259.75 22.6094,259.75 Q21.0938,259.75 19.8906,259.125 Q18.9063,258.625 18.2188,257.5625 Q17.5313,256.4844 17.5313,255.2031 L17.5313,254.0469 Q17.5313,252.7188 18.1406,251.5781 Q18.7656,250.4219 19.8594,249.8125 Q20.9531,249.1875 22.1875,249.1875 Q22.9219,249.1875 23.5625,249.3594 Q24.2188,249.5156 24.7656,249.875 Z " fill="#000000"/><text fill="#000000" font-family="sans-serif" font-size="14" lengthAdjust="spacing" textLength="119" x="36" y="259.7285">views.ConsoleView</text><line style="stroke:#181818;stroke-width:0.5;" x1="8" x2="157" y1="270" y2="270"/><line style="stroke:#181818;stroke-width:0.5;" x1="8" x2="157" y1="278" y2="278"/></g><!--class GraphicsView--><g id="elem_GraphicsView"><rect codeLine="6" fill="#F1F1F1" height="48" id="GraphicsView" rx="2.5" ry="2.5" style="stroke:#181818;stroke-width:0.5;" width="156" x="347.5" y="238"/><ellipse cx="362.5" cy="254" fill="#ADD1B2" rx="11" ry="11" style="stroke:#181818;stroke-width:1.0;"/><path d="M365.2656,249.875 Q365.4219,249.6563 365.6094,249.5469 Q365.7969,249.4375 366.0156,249.4375 Q366.3906,249.4375 366.625,249.7031 Q366.8594,249.9531 366.8594,250.5625 L366.8594,252.0156 Q366.8594,252.625 366.625,252.8906 Q366.3906,253.1563 366.0156,253.1563 Q365.6719,253.1563 365.4688,252.9531 Q365.2656,252.7656 365.1563,252.25 Q365.1094,251.8906 364.9219,251.7031 Q364.5938,251.3281 363.9844,251.1094 Q363.375,250.8906 362.75,250.8906 Q361.9844,250.8906 361.3438,251.2188 Q360.7188,251.5469 360.2188,252.2969 Q359.7344,253.0469 359.7344,254.0781 L359.7344,255.1719 Q359.7344,256.4063 360.625,257.2344 Q361.5156,258.0469 363.1094,258.0469 Q364.0469,258.0469 364.7031,257.7969 Q365.0938,257.6406 365.5156,257.2031 Q365.7813,256.9375 365.9219,256.8594 Q366.0781,256.7813 366.2813,256.7813 Q366.6094,256.7813 366.8594,257.0469 Q367.125,257.2969 367.125,257.6406 Q367.125,257.9844 366.7813,258.3906 Q366.2813,258.9688 365.4844,259.2969 Q364.4063,259.75 363.1094,259.75 Q361.5938,259.75 360.3906,259.125 Q359.4063,258.625 358.7188,257.5625 Q358.0313,256.4844 358.0313,255.2031 L358.0313,254.0469 Q358.0313,252.7188 358.6406,251.5781 Q359.2656,250.4219 360.3594,249.8125 Q361.4531,249.1875 362.6875,249.1875 Q363.4219,249.1875 364.0625,249.3594 Q364.7188,249.5156 365.2656,249.875 Z " fill="#000000"/><text fill="#000000" font-family="sans-serif" font-size="14" lengthAdjust="spacing" textLength="124" x="376.5" y="259.7285">views.GraphicsView</text><line style="stroke:#181818;stroke-width:0.5;" x1="348.5" x2="502.5" y1="270" y2="270"/><line style="stroke:#181818;stroke-width:0.5;" x1="348.5" x2="502.5" y1="278" y2="278"/></g><!--reverse link ConsoleConnect4 to Game--><g id="link_ConsoleConnect4_Game"><path codeLine="8" d="M195.2186,187.5634 C211.8886,208.9434 221.86,221.71 234.38,237.77 " fill="none" id="ConsoleConnect4-backto-Game" style="stroke:#181818;stroke-width:1.0;"/><polygon fill="#181818" points="187.84,178.1,188.3748,185.2912,195.2186,187.5634,194.6838,180.3722,187.84,178.1" style="stroke:#181818;stroke-width:1.0;"/></g><!--reverse link ConsoleConnect4 to ConsoleView--><g id="link_ConsoleConnect4_ConsoleView"><path codeLine="9" d="M107.7942,189.4152 C100.2442,210.7952 96.38,221.71 90.71,237.77 " fill="none" id="ConsoleConnect4-backto-ConsoleView" style="stroke:#181818;stroke-width:1.0;"/><polygon fill="#181818" points="111.79,178.1,106.0204,182.4257,107.7942,189.4152,113.5638,185.0895,111.79,178.1" style="stroke:#181818;stroke-width:1.0;"/></g><!--reverse link GraphicsConnect4 to Game--><g id="link_GraphicsConnect4_Game"><path codeLine="11" d="M310.8123,187.5012 C293.8523,208.8812 283.67,221.71 270.93,237.77 " fill="none" id="GraphicsConnect4-backto-Game" style="stroke:#181818;stroke-width:1.0;"/><polygon fill="#181818" points="318.27,178.1,311.4074,180.3147,310.8123,187.5012,317.6749,185.2865,318.27,178.1" style="stroke:#181818;stroke-width:1.0;"/></g><!--reverse link GraphicsConnect4 to GraphicsView--><g id="link_GraphicsConnect4_GraphicsView"><path codeLine="12" d="M399.7215,189.3918 C407.4115,210.7718 411.36,221.71 417.14,237.77 " fill="none" id="GraphicsConnect4-backto-GraphicsView" style="stroke:#181818;stroke-width:1.0;"/><polygon fill="#181818" points="395.66,178.1,393.9268,185.0997,399.7215,189.3918,401.4547,182.3921,395.66,178.1" style="stroke:#181818;stroke-width:1.0;"/></g><!--SRC=[RP0n3iCW34LtJe4ofOrWwiIQ8GUerANgW2XAaGX4STIgjo-94XKSRzZ_sVyRupK0Dp44Q-QBR6E0w6sxrSoKSZVfyUKC8BtJW-KQU3N4f_KWbxhQj6tZpTdFYhpJ0sJMtS5zDoBpTiKO2iZFGgpsf92vC8Qp_qTf9VCzsYek-ZIgQE-aPjQgo75a6zIgJnJ41-r2VPqd5_hxWqB4wFLtoGDfm_6eCZ8bvoUhyWC8lC6zv4fXE3Zbd2V_0G00]--></g></svg>