<?xml version="1.0" encoding="us-ascii" standalone="no"?><svg xmlns="http://www.w3.org/2000/svg" xmlns:xlink="http://www.w3.org/1999/xlink" contentStyleType="text/css" height="432px" preserveAspectRatio="none" style="width:698px;height:432px;background:#FFFFFF;" version="1.1" viewBox="0 0 698 432" width="698px" zoomAndPan="magnify"><defs/><g><!--cluster connect4--><g id="cluster_connect4"><path d="M175.5,6 L241.5,6 A3.75,3.75 0 0 1 244,8.5 L251,29.6094 L533.5,29.6094 A2.5,2.5 0 0 1 536,32.1094 L536,320.5 A2.5,2.5 0 0 1 533.5,323 L175.5,323 A2.5,2.5 0 0 1 173,320.5 L173,8.5 A2.5,2.5 0 0 1 175.5,6 " fill="none" style="stroke:#000000;stroke-width:1.5;"/><line style="stroke:#000000;stroke-width:1.5;" x1="173" x2="251" y1="29.6094" y2="29.6094"/><text fill="#000000" font-family="sans-serif" font-size="14" font-weight="bold" lengthAdjust="spacing" textLength="65" x="177" y="22.5332">connect4</text></g><!--class Connect4--><g id="elem_Connect4"><rect codeLine="2" fill="#F1F1F1" height="129.1406" id="Connect4" rx="2.5" ry="2.5" style="stroke:#181818;stroke-width:0.5;" width="142" x="284" y="42"/><ellipse cx="321.05" cy="63.3516" fill="#A9DCDF" rx="11" ry="11" style="stroke:#181818;stroke-width:1.0;"/><path d="M323.2375,65.1172 L319.0969,65.1172 L318.675,66.1484 L319.0969,66.1484 Q319.7063,66.1484 319.9719,66.3828 Q320.2375,66.6172 320.2375,67.0078 Q320.2375,67.3828 319.9719,67.6172 Q319.7063,67.8516 319.0969,67.8516 L316.8,67.8516 Q316.1906,67.8516 315.9406,67.6172 Q315.675,67.3828 315.675,66.9922 Q315.675,66.6172 315.9563,66.3828 Q316.2219,66.1328 316.8469,66.1484 L319.5188,59.4922 L318.4094,59.4922 Q317.8,59.4922 317.5344,59.2578 Q317.2688,59.0234 317.2688,58.6328 Q317.2688,58.2578 317.5344,58.0234 Q317.8,57.7891 318.4094,57.7891 L322.0813,57.7891 L325.4719,66.1484 Q326.0656,66.1484 326.2531,66.2891 Q326.6438,66.5547 326.6438,67.0078 Q326.6438,67.3828 326.3781,67.6172 Q326.1281,67.8516 325.5188,67.8516 L323.2219,67.8516 Q322.6125,67.8516 322.3469,67.6172 Q322.0813,67.3828 322.0813,66.9922 Q322.0813,66.6172 322.3469,66.3828 Q322.6125,66.1484 323.2219,66.1484 L323.6438,66.1484 L323.2375,65.1172 Z M322.5188,63.4141 L321.1594,60.0391 L319.7844,63.4141 L322.5188,63.4141 Z " fill="#000000"/><text fill="#000000" font-family="sans-serif" font-size="12" font-style="italic" lengthAdjust="spacing" textLength="55" x="342.95" y="59.457">&#171;Creator&#187;</text><text fill="#000000" font-family="sans-serif" font-size="14" font-style="italic" lengthAdjust="spacing" textLength="61" x="339.95" y="76.627">Connect4</text><line style="stroke:#181818;stroke-width:0.5;" x1="285" x2="425" y1="84.7031" y2="84.7031"/><line style="stroke:#181818;stroke-width:0.5;" x1="285" x2="425" y1="92.7031" y2="92.7031"/><polygon fill="#FFFF44" points="295,102.0078,299,106.0078,295,110.0078,291,106.0078" style="stroke:#B38D22;stroke-width:1.0;"/><text fill="#000000" font-family="sans-serif" font-size="14" lengthAdjust="spacing" textLength="71" x="304" y="111.2363">Connect4()</text><polygon fill="#FFFF44" points="295,119.6172,299,123.6172,295,127.6172,291,123.6172" style="stroke:#B38D22;stroke-width:1.0;"/><text fill="#000000" font-family="sans-serif" font-size="14" font-style="italic" lengthAdjust="spacing" textLength="116" x="304" y="128.8457">createView(): View</text><polygon fill="#FFFF44" points="295,137.2266,299,141.2266,295,145.2266,291,141.2266" style="stroke:#B38D22;stroke-width:1.0;"/><text fill="#000000" font-family="sans-serif" font-size="14" font-style="italic" lengthAdjust="spacing" textLength="82" x="304" y="146.4551">PlayGames()</text><polygon fill="#FFFF44" points="295,154.8359,299,158.8359,295,162.8359,291,158.8359" style="stroke:#B38D22;stroke-width:1.0;"/><text fill="#000000" font-family="sans-serif" font-size="14" lengthAdjust="spacing" textLength="96" x="304" y="164.0645">getView(): View</text></g><!--class ConsoleConnect4--><g id="elem_ConsoleConnect4"><rect codeLine="3" fill="#F1F1F1" height="76.3125" id="ConsoleConnect4" rx="2.5" ry="2.5" style="stroke:#181818;stroke-width:0.5;" width="145" x="374.5" y="231"/><ellipse cx="389.5" cy="252.3516" fill="#ADD1B2" rx="11" ry="11" style="stroke:#181818;stroke-width:1.0;"/><path d="M392.2656,248.2266 Q392.4219,248.0078 392.6094,247.8984 Q392.7969,247.7891 393.0156,247.7891 Q393.3906,247.7891 393.625,248.0547 Q393.8594,248.3047 393.8594,248.9141 L393.8594,250.3672 Q393.8594,250.9766 393.625,251.2422 Q393.3906,251.5078 393.0156,251.5078 Q392.6719,251.5078 392.4688,251.3047 Q392.2656,251.1172 392.1563,250.6016 Q392.1094,250.2422 391.9219,250.0547 Q391.5938,249.6797 390.9844,249.4609 Q390.375,249.2422 389.75,249.2422 Q388.9844,249.2422 388.3438,249.5703 Q387.7188,249.8984 387.2188,250.6484 Q386.7344,251.3984 386.7344,252.4297 L386.7344,253.5234 Q386.7344,254.7578 387.625,255.5859 Q388.5156,256.3984 390.1094,256.3984 Q391.0469,256.3984 391.7031,256.1484 Q392.0938,255.9922 392.5156,255.5547 Q392.7813,255.2891 392.9219,255.2109 Q393.0781,255.1328 393.2813,255.1328 Q393.6094,255.1328 393.8594,255.3984 Q394.125,255.6484 394.125,255.9922 Q394.125,256.3359 393.7813,256.7422 Q393.2813,257.3203 392.4844,257.6484 Q391.4063,258.1016 390.1094,258.1016 Q388.5938,258.1016 387.3906,257.4766 Q386.4063,256.9766 385.7188,255.9141 Q385.0313,254.8359 385.0313,253.5547 L385.0313,252.3984 Q385.0313,251.0703 385.6406,249.9297 Q386.2656,248.7734 387.3594,248.1641 Q388.4531,247.5391 389.6875,247.5391 Q390.4219,247.5391 391.0625,247.7109 Q391.7188,247.8672 392.2656,248.2266 Z " fill="#000000"/><text fill="#000000" font-family="sans-serif" font-size="12" font-style="italic" lengthAdjust="spacing" textLength="105" x="407.5" y="248.457">&#171;ConcreteCreator&#187;</text><text fill="#000000" font-family="sans-serif" font-size="14" lengthAdjust="spacing" textLength="113" x="403.5" y="265.627">ConsoleConnect4</text><line style="stroke:#181818;stroke-width:0.5;" x1="375.5" x2="518.5" y1="273.7031" y2="273.7031"/><line style="stroke:#181818;stroke-width:0.5;" x1="375.5" x2="518.5" y1="281.7031" y2="281.7031"/><ellipse cx="385.5" cy="296.0078" fill="#84BE84" rx="3" ry="3" style="stroke:#038048;stroke-width:1.0;"/><text fill="#000000" font-family="sans-serif" font-size="14" lengthAdjust="spacing" text-decoration="underline" textLength="85" x="394.5" y="300.2363">main(String[])</text></g><!--class GraphicsConnect4--><g id="elem_GraphicsConnect4"><rect codeLine="4" fill="#F1F1F1" height="76.3125" id="GraphicsConnect4" rx="2.5" ry="2.5" style="stroke:#181818;stroke-width:0.5;" width="150" x="189" y="231"/><ellipse cx="204" cy="252.3516" fill="#ADD1B2" rx="11" ry="11" style="stroke:#181818;stroke-width:1.0;"/><path d="M206.7656,248.2266 Q206.9219,248.0078 207.1094,247.8984 Q207.2969,247.7891 207.5156,247.7891 Q207.8906,247.7891 208.125,248.0547 Q208.3594,248.3047 208.3594,248.9141 L208.3594,250.3672 Q208.3594,250.9766 208.125,251.2422 Q207.8906,251.5078 207.5156,251.5078 Q207.1719,251.5078 206.9688,251.3047 Q206.7656,251.1172 206.6563,250.6016 Q206.6094,250.2422 206.4219,250.0547 Q206.0938,249.6797 205.4844,249.4609 Q204.875,249.2422 204.25,249.2422 Q203.4844,249.2422 202.8438,249.5703 Q202.2188,249.8984 201.7188,250.6484 Q201.2344,251.3984 201.2344,252.4297 L201.2344,253.5234 Q201.2344,254.7578 202.125,255.5859 Q203.0156,256.3984 204.6094,256.3984 Q205.5469,256.3984 206.2031,256.1484 Q206.5938,255.9922 207.0156,255.5547 Q207.2813,255.2891 207.4219,255.2109 Q207.5781,255.1328 207.7813,255.1328 Q208.1094,255.1328 208.3594,255.3984 Q208.625,255.6484 208.625,255.9922 Q208.625,256.3359 208.2813,256.7422 Q207.7813,257.3203 206.9844,257.6484 Q205.9063,258.1016 204.6094,258.1016 Q203.0938,258.1016 201.8906,257.4766 Q200.9063,256.9766 200.2188,255.9141 Q199.5313,254.8359 199.5313,253.5547 L199.5313,252.3984 Q199.5313,251.0703 200.1406,249.9297 Q200.7656,248.7734 201.8594,248.1641 Q202.9531,247.5391 204.1875,247.5391 Q204.9219,247.5391 205.5625,247.7109 Q206.2188,247.8672 206.7656,248.2266 Z " fill="#000000"/><text fill="#000000" font-family="sans-serif" font-size="12" font-style="italic" lengthAdjust="spacing" textLength="105" x="224.5" y="248.457">&#171;ConcreteCreator&#187;</text><text fill="#000000" font-family="sans-serif" font-size="14" lengthAdjust="spacing" textLength="118" x="218" y="265.627">GraphicsConnect4</text><line style="stroke:#181818;stroke-width:0.5;" x1="190" x2="338" y1="273.7031" y2="273.7031"/><line style="stroke:#181818;stroke-width:0.5;" x1="190" x2="338" y1="281.7031" y2="281.7031"/><ellipse cx="200" cy="296.0078" fill="#84BE84" rx="3" ry="3" style="stroke:#038048;stroke-width:1.0;"/><text fill="#000000" font-family="sans-serif" font-size="14" lengthAdjust="spacing" text-decoration="underline" textLength="85" x="209" y="300.2363">main(String[])</text></g><!--class ConsoleView--><g id="elem_ConsoleView"><rect codeLine="5" fill="#F1F1F1" height="58.7031" id="ConsoleView" rx="2.5" ry="2.5" style="stroke:#181818;stroke-width:0.5;" width="151" x="198.5" y="367"/><ellipse cx="213.5" cy="388.3516" fill="#ADD1B2" rx="11" ry="11" style="stroke:#181818;stroke-width:1.0;"/><path d="M216.2656,384.2266 Q216.4219,384.0078 216.6094,383.8984 Q216.7969,383.7891 217.0156,383.7891 Q217.3906,383.7891 217.625,384.0547 Q217.8594,384.3047 217.8594,384.9141 L217.8594,386.3672 Q217.8594,386.9766 217.625,387.2422 Q217.3906,387.5078 217.0156,387.5078 Q216.6719,387.5078 216.4688,387.3047 Q216.2656,387.1172 216.1563,386.6016 Q216.1094,386.2422 215.9219,386.0547 Q215.5938,385.6797 214.9844,385.4609 Q214.375,385.2422 213.75,385.2422 Q212.9844,385.2422 212.3438,385.5703 Q211.7188,385.8984 211.2188,386.6484 Q210.7344,387.3984 210.7344,388.4297 L210.7344,389.5234 Q210.7344,390.7578 211.625,391.5859 Q212.5156,392.3984 214.1094,392.3984 Q215.0469,392.3984 215.7031,392.1484 Q216.0938,391.9922 216.5156,391.5547 Q216.7813,391.2891 216.9219,391.2109 Q217.0781,391.1328 217.2813,391.1328 Q217.6094,391.1328 217.8594,391.3984 Q218.125,391.6484 218.125,391.9922 Q218.125,392.3359 217.7813,392.7422 Q217.2813,393.3203 216.4844,393.6484 Q215.4063,394.1016 214.1094,394.1016 Q212.5938,394.1016 211.3906,393.4766 Q210.4063,392.9766 209.7188,391.9141 Q209.0313,390.8359 209.0313,389.5547 L209.0313,388.3984 Q209.0313,387.0703 209.6406,385.9297 Q210.2656,384.7734 211.3594,384.1641 Q212.4531,383.5391 213.6875,383.5391 Q214.4219,383.5391 215.0625,383.7109 Q215.7188,383.8672 216.2656,384.2266 Z " fill="#000000"/><text fill="#000000" font-family="sans-serif" font-size="12" font-style="italic" lengthAdjust="spacing" textLength="106" x="234" y="384.457">&#171;ConcreteProduct&#187;</text><text fill="#000000" font-family="sans-serif" font-size="14" lengthAdjust="spacing" textLength="119" x="227.5" y="401.627">views.ConsoleView</text><line style="stroke:#181818;stroke-width:0.5;" x1="199.5" x2="348.5" y1="409.7031" y2="409.7031"/><line style="stroke:#181818;stroke-width:0.5;" x1="199.5" x2="348.5" y1="417.7031" y2="417.7031"/></g><!--class GraphicsView--><g id="elem_GraphicsView"><rect codeLine="6" fill="#F1F1F1" height="58.7031" id="GraphicsView" rx="2.5" ry="2.5" style="stroke:#181818;stroke-width:0.5;" width="156" x="7" y="367"/><ellipse cx="22" cy="388.3516" fill="#ADD1B2" rx="11" ry="11" style="stroke:#181818;stroke-width:1.0;"/><path d="M24.7656,384.2266 Q24.9219,384.0078 25.1094,383.8984 Q25.2969,383.7891 25.5156,383.7891 Q25.8906,383.7891 26.125,384.0547 Q26.3594,384.3047 26.3594,384.9141 L26.3594,386.3672 Q26.3594,386.9766 26.125,387.2422 Q25.8906,387.5078 25.5156,387.5078 Q25.1719,387.5078 24.9688,387.3047 Q24.7656,387.1172 24.6563,386.6016 Q24.6094,386.2422 24.4219,386.0547 Q24.0938,385.6797 23.4844,385.4609 Q22.875,385.2422 22.25,385.2422 Q21.4844,385.2422 20.8438,385.5703 Q20.2188,385.8984 19.7188,386.6484 Q19.2344,387.3984 19.2344,388.4297 L19.2344,389.5234 Q19.2344,390.7578 20.125,391.5859 Q21.0156,392.3984 22.6094,392.3984 Q23.5469,392.3984 24.2031,392.1484 Q24.5938,391.9922 25.0156,391.5547 Q25.2813,391.2891 25.4219,391.2109 Q25.5781,391.1328 25.7813,391.1328 Q26.1094,391.1328 26.3594,391.3984 Q26.625,391.6484 26.625,391.9922 Q26.625,392.3359 26.2813,392.7422 Q25.7813,393.3203 24.9844,393.6484 Q23.9063,394.1016 22.6094,394.1016 Q21.0938,394.1016 19.8906,393.4766 Q18.9063,392.9766 18.2188,391.9141 Q17.5313,390.8359 17.5313,389.5547 L17.5313,388.3984 Q17.5313,387.0703 18.1406,385.9297 Q18.7656,384.7734 19.8594,384.1641 Q20.9531,383.5391 22.1875,383.5391 Q22.9219,383.5391 23.5625,383.7109 Q24.2188,383.8672 24.7656,384.2266 Z " fill="#000000"/><text fill="#000000" font-family="sans-serif" font-size="12" font-style="italic" lengthAdjust="spacing" textLength="106" x="45" y="384.457">&#171;ConcreteProduct&#187;</text><text fill="#000000" font-family="sans-serif" font-size="14" lengthAdjust="spacing" textLength="124" x="36" y="401.627">views.GraphicsView</text><line style="stroke:#181818;stroke-width:0.5;" x1="8" x2="162" y1="409.7031" y2="409.7031"/><line style="stroke:#181818;stroke-width:0.5;" x1="8" x2="162" y1="417.7031" y2="417.7031"/></g><!--class View--><g id="elem_View"><rect codeLine="7" fill="#F1F1F1" height="58.7031" id="View" rx="2.5" ry="2.5" style="stroke:#181818;stroke-width:0.5;" width="98" x="56" y="239.5"/><ellipse cx="71" cy="260.8516" fill="#B4A7E5" rx="11" ry="11" style="stroke:#181818;stroke-width:1.0;"/><path d="M71.9531,257.4922 L71.9531,264.1484 L73.6719,264.1484 Q74.2813,264.1484 74.5469,264.3828 Q74.8125,264.6172 74.8125,265.0078 Q74.8125,265.3828 74.5469,265.6172 Q74.2813,265.8516 73.6719,265.8516 L68.5313,265.8516 Q67.9219,265.8516 67.6563,265.6172 Q67.3906,265.3828 67.3906,264.9922 Q67.3906,264.6172 67.6563,264.3828 Q67.9219,264.1484 68.5313,264.1484 L70.25,264.1484 L70.25,257.4922 L68.5313,257.4922 Q67.9219,257.4922 67.6563,257.2578 Q67.3906,257.0234 67.3906,256.6328 Q67.3906,256.2578 67.6563,256.0234 Q67.9219,255.7891 68.5313,255.7891 L73.6719,255.7891 Q74.2813,255.7891 74.5469,256.0234 Q74.8125,256.2578 74.8125,256.6328 Q74.8125,257.0234 74.5469,257.2578 Q74.2813,257.4922 73.6719,257.4922 L71.9531,257.4922 Z " fill="#000000"/><text fill="#000000" font-family="sans-serif" font-size="12" font-style="italic" lengthAdjust="spacing" textLength="56" x="90" y="256.957">&#171;Product&#187;</text><text fill="#000000" font-family="sans-serif" font-size="14" font-style="italic" lengthAdjust="spacing" textLength="66" x="85" y="274.127">views.View</text><line style="stroke:#181818;stroke-width:0.5;" x1="57" x2="153" y1="282.2031" y2="282.2031"/><line style="stroke:#181818;stroke-width:0.5;" x1="57" x2="153" y1="290.2031" y2="290.2031"/></g><!--class Logic--><g id="elem_Logic"><rect codeLine="8" fill="#F1F1F1" height="48" id="Logic" rx="2.5" ry="2.5" style="stroke:#181818;stroke-width:0.5;" width="136" x="555" y="245"/><ellipse cx="570" cy="261" fill="#ADD1B2" rx="11" ry="11" style="stroke:#181818;stroke-width:1.0;"/><path d="M572.7656,256.875 Q572.9219,256.6563 573.1094,256.5469 Q573.2969,256.4375 573.5156,256.4375 Q573.8906,256.4375 574.125,256.7031 Q574.3594,256.9531 574.3594,257.5625 L574.3594,259.0156 Q574.3594,259.625 574.125,259.8906 Q573.8906,260.1563 573.5156,260.1563 Q573.1719,260.1563 572.9688,259.9531 Q572.7656,259.7656 572.6563,259.25 Q572.6094,258.8906 572.4219,258.7031 Q572.0938,258.3281 571.4844,258.1094 Q570.875,257.8906 570.25,257.8906 Q569.4844,257.8906 568.8438,258.2188 Q568.2188,258.5469 567.7188,259.2969 Q567.2344,260.0469 567.2344,261.0781 L567.2344,262.1719 Q567.2344,263.4063 568.125,264.2344 Q569.0156,265.0469 570.6094,265.0469 Q571.5469,265.0469 572.2031,264.7969 Q572.5938,264.6406 573.0156,264.2031 Q573.2813,263.9375 573.4219,263.8594 Q573.5781,263.7813 573.7813,263.7813 Q574.1094,263.7813 574.3594,264.0469 Q574.625,264.2969 574.625,264.6406 Q574.625,264.9844 574.2813,265.3906 Q573.7813,265.9688 572.9844,266.2969 Q571.9063,266.75 570.6094,266.75 Q569.0938,266.75 567.8906,266.125 Q566.9063,265.625 566.2188,264.5625 Q565.5313,263.4844 565.5313,262.2031 L565.5313,261.0469 Q565.5313,259.7188 566.1406,258.5781 Q566.7656,257.4219 567.8594,256.8125 Q568.9531,256.1875 570.1875,256.1875 Q570.9219,256.1875 571.5625,256.3594 Q572.2188,256.5156 572.7656,256.875 Z " fill="#000000"/><text fill="#000000" font-family="sans-serif" font-size="14" lengthAdjust="spacing" textLength="104" x="584" y="266.7285">controllers.Logic</text><line style="stroke:#181818;stroke-width:0.5;" x1="556" x2="690" y1="277" y2="277"/><line style="stroke:#181818;stroke-width:0.5;" x1="556" x2="690" y1="285" y2="285"/></g><!--class Controller--><g id="elem_Controller"><rect codeLine="9" fill="#F1F1F1" height="48" id="Controller" rx="2.5" ry="2.5" style="stroke:#181818;stroke-width:0.5;" width="164" x="385" y="372.5"/><ellipse cx="400" cy="388.5" fill="#ADD1B2" rx="11" ry="11" style="stroke:#181818;stroke-width:1.0;"/><path d="M402.7656,384.375 Q402.9219,384.1563 403.1094,384.0469 Q403.2969,383.9375 403.5156,383.9375 Q403.8906,383.9375 404.125,384.2031 Q404.3594,384.4531 404.3594,385.0625 L404.3594,386.5156 Q404.3594,387.125 404.125,387.3906 Q403.8906,387.6563 403.5156,387.6563 Q403.1719,387.6563 402.9688,387.4531 Q402.7656,387.2656 402.6563,386.75 Q402.6094,386.3906 402.4219,386.2031 Q402.0938,385.8281 401.4844,385.6094 Q400.875,385.3906 400.25,385.3906 Q399.4844,385.3906 398.8438,385.7188 Q398.2188,386.0469 397.7188,386.7969 Q397.2344,387.5469 397.2344,388.5781 L397.2344,389.6719 Q397.2344,390.9063 398.125,391.7344 Q399.0156,392.5469 400.6094,392.5469 Q401.5469,392.5469 402.2031,392.2969 Q402.5938,392.1406 403.0156,391.7031 Q403.2813,391.4375 403.4219,391.3594 Q403.5781,391.2813 403.7813,391.2813 Q404.1094,391.2813 404.3594,391.5469 Q404.625,391.7969 404.625,392.1406 Q404.625,392.4844 404.2813,392.8906 Q403.7813,393.4688 402.9844,393.7969 Q401.9063,394.25 400.6094,394.25 Q399.0938,394.25 397.8906,393.625 Q396.9063,393.125 396.2188,392.0625 Q395.5313,390.9844 395.5313,389.7031 L395.5313,388.5469 Q395.5313,387.2188 396.1406,386.0781 Q396.7656,384.9219 397.8594,384.3125 Q398.9531,383.6875 400.1875,383.6875 Q400.9219,383.6875 401.5625,383.8594 Q402.2188,384.0156 402.7656,384.375 Z " fill="#000000"/><text fill="#000000" font-family="sans-serif" font-size="14" lengthAdjust="spacing" textLength="132" x="414" y="394.2285">controllers.Controller</text><line style="stroke:#181818;stroke-width:0.5;" x1="386" x2="548" y1="404.5" y2="404.5"/><line style="stroke:#181818;stroke-width:0.5;" x1="386" x2="548" y1="412.5" y2="412.5"/></g><!--reverse link Connect4 to ConsoleConnect4--><g id="link_Connect4_ConsoleConnect4"><path codeLine="11" d="M400.5806,187.0169 C412.1006,207.1169 415.5,213.04 425.6,230.66 " fill="none" id="Connect4-backto-ConsoleConnect4" style="stroke:#181818;stroke-width:1.0;"/><polygon fill="none" points="391.63,171.4,395.3749,190.0004,405.7862,184.0334,391.63,171.4" style="stroke:#181818;stroke-width:1.0;"/></g><!--reverse link Connect4 to GraphicsConnect4--><g id="link_Connect4_GraphicsConnect4"><path codeLine="12" d="M309.8899,187.0571 C298.4899,207.1571 295.16,213.04 285.17,230.66 " fill="none" id="Connect4-backto-GraphicsConnect4" style="stroke:#181818;stroke-width:1.0;"/><polygon fill="none" points="318.77,171.4,304.6709,184.097,315.1089,190.0171,318.77,171.4" style="stroke:#181818;stroke-width:1.0;"/></g><!--link Connect4 to View--><g id="link_Connect4_View"><path codeLine="13" d="M273.5917,159.7626 C230.4417,187.4626 191.899,212.2084 154.689,236.0984 " fill="none" id="Connect4-View" style="stroke:#181818;stroke-width:1.0;"/><polygon fill="#181818" points="283.69,153.28,276.48,153.1552,273.5917,159.7626,280.8017,159.8874,283.69,153.28" style="stroke:#181818;stroke-width:1.0;"/><polygon fill="#181818" points="149.64,239.34,159.3745,237.8436,153.8475,236.6387,155.0524,231.1116,149.64,239.34" style="stroke:#181818;stroke-width:1.0;"/></g><!--link Connect4 to Logic--><g id="link_Connect4_Logic"><path codeLine="14" d="M436.4144,156.2565 C487.1144,186.6265 537.9228,217.0467 579.1728,241.7567 " fill="none" id="Connect4-Logic" style="stroke:#181818;stroke-width:1.0;"/><polygon fill="#181818" points="426.12,150.09,429.2117,156.6047,436.4144,156.2565,433.3227,149.7418,426.12,150.09" style="stroke:#181818;stroke-width:1.0;"/><polygon fill="#181818" points="584.32,244.84,578.6548,236.7836,580.0307,242.2706,574.5437,243.6465,584.32,244.84" style="stroke:#181818;stroke-width:1.0;"/></g><!--link GraphicsConnect4 to GraphicsView--><g id="link_GraphicsConnect4_GraphicsView"><path codeLine="16" d="M210.78,307.31 C183.57,326.39 155.8929,345.7957 130.7029,363.4557 " fill="none" id="GraphicsConnect4-to-GraphicsView" style="stroke:#181818;stroke-width:1.0;stroke-dasharray:7.0,7.0;"/><polygon fill="#181818" points="125.79,366.9,135.4556,365.0088,129.8841,364.0297,130.8632,358.4583,125.79,366.9" style="stroke:#181818;stroke-width:1.0;"/></g><!--link ConsoleConnect4 to ConsoleView--><g id="link_ConsoleConnect4_ConsoleView"><path codeLine="17" d="M395.56,307.31 C369.27,326.39 342.6264,345.7164 318.2864,363.3764 " fill="none" id="ConsoleConnect4-to-ConsoleView" style="stroke:#181818;stroke-width:1.0;stroke-dasharray:7.0,7.0;"/><polygon fill="#181818" points="313.43,366.9,323.0636,364.8522,317.477,363.9637,318.3655,358.3771,313.43,366.9" style="stroke:#181818;stroke-width:1.0;"/></g><!--link ConsoleConnect4 to Controller--><g id="link_ConsoleConnect4_Controller"><path codeLine="19" d="M452.95,307.31 C456.31,328.41 459.4659,348.2047 462.3659,366.4047 " fill="none" id="ConsoleConnect4-to-Controller" style="stroke:#181818;stroke-width:1.0;stroke-dasharray:7.0,7.0;"/><polygon fill="#181818" points="463.31,372.33,465.844,362.8127,462.5232,367.3923,457.9436,364.0715,463.31,372.33" style="stroke:#181818;stroke-width:1.0;"/></g><!--link GraphicsConnect4 to Controller--><g id="link_GraphicsConnect4_Controller"><path codeLine="20" d="M319.77,307.23 C331.97,315.19 344.86,323.47 357,331 C379.76,345.13 400.3853,357.3075 421.2853,369.3875 " fill="none" id="GraphicsConnect4-to-Controller" style="stroke:#181818;stroke-width:1.0;stroke-dasharray:7.0,7.0;"/><polygon fill="#181818" points="426.48,372.39,420.6896,364.4231,422.1511,369.8879,416.6863,371.3494,426.48,372.39" style="stroke:#181818;stroke-width:1.0;"/></g><!--reverse link View to ConsoleView--><g id="link_View_ConsoleView"><path codeLine="23" d="M148.1731,310.8884 C159.7231,321.4684 159.99,321.12 173,331 C189.57,343.59 208.6,356.18 225.65,366.86 " fill="none" id="View-backto-ConsoleView" style="stroke:#181818;stroke-width:1.0;"/><polygon fill="none" points="134.9,298.73,144.1203,315.3127,152.2259,306.464,134.9,298.73" style="stroke:#181818;stroke-width:1.0;"/></g><!--reverse link View to GraphicsView--><g id="link_View_GraphicsView"><path codeLine="24" d="M97.5794,316.566 C94.3294,336.976 92.81,346.46 89.57,366.84 " fill="none" id="View-backto-GraphicsView" style="stroke:#181818;stroke-width:1.0;"/><polygon fill="none" points="100.41,298.79,91.6541,315.6225,103.5048,317.5096,100.41,298.79" style="stroke:#181818;stroke-width:1.0;"/></g><!--SRC=[ZLAnJiCm4Dtz5LQo9A1aOgggB1swC5H2Oa4Cnt44IwwDx0E4eFzEQYNOSHg9xVJklRjxpuOdpmwG9MhmNg8rXf1lsjrOoErsvmZOkguJIuwtcbAgDUY8QLMoT_3sgj3_GpDElrVqAS7BucCeV9kWHI8-EFlyZlmddlPawXI-B5U6oRq0aioaaoJVT6jxXO4tc6HdjIRdsu0MqSdOMF1Ygn0YXlBJD39BD-lcGSRsLTDquVWC2YS9iNY1jkrcSOdyMS-497QnHXYDNDwGz8K8qQOcmzo8piw9DZQodEggJk5l67_ngSJpBmhpgdgJnJ0Z7ZHyxU58VZwgx8bdwgMTOOndO8MdwoCeKzsnKwP_UAmNmQmpVm40]--></g></svg>