<?xml version="1.0" encoding="us-ascii" standalone="no"?><svg xmlns="http://www.w3.org/2000/svg" xmlns:xlink="http://www.w3.org/1999/xlink" contentStyleType="text/css" height="451px" preserveAspectRatio="none" style="width:557px;height:451px;background:#FFFFFF;" version="1.1" viewBox="0 0 557 451" width="557px" zoomAndPan="magnify"><defs/><g><!--cluster connect4--><g id="cluster_connect4"><path d="M38.93,6 L104.93,6 A3.75,3.75 0 0 1 107.43,8.5 L114.43,29.6094 L404.93,29.6094 A2.5,2.5 0 0 1 407.43,32.1094 L407.43,339.5 A2.5,2.5 0 0 1 404.93,342 L38.93,342 A2.5,2.5 0 0 1 36.43,339.5 L36.43,8.5 A2.5,2.5 0 0 1 38.93,6 " fill="none" style="stroke:#000000;stroke-width:1.5;"/><line style="stroke:#000000;stroke-width:1.5;" x1="36.43" x2="114.43" y1="29.6094" y2="29.6094"/><text fill="#000000" font-family="sans-serif" font-size="14" font-weight="bold" lengthAdjust="spacing" textLength="65" x="40.43" y="22.5332">connect4</text></g><!--class Connect4--><g id="elem_Connect4"><rect codeLine="2" fill="#F1F1F1" height="111.5313" id="Connect4" rx="2.5" ry="2.5" style="stroke:#181818;stroke-width:0.5;" width="180" x="131.43" y="42"/><ellipse cx="186.68" cy="63.3516" fill="#A9DCDF" rx="11" ry="11" style="stroke:#181818;stroke-width:1.0;"/><path d="M188.8675,65.1172 L184.7269,65.1172 L184.305,66.1484 L184.7269,66.1484 Q185.3363,66.1484 185.6019,66.3828 Q185.8675,66.6172 185.8675,67.0078 Q185.8675,67.3828 185.6019,67.6172 Q185.3363,67.8516 184.7269,67.8516 L182.43,67.8516 Q181.8206,67.8516 181.5706,67.6172 Q181.305,67.3828 181.305,66.9922 Q181.305,66.6172 181.5863,66.3828 Q181.8519,66.1328 182.4769,66.1484 L185.1488,59.4922 L184.0394,59.4922 Q183.43,59.4922 183.1644,59.2578 Q182.8988,59.0234 182.8988,58.6328 Q182.8988,58.2578 183.1644,58.0234 Q183.43,57.7891 184.0394,57.7891 L187.7113,57.7891 L191.1019,66.1484 Q191.6956,66.1484 191.8831,66.2891 Q192.2738,66.5547 192.2738,67.0078 Q192.2738,67.3828 192.0081,67.6172 Q191.7581,67.8516 191.1488,67.8516 L188.8519,67.8516 Q188.2425,67.8516 187.9769,67.6172 Q187.7113,67.3828 187.7113,66.9922 Q187.7113,66.6172 187.9769,66.3828 Q188.2425,66.1484 188.8519,66.1484 L189.2738,66.1484 L188.8675,65.1172 Z M188.1488,63.4141 L186.7894,60.0391 L185.4144,63.4141 L188.1488,63.4141 Z " fill="#000000"/><text fill="#000000" font-family="sans-serif" font-size="12" font-style="italic" lengthAdjust="spacing" textLength="55" x="210.18" y="59.457">&#171;Creator&#187;</text><text fill="#000000" font-family="sans-serif" font-size="14" font-style="italic" lengthAdjust="spacing" textLength="61" x="207.18" y="76.627">Connect4</text><line style="stroke:#181818;stroke-width:0.5;" x1="132.43" x2="310.43" y1="84.7031" y2="84.7031"/><line style="stroke:#181818;stroke-width:0.5;" x1="132.43" x2="310.43" y1="92.7031" y2="92.7031"/><polygon fill="#FFFF44" points="142.43,102.0078,146.43,106.0078,142.43,110.0078,138.43,106.0078" style="stroke:#B38D22;stroke-width:1.0;"/><text fill="#000000" font-family="sans-serif" font-size="14" lengthAdjust="spacing" textLength="71" x="151.43" y="111.2363">Connect4()</text><polygon fill="#FFFF44" points="142.43,119.6172,146.43,123.6172,142.43,127.6172,138.43,123.6172" style="stroke:#B38D22;stroke-width:1.0;"/><text fill="#000000" font-family="sans-serif" font-size="14" font-style="italic" lengthAdjust="spacing" textLength="154" x="151.43" y="128.8457">createView(Game): View</text><polygon fill="#FFFF44" points="142.43,137.2266,146.43,141.2266,142.43,145.2266,138.43,141.2266" style="stroke:#B38D22;stroke-width:1.0;"/><text fill="#000000" font-family="sans-serif" font-size="14" font-style="italic" lengthAdjust="spacing" textLength="82" x="151.43" y="146.4551">PlayGames()</text></g><!--class ConsoleConnect4--><g id="elem_ConsoleConnect4"><rect codeLine="3" fill="#F1F1F1" height="111.5313" id="ConsoleConnect4" rx="2.5" ry="2.5" style="stroke:#181818;stroke-width:0.5;" width="149" x="241.93" y="214"/><ellipse cx="258.73" cy="235.3516" fill="#ADD1B2" rx="11" ry="11" style="stroke:#181818;stroke-width:1.0;"/><path d="M261.4956,231.2266 Q261.6519,231.0078 261.8394,230.8984 Q262.0269,230.7891 262.2456,230.7891 Q262.6206,230.7891 262.855,231.0547 Q263.0894,231.3047 263.0894,231.9141 L263.0894,233.3672 Q263.0894,233.9766 262.855,234.2422 Q262.6206,234.5078 262.2456,234.5078 Q261.9019,234.5078 261.6988,234.3047 Q261.4956,234.1172 261.3863,233.6016 Q261.3394,233.2422 261.1519,233.0547 Q260.8238,232.6797 260.2144,232.4609 Q259.605,232.2422 258.98,232.2422 Q258.2144,232.2422 257.5738,232.5703 Q256.9488,232.8984 256.4488,233.6484 Q255.9644,234.3984 255.9644,235.4297 L255.9644,236.5234 Q255.9644,237.7578 256.855,238.5859 Q257.7456,239.3984 259.3394,239.3984 Q260.2769,239.3984 260.9331,239.1484 Q261.3238,238.9922 261.7456,238.5547 Q262.0113,238.2891 262.1519,238.2109 Q262.3081,238.1328 262.5113,238.1328 Q262.8394,238.1328 263.0894,238.3984 Q263.355,238.6484 263.355,238.9922 Q263.355,239.3359 263.0113,239.7422 Q262.5113,240.3203 261.7144,240.6484 Q260.6363,241.1016 259.3394,241.1016 Q257.8238,241.1016 256.6206,240.4766 Q255.6363,239.9766 254.9488,238.9141 Q254.2613,237.8359 254.2613,236.5547 L254.2613,235.3984 Q254.2613,234.0703 254.8706,232.9297 Q255.4956,231.7734 256.5894,231.1641 Q257.6831,230.5391 258.9175,230.5391 Q259.6519,230.5391 260.2925,230.7109 Q260.9488,230.8672 261.4956,231.2266 Z " fill="#000000"/><text fill="#000000" font-family="sans-serif" font-size="12" font-style="italic" lengthAdjust="spacing" textLength="105" x="277.13" y="231.457">&#171;ConcreteCreator&#187;</text><text fill="#000000" font-family="sans-serif" font-size="14" lengthAdjust="spacing" textLength="113" x="273.13" y="248.627">ConsoleConnect4</text><line style="stroke:#181818;stroke-width:0.5;" x1="242.93" x2="389.93" y1="256.7031" y2="256.7031"/><line style="stroke:#181818;stroke-width:0.5;" x1="242.93" x2="389.93" y1="264.7031" y2="264.7031"/><polygon fill="#FFFF44" points="252.93,274.0078,256.93,278.0078,252.93,282.0078,248.93,278.0078" style="stroke:#B38D22;stroke-width:1.0;"/><text fill="#000000" font-family="sans-serif" font-size="14" lengthAdjust="spacing" textLength="123" x="261.93" y="283.2363">ConsoleConnect4()</text><polygon fill="#FFFF44" points="252.93,291.6172,256.93,295.6172,252.93,299.6172,248.93,295.6172" style="stroke:#B38D22;stroke-width:1.0;"/><text fill="#000000" font-family="sans-serif" font-size="14" lengthAdjust="spacing" textLength="81" x="261.93" y="300.8457">playGames()</text><ellipse cx="252.93" cy="314.2266" fill="#84BE84" rx="3" ry="3" style="stroke:#038048;stroke-width:1.0;"/><text fill="#000000" font-family="sans-serif" font-size="14" lengthAdjust="spacing" text-decoration="underline" textLength="85" x="261.93" y="318.4551">main(String[])</text></g><!--class GraphicsConnect4--><g id="elem_GraphicsConnect4"><rect codeLine="4" fill="#F1F1F1" height="111.5313" id="GraphicsConnect4" rx="2.5" ry="2.5" style="stroke:#181818;stroke-width:0.5;" width="154" x="52.43" y="214"/><ellipse cx="69.23" cy="235.3516" fill="#ADD1B2" rx="11" ry="11" style="stroke:#181818;stroke-width:1.0;"/><path d="M71.9956,231.2266 Q72.1519,231.0078 72.3394,230.8984 Q72.5269,230.7891 72.7456,230.7891 Q73.1206,230.7891 73.355,231.0547 Q73.5894,231.3047 73.5894,231.9141 L73.5894,233.3672 Q73.5894,233.9766 73.355,234.2422 Q73.1206,234.5078 72.7456,234.5078 Q72.4019,234.5078 72.1987,234.3047 Q71.9956,234.1172 71.8862,233.6016 Q71.8394,233.2422 71.6519,233.0547 Q71.3237,232.6797 70.7144,232.4609 Q70.105,232.2422 69.48,232.2422 Q68.7144,232.2422 68.0737,232.5703 Q67.4487,232.8984 66.9487,233.6484 Q66.4644,234.3984 66.4644,235.4297 L66.4644,236.5234 Q66.4644,237.7578 67.355,238.5859 Q68.2456,239.3984 69.8394,239.3984 Q70.7769,239.3984 71.4331,239.1484 Q71.8237,238.9922 72.2456,238.5547 Q72.5112,238.2891 72.6519,238.2109 Q72.8081,238.1328 73.0112,238.1328 Q73.3394,238.1328 73.5894,238.3984 Q73.855,238.6484 73.855,238.9922 Q73.855,239.3359 73.5112,239.7422 Q73.0112,240.3203 72.2144,240.6484 Q71.1362,241.1016 69.8394,241.1016 Q68.3237,241.1016 67.1206,240.4766 Q66.1362,239.9766 65.4487,238.9141 Q64.7612,237.8359 64.7612,236.5547 L64.7612,235.3984 Q64.7612,234.0703 65.3706,232.9297 Q65.9956,231.7734 67.0894,231.1641 Q68.1831,230.5391 69.4175,230.5391 Q70.1519,230.5391 70.7925,230.7109 Q71.4487,230.8672 71.9956,231.2266 Z " fill="#000000"/><text fill="#000000" font-family="sans-serif" font-size="12" font-style="italic" lengthAdjust="spacing" textLength="105" x="90.13" y="231.457">&#171;ConcreteCreator&#187;</text><text fill="#000000" font-family="sans-serif" font-size="14" lengthAdjust="spacing" textLength="118" x="83.63" y="248.627">GraphicsConnect4</text><line style="stroke:#181818;stroke-width:0.5;" x1="53.43" x2="205.43" y1="256.7031" y2="256.7031"/><line style="stroke:#181818;stroke-width:0.5;" x1="53.43" x2="205.43" y1="264.7031" y2="264.7031"/><polygon fill="#FFFF44" points="63.43,274.0078,67.43,278.0078,63.43,282.0078,59.43,278.0078" style="stroke:#B38D22;stroke-width:1.0;"/><text fill="#000000" font-family="sans-serif" font-size="14" lengthAdjust="spacing" textLength="128" x="72.43" y="283.2363">GraphicsConnect4()</text><polygon fill="#FFFF44" points="63.43,291.6172,67.43,295.6172,63.43,299.6172,59.43,295.6172" style="stroke:#B38D22;stroke-width:1.0;"/><text fill="#000000" font-family="sans-serif" font-size="14" lengthAdjust="spacing" textLength="81" x="72.43" y="300.8457">playGames()</text><ellipse cx="63.43" cy="314.2266" fill="#84BE84" rx="3" ry="3" style="stroke:#038048;stroke-width:1.0;"/><text fill="#000000" font-family="sans-serif" font-size="14" lengthAdjust="spacing" text-decoration="underline" textLength="85" x="72.43" y="318.4551">main(String[])</text></g><!--class Game--><g id="elem_Game"><rect codeLine="5" fill="#F1F1F1" height="48" id="Game" rx="2.5" ry="2.5" style="stroke:#181818;stroke-width:0.5;" width="119" x="53.93" y="391.5"/><ellipse cx="68.93" cy="407.5" fill="#ADD1B2" rx="11" ry="11" style="stroke:#181818;stroke-width:1.0;"/><path d="M71.6956,403.375 Q71.8519,403.1563 72.0394,403.0469 Q72.2269,402.9375 72.4456,402.9375 Q72.8206,402.9375 73.055,403.2031 Q73.2894,403.4531 73.2894,404.0625 L73.2894,405.5156 Q73.2894,406.125 73.055,406.3906 Q72.8206,406.6563 72.4456,406.6563 Q72.1019,406.6563 71.8988,406.4531 Q71.6956,406.2656 71.5863,405.75 Q71.5394,405.3906 71.3519,405.2031 Q71.0238,404.8281 70.4144,404.6094 Q69.805,404.3906 69.18,404.3906 Q68.4144,404.3906 67.7738,404.7188 Q67.1488,405.0469 66.6488,405.7969 Q66.1644,406.5469 66.1644,407.5781 L66.1644,408.6719 Q66.1644,409.9063 67.055,410.7344 Q67.9456,411.5469 69.5394,411.5469 Q70.4769,411.5469 71.1331,411.2969 Q71.5238,411.1406 71.9456,410.7031 Q72.2113,410.4375 72.3519,410.3594 Q72.5081,410.2813 72.7113,410.2813 Q73.0394,410.2813 73.2894,410.5469 Q73.555,410.7969 73.555,411.1406 Q73.555,411.4844 73.2113,411.8906 Q72.7113,412.4688 71.9144,412.7969 Q70.8363,413.25 69.5394,413.25 Q68.0238,413.25 66.8206,412.625 Q65.8363,412.125 65.1488,411.0625 Q64.4613,409.9844 64.4613,408.7031 L64.4613,407.5469 Q64.4613,406.2188 65.0706,405.0781 Q65.6956,403.9219 66.7894,403.3125 Q67.8831,402.6875 69.1175,402.6875 Q69.8519,402.6875 70.4925,402.8594 Q71.1488,403.0156 71.6956,403.375 Z " fill="#000000"/><text fill="#000000" font-family="sans-serif" font-size="14" lengthAdjust="spacing" textLength="87" x="82.93" y="413.2285">models.Game</text><line style="stroke:#181818;stroke-width:0.5;" x1="54.93" x2="171.93" y1="423.5" y2="423.5"/><line style="stroke:#181818;stroke-width:0.5;" x1="54.93" x2="171.93" y1="431.5" y2="431.5"/></g><!--class ConsoleView--><g id="elem_ConsoleView"><rect codeLine="6" fill="#F1F1F1" height="58.7031" id="ConsoleView" rx="2.5" ry="2.5" style="stroke:#181818;stroke-width:0.5;" width="151" x="399.93" y="386"/><ellipse cx="414.93" cy="407.3516" fill="#ADD1B2" rx="11" ry="11" style="stroke:#181818;stroke-width:1.0;"/><path d="M417.6956,403.2266 Q417.8519,403.0078 418.0394,402.8984 Q418.2269,402.7891 418.4456,402.7891 Q418.8206,402.7891 419.055,403.0547 Q419.2894,403.3047 419.2894,403.9141 L419.2894,405.3672 Q419.2894,405.9766 419.055,406.2422 Q418.8206,406.5078 418.4456,406.5078 Q418.1019,406.5078 417.8988,406.3047 Q417.6956,406.1172 417.5863,405.6016 Q417.5394,405.2422 417.3519,405.0547 Q417.0238,404.6797 416.4144,404.4609 Q415.805,404.2422 415.18,404.2422 Q414.4144,404.2422 413.7738,404.5703 Q413.1488,404.8984 412.6488,405.6484 Q412.1644,406.3984 412.1644,407.4297 L412.1644,408.5234 Q412.1644,409.7578 413.055,410.5859 Q413.9456,411.3984 415.5394,411.3984 Q416.4769,411.3984 417.1331,411.1484 Q417.5238,410.9922 417.9456,410.5547 Q418.2113,410.2891 418.3519,410.2109 Q418.5081,410.1328 418.7113,410.1328 Q419.0394,410.1328 419.2894,410.3984 Q419.555,410.6484 419.555,410.9922 Q419.555,411.3359 419.2113,411.7422 Q418.7113,412.3203 417.9144,412.6484 Q416.8363,413.1016 415.5394,413.1016 Q414.0238,413.1016 412.8206,412.4766 Q411.8363,411.9766 411.1488,410.9141 Q410.4613,409.8359 410.4613,408.5547 L410.4613,407.3984 Q410.4613,406.0703 411.0706,404.9297 Q411.6956,403.7734 412.7894,403.1641 Q413.8831,402.5391 415.1175,402.5391 Q415.8519,402.5391 416.4925,402.7109 Q417.1488,402.8672 417.6956,403.2266 Z " fill="#000000"/><text fill="#000000" font-family="sans-serif" font-size="12" font-style="italic" lengthAdjust="spacing" textLength="106" x="435.43" y="403.457">&#171;ConcreteProduct&#187;</text><text fill="#000000" font-family="sans-serif" font-size="14" lengthAdjust="spacing" textLength="119" x="428.93" y="420.627">views.ConsoleView</text><line style="stroke:#181818;stroke-width:0.5;" x1="400.93" x2="549.93" y1="428.7031" y2="428.7031"/><line style="stroke:#181818;stroke-width:0.5;" x1="400.93" x2="549.93" y1="436.7031" y2="436.7031"/></g><!--class GraphicsView--><g id="elem_GraphicsView"><rect codeLine="7" fill="#F1F1F1" height="58.7031" id="GraphicsView" rx="2.5" ry="2.5" style="stroke:#181818;stroke-width:0.5;" width="156" x="208.43" y="386"/><ellipse cx="223.43" cy="407.3516" fill="#ADD1B2" rx="11" ry="11" style="stroke:#181818;stroke-width:1.0;"/><path d="M226.1956,403.2266 Q226.3519,403.0078 226.5394,402.8984 Q226.7269,402.7891 226.9456,402.7891 Q227.3206,402.7891 227.555,403.0547 Q227.7894,403.3047 227.7894,403.9141 L227.7894,405.3672 Q227.7894,405.9766 227.555,406.2422 Q227.3206,406.5078 226.9456,406.5078 Q226.6019,406.5078 226.3987,406.3047 Q226.1956,406.1172 226.0862,405.6016 Q226.0394,405.2422 225.8519,405.0547 Q225.5237,404.6797 224.9144,404.4609 Q224.305,404.2422 223.68,404.2422 Q222.9144,404.2422 222.2737,404.5703 Q221.6487,404.8984 221.1487,405.6484 Q220.6644,406.3984 220.6644,407.4297 L220.6644,408.5234 Q220.6644,409.7578 221.555,410.5859 Q222.4456,411.3984 224.0394,411.3984 Q224.9769,411.3984 225.6331,411.1484 Q226.0237,410.9922 226.4456,410.5547 Q226.7112,410.2891 226.8519,410.2109 Q227.0081,410.1328 227.2112,410.1328 Q227.5394,410.1328 227.7894,410.3984 Q228.055,410.6484 228.055,410.9922 Q228.055,411.3359 227.7112,411.7422 Q227.2112,412.3203 226.4144,412.6484 Q225.3362,413.1016 224.0394,413.1016 Q222.5237,413.1016 221.3206,412.4766 Q220.3362,411.9766 219.6487,410.9141 Q218.9612,409.8359 218.9612,408.5547 L218.9612,407.3984 Q218.9612,406.0703 219.5706,404.9297 Q220.1956,403.7734 221.2894,403.1641 Q222.3831,402.5391 223.6175,402.5391 Q224.3519,402.5391 224.9925,402.7109 Q225.6487,402.8672 226.1956,403.2266 Z " fill="#000000"/><text fill="#000000" font-family="sans-serif" font-size="12" font-style="italic" lengthAdjust="spacing" textLength="106" x="246.43" y="403.457">&#171;ConcreteProduct&#187;</text><text fill="#000000" font-family="sans-serif" font-size="14" lengthAdjust="spacing" textLength="124" x="237.43" y="420.627">views.GraphicsView</text><line style="stroke:#181818;stroke-width:0.5;" x1="209.43" x2="363.43" y1="428.7031" y2="428.7031"/><line style="stroke:#181818;stroke-width:0.5;" x1="209.43" x2="363.43" y1="436.7031" y2="436.7031"/></g><!--class View--><g id="elem_View"><rect codeLine="8" fill="#F1F1F1" height="58.7031" id="View" rx="2.5" ry="2.5" style="stroke:#181818;stroke-width:0.5;" width="99" x="425.93" y="240.5"/><ellipse cx="440.93" cy="261.8516" fill="#ADD1B2" rx="11" ry="11" style="stroke:#181818;stroke-width:1.0;"/><path d="M443.6956,257.7266 Q443.8519,257.5078 444.0394,257.3984 Q444.2269,257.2891 444.4456,257.2891 Q444.8206,257.2891 445.055,257.5547 Q445.2894,257.8047 445.2894,258.4141 L445.2894,259.8672 Q445.2894,260.4766 445.055,260.7422 Q444.8206,261.0078 444.4456,261.0078 Q444.1019,261.0078 443.8988,260.8047 Q443.6956,260.6172 443.5863,260.1016 Q443.5394,259.7422 443.3519,259.5547 Q443.0238,259.1797 442.4144,258.9609 Q441.805,258.7422 441.18,258.7422 Q440.4144,258.7422 439.7738,259.0703 Q439.1488,259.3984 438.6488,260.1484 Q438.1644,260.8984 438.1644,261.9297 L438.1644,263.0234 Q438.1644,264.2578 439.055,265.0859 Q439.9456,265.8984 441.5394,265.8984 Q442.4769,265.8984 443.1331,265.6484 Q443.5238,265.4922 443.9456,265.0547 Q444.2113,264.7891 444.3519,264.7109 Q444.5081,264.6328 444.7113,264.6328 Q445.0394,264.6328 445.2894,264.8984 Q445.555,265.1484 445.555,265.4922 Q445.555,265.8359 445.2113,266.2422 Q444.7113,266.8203 443.9144,267.1484 Q442.8363,267.6016 441.5394,267.6016 Q440.0238,267.6016 438.8206,266.9766 Q437.8363,266.4766 437.1488,265.4141 Q436.4613,264.3359 436.4613,263.0547 L436.4613,261.8984 Q436.4613,260.5703 437.0706,259.4297 Q437.6956,258.2734 438.7894,257.6641 Q439.8831,257.0391 441.1175,257.0391 Q441.8519,257.0391 442.4925,257.2109 Q443.1488,257.3672 443.6956,257.7266 Z " fill="#000000"/><text fill="#000000" font-family="sans-serif" font-size="12" font-style="italic" lengthAdjust="spacing" textLength="56" x="460.43" y="257.957">&#171;Product&#187;</text><text fill="#000000" font-family="sans-serif" font-size="14" lengthAdjust="spacing" textLength="67" x="454.93" y="275.127">views.View</text><line style="stroke:#181818;stroke-width:0.5;" x1="426.93" x2="523.93" y1="283.2031" y2="283.2031"/><line style="stroke:#181818;stroke-width:0.5;" x1="426.93" x2="523.93" y1="291.2031" y2="291.2031"/></g><!--reverse link Connect4 to ConsoleConnect4--><g id="link_Connect4_ConsoleConnect4"><path codeLine="10" d="M261.0548,169.9007 C271.7348,189.0007 274.9,194.69 285.58,213.79 " fill="none" id="Connect4-backto-ConsoleConnect4" style="stroke:#181818;stroke-width:1.0;"/><polygon fill="none" points="252.27,154.19,255.8179,172.829,266.2917,166.9724,252.27,154.19" style="stroke:#181818;stroke-width:1.0;"/></g><!--reverse link Connect4 to GraphicsConnect4--><g id="link_Connect4_GraphicsConnect4"><path codeLine="11" d="M182.9906,170.0193 C172.6506,189.1193 169.64,194.69 159.31,213.79 " fill="none" id="Connect4-backto-GraphicsConnect4" style="stroke:#181818;stroke-width:1.0;"/><polygon fill="none" points="191.56,154.19,177.7142,167.1628,188.2671,172.8757,191.56,154.19" style="stroke:#181818;stroke-width:1.0;"/></g><!--link Connect4 to View--><g id="link_Connect4_View"><path codeLine="12" d="M322.0936,158.0004 C352.9536,176.8304 377.08,192.48 407.43,214 C418.95,222.17 426.4195,227.8688 437.1895,236.6488 " fill="none" id="Connect4-View" style="stroke:#181818;stroke-width:1.0;"/><polygon fill="#181818" points="311.85,151.75,314.8884,158.2898,322.0936,158.0004,319.0553,151.4607,311.85,151.75" style="stroke:#181818;stroke-width:1.0;"/><polygon fill="#181818" points="441.84,240.44,437.3918,231.6529,437.9646,237.2807,432.3368,237.8535,441.84,240.44" style="stroke:#181818;stroke-width:1.0;"/></g><!--link Connect4 to Game--><g id="link_Connect4_Game"><path codeLine="13" d="M120.4822,137.0872 C83.9222,155.3272 56.23,176.69 35.43,214 C6,266.8 9.69,295.31 35.43,350 C43.36,366.85 53.2469,377.282 67.7869,387.852 " fill="none" id="Connect4-Game" style="stroke:#181818;stroke-width:1.0;"/><polygon fill="#181818" points="131.22,131.73,124.0654,130.8293,120.4822,137.0872,127.6368,137.9879,131.22,131.73" style="stroke:#181818;stroke-width:1.0;"/><polygon fill="#181818" points="72.64,391.38,67.7123,382.8525,68.5957,388.44,63.0083,389.3234,72.64,391.38" style="stroke:#181818;stroke-width:1.0;"/></g><!--link ConsoleConnect4 to ConsoleView--><g id="link_ConsoleConnect4_ConsoleView"><path codeLine="15" d="M377.45,326.07 C400.04,346.46 420.2955,364.7404 439.2455,381.8404 " fill="none" id="ConsoleConnect4-to-ConsoleView" style="stroke:#181818;stroke-width:1.0;stroke-dasharray:7.0,7.0;"/><polygon fill="#181818" points="443.7,385.86,439.698,376.8609,439.9879,382.5103,434.3385,382.8002,443.7,385.86" style="stroke:#181818;stroke-width:1.0;"/></g><!--link GraphicsConnect4 to GraphicsView--><g id="link_GraphicsConnect4_GraphicsView"><path codeLine="16" d="M189.68,326.07 C211.99,346.46 231.9511,364.7122 250.6611,381.8122 " fill="none" id="GraphicsConnect4-to-GraphicsView" style="stroke:#181818;stroke-width:1.0;stroke-dasharray:7.0,7.0;"/><polygon fill="#181818" points="255.09,385.86,251.1452,376.8357,251.3992,382.4868,245.7481,382.7409,255.09,385.86" style="stroke:#181818;stroke-width:1.0;"/></g><!--link ConsoleConnect4 to Game--><g id="link_ConsoleConnect4_Game"><path codeLine="17" d="M255.33,326.15 C245.25,334.45 234.73,342.68 224.43,350 C203.18,365.11 183.4066,376.9691 162.5166,388.5591 " fill="none" id="ConsoleConnect4-to-Game" style="stroke:#181818;stroke-width:1.0;stroke-dasharray:7.0,7.0;"/><polygon fill="#181818" points="157.27,391.47,167.0805,390.6014,161.6422,389.0443,163.1993,383.606,157.27,391.47" style="stroke:#181818;stroke-width:1.0;"/></g><!--link GraphicsConnect4 to Game--><g id="link_GraphicsConnect4_Game"><path codeLine="18" d="M123.29,326.07 C120.77,348.68 118.657,367.6572 116.687,385.2672 " fill="none" id="GraphicsConnect4-to-Game" style="stroke:#181818;stroke-width:1.0;stroke-dasharray:7.0,7.0;"/><polygon fill="#181818" points="116.02,391.23,120.9958,382.7305,116.5759,386.261,113.0454,381.8411,116.02,391.23" style="stroke:#181818;stroke-width:1.0;"/></g><!--reverse link View to ConsoleView--><g id="link_View_ConsoleView"><path codeLine="20" d="M475.43,317.69 C475.43,342.72 475.43,360.84 475.43,385.86 " fill="none" id="View-backto-ConsoleView" style="stroke:#181818;stroke-width:1.0;"/><polygon fill="none" points="475.43,299.69,469.43,317.69,481.43,317.69,475.43,299.69" style="stroke:#181818;stroke-width:1.0;"/></g><!--reverse link View to GraphicsView--><g id="link_View_GraphicsView"><path codeLine="21" d="M443.9752,313.8863 C431.4952,330.0163 425.51,335.53 407.43,350 C390.33,363.68 369.89,375.86 350.73,385.85 " fill="none" id="View-backto-GraphicsView" style="stroke:#181818;stroke-width:1.0;"/><polygon fill="none" points="454.99,299.65,439.2297,310.2147,448.7206,317.5579,454.99,299.65" style="stroke:#181818;stroke-width:1.0;"/></g><!--SRC=[ZLAnRiCW5Dpz5SXPd5PcwXH5NZ9aZLIfIzJXbQ0MoOQ8Hrj5QVwzG8XunaxL3UxTk-FEXZTq5eHZeWT49epMKhWdlaa7jbvlh0HdRDTLKmwQNbAgqS9A9- -kR2qSFvJ0V-niOP0CaDM3ESWUURZNQPQSNvJyZfGlVq1Eq9e8xwmvV0gNXTCRYcqA_xLUhDtecLRbS3zjougMYcbPI1u_j6qNpGeez10zHjrptj5MgadHWK0ZpYf4xVdLw1gpqrHHAQCZW_pk5LlSpisImcT8lzzb8SBdZtfDy5gkYkmZygw7Ks2Xbvi4kRfHw6fQaev4P3e-emEdnELn0AMRPsULVj-_Uhj9FLwgnBpY78qwpiplMVu2]--></g></svg>