<?xml version="1.0" encoding="us-ascii" standalone="no"?><svg xmlns="http://www.w3.org/2000/svg" xmlns:xlink="http://www.w3.org/1999/xlink" contentStyleType="text/css" height="685px" preserveAspectRatio="none" style="width:831px;height:685px;background:#FFFFFF;" version="1.1" viewBox="0 0 831 685" width="831px" zoomAndPan="magnify"><defs/><g><!--cluster connect4--><g id="cluster_connect4"><path d="M324,6 L390,6 A3.75,3.75 0 0 1 392.5,8.5 L399.5,29.6094 L686,29.6094 A2.5,2.5 0 0 1 688.5,32.1094 L688.5,356.5 A2.5,2.5 0 0 1 686,359 L324,359 A2.5,2.5 0 0 1 321.5,356.5 L321.5,8.5 A2.5,2.5 0 0 1 324,6 " fill="none" style="stroke:#000000;stroke-width:1.5;"/><line style="stroke:#000000;stroke-width:1.5;" x1="321.5" x2="399.5" y1="29.6094" y2="29.6094"/><text fill="#000000" font-family="sans-serif" font-size="14" font-weight="bold" lengthAdjust="spacing" textLength="65" x="325.5" y="22.5332">connect4</text></g><!--class Connect4--><g id="elem_Connect4"><rect codeLine="2" fill="#F1F1F1" height="111.5313" id="Connect4" rx="2.5" ry="2.5" style="stroke:#181818;stroke-width:0.5;" width="180" x="337.5" y="42"/><ellipse cx="392.75" cy="63.3516" fill="#A9DCDF" rx="11" ry="11" style="stroke:#181818;stroke-width:1.0;"/><path d="M394.9375,65.1172 L390.7969,65.1172 L390.375,66.1484 L390.7969,66.1484 Q391.4063,66.1484 391.6719,66.3828 Q391.9375,66.6172 391.9375,67.0078 Q391.9375,67.3828 391.6719,67.6172 Q391.4063,67.8516 390.7969,67.8516 L388.5,67.8516 Q387.8906,67.8516 387.6406,67.6172 Q387.375,67.3828 387.375,66.9922 Q387.375,66.6172 387.6563,66.3828 Q387.9219,66.1328 388.5469,66.1484 L391.2188,59.4922 L390.1094,59.4922 Q389.5,59.4922 389.2344,59.2578 Q388.9688,59.0234 388.9688,58.6328 Q388.9688,58.2578 389.2344,58.0234 Q389.5,57.7891 390.1094,57.7891 L393.7813,57.7891 L397.1719,66.1484 Q397.7656,66.1484 397.9531,66.2891 Q398.3438,66.5547 398.3438,67.0078 Q398.3438,67.3828 398.0781,67.6172 Q397.8281,67.8516 397.2188,67.8516 L394.9219,67.8516 Q394.3125,67.8516 394.0469,67.6172 Q393.7813,67.3828 393.7813,66.9922 Q393.7813,66.6172 394.0469,66.3828 Q394.3125,66.1484 394.9219,66.1484 L395.3438,66.1484 L394.9375,65.1172 Z M394.2188,63.4141 L392.8594,60.0391 L391.4844,63.4141 L394.2188,63.4141 Z " fill="#000000"/><text fill="#000000" font-family="sans-serif" font-size="12" font-style="italic" lengthAdjust="spacing" textLength="55" x="416.25" y="59.457">&#171;Creator&#187;</text><text fill="#000000" font-family="sans-serif" font-size="14" font-style="italic" lengthAdjust="spacing" textLength="61" x="413.25" y="76.627">Connect4</text><line style="stroke:#181818;stroke-width:0.5;" x1="338.5" x2="516.5" y1="84.7031" y2="84.7031"/><line style="stroke:#181818;stroke-width:0.5;" x1="338.5" x2="516.5" y1="92.7031" y2="92.7031"/><polygon fill="#FFFF44" points="348.5,102.0078,352.5,106.0078,348.5,110.0078,344.5,106.0078" style="stroke:#B38D22;stroke-width:1.0;"/><text fill="#000000" font-family="sans-serif" font-size="14" lengthAdjust="spacing" textLength="71" x="357.5" y="111.2363">Connect4()</text><polygon fill="#FFFF44" points="348.5,119.6172,352.5,123.6172,348.5,127.6172,344.5,123.6172" style="stroke:#B38D22;stroke-width:1.0;"/><text fill="#000000" font-family="sans-serif" font-size="14" font-style="italic" lengthAdjust="spacing" textLength="154" x="357.5" y="128.8457">createView(Game): View</text><polygon fill="#FFFF44" points="348.5,137.2266,352.5,141.2266,348.5,145.2266,344.5,141.2266" style="stroke:#B38D22;stroke-width:1.0;"/><text fill="#000000" font-family="sans-serif" font-size="14" font-style="italic" lengthAdjust="spacing" textLength="82" x="357.5" y="146.4551">PlayGames()</text></g><!--class ConsoleConnect4--><g id="elem_ConsoleConnect4"><rect codeLine="3" fill="#F1F1F1" height="58.7031" id="ConsoleConnect4" rx="2.5" ry="2.5" style="stroke:#181818;stroke-width:0.5;" width="145" x="338" y="249"/><ellipse cx="353" cy="270.3516" fill="#ADD1B2" rx="11" ry="11" style="stroke:#181818;stroke-width:1.0;"/><path d="M355.7656,266.2266 Q355.9219,266.0078 356.1094,265.8984 Q356.2969,265.7891 356.5156,265.7891 Q356.8906,265.7891 357.125,266.0547 Q357.3594,266.3047 357.3594,266.9141 L357.3594,268.3672 Q357.3594,268.9766 357.125,269.2422 Q356.8906,269.5078 356.5156,269.5078 Q356.1719,269.5078 355.9688,269.3047 Q355.7656,269.1172 355.6563,268.6016 Q355.6094,268.2422 355.4219,268.0547 Q355.0938,267.6797 354.4844,267.4609 Q353.875,267.2422 353.25,267.2422 Q352.4844,267.2422 351.8438,267.5703 Q351.2188,267.8984 350.7188,268.6484 Q350.2344,269.3984 350.2344,270.4297 L350.2344,271.5234 Q350.2344,272.7578 351.125,273.5859 Q352.0156,274.3984 353.6094,274.3984 Q354.5469,274.3984 355.2031,274.1484 Q355.5938,273.9922 356.0156,273.5547 Q356.2813,273.2891 356.4219,273.2109 Q356.5781,273.1328 356.7813,273.1328 Q357.1094,273.1328 357.3594,273.3984 Q357.625,273.6484 357.625,273.9922 Q357.625,274.3359 357.2813,274.7422 Q356.7813,275.3203 355.9844,275.6484 Q354.9063,276.1016 353.6094,276.1016 Q352.0938,276.1016 350.8906,275.4766 Q349.9063,274.9766 349.2188,273.9141 Q348.5313,272.8359 348.5313,271.5547 L348.5313,270.3984 Q348.5313,269.0703 349.1406,267.9297 Q349.7656,266.7734 350.8594,266.1641 Q351.9531,265.5391 353.1875,265.5391 Q353.9219,265.5391 354.5625,265.7109 Q355.2188,265.8672 355.7656,266.2266 Z " fill="#000000"/><text fill="#000000" font-family="sans-serif" font-size="12" font-style="italic" lengthAdjust="spacing" textLength="105" x="371" y="266.457">&#171;ConcreteCreator&#187;</text><text fill="#000000" font-family="sans-serif" font-size="14" lengthAdjust="spacing" textLength="113" x="367" y="283.627">ConsoleConnect4</text><line style="stroke:#181818;stroke-width:0.5;" x1="339" x2="482" y1="291.7031" y2="291.7031"/><line style="stroke:#181818;stroke-width:0.5;" x1="339" x2="482" y1="299.7031" y2="299.7031"/></g><!--class GraphicsConnect4--><g id="elem_GraphicsConnect4"><rect codeLine="4" fill="#F1F1F1" height="129.1406" id="GraphicsConnect4" rx="2.5" ry="2.5" style="stroke:#181818;stroke-width:0.5;" width="154" x="518.5" y="214"/><ellipse cx="535.3" cy="235.3516" fill="#ADD1B2" rx="11" ry="11" style="stroke:#181818;stroke-width:1.0;"/><path d="M538.0656,231.2266 Q538.2219,231.0078 538.4094,230.8984 Q538.5969,230.7891 538.8156,230.7891 Q539.1906,230.7891 539.425,231.0547 Q539.6594,231.3047 539.6594,231.9141 L539.6594,233.3672 Q539.6594,233.9766 539.425,234.2422 Q539.1906,234.5078 538.8156,234.5078 Q538.4719,234.5078 538.2688,234.3047 Q538.0656,234.1172 537.9563,233.6016 Q537.9094,233.2422 537.7219,233.0547 Q537.3938,232.6797 536.7844,232.4609 Q536.175,232.2422 535.55,232.2422 Q534.7844,232.2422 534.1438,232.5703 Q533.5188,232.8984 533.0188,233.6484 Q532.5344,234.3984 532.5344,235.4297 L532.5344,236.5234 Q532.5344,237.7578 533.425,238.5859 Q534.3156,239.3984 535.9094,239.3984 Q536.8469,239.3984 537.5031,239.1484 Q537.8938,238.9922 538.3156,238.5547 Q538.5813,238.2891 538.7219,238.2109 Q538.8781,238.1328 539.0813,238.1328 Q539.4094,238.1328 539.6594,238.3984 Q539.925,238.6484 539.925,238.9922 Q539.925,239.3359 539.5813,239.7422 Q539.0813,240.3203 538.2844,240.6484 Q537.2063,241.1016 535.9094,241.1016 Q534.3938,241.1016 533.1906,240.4766 Q532.2063,239.9766 531.5188,238.9141 Q530.8313,237.8359 530.8313,236.5547 L530.8313,235.3984 Q530.8313,234.0703 531.4406,232.9297 Q532.0656,231.7734 533.1594,231.1641 Q534.2531,230.5391 535.4875,230.5391 Q536.2219,230.5391 536.8625,230.7109 Q537.5188,230.8672 538.0656,231.2266 Z " fill="#000000"/><text fill="#000000" font-family="sans-serif" font-size="12" font-style="italic" lengthAdjust="spacing" textLength="105" x="556.2" y="231.457">&#171;ConcreteCreator&#187;</text><text fill="#000000" font-family="sans-serif" font-size="14" lengthAdjust="spacing" textLength="118" x="549.7" y="248.627">GraphicsConnect4</text><line style="stroke:#181818;stroke-width:0.5;" x1="519.5" x2="671.5" y1="256.7031" y2="256.7031"/><line style="stroke:#181818;stroke-width:0.5;" x1="519.5" x2="671.5" y1="264.7031" y2="264.7031"/><polygon fill="#FFFF44" points="529.5,274.0078,533.5,278.0078,529.5,282.0078,525.5,278.0078" style="stroke:#B38D22;stroke-width:1.0;"/><text fill="#000000" font-family="sans-serif" font-size="14" lengthAdjust="spacing" textLength="128" x="538.5" y="283.2363">GraphicsConnect4()</text><polygon fill="#FFFF44" points="529.5,291.6172,533.5,295.6172,529.5,299.6172,525.5,295.6172" style="stroke:#B38D22;stroke-width:1.0;"/><text fill="#000000" font-family="sans-serif" font-size="14" lengthAdjust="spacing" textLength="79" x="538.5" y="300.8457">createView()</text><polygon fill="#FFFF44" points="529.5,309.2266,533.5,313.2266,529.5,317.2266,525.5,313.2266" style="stroke:#B38D22;stroke-width:1.0;"/><text fill="#000000" font-family="sans-serif" font-size="14" lengthAdjust="spacing" textLength="81" x="538.5" y="318.4551">playGames()</text><ellipse cx="529.5" cy="331.8359" fill="#84BE84" rx="3" ry="3" style="stroke:#038048;stroke-width:1.0;"/><text fill="#000000" font-family="sans-serif" font-size="14" lengthAdjust="spacing" text-decoration="underline" textLength="85" x="538.5" y="336.0645">main(String[])</text></g><!--class Game--><g id="elem_Game"><rect codeLine="5" fill="#F1F1F1" height="48" id="Game" rx="2.5" ry="2.5" style="stroke:#181818;stroke-width:0.5;" width="119" x="7" y="630"/><ellipse cx="22" cy="646" fill="#ADD1B2" rx="11" ry="11" style="stroke:#181818;stroke-width:1.0;"/><path d="M24.7656,641.875 Q24.9219,641.6563 25.1094,641.5469 Q25.2969,641.4375 25.5156,641.4375 Q25.8906,641.4375 26.125,641.7031 Q26.3594,641.9531 26.3594,642.5625 L26.3594,644.0156 Q26.3594,644.625 26.125,644.8906 Q25.8906,645.1563 25.5156,645.1563 Q25.1719,645.1563 24.9688,644.9531 Q24.7656,644.7656 24.6563,644.25 Q24.6094,643.8906 24.4219,643.7031 Q24.0938,643.3281 23.4844,643.1094 Q22.875,642.8906 22.25,642.8906 Q21.4844,642.8906 20.8438,643.2188 Q20.2188,643.5469 19.7188,644.2969 Q19.2344,645.0469 19.2344,646.0781 L19.2344,647.1719 Q19.2344,648.4063 20.125,649.2344 Q21.0156,650.0469 22.6094,650.0469 Q23.5469,650.0469 24.2031,649.7969 Q24.5938,649.6406 25.0156,649.2031 Q25.2813,648.9375 25.4219,648.8594 Q25.5781,648.7813 25.7813,648.7813 Q26.1094,648.7813 26.3594,649.0469 Q26.625,649.2969 26.625,649.6406 Q26.625,649.9844 26.2813,650.3906 Q25.7813,650.9688 24.9844,651.2969 Q23.9063,651.75 22.6094,651.75 Q21.0938,651.75 19.8906,651.125 Q18.9063,650.625 18.2188,649.5625 Q17.5313,648.4844 17.5313,647.2031 L17.5313,646.0469 Q17.5313,644.7188 18.1406,643.5781 Q18.7656,642.4219 19.8594,641.8125 Q20.9531,641.1875 22.1875,641.1875 Q22.9219,641.1875 23.5625,641.3594 Q24.2188,641.5156 24.7656,641.875 Z " fill="#000000"/><text fill="#000000" font-family="sans-serif" font-size="14" lengthAdjust="spacing" textLength="87" x="36" y="651.7285">models.Game</text><line style="stroke:#181818;stroke-width:0.5;" x1="8" x2="125" y1="662" y2="662"/><line style="stroke:#181818;stroke-width:0.5;" x1="8" x2="125" y1="670" y2="670"/></g><!--class Controller--><g id="elem_Controller"><rect codeLine="6" fill="#F1F1F1" height="48" id="Controller" rx="2.5" ry="2.5" style="stroke:#181818;stroke-width:0.5;" width="161" x="186" y="522"/><ellipse cx="201" cy="538" fill="#A9DCDF" rx="11" ry="11" style="stroke:#181818;stroke-width:1.0;"/><path d="M203.1875,539.7656 L199.0469,539.7656 L198.625,540.7969 L199.0469,540.7969 Q199.6563,540.7969 199.9219,541.0313 Q200.1875,541.2656 200.1875,541.6563 Q200.1875,542.0313 199.9219,542.2656 Q199.6563,542.5 199.0469,542.5 L196.75,542.5 Q196.1406,542.5 195.8906,542.2656 Q195.625,542.0313 195.625,541.6406 Q195.625,541.2656 195.9063,541.0313 Q196.1719,540.7813 196.7969,540.7969 L199.4688,534.1406 L198.3594,534.1406 Q197.75,534.1406 197.4844,533.9063 Q197.2188,533.6719 197.2188,533.2813 Q197.2188,532.9063 197.4844,532.6719 Q197.75,532.4375 198.3594,532.4375 L202.0313,532.4375 L205.4219,540.7969 Q206.0156,540.7969 206.2031,540.9375 Q206.5938,541.2031 206.5938,541.6563 Q206.5938,542.0313 206.3281,542.2656 Q206.0781,542.5 205.4688,542.5 L203.1719,542.5 Q202.5625,542.5 202.2969,542.2656 Q202.0313,542.0313 202.0313,541.6406 Q202.0313,541.2656 202.2969,541.0313 Q202.5625,540.7969 203.1719,540.7969 L203.5938,540.7969 L203.1875,539.7656 Z M202.4688,538.0625 L201.1094,534.6875 L199.7344,538.0625 L202.4688,538.0625 Z " fill="#000000"/><text fill="#000000" font-family="sans-serif" font-size="14" font-style="italic" lengthAdjust="spacing" textLength="129" x="215" y="543.7285">controlers.Controller</text><line style="stroke:#181818;stroke-width:0.5;" x1="187" x2="346" y1="554" y2="554"/><line style="stroke:#181818;stroke-width:0.5;" x1="187" x2="346" y1="562" y2="562"/></g><!--class StartController--><g id="elem_StartController"><rect codeLine="7" fill="#F1F1F1" height="48" id="StartController" rx="2.5" ry="2.5" style="stroke:#181818;stroke-width:0.5;" width="191" x="633" y="630"/><ellipse cx="648" cy="646" fill="#ADD1B2" rx="11" ry="11" style="stroke:#181818;stroke-width:1.0;"/><path d="M650.7656,641.875 Q650.9219,641.6563 651.1094,641.5469 Q651.2969,641.4375 651.5156,641.4375 Q651.8906,641.4375 652.125,641.7031 Q652.3594,641.9531 652.3594,642.5625 L652.3594,644.0156 Q652.3594,644.625 652.125,644.8906 Q651.8906,645.1563 651.5156,645.1563 Q651.1719,645.1563 650.9688,644.9531 Q650.7656,644.7656 650.6563,644.25 Q650.6094,643.8906 650.4219,643.7031 Q650.0938,643.3281 649.4844,643.1094 Q648.875,642.8906 648.25,642.8906 Q647.4844,642.8906 646.8438,643.2188 Q646.2188,643.5469 645.7188,644.2969 Q645.2344,645.0469 645.2344,646.0781 L645.2344,647.1719 Q645.2344,648.4063 646.125,649.2344 Q647.0156,650.0469 648.6094,650.0469 Q649.5469,650.0469 650.2031,649.7969 Q650.5938,649.6406 651.0156,649.2031 Q651.2813,648.9375 651.4219,648.8594 Q651.5781,648.7813 651.7813,648.7813 Q652.1094,648.7813 652.3594,649.0469 Q652.625,649.2969 652.625,649.6406 Q652.625,649.9844 652.2813,650.3906 Q651.7813,650.9688 650.9844,651.2969 Q649.9063,651.75 648.6094,651.75 Q647.0938,651.75 645.8906,651.125 Q644.9063,650.625 644.2188,649.5625 Q643.5313,648.4844 643.5313,647.2031 L643.5313,646.0469 Q643.5313,644.7188 644.1406,643.5781 Q644.7656,642.4219 645.8594,641.8125 Q646.9531,641.1875 648.1875,641.1875 Q648.9219,641.1875 649.5625,641.3594 Q650.2188,641.5156 650.7656,641.875 Z " fill="#000000"/><text fill="#000000" font-family="sans-serif" font-size="14" lengthAdjust="spacing" textLength="159" x="662" y="651.7285">controlers.StartController</text><line style="stroke:#181818;stroke-width:0.5;" x1="634" x2="823" y1="662" y2="662"/><line style="stroke:#181818;stroke-width:0.5;" x1="634" x2="823" y1="670" y2="670"/></g><!--class PlayController--><g id="elem_PlayController"><rect codeLine="8" fill="#F1F1F1" height="48" id="PlayController" rx="2.5" ry="2.5" style="stroke:#181818;stroke-width:0.5;" width="188" x="161.5" y="630"/><ellipse cx="176.5" cy="646" fill="#ADD1B2" rx="11" ry="11" style="stroke:#181818;stroke-width:1.0;"/><path d="M179.2656,641.875 Q179.4219,641.6563 179.6094,641.5469 Q179.7969,641.4375 180.0156,641.4375 Q180.3906,641.4375 180.625,641.7031 Q180.8594,641.9531 180.8594,642.5625 L180.8594,644.0156 Q180.8594,644.625 180.625,644.8906 Q180.3906,645.1563 180.0156,645.1563 Q179.6719,645.1563 179.4688,644.9531 Q179.2656,644.7656 179.1563,644.25 Q179.1094,643.8906 178.9219,643.7031 Q178.5938,643.3281 177.9844,643.1094 Q177.375,642.8906 176.75,642.8906 Q175.9844,642.8906 175.3438,643.2188 Q174.7188,643.5469 174.2188,644.2969 Q173.7344,645.0469 173.7344,646.0781 L173.7344,647.1719 Q173.7344,648.4063 174.625,649.2344 Q175.5156,650.0469 177.1094,650.0469 Q178.0469,650.0469 178.7031,649.7969 Q179.0938,649.6406 179.5156,649.2031 Q179.7813,648.9375 179.9219,648.8594 Q180.0781,648.7813 180.2813,648.7813 Q180.6094,648.7813 180.8594,649.0469 Q181.125,649.2969 181.125,649.6406 Q181.125,649.9844 180.7813,650.3906 Q180.2813,650.9688 179.4844,651.2969 Q178.4063,651.75 177.1094,651.75 Q175.5938,651.75 174.3906,651.125 Q173.4063,650.625 172.7188,649.5625 Q172.0313,648.4844 172.0313,647.2031 L172.0313,646.0469 Q172.0313,644.7188 172.6406,643.5781 Q173.2656,642.4219 174.3594,641.8125 Q175.4531,641.1875 176.6875,641.1875 Q177.4219,641.1875 178.0625,641.3594 Q178.7188,641.5156 179.2656,641.875 Z " fill="#000000"/><text fill="#000000" font-family="sans-serif" font-size="14" lengthAdjust="spacing" textLength="156" x="190.5" y="651.7285">controlers.PlayController</text><line style="stroke:#181818;stroke-width:0.5;" x1="162.5" x2="348.5" y1="662" y2="662"/><line style="stroke:#181818;stroke-width:0.5;" x1="162.5" x2="348.5" y1="670" y2="670"/></g><!--class ResumeController--><g id="elem_ResumeController"><rect codeLine="9" fill="#F1F1F1" height="48" id="ResumeController" rx="2.5" ry="2.5" style="stroke:#181818;stroke-width:0.5;" width="213" x="385" y="630"/><ellipse cx="400" cy="646" fill="#ADD1B2" rx="11" ry="11" style="stroke:#181818;stroke-width:1.0;"/><path d="M402.7656,641.875 Q402.9219,641.6563 403.1094,641.5469 Q403.2969,641.4375 403.5156,641.4375 Q403.8906,641.4375 404.125,641.7031 Q404.3594,641.9531 404.3594,642.5625 L404.3594,644.0156 Q404.3594,644.625 404.125,644.8906 Q403.8906,645.1563 403.5156,645.1563 Q403.1719,645.1563 402.9688,644.9531 Q402.7656,644.7656 402.6563,644.25 Q402.6094,643.8906 402.4219,643.7031 Q402.0938,643.3281 401.4844,643.1094 Q400.875,642.8906 400.25,642.8906 Q399.4844,642.8906 398.8438,643.2188 Q398.2188,643.5469 397.7188,644.2969 Q397.2344,645.0469 397.2344,646.0781 L397.2344,647.1719 Q397.2344,648.4063 398.125,649.2344 Q399.0156,650.0469 400.6094,650.0469 Q401.5469,650.0469 402.2031,649.7969 Q402.5938,649.6406 403.0156,649.2031 Q403.2813,648.9375 403.4219,648.8594 Q403.5781,648.7813 403.7813,648.7813 Q404.1094,648.7813 404.3594,649.0469 Q404.625,649.2969 404.625,649.6406 Q404.625,649.9844 404.2813,650.3906 Q403.7813,650.9688 402.9844,651.2969 Q401.9063,651.75 400.6094,651.75 Q399.0938,651.75 397.8906,651.125 Q396.9063,650.625 396.2188,649.5625 Q395.5313,648.4844 395.5313,647.2031 L395.5313,646.0469 Q395.5313,644.7188 396.1406,643.5781 Q396.7656,642.4219 397.8594,641.8125 Q398.9531,641.1875 400.1875,641.1875 Q400.9219,641.1875 401.5625,641.3594 Q402.2188,641.5156 402.7656,641.875 Z " fill="#000000"/><text fill="#000000" font-family="sans-serif" font-size="14" lengthAdjust="spacing" textLength="181" x="414" y="651.7285">controlers.ResumeController</text><line style="stroke:#181818;stroke-width:0.5;" x1="386" x2="597" y1="662" y2="662"/><line style="stroke:#181818;stroke-width:0.5;" x1="386" x2="597" y1="670" y2="670"/></g><!--class ConsoleView--><g id="elem_ConsoleView"><rect codeLine="10" fill="#F1F1F1" height="58.7031" id="ConsoleView" rx="2.5" ry="2.5" style="stroke:#181818;stroke-width:0.5;" width="151" x="191" y="403"/><ellipse cx="206" cy="424.3516" fill="#ADD1B2" rx="11" ry="11" style="stroke:#181818;stroke-width:1.0;"/><path d="M208.7656,420.2266 Q208.9219,420.0078 209.1094,419.8984 Q209.2969,419.7891 209.5156,419.7891 Q209.8906,419.7891 210.125,420.0547 Q210.3594,420.3047 210.3594,420.9141 L210.3594,422.3672 Q210.3594,422.9766 210.125,423.2422 Q209.8906,423.5078 209.5156,423.5078 Q209.1719,423.5078 208.9688,423.3047 Q208.7656,423.1172 208.6563,422.6016 Q208.6094,422.2422 208.4219,422.0547 Q208.0938,421.6797 207.4844,421.4609 Q206.875,421.2422 206.25,421.2422 Q205.4844,421.2422 204.8438,421.5703 Q204.2188,421.8984 203.7188,422.6484 Q203.2344,423.3984 203.2344,424.4297 L203.2344,425.5234 Q203.2344,426.7578 204.125,427.5859 Q205.0156,428.3984 206.6094,428.3984 Q207.5469,428.3984 208.2031,428.1484 Q208.5938,427.9922 209.0156,427.5547 Q209.2813,427.2891 209.4219,427.2109 Q209.5781,427.1328 209.7813,427.1328 Q210.1094,427.1328 210.3594,427.3984 Q210.625,427.6484 210.625,427.9922 Q210.625,428.3359 210.2813,428.7422 Q209.7813,429.3203 208.9844,429.6484 Q207.9063,430.1016 206.6094,430.1016 Q205.0938,430.1016 203.8906,429.4766 Q202.9063,428.9766 202.2188,427.9141 Q201.5313,426.8359 201.5313,425.5547 L201.5313,424.3984 Q201.5313,423.0703 202.1406,421.9297 Q202.7656,420.7734 203.8594,420.1641 Q204.9531,419.5391 206.1875,419.5391 Q206.9219,419.5391 207.5625,419.7109 Q208.2188,419.8672 208.7656,420.2266 Z " fill="#000000"/><text fill="#000000" font-family="sans-serif" font-size="12" font-style="italic" lengthAdjust="spacing" textLength="106" x="226.5" y="420.457">&#171;ConcreteProduct&#187;</text><text fill="#000000" font-family="sans-serif" font-size="14" lengthAdjust="spacing" textLength="119" x="220" y="437.627">views.ConsoleView</text><line style="stroke:#181818;stroke-width:0.5;" x1="192" x2="341" y1="445.7031" y2="445.7031"/><line style="stroke:#181818;stroke-width:0.5;" x1="192" x2="341" y1="453.7031" y2="453.7031"/></g><!--class GraphicsView--><g id="elem_GraphicsView"><rect codeLine="11" fill="#F1F1F1" height="58.7031" id="GraphicsView" rx="2.5" ry="2.5" style="stroke:#181818;stroke-width:0.5;" width="156" x="377.5" y="403"/><ellipse cx="392.5" cy="424.3516" fill="#ADD1B2" rx="11" ry="11" style="stroke:#181818;stroke-width:1.0;"/><path d="M395.2656,420.2266 Q395.4219,420.0078 395.6094,419.8984 Q395.7969,419.7891 396.0156,419.7891 Q396.3906,419.7891 396.625,420.0547 Q396.8594,420.3047 396.8594,420.9141 L396.8594,422.3672 Q396.8594,422.9766 396.625,423.2422 Q396.3906,423.5078 396.0156,423.5078 Q395.6719,423.5078 395.4688,423.3047 Q395.2656,423.1172 395.1563,422.6016 Q395.1094,422.2422 394.9219,422.0547 Q394.5938,421.6797 393.9844,421.4609 Q393.375,421.2422 392.75,421.2422 Q391.9844,421.2422 391.3438,421.5703 Q390.7188,421.8984 390.2188,422.6484 Q389.7344,423.3984 389.7344,424.4297 L389.7344,425.5234 Q389.7344,426.7578 390.625,427.5859 Q391.5156,428.3984 393.1094,428.3984 Q394.0469,428.3984 394.7031,428.1484 Q395.0938,427.9922 395.5156,427.5547 Q395.7813,427.2891 395.9219,427.2109 Q396.0781,427.1328 396.2813,427.1328 Q396.6094,427.1328 396.8594,427.3984 Q397.125,427.6484 397.125,427.9922 Q397.125,428.3359 396.7813,428.7422 Q396.2813,429.3203 395.4844,429.6484 Q394.4063,430.1016 393.1094,430.1016 Q391.5938,430.1016 390.3906,429.4766 Q389.4063,428.9766 388.7188,427.9141 Q388.0313,426.8359 388.0313,425.5547 L388.0313,424.3984 Q388.0313,423.0703 388.6406,421.9297 Q389.2656,420.7734 390.3594,420.1641 Q391.4531,419.5391 392.6875,419.5391 Q393.4219,419.5391 394.0625,419.7109 Q394.7188,419.8672 395.2656,420.2266 Z " fill="#000000"/><text fill="#000000" font-family="sans-serif" font-size="12" font-style="italic" lengthAdjust="spacing" textLength="106" x="415.5" y="420.457">&#171;ConcreteProduct&#187;</text><text fill="#000000" font-family="sans-serif" font-size="14" lengthAdjust="spacing" textLength="124" x="406.5" y="437.627">views.GraphicsView</text><line style="stroke:#181818;stroke-width:0.5;" x1="378.5" x2="532.5" y1="445.7031" y2="445.7031"/><line style="stroke:#181818;stroke-width:0.5;" x1="378.5" x2="532.5" y1="453.7031" y2="453.7031"/></g><!--class View--><g id="elem_View"><rect codeLine="12" fill="#F1F1F1" height="58.7031" id="View" rx="2.5" ry="2.5" style="stroke:#181818;stroke-width:0.5;" width="99" x="204" y="249"/><ellipse cx="219" cy="270.3516" fill="#ADD1B2" rx="11" ry="11" style="stroke:#181818;stroke-width:1.0;"/><path d="M221.7656,266.2266 Q221.9219,266.0078 222.1094,265.8984 Q222.2969,265.7891 222.5156,265.7891 Q222.8906,265.7891 223.125,266.0547 Q223.3594,266.3047 223.3594,266.9141 L223.3594,268.3672 Q223.3594,268.9766 223.125,269.2422 Q222.8906,269.5078 222.5156,269.5078 Q222.1719,269.5078 221.9688,269.3047 Q221.7656,269.1172 221.6563,268.6016 Q221.6094,268.2422 221.4219,268.0547 Q221.0938,267.6797 220.4844,267.4609 Q219.875,267.2422 219.25,267.2422 Q218.4844,267.2422 217.8438,267.5703 Q217.2188,267.8984 216.7188,268.6484 Q216.2344,269.3984 216.2344,270.4297 L216.2344,271.5234 Q216.2344,272.7578 217.125,273.5859 Q218.0156,274.3984 219.6094,274.3984 Q220.5469,274.3984 221.2031,274.1484 Q221.5938,273.9922 222.0156,273.5547 Q222.2813,273.2891 222.4219,273.2109 Q222.5781,273.1328 222.7813,273.1328 Q223.1094,273.1328 223.3594,273.3984 Q223.625,273.6484 223.625,273.9922 Q223.625,274.3359 223.2813,274.7422 Q222.7813,275.3203 221.9844,275.6484 Q220.9063,276.1016 219.6094,276.1016 Q218.0938,276.1016 216.8906,275.4766 Q215.9063,274.9766 215.2188,273.9141 Q214.5313,272.8359 214.5313,271.5547 L214.5313,270.3984 Q214.5313,269.0703 215.1406,267.9297 Q215.7656,266.7734 216.8594,266.1641 Q217.9531,265.5391 219.1875,265.5391 Q219.9219,265.5391 220.5625,265.7109 Q221.2188,265.8672 221.7656,266.2266 Z " fill="#000000"/><text fill="#000000" font-family="sans-serif" font-size="12" font-style="italic" lengthAdjust="spacing" textLength="56" x="238.5" y="266.457">&#171;Product&#187;</text><text fill="#000000" font-family="sans-serif" font-size="14" lengthAdjust="spacing" textLength="67" x="233" y="283.627">views.View</text><line style="stroke:#181818;stroke-width:0.5;" x1="205" x2="302" y1="291.7031" y2="291.7031"/><line style="stroke:#181818;stroke-width:0.5;" x1="205" x2="302" y1="299.7031" y2="299.7031"/></g><!--reverse link Connect4 to ConsoleConnect4--><g id="link_Connect4_ConsoleConnect4"><path codeLine="14" d="M420.5567,171.9292 C417.5767,203.2792 415.66,223.34 413.23,248.84 " fill="none" id="Connect4-backto-ConsoleConnect4" style="stroke:#181818;stroke-width:1.0;"/><polygon fill="none" points="422.26,154.01,414.5836,171.3615,426.5297,172.497,422.26,154.01" style="stroke:#181818;stroke-width:1.0;"/></g><!--reverse link Connect4 to GraphicsConnect4--><g id="link_Connect4_GraphicsConnect4"><path codeLine="15" d="M491.6146,167.1194 C509.4446,186.0694 517.23,194.34 535.66,213.92 " fill="none" id="Connect4-backto-GraphicsConnect4" style="stroke:#181818;stroke-width:1.0;"/><polygon fill="none" points="479.28,154.01,487.2448,171.231,495.9844,163.0079,479.28,154.01" style="stroke:#181818;stroke-width:1.0;"/></g><!--link Connect4 to Game--><g id="link_Connect4_Game"><path codeLine="16" d="M325.4938,112.2967 C258.5138,125.4167 182.26,151.73 132.5,214 C30.5,341.65 51.3045,553.0042 61.7645,623.9242 " fill="none" id="Connect4-Game" style="stroke:#181818;stroke-width:1.0;"/><polygon fill="#181818" points="337.27,109.99,330.613,107.218,325.4938,112.2967,332.1508,115.0688,337.27,109.99" style="stroke:#181818;stroke-width:1.0;"/><polygon fill="#181818" points="62.64,629.86,65.284,620.3727,61.9104,624.9135,57.3696,621.54,62.64,629.86" style="stroke:#181818;stroke-width:1.0;"/></g><!--link Connect4 to Controller--><g id="link_Connect4_Controller"><path codeLine="17" d="M325.9912,121.4983 C272.9012,137.6783 221.04,163.2 186.5,214 C124.44,305.27 128.39,361.27 173.5,462 C184.65,486.89 202.466,503.8949 222.646,518.2949 " fill="none" id="Connect4-Controller" style="stroke:#181818;stroke-width:1.0;"/><polygon fill="#181818" points="337.47,118,330.5645,115.9229,325.9912,121.4983,332.8967,123.5754,337.47,118" style="stroke:#181818;stroke-width:1.0;"/><polygon fill="#181818" points="227.53,521.78,222.5274,513.2963,223.46,518.8757,217.8805,519.8083,227.53,521.78" style="stroke:#181818;stroke-width:1.0;"/><text fill="#000000" font-family="sans-serif" font-size="13" lengthAdjust="spacing" textLength="7" x="209.6471" y="511.0638">3</text></g><!--link Connect4 to View--><g id="link_Connect4_View"><path codeLine="18" d="M365.4951,162.6042 C334.9451,193.9542 310.4775,219.0429 285.6275,244.5429 " fill="none" id="Connect4-View" style="stroke:#181818;stroke-width:1.0;"/><polygon fill="#181818" points="373.87,154.01,366.8178,155.5155,365.4951,162.6042,372.5473,161.0988,373.87,154.01" style="stroke:#181818;stroke-width:1.0;"/><polygon fill="#181818" points="281.44,248.84,290.586,245.1861,284.9296,245.2591,284.8566,239.6027,281.44,248.84" style="stroke:#181818;stroke-width:1.0;"/></g><!--link GraphicsConnect4 to GraphicsView--><g id="link_GraphicsConnect4_GraphicsView"><path codeLine="20" d="M536.94,343.08 C517.76,363.91 501.4654,381.5973 485.8954,398.4973 " fill="none" id="GraphicsConnect4-to-GraphicsView" style="stroke:#181818;stroke-width:1.0;stroke-dasharray:7.0,7.0;"/><polygon fill="#181818" points="481.83,402.91,490.87,399.0012,485.2179,399.2327,484.9864,393.5806,481.83,402.91" style="stroke:#181818;stroke-width:1.0;"/></g><!--link GraphicsView to Controller--><g id="link_GraphicsView_Controller"><path codeLine="21" d="M406.83,462.21 C375.33,480.8 340.0379,501.6217 310.6579,518.9517 " fill="none" id="GraphicsView-to-Controller" style="stroke:#181818;stroke-width:1.0;"/><polygon fill="#181818" points="305.49,522,315.2741,520.8728,309.7966,519.4597,311.2097,513.9822,305.49,522" style="stroke:#181818;stroke-width:1.0;"/><text fill="#000000" font-family="sans-serif" font-size="13" lengthAdjust="spacing" textLength="7" x="307.5843" y="511.3402">3</text></g><!--link ConsoleConnect4 to GraphicsView--><g id="link_ConsoleConnect4_GraphicsView"><path codeLine="23" d="M418.96,308.09 C426.98,335.18 437.2552,369.8973 445.2952,397.0273 " fill="none" id="ConsoleConnect4-to-GraphicsView" style="stroke:#181818;stroke-width:1.0;stroke-dasharray:7.0,7.0;"/><polygon fill="#181818" points="447,402.78,448.2779,393.0144,445.5793,397.9861,440.6076,395.2875,447,402.78" style="stroke:#181818;stroke-width:1.0;"/></g><!--link ConsoleView to Controller--><g id="link_ConsoleView_Controller"><path codeLine="24" d="M266.5,462.21 C266.5,480.8 266.5,498.67 266.5,516 " fill="none" id="ConsoleView-to-Controller" style="stroke:#181818;stroke-width:1.0;"/><polygon fill="#181818" points="266.5,522,270.5,513,266.5,517,262.5,513,266.5,522" style="stroke:#181818;stroke-width:1.0;"/><text fill="#000000" font-family="sans-serif" font-size="13" lengthAdjust="spacing" textLength="7" x="258.6031" y="511.3402">3</text></g><!--link Controller to Game--><g id="link_Controller_Game"><path codeLine="26" d="M223.1,570 C189.67,587.72 148.9514,609.3002 115.4614,627.0502 " fill="none" id="Controller-to-Game" style="stroke:#181818;stroke-width:1.0;"/><polygon fill="#181818" points="110.16,629.86,119.9853,629.1796,114.5778,627.5185,116.2389,622.111,110.16,629.86" style="stroke:#181818;stroke-width:1.0;"/></g><!--reverse link Controller to StartController--><g id="link_Controller_StartController"><path codeLine="27" d="M364.7841,569.5454 C444.3241,587.7954 548.3,611.65 632.68,631.02 " fill="none" id="Controller-backto-StartController" style="stroke:#181818;stroke-width:1.0;"/><polygon fill="none" points="347.24,565.52,363.4423,575.3934,366.1259,563.6974,347.24,565.52" style="stroke:#181818;stroke-width:1.0;"/></g><!--reverse link Controller to PlayController--><g id="link_Controller_PlayController"><path codeLine="28" d="M262.2547,587.9041 C260.4247,605.5641 259.76,611.94 257.92,629.68 " fill="none" id="Controller-backto-PlayController" style="stroke:#181818;stroke-width:1.0;"/><polygon fill="none" points="264.11,570,256.2867,587.2857,268.2227,588.5226,264.11,570" style="stroke:#181818;stroke-width:1.0;"/></g><!--reverse link Controller to ResumeController--><g id="link_Controller_ResumeController"><path codeLine="29" d="M331.6032,577.6719 C369.2132,595.3919 404.7,612.11 442.39,629.86 " fill="none" id="Controller-backto-ResumeController" style="stroke:#181818;stroke-width:1.0;"/><polygon fill="none" points="315.32,570,329.0459,583.0996,334.1605,572.2441,315.32,570" style="stroke:#181818;stroke-width:1.0;"/></g><!--reverse link View to ConsoleView--><g id="link_View_ConsoleView"><path codeLine="31" d="M257.4793,326.0249 C259.7893,353.1149 261.72,375.65 264.04,402.78 " fill="none" id="View-backto-ConsoleView" style="stroke:#181818;stroke-width:1.0;"/><polygon fill="none" points="255.95,308.09,251.501,326.5347,263.4576,325.5151,255.95,308.09" style="stroke:#181818;stroke-width:1.0;"/></g><!--reverse link View to GraphicsView--><g id="link_View_GraphicsView"><path codeLine="32" d="M280.8566,323.3155 C293.1866,341.8855 301.14,350.56 321.5,367 C339.08,381.19 360.29,393.22 380.6,402.9 " fill="none" id="View-backto-GraphicsView" style="stroke:#181818;stroke-width:1.0;"/><polygon fill="none" points="270.9,308.32,275.8581,326.6344,285.8551,319.9966,270.9,308.32" style="stroke:#181818;stroke-width:1.0;"/></g><!--SRC=[ZLEnRiCW4Dtv2aGMkv5PsYcAl6J86ZLIbwe39QYrX4q4f5MLvjzhg15ms5KtkFVUSVVkOA_6QiOjvf8PWxaQ1i7j0zrD1xpTxhHWLkcsHIN7A2bIgXgu5bOiIlQQdTyxRlwXsRDUO6OmwTL9I4FTdI2MrpkAhLPI2ksf_FSgjA4H8LF2esNQBWi075G7oRwMHJaQD8_2N7gnh89uq4s6FdNYqqi-neEXIPGaVXsqEbsuZNvDrW9r6lvB3cI17caepkoxQJ0OFa3Xd2DyrpIjdoq8aNkIJ1E0hXg4YkMXjCtQHfa7CraHNDaYGpg2XGHXg6aZ8UQR1vjKuFdI533S3eHyDQdhljGOpJg8rctmAfohEWrVmo-whRZxTJvVvNgfDpZOC4DsXJkM6TELqnYVWx6HDqTB7fqdd9E7Pl2hiSns_BRkMJTKHwkxuUtvfKO_]--></g></svg>