<?xml version="1.0" encoding="us-ascii" standalone="no"?><svg xmlns="http://www.w3.org/2000/svg" xmlns:xlink="http://www.w3.org/1999/xlink" contentStyleType="text/css" height="485px" preserveAspectRatio="none" style="width:1063px;height:485px;background:#FFFFFF;" version="1.1" viewBox="0 0 1063 485" width="1063px" zoomAndPan="magnify"><defs/><g><!--cluster connect4--><g id="cluster_connect4"><path d="M395,6 L461,6 A3.75,3.75 0 0 1 463.5,8.5 L470.5,29.6094 L757,29.6094 A2.5,2.5 0 0 1 759.5,32.1094 L759.5,373.5 A2.5,2.5 0 0 1 757,376 L395,376 A2.5,2.5 0 0 1 392.5,373.5 L392.5,8.5 A2.5,2.5 0 0 1 395,6 " fill="none" style="stroke:#000000;stroke-width:1.5;"/><line style="stroke:#000000;stroke-width:1.5;" x1="392.5" x2="470.5" y1="29.6094" y2="29.6094"/><text fill="#000000" font-family="sans-serif" font-size="14" font-weight="bold" lengthAdjust="spacing" textLength="65" x="396.5" y="22.5332">connect4</text></g><!--class Connect4--><g id="elem_Connect4"><rect codeLine="2" fill="#F1F1F1" height="129.1406" id="Connect4" rx="2.5" ry="2.5" style="stroke:#181818;stroke-width:0.5;" width="142" x="502.5" y="42"/><ellipse cx="539.55" cy="63.3516" fill="#A9DCDF" rx="11" ry="11" style="stroke:#181818;stroke-width:1.0;"/><path d="M541.7375,65.1172 L537.5969,65.1172 L537.175,66.1484 L537.5969,66.1484 Q538.2063,66.1484 538.4719,66.3828 Q538.7375,66.6172 538.7375,67.0078 Q538.7375,67.3828 538.4719,67.6172 Q538.2063,67.8516 537.5969,67.8516 L535.3,67.8516 Q534.6906,67.8516 534.4406,67.6172 Q534.175,67.3828 534.175,66.9922 Q534.175,66.6172 534.4563,66.3828 Q534.7219,66.1328 535.3469,66.1484 L538.0188,59.4922 L536.9094,59.4922 Q536.3,59.4922 536.0344,59.2578 Q535.7688,59.0234 535.7688,58.6328 Q535.7688,58.2578 536.0344,58.0234 Q536.3,57.7891 536.9094,57.7891 L540.5813,57.7891 L543.9719,66.1484 Q544.5656,66.1484 544.7531,66.2891 Q545.1438,66.5547 545.1438,67.0078 Q545.1438,67.3828 544.8781,67.6172 Q544.6281,67.8516 544.0188,67.8516 L541.7219,67.8516 Q541.1125,67.8516 540.8469,67.6172 Q540.5813,67.3828 540.5813,66.9922 Q540.5813,66.6172 540.8469,66.3828 Q541.1125,66.1484 541.7219,66.1484 L542.1438,66.1484 L541.7375,65.1172 Z M541.0188,63.4141 L539.6594,60.0391 L538.2844,63.4141 L541.0188,63.4141 Z " fill="#000000"/><text fill="#000000" font-family="sans-serif" font-size="12" font-style="italic" lengthAdjust="spacing" textLength="55" x="561.45" y="59.457">&#171;Creator&#187;</text><text fill="#000000" font-family="sans-serif" font-size="14" font-style="italic" lengthAdjust="spacing" textLength="61" x="558.45" y="76.627">Connect4</text><line style="stroke:#181818;stroke-width:0.5;" x1="503.5" x2="643.5" y1="84.7031" y2="84.7031"/><line style="stroke:#181818;stroke-width:0.5;" x1="503.5" x2="643.5" y1="92.7031" y2="92.7031"/><polygon fill="#FFFF44" points="513.5,102.0078,517.5,106.0078,513.5,110.0078,509.5,106.0078" style="stroke:#B38D22;stroke-width:1.0;"/><text fill="#000000" font-family="sans-serif" font-size="14" lengthAdjust="spacing" textLength="71" x="522.5" y="111.2363">Connect4()</text><polygon fill="#FFFF44" points="513.5,119.6172,517.5,123.6172,513.5,127.6172,509.5,123.6172" style="stroke:#B38D22;stroke-width:1.0;"/><text fill="#000000" font-family="sans-serif" font-size="14" font-style="italic" lengthAdjust="spacing" textLength="116" x="522.5" y="128.8457">createView(): View</text><polygon fill="#FFFF44" points="513.5,137.2266,517.5,141.2266,513.5,145.2266,509.5,141.2266" style="stroke:#B38D22;stroke-width:1.0;"/><text fill="#000000" font-family="sans-serif" font-size="14" font-style="italic" lengthAdjust="spacing" textLength="82" x="522.5" y="146.4551">PlayGames()</text><polygon fill="#FFFF44" points="513.5,154.8359,517.5,158.8359,513.5,162.8359,509.5,158.8359" style="stroke:#B38D22;stroke-width:1.0;"/><text fill="#000000" font-family="sans-serif" font-size="14" lengthAdjust="spacing" textLength="96" x="522.5" y="164.0645">getView(): View</text></g><!--class ConsoleConnect4--><g id="elem_ConsoleConnect4"><rect codeLine="3" fill="#F1F1F1" height="58.7031" id="ConsoleConnect4" rx="2.5" ry="2.5" style="stroke:#181818;stroke-width:0.5;" width="145" x="409" y="266"/><ellipse cx="424" cy="287.3516" fill="#ADD1B2" rx="11" ry="11" style="stroke:#181818;stroke-width:1.0;"/><path d="M426.7656,283.2266 Q426.9219,283.0078 427.1094,282.8984 Q427.2969,282.7891 427.5156,282.7891 Q427.8906,282.7891 428.125,283.0547 Q428.3594,283.3047 428.3594,283.9141 L428.3594,285.3672 Q428.3594,285.9766 428.125,286.2422 Q427.8906,286.5078 427.5156,286.5078 Q427.1719,286.5078 426.9688,286.3047 Q426.7656,286.1172 426.6563,285.6016 Q426.6094,285.2422 426.4219,285.0547 Q426.0938,284.6797 425.4844,284.4609 Q424.875,284.2422 424.25,284.2422 Q423.4844,284.2422 422.8438,284.5703 Q422.2188,284.8984 421.7188,285.6484 Q421.2344,286.3984 421.2344,287.4297 L421.2344,288.5234 Q421.2344,289.7578 422.125,290.5859 Q423.0156,291.3984 424.6094,291.3984 Q425.5469,291.3984 426.2031,291.1484 Q426.5938,290.9922 427.0156,290.5547 Q427.2813,290.2891 427.4219,290.2109 Q427.5781,290.1328 427.7813,290.1328 Q428.1094,290.1328 428.3594,290.3984 Q428.625,290.6484 428.625,290.9922 Q428.625,291.3359 428.2813,291.7422 Q427.7813,292.3203 426.9844,292.6484 Q425.9063,293.1016 424.6094,293.1016 Q423.0938,293.1016 421.8906,292.4766 Q420.9063,291.9766 420.2188,290.9141 Q419.5313,289.8359 419.5313,288.5547 L419.5313,287.3984 Q419.5313,286.0703 420.1406,284.9297 Q420.7656,283.7734 421.8594,283.1641 Q422.9531,282.5391 424.1875,282.5391 Q424.9219,282.5391 425.5625,282.7109 Q426.2188,282.8672 426.7656,283.2266 Z " fill="#000000"/><text fill="#000000" font-family="sans-serif" font-size="12" font-style="italic" lengthAdjust="spacing" textLength="105" x="442" y="283.457">&#171;ConcreteCreator&#187;</text><text fill="#000000" font-family="sans-serif" font-size="14" lengthAdjust="spacing" textLength="113" x="438" y="300.627">ConsoleConnect4</text><line style="stroke:#181818;stroke-width:0.5;" x1="410" x2="553" y1="308.7031" y2="308.7031"/><line style="stroke:#181818;stroke-width:0.5;" x1="410" x2="553" y1="316.7031" y2="316.7031"/></g><!--class GraphicsConnect4--><g id="elem_GraphicsConnect4"><rect codeLine="4" fill="#F1F1F1" height="129.1406" id="GraphicsConnect4" rx="2.5" ry="2.5" style="stroke:#181818;stroke-width:0.5;" width="154" x="589.5" y="231"/><ellipse cx="606.3" cy="252.3516" fill="#ADD1B2" rx="11" ry="11" style="stroke:#181818;stroke-width:1.0;"/><path d="M609.0656,248.2266 Q609.2219,248.0078 609.4094,247.8984 Q609.5969,247.7891 609.8156,247.7891 Q610.1906,247.7891 610.425,248.0547 Q610.6594,248.3047 610.6594,248.9141 L610.6594,250.3672 Q610.6594,250.9766 610.425,251.2422 Q610.1906,251.5078 609.8156,251.5078 Q609.4719,251.5078 609.2688,251.3047 Q609.0656,251.1172 608.9563,250.6016 Q608.9094,250.2422 608.7219,250.0547 Q608.3938,249.6797 607.7844,249.4609 Q607.175,249.2422 606.55,249.2422 Q605.7844,249.2422 605.1438,249.5703 Q604.5188,249.8984 604.0188,250.6484 Q603.5344,251.3984 603.5344,252.4297 L603.5344,253.5234 Q603.5344,254.7578 604.425,255.5859 Q605.3156,256.3984 606.9094,256.3984 Q607.8469,256.3984 608.5031,256.1484 Q608.8938,255.9922 609.3156,255.5547 Q609.5813,255.2891 609.7219,255.2109 Q609.8781,255.1328 610.0813,255.1328 Q610.4094,255.1328 610.6594,255.3984 Q610.925,255.6484 610.925,255.9922 Q610.925,256.3359 610.5813,256.7422 Q610.0813,257.3203 609.2844,257.6484 Q608.2063,258.1016 606.9094,258.1016 Q605.3938,258.1016 604.1906,257.4766 Q603.2063,256.9766 602.5188,255.9141 Q601.8313,254.8359 601.8313,253.5547 L601.8313,252.3984 Q601.8313,251.0703 602.4406,249.9297 Q603.0656,248.7734 604.1594,248.1641 Q605.2531,247.5391 606.4875,247.5391 Q607.2219,247.5391 607.8625,247.7109 Q608.5188,247.8672 609.0656,248.2266 Z " fill="#000000"/><text fill="#000000" font-family="sans-serif" font-size="12" font-style="italic" lengthAdjust="spacing" textLength="105" x="627.2" y="248.457">&#171;ConcreteCreator&#187;</text><text fill="#000000" font-family="sans-serif" font-size="14" lengthAdjust="spacing" textLength="118" x="620.7" y="265.627">GraphicsConnect4</text><line style="stroke:#181818;stroke-width:0.5;" x1="590.5" x2="742.5" y1="273.7031" y2="273.7031"/><line style="stroke:#181818;stroke-width:0.5;" x1="590.5" x2="742.5" y1="281.7031" y2="281.7031"/><polygon fill="#FFFF44" points="600.5,291.0078,604.5,295.0078,600.5,299.0078,596.5,295.0078" style="stroke:#B38D22;stroke-width:1.0;"/><text fill="#000000" font-family="sans-serif" font-size="14" lengthAdjust="spacing" textLength="128" x="609.5" y="300.2363">GraphicsConnect4()</text><polygon fill="#FFFF44" points="600.5,308.6172,604.5,312.6172,600.5,316.6172,596.5,312.6172" style="stroke:#B38D22;stroke-width:1.0;"/><text fill="#000000" font-family="sans-serif" font-size="14" lengthAdjust="spacing" textLength="116" x="609.5" y="317.8457">createView(): View</text><polygon fill="#FFFF44" points="600.5,326.2266,604.5,330.2266,600.5,334.2266,596.5,330.2266" style="stroke:#B38D22;stroke-width:1.0;"/><text fill="#000000" font-family="sans-serif" font-size="14" lengthAdjust="spacing" textLength="81" x="609.5" y="335.4551">playGames()</text><ellipse cx="600.5" cy="348.8359" fill="#84BE84" rx="3" ry="3" style="stroke:#038048;stroke-width:1.0;"/><text fill="#000000" font-family="sans-serif" font-size="14" lengthAdjust="spacing" text-decoration="underline" textLength="85" x="609.5" y="353.0645">main(String[])</text></g><!--class ConsoleView--><g id="elem_ConsoleView"><rect codeLine="5" fill="#F1F1F1" height="58.7031" id="ConsoleView" rx="2.5" ry="2.5" style="stroke:#181818;stroke-width:0.5;" width="151" x="7" y="420"/><ellipse cx="22" cy="441.3516" fill="#ADD1B2" rx="11" ry="11" style="stroke:#181818;stroke-width:1.0;"/><path d="M24.7656,437.2266 Q24.9219,437.0078 25.1094,436.8984 Q25.2969,436.7891 25.5156,436.7891 Q25.8906,436.7891 26.125,437.0547 Q26.3594,437.3047 26.3594,437.9141 L26.3594,439.3672 Q26.3594,439.9766 26.125,440.2422 Q25.8906,440.5078 25.5156,440.5078 Q25.1719,440.5078 24.9688,440.3047 Q24.7656,440.1172 24.6563,439.6016 Q24.6094,439.2422 24.4219,439.0547 Q24.0938,438.6797 23.4844,438.4609 Q22.875,438.2422 22.25,438.2422 Q21.4844,438.2422 20.8438,438.5703 Q20.2188,438.8984 19.7188,439.6484 Q19.2344,440.3984 19.2344,441.4297 L19.2344,442.5234 Q19.2344,443.7578 20.125,444.5859 Q21.0156,445.3984 22.6094,445.3984 Q23.5469,445.3984 24.2031,445.1484 Q24.5938,444.9922 25.0156,444.5547 Q25.2813,444.2891 25.4219,444.2109 Q25.5781,444.1328 25.7813,444.1328 Q26.1094,444.1328 26.3594,444.3984 Q26.625,444.6484 26.625,444.9922 Q26.625,445.3359 26.2813,445.7422 Q25.7813,446.3203 24.9844,446.6484 Q23.9063,447.1016 22.6094,447.1016 Q21.0938,447.1016 19.8906,446.4766 Q18.9063,445.9766 18.2188,444.9141 Q17.5313,443.8359 17.5313,442.5547 L17.5313,441.3984 Q17.5313,440.0703 18.1406,438.9297 Q18.7656,437.7734 19.8594,437.1641 Q20.9531,436.5391 22.1875,436.5391 Q22.9219,436.5391 23.5625,436.7109 Q24.2188,436.8672 24.7656,437.2266 Z " fill="#000000"/><text fill="#000000" font-family="sans-serif" font-size="12" font-style="italic" lengthAdjust="spacing" textLength="106" x="42.5" y="437.457">&#171;ConcreteProduct&#187;</text><text fill="#000000" font-family="sans-serif" font-size="14" lengthAdjust="spacing" textLength="119" x="36" y="454.627">views.ConsoleView</text><line style="stroke:#181818;stroke-width:0.5;" x1="8" x2="157" y1="462.7031" y2="462.7031"/><line style="stroke:#181818;stroke-width:0.5;" x1="8" x2="157" y1="470.7031" y2="470.7031"/></g><!--class GraphicsView--><g id="elem_GraphicsView"><rect codeLine="6" fill="#F1F1F1" height="58.7031" id="GraphicsView" rx="2.5" ry="2.5" style="stroke:#181818;stroke-width:0.5;" width="156" x="193.5" y="420"/><ellipse cx="208.5" cy="441.3516" fill="#ADD1B2" rx="11" ry="11" style="stroke:#181818;stroke-width:1.0;"/><path d="M211.2656,437.2266 Q211.4219,437.0078 211.6094,436.8984 Q211.7969,436.7891 212.0156,436.7891 Q212.3906,436.7891 212.625,437.0547 Q212.8594,437.3047 212.8594,437.9141 L212.8594,439.3672 Q212.8594,439.9766 212.625,440.2422 Q212.3906,440.5078 212.0156,440.5078 Q211.6719,440.5078 211.4688,440.3047 Q211.2656,440.1172 211.1563,439.6016 Q211.1094,439.2422 210.9219,439.0547 Q210.5938,438.6797 209.9844,438.4609 Q209.375,438.2422 208.75,438.2422 Q207.9844,438.2422 207.3438,438.5703 Q206.7188,438.8984 206.2188,439.6484 Q205.7344,440.3984 205.7344,441.4297 L205.7344,442.5234 Q205.7344,443.7578 206.625,444.5859 Q207.5156,445.3984 209.1094,445.3984 Q210.0469,445.3984 210.7031,445.1484 Q211.0938,444.9922 211.5156,444.5547 Q211.7813,444.2891 211.9219,444.2109 Q212.0781,444.1328 212.2813,444.1328 Q212.6094,444.1328 212.8594,444.3984 Q213.125,444.6484 213.125,444.9922 Q213.125,445.3359 212.7813,445.7422 Q212.2813,446.3203 211.4844,446.6484 Q210.4063,447.1016 209.1094,447.1016 Q207.5938,447.1016 206.3906,446.4766 Q205.4063,445.9766 204.7188,444.9141 Q204.0313,443.8359 204.0313,442.5547 L204.0313,441.3984 Q204.0313,440.0703 204.6406,438.9297 Q205.2656,437.7734 206.3594,437.1641 Q207.4531,436.5391 208.6875,436.5391 Q209.4219,436.5391 210.0625,436.7109 Q210.7188,436.8672 211.2656,437.2266 Z " fill="#000000"/><text fill="#000000" font-family="sans-serif" font-size="12" font-style="italic" lengthAdjust="spacing" textLength="106" x="231.5" y="437.457">&#171;ConcreteProduct&#187;</text><text fill="#000000" font-family="sans-serif" font-size="14" lengthAdjust="spacing" textLength="124" x="222.5" y="454.627">views.GraphicsView</text><line style="stroke:#181818;stroke-width:0.5;" x1="194.5" x2="348.5" y1="462.7031" y2="462.7031"/><line style="stroke:#181818;stroke-width:0.5;" x1="194.5" x2="348.5" y1="470.7031" y2="470.7031"/></g><!--class View--><g id="elem_View"><rect codeLine="7" fill="#F1F1F1" height="58.7031" id="View" rx="2.5" ry="2.5" style="stroke:#181818;stroke-width:0.5;" width="98" x="222.5" y="266"/><ellipse cx="237.5" cy="287.3516" fill="#B4A7E5" rx="11" ry="11" style="stroke:#181818;stroke-width:1.0;"/><path d="M238.4531,283.9922 L238.4531,290.6484 L240.1719,290.6484 Q240.7813,290.6484 241.0469,290.8828 Q241.3125,291.1172 241.3125,291.5078 Q241.3125,291.8828 241.0469,292.1172 Q240.7813,292.3516 240.1719,292.3516 L235.0313,292.3516 Q234.4219,292.3516 234.1563,292.1172 Q233.8906,291.8828 233.8906,291.4922 Q233.8906,291.1172 234.1563,290.8828 Q234.4219,290.6484 235.0313,290.6484 L236.75,290.6484 L236.75,283.9922 L235.0313,283.9922 Q234.4219,283.9922 234.1563,283.7578 Q233.8906,283.5234 233.8906,283.1328 Q233.8906,282.7578 234.1563,282.5234 Q234.4219,282.2891 235.0313,282.2891 L240.1719,282.2891 Q240.7813,282.2891 241.0469,282.5234 Q241.3125,282.7578 241.3125,283.1328 Q241.3125,283.5234 241.0469,283.7578 Q240.7813,283.9922 240.1719,283.9922 L238.4531,283.9922 Z " fill="#000000"/><text fill="#000000" font-family="sans-serif" font-size="12" font-style="italic" lengthAdjust="spacing" textLength="56" x="256.5" y="283.457">&#171;Product&#187;</text><text fill="#000000" font-family="sans-serif" font-size="14" font-style="italic" lengthAdjust="spacing" textLength="66" x="251.5" y="300.627">views.View</text><line style="stroke:#181818;stroke-width:0.5;" x1="223.5" x2="319.5" y1="308.7031" y2="308.7031"/><line style="stroke:#181818;stroke-width:0.5;" x1="223.5" x2="319.5" y1="316.7031" y2="316.7031"/></g><!--class Logic--><g id="elem_Logic"><rect codeLine="8" fill="#F1F1F1" height="48" id="Logic" rx="2.5" ry="2.5" style="stroke:#181818;stroke-width:0.5;" width="136" x="778.5" y="271.5"/><ellipse cx="793.5" cy="287.5" fill="#ADD1B2" rx="11" ry="11" style="stroke:#181818;stroke-width:1.0;"/><path d="M796.2656,283.375 Q796.4219,283.1563 796.6094,283.0469 Q796.7969,282.9375 797.0156,282.9375 Q797.3906,282.9375 797.625,283.2031 Q797.8594,283.4531 797.8594,284.0625 L797.8594,285.5156 Q797.8594,286.125 797.625,286.3906 Q797.3906,286.6563 797.0156,286.6563 Q796.6719,286.6563 796.4688,286.4531 Q796.2656,286.2656 796.1563,285.75 Q796.1094,285.3906 795.9219,285.2031 Q795.5938,284.8281 794.9844,284.6094 Q794.375,284.3906 793.75,284.3906 Q792.9844,284.3906 792.3438,284.7188 Q791.7188,285.0469 791.2188,285.7969 Q790.7344,286.5469 790.7344,287.5781 L790.7344,288.6719 Q790.7344,289.9063 791.625,290.7344 Q792.5156,291.5469 794.1094,291.5469 Q795.0469,291.5469 795.7031,291.2969 Q796.0938,291.1406 796.5156,290.7031 Q796.7813,290.4375 796.9219,290.3594 Q797.0781,290.2813 797.2813,290.2813 Q797.6094,290.2813 797.8594,290.5469 Q798.125,290.7969 798.125,291.1406 Q798.125,291.4844 797.7813,291.8906 Q797.2813,292.4688 796.4844,292.7969 Q795.4063,293.25 794.1094,293.25 Q792.5938,293.25 791.3906,292.625 Q790.4063,292.125 789.7188,291.0625 Q789.0313,289.9844 789.0313,288.7031 L789.0313,287.5469 Q789.0313,286.2188 789.6406,285.0781 Q790.2656,283.9219 791.3594,283.3125 Q792.4531,282.6875 793.6875,282.6875 Q794.4219,282.6875 795.0625,282.8594 Q795.7188,283.0156 796.2656,283.375 Z " fill="#000000"/><text fill="#000000" font-family="sans-serif" font-size="14" lengthAdjust="spacing" textLength="104" x="807.5" y="293.2285">controllers.Logic</text><line style="stroke:#181818;stroke-width:0.5;" x1="779.5" x2="913.5" y1="303.5" y2="303.5"/><line style="stroke:#181818;stroke-width:0.5;" x1="779.5" x2="913.5" y1="311.5" y2="311.5"/></g><!--class StartController--><g id="elem_StartController"><rect codeLine="9" fill="#F1F1F1" height="48" id="StartController" rx="2.5" ry="2.5" style="stroke:#181818;stroke-width:0.5;" width="194" x="384.5" y="425.5"/><ellipse cx="399.5" cy="441.5" fill="#ADD1B2" rx="11" ry="11" style="stroke:#181818;stroke-width:1.0;"/><path d="M402.2656,437.375 Q402.4219,437.1563 402.6094,437.0469 Q402.7969,436.9375 403.0156,436.9375 Q403.3906,436.9375 403.625,437.2031 Q403.8594,437.4531 403.8594,438.0625 L403.8594,439.5156 Q403.8594,440.125 403.625,440.3906 Q403.3906,440.6563 403.0156,440.6563 Q402.6719,440.6563 402.4688,440.4531 Q402.2656,440.2656 402.1563,439.75 Q402.1094,439.3906 401.9219,439.2031 Q401.5938,438.8281 400.9844,438.6094 Q400.375,438.3906 399.75,438.3906 Q398.9844,438.3906 398.3438,438.7188 Q397.7188,439.0469 397.2188,439.7969 Q396.7344,440.5469 396.7344,441.5781 L396.7344,442.6719 Q396.7344,443.9063 397.625,444.7344 Q398.5156,445.5469 400.1094,445.5469 Q401.0469,445.5469 401.7031,445.2969 Q402.0938,445.1406 402.5156,444.7031 Q402.7813,444.4375 402.9219,444.3594 Q403.0781,444.2813 403.2813,444.2813 Q403.6094,444.2813 403.8594,444.5469 Q404.125,444.7969 404.125,445.1406 Q404.125,445.4844 403.7813,445.8906 Q403.2813,446.4688 402.4844,446.7969 Q401.4063,447.25 400.1094,447.25 Q398.5938,447.25 397.3906,446.625 Q396.4063,446.125 395.7188,445.0625 Q395.0313,443.9844 395.0313,442.7031 L395.0313,441.5469 Q395.0313,440.2188 395.6406,439.0781 Q396.2656,437.9219 397.3594,437.3125 Q398.4531,436.6875 399.6875,436.6875 Q400.4219,436.6875 401.0625,436.8594 Q401.7188,437.0156 402.2656,437.375 Z " fill="#000000"/><text fill="#000000" font-family="sans-serif" font-size="14" lengthAdjust="spacing" textLength="162" x="413.5" y="447.2285">controllers.StartController</text><line style="stroke:#181818;stroke-width:0.5;" x1="385.5" x2="577.5" y1="457.5" y2="457.5"/><line style="stroke:#181818;stroke-width:0.5;" x1="385.5" x2="577.5" y1="465.5" y2="465.5"/></g><!--class PlayController--><g id="elem_PlayController"><rect codeLine="10" fill="#F1F1F1" height="48" id="PlayController" rx="2.5" ry="2.5" style="stroke:#181818;stroke-width:0.5;" width="191" x="614" y="425.5"/><ellipse cx="629" cy="441.5" fill="#ADD1B2" rx="11" ry="11" style="stroke:#181818;stroke-width:1.0;"/><path d="M631.7656,437.375 Q631.9219,437.1563 632.1094,437.0469 Q632.2969,436.9375 632.5156,436.9375 Q632.8906,436.9375 633.125,437.2031 Q633.3594,437.4531 633.3594,438.0625 L633.3594,439.5156 Q633.3594,440.125 633.125,440.3906 Q632.8906,440.6563 632.5156,440.6563 Q632.1719,440.6563 631.9688,440.4531 Q631.7656,440.2656 631.6563,439.75 Q631.6094,439.3906 631.4219,439.2031 Q631.0938,438.8281 630.4844,438.6094 Q629.875,438.3906 629.25,438.3906 Q628.4844,438.3906 627.8438,438.7188 Q627.2188,439.0469 626.7188,439.7969 Q626.2344,440.5469 626.2344,441.5781 L626.2344,442.6719 Q626.2344,443.9063 627.125,444.7344 Q628.0156,445.5469 629.6094,445.5469 Q630.5469,445.5469 631.2031,445.2969 Q631.5938,445.1406 632.0156,444.7031 Q632.2813,444.4375 632.4219,444.3594 Q632.5781,444.2813 632.7813,444.2813 Q633.1094,444.2813 633.3594,444.5469 Q633.625,444.7969 633.625,445.1406 Q633.625,445.4844 633.2813,445.8906 Q632.7813,446.4688 631.9844,446.7969 Q630.9063,447.25 629.6094,447.25 Q628.0938,447.25 626.8906,446.625 Q625.9063,446.125 625.2188,445.0625 Q624.5313,443.9844 624.5313,442.7031 L624.5313,441.5469 Q624.5313,440.2188 625.1406,439.0781 Q625.7656,437.9219 626.8594,437.3125 Q627.9531,436.6875 629.1875,436.6875 Q629.9219,436.6875 630.5625,436.8594 Q631.2188,437.0156 631.7656,437.375 Z " fill="#000000"/><text fill="#000000" font-family="sans-serif" font-size="14" lengthAdjust="spacing" textLength="159" x="643" y="447.2285">controllers.PlayController</text><line style="stroke:#181818;stroke-width:0.5;" x1="615" x2="804" y1="457.5" y2="457.5"/><line style="stroke:#181818;stroke-width:0.5;" x1="615" x2="804" y1="465.5" y2="465.5"/></g><!--class ResumeController--><g id="elem_ResumeController"><rect codeLine="11" fill="#F1F1F1" height="48" id="ResumeController" rx="2.5" ry="2.5" style="stroke:#181818;stroke-width:0.5;" width="216" x="840.5" y="425.5"/><ellipse cx="855.5" cy="441.5" fill="#ADD1B2" rx="11" ry="11" style="stroke:#181818;stroke-width:1.0;"/><path d="M858.2656,437.375 Q858.4219,437.1563 858.6094,437.0469 Q858.7969,436.9375 859.0156,436.9375 Q859.3906,436.9375 859.625,437.2031 Q859.8594,437.4531 859.8594,438.0625 L859.8594,439.5156 Q859.8594,440.125 859.625,440.3906 Q859.3906,440.6563 859.0156,440.6563 Q858.6719,440.6563 858.4688,440.4531 Q858.2656,440.2656 858.1563,439.75 Q858.1094,439.3906 857.9219,439.2031 Q857.5938,438.8281 856.9844,438.6094 Q856.375,438.3906 855.75,438.3906 Q854.9844,438.3906 854.3438,438.7188 Q853.7188,439.0469 853.2188,439.7969 Q852.7344,440.5469 852.7344,441.5781 L852.7344,442.6719 Q852.7344,443.9063 853.625,444.7344 Q854.5156,445.5469 856.1094,445.5469 Q857.0469,445.5469 857.7031,445.2969 Q858.0938,445.1406 858.5156,444.7031 Q858.7813,444.4375 858.9219,444.3594 Q859.0781,444.2813 859.2813,444.2813 Q859.6094,444.2813 859.8594,444.5469 Q860.125,444.7969 860.125,445.1406 Q860.125,445.4844 859.7813,445.8906 Q859.2813,446.4688 858.4844,446.7969 Q857.4063,447.25 856.1094,447.25 Q854.5938,447.25 853.3906,446.625 Q852.4063,446.125 851.7188,445.0625 Q851.0313,443.9844 851.0313,442.7031 L851.0313,441.5469 Q851.0313,440.2188 851.6406,439.0781 Q852.2656,437.9219 853.3594,437.3125 Q854.4531,436.6875 855.6875,436.6875 Q856.4219,436.6875 857.0625,436.8594 Q857.7188,437.0156 858.2656,437.375 Z " fill="#000000"/><text fill="#000000" font-family="sans-serif" font-size="14" lengthAdjust="spacing" textLength="184" x="869.5" y="447.2285">controllers.ResumeController</text><line style="stroke:#181818;stroke-width:0.5;" x1="841.5" x2="1055.5" y1="457.5" y2="457.5"/><line style="stroke:#181818;stroke-width:0.5;" x1="841.5" x2="1055.5" y1="465.5" y2="465.5"/></g><!--reverse link Connect4 to ConsoleConnect4--><g id="link_Connect4_ConsoleConnect4"><path codeLine="13" d="M534.2767,187.2225 C518.4467,219.4125 507.95,240.74 495.58,265.88 " fill="none" id="Connect4-backto-ConsoleConnect4" style="stroke:#181818;stroke-width:1.0;"/><polygon fill="none" points="542.22,171.07,528.8925,184.5748,539.6609,189.8703,542.22,171.07" style="stroke:#181818;stroke-width:1.0;"/></g><!--reverse link Connect4 to GraphicsConnect4--><g id="link_Connect4_GraphicsConnect4"><path codeLine="14" d="M613.133,187.188 C622.713,206.458 625.23,211.51 634.81,230.79 " fill="none" id="Connect4-backto-GraphicsConnect4" style="stroke:#181818;stroke-width:1.0;"/><polygon fill="none" points="605.12,171.07,607.7603,189.8591,618.5057,184.517,605.12,171.07" style="stroke:#181818;stroke-width:1.0;"/></g><!--link Connect4 to View--><g id="link_Connect4_View"><path codeLine="15" d="M492.1078,157.8978 C435.0878,193.2078 372.0611,232.231 322.8911,262.681 " fill="none" id="Connect4-View" style="stroke:#181818;stroke-width:1.0;"/><polygon fill="#181818" points="502.31,151.58,495.103,151.3382,492.1078,157.8978,499.3148,158.1396,502.31,151.58" style="stroke:#181818;stroke-width:1.0;"/><polygon fill="#181818" points="317.79,265.84,327.5476,264.5022,322.0409,263.2075,323.3356,257.7008,317.79,265.84" style="stroke:#181818;stroke-width:1.0;"/></g><!--link Connect4 to Logic--><g id="link_Connect4_Logic"><path codeLine="16" d="M654.6895,160.2685 C689.5495,183.1685 721.97,204.86 759.5,231 C778.22,244.04 794.0345,255.5043 810.5045,267.6743 " fill="none" id="Connect4-Logic" style="stroke:#181818;stroke-width:1.0;"/><polygon fill="#181818" points="644.66,153.68,647.4786,160.3174,654.6895,160.2685,651.8709,153.6311,644.66,153.68" style="stroke:#181818;stroke-width:1.0;"/><polygon fill="#181818" points="815.33,271.24,810.4688,262.6744,811.3087,268.2686,805.7146,269.1085,815.33,271.24" style="stroke:#181818;stroke-width:1.0;"/></g><!--link GraphicsConnect4 to GraphicsView--><g id="link_GraphicsConnect4_GraphicsView"><path codeLine="18" d="M607.52,360.04 C596.35,369.26 584.16,377.74 571.5,384 C488.57,424.99 456.51,398.67 366.5,420 C360.97,421.31 361.0881,421.2166 355.3781,422.7366 " fill="none" id="GraphicsConnect4-to-GraphicsView" style="stroke:#181818;stroke-width:1.0;stroke-dasharray:7.0,7.0;"/><polygon fill="#181818" points="349.58,424.28,359.3061,425.8302,354.4117,422.9938,357.2482,418.0994,349.58,424.28" style="stroke:#181818;stroke-width:1.0;"/></g><!--link ConsoleConnect4 to ConsoleView--><g id="link_ConsoleConnect4_ConsoleView"><path codeLine="19" d="M442.4,325.12 C414.44,344.34 375.23,368.83 337.5,384 C269.07,411.52 246.81,401.18 175.5,420 C169.87,421.49 169.8299,421.4443 164.0099,423.1043 " fill="none" id="ConsoleConnect4-to-ConsoleView" style="stroke:#181818;stroke-width:1.0;stroke-dasharray:7.0,7.0;"/><polygon fill="#181818" points="158.24,424.75,167.992,426.128,163.0482,423.3786,165.7977,418.4348,158.24,424.75" style="stroke:#181818;stroke-width:1.0;"/></g><!--link ConsoleConnect4 to StartController--><g id="link_ConsoleConnect4_StartController"><path codeLine="21" d="M481.5,325.09 C481.5,354.16 481.5,392.63 481.5,419.5 " fill="none" id="ConsoleConnect4-to-StartController" style="stroke:#181818;stroke-width:1.0;stroke-dasharray:7.0,7.0;"/><polygon fill="#181818" points="481.5,425.5,485.5,416.5,481.5,420.5,477.5,416.5,481.5,425.5" style="stroke:#181818;stroke-width:1.0;"/></g><!--link ConsoleConnect4 to PlayController--><g id="link_ConsoleConnect4_PlayController"><path codeLine="22" d="M506.56,325.01 C523.8,343.46 547.95,367.1 572.5,384 C596.32,400.4 619.4609,412.2101 644.3909,423.0901 " fill="none" id="ConsoleConnect4-to-PlayController" style="stroke:#181818;stroke-width:1.0;stroke-dasharray:7.0,7.0;"/><polygon fill="#181818" points="649.89,425.49,643.2413,418.224,645.3074,423.4901,640.0414,425.5562,649.89,425.49" style="stroke:#181818;stroke-width:1.0;"/></g><!--link ConsoleConnect4 to ResumeController--><g id="link_ConsoleConnect4_ResumeController"><path codeLine="23" d="M503.28,325.4 C519.95,345.27 544.73,370.44 572.5,384 C673.37,433.27 712.11,399.6 822.5,420 C831.54,421.67 835.0459,422.3175 844.4159,424.2675 " fill="none" id="ConsoleConnect4-to-ResumeController" style="stroke:#181818;stroke-width:1.0;stroke-dasharray:7.0,7.0;"/><polygon fill="#181818" points="850.29,425.49,842.2938,419.7402,845.3949,424.4713,840.6638,427.5724,850.29,425.49" style="stroke:#181818;stroke-width:1.0;"/></g><!--link GraphicsConnect4 to StartController--><g id="link_GraphicsConnect4_StartController"><path codeLine="24" d="M599.42,360.15 C590.19,368.35 580.72,376.5 571.5,384 C553.76,398.44 537.9861,409.9645 520.9161,421.8345 " fill="none" id="GraphicsConnect4-to-StartController" style="stroke:#181818;stroke-width:1.0;stroke-dasharray:7.0,7.0;"/><polygon fill="#181818" points="515.99,425.26,525.6628,423.4059,520.0951,422.4055,521.0955,416.8378,515.99,425.26" style="stroke:#181818;stroke-width:1.0;"/></g><!--link GraphicsConnect4 to PlayController--><g id="link_GraphicsConnect4_PlayController"><path codeLine="25" d="M684.49,360.08 C691.02,383.18 696.3644,402.0872 701.2944,419.4872 " fill="none" id="GraphicsConnect4-to-PlayController" style="stroke:#181818;stroke-width:1.0;stroke-dasharray:7.0,7.0;"/><polygon fill="#181818" points="702.93,425.26,704.3251,415.5104,701.567,420.4494,696.6281,417.6913,702.93,425.26" style="stroke:#181818;stroke-width:1.0;"/></g><!--link GraphicsConnect4 to ResumeController--><g id="link_GraphicsConnect4_ResumeController"><path codeLine="26" d="M728.51,360.15 C738.97,368.91 750.14,377.22 761.5,384 C790.99,401.6 820.2559,413.4698 851.9459,423.6198 " fill="none" id="GraphicsConnect4-to-ResumeController" style="stroke:#181818;stroke-width:1.0;stroke-dasharray:7.0,7.0;"/><polygon fill="#181818" points="857.66,425.45,850.309,418.8954,852.8983,423.9249,847.8688,426.5141,857.66,425.45" style="stroke:#181818;stroke-width:1.0;"/></g><!--reverse link View to ConsoleView--><g id="link_View_ConsoleView"><path codeLine="28" d="M221.9241,336.3715 C188.2441,363.4615 151.95,392.65 118.21,419.78 " fill="none" id="View-backto-ConsoleView" style="stroke:#181818;stroke-width:1.0;"/><polygon fill="none" points="235.95,325.09,218.1636,331.6962,225.6846,341.0469,235.95,325.09" style="stroke:#181818;stroke-width:1.0;"/></g><!--reverse link View to GraphicsView--><g id="link_View_GraphicsView"><path codeLine="29" d="M271.5,343.09 C271.5,370.18 271.5,392.65 271.5,419.78 " fill="none" id="View-backto-GraphicsView" style="stroke:#181818;stroke-width:1.0;"/><polygon fill="none" points="271.5,325.09,265.5,343.09,277.5,343.09,271.5,325.09" style="stroke:#181818;stroke-width:1.0;"/></g><!--SRC=[ZPEnJiCm48PtFuMLBYaecPYgAak7BXqgAh4WXiCSnL8QL_OLX4hVdSHA6ljYAZRhxlllpl_PyEh8WYAfQd1EAjCqgEYXNFK7kLokB08PMrLYoZXJOuYQHbaa_5Eojd3yqChzGzDNVzBu9S79xBCzk3A8Pe5uQytRIT5LFFHXwZ2Sbkk6qBw3GicaWuHtsfYzLfvhBqdMr3LQL_ferYCx0akhQtO2i_mWszRmVKCLfmVH8xhJ0M_8E909CIxZfoWasohByWMEwRkYgBnfBEIj46Ao-RAieZK9_fmw85YtI0BCkoGJEvL4k2lfSNcp9CIw9Pb9E-5VM-Y_l_8OZPmQ7Lx8sN3Evs7u3Ft7linKzx5ylNo-O1kAm6xoDHpGnQLcUwH8FRrJ2_5OMoE59OP9OSTWb4J-x0X8gylz0NIJxyZgPl_yCXU_]--></g></svg>