<?xml version="1.0" encoding="us-ascii" standalone="no"?><svg xmlns="http://www.w3.org/2000/svg" xmlns:xlink="http://www.w3.org/1999/xlink" contentStyleType="text/css" height="2725px" preserveAspectRatio="none" style="width:1582px;height:2725px;background:#FFFFFF;" version="1.1" viewBox="0 0 1582 2725" width="1582px" zoomAndPan="magnify"><defs/><g><!--class Connect4--><g id="elem_Connect4"><rect codeLine="2" fill="#F1F1F1" height="136.0469" id="Connect4" rx="2.5" ry="2.5" style="stroke:#181818;stroke-width:0.5;" width="111" x="798.5" y="86.5"/><ellipse cx="821.6" cy="102.5" fill="#ADD1B2" rx="11" ry="11" style="stroke:#181818;stroke-width:1.0;"/><path d="M824.3656,98.375 Q824.5219,98.1563 824.7094,98.0469 Q824.8969,97.9375 825.1156,97.9375 Q825.4906,97.9375 825.725,98.2031 Q825.9594,98.4531 825.9594,99.0625 L825.9594,100.5156 Q825.9594,101.125 825.725,101.3906 Q825.4906,101.6563 825.1156,101.6563 Q824.7719,101.6563 824.5688,101.4531 Q824.3656,101.2656 824.2563,100.75 Q824.2094,100.3906 824.0219,100.2031 Q823.6938,99.8281 823.0844,99.6094 Q822.475,99.3906 821.85,99.3906 Q821.0844,99.3906 820.4438,99.7188 Q819.8188,100.0469 819.3188,100.7969 Q818.8344,101.5469 818.8344,102.5781 L818.8344,103.6719 Q818.8344,104.9063 819.725,105.7344 Q820.6156,106.5469 822.2094,106.5469 Q823.1469,106.5469 823.8031,106.2969 Q824.1938,106.1406 824.6156,105.7031 Q824.8813,105.4375 825.0219,105.3594 Q825.1781,105.2813 825.3813,105.2813 Q825.7094,105.2813 825.9594,105.5469 Q826.225,105.7969 826.225,106.1406 Q826.225,106.4844 825.8813,106.8906 Q825.3813,107.4688 824.5844,107.7969 Q823.5063,108.25 822.2094,108.25 Q820.6938,108.25 819.4906,107.625 Q818.5063,107.125 817.8188,106.0625 Q817.1313,104.9844 817.1313,103.7031 L817.1313,102.5469 Q817.1313,101.2188 817.7406,100.0781 Q818.3656,98.9219 819.4594,98.3125 Q820.5531,97.6875 821.7875,97.6875 Q822.5219,97.6875 823.1625,97.8594 Q823.8188,98.0156 824.3656,98.375 Z " fill="#000000"/><text fill="#000000" font-family="sans-serif" font-size="14" lengthAdjust="spacing" textLength="61" x="837.4" y="108.2285">Connect4</text><line style="stroke:#181818;stroke-width:0.5;" x1="799.5" x2="908.5" y1="118.5" y2="118.5"/><rect fill="none" height="6" style="stroke:#C82930;stroke-width:1.0;" width="6" x="806.5" y="129.8047"/><text fill="#000000" font-family="sans-serif" font-size="14" lengthAdjust="spacing" textLength="45" x="818.5" y="137.0332">game{}</text><rect fill="none" height="6" style="stroke:#C82930;stroke-width:1.0;" width="6" x="806.5" y="147.4141"/><text fill="#000000" font-family="sans-serif" font-size="14" lengthAdjust="spacing" textLength="74" x="818.5" y="154.6426">gameView{}</text><line style="stroke:#181818;stroke-width:0.5;" x1="799.5" x2="908.5" y1="161.7188" y2="161.7188"/><ellipse cx="809.5" cy="176.0234" fill="#84BE84" rx="3" ry="3" style="stroke:#038048;stroke-width:1.0;"/><text fill="#000000" font-family="sans-serif" font-size="14" lengthAdjust="spacing" textLength="71" x="818.5" y="180.252">Connect4()</text><ellipse cx="809.5" cy="193.6328" fill="#84BE84" rx="3" ry="3" style="stroke:#038048;stroke-width:1.0;"/><text fill="#000000" font-family="sans-serif" font-size="14" lengthAdjust="spacing" textLength="85" x="818.5" y="197.8613">main(String[])</text><ellipse cx="809.5" cy="211.2422" fill="#84BE84" rx="3" ry="3" style="stroke:#038048;stroke-width:1.0;"/><text fill="#000000" font-family="sans-serif" font-size="14" lengthAdjust="spacing" textLength="81" x="818.5" y="215.4707">playGames()</text></g><!--class Game--><g id="elem_Game"><rect codeLine="3" fill="#F1F1F1" height="188.875" id="Game" rx="2.5" ry="2.5" style="stroke:#181818;stroke-width:0.5;" width="182" x="744" y="807"/><ellipse cx="811.75" cy="823" fill="#ADD1B2" rx="11" ry="11" style="stroke:#181818;stroke-width:1.0;"/><path d="M814.5156,818.875 Q814.6719,818.6563 814.8594,818.5469 Q815.0469,818.4375 815.2656,818.4375 Q815.6406,818.4375 815.875,818.7031 Q816.1094,818.9531 816.1094,819.5625 L816.1094,821.0156 Q816.1094,821.625 815.875,821.8906 Q815.6406,822.1563 815.2656,822.1563 Q814.9219,822.1563 814.7188,821.9531 Q814.5156,821.7656 814.4063,821.25 Q814.3594,820.8906 814.1719,820.7031 Q813.8438,820.3281 813.2344,820.1094 Q812.625,819.8906 812,819.8906 Q811.2344,819.8906 810.5938,820.2188 Q809.9688,820.5469 809.4688,821.2969 Q808.9844,822.0469 808.9844,823.0781 L808.9844,824.1719 Q808.9844,825.4063 809.875,826.2344 Q810.7656,827.0469 812.3594,827.0469 Q813.2969,827.0469 813.9531,826.7969 Q814.3438,826.6406 814.7656,826.2031 Q815.0313,825.9375 815.1719,825.8594 Q815.3281,825.7813 815.5313,825.7813 Q815.8594,825.7813 816.1094,826.0469 Q816.375,826.2969 816.375,826.6406 Q816.375,826.9844 816.0313,827.3906 Q815.5313,827.9688 814.7344,828.2969 Q813.6563,828.75 812.3594,828.75 Q810.8438,828.75 809.6406,828.125 Q808.6563,827.625 807.9688,826.5625 Q807.2813,825.4844 807.2813,824.2031 L807.2813,823.0469 Q807.2813,821.7188 807.8906,820.5781 Q808.5156,819.4219 809.6094,818.8125 Q810.7031,818.1875 811.9375,818.1875 Q812.6719,818.1875 813.3125,818.3594 Q813.9688,818.5156 814.5156,818.875 Z " fill="#000000"/><text fill="#000000" font-family="sans-serif" font-size="14" lengthAdjust="spacing" textLength="38" x="832.25" y="828.7285">Game</text><line style="stroke:#181818;stroke-width:0.5;" x1="745" x2="925" y1="839" y2="839"/><rect fill="none" height="6" style="stroke:#C82930;stroke-width:1.0;" width="6" x="752" y="850.3047"/><text fill="#000000" font-family="sans-serif" font-size="14" lengthAdjust="spacing" textLength="83" x="764" y="857.5332">board: Board</text><rect fill="none" height="6" style="stroke:#C82930;stroke-width:1.0;" width="6" x="752" y="867.9141"/><text fill="#000000" font-family="sans-serif" font-size="14" lengthAdjust="spacing" textLength="63" x="764" y="875.1426">turn: Turn</text><line style="stroke:#181818;stroke-width:0.5;" x1="745" x2="925" y1="882.2188" y2="882.2188"/><ellipse cx="755" cy="896.5234" fill="#84BE84" rx="3" ry="3" style="stroke:#038048;stroke-width:1.0;"/><text fill="#000000" font-family="sans-serif" font-size="14" lengthAdjust="spacing" textLength="48" x="764" y="900.752">Game()</text><ellipse cx="755" cy="914.1328" fill="#84BE84" rx="3" ry="3" style="stroke:#038048;stroke-width:1.0;"/><text fill="#000000" font-family="sans-serif" font-size="14" lengthAdjust="spacing" textLength="42" x="764" y="918.3613">reset()</text><ellipse cx="755" cy="931.7422" fill="#84BE84" rx="3" ry="3" style="stroke:#038048;stroke-width:1.0;"/><text fill="#000000" font-family="sans-serif" font-size="14" lengthAdjust="spacing" textLength="106" x="764" y="935.9707">getColor(): Color</text><ellipse cx="755" cy="949.3516" fill="#84BE84" rx="3" ry="3" style="stroke:#038048;stroke-width:1.0;"/><text fill="#000000" font-family="sans-serif" font-size="14" lengthAdjust="spacing" textLength="124" x="764" y="953.5801">isWinner(): boolean</text><ellipse cx="755" cy="966.9609" fill="#84BE84" rx="3" ry="3" style="stroke:#038048;stroke-width:1.0;"/><text fill="#000000" font-family="sans-serif" font-size="14" lengthAdjust="spacing" textLength="133" x="764" y="971.1895">isFinished(): boolean</text><ellipse cx="755" cy="984.5703" fill="#84BE84" rx="3" ry="3" style="stroke:#038048;stroke-width:1.0;"/><text fill="#000000" font-family="sans-serif" font-size="14" lengthAdjust="spacing" textLength="156" x="764" y="988.7988">getActivePlayer(): Player</text></g><!--class GameView--><g id="elem_GameView"><rect codeLine="4" fill="#F1F1F1" height="153.6563" id="GameView" rx="2.5" ry="2.5" style="stroke:#181818;stroke-width:0.5;" width="167" x="850.5" y="362"/><ellipse cx="896.25" cy="378" fill="#ADD1B2" rx="11" ry="11" style="stroke:#181818;stroke-width:1.0;"/><path d="M899.0156,373.875 Q899.1719,373.6563 899.3594,373.5469 Q899.5469,373.4375 899.7656,373.4375 Q900.1406,373.4375 900.375,373.7031 Q900.6094,373.9531 900.6094,374.5625 L900.6094,376.0156 Q900.6094,376.625 900.375,376.8906 Q900.1406,377.1563 899.7656,377.1563 Q899.4219,377.1563 899.2188,376.9531 Q899.0156,376.7656 898.9063,376.25 Q898.8594,375.8906 898.6719,375.7031 Q898.3438,375.3281 897.7344,375.1094 Q897.125,374.8906 896.5,374.8906 Q895.7344,374.8906 895.0938,375.2188 Q894.4688,375.5469 893.9688,376.2969 Q893.4844,377.0469 893.4844,378.0781 L893.4844,379.1719 Q893.4844,380.4063 894.375,381.2344 Q895.2656,382.0469 896.8594,382.0469 Q897.7969,382.0469 898.4531,381.7969 Q898.8438,381.6406 899.2656,381.2031 Q899.5313,380.9375 899.6719,380.8594 Q899.8281,380.7813 900.0313,380.7813 Q900.3594,380.7813 900.6094,381.0469 Q900.875,381.2969 900.875,381.6406 Q900.875,381.9844 900.5313,382.3906 Q900.0313,382.9688 899.2344,383.2969 Q898.1563,383.75 896.8594,383.75 Q895.3438,383.75 894.1406,383.125 Q893.1563,382.625 892.4688,381.5625 Q891.7813,380.4844 891.7813,379.2031 L891.7813,378.0469 Q891.7813,376.7188 892.3906,375.5781 Q893.0156,374.4219 894.1094,373.8125 Q895.2031,373.1875 896.4375,373.1875 Q897.1719,373.1875 897.8125,373.3594 Q898.4688,373.5156 899.0156,373.875 Z " fill="#000000"/><text fill="#000000" font-family="sans-serif" font-size="14" lengthAdjust="spacing" textLength="67" x="916.75" y="383.7285">GameView</text><line style="stroke:#181818;stroke-width:0.5;" x1="851.5" x2="1016.5" y1="394" y2="394"/><rect fill="none" height="6" style="stroke:#C82930;stroke-width:1.0;" width="6" x="858.5" y="405.3047"/><text fill="#000000" font-family="sans-serif" font-size="14" lengthAdjust="spacing" textLength="81" x="870.5" y="412.5332">game: Game</text><rect fill="none" height="6" style="stroke:#C82930;stroke-width:1.0;" width="6" x="858.5" y="422.9141"/><text fill="#000000" font-family="sans-serif" font-size="14" lengthAdjust="spacing" textLength="141" x="870.5" y="430.1426">boardView: BoardView</text><rect fill="none" height="6" style="stroke:#C82930;stroke-width:1.0;" width="6" x="858.5" y="440.5234"/><text fill="#000000" font-family="sans-serif" font-size="14" lengthAdjust="spacing" textLength="121" x="870.5" y="447.752">turnView: TurnView</text><line style="stroke:#181818;stroke-width:0.5;" x1="851.5" x2="1016.5" y1="454.8281" y2="454.8281"/><ellipse cx="861.5" cy="469.1328" fill="#84BE84" rx="3" ry="3" style="stroke:#038048;stroke-width:1.0;"/><text fill="#000000" font-family="sans-serif" font-size="14" lengthAdjust="spacing" textLength="115" x="870.5" y="473.3613">GameView(Game)</text><ellipse cx="861.5" cy="486.7422" fill="#84BE84" rx="3" ry="3" style="stroke:#038048;stroke-width:1.0;"/><text fill="#000000" font-family="sans-serif" font-size="14" lengthAdjust="spacing" textLength="74" x="870.5" y="490.9707">playGame()</text><rect fill="#F24D5C" height="6" style="stroke:#C82930;stroke-width:1.0;" width="6" x="858.5" y="501.3516"/><text fill="#000000" font-family="sans-serif" font-size="14" lengthAdjust="spacing" textLength="80" x="870.5" y="508.5801">isResumed()</text></g><!--class BoardView--><g id="elem_BoardView"><rect codeLine="5" fill="#F1F1F1" height="118.4375" id="BoardView" rx="2.5" ry="2.5" style="stroke:#181818;stroke-width:0.5;" width="141" x="898.5" y="602.5"/><ellipse cx="932.4" cy="618.5" fill="#ADD1B2" rx="11" ry="11" style="stroke:#181818;stroke-width:1.0;"/><path d="M935.1656,614.375 Q935.3219,614.1563 935.5094,614.0469 Q935.6969,613.9375 935.9156,613.9375 Q936.2906,613.9375 936.525,614.2031 Q936.7594,614.4531 936.7594,615.0625 L936.7594,616.5156 Q936.7594,617.125 936.525,617.3906 Q936.2906,617.6563 935.9156,617.6563 Q935.5719,617.6563 935.3688,617.4531 Q935.1656,617.2656 935.0563,616.75 Q935.0094,616.3906 934.8219,616.2031 Q934.4938,615.8281 933.8844,615.6094 Q933.275,615.3906 932.65,615.3906 Q931.8844,615.3906 931.2438,615.7188 Q930.6188,616.0469 930.1188,616.7969 Q929.6344,617.5469 929.6344,618.5781 L929.6344,619.6719 Q929.6344,620.9063 930.525,621.7344 Q931.4156,622.5469 933.0094,622.5469 Q933.9469,622.5469 934.6031,622.2969 Q934.9938,622.1406 935.4156,621.7031 Q935.6813,621.4375 935.8219,621.3594 Q935.9781,621.2813 936.1813,621.2813 Q936.5094,621.2813 936.7594,621.5469 Q937.025,621.7969 937.025,622.1406 Q937.025,622.4844 936.6813,622.8906 Q936.1813,623.4688 935.3844,623.7969 Q934.3063,624.25 933.0094,624.25 Q931.4938,624.25 930.2906,623.625 Q929.3063,623.125 928.6188,622.0625 Q927.9313,620.9844 927.9313,619.7031 L927.9313,618.5469 Q927.9313,617.2188 928.5406,616.0781 Q929.1656,614.9219 930.2594,614.3125 Q931.3531,613.6875 932.5875,613.6875 Q933.3219,613.6875 933.9625,613.8594 Q934.6188,614.0156 935.1656,614.375 Z " fill="#000000"/><text fill="#000000" font-family="sans-serif" font-size="14" lengthAdjust="spacing" textLength="67" x="950.6" y="624.2285">BoardView</text><line style="stroke:#181818;stroke-width:0.5;" x1="899.5" x2="1038.5" y1="634.5" y2="634.5"/><rect fill="none" height="6" style="stroke:#C82930;stroke-width:1.0;" width="6" x="906.5" y="645.8047"/><text fill="#000000" font-family="sans-serif" font-size="14" lengthAdjust="spacing" textLength="81" x="918.5" y="653.0332">game: Game</text><line style="stroke:#181818;stroke-width:0.5;" x1="899.5" x2="1038.5" y1="660.1094" y2="660.1094"/><rect fill="#F24D5C" height="6" style="stroke:#C82930;stroke-width:1.0;" width="6" x="906.5" y="671.4141"/><text fill="#000000" font-family="sans-serif" font-size="14" lengthAdjust="spacing" textLength="115" x="918.5" y="678.6426">BoardView(Game)</text><ellipse cx="909.5" cy="692.0234" fill="#84BE84" rx="3" ry="3" style="stroke:#038048;stroke-width:1.0;"/><text fill="#000000" font-family="sans-serif" font-size="14" lengthAdjust="spacing" textLength="50" x="918.5" y="696.252">writeln()</text><rect fill="#F24D5C" height="6" style="stroke:#C82930;stroke-width:1.0;" width="6" x="906.5" y="706.6328"/><text fill="#000000" font-family="sans-serif" font-size="14" lengthAdjust="spacing" textLength="101" x="918.5" y="713.8613">writeHorizontal()</text></g><!--class PlayerVisitor--><g id="elem_PlayerVisitor"><rect codeLine="6" fill="#F1F1F1" height="83.2188" id="PlayerVisitor" rx="2.5" ry="2.5" style="stroke:#181818;stroke-width:0.5;" width="206" x="1075" y="397.5"/><ellipse cx="1134.25" cy="413.5" fill="#B4A7E5" rx="11" ry="11" style="stroke:#181818;stroke-width:1.0;"/><path d="M1135.2031,410.1406 L1135.2031,416.7969 L1136.9219,416.7969 Q1137.5313,416.7969 1137.7969,417.0313 Q1138.0625,417.2656 1138.0625,417.6563 Q1138.0625,418.0313 1137.7969,418.2656 Q1137.5313,418.5 1136.9219,418.5 L1131.7813,418.5 Q1131.1719,418.5 1130.9063,418.2656 Q1130.6406,418.0313 1130.6406,417.6406 Q1130.6406,417.2656 1130.9063,417.0313 Q1131.1719,416.7969 1131.7813,416.7969 L1133.5,416.7969 L1133.5,410.1406 L1131.7813,410.1406 Q1131.1719,410.1406 1130.9063,409.9063 Q1130.6406,409.6719 1130.6406,409.2813 Q1130.6406,408.9063 1130.9063,408.6719 Q1131.1719,408.4375 1131.7813,408.4375 L1136.9219,408.4375 Q1137.5313,408.4375 1137.7969,408.6719 Q1138.0625,408.9063 1138.0625,409.2813 Q1138.0625,409.6719 1137.7969,409.9063 Q1137.5313,410.1406 1136.9219,410.1406 L1135.2031,410.1406 Z " fill="#000000"/><text fill="#000000" font-family="sans-serif" font-size="14" font-style="italic" lengthAdjust="spacing" textLength="79" x="1154.75" y="419.2285">PlayerVisitor</text><line style="stroke:#181818;stroke-width:0.5;" x1="1076" x2="1280" y1="429.5" y2="429.5"/><line style="stroke:#181818;stroke-width:0.5;" x1="1076" x2="1280" y1="437.5" y2="437.5"/><ellipse cx="1086" cy="451.8047" fill="#84BE84" rx="3" ry="3" style="stroke:#038048;stroke-width:1.0;"/><text fill="#000000" font-family="sans-serif" font-size="14" lengthAdjust="spacing" textLength="103" x="1095" y="456.0332">visit(UserPlayer)</text><ellipse cx="1086" cy="469.4141" fill="#84BE84" rx="3" ry="3" style="stroke:#038048;stroke-width:1.0;"/><text fill="#000000" font-family="sans-serif" font-size="14" lengthAdjust="spacing" textLength="180" x="1095" y="473.6426">visit(RandomMachinePlayer)</text></g><!--class TurnView--><g id="elem_TurnView"><rect codeLine="7" fill="#F1F1F1" height="171.2656" id="TurnView" rx="2.5" ry="2.5" style="stroke:#181818;stroke-width:0.5;" width="206" x="1075" y="576"/><ellipse cx="1144.25" cy="592" fill="#ADD1B2" rx="11" ry="11" style="stroke:#181818;stroke-width:1.0;"/><path d="M1147.0156,587.875 Q1147.1719,587.6563 1147.3594,587.5469 Q1147.5469,587.4375 1147.7656,587.4375 Q1148.1406,587.4375 1148.375,587.7031 Q1148.6094,587.9531 1148.6094,588.5625 L1148.6094,590.0156 Q1148.6094,590.625 1148.375,590.8906 Q1148.1406,591.1563 1147.7656,591.1563 Q1147.4219,591.1563 1147.2188,590.9531 Q1147.0156,590.7656 1146.9063,590.25 Q1146.8594,589.8906 1146.6719,589.7031 Q1146.3438,589.3281 1145.7344,589.1094 Q1145.125,588.8906 1144.5,588.8906 Q1143.7344,588.8906 1143.0938,589.2188 Q1142.4688,589.5469 1141.9688,590.2969 Q1141.4844,591.0469 1141.4844,592.0781 L1141.4844,593.1719 Q1141.4844,594.4063 1142.375,595.2344 Q1143.2656,596.0469 1144.8594,596.0469 Q1145.7969,596.0469 1146.4531,595.7969 Q1146.8438,595.6406 1147.2656,595.2031 Q1147.5313,594.9375 1147.6719,594.8594 Q1147.8281,594.7813 1148.0313,594.7813 Q1148.3594,594.7813 1148.6094,595.0469 Q1148.875,595.2969 1148.875,595.6406 Q1148.875,595.9844 1148.5313,596.3906 Q1148.0313,596.9688 1147.2344,597.2969 Q1146.1563,597.75 1144.8594,597.75 Q1143.3438,597.75 1142.1406,597.125 Q1141.1563,596.625 1140.4688,595.5625 Q1139.7813,594.4844 1139.7813,593.2031 L1139.7813,592.0469 Q1139.7813,590.7188 1140.3906,589.5781 Q1141.0156,588.4219 1142.1094,587.8125 Q1143.2031,587.1875 1144.4375,587.1875 Q1145.1719,587.1875 1145.8125,587.3594 Q1146.4688,587.5156 1147.0156,587.875 Z " fill="#000000"/><text fill="#000000" font-family="sans-serif" font-size="14" lengthAdjust="spacing" textLength="59" x="1164.75" y="597.7285">TurnView</text><line style="stroke:#181818;stroke-width:0.5;" x1="1076" x2="1280" y1="608" y2="608"/><rect fill="none" height="6" style="stroke:#C82930;stroke-width:1.0;" width="6" x="1083" y="619.3047"/><text fill="#000000" font-family="sans-serif" font-size="14" lengthAdjust="spacing" textLength="81" x="1095" y="626.5332">game: Game</text><line style="stroke:#181818;stroke-width:0.5;" x1="1076" x2="1280" y1="633.6094" y2="633.6094"/><rect fill="#F24D5C" height="6" style="stroke:#C82930;stroke-width:1.0;" width="6" x="1083" y="644.9141"/><text fill="#000000" font-family="sans-serif" font-size="14" lengthAdjust="spacing" textLength="107" x="1095" y="652.1426">TurnView(Game)</text><ellipse cx="1086" cy="665.5234" fill="#84BE84" rx="3" ry="3" style="stroke:#038048;stroke-width:1.0;"/><text fill="#000000" font-family="sans-serif" font-size="14" lengthAdjust="spacing" textLength="89" x="1095" y="669.752">resetPlayers()</text><ellipse cx="1086" cy="683.1328" fill="#84BE84" rx="3" ry="3" style="stroke:#038048;stroke-width:1.0;"/><text fill="#000000" font-family="sans-serif" font-size="14" lengthAdjust="spacing" textLength="79" x="1095" y="687.3613">dropToken()</text><ellipse cx="1086" cy="700.7422" fill="#84BE84" rx="3" ry="3" style="stroke:#038048;stroke-width:1.0;"/><text fill="#000000" font-family="sans-serif" font-size="14" lengthAdjust="spacing" textLength="103" x="1095" y="704.9707">visit(UserPlayer)</text><ellipse cx="1086" cy="718.3516" fill="#84BE84" rx="3" ry="3" style="stroke:#038048;stroke-width:1.0;"/><text fill="#000000" font-family="sans-serif" font-size="14" lengthAdjust="spacing" textLength="180" x="1095" y="722.5801">visit(RandomMachinePlayer)</text><ellipse cx="1086" cy="735.9609" fill="#84BE84" rx="3" ry="3" style="stroke:#038048;stroke-width:1.0;"/><text fill="#000000" font-family="sans-serif" font-size="14" lengthAdjust="spacing" textLength="79" x="1095" y="740.1895">writeResult()</text></g><!--class PlayerView--><g id="elem_PlayerView"><rect codeLine="8" fill="#F1F1F1" height="83.2188" id="PlayerView" rx="2.5" ry="2.5" style="stroke:#181818;stroke-width:0.5;" width="127" x="1124.5" y="860"/><ellipse cx="1151.2" cy="876" fill="#B4A7E5" rx="11" ry="11" style="stroke:#181818;stroke-width:1.0;"/><path d="M1152.1531,872.6406 L1152.1531,879.2969 L1153.8719,879.2969 Q1154.4813,879.2969 1154.7469,879.5313 Q1155.0125,879.7656 1155.0125,880.1563 Q1155.0125,880.5313 1154.7469,880.7656 Q1154.4813,881 1153.8719,881 L1148.7313,881 Q1148.1219,881 1147.8563,880.7656 Q1147.5906,880.5313 1147.5906,880.1406 Q1147.5906,879.7656 1147.8563,879.5313 Q1148.1219,879.2969 1148.7313,879.2969 L1150.45,879.2969 L1150.45,872.6406 L1148.7313,872.6406 Q1148.1219,872.6406 1147.8563,872.4063 Q1147.5906,872.1719 1147.5906,871.7813 Q1147.5906,871.4063 1147.8563,871.1719 Q1148.1219,870.9375 1148.7313,870.9375 L1153.8719,870.9375 Q1154.4813,870.9375 1154.7469,871.1719 Q1155.0125,871.4063 1155.0125,871.7813 Q1155.0125,872.1719 1154.7469,872.4063 Q1154.4813,872.6406 1153.8719,872.6406 L1152.1531,872.6406 Z " fill="#000000"/><text fill="#000000" font-family="sans-serif" font-size="14" font-style="italic" lengthAdjust="spacing" textLength="69" x="1167.8" y="881.7285">PlayerView</text><line style="stroke:#181818;stroke-width:0.5;" x1="1125.5" x2="1250.5" y1="892" y2="892"/><line style="stroke:#181818;stroke-width:0.5;" x1="1125.5" x2="1250.5" y1="900" y2="900"/><ellipse cx="1135.5" cy="914.3047" fill="#84BE84" rx="3" ry="3" style="stroke:#038048;stroke-width:1.0;"/><text fill="#000000" font-family="sans-serif" font-size="14" font-style="italic" lengthAdjust="spacing" textLength="80" x="1144.5" y="918.5332">dropToken()</text><ellipse cx="1135.5" cy="931.9141" fill="#84BE84" rx="3" ry="3" style="stroke:#038048;stroke-width:1.0;"/><text fill="#000000" font-family="sans-serif" font-size="14" font-style="italic" lengthAdjust="spacing" textLength="101" x="1144.5" y="936.1426">getColumn(): int</text></g><!--class MachinePlayerView--><g id="elem_MachinePlayerView"><rect codeLine="9" fill="#F1F1F1" height="100.8281" id="MachinePlayerView" rx="2.5" ry="2.5" style="stroke:#181818;stroke-width:0.5;" width="251" x="1324.5" y="1100"/><ellipse cx="1384.75" cy="1116" fill="#ADD1B2" rx="11" ry="11" style="stroke:#181818;stroke-width:1.0;"/><path d="M1387.5156,1111.875 Q1387.6719,1111.6563 1387.8594,1111.5469 Q1388.0469,1111.4375 1388.2656,1111.4375 Q1388.6406,1111.4375 1388.875,1111.7031 Q1389.1094,1111.9531 1389.1094,1112.5625 L1389.1094,1114.0156 Q1389.1094,1114.625 1388.875,1114.8906 Q1388.6406,1115.1563 1388.2656,1115.1563 Q1387.9219,1115.1563 1387.7188,1114.9531 Q1387.5156,1114.7656 1387.4063,1114.25 Q1387.3594,1113.8906 1387.1719,1113.7031 Q1386.8438,1113.3281 1386.2344,1113.1094 Q1385.625,1112.8906 1385,1112.8906 Q1384.2344,1112.8906 1383.5938,1113.2188 Q1382.9688,1113.5469 1382.4688,1114.2969 Q1381.9844,1115.0469 1381.9844,1116.0781 L1381.9844,1117.1719 Q1381.9844,1118.4063 1382.875,1119.2344 Q1383.7656,1120.0469 1385.3594,1120.0469 Q1386.2969,1120.0469 1386.9531,1119.7969 Q1387.3438,1119.6406 1387.7656,1119.2031 Q1388.0313,1118.9375 1388.1719,1118.8594 Q1388.3281,1118.7813 1388.5313,1118.7813 Q1388.8594,1118.7813 1389.1094,1119.0469 Q1389.375,1119.2969 1389.375,1119.6406 Q1389.375,1119.9844 1389.0313,1120.3906 Q1388.5313,1120.9688 1387.7344,1121.2969 Q1386.6563,1121.75 1385.3594,1121.75 Q1383.8438,1121.75 1382.6406,1121.125 Q1381.6563,1120.625 1380.9688,1119.5625 Q1380.2813,1118.4844 1380.2813,1117.2031 L1380.2813,1116.0469 Q1380.2813,1114.7188 1380.8906,1113.5781 Q1381.5156,1112.4219 1382.6094,1111.8125 Q1383.7031,1111.1875 1384.9375,1111.1875 Q1385.6719,1111.1875 1386.3125,1111.3594 Q1386.9688,1111.5156 1387.5156,1111.875 Z " fill="#000000"/><text fill="#000000" font-family="sans-serif" font-size="14" lengthAdjust="spacing" textLength="122" x="1405.25" y="1121.7285">MachinePlayerView</text><line style="stroke:#181818;stroke-width:0.5;" x1="1325.5" x2="1574.5" y1="1132" y2="1132"/><rect fill="none" height="6" style="stroke:#C82930;stroke-width:1.0;" width="6" x="1332.5" y="1143.3047"/><text fill="#000000" font-family="sans-serif" font-size="14" lengthAdjust="spacing" textLength="140" x="1344.5" y="1150.5332">player: MachinePlayer</text><line style="stroke:#181818;stroke-width:0.5;" x1="1325.5" x2="1574.5" y1="1157.6094" y2="1157.6094"/><ellipse cx="1335.5" cy="1171.9141" fill="#84BE84" rx="3" ry="3" style="stroke:#038048;stroke-width:1.0;"/><text fill="#000000" font-family="sans-serif" font-size="14" lengthAdjust="spacing" textLength="225" x="1344.5" y="1176.1426">MachinePlayerView(MachinePlayer)</text><rect fill="#F24D5C" height="6" style="stroke:#C82930;stroke-width:1.0;" width="6" x="1332.5" y="1186.5234"/><text fill="#000000" font-family="sans-serif" font-size="14" lengthAdjust="spacing" textLength="101" x="1344.5" y="1193.752">getColumn(): int</text></g><!--class UserPlayerView--><g id="elem_UserPlayerView"><rect codeLine="10" fill="#F1F1F1" height="100.8281" id="UserPlayerView" rx="2.5" ry="2.5" style="stroke:#181818;stroke-width:0.5;" width="203" x="1086.5" y="1100"/><ellipse cx="1134.75" cy="1116" fill="#ADD1B2" rx="11" ry="11" style="stroke:#181818;stroke-width:1.0;"/><path d="M1137.5156,1111.875 Q1137.6719,1111.6563 1137.8594,1111.5469 Q1138.0469,1111.4375 1138.2656,1111.4375 Q1138.6406,1111.4375 1138.875,1111.7031 Q1139.1094,1111.9531 1139.1094,1112.5625 L1139.1094,1114.0156 Q1139.1094,1114.625 1138.875,1114.8906 Q1138.6406,1115.1563 1138.2656,1115.1563 Q1137.9219,1115.1563 1137.7188,1114.9531 Q1137.5156,1114.7656 1137.4063,1114.25 Q1137.3594,1113.8906 1137.1719,1113.7031 Q1136.8438,1113.3281 1136.2344,1113.1094 Q1135.625,1112.8906 1135,1112.8906 Q1134.2344,1112.8906 1133.5938,1113.2188 Q1132.9688,1113.5469 1132.4688,1114.2969 Q1131.9844,1115.0469 1131.9844,1116.0781 L1131.9844,1117.1719 Q1131.9844,1118.4063 1132.875,1119.2344 Q1133.7656,1120.0469 1135.3594,1120.0469 Q1136.2969,1120.0469 1136.9531,1119.7969 Q1137.3438,1119.6406 1137.7656,1119.2031 Q1138.0313,1118.9375 1138.1719,1118.8594 Q1138.3281,1118.7813 1138.5313,1118.7813 Q1138.8594,1118.7813 1139.1094,1119.0469 Q1139.375,1119.2969 1139.375,1119.6406 Q1139.375,1119.9844 1139.0313,1120.3906 Q1138.5313,1120.9688 1137.7344,1121.2969 Q1136.6563,1121.75 1135.3594,1121.75 Q1133.8438,1121.75 1132.6406,1121.125 Q1131.6563,1120.625 1130.9688,1119.5625 Q1130.2813,1118.4844 1130.2813,1117.2031 L1130.2813,1116.0469 Q1130.2813,1114.7188 1130.8906,1113.5781 Q1131.5156,1112.4219 1132.6094,1111.8125 Q1133.7031,1111.1875 1134.9375,1111.1875 Q1135.6719,1111.1875 1136.3125,1111.3594 Q1136.9688,1111.5156 1137.5156,1111.875 Z " fill="#000000"/><text fill="#000000" font-family="sans-serif" font-size="14" lengthAdjust="spacing" textLength="98" x="1155.25" y="1121.7285">UserPlayerView</text><line style="stroke:#181818;stroke-width:0.5;" x1="1087.5" x2="1288.5" y1="1132" y2="1132"/><rect fill="none" height="6" style="stroke:#C82930;stroke-width:1.0;" width="6" x="1094.5" y="1143.3047"/><text fill="#000000" font-family="sans-serif" font-size="14" lengthAdjust="spacing" textLength="116" x="1106.5" y="1150.5332">player: UserPlayer</text><line style="stroke:#181818;stroke-width:0.5;" x1="1087.5" x2="1288.5" y1="1157.6094" y2="1157.6094"/><ellipse cx="1097.5" cy="1171.9141" fill="#84BE84" rx="3" ry="3" style="stroke:#038048;stroke-width:1.0;"/><text fill="#000000" font-family="sans-serif" font-size="14" lengthAdjust="spacing" textLength="177" x="1106.5" y="1176.1426">UserPlayerView(UserPlayer)</text><rect fill="#F24D5C" height="6" style="stroke:#C82930;stroke-width:1.0;" width="6" x="1094.5" y="1186.5234"/><text fill="#000000" font-family="sans-serif" font-size="14" lengthAdjust="spacing" textLength="101" x="1106.5" y="1193.752">getColumn(): int</text></g><!--class ClosedInterval--><g id="elem_ClosedInterval"><rect codeLine="11" fill="#F1F1F1" height="118.4375" id="ClosedInterval" rx="2.5" ry="2.5" style="stroke:#181818;stroke-width:0.5;" width="219" x="505.5" y="2600"/><ellipse cx="565.75" cy="2616" fill="#ADD1B2" rx="11" ry="11" style="stroke:#181818;stroke-width:1.0;"/><path d="M568.5156,2611.875 Q568.6719,2611.6563 568.8594,2611.5469 Q569.0469,2611.4375 569.2656,2611.4375 Q569.6406,2611.4375 569.875,2611.7031 Q570.1094,2611.9531 570.1094,2612.5625 L570.1094,2614.0156 Q570.1094,2614.625 569.875,2614.8906 Q569.6406,2615.1563 569.2656,2615.1563 Q568.9219,2615.1563 568.7188,2614.9531 Q568.5156,2614.7656 568.4063,2614.25 Q568.3594,2613.8906 568.1719,2613.7031 Q567.8438,2613.3281 567.2344,2613.1094 Q566.625,2612.8906 566,2612.8906 Q565.2344,2612.8906 564.5938,2613.2188 Q563.9688,2613.5469 563.4688,2614.2969 Q562.9844,2615.0469 562.9844,2616.0781 L562.9844,2617.1719 Q562.9844,2618.4063 563.875,2619.2344 Q564.7656,2620.0469 566.3594,2620.0469 Q567.2969,2620.0469 567.9531,2619.7969 Q568.3438,2619.6406 568.7656,2619.2031 Q569.0313,2618.9375 569.1719,2618.8594 Q569.3281,2618.7813 569.5313,2618.7813 Q569.8594,2618.7813 570.1094,2619.0469 Q570.375,2619.2969 570.375,2619.6406 Q570.375,2619.9844 570.0313,2620.3906 Q569.5313,2620.9688 568.7344,2621.2969 Q567.6563,2621.75 566.3594,2621.75 Q564.8438,2621.75 563.6406,2621.125 Q562.6563,2620.625 561.9688,2619.5625 Q561.2813,2618.4844 561.2813,2617.2031 L561.2813,2616.0469 Q561.2813,2614.7188 561.8906,2613.5781 Q562.5156,2612.4219 563.6094,2611.8125 Q564.7031,2611.1875 565.9375,2611.1875 Q566.6719,2611.1875 567.3125,2611.3594 Q567.9688,2611.5156 568.5156,2611.875 Z " fill="#000000"/><text fill="#000000" font-family="sans-serif" font-size="14" lengthAdjust="spacing" textLength="90" x="586.25" y="2621.7285">ClosedInterval</text><line style="stroke:#181818;stroke-width:0.5;" x1="506.5" x2="723.5" y1="2632" y2="2632"/><rect fill="none" height="6" style="stroke:#C82930;stroke-width:1.0;" width="6" x="513.5" y="2643.3047"/><text fill="#000000" font-family="sans-serif" font-size="14" lengthAdjust="spacing" textLength="45" x="525.5" y="2650.5332">min: int</text><rect fill="none" height="6" style="stroke:#C82930;stroke-width:1.0;" width="6" x="513.5" y="2660.9141"/><text fill="#000000" font-family="sans-serif" font-size="14" lengthAdjust="spacing" textLength="48" x="525.5" y="2668.1426">max: int</text><line style="stroke:#181818;stroke-width:0.5;" x1="506.5" x2="723.5" y1="2675.2188" y2="2675.2188"/><ellipse cx="516.5" cy="2689.5234" fill="#84BE84" rx="3" ry="3" style="stroke:#038048;stroke-width:1.0;"/><text fill="#000000" font-family="sans-serif" font-size="14" lengthAdjust="spacing" textLength="193" x="525.5" y="2693.752">ClosedInterval(int min, int max)</text><ellipse cx="516.5" cy="2707.1328" fill="#84BE84" rx="3" ry="3" style="stroke:#038048;stroke-width:1.0;"/><text fill="#000000" font-family="sans-serif" font-size="14" lengthAdjust="spacing" textLength="147" x="525.5" y="2711.3613">isIncluded(int): boolean</text></g><!--class Color--><g id="elem_Color"><rect codeLine="12" fill="#F1F1F1" height="171.2656" id="Color" rx="2.5" ry="2.5" style="stroke:#181818;stroke-width:0.5;" width="164" x="7" y="1589"/><ellipse cx="67.75" cy="1605" fill="#EB937F" rx="11" ry="11" style="stroke:#181818;stroke-width:1.0;"/><path d="M66.6094,1605.7969 L66.6094,1608.2969 L70.9375,1608.2969 L70.9375,1607.375 Q70.9375,1606.7656 71.1719,1606.5 Q71.4219,1606.2344 71.7969,1606.2344 Q72.1719,1606.2344 72.4063,1606.5 Q72.6406,1606.7656 72.6406,1607.375 L72.6406,1610 L64.6406,1610 Q64.0156,1610 63.75,1609.7656 Q63.5,1609.5313 63.5,1609.1406 Q63.5,1608.7656 63.7656,1608.5313 Q64.0313,1608.2969 64.6406,1608.2969 L64.9063,1608.2969 L64.9063,1601.6406 L64.6406,1601.6406 Q64.0156,1601.6406 63.75,1601.4063 Q63.5,1601.1719 63.5,1600.7813 Q63.5,1600.4063 63.75,1600.1719 Q64.0156,1599.9375 64.6406,1599.9375 L72.2656,1599.9375 L72.2656,1602.5313 Q72.2656,1603.1406 72.0313,1603.4063 Q71.8125,1603.6563 71.4219,1603.6563 Q71.0469,1603.6563 70.8125,1603.4063 Q70.5781,1603.1406 70.5781,1602.5313 L70.5781,1601.6406 L66.6094,1601.6406 L66.6094,1604.0938 L68.0938,1604.0938 Q68.0938,1603.4375 68.2188,1603.25 Q68.4844,1602.8438 68.9531,1602.8438 Q69.3281,1602.8438 69.5625,1603.1094 Q69.7969,1603.3594 69.7969,1603.9688 L69.7969,1605.9375 Q69.7969,1606.4844 69.6719,1606.6719 Q69.4063,1607.0625 68.9531,1607.0625 Q68.4844,1607.0625 68.2188,1606.6563 Q68.0938,1606.4688 68.0938,1605.7969 L66.6094,1605.7969 Z " fill="#000000"/><text fill="#000000" font-family="sans-serif" font-size="14" lengthAdjust="spacing" textLength="34" x="88.25" y="1610.7285">Color</text><line style="stroke:#181818;stroke-width:0.5;" x1="8" x2="170" y1="1621" y2="1621"/><ellipse cx="18" cy="1635.3047" fill="none" rx="3" ry="3" style="stroke:#038048;stroke-width:1.0;"/><text fill="#000000" font-family="sans-serif" font-size="14" lengthAdjust="spacing" textLength="29" x="27" y="1639.5332">RED</text><ellipse cx="18" cy="1652.9141" fill="none" rx="3" ry="3" style="stroke:#038048;stroke-width:1.0;"/><text fill="#000000" font-family="sans-serif" font-size="14" lengthAdjust="spacing" textLength="58" x="27" y="1657.1426">YELLOW</text><ellipse cx="18" cy="1670.5234" fill="none" rx="3" ry="3" style="stroke:#038048;stroke-width:1.0;"/><text fill="#000000" font-family="sans-serif" font-size="14" lengthAdjust="spacing" textLength="34" x="27" y="1674.752">NULL</text><rect fill="none" height="6" style="stroke:#C82930;stroke-width:1.0;" width="6" x="15" y="1685.1328"/><text fill="#000000" font-family="sans-serif" font-size="14" lengthAdjust="spacing" textLength="76" x="27" y="1692.3613">color: String</text><line style="stroke:#181818;stroke-width:0.5;" x1="8" x2="170" y1="1699.4375" y2="1699.4375"/><ellipse cx="18" cy="1713.7422" fill="#84BE84" rx="3" ry="3" style="stroke:#038048;stroke-width:1.0;"/><text fill="#000000" font-family="sans-serif" font-size="14" lengthAdjust="spacing" textLength="120" x="27" y="1717.9707">Color(color: String)</text><ellipse cx="18" cy="1731.3516" fill="#84BE84" rx="3" ry="3" style="stroke:#038048;stroke-width:1.0;"/><text fill="#000000" font-family="sans-serif" font-size="14" lengthAdjust="spacing" text-decoration="underline" textLength="138" x="27" y="1735.5801">get(ordinal: int): Color</text><ellipse cx="18" cy="1748.9609" fill="#84BE84" rx="3" ry="3" style="stroke:#038048;stroke-width:1.0;"/><text fill="#000000" font-family="sans-serif" font-size="14" lengthAdjust="spacing" textLength="104" x="27" y="1753.1895">toString(): String</text></g><!--class Coordinate--><g id="elem_Coordinate"><rect codeLine="13" fill="#F1F1F1" height="329.75" id="Coordinate" rx="2.5" ry="2.5" style="stroke:#181818;stroke-width:0.5;" width="229" x="500.5" y="2210"/><ellipse cx="575.75" cy="2226" fill="#ADD1B2" rx="11" ry="11" style="stroke:#181818;stroke-width:1.0;"/><path d="M578.5156,2221.875 Q578.6719,2221.6563 578.8594,2221.5469 Q579.0469,2221.4375 579.2656,2221.4375 Q579.6406,2221.4375 579.875,2221.7031 Q580.1094,2221.9531 580.1094,2222.5625 L580.1094,2224.0156 Q580.1094,2224.625 579.875,2224.8906 Q579.6406,2225.1563 579.2656,2225.1563 Q578.9219,2225.1563 578.7188,2224.9531 Q578.5156,2224.7656 578.4063,2224.25 Q578.3594,2223.8906 578.1719,2223.7031 Q577.8438,2223.3281 577.2344,2223.1094 Q576.625,2222.8906 576,2222.8906 Q575.2344,2222.8906 574.5938,2223.2188 Q573.9688,2223.5469 573.4688,2224.2969 Q572.9844,2225.0469 572.9844,2226.0781 L572.9844,2227.1719 Q572.9844,2228.4063 573.875,2229.2344 Q574.7656,2230.0469 576.3594,2230.0469 Q577.2969,2230.0469 577.9531,2229.7969 Q578.3438,2229.6406 578.7656,2229.2031 Q579.0313,2228.9375 579.1719,2228.8594 Q579.3281,2228.7813 579.5313,2228.7813 Q579.8594,2228.7813 580.1094,2229.0469 Q580.375,2229.2969 580.375,2229.6406 Q580.375,2229.9844 580.0313,2230.3906 Q579.5313,2230.9688 578.7344,2231.2969 Q577.6563,2231.75 576.3594,2231.75 Q574.8438,2231.75 573.6406,2231.125 Q572.6563,2230.625 571.9688,2229.5625 Q571.2813,2228.4844 571.2813,2227.2031 L571.2813,2226.0469 Q571.2813,2224.7188 571.8906,2223.5781 Q572.5156,2222.4219 573.6094,2221.8125 Q574.7031,2221.1875 575.9375,2221.1875 Q576.6719,2221.1875 577.3125,2221.3594 Q577.9688,2221.5156 578.5156,2221.875 Z " fill="#000000"/><text fill="#000000" font-family="sans-serif" font-size="14" lengthAdjust="spacing" textLength="70" x="596.25" y="2231.7285">Coordinate</text><line style="stroke:#181818;stroke-width:0.5;" x1="501.5" x2="728.5" y1="2242" y2="2242"/><ellipse cx="511.5" cy="2256.3047" fill="none" rx="3" ry="3" style="stroke:#038048;stroke-width:1.0;"/><text fill="#000000" font-family="sans-serif" font-size="14" lengthAdjust="spacing" text-decoration="underline" textLength="125" x="520.5" y="2260.5332">ORIGIN: Coordinate</text><ellipse cx="511.5" cy="2273.9141" fill="none" rx="3" ry="3" style="stroke:#038048;stroke-width:1.0;"/><text fill="#000000" font-family="sans-serif" font-size="14" lengthAdjust="spacing" text-decoration="underline" textLength="131" x="520.5" y="2278.1426">NUMBER_ROWS: int</text><rect fill="none" height="6" style="stroke:#C82930;stroke-width:1.0;" width="6" x="508.5" y="2288.5234"/><text fill="#000000" font-family="sans-serif" font-size="14" lengthAdjust="spacing" text-decoration="underline" textLength="141" x="520.5" y="2295.752">ROWS: ClosedInterval</text><ellipse cx="511.5" cy="2309.1328" fill="none" rx="3" ry="3" style="stroke:#038048;stroke-width:1.0;"/><text fill="#000000" font-family="sans-serif" font-size="14" lengthAdjust="spacing" text-decoration="underline" textLength="155" x="520.5" y="2313.3613">NUMBER_COLUMNS: int</text><rect fill="none" height="6" style="stroke:#C82930;stroke-width:1.0;" width="6" x="508.5" y="2323.7422"/><text fill="#000000" font-family="sans-serif" font-size="14" lengthAdjust="spacing" text-decoration="underline" textLength="165" x="520.5" y="2330.9707">COLUMNS: ClosedInterval</text><rect fill="none" height="6" style="stroke:#C82930;stroke-width:1.0;" width="6" x="508.5" y="2341.3516"/><text fill="#000000" font-family="sans-serif" font-size="14" lengthAdjust="spacing" textLength="45" x="520.5" y="2348.5801">row: int</text><rect fill="none" height="6" style="stroke:#C82930;stroke-width:1.0;" width="6" x="508.5" y="2358.9609"/><text fill="#000000" font-family="sans-serif" font-size="14" lengthAdjust="spacing" textLength="68" x="520.5" y="2366.1895">column: int</text><line style="stroke:#181818;stroke-width:0.5;" x1="501.5" x2="728.5" y1="2373.2656" y2="2373.2656"/><ellipse cx="511.5" cy="2387.5703" fill="#84BE84" rx="3" ry="3" style="stroke:#038048;stroke-width:1.0;"/><text fill="#000000" font-family="sans-serif" font-size="14" lengthAdjust="spacing" textLength="201" x="520.5" y="2391.7988">Coordinate(row: int, column: int)</text><ellipse cx="511.5" cy="2405.1797" fill="#84BE84" rx="3" ry="3" style="stroke:#038048;stroke-width:1.0;"/><text fill="#000000" font-family="sans-serif" font-size="14" lengthAdjust="spacing" textLength="197" x="520.5" y="2409.4082">shifted(coordinate): Coordinate</text><ellipse cx="511.5" cy="2422.7891" fill="#84BE84" rx="3" ry="3" style="stroke:#038048;stroke-width:1.0;"/><text fill="#000000" font-family="sans-serif" font-size="14" lengthAdjust="spacing" textLength="110" x="520.5" y="2427.0176">isValid(): boolean</text><ellipse cx="511.5" cy="2440.3984" fill="#84BE84" rx="3" ry="3" style="stroke:#038048;stroke-width:1.0;"/><text fill="#000000" font-family="sans-serif" font-size="14" lengthAdjust="spacing" text-decoration="underline" textLength="203" x="520.5" y="2444.627">isColumnValid(column): boolean</text><rect fill="#F24D5C" height="6" style="stroke:#C82930;stroke-width:1.0;" width="6" x="508.5" y="2455.0078"/><text fill="#000000" font-family="sans-serif" font-size="14" lengthAdjust="spacing" text-decoration="underline" textLength="159" x="520.5" y="2462.2363">isRowValid(row): boolean</text><ellipse cx="511.5" cy="2475.6172" fill="#84BE84" rx="3" ry="3" style="stroke:#038048;stroke-width:1.0;"/><text fill="#000000" font-family="sans-serif" font-size="14" lengthAdjust="spacing" textLength="80" x="520.5" y="2479.8457">getRow(): int</text><ellipse cx="511.5" cy="2493.2266" fill="#84BE84" rx="3" ry="3" style="stroke:#038048;stroke-width:1.0;"/><text fill="#000000" font-family="sans-serif" font-size="14" lengthAdjust="spacing" textLength="101" x="520.5" y="2497.4551">getColumn(): int</text><ellipse cx="511.5" cy="2510.8359" fill="#84BE84" rx="3" ry="3" style="stroke:#038048;stroke-width:1.0;"/><text fill="#000000" font-family="sans-serif" font-size="14" lengthAdjust="spacing" textLength="178" x="520.5" y="2515.0645">equals(coordinate): boolean</text><ellipse cx="511.5" cy="2528.4453" fill="#84BE84" rx="3" ry="3" style="stroke:#038048;stroke-width:1.0;"/><text fill="#000000" font-family="sans-serif" font-size="14" lengthAdjust="spacing" textLength="118" x="520.5" y="2532.6738">toString(): boolean</text></g><!--class Direction--><g id="elem_Direction"><rect codeLine="14" fill="#F1F1F1" height="276.9219" id="Direction" rx="2.5" ry="2.5" style="stroke:#181818;stroke-width:0.5;" width="213" x="508.5" y="1873"/><ellipse cx="582.75" cy="1889" fill="#EB937F" rx="11" ry="11" style="stroke:#181818;stroke-width:1.0;"/><path d="M581.6094,1889.7969 L581.6094,1892.2969 L585.9375,1892.2969 L585.9375,1891.375 Q585.9375,1890.7656 586.1719,1890.5 Q586.4219,1890.2344 586.7969,1890.2344 Q587.1719,1890.2344 587.4063,1890.5 Q587.6406,1890.7656 587.6406,1891.375 L587.6406,1894 L579.6406,1894 Q579.0156,1894 578.75,1893.7656 Q578.5,1893.5313 578.5,1893.1406 Q578.5,1892.7656 578.7656,1892.5313 Q579.0313,1892.2969 579.6406,1892.2969 L579.9063,1892.2969 L579.9063,1885.6406 L579.6406,1885.6406 Q579.0156,1885.6406 578.75,1885.4063 Q578.5,1885.1719 578.5,1884.7813 Q578.5,1884.4063 578.75,1884.1719 Q579.0156,1883.9375 579.6406,1883.9375 L587.2656,1883.9375 L587.2656,1886.5313 Q587.2656,1887.1406 587.0313,1887.4063 Q586.8125,1887.6563 586.4219,1887.6563 Q586.0469,1887.6563 585.8125,1887.4063 Q585.5781,1887.1406 585.5781,1886.5313 L585.5781,1885.6406 L581.6094,1885.6406 L581.6094,1888.0938 L583.0938,1888.0938 Q583.0938,1887.4375 583.2188,1887.25 Q583.4844,1886.8438 583.9531,1886.8438 Q584.3281,1886.8438 584.5625,1887.1094 Q584.7969,1887.3594 584.7969,1887.9688 L584.7969,1889.9375 Q584.7969,1890.4844 584.6719,1890.6719 Q584.4063,1891.0625 583.9531,1891.0625 Q583.4844,1891.0625 583.2188,1890.6563 Q583.0938,1890.4688 583.0938,1889.7969 L581.6094,1889.7969 Z " fill="#000000"/><text fill="#000000" font-family="sans-serif" font-size="14" lengthAdjust="spacing" textLength="56" x="603.25" y="1894.7285">Direction</text><line style="stroke:#181818;stroke-width:0.5;" x1="509.5" x2="720.5" y1="1905" y2="1905"/><ellipse cx="519.5" cy="1919.3047" fill="none" rx="3" ry="3" style="stroke:#038048;stroke-width:1.0;"/><text fill="#000000" font-family="sans-serif" font-size="14" lengthAdjust="spacing" textLength="48" x="528.5" y="1923.5332">NORTH</text><ellipse cx="519.5" cy="1936.9141" fill="none" rx="3" ry="3" style="stroke:#038048;stroke-width:1.0;"/><text fill="#000000" font-family="sans-serif" font-size="14" lengthAdjust="spacing" textLength="92" x="528.5" y="1941.1426">NORTH_EAST</text><ellipse cx="519.5" cy="1954.5234" fill="none" rx="3" ry="3" style="stroke:#038048;stroke-width:1.0;"/><text fill="#000000" font-family="sans-serif" font-size="14" lengthAdjust="spacing" textLength="36" x="528.5" y="1958.752">EAST</text><ellipse cx="519.5" cy="1972.1328" fill="none" rx="3" ry="3" style="stroke:#038048;stroke-width:1.0;"/><text fill="#000000" font-family="sans-serif" font-size="14" lengthAdjust="spacing" textLength="91" x="528.5" y="1976.3613">SOUTH_EAST</text><ellipse cx="519.5" cy="1989.7422" fill="none" rx="3" ry="3" style="stroke:#038048;stroke-width:1.0;"/><text fill="#000000" font-family="sans-serif" font-size="14" lengthAdjust="spacing" textLength="47" x="528.5" y="1993.9707">SOUTH</text><ellipse cx="519.5" cy="2007.3516" fill="none" rx="3" ry="3" style="stroke:#038048;stroke-width:1.0;"/><text fill="#000000" font-family="sans-serif" font-size="14" lengthAdjust="spacing" textLength="95" x="528.5" y="2011.5801">SOUTH_WEST</text><ellipse cx="519.5" cy="2024.9609" fill="none" rx="3" ry="3" style="stroke:#038048;stroke-width:1.0;"/><text fill="#000000" font-family="sans-serif" font-size="14" lengthAdjust="spacing" textLength="40" x="528.5" y="2029.1895">WEST</text><ellipse cx="519.5" cy="2042.5703" fill="none" rx="3" ry="3" style="stroke:#038048;stroke-width:1.0;"/><text fill="#000000" font-family="sans-serif" font-size="14" lengthAdjust="spacing" textLength="96" x="528.5" y="2046.7988">NORTH_WEST</text><rect fill="none" height="6" style="stroke:#C82930;stroke-width:1.0;" width="6" x="516.5" y="2057.1797"/><text fill="#000000" font-family="sans-serif" font-size="14" lengthAdjust="spacing" textLength="145" x="528.5" y="2064.4082">coordinate: Coordinate</text><line style="stroke:#181818;stroke-width:0.5;" x1="509.5" x2="720.5" y1="2071.4844" y2="2071.4844"/><ellipse cx="519.5" cy="2085.7891" fill="#84BE84" rx="3" ry="3" style="stroke:#038048;stroke-width:1.0;"/><text fill="#000000" font-family="sans-serif" font-size="14" lengthAdjust="spacing" textLength="187" x="528.5" y="2090.0176">Direction(row: int, column: int)</text><ellipse cx="519.5" cy="2103.3984" fill="#84BE84" rx="3" ry="3" style="stroke:#038048;stroke-width:1.0;"/><text fill="#000000" font-family="sans-serif" font-size="14" lengthAdjust="spacing" textLength="151" x="528.5" y="2107.627">getOpposite(): Direction</text><ellipse cx="519.5" cy="2121.0078" fill="#84BE84" rx="3" ry="3" style="stroke:#038048;stroke-width:1.0;"/><text fill="#000000" font-family="sans-serif" font-size="14" lengthAdjust="spacing" textLength="183" x="528.5" y="2125.2363">getCoordinate(): Coordenate</text><ellipse cx="519.5" cy="2138.6172" fill="#84BE84" rx="3" ry="3" style="stroke:#038048;stroke-width:1.0;"/><text fill="#000000" font-family="sans-serif" font-size="14" lengthAdjust="spacing" text-decoration="underline" textLength="152" x="528.5" y="2142.8457">halfValues(): Direction[ ]</text></g><!--class Message--><g id="elem_Message"><rect codeLine="15" fill="#F1F1F1" height="294.5313" id="Message" rx="2.5" ry="2.5" style="stroke:#181818;stroke-width:0.5;" width="214" x="398" y="7"/><ellipse cx="472.25" cy="23" fill="#ADD1B2" rx="11" ry="11" style="stroke:#181818;stroke-width:1.0;"/><path d="M475.0156,18.875 Q475.1719,18.6563 475.3594,18.5469 Q475.5469,18.4375 475.7656,18.4375 Q476.1406,18.4375 476.375,18.7031 Q476.6094,18.9531 476.6094,19.5625 L476.6094,21.0156 Q476.6094,21.625 476.375,21.8906 Q476.1406,22.1563 475.7656,22.1563 Q475.4219,22.1563 475.2188,21.9531 Q475.0156,21.7656 474.9063,21.25 Q474.8594,20.8906 474.6719,20.7031 Q474.3438,20.3281 473.7344,20.1094 Q473.125,19.8906 472.5,19.8906 Q471.7344,19.8906 471.0938,20.2188 Q470.4688,20.5469 469.9688,21.2969 Q469.4844,22.0469 469.4844,23.0781 L469.4844,24.1719 Q469.4844,25.4063 470.375,26.2344 Q471.2656,27.0469 472.8594,27.0469 Q473.7969,27.0469 474.4531,26.7969 Q474.8438,26.6406 475.2656,26.2031 Q475.5313,25.9375 475.6719,25.8594 Q475.8281,25.7813 476.0313,25.7813 Q476.3594,25.7813 476.6094,26.0469 Q476.875,26.2969 476.875,26.6406 Q476.875,26.9844 476.5313,27.3906 Q476.0313,27.9688 475.2344,28.2969 Q474.1563,28.75 472.8594,28.75 Q471.3438,28.75 470.1406,28.125 Q469.1563,27.625 468.4688,26.5625 Q467.7813,25.4844 467.7813,24.2031 L467.7813,23.0469 Q467.7813,21.7188 468.3906,20.5781 Q469.0156,19.4219 470.1094,18.8125 Q471.2031,18.1875 472.4375,18.1875 Q473.1719,18.1875 473.8125,18.3594 Q474.4688,18.5156 475.0156,18.875 Z " fill="#000000"/><text fill="#000000" font-family="sans-serif" font-size="14" lengthAdjust="spacing" textLength="57" x="492.75" y="28.7285">Message</text><line style="stroke:#181818;stroke-width:0.5;" x1="399" x2="611" y1="39" y2="39"/><ellipse cx="409" cy="53.3047" fill="none" rx="3" ry="3" style="stroke:#038048;stroke-width:1.0;"/><text fill="#000000" font-family="sans-serif" font-size="14" lengthAdjust="spacing" text-decoration="underline" textLength="38" x="418" y="57.5332">TITLE</text><ellipse cx="409" cy="70.9141" fill="none" rx="3" ry="3" style="stroke:#038048;stroke-width:1.0;"/><text fill="#000000" font-family="sans-serif" font-size="14" lengthAdjust="spacing" text-decoration="underline" textLength="124" x="418" y="75.1426">HORIZONTAL_LINE</text><ellipse cx="409" cy="88.5234" fill="none" rx="3" ry="3" style="stroke:#038048;stroke-width:1.0;"/><text fill="#000000" font-family="sans-serif" font-size="14" lengthAdjust="spacing" text-decoration="underline" textLength="104" x="418" y="92.752">VERTICAL_LINE</text><ellipse cx="409" cy="106.1328" fill="none" rx="3" ry="3" style="stroke:#038048;stroke-width:1.0;"/><text fill="#000000" font-family="sans-serif" font-size="14" lengthAdjust="spacing" text-decoration="underline" textLength="37" x="418" y="110.3613">TURN</text><ellipse cx="409" cy="123.7422" fill="none" rx="3" ry="3" style="stroke:#038048;stroke-width:1.0;"/><text fill="#000000" font-family="sans-serif" font-size="14" lengthAdjust="spacing" text-decoration="underline" textLength="188" x="418" y="127.9707">ENTER_COLUMN_TO_DROP</text><ellipse cx="409" cy="141.3516" fill="none" rx="3" ry="3" style="stroke:#038048;stroke-width:1.0;"/><text fill="#000000" font-family="sans-serif" font-size="14" lengthAdjust="spacing" text-decoration="underline" textLength="117" x="418" y="145.5801">INVALID_COLUMN</text><ellipse cx="409" cy="158.9609" fill="none" rx="3" ry="3" style="stroke:#038048;stroke-width:1.0;"/><text fill="#000000" font-family="sans-serif" font-size="14" lengthAdjust="spacing" text-decoration="underline" textLength="152" x="418" y="163.1895">COMPLETED_COLUMN</text><ellipse cx="409" cy="176.5703" fill="none" rx="3" ry="3" style="stroke:#038048;stroke-width:1.0;"/><text fill="#000000" font-family="sans-serif" font-size="14" lengthAdjust="spacing" text-decoration="underline" textLength="87" x="418" y="180.7988">PLAYER_WIN</text><ellipse cx="409" cy="194.1797" fill="none" rx="3" ry="3" style="stroke:#038048;stroke-width:1.0;"/><text fill="#000000" font-family="sans-serif" font-size="14" lengthAdjust="spacing" text-decoration="underline" textLength="102" x="418" y="198.4082">PLAYERS_TIED</text><ellipse cx="409" cy="211.7891" fill="none" rx="3" ry="3" style="stroke:#038048;stroke-width:1.0;"/><text fill="#000000" font-family="sans-serif" font-size="14" lengthAdjust="spacing" text-decoration="underline" textLength="57" x="418" y="216.0176">RESUME</text><rect fill="none" height="6" style="stroke:#C82930;stroke-width:1.0;" width="6" x="406" y="226.3984"/><text fill="#000000" font-family="sans-serif" font-size="14" lengthAdjust="spacing" textLength="35" x="418" y="233.627">string</text><line style="stroke:#181818;stroke-width:0.5;" x1="399" x2="611" y1="240.7031" y2="240.7031"/><ellipse cx="409" cy="255.0078" fill="#84BE84" rx="3" ry="3" style="stroke:#038048;stroke-width:1.0;"/><text fill="#000000" font-family="sans-serif" font-size="14" lengthAdjust="spacing" textLength="116" x="418" y="259.2363">constructor(string)</text><ellipse cx="409" cy="272.6172" fill="#84BE84" rx="3" ry="3" style="stroke:#038048;stroke-width:1.0;"/><text fill="#000000" font-family="sans-serif" font-size="14" lengthAdjust="spacing" textLength="39" x="418" y="276.8457">write()</text><ellipse cx="409" cy="290.2266" fill="#84BE84" rx="3" ry="3" style="stroke:#038048;stroke-width:1.0;"/><text fill="#000000" font-family="sans-serif" font-size="14" lengthAdjust="spacing" textLength="50" x="418" y="294.4551">writeln()</text></g><!--class Line--><g id="elem_Line"><rect codeLine="16" fill="#F1F1F1" height="188.875" id="Line" rx="2.5" ry="2.5" style="stroke:#181818;stroke-width:0.5;" width="223" x="756.5" y="1917"/><ellipse cx="850.25" cy="1933" fill="#ADD1B2" rx="11" ry="11" style="stroke:#181818;stroke-width:1.0;"/><path d="M853.0156,1928.875 Q853.1719,1928.6563 853.3594,1928.5469 Q853.5469,1928.4375 853.7656,1928.4375 Q854.1406,1928.4375 854.375,1928.7031 Q854.6094,1928.9531 854.6094,1929.5625 L854.6094,1931.0156 Q854.6094,1931.625 854.375,1931.8906 Q854.1406,1932.1563 853.7656,1932.1563 Q853.4219,1932.1563 853.2188,1931.9531 Q853.0156,1931.7656 852.9063,1931.25 Q852.8594,1930.8906 852.6719,1930.7031 Q852.3438,1930.3281 851.7344,1930.1094 Q851.125,1929.8906 850.5,1929.8906 Q849.7344,1929.8906 849.0938,1930.2188 Q848.4688,1930.5469 847.9688,1931.2969 Q847.4844,1932.0469 847.4844,1933.0781 L847.4844,1934.1719 Q847.4844,1935.4063 848.375,1936.2344 Q849.2656,1937.0469 850.8594,1937.0469 Q851.7969,1937.0469 852.4531,1936.7969 Q852.8438,1936.6406 853.2656,1936.2031 Q853.5313,1935.9375 853.6719,1935.8594 Q853.8281,1935.7813 854.0313,1935.7813 Q854.3594,1935.7813 854.6094,1936.0469 Q854.875,1936.2969 854.875,1936.6406 Q854.875,1936.9844 854.5313,1937.3906 Q854.0313,1937.9688 853.2344,1938.2969 Q852.1563,1938.75 850.8594,1938.75 Q849.3438,1938.75 848.1406,1938.125 Q847.1563,1937.625 846.4688,1936.5625 Q845.7813,1935.4844 845.7813,1934.2031 L845.7813,1933.0469 Q845.7813,1931.7188 846.3906,1930.5781 Q847.0156,1929.4219 848.1094,1928.8125 Q849.2031,1928.1875 850.4375,1928.1875 Q851.1719,1928.1875 851.8125,1928.3594 Q852.4688,1928.5156 853.0156,1928.875 Z " fill="#000000"/><text fill="#000000" font-family="sans-serif" font-size="14" lengthAdjust="spacing" textLength="27" x="870.75" y="1938.7285">Line</text><line style="stroke:#181818;stroke-width:0.5;" x1="757.5" x2="978.5" y1="1949" y2="1949"/><ellipse cx="767.5" cy="1963.3047" fill="none" rx="3" ry="3" style="stroke:#038048;stroke-width:1.0;"/><text fill="#000000" font-family="sans-serif" font-size="14" lengthAdjust="spacing" text-decoration="underline" textLength="78" x="776.5" y="1967.5332">LENGTH: int</text><rect fill="none" height="6" style="stroke:#C82930;stroke-width:1.0;" width="6" x="764.5" y="1977.9141"/><text fill="#000000" font-family="sans-serif" font-size="14" lengthAdjust="spacing" textLength="113" x="776.5" y="1985.1426">origin: Coordinate</text><rect fill="none" height="6" style="stroke:#C82930;stroke-width:1.0;" width="6" x="764.5" y="1995.5234"/><text fill="#000000" font-family="sans-serif" font-size="14" lengthAdjust="spacing" textLength="164" x="776.5" y="2002.752">coordinates: Coordinate[ ]</text><rect fill="none" height="6" style="stroke:#C82930;stroke-width:1.0;" width="6" x="764.5" y="2013.1328"/><text fill="#000000" font-family="sans-serif" font-size="14" lengthAdjust="spacing" textLength="174" x="776.5" y="2020.3613">oppositeDirection: Direction</text><line style="stroke:#181818;stroke-width:0.5;" x1="757.5" x2="978.5" y1="2027.4375" y2="2027.4375"/><ellipse cx="767.5" cy="2041.7422" fill="#84BE84" rx="3" ry="3" style="stroke:#038048;stroke-width:1.0;"/><text fill="#000000" font-family="sans-serif" font-size="14" lengthAdjust="spacing" textLength="182" x="776.5" y="2045.9707">Line(coordinate: Coordinate)</text><ellipse cx="767.5" cy="2059.3516" fill="#84BE84" rx="3" ry="3" style="stroke:#038048;stroke-width:1.0;"/><text fill="#000000" font-family="sans-serif" font-size="14" lengthAdjust="spacing" textLength="147" x="776.5" y="2063.5801">set(direction: Direction)</text><ellipse cx="767.5" cy="2076.9609" fill="#84BE84" rx="3" ry="3" style="stroke:#038048;stroke-width:1.0;"/><text fill="#000000" font-family="sans-serif" font-size="14" lengthAdjust="spacing" textLength="93" x="776.5" y="2081.1895">shiftOpposite()</text><ellipse cx="767.5" cy="2094.5703" fill="#84BE84" rx="3" ry="3" style="stroke:#038048;stroke-width:1.0;"/><text fill="#000000" font-family="sans-serif" font-size="14" lengthAdjust="spacing" textLength="197" x="776.5" y="2098.7988">getCoordinates(): Coordinate[ ]</text></g><!--class Board--><g id="elem_Board"><rect codeLine="17" fill="#F1F1F1" height="276.9219" id="Board" rx="2.5" ry="2.5" style="stroke:#181818;stroke-width:0.5;" width="277" x="670.5" y="1536"/><ellipse cx="785.75" cy="1552" fill="#ADD1B2" rx="11" ry="11" style="stroke:#181818;stroke-width:1.0;"/><path d="M788.5156,1547.875 Q788.6719,1547.6563 788.8594,1547.5469 Q789.0469,1547.4375 789.2656,1547.4375 Q789.6406,1547.4375 789.875,1547.7031 Q790.1094,1547.9531 790.1094,1548.5625 L790.1094,1550.0156 Q790.1094,1550.625 789.875,1550.8906 Q789.6406,1551.1563 789.2656,1551.1563 Q788.9219,1551.1563 788.7188,1550.9531 Q788.5156,1550.7656 788.4063,1550.25 Q788.3594,1549.8906 788.1719,1549.7031 Q787.8438,1549.3281 787.2344,1549.1094 Q786.625,1548.8906 786,1548.8906 Q785.2344,1548.8906 784.5938,1549.2188 Q783.9688,1549.5469 783.4688,1550.2969 Q782.9844,1551.0469 782.9844,1552.0781 L782.9844,1553.1719 Q782.9844,1554.4063 783.875,1555.2344 Q784.7656,1556.0469 786.3594,1556.0469 Q787.2969,1556.0469 787.9531,1555.7969 Q788.3438,1555.6406 788.7656,1555.2031 Q789.0313,1554.9375 789.1719,1554.8594 Q789.3281,1554.7813 789.5313,1554.7813 Q789.8594,1554.7813 790.1094,1555.0469 Q790.375,1555.2969 790.375,1555.6406 Q790.375,1555.9844 790.0313,1556.3906 Q789.5313,1556.9688 788.7344,1557.2969 Q787.6563,1557.75 786.3594,1557.75 Q784.8438,1557.75 783.6406,1557.125 Q782.6563,1556.625 781.9688,1555.5625 Q781.2813,1554.4844 781.2813,1553.2031 L781.2813,1552.0469 Q781.2813,1550.7188 781.8906,1549.5781 Q782.5156,1548.4219 783.6094,1547.8125 Q784.7031,1547.1875 785.9375,1547.1875 Q786.6719,1547.1875 787.3125,1547.3594 Q787.9688,1547.5156 788.5156,1547.875 Z " fill="#000000"/><text fill="#000000" font-family="sans-serif" font-size="14" lengthAdjust="spacing" textLength="38" x="806.25" y="1557.7285">Board</text><line style="stroke:#181818;stroke-width:0.5;" x1="671.5" x2="946.5" y1="1568" y2="1568"/><rect fill="none" height="6" style="stroke:#C82930;stroke-width:1.0;" width="6" x="678.5" y="1579.3047"/><text fill="#000000" font-family="sans-serif" font-size="14" lengthAdjust="spacing" textLength="96" x="690.5" y="1586.5332">colors[][]: Color</text><rect fill="none" height="6" style="stroke:#C82930;stroke-width:1.0;" width="6" x="678.5" y="1596.9141"/><text fill="#000000" font-family="sans-serif" font-size="14" lengthAdjust="spacing" textLength="131" x="690.5" y="1604.1426">lastDrop: Coordinate</text><line style="stroke:#181818;stroke-width:0.5;" x1="671.5" x2="946.5" y1="1611.2188" y2="1611.2188"/><ellipse cx="681.5" cy="1625.5234" fill="#84BE84" rx="3" ry="3" style="stroke:#038048;stroke-width:1.0;"/><text fill="#000000" font-family="sans-serif" font-size="14" lengthAdjust="spacing" textLength="48" x="690.5" y="1629.752">Board()</text><ellipse cx="681.5" cy="1643.1328" fill="#84BE84" rx="3" ry="3" style="stroke:#038048;stroke-width:1.0;"/><text fill="#000000" font-family="sans-serif" font-size="14" lengthAdjust="spacing" textLength="42" x="690.5" y="1647.3613">reset()</text><ellipse cx="681.5" cy="1660.7422" fill="#84BE84" rx="3" ry="3" style="stroke:#038048;stroke-width:1.0;"/><text fill="#000000" font-family="sans-serif" font-size="14" lengthAdjust="spacing" textLength="185" x="690.5" y="1664.9707">dropToken(int column, Color)</text><ellipse cx="681.5" cy="1678.3516" fill="#84BE84" rx="3" ry="3" style="stroke:#038048;stroke-width:1.0;"/><text fill="#000000" font-family="sans-serif" font-size="14" lengthAdjust="spacing" textLength="203" x="690.5" y="1682.5801">isComplete(int column): boolean</text><ellipse cx="681.5" cy="1695.9609" fill="#84BE84" rx="3" ry="3" style="stroke:#038048;stroke-width:1.0;"/><text fill="#000000" font-family="sans-serif" font-size="14" lengthAdjust="spacing" textLength="139" x="690.5" y="1700.1895">isComplete(): boolean</text><ellipse cx="681.5" cy="1713.5703" fill="#84BE84" rx="3" ry="3" style="stroke:#038048;stroke-width:1.0;"/><text fill="#000000" font-family="sans-serif" font-size="14" lengthAdjust="spacing" textLength="133" x="690.5" y="1717.7988">isFinished(): boolean</text><ellipse cx="681.5" cy="1731.1797" fill="#84BE84" rx="3" ry="3" style="stroke:#038048;stroke-width:1.0;"/><text fill="#000000" font-family="sans-serif" font-size="14" lengthAdjust="spacing" textLength="124" x="690.5" y="1735.4082">isWinner(): boolean</text><ellipse cx="681.5" cy="1748.7891" fill="#84BE84" rx="3" ry="3" style="stroke:#038048;stroke-width:1.0;"/><text fill="#000000" font-family="sans-serif" font-size="14" lengthAdjust="spacing" textLength="162" x="690.5" y="1753.0176">isConnect4(line): boolean</text><ellipse cx="681.5" cy="1766.3984" fill="#84BE84" rx="3" ry="3" style="stroke:#038048;stroke-width:1.0;"/><text fill="#000000" font-family="sans-serif" font-size="14" lengthAdjust="spacing" textLength="251" x="690.5" y="1770.627">isOccupied(Coordinate, Color): boolean</text><ellipse cx="681.5" cy="1784.0078" fill="#84BE84" rx="3" ry="3" style="stroke:#038048;stroke-width:1.0;"/><text fill="#000000" font-family="sans-serif" font-size="14" lengthAdjust="spacing" textLength="188" x="690.5" y="1788.2363">isEmpty(Coordinate): boolean</text><ellipse cx="681.5" cy="1801.6172" fill="#84BE84" rx="3" ry="3" style="stroke:#038048;stroke-width:1.0;"/><text fill="#000000" font-family="sans-serif" font-size="14" lengthAdjust="spacing" textLength="176" x="690.5" y="1805.8457">getColor(Coordinate): Color</text></g><!--class Player--><g id="elem_Player"><rect codeLine="18" fill="#F1F1F1" height="171.2656" id="Player" rx="2.5" ry="2.5" style="stroke:#181818;stroke-width:0.5;" width="241" x="422.5" y="1305"/><ellipse cx="518.75" cy="1321" fill="#A9DCDF" rx="11" ry="11" style="stroke:#181818;stroke-width:1.0;"/><path d="M520.9375,1322.7656 L516.7969,1322.7656 L516.375,1323.7969 L516.7969,1323.7969 Q517.4063,1323.7969 517.6719,1324.0313 Q517.9375,1324.2656 517.9375,1324.6563 Q517.9375,1325.0313 517.6719,1325.2656 Q517.4063,1325.5 516.7969,1325.5 L514.5,1325.5 Q513.8906,1325.5 513.6406,1325.2656 Q513.375,1325.0313 513.375,1324.6406 Q513.375,1324.2656 513.6563,1324.0313 Q513.9219,1323.7813 514.5469,1323.7969 L517.2188,1317.1406 L516.1094,1317.1406 Q515.5,1317.1406 515.2344,1316.9063 Q514.9688,1316.6719 514.9688,1316.2813 Q514.9688,1315.9063 515.2344,1315.6719 Q515.5,1315.4375 516.1094,1315.4375 L519.7813,1315.4375 L523.1719,1323.7969 Q523.7656,1323.7969 523.9531,1323.9375 Q524.3438,1324.2031 524.3438,1324.6563 Q524.3438,1325.0313 524.0781,1325.2656 Q523.8281,1325.5 523.2188,1325.5 L520.9219,1325.5 Q520.3125,1325.5 520.0469,1325.2656 Q519.7813,1325.0313 519.7813,1324.6406 Q519.7813,1324.2656 520.0469,1324.0313 Q520.3125,1323.7969 520.9219,1323.7969 L521.3438,1323.7969 L520.9375,1322.7656 Z M520.2188,1321.0625 L518.8594,1317.6875 L517.4844,1321.0625 L520.2188,1321.0625 Z " fill="#000000"/><text fill="#000000" font-family="sans-serif" font-size="14" font-style="italic" lengthAdjust="spacing" textLength="40" x="539.25" y="1326.7285">Player</text><line style="stroke:#181818;stroke-width:0.5;" x1="423.5" x2="662.5" y1="1337" y2="1337"/><rect fill="none" height="6" style="stroke:#C82930;stroke-width:1.0;" width="6" x="430.5" y="1348.3047"/><text fill="#000000" font-family="sans-serif" font-size="14" lengthAdjust="spacing" textLength="73" x="442.5" y="1355.5332">color: Color</text><rect fill="none" height="6" style="stroke:#C82930;stroke-width:1.0;" width="6" x="430.5" y="1365.9141"/><text fill="#000000" font-family="sans-serif" font-size="14" lengthAdjust="spacing" textLength="83" x="442.5" y="1373.1426">board: Board</text><line style="stroke:#181818;stroke-width:0.5;" x1="423.5" x2="662.5" y1="1380.2188" y2="1380.2188"/><rect fill="#F24D5C" height="6" style="stroke:#C82930;stroke-width:1.0;" width="6" x="430.5" y="1391.5234"/><text fill="#000000" font-family="sans-serif" font-size="14" lengthAdjust="spacing" textLength="130" x="442.5" y="1398.752">Player(Color, Board)</text><ellipse cx="433.5" cy="1412.1328" fill="#84BE84" rx="3" ry="3" style="stroke:#038048;stroke-width:1.0;"/><text fill="#000000" font-family="sans-serif" font-size="14" lengthAdjust="spacing" textLength="106" x="442.5" y="1416.3613">getColor(): Color</text><ellipse cx="433.5" cy="1429.7422" fill="#84BE84" rx="3" ry="3" style="stroke:#038048;stroke-width:1.0;"/><text fill="#000000" font-family="sans-serif" font-size="14" lengthAdjust="spacing" textLength="215" x="442.5" y="1433.9707">isCompleted(column: int): boolean</text><ellipse cx="433.5" cy="1447.3516" fill="#84BE84" rx="3" ry="3" style="stroke:#038048;stroke-width:1.0;"/><text fill="#000000" font-family="sans-serif" font-size="14" lengthAdjust="spacing" textLength="147" x="442.5" y="1451.5801">dropToken(column: int)</text><ellipse cx="433.5" cy="1464.9609" fill="#84BE84" rx="3" ry="3" style="stroke:#038048;stroke-width:1.0;"/><text fill="#000000" font-family="sans-serif" font-size="14" font-style="italic" lengthAdjust="spacing" textLength="131" x="442.5" y="1469.1895">accept(PlayerVisitor)</text></g><!--class UserPlayer--><g id="elem_UserPlayer"><rect codeLine="19" fill="#F1F1F1" height="83.2188" id="UserPlayer" rx="2.5" ry="2.5" style="stroke:#181818;stroke-width:0.5;" width="185" x="450.5" y="1633"/><ellipse cx="504.25" cy="1649" fill="#ADD1B2" rx="11" ry="11" style="stroke:#181818;stroke-width:1.0;"/><path d="M507.0156,1644.875 Q507.1719,1644.6563 507.3594,1644.5469 Q507.5469,1644.4375 507.7656,1644.4375 Q508.1406,1644.4375 508.375,1644.7031 Q508.6094,1644.9531 508.6094,1645.5625 L508.6094,1647.0156 Q508.6094,1647.625 508.375,1647.8906 Q508.1406,1648.1563 507.7656,1648.1563 Q507.4219,1648.1563 507.2188,1647.9531 Q507.0156,1647.7656 506.9063,1647.25 Q506.8594,1646.8906 506.6719,1646.7031 Q506.3438,1646.3281 505.7344,1646.1094 Q505.125,1645.8906 504.5,1645.8906 Q503.7344,1645.8906 503.0938,1646.2188 Q502.4688,1646.5469 501.9688,1647.2969 Q501.4844,1648.0469 501.4844,1649.0781 L501.4844,1650.1719 Q501.4844,1651.4063 502.375,1652.2344 Q503.2656,1653.0469 504.8594,1653.0469 Q505.7969,1653.0469 506.4531,1652.7969 Q506.8438,1652.6406 507.2656,1652.2031 Q507.5313,1651.9375 507.6719,1651.8594 Q507.8281,1651.7813 508.0313,1651.7813 Q508.3594,1651.7813 508.6094,1652.0469 Q508.875,1652.2969 508.875,1652.6406 Q508.875,1652.9844 508.5313,1653.3906 Q508.0313,1653.9688 507.2344,1654.2969 Q506.1563,1654.75 504.8594,1654.75 Q503.3438,1654.75 502.1406,1654.125 Q501.1563,1653.625 500.4688,1652.5625 Q499.7813,1651.4844 499.7813,1650.2031 L499.7813,1649.0469 Q499.7813,1647.7188 500.3906,1646.5781 Q501.0156,1645.4219 502.1094,1644.8125 Q503.2031,1644.1875 504.4375,1644.1875 Q505.1719,1644.1875 505.8125,1644.3594 Q506.4688,1644.5156 507.0156,1644.875 Z " fill="#000000"/><text fill="#000000" font-family="sans-serif" font-size="14" lengthAdjust="spacing" textLength="69" x="524.75" y="1654.7285">UserPlayer</text><line style="stroke:#181818;stroke-width:0.5;" x1="451.5" x2="634.5" y1="1665" y2="1665"/><line style="stroke:#181818;stroke-width:0.5;" x1="451.5" x2="634.5" y1="1673" y2="1673"/><ellipse cx="461.5" cy="1687.3047" fill="#84BE84" rx="3" ry="3" style="stroke:#038048;stroke-width:1.0;"/><text fill="#000000" font-family="sans-serif" font-size="14" lengthAdjust="spacing" textLength="159" x="470.5" y="1691.5332">UserPlayer(Color, Board)</text><ellipse cx="461.5" cy="1704.9141" fill="#84BE84" rx="3" ry="3" style="stroke:#038048;stroke-width:1.0;"/><text fill="#000000" font-family="sans-serif" font-size="14" lengthAdjust="spacing" textLength="109" x="470.5" y="1709.1426">accept(Turnview)</text></g><!--class MachinePlayer--><g id="elem_MachinePlayer"><rect codeLine="20" fill="#F1F1F1" height="100.8281" id="MachinePlayer" rx="2.5" ry="2.5" style="stroke:#181818;stroke-width:0.5;" width="209" x="206.5" y="1624"/><ellipse cx="259.75" cy="1640" fill="#A9DCDF" rx="11" ry="11" style="stroke:#181818;stroke-width:1.0;"/><path d="M261.9375,1641.7656 L257.7969,1641.7656 L257.375,1642.7969 L257.7969,1642.7969 Q258.4063,1642.7969 258.6719,1643.0313 Q258.9375,1643.2656 258.9375,1643.6563 Q258.9375,1644.0313 258.6719,1644.2656 Q258.4063,1644.5 257.7969,1644.5 L255.5,1644.5 Q254.8906,1644.5 254.6406,1644.2656 Q254.375,1644.0313 254.375,1643.6406 Q254.375,1643.2656 254.6563,1643.0313 Q254.9219,1642.7813 255.5469,1642.7969 L258.2188,1636.1406 L257.1094,1636.1406 Q256.5,1636.1406 256.2344,1635.9063 Q255.9688,1635.6719 255.9688,1635.2813 Q255.9688,1634.9063 256.2344,1634.6719 Q256.5,1634.4375 257.1094,1634.4375 L260.7813,1634.4375 L264.1719,1642.7969 Q264.7656,1642.7969 264.9531,1642.9375 Q265.3438,1643.2031 265.3438,1643.6563 Q265.3438,1644.0313 265.0781,1644.2656 Q264.8281,1644.5 264.2188,1644.5 L261.9219,1644.5 Q261.3125,1644.5 261.0469,1644.2656 Q260.7813,1644.0313 260.7813,1643.6406 Q260.7813,1643.2656 261.0469,1643.0313 Q261.3125,1642.7969 261.9219,1642.7969 L262.3438,1642.7969 L261.9375,1641.7656 Z M261.2188,1640.0625 L259.8594,1636.6875 L258.4844,1640.0625 L261.2188,1640.0625 Z " fill="#000000"/><text fill="#000000" font-family="sans-serif" font-size="14" font-style="italic" lengthAdjust="spacing" textLength="94" x="280.25" y="1645.7285">MachinePlayer</text><line style="stroke:#181818;stroke-width:0.5;" x1="207.5" x2="414.5" y1="1656" y2="1656"/><line style="stroke:#181818;stroke-width:0.5;" x1="207.5" x2="414.5" y1="1664" y2="1664"/><ellipse cx="217.5" cy="1678.3047" fill="#84BE84" rx="3" ry="3" style="stroke:#038048;stroke-width:1.0;"/><text fill="#000000" font-family="sans-serif" font-size="14" lengthAdjust="spacing" textLength="183" x="226.5" y="1682.5332">MachinePlayer(Color, Board)</text><ellipse cx="217.5" cy="1695.9141" fill="#84BE84" rx="3" ry="3" style="stroke:#038048;stroke-width:1.0;"/><text fill="#000000" font-family="sans-serif" font-size="14" font-style="italic" lengthAdjust="spacing" textLength="111" x="226.5" y="1700.1426">accept(TurnView)</text><ellipse cx="217.5" cy="1713.5234" fill="#84BE84" rx="3" ry="3" style="stroke:#038048;stroke-width:1.0;"/><text fill="#000000" font-family="sans-serif" font-size="14" font-style="italic" lengthAdjust="spacing" textLength="101" x="226.5" y="1717.752">getColumn(): int</text></g><!--class RandomMachinePlayer--><g id="elem_RandomMachinePlayer"><rect codeLine="21" fill="#F1F1F1" height="100.8281" id="RandomMachinePlayer" rx="2.5" ry="2.5" style="stroke:#181818;stroke-width:0.5;" width="262" x="140" y="1961"/><ellipse cx="193.75" cy="1977" fill="#ADD1B2" rx="11" ry="11" style="stroke:#181818;stroke-width:1.0;"/><path d="M196.5156,1972.875 Q196.6719,1972.6563 196.8594,1972.5469 Q197.0469,1972.4375 197.2656,1972.4375 Q197.6406,1972.4375 197.875,1972.7031 Q198.1094,1972.9531 198.1094,1973.5625 L198.1094,1975.0156 Q198.1094,1975.625 197.875,1975.8906 Q197.6406,1976.1563 197.2656,1976.1563 Q196.9219,1976.1563 196.7188,1975.9531 Q196.5156,1975.7656 196.4063,1975.25 Q196.3594,1974.8906 196.1719,1974.7031 Q195.8438,1974.3281 195.2344,1974.1094 Q194.625,1973.8906 194,1973.8906 Q193.2344,1973.8906 192.5938,1974.2188 Q191.9688,1974.5469 191.4688,1975.2969 Q190.9844,1976.0469 190.9844,1977.0781 L190.9844,1978.1719 Q190.9844,1979.4063 191.875,1980.2344 Q192.7656,1981.0469 194.3594,1981.0469 Q195.2969,1981.0469 195.9531,1980.7969 Q196.3438,1980.6406 196.7656,1980.2031 Q197.0313,1979.9375 197.1719,1979.8594 Q197.3281,1979.7813 197.5313,1979.7813 Q197.8594,1979.7813 198.1094,1980.0469 Q198.375,1980.2969 198.375,1980.6406 Q198.375,1980.9844 198.0313,1981.3906 Q197.5313,1981.9688 196.7344,1982.2969 Q195.6563,1982.75 194.3594,1982.75 Q192.8438,1982.75 191.6406,1982.125 Q190.6563,1981.625 189.9688,1980.5625 Q189.2813,1979.4844 189.2813,1978.2031 L189.2813,1977.0469 Q189.2813,1975.7188 189.8906,1974.5781 Q190.5156,1973.4219 191.6094,1972.8125 Q192.7031,1972.1875 193.9375,1972.1875 Q194.6719,1972.1875 195.3125,1972.3594 Q195.9688,1972.5156 196.5156,1972.875 Z " fill="#000000"/><text fill="#000000" font-family="sans-serif" font-size="14" lengthAdjust="spacing" textLength="146" x="214.25" y="1982.7285">RandomMachinePlayer</text><line style="stroke:#181818;stroke-width:0.5;" x1="141" x2="401" y1="1993" y2="1993"/><line style="stroke:#181818;stroke-width:0.5;" x1="141" x2="401" y1="2001" y2="2001"/><ellipse cx="151" cy="2015.3047" fill="#84BE84" rx="3" ry="3" style="stroke:#038048;stroke-width:1.0;"/><text fill="#000000" font-family="sans-serif" font-size="14" lengthAdjust="spacing" textLength="236" x="160" y="2019.5332">RandomMachinePlayer(Color, Board)</text><ellipse cx="151" cy="2032.9141" fill="#84BE84" rx="3" ry="3" style="stroke:#038048;stroke-width:1.0;"/><text fill="#000000" font-family="sans-serif" font-size="14" lengthAdjust="spacing" textLength="111" x="160" y="2037.1426">accept(TurnView)</text><ellipse cx="151" cy="2050.5234" fill="#84BE84" rx="3" ry="3" style="stroke:#038048;stroke-width:1.0;"/><text fill="#000000" font-family="sans-serif" font-size="14" lengthAdjust="spacing" textLength="101" x="160" y="2054.752">getColumn(): int</text></g><!--class Turn--><g id="elem_Turn"><rect codeLine="22" fill="#F1F1F1" height="188.875" id="Turn" rx="2.5" ry="2.5" style="stroke:#181818;stroke-width:0.5;" width="182" x="532" y="1056"/><ellipse cx="603.75" cy="1072" fill="#ADD1B2" rx="11" ry="11" style="stroke:#181818;stroke-width:1.0;"/><path d="M606.5156,1067.875 Q606.6719,1067.6563 606.8594,1067.5469 Q607.0469,1067.4375 607.2656,1067.4375 Q607.6406,1067.4375 607.875,1067.7031 Q608.1094,1067.9531 608.1094,1068.5625 L608.1094,1070.0156 Q608.1094,1070.625 607.875,1070.8906 Q607.6406,1071.1563 607.2656,1071.1563 Q606.9219,1071.1563 606.7188,1070.9531 Q606.5156,1070.7656 606.4063,1070.25 Q606.3594,1069.8906 606.1719,1069.7031 Q605.8438,1069.3281 605.2344,1069.1094 Q604.625,1068.8906 604,1068.8906 Q603.2344,1068.8906 602.5938,1069.2188 Q601.9688,1069.5469 601.4688,1070.2969 Q600.9844,1071.0469 600.9844,1072.0781 L600.9844,1073.1719 Q600.9844,1074.4063 601.875,1075.2344 Q602.7656,1076.0469 604.3594,1076.0469 Q605.2969,1076.0469 605.9531,1075.7969 Q606.3438,1075.6406 606.7656,1075.2031 Q607.0313,1074.9375 607.1719,1074.8594 Q607.3281,1074.7813 607.5313,1074.7813 Q607.8594,1074.7813 608.1094,1075.0469 Q608.375,1075.2969 608.375,1075.6406 Q608.375,1075.9844 608.0313,1076.3906 Q607.5313,1076.9688 606.7344,1077.2969 Q605.6563,1077.75 604.3594,1077.75 Q602.8438,1077.75 601.6406,1077.125 Q600.6563,1076.625 599.9688,1075.5625 Q599.2813,1074.4844 599.2813,1073.2031 L599.2813,1072.0469 Q599.2813,1070.7188 599.8906,1069.5781 Q600.5156,1068.4219 601.6094,1067.8125 Q602.7031,1067.1875 603.9375,1067.1875 Q604.6719,1067.1875 605.3125,1067.3594 Q605.9688,1067.5156 606.5156,1067.875 Z " fill="#000000"/><text fill="#000000" font-family="sans-serif" font-size="14" lengthAdjust="spacing" textLength="30" x="624.25" y="1077.7285">Turn</text><line style="stroke:#181818;stroke-width:0.5;" x1="533" x2="713" y1="1088" y2="1088"/><ellipse cx="543" cy="1102.3047" fill="none" rx="3" ry="3" style="stroke:#038048;stroke-width:1.0;"/><text fill="#000000" font-family="sans-serif" font-size="14" lengthAdjust="spacing" text-decoration="underline" textLength="151" x="552" y="1106.5332">NUMBER_PLAYERS: int</text><rect fill="none" height="6" style="stroke:#C82930;stroke-width:1.0;" width="6" x="540" y="1116.9141"/><text fill="#000000" font-family="sans-serif" font-size="14" lengthAdjust="spacing" textLength="94" x="552" y="1124.1426">players: Player</text><rect fill="none" height="6" style="stroke:#C82930;stroke-width:1.0;" width="6" x="540" y="1134.5234"/><text fill="#000000" font-family="sans-serif" font-size="14" lengthAdjust="spacing" textLength="100" x="552" y="1141.752">activePlayer: int</text><rect fill="none" height="6" style="stroke:#C82930;stroke-width:1.0;" width="6" x="540" y="1152.1328"/><text fill="#000000" font-family="sans-serif" font-size="14" lengthAdjust="spacing" textLength="83" x="552" y="1159.3613">board: Board</text><line style="stroke:#181818;stroke-width:0.5;" x1="533" x2="713" y1="1166.4375" y2="1166.4375"/><rect fill="#F24D5C" height="6" style="stroke:#C82930;stroke-width:1.0;" width="6" x="540" y="1177.7422"/><text fill="#000000" font-family="sans-serif" font-size="14" lengthAdjust="spacing" textLength="78" x="552" y="1184.9707">Turn(Board)</text><ellipse cx="543" cy="1198.3516" fill="#84BE84" rx="3" ry="3" style="stroke:#038048;stroke-width:1.0;"/><text fill="#000000" font-family="sans-serif" font-size="14" lengthAdjust="spacing" textLength="136" x="552" y="1202.5801">reset(int userPlayers)</text><ellipse cx="543" cy="1215.9609" fill="#84BE84" rx="3" ry="3" style="stroke:#038048;stroke-width:1.0;"/><text fill="#000000" font-family="sans-serif" font-size="14" lengthAdjust="spacing" textLength="36" x="552" y="1220.1895">next()</text><ellipse cx="543" cy="1233.5703" fill="#84BE84" rx="3" ry="3" style="stroke:#038048;stroke-width:1.0;"/><text fill="#000000" font-family="sans-serif" font-size="14" lengthAdjust="spacing" textLength="156" x="552" y="1237.7988">getActivePlayer(): Player</text></g><!--class YesNoDialog--><g id="elem_YesNoDialog"><rect codeLine="23" fill="#F1F1F1" height="206.4844" id="YesNoDialog" rx="2.5" ry="2.5" style="stroke:#181818;stroke-width:0.5;" width="116" x="647" y="51.5"/><ellipse cx="663.35" cy="67.5" fill="#ADD1B2" rx="11" ry="11" style="stroke:#181818;stroke-width:1.0;"/><path d="M666.1156,63.375 Q666.2719,63.1563 666.4594,63.0469 Q666.6469,62.9375 666.8656,62.9375 Q667.2406,62.9375 667.475,63.2031 Q667.7094,63.4531 667.7094,64.0625 L667.7094,65.5156 Q667.7094,66.125 667.475,66.3906 Q667.2406,66.6563 666.8656,66.6563 Q666.5219,66.6563 666.3188,66.4531 Q666.1156,66.2656 666.0063,65.75 Q665.9594,65.3906 665.7719,65.2031 Q665.4438,64.8281 664.8344,64.6094 Q664.225,64.3906 663.6,64.3906 Q662.8344,64.3906 662.1938,64.7188 Q661.5688,65.0469 661.0688,65.7969 Q660.5844,66.5469 660.5844,67.5781 L660.5844,68.6719 Q660.5844,69.9063 661.475,70.7344 Q662.3656,71.5469 663.9594,71.5469 Q664.8969,71.5469 665.5531,71.2969 Q665.9438,71.1406 666.3656,70.7031 Q666.6313,70.4375 666.7719,70.3594 Q666.9281,70.2813 667.1313,70.2813 Q667.4594,70.2813 667.7094,70.5469 Q667.975,70.7969 667.975,71.1406 Q667.975,71.4844 667.6313,71.8906 Q667.1313,72.4688 666.3344,72.7969 Q665.2563,73.25 663.9594,73.25 Q662.4438,73.25 661.2406,72.625 Q660.2563,72.125 659.5688,71.0625 Q658.8813,69.9844 658.8813,68.7031 L658.8813,67.5469 Q658.8813,66.2188 659.4906,65.0781 Q660.1156,63.9219 661.2094,63.3125 Q662.3031,62.6875 663.5375,62.6875 Q664.2719,62.6875 664.9125,62.8594 Q665.5688,63.0156 666.1156,63.375 Z " fill="#000000"/><text fill="#000000" font-family="sans-serif" font-size="14" lengthAdjust="spacing" textLength="81" x="677.65" y="73.2285">YesNoDialog</text><line style="stroke:#181818;stroke-width:0.5;" x1="648" x2="762" y1="83.5" y2="83.5"/><rect fill="none" height="6" style="stroke:#C82930;stroke-width:1.0;" width="6" x="655" y="94.8047"/><text fill="#000000" font-family="sans-serif" font-size="14" lengthAdjust="spacing" text-decoration="underline" textLength="90" x="667" y="102.0332">AFFIRMATIVE</text><rect fill="none" height="6" style="stroke:#C82930;stroke-width:1.0;" width="6" x="655" y="112.4141"/><text fill="#000000" font-family="sans-serif" font-size="14" lengthAdjust="spacing" text-decoration="underline" textLength="68" x="667" y="119.6426">NEGATIVE</text><rect fill="none" height="6" style="stroke:#C82930;stroke-width:1.0;" width="6" x="655" y="130.0234"/><text fill="#000000" font-family="sans-serif" font-size="14" lengthAdjust="spacing" text-decoration="underline" textLength="47" x="667" y="137.252">SUFFIX</text><rect fill="none" height="6" style="stroke:#C82930;stroke-width:1.0;" width="6" x="655" y="147.6328"/><text fill="#000000" font-family="sans-serif" font-size="14" lengthAdjust="spacing" text-decoration="underline" textLength="67" x="667" y="154.8613">MESSAGE</text><rect fill="none" height="6" style="stroke:#C82930;stroke-width:1.0;" width="6" x="655" y="165.2422"/><text fill="#000000" font-family="sans-serif" font-size="14" lengthAdjust="spacing" textLength="45" x="667" y="172.4707">answer</text><line style="stroke:#181818;stroke-width:0.5;" x1="648" x2="762" y1="179.5469" y2="179.5469"/><ellipse cx="658" cy="193.8516" fill="#84BE84" rx="3" ry="3" style="stroke:#038048;stroke-width:1.0;"/><text fill="#000000" font-family="sans-serif" font-size="14" lengthAdjust="spacing" textLength="39" x="667" y="198.0801">read()</text><ellipse cx="658" cy="211.4609" fill="#84BE84" rx="3" ry="3" style="stroke:#038048;stroke-width:1.0;"/><text fill="#000000" font-family="sans-serif" font-size="14" lengthAdjust="spacing" textLength="86" x="667" y="215.6895">isAffirmative()</text><ellipse cx="658" cy="229.0703" fill="#84BE84" rx="3" ry="3" style="stroke:#038048;stroke-width:1.0;"/><text fill="#000000" font-family="sans-serif" font-size="14" lengthAdjust="spacing" textLength="75" x="667" y="233.2988">isNegative()</text><ellipse cx="658" cy="246.6797" fill="#84BE84" rx="3" ry="3" style="stroke:#038048;stroke-width:1.0;"/><text fill="#000000" font-family="sans-serif" font-size="14" lengthAdjust="spacing" textLength="76" x="667" y="250.9082">getAnswer()</text></g><!--class Console--><g id="elem_Console"><rect codeLine="24" fill="#F1F1F1" height="48" id="Console" rx="2.5" ry="2.5" style="stroke:#181818;stroke-width:0.5;" width="84" x="463" y="415"/><ellipse cx="478" cy="431" fill="#ADD1B2" rx="11" ry="11" style="stroke:#181818;stroke-width:1.0;"/><path d="M480.7656,426.875 Q480.9219,426.6563 481.1094,426.5469 Q481.2969,426.4375 481.5156,426.4375 Q481.8906,426.4375 482.125,426.7031 Q482.3594,426.9531 482.3594,427.5625 L482.3594,429.0156 Q482.3594,429.625 482.125,429.8906 Q481.8906,430.1563 481.5156,430.1563 Q481.1719,430.1563 480.9688,429.9531 Q480.7656,429.7656 480.6563,429.25 Q480.6094,428.8906 480.4219,428.7031 Q480.0938,428.3281 479.4844,428.1094 Q478.875,427.8906 478.25,427.8906 Q477.4844,427.8906 476.8438,428.2188 Q476.2188,428.5469 475.7188,429.2969 Q475.2344,430.0469 475.2344,431.0781 L475.2344,432.1719 Q475.2344,433.4063 476.125,434.2344 Q477.0156,435.0469 478.6094,435.0469 Q479.5469,435.0469 480.2031,434.7969 Q480.5938,434.6406 481.0156,434.2031 Q481.2813,433.9375 481.4219,433.8594 Q481.5781,433.7813 481.7813,433.7813 Q482.1094,433.7813 482.3594,434.0469 Q482.625,434.2969 482.625,434.6406 Q482.625,434.9844 482.2813,435.3906 Q481.7813,435.9688 480.9844,436.2969 Q479.9063,436.75 478.6094,436.75 Q477.0938,436.75 475.8906,436.125 Q474.9063,435.625 474.2188,434.5625 Q473.5313,433.4844 473.5313,432.2031 L473.5313,431.0469 Q473.5313,429.7188 474.1406,428.5781 Q474.7656,427.4219 475.8594,426.8125 Q476.9531,426.1875 478.1875,426.1875 Q478.9219,426.1875 479.5625,426.3594 Q480.2188,426.5156 480.7656,426.875 Z " fill="#000000"/><text fill="#000000" font-family="sans-serif" font-size="14" lengthAdjust="spacing" textLength="52" x="492" y="436.7285">Console</text><line style="stroke:#181818;stroke-width:0.5;" x1="464" x2="546" y1="447" y2="447"/><line style="stroke:#181818;stroke-width:0.5;" x1="464" x2="546" y1="455" y2="455"/></g><!--reverse link Connect4 to Game--><g id="link_Connect4_Game"><path codeLine="26" d="M844.0273,234.7089 C839.3173,275.0189 835.36,315.39 833,362 C825.1,517.69 828.34,699.04 831.56,806.55 " fill="none" id="Connect4-backto-Game" style="stroke:#181818;stroke-width:1.0;"/><polygon fill="#181818" points="845.42,222.79,840.7507,228.2852,844.0273,234.7089,848.6966,229.2137,845.42,222.79" style="stroke:#181818;stroke-width:1.0;"/></g><!--reverse link Connect4 to GameView--><g id="link_Connect4_GameView"><path codeLine="27" d="M876.3286,234.3563 C888.1786,276.2163 900.19,318.59 912.48,361.99 " fill="none" id="Connect4-backto-GameView" style="stroke:#181818;stroke-width:1.0;"/><polygon fill="#181818" points="873.06,222.81,870.8455,229.6727,876.3286,234.3563,878.5431,227.4936,873.06,222.81" style="stroke:#181818;stroke-width:1.0;"/></g><!--link GameView to Game--><g id="link_GameView_Game"><path codeLine="28" d="M900.71,516.29 C893.33,535.5 886.17,556.27 881,576 C860.99,652.37 849.7659,735.3107 843.1259,800.7307 " fill="none" id="GameView-to-Game" style="stroke:#181818;stroke-width:1.0;"/><polygon fill="#181818" points="842.52,806.7,847.4084,798.1499,843.0249,801.7256,839.4493,797.3421,842.52,806.7" style="stroke:#181818;stroke-width:1.0;"/></g><!--reverse link Game to Board--><g id="link_Game_Board"><path codeLine="29" d="M831.435,1008.2632 C826.885,1143.0032 818.89,1380.26 813.64,1535.9 " fill="none" id="Game-backto-Board" style="stroke:#181818;stroke-width:1.0;"/><polygon fill="#181818" points="831.84,996.27,827.6398,1002.1316,831.435,1008.2632,835.6352,1002.4016,831.84,996.27" style="stroke:#181818;stroke-width:1.0;"/></g><!--reverse link Game to Turn--><g id="link_Game_Turn"><path codeLine="30" d="M746.7355,1005.3368 C729.9855,1024.8568 720.14,1036.32 703.4,1055.83 " fill="none" id="Game-backto-Turn" style="stroke:#181818;stroke-width:1.0;"/><polygon fill="#181818" points="754.55,996.23,747.6072,998.1786,746.7355,1005.3368,753.6784,1003.3882,754.55,996.23" style="stroke:#181818;stroke-width:1.0;"/></g><!--reverse link GameView to TurnView--><g id="link_GameView_TurnView"><path codeLine="31" d="M1026.5347,523.624 C1048.0547,543.064 1062.45,556.07 1084.43,575.95 " fill="none" id="GameView-backto-TurnView" style="stroke:#181818;stroke-width:1.0;"/><polygon fill="#181818" points="1017.63,515.58,1019.401,522.5702,1026.5347,523.624,1024.7637,516.6338,1017.63,515.58" style="stroke:#181818;stroke-width:1.0;"/></g><!--reverse link GameView to BoardView--><g id="link_GameView_BoardView"><path codeLine="32" d="M947.973,528.0413 C952.463,556.3013 955.59,576.02 959.78,602.4 " fill="none" id="GameView-backto-BoardView" style="stroke:#181818;stroke-width:1.0;"/><polygon fill="#181818" points="946.09,516.19,943.081,522.7433,947.973,528.0413,950.9819,521.488,946.09,516.19" style="stroke:#181818;stroke-width:1.0;"/></g><!--reverse link PlayerVisitor to TurnView--><g id="link_PlayerVisitor_TurnView"><path codeLine="33" d="M1178,498.7 C1178,525.33 1178,543.11 1178,575.74 " fill="none" id="PlayerVisitor-backto-TurnView" style="stroke:#181818;stroke-width:1.0;"/><polygon fill="none" points="1178,480.7,1172,498.7,1184,498.7,1178,480.7" style="stroke:#181818;stroke-width:1.0;"/></g><!--link TurnView to Game--><g id="link_TurnView_Game"><path codeLine="34" d="M1074.72,734.67 C1068.73,738.85 1062.79,742.98 1057,747 C1014,776.88 971.176,806.5089 931.006,834.2689 " fill="none" id="TurnView-to-Game" style="stroke:#181818;stroke-width:1.0;"/><polygon fill="#181818" points="926.07,837.68,935.7481,835.854,930.1834,834.8374,931.2,829.2727,926.07,837.68" style="stroke:#181818;stroke-width:1.0;"/></g><!--link TurnView to PlayerView--><g id="link_TurnView_PlayerView"><path codeLine="36" d="M1181.55,747.08 C1183.16,785.43 1184.7496,822.9952 1186.0396,853.8752 " fill="none" id="TurnView-to-PlayerView" style="stroke:#181818;stroke-width:1.0;stroke-dasharray:7.0,7.0;"/><polygon fill="#181818" points="1186.29,859.87,1189.9109,850.7109,1186.0813,854.8744,1181.9178,851.0448,1186.29,859.87" style="stroke:#181818;stroke-width:1.0;"/></g><!--reverse link PlayerView to MachinePlayerView--><g id="link_PlayerView_MachinePlayerView"><path codeLine="37" d="M1244.0671,955.3577 C1289.5071,998.1977 1348.15,1053.48 1397.05,1099.58 " fill="none" id="PlayerView-backto-MachinePlayerView" style="stroke:#181818;stroke-width:1.0;"/><polygon fill="none" points="1230.97,943.01,1239.9512,959.7234,1248.183,950.992,1230.97,943.01" style="stroke:#181818;stroke-width:1.0;"/></g><!--reverse link PlayerView to UserPlayerView--><g id="link_PlayerView_UserPlayerView"><path codeLine="38" d="M1188,961.01 C1188,1003.85 1188,1053.48 1188,1099.58 " fill="none" id="PlayerView-backto-UserPlayerView" style="stroke:#181818;stroke-width:1.0;"/><polygon fill="none" points="1188,943.01,1182,961.01,1194,961.01,1188,943.01" style="stroke:#181818;stroke-width:1.0;"/></g><!--link BoardView to Game--><g id="link_BoardView_Game"><path codeLine="39" d="M936.22,720.72 C921.65,746.59 907.0838,772.4718 890.7438,801.4918 " fill="none" id="BoardView-to-Game" style="stroke:#181818;stroke-width:1.0;"/><polygon fill="#181818" points="887.8,806.72,895.7012,800.8402,890.2532,802.3632,888.7302,796.9152,887.8,806.72" style="stroke:#181818;stroke-width:1.0;"/></g><!--link BoardView to Coordinate--><g id="link_BoardView_Coordinate"><path codeLine="40" d="M981.64,720.65 C1000.3,811.64 1033,993.45 1033,1149.5 C1033,1149.5 1033,1149.5 1033,1675.5 C1033,1886.99 1109,1970.6 997,2150 C936.85,2246.36 824.4995,2303.9974 735.4995,2337.2974 " fill="none" id="BoardView-to-Coordinate" style="stroke:#181818;stroke-width:1.0;stroke-dasharray:7.0,7.0;"/><polygon fill="#181818" points="729.88,2339.4,739.711,2339.9925,734.5629,2337.6478,736.9076,2332.4998,729.88,2339.4" style="stroke:#181818;stroke-width:1.0;"/></g><!--link Turn to Board--><g id="link_Turn_Board"><path codeLine="43" d="M658.83,1245.11 C666.26,1264.85 673.96,1285.58 681,1305 C708.58,1381.09 736.3597,1460.7558 760.2097,1530.1458 " fill="none" id="Turn-to-Board" style="stroke:#181818;stroke-width:1.0;"/><polygon fill="#181818" points="762.16,1535.82,763.0174,1526.0085,760.5348,1531.0915,755.4518,1528.6089,762.16,1535.82" style="stroke:#181818;stroke-width:1.0;"/></g><!--reverse link Turn to Player--><g id="link_Turn_Player"><path codeLine="44" d="M587.6723,1256.5931 C581.0623,1276.2331 577.97,1285.47 571.48,1304.76 " fill="none" id="Turn-backto-Player" style="stroke:#181818;stroke-width:1.0;"/><polygon fill="none" points="591.5,1245.22,585.7951,1249.6307,587.6723,1256.5931,593.3772,1252.1825,591.5,1245.22" style="stroke:#181818;stroke-width:1.0;"/></g><!--link Turn to Color--><g id="link_Turn_Color"><path codeLine="45" d="M531.86,1209.53 C491.55,1236.73 444.45,1270.66 405,1305 C298.98,1397.28 278.51,1427.62 189,1536 C175.18,1552.73 164.6173,1566.3483 151.4973,1584.1683 " fill="none" id="Turn-to-Color" style="stroke:#181818;stroke-width:1.0;stroke-dasharray:7.0,7.0;"/><polygon fill="#181818" points="147.94,1589,156.4971,1584.124,150.9045,1584.9736,150.0549,1579.3809,147.94,1589" style="stroke:#181818;stroke-width:1.0;"/></g><!--link Player to Color--><g id="link_Player_Color"><path codeLine="46" d="M422.42,1422.45 C349.58,1445.36 257.83,1482.05 189,1536 C170.3,1550.66 157.0495,1564.8747 142.7695,1584.0847 " fill="none" id="Player-to-Color" style="stroke:#181818;stroke-width:1.0;"/><polygon fill="#181818" points="139.19,1588.9,147.7695,1584.0634,142.1729,1584.8873,141.3491,1579.2907,139.19,1588.9" style="stroke:#181818;stroke-width:1.0;"/></g><!--link Player to Board--><g id="link_Player_Board"><path codeLine="47" d="M622.81,1476.11 C640.64,1495.01 655.872,1511.1663 675.142,1531.5863 " fill="none" id="Player-to-Board" style="stroke:#181818;stroke-width:1.0;"/><polygon fill="#181818" points="679.26,1535.95,675.9922,1526.6591,675.8283,1532.3136,670.1739,1532.1497,679.26,1535.95" style="stroke:#181818;stroke-width:1.0;"/></g><!--reverse link Player to UserPlayer--><g id="link_Player_UserPlayer"><path codeLine="48" d="M543,1494.11 C543,1546.02 543,1592.15 543,1632.95 " fill="none" id="Player-backto-UserPlayer" style="stroke:#181818;stroke-width:1.0;"/><polygon fill="none" points="543,1476.11,537,1494.11,549,1494.11,543,1476.11" style="stroke:#181818;stroke-width:1.0;"/></g><!--reverse link Player to MachinePlayer--><g id="link_Player_MachinePlayer"><path codeLine="49" d="M461.9537,1490.0101 C422.3137,1538.1901 385.46,1583 351.89,1623.8 " fill="none" id="Player-backto-MachinePlayer" style="stroke:#181818;stroke-width:1.0;"/><polygon fill="none" points="473.39,1476.11,457.3204,1486.198,466.5871,1493.8222,473.39,1476.11" style="stroke:#181818;stroke-width:1.0;"/></g><!--reverse link MachinePlayer to RandomMachinePlayer--><g id="link_MachinePlayer_RandomMachinePlayer"><path codeLine="51" d="M302.9169,1743.1632 C295.3469,1806.5932 284.47,1897.68 276.91,1960.98 " fill="none" id="MachinePlayer-backto-RandomMachinePlayer" style="stroke:#181818;stroke-width:1.0;"/><polygon fill="none" points="305.05,1725.29,296.9592,1742.4521,308.8747,1743.8742,305.05,1725.29" style="stroke:#181818;stroke-width:1.0;"/></g><!--link Board to Coordinate--><g id="link_Board_Coordinate"><path codeLine="52" d="M670.13,1802.1 C664.45,1805.93 658.73,1809.57 653,1813 C587.09,1852.38 534.86,1809.98 491,1873 C422.03,1972.1 457.3654,2100.2992 508.8254,2204.6092 " fill="none" id="Board-to-Coordinate" style="stroke:#181818;stroke-width:1.0;"/><polygon fill="#181818" points="511.48,2209.99,511.0854,2200.1491,509.2679,2205.506,503.9109,2203.6885,511.48,2209.99" style="stroke:#181818;stroke-width:1.0;"/></g><!--link Board to Line--><g id="link_Board_Line"><path codeLine="53" d="M833.25,1813.21 C839.39,1848.04 844.7881,1878.7312 850.4481,1910.8312 " fill="none" id="Board-to-Line" style="stroke:#181818;stroke-width:1.0;stroke-dasharray:7.0,7.0;"/><polygon fill="#181818" points="851.49,1916.74,853.8664,1907.1821,850.6218,1911.816,845.988,1908.5713,851.49,1916.74" style="stroke:#181818;stroke-width:1.0;"/></g><!--link Board to Direction--><g id="link_Board_Direction"><path codeLine="54" d="M729.25,1813.21 C717.86,1832.88 709.1466,1847.9277 697.7566,1867.5977 " fill="none" id="Board-to-Direction" style="stroke:#181818;stroke-width:1.0;stroke-dasharray:7.0,7.0;"/><polygon fill="#181818" points="694.75,1872.79,702.7215,1867.0059,697.2555,1868.4631,695.7984,1862.9971,694.75,1872.79" style="stroke:#181818;stroke-width:1.0;"/></g><!--link Direction to Coordinate--><g id="link_Direction_Coordinate"><path codeLine="55" d="M602.58,2150.2 C602.28,2169.65 602.1438,2183.8101 602.2638,2203.7101 " fill="none" id="Direction-to-Coordinate" style="stroke:#181818;stroke-width:1.0;"/><polygon fill="#181818" points="602.3,2209.71,606.2457,2200.686,602.2698,2204.7101,598.2458,2200.7343,602.3,2209.71" style="stroke:#181818;stroke-width:1.0;"/></g><!--link Direction to Coordinate--><g id="link_Direction_Coordinate"><path codeLine="56" d="M628.15,2150.2 C628.47,2169.65 628.6062,2183.8101 628.4862,2203.7101 " fill="none" id="Direction-to-Coordinate-1" style="stroke:#181818;stroke-width:1.0;stroke-dasharray:7.0,7.0;"/><polygon fill="#181818" points="628.45,2209.71,632.5042,2200.7343,628.4802,2204.7101,624.5043,2200.686,628.45,2209.71" style="stroke:#181818;stroke-width:1.0;"/></g><!--reverse link Coordinate to ClosedInterval--><g id="link_Coordinate_ClosedInterval"><path codeLine="57" d="M615,2552.04 C615,2573.37 615,2581.97 615,2599.83 " fill="none" id="Coordinate-backto-ClosedInterval" style="stroke:#181818;stroke-width:1.0;"/><polygon fill="#181818" points="615,2540.04,611,2546.04,615,2552.04,619,2546.04,615,2540.04" style="stroke:#181818;stroke-width:1.0;"/></g><!--SRC=[VLXBR-Cs4BxxL-Wer_6UUXAA1RoEaWYGxS2Masw3m61anY4gIwue9xjDzx-NRt94ofTOdFauxncIAIj4QJHlwXgNtU-ZKYnlqH4xdmy4VwZbjmQrUx4cTOVRLrJYwBv2Ft7xG2ZfcbRXYdDR3y2Ch0KgtqYDFVgMujOZpgk6udt6fRsZQeJhyv5PNHc5ywPfzwH67PQyQz8oXqXJQsMOKdJGNkLCh-lH2BtGhaLb5qcYLE_PquS13nHwZUfzSmISo0cA-loEwRAv9gXg3iQ1cZOL7erqBgBVfbEP2OyYug8_ekdqgyJnFm8ZVJ9BeTV0DGKACTi46QGq-kC_Tul-i7ejwSkNhswUxQUKuMUyZ-ZbtbXabLaIL-QaNPeXWD9_iMoOK9KViPQRUDset72yHv025A5d62332XZ1j0j4e1wa3qgpiLyIkNsYEktIbhBvwk-rZ5vGxAV8SA-BR6KbqVJ0ellvooFnK4FoH7_7Oq2EZeZKyQPhINruUeQy4tESfu-oFRReb8h4bgycl-Wi9qvLke1EbLmIg6McJt_7_6CCMDgK692dXAunFH_ndbje2XfQw9BrjzBWi2OjfhYJgUR-kgnzsvoAvczSz-ZllDLYMsGXRg2I8EoZ9HtcNbGTTy9s2lG2qCr2-U4ofS2Asmhs2F9Tqv9_cxf35TVbz37Rzwddv2_Nto7C0NUi0Sz7XaaYTbxqsaXhFObLqckv47JY4UDUr88AV3lWD7ADSCQ11vf02iYgBz7NAkQsxe747UQgxXCxqNMjgs8srUUifOAcvVBbeDCSGXy9Qr71UMdOuODgXtT3QaBVU3_uN2PpnkRDkueWX-WHAAPi4dtI3dMa_1LDbjl5jtIzkyzdtzFrHlgeG2gSD04Zcj6H8npk047HHFuR2z9OqrGOsDReR69EBRl6FxhOBYyu1C_2OAyEG88DguyFPdR9iv70qwVleYKhomJwAbBU6dOWpPP7wBmvdYhSiMoMejX4K9t4MgpjM1Vf06pZehB4fou6te_The7Dq3CTmfGideztrXdZ_bdQx-gUC0_iMQa7vKMituoXwnpR4Y3tB1hOw5apWFCjaHS2NJRqwVdfMMVQiDXDihjc2KpyYmMJAJxqC7T7XI7OvFF6aGLm9PKuA5jE3imffX0mp0xD68VjZoSWMjr2AXQuC6HLbkSJOU9jDBGtGNnwF7K_7N08PVeCm6GUHkgL0UPVaHLv6kJShTRPNwjbCSjtUROCOnxITP7DBo6AxNePPAJBWitT-IhVBfQxOhMxNg_kWy1i-J3Bisi53KBcgyLzdXRfHP0SyRl7x19xiokoz3e8MAURxS9rSah5PTAXJ4hsJEhQSyb6JIovOvSjhYQnJnANc6WaqYJwbvbW5j_JF5yzslLoc-TcfQUqlDTQa2m2m1mRhlM9bKiiwwJICrVMYX7KDN8tBtEbPCHV041CdYvlYpiv2HHpoYvW1rA3LjUiqf2eot-AdktkqwbX4nkRfqFYF3GKQC9_OolCbJKs83v3zW4f3kADl7OhfJ2sTD5Bnb9vShcsEkyQdfRLkhWBa7RfR5D0ka_PhBP1fA27e8zf7-fJf7gFFWr73EurYxXjFaHYho9muW8qYvIDNn9y4lRZQSA9VUMwiDvGzVg0ghCCle68s3jFHxSIsSowpPR9m2CpSF5RhnxLhI-Ccqf0xsbwMQOSGfV56imboLCT_1xPoGJaJ9m03oGEuaNjYtiNE2x2mMDd44i70UVXG2Ju0SYLIhnt1Wy4XRrocm-vXLa_XEU5n73wwk7nuCq4il4_PrHHw6vOYJluD684ayLJSIGw3puB_HXWJI15t5EOeAj8VA0Vuy0MGhEwhCvxbYnuEHuv_wq3qPpTt6JhnQp87j91p3AzlGpOR9cKFmVPYtIpcTtsjqzHJJ_OwmHIsOKEyGjUZqhexFMLj4V47pWXzX8V1dZyNIGqCTR_]--></g></svg>