<?xml version="1.0" encoding="us-ascii" standalone="no"?><svg xmlns="http://www.w3.org/2000/svg" xmlns:xlink="http://www.w3.org/1999/xlink" contentStyleType="text/css" height="113px" preserveAspectRatio="none" style="width:201px;height:113px;background:#FFFFFF;" version="1.1" viewBox="0 0 201 113" width="201px" zoomAndPan="magnify"><defs/><g><!--cluster models--><g id="cluster_models"><path d="M94.5,6 L146.5,6 A3.75,3.75 0 0 1 149,8.5 L156,29.6094 L191.5,29.6094 A2.5,2.5 0 0 1 194,32.1094 L194,103.5 A2.5,2.5 0 0 1 191.5,106 L94.5,106 A2.5,2.5 0 0 1 92,103.5 L92,8.5 A2.5,2.5 0 0 1 94.5,6 " fill="none" style="stroke:#000000;stroke-width:1.5;"/><line style="stroke:#000000;stroke-width:1.5;" x1="92" x2="156" y1="29.6094" y2="29.6094"/><text fill="#000000" font-family="sans-serif" font-size="14" font-weight="bold" lengthAdjust="spacing" textLength="51" x="96" y="22.5332">models</text></g><!--class Game--><g id="elem_Game"><rect codeLine="1" fill="#F1F1F1" height="48" id="Game" rx="2.5" ry="2.5" style="stroke:#181818;stroke-width:0.5;" width="70" x="108" y="42"/><ellipse cx="123" cy="58" fill="#ADD1B2" rx="11" ry="11" style="stroke:#181818;stroke-width:1.0;"/><path d="M125.7656,53.875 Q125.9219,53.6563 126.1094,53.5469 Q126.2969,53.4375 126.5156,53.4375 Q126.8906,53.4375 127.125,53.7031 Q127.3594,53.9531 127.3594,54.5625 L127.3594,56.0156 Q127.3594,56.625 127.125,56.8906 Q126.8906,57.1563 126.5156,57.1563 Q126.1719,57.1563 125.9688,56.9531 Q125.7656,56.7656 125.6563,56.25 Q125.6094,55.8906 125.4219,55.7031 Q125.0938,55.3281 124.4844,55.1094 Q123.875,54.8906 123.25,54.8906 Q122.4844,54.8906 121.8438,55.2188 Q121.2188,55.5469 120.7188,56.2969 Q120.2344,57.0469 120.2344,58.0781 L120.2344,59.1719 Q120.2344,60.4063 121.125,61.2344 Q122.0156,62.0469 123.6094,62.0469 Q124.5469,62.0469 125.2031,61.7969 Q125.5938,61.6406 126.0156,61.2031 Q126.2813,60.9375 126.4219,60.8594 Q126.5781,60.7813 126.7813,60.7813 Q127.1094,60.7813 127.3594,61.0469 Q127.625,61.2969 127.625,61.6406 Q127.625,61.9844 127.2813,62.3906 Q126.7813,62.9688 125.9844,63.2969 Q124.9063,63.75 123.6094,63.75 Q122.0938,63.75 120.8906,63.125 Q119.9063,62.625 119.2188,61.5625 Q118.5313,60.4844 118.5313,59.2031 L118.5313,58.0469 Q118.5313,56.7188 119.1406,55.5781 Q119.7656,54.4219 120.8594,53.8125 Q121.9531,53.1875 123.1875,53.1875 Q123.9219,53.1875 124.5625,53.3594 Q125.2188,53.5156 125.7656,53.875 Z " fill="#000000"/><text fill="#000000" font-family="sans-serif" font-size="14" lengthAdjust="spacing" textLength="38" x="137" y="63.7285">Game</text><line style="stroke:#181818;stroke-width:0.5;" x1="109" x2="177" y1="74" y2="74"/><line style="stroke:#181818;stroke-width:0.5;" x1="109" x2="177" y1="82" y2="82"/></g><!--class Color--><g id="elem_Color"><rect codeLine="2" fill="#F1F1F1" height="48" id="Color" rx="2.5" ry="2.5" style="stroke:#181818;stroke-width:0.5;" width="66" x="7" y="42"/><ellipse cx="22" cy="58" fill="#EB937F" rx="11" ry="11" style="stroke:#181818;stroke-width:1.0;"/><path d="M20.8594,58.7969 L20.8594,61.2969 L25.1875,61.2969 L25.1875,60.375 Q25.1875,59.7656 25.4219,59.5 Q25.6719,59.2344 26.0469,59.2344 Q26.4219,59.2344 26.6563,59.5 Q26.8906,59.7656 26.8906,60.375 L26.8906,63 L18.8906,63 Q18.2656,63 18,62.7656 Q17.75,62.5313 17.75,62.1406 Q17.75,61.7656 18.0156,61.5313 Q18.2813,61.2969 18.8906,61.2969 L19.1563,61.2969 L19.1563,54.6406 L18.8906,54.6406 Q18.2656,54.6406 18,54.4063 Q17.75,54.1719 17.75,53.7813 Q17.75,53.4063 18,53.1719 Q18.2656,52.9375 18.8906,52.9375 L26.5156,52.9375 L26.5156,55.5313 Q26.5156,56.1406 26.2813,56.4063 Q26.0625,56.6563 25.6719,56.6563 Q25.2969,56.6563 25.0625,56.4063 Q24.8281,56.1406 24.8281,55.5313 L24.8281,54.6406 L20.8594,54.6406 L20.8594,57.0938 L22.3438,57.0938 Q22.3438,56.4375 22.4688,56.25 Q22.7344,55.8438 23.2031,55.8438 Q23.5781,55.8438 23.8125,56.1094 Q24.0469,56.3594 24.0469,56.9688 L24.0469,58.9375 Q24.0469,59.4844 23.9219,59.6719 Q23.6563,60.0625 23.2031,60.0625 Q22.7344,60.0625 22.4688,59.6563 Q22.3438,59.4688 22.3438,58.7969 L20.8594,58.7969 Z " fill="#000000"/><text fill="#000000" font-family="sans-serif" font-size="14" lengthAdjust="spacing" textLength="34" x="36" y="63.7285">Color</text><line style="stroke:#181818;stroke-width:0.5;" x1="8" x2="72" y1="74" y2="74"/><line style="stroke:#181818;stroke-width:0.5;" x1="8" x2="72" y1="82" y2="82"/></g><!--SRC=[Iyv9B2vMoCrFISqfrdDFp4tbIiqhpLLmpi_9Bm80]--></g></svg>