<?xml version="1.0" encoding="us-ascii" standalone="no"?><svg xmlns="http://www.w3.org/2000/svg" xmlns:xlink="http://www.w3.org/1999/xlink" contentStyleType="text/css" height="540px" preserveAspectRatio="none" style="width:489px;height:540px;background:#FFFFFF;" version="1.1" viewBox="0 0 489 540" width="489px" zoomAndPan="magnify"><defs/><g><!--cluster persistence--><g id="cluster_persistence"><path d="M8.5,110 L93.5,110 A3.75,3.75 0 0 1 96,112.5 L103,133.6094 L297.5,133.6094 A2.5,2.5 0 0 1 300,136.1094 L300,438.5 A2.5,2.5 0 0 1 297.5,441 L8.5,441 A2.5,2.5 0 0 1 6,438.5 L6,112.5 A2.5,2.5 0 0 1 8.5,110 " fill="none" style="stroke:#000000;stroke-width:1.5;"/><line style="stroke:#000000;stroke-width:1.5;" x1="6" x2="103" y1="133.6094" y2="133.6094"/><text fill="#000000" font-family="sans-serif" font-size="14" font-weight="bold" lengthAdjust="spacing" textLength="84" x="10" y="126.5332">persistence</text></g><!--class SessionDAO--><g id="elem_SessionDAO"><rect codeLine="6" fill="#F1F1F1" height="171.2656" id="SessionDAO" rx="2.5" ry="2.5" style="stroke:#181818;stroke-width:0.5;" width="262" x="22" y="146"/><ellipse cx="108.75" cy="162" fill="#A9DCDF" rx="11" ry="11" style="stroke:#181818;stroke-width:1.0;"/><path d="M110.9375,163.7656 L106.7969,163.7656 L106.375,164.7969 L106.7969,164.7969 Q107.4063,164.7969 107.6719,165.0313 Q107.9375,165.2656 107.9375,165.6563 Q107.9375,166.0313 107.6719,166.2656 Q107.4063,166.5 106.7969,166.5 L104.5,166.5 Q103.8906,166.5 103.6406,166.2656 Q103.375,166.0313 103.375,165.6406 Q103.375,165.2656 103.6563,165.0313 Q103.9219,164.7813 104.5469,164.7969 L107.2188,158.1406 L106.1094,158.1406 Q105.5,158.1406 105.2344,157.9063 Q104.9688,157.6719 104.9688,157.2813 Q104.9688,156.9063 105.2344,156.6719 Q105.5,156.4375 106.1094,156.4375 L109.7813,156.4375 L113.1719,164.7969 Q113.7656,164.7969 113.9531,164.9375 Q114.3438,165.2031 114.3438,165.6563 Q114.3438,166.0313 114.0781,166.2656 Q113.8281,166.5 113.2188,166.5 L110.9219,166.5 Q110.3125,166.5 110.0469,166.2656 Q109.7813,166.0313 109.7813,165.6406 Q109.7813,165.2656 110.0469,165.0313 Q110.3125,164.7969 110.9219,164.7969 L111.3438,164.7969 L110.9375,163.7656 Z M110.2188,162.0625 L108.8594,158.6875 L107.4844,162.0625 L110.2188,162.0625 Z " fill="#000000"/><text fill="#000000" font-family="sans-serif" font-size="14" font-style="italic" lengthAdjust="spacing" textLength="80" x="129.25" y="167.7285">SessionDAO</text><line style="stroke:#181818;stroke-width:0.5;" x1="23" x2="283" y1="178" y2="178"/><line style="stroke:#181818;stroke-width:0.5;" x1="23" x2="283" y1="186" y2="186"/><ellipse cx="33" cy="200.3047" fill="#84BE84" rx="3" ry="3" style="stroke:#038048;stroke-width:1.0;"/><text fill="#000000" font-family="sans-serif" font-size="14" lengthAdjust="spacing" textLength="120" x="42" y="204.5332">associate(Session)</text><polygon fill="#FFFF44" points="33,212.9141,37,216.9141,33,220.9141,29,216.9141" style="stroke:#B38D22;stroke-width:1.0;"/><text fill="#000000" font-family="sans-serif" font-size="14" font-style="italic" lengthAdjust="spacing" textLength="236" x="42" y="222.1426">createGameDAO(Game) : GameDAO</text><ellipse cx="33" cy="235.5234" fill="#84BE84" rx="3" ry="3" style="stroke:#038048;stroke-width:1.0;"/><text fill="#000000" font-family="sans-serif" font-size="14" lengthAdjust="spacing" textLength="40" x="42" y="239.752">save()</text><polygon fill="#FFFF44" points="33,248.1328,37,252.1328,33,256.1328,29,252.1328" style="stroke:#B38D22;stroke-width:1.0;"/><text fill="#000000" font-family="sans-serif" font-size="14" font-style="italic" lengthAdjust="spacing" textLength="123" x="42" y="257.3613">save(name : String)</text><polygon fill="#FFFF44" points="33,265.7422,37,269.7422,33,273.7422,29,269.7422" style="stroke:#B38D22;stroke-width:1.0;"/><text fill="#000000" font-family="sans-serif" font-size="14" lengthAdjust="spacing" textLength="115" x="42" y="274.9707">getName() : String</text><ellipse cx="33" cy="288.3516" fill="#84BE84" rx="3" ry="3" style="stroke:#038048;stroke-width:1.0;"/><text fill="#000000" font-family="sans-serif" font-size="14" lengthAdjust="spacing" textLength="181" x="42" y="292.5801">hasSavedGames() : boolean</text><polygon fill="#FFFF44" points="33,300.9609,37,304.9609,33,308.9609,29,304.9609" style="stroke:#B38D22;stroke-width:1.0;"/><text fill="#000000" font-family="sans-serif" font-size="14" lengthAdjust="spacing" textLength="149" x="42" y="310.1895">setName(name : String)</text></g><!--class GameDAO--><g id="elem_GameDAO"><rect codeLine="16" fill="#F1F1F1" height="48" id="GameDAO" rx="2.5" ry="2.5" style="stroke:#181818;stroke-width:0.5;" width="100" x="142" y="377"/><ellipse cx="157" cy="393" fill="#A9DCDF" rx="11" ry="11" style="stroke:#181818;stroke-width:1.0;"/><path d="M159.1875,394.7656 L155.0469,394.7656 L154.625,395.7969 L155.0469,395.7969 Q155.6563,395.7969 155.9219,396.0313 Q156.1875,396.2656 156.1875,396.6563 Q156.1875,397.0313 155.9219,397.2656 Q155.6563,397.5 155.0469,397.5 L152.75,397.5 Q152.1406,397.5 151.8906,397.2656 Q151.625,397.0313 151.625,396.6406 Q151.625,396.2656 151.9063,396.0313 Q152.1719,395.7813 152.7969,395.7969 L155.4688,389.1406 L154.3594,389.1406 Q153.75,389.1406 153.4844,388.9063 Q153.2188,388.6719 153.2188,388.2813 Q153.2188,387.9063 153.4844,387.6719 Q153.75,387.4375 154.3594,387.4375 L158.0313,387.4375 L161.4219,395.7969 Q162.0156,395.7969 162.2031,395.9375 Q162.5938,396.2031 162.5938,396.6563 Q162.5938,397.0313 162.3281,397.2656 Q162.0781,397.5 161.4688,397.5 L159.1719,397.5 Q158.5625,397.5 158.2969,397.2656 Q158.0313,397.0313 158.0313,396.6406 Q158.0313,396.2656 158.2969,396.0313 Q158.5625,395.7969 159.1719,395.7969 L159.5938,395.7969 L159.1875,394.7656 Z M158.4688,393.0625 L157.1094,389.6875 L155.7344,393.0625 L158.4688,393.0625 Z " fill="#000000"/><text fill="#000000" font-family="sans-serif" font-size="14" font-style="italic" lengthAdjust="spacing" textLength="68" x="171" y="398.7285">GameDAO</text><line style="stroke:#181818;stroke-width:0.5;" x1="143" x2="241" y1="409" y2="409"/><line style="stroke:#181818;stroke-width:0.5;" x1="143" x2="241" y1="417" y2="417"/></g><!--class Repository--><g id="elem_Repository"><rect codeLine="2" fill="#F1F1F1" height="78.8281" id="Repository" rx="2.5" ry="2.5" style="stroke:#181818;stroke-width:0.5;" width="131" x="87.5" y="7"/><ellipse cx="102.5" cy="38.4141" fill="#B4A7E5" rx="11" ry="11" style="stroke:#181818;stroke-width:1.0;"/><path d="M103.4531,35.0547 L103.4531,41.7109 L105.1719,41.7109 Q105.7813,41.7109 106.0469,41.9453 Q106.3125,42.1797 106.3125,42.5703 Q106.3125,42.9453 106.0469,43.1797 Q105.7813,43.4141 105.1719,43.4141 L100.0313,43.4141 Q99.4219,43.4141 99.1563,43.1797 Q98.8906,42.9453 98.8906,42.5547 Q98.8906,42.1797 99.1563,41.9453 Q99.4219,41.7109 100.0313,41.7109 L101.75,41.7109 L101.75,35.0547 L100.0313,35.0547 Q99.4219,35.0547 99.1563,34.8203 Q98.8906,34.5859 98.8906,34.1953 Q98.8906,33.8203 99.1563,33.5859 Q99.4219,33.3516 100.0313,33.3516 L105.1719,33.3516 Q105.7813,33.3516 106.0469,33.5859 Q106.3125,33.8203 106.3125,34.1953 Q106.3125,34.5859 106.0469,34.8203 Q105.7813,35.0547 105.1719,35.0547 L103.4531,35.0547 Z " fill="#000000"/><text fill="#000000" font-family="sans-serif" font-size="14" font-style="italic" lengthAdjust="spacing" textLength="70" x="131" y="26.5332">controllers.</text><text fill="#000000" font-family="sans-serif" font-size="14" font-style="italic" lengthAdjust="spacing" textLength="99" x="116.5" y="44.1426">implementation.</text><text fill="#000000" font-family="sans-serif" font-size="14" font-style="italic" lengthAdjust="spacing" textLength="68" x="132" y="61.752">Repository</text><line style="stroke:#181818;stroke-width:0.5;" x1="88.5" x2="217.5" y1="69.8281" y2="69.8281"/><line style="stroke:#181818;stroke-width:0.5;" x1="88.5" x2="217.5" y1="77.8281" y2="77.8281"/></g><!--class Session--><g id="elem_Session"><rect codeLine="3" fill="#F1F1F1" height="48" id="Session" rx="2.5" ry="2.5" style="stroke:#181818;stroke-width:0.5;" width="131" x="316.5" y="377"/><ellipse cx="331.5" cy="393" fill="#ADD1B2" rx="11" ry="11" style="stroke:#181818;stroke-width:1.0;"/><path d="M334.2656,388.875 Q334.4219,388.6563 334.6094,388.5469 Q334.7969,388.4375 335.0156,388.4375 Q335.3906,388.4375 335.625,388.7031 Q335.8594,388.9531 335.8594,389.5625 L335.8594,391.0156 Q335.8594,391.625 335.625,391.8906 Q335.3906,392.1563 335.0156,392.1563 Q334.6719,392.1563 334.4688,391.9531 Q334.2656,391.7656 334.1563,391.25 Q334.1094,390.8906 333.9219,390.7031 Q333.5938,390.3281 332.9844,390.1094 Q332.375,389.8906 331.75,389.8906 Q330.9844,389.8906 330.3438,390.2188 Q329.7188,390.5469 329.2188,391.2969 Q328.7344,392.0469 328.7344,393.0781 L328.7344,394.1719 Q328.7344,395.4063 329.625,396.2344 Q330.5156,397.0469 332.1094,397.0469 Q333.0469,397.0469 333.7031,396.7969 Q334.0938,396.6406 334.5156,396.2031 Q334.7813,395.9375 334.9219,395.8594 Q335.0781,395.7813 335.2813,395.7813 Q335.6094,395.7813 335.8594,396.0469 Q336.125,396.2969 336.125,396.6406 Q336.125,396.9844 335.7813,397.3906 Q335.2813,397.9688 334.4844,398.2969 Q333.4063,398.75 332.1094,398.75 Q330.5938,398.75 329.3906,398.125 Q328.4063,397.625 327.7188,396.5625 Q327.0313,395.4844 327.0313,394.2031 L327.0313,393.0469 Q327.0313,391.7188 327.6406,390.5781 Q328.2656,389.4219 329.3594,388.8125 Q330.4531,388.1875 331.6875,388.1875 Q332.4219,388.1875 333.0625,388.3594 Q333.7188,388.5156 334.2656,388.875 Z " fill="#000000"/><text fill="#000000" font-family="sans-serif" font-size="14" lengthAdjust="spacing" textLength="99" x="345.5" y="398.7285">models.Session</text><line style="stroke:#181818;stroke-width:0.5;" x1="317.5" x2="446.5" y1="409" y2="409"/><line style="stroke:#181818;stroke-width:0.5;" x1="317.5" x2="446.5" y1="417" y2="417"/></g><!--class Game--><g id="elem_Game"><rect codeLine="4" fill="#F1F1F1" height="48" id="Game" rx="2.5" ry="2.5" style="stroke:#181818;stroke-width:0.5;" width="119" x="306.5" y="485"/><ellipse cx="321.5" cy="501" fill="#ADD1B2" rx="11" ry="11" style="stroke:#181818;stroke-width:1.0;"/><path d="M324.2656,496.875 Q324.4219,496.6563 324.6094,496.5469 Q324.7969,496.4375 325.0156,496.4375 Q325.3906,496.4375 325.625,496.7031 Q325.8594,496.9531 325.8594,497.5625 L325.8594,499.0156 Q325.8594,499.625 325.625,499.8906 Q325.3906,500.1563 325.0156,500.1563 Q324.6719,500.1563 324.4688,499.9531 Q324.2656,499.7656 324.1563,499.25 Q324.1094,498.8906 323.9219,498.7031 Q323.5938,498.3281 322.9844,498.1094 Q322.375,497.8906 321.75,497.8906 Q320.9844,497.8906 320.3438,498.2188 Q319.7188,498.5469 319.2188,499.2969 Q318.7344,500.0469 318.7344,501.0781 L318.7344,502.1719 Q318.7344,503.4063 319.625,504.2344 Q320.5156,505.0469 322.1094,505.0469 Q323.0469,505.0469 323.7031,504.7969 Q324.0938,504.6406 324.5156,504.2031 Q324.7813,503.9375 324.9219,503.8594 Q325.0781,503.7813 325.2813,503.7813 Q325.6094,503.7813 325.8594,504.0469 Q326.125,504.2969 326.125,504.6406 Q326.125,504.9844 325.7813,505.3906 Q325.2813,505.9688 324.4844,506.2969 Q323.4063,506.75 322.1094,506.75 Q320.5938,506.75 319.3906,506.125 Q318.4063,505.625 317.7188,504.5625 Q317.0313,503.4844 317.0313,502.2031 L317.0313,501.0469 Q317.0313,499.7188 317.6406,498.5781 Q318.2656,497.4219 319.3594,496.8125 Q320.4531,496.1875 321.6875,496.1875 Q322.4219,496.1875 323.0625,496.3594 Q323.7188,496.5156 324.2656,496.875 Z " fill="#000000"/><text fill="#000000" font-family="sans-serif" font-size="14" lengthAdjust="spacing" textLength="87" x="335.5" y="506.7285">models.Game</text><line style="stroke:#181818;stroke-width:0.5;" x1="307.5" x2="424.5" y1="517" y2="517"/><line style="stroke:#181818;stroke-width:0.5;" x1="307.5" x2="424.5" y1="525" y2="525"/></g><!--reverse link Repository to SessionDAO--><g id="link_Repository_SessionDAO"><path codeLine="20" d="M153,104.31 C153,121.73 153,125.01 153,145.81 " fill="none" id="Repository-backto-SessionDAO" style="stroke:#181818;stroke-width:1.0;stroke-dasharray:7.0,7.0;"/><polygon fill="none" points="153,86.31,147,104.31,159,104.31,153,86.31" style="stroke:#181818;stroke-width:1.0;"/></g><!--link SessionDAO to GameDAO--><g id="link_SessionDAO_GameDAO"><path codeLine="21" d="M172.73,317.23 C177.83,339.14 181.5503,355.1161 185.2103,370.8461 " fill="none" id="SessionDAO-to-GameDAO" style="stroke:#181818;stroke-width:1.0;"/><polygon fill="#181818" points="186.57,376.69,188.4263,367.0177,185.4369,371.8201,180.6345,368.8306,186.57,376.69" style="stroke:#181818;stroke-width:1.0;"/></g><!--link SessionDAO to Session--><g id="link_SessionDAO_Session"><path codeLine="22" d="M268.84,317.23 C298.79,339.14 323.7768,357.4183 345.2868,373.1483 " fill="none" id="SessionDAO-to-Session" style="stroke:#181818;stroke-width:1.0;"/><polygon fill="#181818" points="350.13,376.69,345.2264,368.1486,346.094,373.7386,340.5041,374.6062,350.13,376.69" style="stroke:#181818;stroke-width:1.0;"/></g><!--link SessionDAO to Game--><g id="link_SessionDAO_Game"><path codeLine="23" d="M284.12,258.26 C350.4,278.63 425.07,314.5 465,377 C482.23,403.97 480.81,421.18 465,449 C456.1,464.66 446.4382,473.621 430.8782,482.521 " fill="none" id="SessionDAO-to-Game" style="stroke:#181818;stroke-width:1.0;stroke-dasharray:7.0,7.0;"/><polygon fill="#181818" points="425.67,485.5,435.4683,484.5037,430.0102,483.0175,431.4963,477.5594,425.67,485.5" style="stroke:#181818;stroke-width:1.0;"/></g><!--link GameDAO to Game--><g id="link_GameDAO_Game"><path codeLine="24" d="M229.76,425 C258.84,442.72 293.7558,463.9887 322.8958,481.7387 " fill="none" id="GameDAO-to-Game" style="stroke:#181818;stroke-width:1.0;"/><polygon fill="#181818" points="328.02,484.86,322.4146,476.7619,323.7498,482.2589,318.2528,483.5942,328.02,484.86" style="stroke:#181818;stroke-width:1.0;"/></g><!--SRC=[VL7DIWCn4BxdAORrieiq3r1440Hl2kxLopGTQo2RB9b1aDftTpPDwbB4NC9yVpEJ-2YKtz4HlDASs4lANu0CdKjHSWg1CjktwASvq4HHK7oA2logE-C2CiD8pCeLyvJs5DXMg2cUSA8rlTITCRXZoUW4pgfPEteMYevQmEF32nmDwBbLFoVdKQYlv5286pYsd1EuJ2fOujNPB_S0MwXrpM7yfFuFRy7ZCkaMHia-7fheGFAiU3zSc1hrWJogQxyqu4BlKWg4iHgv6gzIJ_-kNgVLlKkAYbSVTFTjBQmU1yogs6pkBxjUmRLSmzQUrQOrR7Rp0m00]--></g></svg>