<?xml version="1.0" encoding="us-ascii" standalone="no"?><svg xmlns="http://www.w3.org/2000/svg" xmlns:xlink="http://www.w3.org/1999/xlink" contentStyleType="text/css" height="1784px" preserveAspectRatio="none" style="width:1252px;height:1784px;background:#FFFFFF;" version="1.1" viewBox="0 0 1252 1784" width="1252px" zoomAndPan="magnify"><defs/><g><!--cluster models--><g id="cluster_models"><path d="M8.5,6 L60.5,6 A3.75,3.75 0 0 1 63,8.5 L70,29.6094 L1012.5,29.6094 A2.5,2.5 0 0 1 1015,32.1094 L1015,1574.5 A2.5,2.5 0 0 1 1012.5,1577 L8.5,1577 A2.5,2.5 0 0 1 6,1574.5 L6,8.5 A2.5,2.5 0 0 1 8.5,6 " fill="none" style="stroke:#000000;stroke-width:1.5;"/><line style="stroke:#000000;stroke-width:1.5;" x1="6" x2="70" y1="29.6094" y2="29.6094"/><text fill="#000000" font-family="sans-serif" font-size="14" font-weight="bold" lengthAdjust="spacing" textLength="51" x="10" y="22.5332">models</text></g><!--class Game--><g id="elem_Game"><rect codeLine="2" fill="#F1F1F1" height="206.4844" id="Game" rx="2.5" ry="2.5" style="stroke:#181818;stroke-width:0.5;" width="182" x="405" y="42"/><ellipse cx="472.75" cy="58" fill="#ADD1B2" rx="11" ry="11" style="stroke:#181818;stroke-width:1.0;"/><path d="M475.5156,53.875 Q475.6719,53.6563 475.8594,53.5469 Q476.0469,53.4375 476.2656,53.4375 Q476.6406,53.4375 476.875,53.7031 Q477.1094,53.9531 477.1094,54.5625 L477.1094,56.0156 Q477.1094,56.625 476.875,56.8906 Q476.6406,57.1563 476.2656,57.1563 Q475.9219,57.1563 475.7188,56.9531 Q475.5156,56.7656 475.4063,56.25 Q475.3594,55.8906 475.1719,55.7031 Q474.8438,55.3281 474.2344,55.1094 Q473.625,54.8906 473,54.8906 Q472.2344,54.8906 471.5938,55.2188 Q470.9688,55.5469 470.4688,56.2969 Q469.9844,57.0469 469.9844,58.0781 L469.9844,59.1719 Q469.9844,60.4063 470.875,61.2344 Q471.7656,62.0469 473.3594,62.0469 Q474.2969,62.0469 474.9531,61.7969 Q475.3438,61.6406 475.7656,61.2031 Q476.0313,60.9375 476.1719,60.8594 Q476.3281,60.7813 476.5313,60.7813 Q476.8594,60.7813 477.1094,61.0469 Q477.375,61.2969 477.375,61.6406 Q477.375,61.9844 477.0313,62.3906 Q476.5313,62.9688 475.7344,63.2969 Q474.6563,63.75 473.3594,63.75 Q471.8438,63.75 470.6406,63.125 Q469.6563,62.625 468.9688,61.5625 Q468.2813,60.4844 468.2813,59.2031 L468.2813,58.0469 Q468.2813,56.7188 468.8906,55.5781 Q469.5156,54.4219 470.6094,53.8125 Q471.7031,53.1875 472.9375,53.1875 Q473.6719,53.1875 474.3125,53.3594 Q474.9688,53.5156 475.5156,53.875 Z " fill="#000000"/><text fill="#000000" font-family="sans-serif" font-size="14" lengthAdjust="spacing" textLength="38" x="493.25" y="63.7285">Game</text><line style="stroke:#181818;stroke-width:0.5;" x1="406" x2="586" y1="74" y2="74"/><rect fill="none" height="6" style="stroke:#C82930;stroke-width:1.0;" width="6" x="413" y="85.3047"/><text fill="#000000" font-family="sans-serif" font-size="14" lengthAdjust="spacing" textLength="83" x="425" y="92.5332">board: Board</text><rect fill="none" height="6" style="stroke:#C82930;stroke-width:1.0;" width="6" x="413" y="102.9141"/><text fill="#000000" font-family="sans-serif" font-size="14" lengthAdjust="spacing" textLength="63" x="425" y="110.1426">turn: Turn</text><line style="stroke:#181818;stroke-width:0.5;" x1="406" x2="586" y1="117.2188" y2="117.2188"/><ellipse cx="416" cy="131.5234" fill="#84BE84" rx="3" ry="3" style="stroke:#038048;stroke-width:1.0;"/><text fill="#000000" font-family="sans-serif" font-size="14" lengthAdjust="spacing" textLength="48" x="425" y="135.752">Game()</text><ellipse cx="416" cy="149.1328" fill="#84BE84" rx="3" ry="3" style="stroke:#038048;stroke-width:1.0;"/><text fill="#000000" font-family="sans-serif" font-size="14" lengthAdjust="spacing" textLength="42" x="425" y="153.3613">reset()</text><ellipse cx="416" cy="166.7422" fill="#84BE84" rx="3" ry="3" style="stroke:#038048;stroke-width:1.0;"/><text fill="#000000" font-family="sans-serif" font-size="14" lengthAdjust="spacing" textLength="106" x="425" y="170.9707">getColor(): Color</text><ellipse cx="416" cy="184.3516" fill="#84BE84" rx="3" ry="3" style="stroke:#038048;stroke-width:1.0;"/><text fill="#000000" font-family="sans-serif" font-size="14" lengthAdjust="spacing" textLength="124" x="425" y="188.5801">isWinner(): boolean</text><ellipse cx="416" cy="201.9609" fill="#84BE84" rx="3" ry="3" style="stroke:#038048;stroke-width:1.0;"/><text fill="#000000" font-family="sans-serif" font-size="14" lengthAdjust="spacing" textLength="133" x="425" y="206.1895">isFinished(): boolean</text><ellipse cx="416" cy="219.5703" fill="#84BE84" rx="3" ry="3" style="stroke:#038048;stroke-width:1.0;"/><text fill="#000000" font-family="sans-serif" font-size="14" lengthAdjust="spacing" textLength="156" x="425" y="223.7988">getActivePlayer(): Player</text><ellipse cx="416" cy="237.1797" fill="#84BE84" rx="3" ry="3" style="stroke:#038048;stroke-width:1.0;"/><text fill="#000000" font-family="sans-serif" font-size="14" lengthAdjust="spacing" textLength="98" x="425" y="241.4082">getTurn(): Turn</text></g><!--class Board--><g id="elem_Board"><rect codeLine="3" fill="#F1F1F1" height="382.5781" id="Board" rx="2.5" ry="2.5" style="stroke:#181818;stroke-width:0.5;" width="277" x="266.5" y="876"/><ellipse cx="381.75" cy="892" fill="#ADD1B2" rx="11" ry="11" style="stroke:#181818;stroke-width:1.0;"/><path d="M384.5156,887.875 Q384.6719,887.6563 384.8594,887.5469 Q385.0469,887.4375 385.2656,887.4375 Q385.6406,887.4375 385.875,887.7031 Q386.1094,887.9531 386.1094,888.5625 L386.1094,890.0156 Q386.1094,890.625 385.875,890.8906 Q385.6406,891.1563 385.2656,891.1563 Q384.9219,891.1563 384.7188,890.9531 Q384.5156,890.7656 384.4063,890.25 Q384.3594,889.8906 384.1719,889.7031 Q383.8438,889.3281 383.2344,889.1094 Q382.625,888.8906 382,888.8906 Q381.2344,888.8906 380.5938,889.2188 Q379.9688,889.5469 379.4688,890.2969 Q378.9844,891.0469 378.9844,892.0781 L378.9844,893.1719 Q378.9844,894.4063 379.875,895.2344 Q380.7656,896.0469 382.3594,896.0469 Q383.2969,896.0469 383.9531,895.7969 Q384.3438,895.6406 384.7656,895.2031 Q385.0313,894.9375 385.1719,894.8594 Q385.3281,894.7813 385.5313,894.7813 Q385.8594,894.7813 386.1094,895.0469 Q386.375,895.2969 386.375,895.6406 Q386.375,895.9844 386.0313,896.3906 Q385.5313,896.9688 384.7344,897.2969 Q383.6563,897.75 382.3594,897.75 Q380.8438,897.75 379.6406,897.125 Q378.6563,896.625 377.9688,895.5625 Q377.2813,894.4844 377.2813,893.2031 L377.2813,892.0469 Q377.2813,890.7188 377.8906,889.5781 Q378.5156,888.4219 379.6094,887.8125 Q380.7031,887.1875 381.9375,887.1875 Q382.6719,887.1875 383.3125,887.3594 Q383.9688,887.5156 384.5156,887.875 Z " fill="#000000"/><text fill="#000000" font-family="sans-serif" font-size="14" lengthAdjust="spacing" textLength="38" x="402.25" y="897.7285">Board</text><line style="stroke:#181818;stroke-width:0.5;" x1="267.5" x2="542.5" y1="908" y2="908"/><rect fill="none" height="6" style="stroke:#C82930;stroke-width:1.0;" width="6" x="274.5" y="919.3047"/><text fill="#000000" font-family="sans-serif" font-size="14" lengthAdjust="spacing" textLength="96" x="286.5" y="926.5332">colors[][]: Color</text><rect fill="none" height="6" style="stroke:#C82930;stroke-width:1.0;" width="6" x="274.5" y="936.9141"/><text fill="#000000" font-family="sans-serif" font-size="14" lengthAdjust="spacing" textLength="131" x="286.5" y="944.1426">lastDrop: Coordinate</text><line style="stroke:#181818;stroke-width:0.5;" x1="267.5" x2="542.5" y1="951.2188" y2="951.2188"/><ellipse cx="277.5" cy="965.5234" fill="#84BE84" rx="3" ry="3" style="stroke:#038048;stroke-width:1.0;"/><text fill="#000000" font-family="sans-serif" font-size="14" lengthAdjust="spacing" textLength="48" x="286.5" y="969.752">Board()</text><ellipse cx="277.5" cy="983.1328" fill="#84BE84" rx="3" ry="3" style="stroke:#038048;stroke-width:1.0;"/><text fill="#000000" font-family="sans-serif" font-size="14" lengthAdjust="spacing" textLength="42" x="286.5" y="987.3613">reset()</text><ellipse cx="277.5" cy="1000.7422" fill="#84BE84" rx="3" ry="3" style="stroke:#038048;stroke-width:1.0;"/><text fill="#000000" font-family="sans-serif" font-size="14" lengthAdjust="spacing" textLength="185" x="286.5" y="1004.9707">dropToken(int column, Color)</text><ellipse cx="277.5" cy="1018.3516" fill="#84BE84" rx="3" ry="3" style="stroke:#038048;stroke-width:1.0;"/><text fill="#000000" font-family="sans-serif" font-size="14" lengthAdjust="spacing" textLength="203" x="286.5" y="1022.5801">isComplete(int column): boolean</text><ellipse cx="277.5" cy="1035.9609" fill="#84BE84" rx="3" ry="3" style="stroke:#038048;stroke-width:1.0;"/><text fill="#000000" font-family="sans-serif" font-size="14" lengthAdjust="spacing" textLength="139" x="286.5" y="1040.1895">isComplete(): boolean</text><ellipse cx="277.5" cy="1053.5703" fill="#84BE84" rx="3" ry="3" style="stroke:#038048;stroke-width:1.0;"/><text fill="#000000" font-family="sans-serif" font-size="14" lengthAdjust="spacing" textLength="133" x="286.5" y="1057.7988">isFinished(): boolean</text><ellipse cx="277.5" cy="1071.1797" fill="#84BE84" rx="3" ry="3" style="stroke:#038048;stroke-width:1.0;"/><text fill="#000000" font-family="sans-serif" font-size="14" lengthAdjust="spacing" textLength="124" x="286.5" y="1075.4082">isWinner(): boolean</text><ellipse cx="277.5" cy="1088.7891" fill="#84BE84" rx="3" ry="3" style="stroke:#038048;stroke-width:1.0;"/><text fill="#000000" font-family="sans-serif" font-size="14" lengthAdjust="spacing" textLength="162" x="286.5" y="1093.0176">isConnect4(line): boolean</text><ellipse cx="277.5" cy="1106.3984" fill="#84BE84" rx="3" ry="3" style="stroke:#038048;stroke-width:1.0;"/><text fill="#000000" font-family="sans-serif" font-size="14" lengthAdjust="spacing" textLength="251" x="286.5" y="1110.627">isOccupied(Coordinate, Color): boolean</text><ellipse cx="277.5" cy="1124.0078" fill="#84BE84" rx="3" ry="3" style="stroke:#038048;stroke-width:1.0;"/><text fill="#000000" font-family="sans-serif" font-size="14" lengthAdjust="spacing" textLength="188" x="286.5" y="1128.2363">isEmpty(Coordinate): boolean</text><ellipse cx="277.5" cy="1141.6172" fill="#84BE84" rx="3" ry="3" style="stroke:#038048;stroke-width:1.0;"/><text fill="#000000" font-family="sans-serif" font-size="14" lengthAdjust="spacing" textLength="186" x="286.5" y="1145.8457">isEmpty(column: int): boolean</text><ellipse cx="277.5" cy="1159.2266" fill="#84BE84" rx="3" ry="3" style="stroke:#038048;stroke-width:1.0;"/><text fill="#000000" font-family="sans-serif" font-size="14" lengthAdjust="spacing" textLength="176" x="286.5" y="1163.4551">getColor(Coordinate): Color</text><ellipse cx="277.5" cy="1176.8359" fill="#84BE84" rx="3" ry="3" style="stroke:#038048;stroke-width:1.0;"/><text fill="#000000" font-family="sans-serif" font-size="14" lengthAdjust="spacing" textLength="164" x="286.5" y="1181.0645">getLastDropColor(): Color</text><rect fill="#F24D5C" height="6" style="stroke:#C82930;stroke-width:1.0;" width="6" x="274.5" y="1191.4453"/><text fill="#000000" font-family="sans-serif" font-size="14" lengthAdjust="spacing" textLength="175" x="286.5" y="1198.6738">setColor(Coordinate, Color)</text><ellipse cx="277.5" cy="1212.0547" fill="#84BE84" rx="3" ry="3" style="stroke:#038048;stroke-width:1.0;"/><text fill="#000000" font-family="sans-serif" font-size="14" lengthAdjust="spacing" textLength="195" x="286.5" y="1216.2832">getUncompletedColumn(): int[ ]</text><ellipse cx="277.5" cy="1229.6641" fill="#84BE84" rx="3" ry="3" style="stroke:#038048;stroke-width:1.0;"/><text fill="#000000" font-family="sans-serif" font-size="14" lengthAdjust="spacing" textLength="150" x="286.5" y="1233.8926">removeTop(column: int)</text><rect fill="#F24D5C" height="6" style="stroke:#C82930;stroke-width:1.0;" width="6" x="274.5" y="1244.2734"/><text fill="#000000" font-family="sans-serif" font-size="14" lengthAdjust="spacing" textLength="201" x="286.5" y="1251.502">getTop(column: int): Coordinate</text></g><!--class Turn--><g id="elem_Turn"><rect codeLine="4" fill="#F1F1F1" height="259.3125" id="Turn" rx="2.5" ry="2.5" style="stroke:#181818;stroke-width:0.5;" width="201" x="478.5" y="308"/><ellipse cx="559.75" cy="324" fill="#ADD1B2" rx="11" ry="11" style="stroke:#181818;stroke-width:1.0;"/><path d="M562.5156,319.875 Q562.6719,319.6563 562.8594,319.5469 Q563.0469,319.4375 563.2656,319.4375 Q563.6406,319.4375 563.875,319.7031 Q564.1094,319.9531 564.1094,320.5625 L564.1094,322.0156 Q564.1094,322.625 563.875,322.8906 Q563.6406,323.1563 563.2656,323.1563 Q562.9219,323.1563 562.7188,322.9531 Q562.5156,322.7656 562.4063,322.25 Q562.3594,321.8906 562.1719,321.7031 Q561.8438,321.3281 561.2344,321.1094 Q560.625,320.8906 560,320.8906 Q559.2344,320.8906 558.5938,321.2188 Q557.9688,321.5469 557.4688,322.2969 Q556.9844,323.0469 556.9844,324.0781 L556.9844,325.1719 Q556.9844,326.4063 557.875,327.2344 Q558.7656,328.0469 560.3594,328.0469 Q561.2969,328.0469 561.9531,327.7969 Q562.3438,327.6406 562.7656,327.2031 Q563.0313,326.9375 563.1719,326.8594 Q563.3281,326.7813 563.5313,326.7813 Q563.8594,326.7813 564.1094,327.0469 Q564.375,327.2969 564.375,327.6406 Q564.375,327.9844 564.0313,328.3906 Q563.5313,328.9688 562.7344,329.2969 Q561.6563,329.75 560.3594,329.75 Q558.8438,329.75 557.6406,329.125 Q556.6563,328.625 555.9688,327.5625 Q555.2813,326.4844 555.2813,325.2031 L555.2813,324.0469 Q555.2813,322.7188 555.8906,321.5781 Q556.5156,320.4219 557.6094,319.8125 Q558.7031,319.1875 559.9375,319.1875 Q560.6719,319.1875 561.3125,319.3594 Q561.9688,319.5156 562.5156,319.875 Z " fill="#000000"/><text fill="#000000" font-family="sans-serif" font-size="14" lengthAdjust="spacing" textLength="30" x="580.25" y="329.7285">Turn</text><line style="stroke:#181818;stroke-width:0.5;" x1="479.5" x2="678.5" y1="340" y2="340"/><ellipse cx="489.5" cy="354.3047" fill="none" rx="3" ry="3" style="stroke:#038048;stroke-width:1.0;"/><text fill="#000000" font-family="sans-serif" font-size="14" lengthAdjust="spacing" text-decoration="underline" textLength="151" x="498.5" y="358.5332">NUMBER_PLAYERS: int</text><rect fill="none" height="6" style="stroke:#C82930;stroke-width:1.0;" width="6" x="486.5" y="368.9141"/><text fill="#000000" font-family="sans-serif" font-size="14" lengthAdjust="spacing" textLength="94" x="498.5" y="376.1426">players: Player</text><rect fill="none" height="6" style="stroke:#C82930;stroke-width:1.0;" width="6" x="486.5" y="386.5234"/><text fill="#000000" font-family="sans-serif" font-size="14" lengthAdjust="spacing" textLength="100" x="498.5" y="393.752">activePlayer: int</text><rect fill="none" height="6" style="stroke:#C82930;stroke-width:1.0;" width="6" x="486.5" y="404.1328"/><text fill="#000000" font-family="sans-serif" font-size="14" lengthAdjust="spacing" textLength="83" x="498.5" y="411.3613">board: Board</text><line style="stroke:#181818;stroke-width:0.5;" x1="479.5" x2="678.5" y1="418.4375" y2="418.4375"/><rect fill="#F24D5C" height="6" style="stroke:#C82930;stroke-width:1.0;" width="6" x="486.5" y="429.7422"/><text fill="#000000" font-family="sans-serif" font-size="14" lengthAdjust="spacing" textLength="78" x="498.5" y="436.9707">Turn(Board)</text><ellipse cx="489.5" cy="450.3516" fill="#84BE84" rx="3" ry="3" style="stroke:#038048;stroke-width:1.0;"/><text fill="#000000" font-family="sans-serif" font-size="14" lengthAdjust="spacing" textLength="136" x="498.5" y="454.5801">reset(int userPlayers)</text><ellipse cx="489.5" cy="467.9609" fill="#84BE84" rx="3" ry="3" style="stroke:#038048;stroke-width:1.0;"/><text fill="#000000" font-family="sans-serif" font-size="14" lengthAdjust="spacing" textLength="36" x="498.5" y="472.1895">next()</text><ellipse cx="489.5" cy="485.5703" fill="#84BE84" rx="3" ry="3" style="stroke:#038048;stroke-width:1.0;"/><text fill="#000000" font-family="sans-serif" font-size="14" lengthAdjust="spacing" textLength="156" x="498.5" y="489.7988">getActivePlayer(): Player</text><ellipse cx="489.5" cy="503.1797" fill="#84BE84" rx="3" ry="3" style="stroke:#038048;stroke-width:1.0;"/><text fill="#000000" font-family="sans-serif" font-size="14" lengthAdjust="spacing" textLength="98" x="498.5" y="507.4082">setUserPlayer()</text><ellipse cx="489.5" cy="520.7891" fill="#84BE84" rx="3" ry="3" style="stroke:#038048;stroke-width:1.0;"/><text fill="#000000" font-family="sans-serif" font-size="14" lengthAdjust="spacing" textLength="175" x="498.5" y="525.0176">setRandomMachinePlayer()</text><ellipse cx="489.5" cy="538.3984" fill="#84BE84" rx="3" ry="3" style="stroke:#038048;stroke-width:1.0;"/><text fill="#000000" font-family="sans-serif" font-size="14" lengthAdjust="spacing" textLength="116" x="498.5" y="542.627">setMinMaxPlayer()</text><rect fill="#F24D5C" height="6" style="stroke:#C82930;stroke-width:1.0;" width="6" x="486.5" y="553.0078"/><text fill="#000000" font-family="sans-serif" font-size="14" lengthAdjust="spacing" textLength="114" x="498.5" y="560.2363">addPlayer(Player)</text></g><!--class Line--><g id="elem_Line"><rect codeLine="5" fill="#F1F1F1" height="188.875" id="Line" rx="2.5" ry="2.5" style="stroke:#181818;stroke-width:0.5;" width="223" x="610.5" y="1345.5"/><ellipse cx="704.25" cy="1361.5" fill="#ADD1B2" rx="11" ry="11" style="stroke:#181818;stroke-width:1.0;"/><path d="M707.0156,1357.375 Q707.1719,1357.1563 707.3594,1357.0469 Q707.5469,1356.9375 707.7656,1356.9375 Q708.1406,1356.9375 708.375,1357.2031 Q708.6094,1357.4531 708.6094,1358.0625 L708.6094,1359.5156 Q708.6094,1360.125 708.375,1360.3906 Q708.1406,1360.6563 707.7656,1360.6563 Q707.4219,1360.6563 707.2188,1360.4531 Q707.0156,1360.2656 706.9063,1359.75 Q706.8594,1359.3906 706.6719,1359.2031 Q706.3438,1358.8281 705.7344,1358.6094 Q705.125,1358.3906 704.5,1358.3906 Q703.7344,1358.3906 703.0938,1358.7188 Q702.4688,1359.0469 701.9688,1359.7969 Q701.4844,1360.5469 701.4844,1361.5781 L701.4844,1362.6719 Q701.4844,1363.9063 702.375,1364.7344 Q703.2656,1365.5469 704.8594,1365.5469 Q705.7969,1365.5469 706.4531,1365.2969 Q706.8438,1365.1406 707.2656,1364.7031 Q707.5313,1364.4375 707.6719,1364.3594 Q707.8281,1364.2813 708.0313,1364.2813 Q708.3594,1364.2813 708.6094,1364.5469 Q708.875,1364.7969 708.875,1365.1406 Q708.875,1365.4844 708.5313,1365.8906 Q708.0313,1366.4688 707.2344,1366.7969 Q706.1563,1367.25 704.8594,1367.25 Q703.3438,1367.25 702.1406,1366.625 Q701.1563,1366.125 700.4688,1365.0625 Q699.7813,1363.9844 699.7813,1362.7031 L699.7813,1361.5469 Q699.7813,1360.2188 700.3906,1359.0781 Q701.0156,1357.9219 702.1094,1357.3125 Q703.2031,1356.6875 704.4375,1356.6875 Q705.1719,1356.6875 705.8125,1356.8594 Q706.4688,1357.0156 707.0156,1357.375 Z " fill="#000000"/><text fill="#000000" font-family="sans-serif" font-size="14" lengthAdjust="spacing" textLength="27" x="724.75" y="1367.2285">Line</text><line style="stroke:#181818;stroke-width:0.5;" x1="611.5" x2="832.5" y1="1377.5" y2="1377.5"/><ellipse cx="621.5" cy="1391.8047" fill="none" rx="3" ry="3" style="stroke:#038048;stroke-width:1.0;"/><text fill="#000000" font-family="sans-serif" font-size="14" lengthAdjust="spacing" text-decoration="underline" textLength="78" x="630.5" y="1396.0332">LENGTH: int</text><rect fill="none" height="6" style="stroke:#C82930;stroke-width:1.0;" width="6" x="618.5" y="1406.4141"/><text fill="#000000" font-family="sans-serif" font-size="14" lengthAdjust="spacing" textLength="113" x="630.5" y="1413.6426">origin: Coordinate</text><rect fill="none" height="6" style="stroke:#C82930;stroke-width:1.0;" width="6" x="618.5" y="1424.0234"/><text fill="#000000" font-family="sans-serif" font-size="14" lengthAdjust="spacing" textLength="164" x="630.5" y="1431.252">coordinates: Coordinate[ ]</text><rect fill="none" height="6" style="stroke:#C82930;stroke-width:1.0;" width="6" x="618.5" y="1441.6328"/><text fill="#000000" font-family="sans-serif" font-size="14" lengthAdjust="spacing" textLength="174" x="630.5" y="1448.8613">oppositeDirection: Direction</text><line style="stroke:#181818;stroke-width:0.5;" x1="611.5" x2="832.5" y1="1455.9375" y2="1455.9375"/><ellipse cx="621.5" cy="1470.2422" fill="#84BE84" rx="3" ry="3" style="stroke:#038048;stroke-width:1.0;"/><text fill="#000000" font-family="sans-serif" font-size="14" lengthAdjust="spacing" textLength="182" x="630.5" y="1474.4707">Line(coordinate: Coordinate)</text><ellipse cx="621.5" cy="1487.8516" fill="#84BE84" rx="3" ry="3" style="stroke:#038048;stroke-width:1.0;"/><text fill="#000000" font-family="sans-serif" font-size="14" lengthAdjust="spacing" textLength="147" x="630.5" y="1492.0801">set(direction: Direction)</text><ellipse cx="621.5" cy="1505.4609" fill="#84BE84" rx="3" ry="3" style="stroke:#038048;stroke-width:1.0;"/><text fill="#000000" font-family="sans-serif" font-size="14" lengthAdjust="spacing" textLength="93" x="630.5" y="1509.6895">shiftOpposite()</text><ellipse cx="621.5" cy="1523.0703" fill="#84BE84" rx="3" ry="3" style="stroke:#038048;stroke-width:1.0;"/><text fill="#000000" font-family="sans-serif" font-size="14" lengthAdjust="spacing" textLength="197" x="630.5" y="1527.2988">getCoordinates(): Coordinate[ ]</text></g><!--class Player--><g id="elem_Player"><rect codeLine="6" fill="#F1F1F1" height="188.875" id="Player" rx="2.5" ry="2.5" style="stroke:#181818;stroke-width:0.5;" width="241" x="541.5" y="627"/><ellipse cx="637.75" cy="643" fill="#A9DCDF" rx="11" ry="11" style="stroke:#181818;stroke-width:1.0;"/><path d="M639.9375,644.7656 L635.7969,644.7656 L635.375,645.7969 L635.7969,645.7969 Q636.4063,645.7969 636.6719,646.0313 Q636.9375,646.2656 636.9375,646.6563 Q636.9375,647.0313 636.6719,647.2656 Q636.4063,647.5 635.7969,647.5 L633.5,647.5 Q632.8906,647.5 632.6406,647.2656 Q632.375,647.0313 632.375,646.6406 Q632.375,646.2656 632.6563,646.0313 Q632.9219,645.7813 633.5469,645.7969 L636.2188,639.1406 L635.1094,639.1406 Q634.5,639.1406 634.2344,638.9063 Q633.9688,638.6719 633.9688,638.2813 Q633.9688,637.9063 634.2344,637.6719 Q634.5,637.4375 635.1094,637.4375 L638.7813,637.4375 L642.1719,645.7969 Q642.7656,645.7969 642.9531,645.9375 Q643.3438,646.2031 643.3438,646.6563 Q643.3438,647.0313 643.0781,647.2656 Q642.8281,647.5 642.2188,647.5 L639.9219,647.5 Q639.3125,647.5 639.0469,647.2656 Q638.7813,647.0313 638.7813,646.6406 Q638.7813,646.2656 639.0469,646.0313 Q639.3125,645.7969 639.9219,645.7969 L640.3438,645.7969 L639.9375,644.7656 Z M639.2188,643.0625 L637.8594,639.6875 L636.4844,643.0625 L639.2188,643.0625 Z " fill="#000000"/><text fill="#000000" font-family="sans-serif" font-size="14" font-style="italic" lengthAdjust="spacing" textLength="40" x="658.25" y="648.7285">Player</text><line style="stroke:#181818;stroke-width:0.5;" x1="542.5" x2="781.5" y1="659" y2="659"/><rect fill="none" height="6" style="stroke:#C82930;stroke-width:1.0;" width="6" x="549.5" y="670.3047"/><text fill="#000000" font-family="sans-serif" font-size="14" lengthAdjust="spacing" textLength="73" x="561.5" y="677.5332">color: Color</text><rect fill="none" height="6" style="stroke:#C82930;stroke-width:1.0;" width="6" x="549.5" y="687.9141"/><text fill="#000000" font-family="sans-serif" font-size="14" lengthAdjust="spacing" textLength="83" x="561.5" y="695.1426">board: Board</text><line style="stroke:#181818;stroke-width:0.5;" x1="542.5" x2="781.5" y1="702.2188" y2="702.2188"/><rect fill="#F24D5C" height="6" style="stroke:#C82930;stroke-width:1.0;" width="6" x="549.5" y="713.5234"/><text fill="#000000" font-family="sans-serif" font-size="14" lengthAdjust="spacing" textLength="130" x="561.5" y="720.752">Player(Color, Board)</text><ellipse cx="552.5" cy="734.1328" fill="#84BE84" rx="3" ry="3" style="stroke:#038048;stroke-width:1.0;"/><text fill="#000000" font-family="sans-serif" font-size="14" lengthAdjust="spacing" textLength="106" x="561.5" y="738.3613">getColor(): Color</text><ellipse cx="552.5" cy="751.7422" fill="#84BE84" rx="3" ry="3" style="stroke:#038048;stroke-width:1.0;"/><text fill="#000000" font-family="sans-serif" font-size="14" lengthAdjust="spacing" textLength="114" x="561.5" y="755.9707">getBoard(): Board</text><ellipse cx="552.5" cy="769.3516" fill="#84BE84" rx="3" ry="3" style="stroke:#038048;stroke-width:1.0;"/><text fill="#000000" font-family="sans-serif" font-size="14" lengthAdjust="spacing" textLength="215" x="561.5" y="773.5801">isCompleted(column: int): boolean</text><ellipse cx="552.5" cy="786.9609" fill="#84BE84" rx="3" ry="3" style="stroke:#038048;stroke-width:1.0;"/><text fill="#000000" font-family="sans-serif" font-size="14" lengthAdjust="spacing" textLength="147" x="561.5" y="791.1895">dropToken(column: int)</text><ellipse cx="552.5" cy="804.5703" fill="#84BE84" rx="3" ry="3" style="stroke:#038048;stroke-width:1.0;"/><text fill="#000000" font-family="sans-serif" font-size="14" font-style="italic" lengthAdjust="spacing" textLength="131" x="561.5" y="808.7988">accept(PlayerVisitor)</text></g><!--class UserPlayer--><g id="elem_UserPlayer"><rect codeLine="7" fill="#F1F1F1" height="83.2188" id="UserPlayer" rx="2.5" ry="2.5" style="stroke:#181818;stroke-width:0.5;" width="185" x="578.5" y="1026"/><ellipse cx="632.25" cy="1042" fill="#ADD1B2" rx="11" ry="11" style="stroke:#181818;stroke-width:1.0;"/><path d="M635.0156,1037.875 Q635.1719,1037.6563 635.3594,1037.5469 Q635.5469,1037.4375 635.7656,1037.4375 Q636.1406,1037.4375 636.375,1037.7031 Q636.6094,1037.9531 636.6094,1038.5625 L636.6094,1040.0156 Q636.6094,1040.625 636.375,1040.8906 Q636.1406,1041.1563 635.7656,1041.1563 Q635.4219,1041.1563 635.2188,1040.9531 Q635.0156,1040.7656 634.9063,1040.25 Q634.8594,1039.8906 634.6719,1039.7031 Q634.3438,1039.3281 633.7344,1039.1094 Q633.125,1038.8906 632.5,1038.8906 Q631.7344,1038.8906 631.0938,1039.2188 Q630.4688,1039.5469 629.9688,1040.2969 Q629.4844,1041.0469 629.4844,1042.0781 L629.4844,1043.1719 Q629.4844,1044.4063 630.375,1045.2344 Q631.2656,1046.0469 632.8594,1046.0469 Q633.7969,1046.0469 634.4531,1045.7969 Q634.8438,1045.6406 635.2656,1045.2031 Q635.5313,1044.9375 635.6719,1044.8594 Q635.8281,1044.7813 636.0313,1044.7813 Q636.3594,1044.7813 636.6094,1045.0469 Q636.875,1045.2969 636.875,1045.6406 Q636.875,1045.9844 636.5313,1046.3906 Q636.0313,1046.9688 635.2344,1047.2969 Q634.1563,1047.75 632.8594,1047.75 Q631.3438,1047.75 630.1406,1047.125 Q629.1563,1046.625 628.4688,1045.5625 Q627.7813,1044.4844 627.7813,1043.2031 L627.7813,1042.0469 Q627.7813,1040.7188 628.3906,1039.5781 Q629.0156,1038.4219 630.1094,1037.8125 Q631.2031,1037.1875 632.4375,1037.1875 Q633.1719,1037.1875 633.8125,1037.3594 Q634.4688,1037.5156 635.0156,1037.875 Z " fill="#000000"/><text fill="#000000" font-family="sans-serif" font-size="14" lengthAdjust="spacing" textLength="69" x="652.75" y="1047.7285">UserPlayer</text><line style="stroke:#181818;stroke-width:0.5;" x1="579.5" x2="762.5" y1="1058" y2="1058"/><line style="stroke:#181818;stroke-width:0.5;" x1="579.5" x2="762.5" y1="1066" y2="1066"/><ellipse cx="589.5" cy="1080.3047" fill="#84BE84" rx="3" ry="3" style="stroke:#038048;stroke-width:1.0;"/><text fill="#000000" font-family="sans-serif" font-size="14" lengthAdjust="spacing" textLength="159" x="598.5" y="1084.5332">UserPlayer(Color, Board)</text><ellipse cx="589.5" cy="1097.9141" fill="#84BE84" rx="3" ry="3" style="stroke:#038048;stroke-width:1.0;"/><text fill="#000000" font-family="sans-serif" font-size="14" lengthAdjust="spacing" textLength="109" x="598.5" y="1102.1426">accept(Turnview)</text></g><!--class MachinePlayer--><g id="elem_MachinePlayer"><rect codeLine="8" fill="#F1F1F1" height="100.8281" id="MachinePlayer" rx="2.5" ry="2.5" style="stroke:#181818;stroke-width:0.5;" width="209" x="22.5" y="1017"/><ellipse cx="75.75" cy="1033" fill="#A9DCDF" rx="11" ry="11" style="stroke:#181818;stroke-width:1.0;"/><path d="M77.9375,1034.7656 L73.7969,1034.7656 L73.375,1035.7969 L73.7969,1035.7969 Q74.4063,1035.7969 74.6719,1036.0313 Q74.9375,1036.2656 74.9375,1036.6563 Q74.9375,1037.0313 74.6719,1037.2656 Q74.4063,1037.5 73.7969,1037.5 L71.5,1037.5 Q70.8906,1037.5 70.6406,1037.2656 Q70.375,1037.0313 70.375,1036.6406 Q70.375,1036.2656 70.6563,1036.0313 Q70.9219,1035.7813 71.5469,1035.7969 L74.2188,1029.1406 L73.1094,1029.1406 Q72.5,1029.1406 72.2344,1028.9063 Q71.9688,1028.6719 71.9688,1028.2813 Q71.9688,1027.9063 72.2344,1027.6719 Q72.5,1027.4375 73.1094,1027.4375 L76.7813,1027.4375 L80.1719,1035.7969 Q80.7656,1035.7969 80.9531,1035.9375 Q81.3438,1036.2031 81.3438,1036.6563 Q81.3438,1037.0313 81.0781,1037.2656 Q80.8281,1037.5 80.2188,1037.5 L77.9219,1037.5 Q77.3125,1037.5 77.0469,1037.2656 Q76.7813,1037.0313 76.7813,1036.6406 Q76.7813,1036.2656 77.0469,1036.0313 Q77.3125,1035.7969 77.9219,1035.7969 L78.3438,1035.7969 L77.9375,1034.7656 Z M77.2188,1033.0625 L75.8594,1029.6875 L74.4844,1033.0625 L77.2188,1033.0625 Z " fill="#000000"/><text fill="#000000" font-family="sans-serif" font-size="14" font-style="italic" lengthAdjust="spacing" textLength="94" x="96.25" y="1038.7285">MachinePlayer</text><line style="stroke:#181818;stroke-width:0.5;" x1="23.5" x2="230.5" y1="1049" y2="1049"/><line style="stroke:#181818;stroke-width:0.5;" x1="23.5" x2="230.5" y1="1057" y2="1057"/><ellipse cx="33.5" cy="1071.3047" fill="#84BE84" rx="3" ry="3" style="stroke:#038048;stroke-width:1.0;"/><text fill="#000000" font-family="sans-serif" font-size="14" lengthAdjust="spacing" textLength="183" x="42.5" y="1075.5332">MachinePlayer(Color, Board)</text><ellipse cx="33.5" cy="1088.9141" fill="#84BE84" rx="3" ry="3" style="stroke:#038048;stroke-width:1.0;"/><text fill="#000000" font-family="sans-serif" font-size="14" font-style="italic" lengthAdjust="spacing" textLength="111" x="42.5" y="1093.1426">accept(TurnView)</text><ellipse cx="33.5" cy="1106.5234" fill="#84BE84" rx="3" ry="3" style="stroke:#038048;stroke-width:1.0;"/><text fill="#000000" font-family="sans-serif" font-size="14" font-style="italic" lengthAdjust="spacing" textLength="101" x="42.5" y="1110.752">getColumn(): int</text></g><!--class RandomMachinePlayer--><g id="elem_RandomMachinePlayer"><rect codeLine="9" fill="#F1F1F1" height="100.8281" id="RandomMachinePlayer" rx="2.5" ry="2.5" style="stroke:#181818;stroke-width:0.5;" width="262" x="313" y="1389.5"/><ellipse cx="366.75" cy="1405.5" fill="#ADD1B2" rx="11" ry="11" style="stroke:#181818;stroke-width:1.0;"/><path d="M369.5156,1401.375 Q369.6719,1401.1563 369.8594,1401.0469 Q370.0469,1400.9375 370.2656,1400.9375 Q370.6406,1400.9375 370.875,1401.2031 Q371.1094,1401.4531 371.1094,1402.0625 L371.1094,1403.5156 Q371.1094,1404.125 370.875,1404.3906 Q370.6406,1404.6563 370.2656,1404.6563 Q369.9219,1404.6563 369.7188,1404.4531 Q369.5156,1404.2656 369.4063,1403.75 Q369.3594,1403.3906 369.1719,1403.2031 Q368.8438,1402.8281 368.2344,1402.6094 Q367.625,1402.3906 367,1402.3906 Q366.2344,1402.3906 365.5938,1402.7188 Q364.9688,1403.0469 364.4688,1403.7969 Q363.9844,1404.5469 363.9844,1405.5781 L363.9844,1406.6719 Q363.9844,1407.9063 364.875,1408.7344 Q365.7656,1409.5469 367.3594,1409.5469 Q368.2969,1409.5469 368.9531,1409.2969 Q369.3438,1409.1406 369.7656,1408.7031 Q370.0313,1408.4375 370.1719,1408.3594 Q370.3281,1408.2813 370.5313,1408.2813 Q370.8594,1408.2813 371.1094,1408.5469 Q371.375,1408.7969 371.375,1409.1406 Q371.375,1409.4844 371.0313,1409.8906 Q370.5313,1410.4688 369.7344,1410.7969 Q368.6563,1411.25 367.3594,1411.25 Q365.8438,1411.25 364.6406,1410.625 Q363.6563,1410.125 362.9688,1409.0625 Q362.2813,1407.9844 362.2813,1406.7031 L362.2813,1405.5469 Q362.2813,1404.2188 362.8906,1403.0781 Q363.5156,1401.9219 364.6094,1401.3125 Q365.7031,1400.6875 366.9375,1400.6875 Q367.6719,1400.6875 368.3125,1400.8594 Q368.9688,1401.0156 369.5156,1401.375 Z " fill="#000000"/><text fill="#000000" font-family="sans-serif" font-size="14" lengthAdjust="spacing" textLength="146" x="387.25" y="1411.2285">RandomMachinePlayer</text><line style="stroke:#181818;stroke-width:0.5;" x1="314" x2="574" y1="1421.5" y2="1421.5"/><line style="stroke:#181818;stroke-width:0.5;" x1="314" x2="574" y1="1429.5" y2="1429.5"/><ellipse cx="324" cy="1443.8047" fill="#84BE84" rx="3" ry="3" style="stroke:#038048;stroke-width:1.0;"/><text fill="#000000" font-family="sans-serif" font-size="14" lengthAdjust="spacing" textLength="236" x="333" y="1448.0332">RandomMachinePlayer(Color, Board)</text><ellipse cx="324" cy="1461.4141" fill="#84BE84" rx="3" ry="3" style="stroke:#038048;stroke-width:1.0;"/><text fill="#000000" font-family="sans-serif" font-size="14" lengthAdjust="spacing" textLength="111" x="333" y="1465.6426">accept(TurnView)</text><ellipse cx="324" cy="1479.0234" fill="#84BE84" rx="3" ry="3" style="stroke:#038048;stroke-width:1.0;"/><text fill="#000000" font-family="sans-serif" font-size="14" lengthAdjust="spacing" textLength="101" x="333" y="1483.252">getColumn(): int</text></g><!--class PlayerVisitor--><g id="elem_PlayerVisitor"><rect codeLine="10" fill="#F1F1F1" height="100.8281" id="PlayerVisitor" rx="2.5" ry="2.5" style="stroke:#181818;stroke-width:0.5;" width="200" x="799" y="1017"/><ellipse cx="855.25" cy="1033" fill="#B4A7E5" rx="11" ry="11" style="stroke:#181818;stroke-width:1.0;"/><path d="M856.2031,1029.6406 L856.2031,1036.2969 L857.9219,1036.2969 Q858.5313,1036.2969 858.7969,1036.5313 Q859.0625,1036.7656 859.0625,1037.1563 Q859.0625,1037.5313 858.7969,1037.7656 Q858.5313,1038 857.9219,1038 L852.7813,1038 Q852.1719,1038 851.9063,1037.7656 Q851.6406,1037.5313 851.6406,1037.1406 Q851.6406,1036.7656 851.9063,1036.5313 Q852.1719,1036.2969 852.7813,1036.2969 L854.5,1036.2969 L854.5,1029.6406 L852.7813,1029.6406 Q852.1719,1029.6406 851.9063,1029.4063 Q851.6406,1029.1719 851.6406,1028.7813 Q851.6406,1028.4063 851.9063,1028.1719 Q852.1719,1027.9375 852.7813,1027.9375 L857.9219,1027.9375 Q858.5313,1027.9375 858.7969,1028.1719 Q859.0625,1028.4063 859.0625,1028.7813 Q859.0625,1029.1719 858.7969,1029.4063 Q858.5313,1029.6406 857.9219,1029.6406 L856.2031,1029.6406 Z " fill="#000000"/><text fill="#000000" font-family="sans-serif" font-size="14" font-style="italic" lengthAdjust="spacing" textLength="79" x="875.75" y="1038.7285">PlayerVisitor</text><line style="stroke:#181818;stroke-width:0.5;" x1="800" x2="998" y1="1049" y2="1049"/><line style="stroke:#181818;stroke-width:0.5;" x1="800" x2="998" y1="1057" y2="1057"/><ellipse cx="810" cy="1071.3047" fill="#84BE84" rx="3" ry="3" style="stroke:#038048;stroke-width:1.0;"/><text fill="#000000" font-family="sans-serif" font-size="14" lengthAdjust="spacing" textLength="103" x="819" y="1075.5332">visit(UserPlayer)</text><ellipse cx="810" cy="1088.9141" fill="#84BE84" rx="3" ry="3" style="stroke:#038048;stroke-width:1.0;"/><text fill="#000000" font-family="sans-serif" font-size="14" lengthAdjust="spacing" textLength="171" x="819" y="1093.1426">visit(RandomMachinelayer)</text><ellipse cx="810" cy="1106.5234" fill="#84BE84" rx="3" ry="3" style="stroke:#038048;stroke-width:1.0;"/><text fill="#000000" font-family="sans-serif" font-size="14" lengthAdjust="spacing" textLength="174" x="819" y="1110.752">visit(MinMaxMachinePlayer)</text></g><!--class MinMaxMachinePlayer--><g id="elem_MinMaxMachinePlayer"><rect codeLine="11" fill="#F1F1F1" height="241.7031" id="MinMaxMachinePlayer" rx="2.5" ry="2.5" style="stroke:#181818;stroke-width:0.5;" width="256" x="22" y="1319"/><ellipse cx="75.75" cy="1335" fill="#ADD1B2" rx="11" ry="11" style="stroke:#181818;stroke-width:1.0;"/><path d="M78.5156,1330.875 Q78.6719,1330.6563 78.8594,1330.5469 Q79.0469,1330.4375 79.2656,1330.4375 Q79.6406,1330.4375 79.875,1330.7031 Q80.1094,1330.9531 80.1094,1331.5625 L80.1094,1333.0156 Q80.1094,1333.625 79.875,1333.8906 Q79.6406,1334.1563 79.2656,1334.1563 Q78.9219,1334.1563 78.7188,1333.9531 Q78.5156,1333.7656 78.4063,1333.25 Q78.3594,1332.8906 78.1719,1332.7031 Q77.8438,1332.3281 77.2344,1332.1094 Q76.625,1331.8906 76,1331.8906 Q75.2344,1331.8906 74.5938,1332.2188 Q73.9688,1332.5469 73.4688,1333.2969 Q72.9844,1334.0469 72.9844,1335.0781 L72.9844,1336.1719 Q72.9844,1337.4063 73.875,1338.2344 Q74.7656,1339.0469 76.3594,1339.0469 Q77.2969,1339.0469 77.9531,1338.7969 Q78.3438,1338.6406 78.7656,1338.2031 Q79.0313,1337.9375 79.1719,1337.8594 Q79.3281,1337.7813 79.5313,1337.7813 Q79.8594,1337.7813 80.1094,1338.0469 Q80.375,1338.2969 80.375,1338.6406 Q80.375,1338.9844 80.0313,1339.3906 Q79.5313,1339.9688 78.7344,1340.2969 Q77.6563,1340.75 76.3594,1340.75 Q74.8438,1340.75 73.6406,1340.125 Q72.6563,1339.625 71.9688,1338.5625 Q71.2813,1337.4844 71.2813,1336.2031 L71.2813,1335.0469 Q71.2813,1333.7188 71.8906,1332.5781 Q72.5156,1331.4219 73.6094,1330.8125 Q74.7031,1330.1875 75.9375,1330.1875 Q76.6719,1330.1875 77.3125,1330.3594 Q77.9688,1330.5156 78.5156,1330.875 Z " fill="#000000"/><text fill="#000000" font-family="sans-serif" font-size="14" lengthAdjust="spacing" textLength="140" x="96.25" y="1340.7285">MinMaxMachinePlayer</text><line style="stroke:#181818;stroke-width:0.5;" x1="23" x2="277" y1="1351" y2="1351"/><rect fill="none" height="6" style="stroke:#C82930;stroke-width:1.0;" width="6" x="30" y="1362.3047"/><text fill="#000000" font-family="sans-serif" font-size="14" lengthAdjust="spacing" text-decoration="underline" textLength="81" x="42" y="1369.5332">MAX_STEPS</text><rect fill="none" height="6" style="stroke:#C82930;stroke-width:1.0;" width="6" x="30" y="1379.9141"/><text fill="#000000" font-family="sans-serif" font-size="14" lengthAdjust="spacing" text-decoration="underline" textLength="75" x="42" y="1387.1426">MAX_COST</text><rect fill="none" height="6" style="stroke:#C82930;stroke-width:1.0;" width="6" x="30" y="1397.5234"/><text fill="#000000" font-family="sans-serif" font-size="14" lengthAdjust="spacing" text-decoration="underline" textLength="95" x="42" y="1404.752">OTHER_COST</text><rect fill="none" height="6" style="stroke:#C82930;stroke-width:1.0;" width="6" x="30" y="1415.1328"/><text fill="#000000" font-family="sans-serif" font-size="14" lengthAdjust="spacing" text-decoration="underline" textLength="70" x="42" y="1422.3613">MIN_COST</text><line style="stroke:#181818;stroke-width:0.5;" x1="23" x2="277" y1="1429.4375" y2="1429.4375"/><ellipse cx="33" cy="1443.7422" fill="#84BE84" rx="3" ry="3" style="stroke:#038048;stroke-width:1.0;"/><text fill="#000000" font-family="sans-serif" font-size="14" lengthAdjust="spacing" textLength="230" x="42" y="1447.9707">MinMaxMachinePlayer(Color, Board)</text><ellipse cx="33" cy="1461.3516" fill="#84BE84" rx="3" ry="3" style="stroke:#038048;stroke-width:1.0;"/><text fill="#000000" font-family="sans-serif" font-size="14" lengthAdjust="spacing" textLength="131" x="42" y="1465.5801">accept(PlayerVisitor)</text><ellipse cx="33" cy="1478.9609" fill="#84BE84" rx="3" ry="3" style="stroke:#038048;stroke-width:1.0;"/><text fill="#000000" font-family="sans-serif" font-size="14" lengthAdjust="spacing" textLength="101" x="42" y="1483.1895">getColumn(): int</text><rect fill="#F24D5C" height="6" style="stroke:#C82930;stroke-width:1.0;" width="6" x="30" y="1493.5703"/><text fill="#000000" font-family="sans-serif" font-size="14" lengthAdjust="spacing" textLength="161" x="42" y="1500.7988">getMinCost(steps: int): int</text><rect fill="#F24D5C" height="6" style="stroke:#C82930;stroke-width:1.0;" width="6" x="30" y="1511.1797"/><text fill="#000000" font-family="sans-serif" font-size="14" lengthAdjust="spacing" textLength="164" x="42" y="1518.4082">getMaxCost(steps: int): int</text><rect fill="#F24D5C" height="6" style="stroke:#C82930;stroke-width:1.0;" width="6" x="30" y="1528.7891"/><text fill="#000000" font-family="sans-serif" font-size="14" lengthAdjust="spacing" textLength="161" x="42" y="1536.0176">isEnd(steps: int): boolean</text><rect fill="#F24D5C" height="6" style="stroke:#C82930;stroke-width:1.0;" width="6" x="30" y="1546.3984"/><text fill="#000000" font-family="sans-serif" font-size="14" lengthAdjust="spacing" textLength="82" x="42" y="1553.627">getCost(): int</text></g><!--class Color--><g id="elem_Color"><rect codeLine="25" fill="#F1F1F1" height="48" id="Color" rx="2.5" ry="2.5" style="stroke:#181818;stroke-width:0.5;" width="104" x="1034" y="1043.5"/><ellipse cx="1049" cy="1059.5" fill="#EB937F" rx="11" ry="11" style="stroke:#181818;stroke-width:1.0;"/><path d="M1047.8594,1060.2969 L1047.8594,1062.7969 L1052.1875,1062.7969 L1052.1875,1061.875 Q1052.1875,1061.2656 1052.4219,1061 Q1052.6719,1060.7344 1053.0469,1060.7344 Q1053.4219,1060.7344 1053.6563,1061 Q1053.8906,1061.2656 1053.8906,1061.875 L1053.8906,1064.5 L1045.8906,1064.5 Q1045.2656,1064.5 1045,1064.2656 Q1044.75,1064.0313 1044.75,1063.6406 Q1044.75,1063.2656 1045.0156,1063.0313 Q1045.2813,1062.7969 1045.8906,1062.7969 L1046.1563,1062.7969 L1046.1563,1056.1406 L1045.8906,1056.1406 Q1045.2656,1056.1406 1045,1055.9063 Q1044.75,1055.6719 1044.75,1055.2813 Q1044.75,1054.9063 1045,1054.6719 Q1045.2656,1054.4375 1045.8906,1054.4375 L1053.5156,1054.4375 L1053.5156,1057.0313 Q1053.5156,1057.6406 1053.2813,1057.9063 Q1053.0625,1058.1563 1052.6719,1058.1563 Q1052.2969,1058.1563 1052.0625,1057.9063 Q1051.8281,1057.6406 1051.8281,1057.0313 L1051.8281,1056.1406 L1047.8594,1056.1406 L1047.8594,1058.5938 L1049.3438,1058.5938 Q1049.3438,1057.9375 1049.4688,1057.75 Q1049.7344,1057.3438 1050.2031,1057.3438 Q1050.5781,1057.3438 1050.8125,1057.6094 Q1051.0469,1057.8594 1051.0469,1058.4688 L1051.0469,1060.4375 Q1051.0469,1060.9844 1050.9219,1061.1719 Q1050.6563,1061.5625 1050.2031,1061.5625 Q1049.7344,1061.5625 1049.4688,1061.1563 Q1049.3438,1060.9688 1049.3438,1060.2969 L1047.8594,1060.2969 Z " fill="#000000"/><text fill="#000000" font-family="sans-serif" font-size="14" lengthAdjust="spacing" textLength="72" x="1063" y="1065.2285">types.Color</text><line style="stroke:#181818;stroke-width:0.5;" x1="1035" x2="1137" y1="1075.5" y2="1075.5"/><line style="stroke:#181818;stroke-width:0.5;" x1="1035" x2="1137" y1="1083.5" y2="1083.5"/></g><!--class Direction--><g id="elem_Direction"><rect codeLine="26" fill="#F1F1F1" height="48" id="Direction" rx="2.5" ry="2.5" style="stroke:#181818;stroke-width:0.5;" width="117" x="1031.5" y="1416"/><ellipse cx="1046.5" cy="1432" fill="#ADD1B2" rx="11" ry="11" style="stroke:#181818;stroke-width:1.0;"/><path d="M1049.2656,1427.875 Q1049.4219,1427.6563 1049.6094,1427.5469 Q1049.7969,1427.4375 1050.0156,1427.4375 Q1050.3906,1427.4375 1050.625,1427.7031 Q1050.8594,1427.9531 1050.8594,1428.5625 L1050.8594,1430.0156 Q1050.8594,1430.625 1050.625,1430.8906 Q1050.3906,1431.1563 1050.0156,1431.1563 Q1049.6719,1431.1563 1049.4688,1430.9531 Q1049.2656,1430.7656 1049.1563,1430.25 Q1049.1094,1429.8906 1048.9219,1429.7031 Q1048.5938,1429.3281 1047.9844,1429.1094 Q1047.375,1428.8906 1046.75,1428.8906 Q1045.9844,1428.8906 1045.3438,1429.2188 Q1044.7188,1429.5469 1044.2188,1430.2969 Q1043.7344,1431.0469 1043.7344,1432.0781 L1043.7344,1433.1719 Q1043.7344,1434.4063 1044.625,1435.2344 Q1045.5156,1436.0469 1047.1094,1436.0469 Q1048.0469,1436.0469 1048.7031,1435.7969 Q1049.0938,1435.6406 1049.5156,1435.2031 Q1049.7813,1434.9375 1049.9219,1434.8594 Q1050.0781,1434.7813 1050.2813,1434.7813 Q1050.6094,1434.7813 1050.8594,1435.0469 Q1051.125,1435.2969 1051.125,1435.6406 Q1051.125,1435.9844 1050.7813,1436.3906 Q1050.2813,1436.9688 1049.4844,1437.2969 Q1048.4063,1437.75 1047.1094,1437.75 Q1045.5938,1437.75 1044.3906,1437.125 Q1043.4063,1436.625 1042.7188,1435.5625 Q1042.0313,1434.4844 1042.0313,1433.2031 L1042.0313,1432.0469 Q1042.0313,1430.7188 1042.6406,1429.5781 Q1043.2656,1428.4219 1044.3594,1427.8125 Q1045.4531,1427.1875 1046.6875,1427.1875 Q1047.4219,1427.1875 1048.0625,1427.3594 Q1048.7188,1427.5156 1049.2656,1427.875 Z " fill="#000000"/><text fill="#000000" font-family="sans-serif" font-size="14" lengthAdjust="spacing" textLength="85" x="1060.5" y="1437.7285">utils.Direction</text><line style="stroke:#181818;stroke-width:0.5;" x1="1032.5" x2="1147.5" y1="1448" y2="1448"/><line style="stroke:#181818;stroke-width:0.5;" x1="1032.5" x2="1147.5" y1="1456" y2="1456"/></g><!--class Coordinate--><g id="elem_Coordinate"><rect codeLine="28" fill="#F1F1F1" height="48" id="Coordinate" rx="2.5" ry="2.5" style="stroke:#181818;stroke-width:0.5;" width="131" x="1024.5" y="1621"/><ellipse cx="1039.5" cy="1637" fill="#ADD1B2" rx="11" ry="11" style="stroke:#181818;stroke-width:1.0;"/><path d="M1042.2656,1632.875 Q1042.4219,1632.6563 1042.6094,1632.5469 Q1042.7969,1632.4375 1043.0156,1632.4375 Q1043.3906,1632.4375 1043.625,1632.7031 Q1043.8594,1632.9531 1043.8594,1633.5625 L1043.8594,1635.0156 Q1043.8594,1635.625 1043.625,1635.8906 Q1043.3906,1636.1563 1043.0156,1636.1563 Q1042.6719,1636.1563 1042.4688,1635.9531 Q1042.2656,1635.7656 1042.1563,1635.25 Q1042.1094,1634.8906 1041.9219,1634.7031 Q1041.5938,1634.3281 1040.9844,1634.1094 Q1040.375,1633.8906 1039.75,1633.8906 Q1038.9844,1633.8906 1038.3438,1634.2188 Q1037.7188,1634.5469 1037.2188,1635.2969 Q1036.7344,1636.0469 1036.7344,1637.0781 L1036.7344,1638.1719 Q1036.7344,1639.4063 1037.625,1640.2344 Q1038.5156,1641.0469 1040.1094,1641.0469 Q1041.0469,1641.0469 1041.7031,1640.7969 Q1042.0938,1640.6406 1042.5156,1640.2031 Q1042.7813,1639.9375 1042.9219,1639.8594 Q1043.0781,1639.7813 1043.2813,1639.7813 Q1043.6094,1639.7813 1043.8594,1640.0469 Q1044.125,1640.2969 1044.125,1640.6406 Q1044.125,1640.9844 1043.7813,1641.3906 Q1043.2813,1641.9688 1042.4844,1642.2969 Q1041.4063,1642.75 1040.1094,1642.75 Q1038.5938,1642.75 1037.3906,1642.125 Q1036.4063,1641.625 1035.7188,1640.5625 Q1035.0313,1639.4844 1035.0313,1638.2031 L1035.0313,1637.0469 Q1035.0313,1635.7188 1035.6406,1634.5781 Q1036.2656,1633.4219 1037.3594,1632.8125 Q1038.4531,1632.1875 1039.6875,1632.1875 Q1040.4219,1632.1875 1041.0625,1632.3594 Q1041.7188,1632.5156 1042.2656,1632.875 Z " fill="#000000"/><text fill="#000000" font-family="sans-serif" font-size="14" lengthAdjust="spacing" textLength="99" x="1053.5" y="1642.7285">utils.Coordinate</text><line style="stroke:#181818;stroke-width:0.5;" x1="1025.5" x2="1154.5" y1="1653" y2="1653"/><line style="stroke:#181818;stroke-width:0.5;" x1="1025.5" x2="1154.5" y1="1661" y2="1661"/></g><!--class ClosedInterval--><g id="elem_ClosedInterval"><rect codeLine="29" fill="#F1F1F1" height="48" id="ClosedInterval" rx="2.5" ry="2.5" style="stroke:#181818;stroke-width:0.5;" width="151" x="1014.5" y="1729"/><ellipse cx="1029.5" cy="1745" fill="#ADD1B2" rx="11" ry="11" style="stroke:#181818;stroke-width:1.0;"/><path d="M1032.2656,1740.875 Q1032.4219,1740.6563 1032.6094,1740.5469 Q1032.7969,1740.4375 1033.0156,1740.4375 Q1033.3906,1740.4375 1033.625,1740.7031 Q1033.8594,1740.9531 1033.8594,1741.5625 L1033.8594,1743.0156 Q1033.8594,1743.625 1033.625,1743.8906 Q1033.3906,1744.1563 1033.0156,1744.1563 Q1032.6719,1744.1563 1032.4688,1743.9531 Q1032.2656,1743.7656 1032.1563,1743.25 Q1032.1094,1742.8906 1031.9219,1742.7031 Q1031.5938,1742.3281 1030.9844,1742.1094 Q1030.375,1741.8906 1029.75,1741.8906 Q1028.9844,1741.8906 1028.3438,1742.2188 Q1027.7188,1742.5469 1027.2188,1743.2969 Q1026.7344,1744.0469 1026.7344,1745.0781 L1026.7344,1746.1719 Q1026.7344,1747.4063 1027.625,1748.2344 Q1028.5156,1749.0469 1030.1094,1749.0469 Q1031.0469,1749.0469 1031.7031,1748.7969 Q1032.0938,1748.6406 1032.5156,1748.2031 Q1032.7813,1747.9375 1032.9219,1747.8594 Q1033.0781,1747.7813 1033.2813,1747.7813 Q1033.6094,1747.7813 1033.8594,1748.0469 Q1034.125,1748.2969 1034.125,1748.6406 Q1034.125,1748.9844 1033.7813,1749.3906 Q1033.2813,1749.9688 1032.4844,1750.2969 Q1031.4063,1750.75 1030.1094,1750.75 Q1028.5938,1750.75 1027.3906,1750.125 Q1026.4063,1749.625 1025.7188,1748.5625 Q1025.0313,1747.4844 1025.0313,1746.2031 L1025.0313,1745.0469 Q1025.0313,1743.7188 1025.6406,1742.5781 Q1026.2656,1741.4219 1027.3594,1740.8125 Q1028.4531,1740.1875 1029.6875,1740.1875 Q1030.4219,1740.1875 1031.0625,1740.3594 Q1031.7188,1740.5156 1032.2656,1740.875 Z " fill="#000000"/><text fill="#000000" font-family="sans-serif" font-size="14" lengthAdjust="spacing" textLength="119" x="1043.5" y="1750.7285">utils.ClosedInterval</text><line style="stroke:#181818;stroke-width:0.5;" x1="1015.5" x2="1164.5" y1="1761" y2="1761"/><line style="stroke:#181818;stroke-width:0.5;" x1="1015.5" x2="1164.5" y1="1769" y2="1769"/></g><!--reverse link Game to Board--><g id="link_Game_Board"><path codeLine="13" d="M469.2839,259.7742 C465.2139,279.5742 463.81,288.49 461,308 C433.27,500.28 418.92,722.07 411.72,875.95 " fill="none" id="Game-backto-Board" style="stroke:#181818;stroke-width:1.0;"/><polygon fill="#181818" points="471.7,248.02,466.5738,253.0917,469.2839,259.7742,474.41,254.7025,471.7,248.02" style="stroke:#181818;stroke-width:1.0;"/></g><!--reverse link Game to Turn--><g id="link_Game_Turn"><path codeLine="14" d="M528.4443,259.549 C533.9743,278.919 536.54,287.89 542.27,307.96 " fill="none" id="Game-backto-Turn" style="stroke:#181818;stroke-width:1.0;"/><polygon fill="#181818" points="525.15,248.01,522.9508,254.8776,528.4443,259.549,530.6435,252.6814,525.15,248.01" style="stroke:#181818;stroke-width:1.0;"/></g><!--link Turn to Board--><g id="link_Turn_Board"><path codeLine="15" d="M541.09,567.18 C535.3,587.19 529.45,607.64 524,627 C501.1,708.42 478.1088,792.766 457.2988,870.116 " fill="none" id="Turn-to-Board" style="stroke:#181818;stroke-width:1.0;"/><polygon fill="#181818" points="455.74,875.91,461.9408,868.2582,457.039,871.0817,454.2155,866.1798,455.74,875.91" style="stroke:#181818;stroke-width:1.0;"/></g><!--reverse link Turn to Player--><g id="link_Turn_Player"><path codeLine="16" d="M620.2476,578.6319 C626.1476,598.6819 628.76,607.55 634.37,626.63 " fill="none" id="Turn-backto-Player" style="stroke:#181818;stroke-width:1.0;"/><polygon fill="none" points="616.86,567.12,614.7165,574.0051,620.2476,578.6319,622.3911,571.7468,616.86,567.12" style="stroke:#181818;stroke-width:1.0;"/></g><!--link Player to Board--><g id="link_Player_Board"><path codeLine="17" d="M592.11,816.05 C576.95,836.34 564.0021,853.6841 547.2221,876.1341 " fill="none" id="Player-to-Board" style="stroke:#181818;stroke-width:1.0;"/><polygon fill="#181818" points="543.63,880.94,552.2221,876.1259,546.6234,876.9351,545.8142,871.3364,543.63,880.94" style="stroke:#181818;stroke-width:1.0;"/></g><!--link Player to PlayerVisitor--><g id="link_Player_PlayerVisitor"><path codeLine="18" d="M737.22,816.32 C752.11,835.77 767.34,856.34 781,876 C813.29,922.49 843.9331,972.5071 867.0131,1011.4871 " fill="none" id="Player-to-PlayerVisitor" style="stroke:#181818;stroke-width:1.0;stroke-dasharray:7.0,7.0;"/><polygon fill="#181818" points="870.07,1016.65,868.9265,1006.8677,867.5226,1012.3476,862.0427,1010.9436,870.07,1016.65" style="stroke:#181818;stroke-width:1.0;"/></g><!--reverse link Player to UserPlayer--><g id="link_Player_UserPlayer"><path codeLine="19" d="M664.9193,834.0439 C666.7093,902.6739 668.59,974.54 669.94,1025.85 " fill="none" id="Player-backto-UserPlayer" style="stroke:#181818;stroke-width:1.0;"/><polygon fill="none" points="664.45,816.05,658.9214,834.2003,670.9173,833.8874,664.45,816.05" style="stroke:#181818;stroke-width:1.0;"/></g><!--reverse link Player to MachinePlayer--><g id="link_Player_MachinePlayer"><path codeLine="20" d="M523.934,750.0016 C435.574,771.8016 334.16,807.35 249,876 C202.37,913.59 168,974 147.84,1016.7 " fill="none" id="Player-backto-MachinePlayer" style="stroke:#181818;stroke-width:1.0;"/><polygon fill="none" points="541.41,745.69,522.4968,744.1763,525.3712,755.827,541.41,745.69" style="stroke:#181818;stroke-width:1.0;"/></g><!--reverse link MachinePlayer to RandomMachinePlayer--><g id="link_MachinePlayer_RandomMachinePlayer"><path codeLine="21" d="M163.064,1133.8507 C185.904,1173.7407 211.79,1214.6 249,1259 C289.39,1307.2 342.15,1355.18 382.6,1389.46 " fill="none" id="MachinePlayer-backto-RandomMachinePlayer" style="stroke:#181818;stroke-width:1.0;"/><polygon fill="none" points="154.12,1118.23,157.8571,1136.832,168.2709,1130.8693,154.12,1118.23" style="stroke:#181818;stroke-width:1.0;"/></g><!--reverse link MachinePlayer to MinMaxMachinePlayer--><g id="link_MachinePlayer_MinMaxMachinePlayer"><path codeLine="22" d="M131.1951,1136.0454 C134.3651,1187.1154 138.31,1250.68 142.54,1318.77 " fill="none" id="MachinePlayer-backto-MinMaxMachinePlayer" style="stroke:#181818;stroke-width:1.0;"/><polygon fill="none" points="130.08,1118.08,125.2067,1136.4171,137.1836,1135.6737,130.08,1118.08" style="stroke:#181818;stroke-width:1.0;"/></g><!--link Board to Line--><g id="link_Board_Line"><path codeLine="23" d="M543.69,1238.63 C549.52,1245.53 555.3,1252.34 561,1259 C585.26,1287.35 608.1171,1313.2705 632.8271,1340.8605 " fill="none" id="Board-to-Line" style="stroke:#181818;stroke-width:1.0;stroke-dasharray:7.0,7.0;"/><polygon fill="#181818" points="636.83,1345.33,633.8052,1335.9571,633.4942,1341.6054,627.8459,1341.2944,636.83,1345.33" style="stroke:#181818;stroke-width:1.0;"/></g><!--link Turn to Color--><g id="link_Turn_Color"><path codeLine="31" d="M679.62,514.27 C778.67,593.95 927.46,728.13 1015,876 C1048.17,932.04 1068.8725,1000.4503 1078.7025,1037.5303 " fill="none" id="Turn-to-Color" style="stroke:#181818;stroke-width:1.0;stroke-dasharray:7.0,7.0;"/><polygon fill="#181818" points="1080.24,1043.33,1081.8002,1033.6055,1078.9587,1038.4969,1074.0673,1035.6555,1080.24,1043.33" style="stroke:#181818;stroke-width:1.0;"/></g><!--link Player to Color--><g id="link_Player_Color"><path codeLine="32" d="M782.93,763.56 C871.34,795.65 981.44,840.6 1015,876 C1060.53,924.03 1076.5742,997.9543 1082.3742,1037.2643 " fill="none" id="Player-to-Color" style="stroke:#181818;stroke-width:1.0;"/><polygon fill="#181818" points="1083.25,1043.2,1085.8935,1033.7125,1082.5202,1038.2536,1077.9792,1034.8803,1083.25,1043.2" style="stroke:#181818;stroke-width:1.0;"/></g><!--link Board to Coordinate--><g id="link_Board_Coordinate"><path codeLine="33" d="M543.62,1248.53 C549.27,1252.31 555.07,1255.82 561,1259 C680.1,1322.79 1075.3,1218.86 1166,1319 C1245.36,1406.62 1217.99,1478.82 1166,1585 C1158.87,1599.55 1151.1171,1608.0551 1138.1671,1617.3351 " fill="none" id="Board-to-Coordinate" style="stroke:#181818;stroke-width:1.0;"/><polygon fill="#181818" points="1133.29,1620.83,1142.9355,1618.839,1137.3542,1617.9176,1138.2756,1612.3363,1133.29,1620.83" style="stroke:#181818;stroke-width:1.0;"/></g><!--link Board to Direction--><g id="link_Board_Direction"><path codeLine="34" d="M543.76,1248.27 C549.37,1252.13 555.12,1255.72 561,1259 C738.83,1358.01 843.84,1208.86 1015,1319 C1050.33,1341.73 1069.8207,1382.0192 1080.2707,1409.9992 " fill="none" id="Board-to-Direction" style="stroke:#181818;stroke-width:1.0;stroke-dasharray:7.0,7.0;"/><polygon fill="#181818" points="1082.37,1415.62,1082.9683,1405.7893,1080.6206,1410.936,1075.4739,1408.5883,1082.37,1415.62" style="stroke:#181818;stroke-width:1.0;"/></g><!--link Direction to Coordinate--><g id="link_Direction_Coordinate"><path codeLine="35" d="M1081.51,1464.29 C1075.82,1503.44 1074.9587,1576.0736 1080.6787,1615.0436 " fill="none" id="Direction-to-Coordinate" style="stroke:#181818;stroke-width:1.0;"/><polygon fill="#181818" points="1081.55,1620.98,1084.2006,1611.4945,1080.8239,1616.033,1076.2854,1612.6563,1081.55,1620.98" style="stroke:#181818;stroke-width:1.0;"/></g><!--link Direction to Coordinate--><g id="link_Direction_Coordinate"><path codeLine="36" d="M1098.99,1464.29 C1105.02,1503.44 1105.9205,1576.081 1099.8705,1615.051 " fill="none" id="Direction-to-Coordinate-1" style="stroke:#181818;stroke-width:1.0;stroke-dasharray:7.0,7.0;"/><polygon fill="#181818" points="1098.95,1620.98,1104.2833,1612.7002,1099.717,1616.0392,1096.378,1611.4729,1098.95,1620.98" style="stroke:#181818;stroke-width:1.0;"/></g><!--reverse link Coordinate to ClosedInterval--><g id="link_Coordinate_ClosedInterval"><path codeLine="37" d="M1090,1681 C1090,1698.66 1090,1710.94 1090,1728.68 " fill="none" id="Coordinate-backto-ClosedInterval" style="stroke:#181818;stroke-width:1.0;"/><polygon fill="#181818" points="1090,1669,1086,1675,1090,1681,1094,1675,1090,1669" style="stroke:#181818;stroke-width:1.0;"/></g><!--SRC=[bLPRJzim57xFhuXuIWVfqvwY2GbA1qWj82Xi4qB890QifNOKknreux_Fz_WaRe4NYi_tdUDpTyeQSPukMOLhFZv6IvoKeUIGeRQ2eiMgfL0o8nGdw86B5fKY1T15ZLvn2-dN7BTM7bUQe_9PcepfNY9QiIKa42fm-uXA32-z8Pm8rjEV4pf7Br0_KM6dN_8yDT7weuvK_KdpVD-2-iWaQ9NDJq2mWl5uFuL-ME3RFwaSf20KGx_0oH1YuKTeiIYrTzejNQu4qzKodR2QjIdYwOvuRJ0Vw_EEJTaHQN4f2AEQi194vi_B76d2M5iHYWGEM9tmixIQSLoTgeAkKHrI0R2Jc3geQBJBOHcCm8HhpkwM80S-ZgIBiaVk07ED1u9OL9T0rsmt5Md-e2uhmfwIGY7TBanZMT6k-ir6_jXYZaLmVi92HvID2XkQGmZ_GIZ56dbWhCQ81jXtGWb_nbKCbJOFP6XhsnkAOhiaO2Wd5QATDVakqhzS847AjtJtx7f-EBsylvWT_9fUNXMfd497oXjjZ7khJew2Iw46I9OJQW-qQEHaDZrIDLtv6U8TJF6BIfuxRWxKCQIrRXW3JIcF31iac37h8pcgAYipFwCa0Pj0QQ_LlrbtysWJ1JYndHgPUd-rygjKtLF0WUcdlXFR43HxBxLLy72aBG6c-GhhcPMDEM7BfiP2TgPqQBMakX629ksuLSkQ1VkDAM06XB_k_NX3POaRaO7CoE2x12jwK6WO5gHPMwgSQuB_I3DmnKeAR0feR40UUAaitsZBMxWcmJ9gbKKrAaca7vLAh4sXHniK1zviu0qzYNHQk1lo-S7F-wl5zEBgGyp9-TNYNUBvuaHkcmzHvwTdsuYx4N6_X775U9Dj80-o5kVbJtgFJ1WN6HUuuMuStb51BvzI8NnAAyXsyxRv4ds3gxbvEzqQuRTtjtS5U6ib9DzmSII7jXW-kZ8ZTYTq0lVKUK4ty6h1cw7VCvS4h6w51BGWe1Wn3iVUo00UFg_0j0HByJMhPThYbFEoN3L4ck-ouQA9ygVBHhm6v6si-ExqDB-UWJLOBaMQsOhrThclA1_Q6HP4shccfLlheEjlqxkmtaksnWlMm7tkBrCV7JqGT5AIg4zNy1KocvuTBqvCYremPorv8XHeEgZq8XxYoakltJHCJZRsdtz5yB5eIRlgD-kCXRP6dgIQkufO2HZFv56SsmkpJgwhvptDHdrV_mC0]--></g></svg>