<?xml version="1.0" encoding="us-ascii" standalone="no"?><svg xmlns="http://www.w3.org/2000/svg" xmlns:xlink="http://www.w3.org/1999/xlink" contentStyleType="text/css" height="1590px" preserveAspectRatio="none" style="width:1001px;height:1590px;background:#FFFFFF;" version="1.1" viewBox="0 0 1001 1590" width="1001px" zoomAndPan="magnify"><defs/><g><!--cluster models--><g id="cluster_models"><path d="M8.5,6 L60.5,6 A3.75,3.75 0 0 1 63,8.5 L70,29.6094 L777.5,29.6094 A2.5,2.5 0 0 1 780,32.1094 L780,1380.5 A2.5,2.5 0 0 1 777.5,1383 L8.5,1383 A2.5,2.5 0 0 1 6,1380.5 L6,8.5 A2.5,2.5 0 0 1 8.5,6 " fill="none" style="stroke:#000000;stroke-width:1.5;"/><line style="stroke:#000000;stroke-width:1.5;" x1="6" x2="70" y1="29.6094" y2="29.6094"/><text fill="#000000" font-family="sans-serif" font-size="14" font-weight="bold" lengthAdjust="spacing" textLength="51" x="10" y="22.5332">models</text></g><!--class Game--><g id="elem_Game"><rect codeLine="2" fill="#F1F1F1" height="206.4844" id="Game" rx="2.5" ry="2.5" style="stroke:#181818;stroke-width:0.5;" width="182" x="188" y="42"/><ellipse cx="255.75" cy="58" fill="#ADD1B2" rx="11" ry="11" style="stroke:#181818;stroke-width:1.0;"/><path d="M258.5156,53.875 Q258.6719,53.6563 258.8594,53.5469 Q259.0469,53.4375 259.2656,53.4375 Q259.6406,53.4375 259.875,53.7031 Q260.1094,53.9531 260.1094,54.5625 L260.1094,56.0156 Q260.1094,56.625 259.875,56.8906 Q259.6406,57.1563 259.2656,57.1563 Q258.9219,57.1563 258.7188,56.9531 Q258.5156,56.7656 258.4063,56.25 Q258.3594,55.8906 258.1719,55.7031 Q257.8438,55.3281 257.2344,55.1094 Q256.625,54.8906 256,54.8906 Q255.2344,54.8906 254.5938,55.2188 Q253.9688,55.5469 253.4688,56.2969 Q252.9844,57.0469 252.9844,58.0781 L252.9844,59.1719 Q252.9844,60.4063 253.875,61.2344 Q254.7656,62.0469 256.3594,62.0469 Q257.2969,62.0469 257.9531,61.7969 Q258.3438,61.6406 258.7656,61.2031 Q259.0313,60.9375 259.1719,60.8594 Q259.3281,60.7813 259.5313,60.7813 Q259.8594,60.7813 260.1094,61.0469 Q260.375,61.2969 260.375,61.6406 Q260.375,61.9844 260.0313,62.3906 Q259.5313,62.9688 258.7344,63.2969 Q257.6563,63.75 256.3594,63.75 Q254.8438,63.75 253.6406,63.125 Q252.6563,62.625 251.9688,61.5625 Q251.2813,60.4844 251.2813,59.2031 L251.2813,58.0469 Q251.2813,56.7188 251.8906,55.5781 Q252.5156,54.4219 253.6094,53.8125 Q254.7031,53.1875 255.9375,53.1875 Q256.6719,53.1875 257.3125,53.3594 Q257.9688,53.5156 258.5156,53.875 Z " fill="#000000"/><text fill="#000000" font-family="sans-serif" font-size="14" lengthAdjust="spacing" textLength="38" x="276.25" y="63.7285">Game</text><line style="stroke:#181818;stroke-width:0.5;" x1="189" x2="369" y1="74" y2="74"/><rect fill="none" height="6" style="stroke:#C82930;stroke-width:1.0;" width="6" x="196" y="85.3047"/><text fill="#000000" font-family="sans-serif" font-size="14" lengthAdjust="spacing" textLength="83" x="208" y="92.5332">board: Board</text><rect fill="none" height="6" style="stroke:#C82930;stroke-width:1.0;" width="6" x="196" y="102.9141"/><text fill="#000000" font-family="sans-serif" font-size="14" lengthAdjust="spacing" textLength="63" x="208" y="110.1426">turn: Turn</text><line style="stroke:#181818;stroke-width:0.5;" x1="189" x2="369" y1="117.2188" y2="117.2188"/><ellipse cx="199" cy="131.5234" fill="#84BE84" rx="3" ry="3" style="stroke:#038048;stroke-width:1.0;"/><text fill="#000000" font-family="sans-serif" font-size="14" lengthAdjust="spacing" textLength="48" x="208" y="135.752">Game()</text><ellipse cx="199" cy="149.1328" fill="#84BE84" rx="3" ry="3" style="stroke:#038048;stroke-width:1.0;"/><text fill="#000000" font-family="sans-serif" font-size="14" lengthAdjust="spacing" textLength="42" x="208" y="153.3613">reset()</text><ellipse cx="199" cy="166.7422" fill="#84BE84" rx="3" ry="3" style="stroke:#038048;stroke-width:1.0;"/><text fill="#000000" font-family="sans-serif" font-size="14" lengthAdjust="spacing" textLength="106" x="208" y="170.9707">getColor(): Color</text><ellipse cx="199" cy="184.3516" fill="#84BE84" rx="3" ry="3" style="stroke:#038048;stroke-width:1.0;"/><text fill="#000000" font-family="sans-serif" font-size="14" lengthAdjust="spacing" textLength="124" x="208" y="188.5801">isWinner(): boolean</text><ellipse cx="199" cy="201.9609" fill="#84BE84" rx="3" ry="3" style="stroke:#038048;stroke-width:1.0;"/><text fill="#000000" font-family="sans-serif" font-size="14" lengthAdjust="spacing" textLength="133" x="208" y="206.1895">isFinished(): boolean</text><ellipse cx="199" cy="219.5703" fill="#84BE84" rx="3" ry="3" style="stroke:#038048;stroke-width:1.0;"/><text fill="#000000" font-family="sans-serif" font-size="14" lengthAdjust="spacing" textLength="156" x="208" y="223.7988">getActivePlayer(): Player</text><ellipse cx="199" cy="237.1797" fill="#84BE84" rx="3" ry="3" style="stroke:#038048;stroke-width:1.0;"/><text fill="#000000" font-family="sans-serif" font-size="14" lengthAdjust="spacing" textLength="98" x="208" y="241.4082">getTurn(): Turn</text></g><!--class Board--><g id="elem_Board"><rect codeLine="3" fill="#F1F1F1" height="276.9219" id="Board" rx="2.5" ry="2.5" style="stroke:#181818;stroke-width:0.5;" width="277" x="22.5" y="841"/><ellipse cx="137.75" cy="857" fill="#ADD1B2" rx="11" ry="11" style="stroke:#181818;stroke-width:1.0;"/><path d="M140.5156,852.875 Q140.6719,852.6563 140.8594,852.5469 Q141.0469,852.4375 141.2656,852.4375 Q141.6406,852.4375 141.875,852.7031 Q142.1094,852.9531 142.1094,853.5625 L142.1094,855.0156 Q142.1094,855.625 141.875,855.8906 Q141.6406,856.1563 141.2656,856.1563 Q140.9219,856.1563 140.7188,855.9531 Q140.5156,855.7656 140.4063,855.25 Q140.3594,854.8906 140.1719,854.7031 Q139.8438,854.3281 139.2344,854.1094 Q138.625,853.8906 138,853.8906 Q137.2344,853.8906 136.5938,854.2188 Q135.9688,854.5469 135.4688,855.2969 Q134.9844,856.0469 134.9844,857.0781 L134.9844,858.1719 Q134.9844,859.4063 135.875,860.2344 Q136.7656,861.0469 138.3594,861.0469 Q139.2969,861.0469 139.9531,860.7969 Q140.3438,860.6406 140.7656,860.2031 Q141.0313,859.9375 141.1719,859.8594 Q141.3281,859.7813 141.5313,859.7813 Q141.8594,859.7813 142.1094,860.0469 Q142.375,860.2969 142.375,860.6406 Q142.375,860.9844 142.0313,861.3906 Q141.5313,861.9688 140.7344,862.2969 Q139.6563,862.75 138.3594,862.75 Q136.8438,862.75 135.6406,862.125 Q134.6563,861.625 133.9688,860.5625 Q133.2813,859.4844 133.2813,858.2031 L133.2813,857.0469 Q133.2813,855.7188 133.8906,854.5781 Q134.5156,853.4219 135.6094,852.8125 Q136.7031,852.1875 137.9375,852.1875 Q138.6719,852.1875 139.3125,852.3594 Q139.9688,852.5156 140.5156,852.875 Z " fill="#000000"/><text fill="#000000" font-family="sans-serif" font-size="14" lengthAdjust="spacing" textLength="38" x="158.25" y="862.7285">Board</text><line style="stroke:#181818;stroke-width:0.5;" x1="23.5" x2="298.5" y1="873" y2="873"/><rect fill="none" height="6" style="stroke:#C82930;stroke-width:1.0;" width="6" x="30.5" y="884.3047"/><text fill="#000000" font-family="sans-serif" font-size="14" lengthAdjust="spacing" textLength="96" x="42.5" y="891.5332">colors[][]: Color</text><rect fill="none" height="6" style="stroke:#C82930;stroke-width:1.0;" width="6" x="30.5" y="901.9141"/><text fill="#000000" font-family="sans-serif" font-size="14" lengthAdjust="spacing" textLength="131" x="42.5" y="909.1426">lastDrop: Coordinate</text><line style="stroke:#181818;stroke-width:0.5;" x1="23.5" x2="298.5" y1="916.2188" y2="916.2188"/><ellipse cx="33.5" cy="930.5234" fill="#84BE84" rx="3" ry="3" style="stroke:#038048;stroke-width:1.0;"/><text fill="#000000" font-family="sans-serif" font-size="14" lengthAdjust="spacing" textLength="48" x="42.5" y="934.752">Board()</text><ellipse cx="33.5" cy="948.1328" fill="#84BE84" rx="3" ry="3" style="stroke:#038048;stroke-width:1.0;"/><text fill="#000000" font-family="sans-serif" font-size="14" lengthAdjust="spacing" textLength="42" x="42.5" y="952.3613">reset()</text><ellipse cx="33.5" cy="965.7422" fill="#84BE84" rx="3" ry="3" style="stroke:#038048;stroke-width:1.0;"/><text fill="#000000" font-family="sans-serif" font-size="14" lengthAdjust="spacing" textLength="185" x="42.5" y="969.9707">dropToken(int column, Color)</text><ellipse cx="33.5" cy="983.3516" fill="#84BE84" rx="3" ry="3" style="stroke:#038048;stroke-width:1.0;"/><text fill="#000000" font-family="sans-serif" font-size="14" lengthAdjust="spacing" textLength="203" x="42.5" y="987.5801">isComplete(int column): boolean</text><ellipse cx="33.5" cy="1000.9609" fill="#84BE84" rx="3" ry="3" style="stroke:#038048;stroke-width:1.0;"/><text fill="#000000" font-family="sans-serif" font-size="14" lengthAdjust="spacing" textLength="139" x="42.5" y="1005.1895">isComplete(): boolean</text><ellipse cx="33.5" cy="1018.5703" fill="#84BE84" rx="3" ry="3" style="stroke:#038048;stroke-width:1.0;"/><text fill="#000000" font-family="sans-serif" font-size="14" lengthAdjust="spacing" textLength="133" x="42.5" y="1022.7988">isFinished(): boolean</text><ellipse cx="33.5" cy="1036.1797" fill="#84BE84" rx="3" ry="3" style="stroke:#038048;stroke-width:1.0;"/><text fill="#000000" font-family="sans-serif" font-size="14" lengthAdjust="spacing" textLength="124" x="42.5" y="1040.4082">isWinner(): boolean</text><ellipse cx="33.5" cy="1053.7891" fill="#84BE84" rx="3" ry="3" style="stroke:#038048;stroke-width:1.0;"/><text fill="#000000" font-family="sans-serif" font-size="14" lengthAdjust="spacing" textLength="162" x="42.5" y="1058.0176">isConnect4(line): boolean</text><ellipse cx="33.5" cy="1071.3984" fill="#84BE84" rx="3" ry="3" style="stroke:#038048;stroke-width:1.0;"/><text fill="#000000" font-family="sans-serif" font-size="14" lengthAdjust="spacing" textLength="251" x="42.5" y="1075.627">isOccupied(Coordinate, Color): boolean</text><ellipse cx="33.5" cy="1089.0078" fill="#84BE84" rx="3" ry="3" style="stroke:#038048;stroke-width:1.0;"/><text fill="#000000" font-family="sans-serif" font-size="14" lengthAdjust="spacing" textLength="188" x="42.5" y="1093.2363">isEmpty(Coordinate): boolean</text><ellipse cx="33.5" cy="1106.6172" fill="#84BE84" rx="3" ry="3" style="stroke:#038048;stroke-width:1.0;"/><text fill="#000000" font-family="sans-serif" font-size="14" lengthAdjust="spacing" textLength="176" x="42.5" y="1110.8457">getColor(Coordinate): Color</text></g><!--class Turn--><g id="elem_Turn"><rect codeLine="4" fill="#F1F1F1" height="241.7031" id="Turn" rx="2.5" ry="2.5" style="stroke:#181818;stroke-width:0.5;" width="201" x="279.5" y="308"/><ellipse cx="360.75" cy="324" fill="#ADD1B2" rx="11" ry="11" style="stroke:#181818;stroke-width:1.0;"/><path d="M363.5156,319.875 Q363.6719,319.6563 363.8594,319.5469 Q364.0469,319.4375 364.2656,319.4375 Q364.6406,319.4375 364.875,319.7031 Q365.1094,319.9531 365.1094,320.5625 L365.1094,322.0156 Q365.1094,322.625 364.875,322.8906 Q364.6406,323.1563 364.2656,323.1563 Q363.9219,323.1563 363.7188,322.9531 Q363.5156,322.7656 363.4063,322.25 Q363.3594,321.8906 363.1719,321.7031 Q362.8438,321.3281 362.2344,321.1094 Q361.625,320.8906 361,320.8906 Q360.2344,320.8906 359.5938,321.2188 Q358.9688,321.5469 358.4688,322.2969 Q357.9844,323.0469 357.9844,324.0781 L357.9844,325.1719 Q357.9844,326.4063 358.875,327.2344 Q359.7656,328.0469 361.3594,328.0469 Q362.2969,328.0469 362.9531,327.7969 Q363.3438,327.6406 363.7656,327.2031 Q364.0313,326.9375 364.1719,326.8594 Q364.3281,326.7813 364.5313,326.7813 Q364.8594,326.7813 365.1094,327.0469 Q365.375,327.2969 365.375,327.6406 Q365.375,327.9844 365.0313,328.3906 Q364.5313,328.9688 363.7344,329.2969 Q362.6563,329.75 361.3594,329.75 Q359.8438,329.75 358.6406,329.125 Q357.6563,328.625 356.9688,327.5625 Q356.2813,326.4844 356.2813,325.2031 L356.2813,324.0469 Q356.2813,322.7188 356.8906,321.5781 Q357.5156,320.4219 358.6094,319.8125 Q359.7031,319.1875 360.9375,319.1875 Q361.6719,319.1875 362.3125,319.3594 Q362.9688,319.5156 363.5156,319.875 Z " fill="#000000"/><text fill="#000000" font-family="sans-serif" font-size="14" lengthAdjust="spacing" textLength="30" x="381.25" y="329.7285">Turn</text><line style="stroke:#181818;stroke-width:0.5;" x1="280.5" x2="479.5" y1="340" y2="340"/><ellipse cx="290.5" cy="354.3047" fill="none" rx="3" ry="3" style="stroke:#038048;stroke-width:1.0;"/><text fill="#000000" font-family="sans-serif" font-size="14" lengthAdjust="spacing" text-decoration="underline" textLength="151" x="299.5" y="358.5332">NUMBER_PLAYERS: int</text><rect fill="none" height="6" style="stroke:#C82930;stroke-width:1.0;" width="6" x="287.5" y="368.9141"/><text fill="#000000" font-family="sans-serif" font-size="14" lengthAdjust="spacing" textLength="94" x="299.5" y="376.1426">players: Player</text><rect fill="none" height="6" style="stroke:#C82930;stroke-width:1.0;" width="6" x="287.5" y="386.5234"/><text fill="#000000" font-family="sans-serif" font-size="14" lengthAdjust="spacing" textLength="100" x="299.5" y="393.752">activePlayer: int</text><rect fill="none" height="6" style="stroke:#C82930;stroke-width:1.0;" width="6" x="287.5" y="404.1328"/><text fill="#000000" font-family="sans-serif" font-size="14" lengthAdjust="spacing" textLength="83" x="299.5" y="411.3613">board: Board</text><line style="stroke:#181818;stroke-width:0.5;" x1="280.5" x2="479.5" y1="418.4375" y2="418.4375"/><rect fill="#F24D5C" height="6" style="stroke:#C82930;stroke-width:1.0;" width="6" x="287.5" y="429.7422"/><text fill="#000000" font-family="sans-serif" font-size="14" lengthAdjust="spacing" textLength="78" x="299.5" y="436.9707">Turn(Board)</text><ellipse cx="290.5" cy="450.3516" fill="#84BE84" rx="3" ry="3" style="stroke:#038048;stroke-width:1.0;"/><text fill="#000000" font-family="sans-serif" font-size="14" lengthAdjust="spacing" textLength="136" x="299.5" y="454.5801">reset(int userPlayers)</text><ellipse cx="290.5" cy="467.9609" fill="#84BE84" rx="3" ry="3" style="stroke:#038048;stroke-width:1.0;"/><text fill="#000000" font-family="sans-serif" font-size="14" lengthAdjust="spacing" textLength="36" x="299.5" y="472.1895">next()</text><ellipse cx="290.5" cy="485.5703" fill="#84BE84" rx="3" ry="3" style="stroke:#038048;stroke-width:1.0;"/><text fill="#000000" font-family="sans-serif" font-size="14" lengthAdjust="spacing" textLength="156" x="299.5" y="489.7988">getActivePlayer(): Player</text><ellipse cx="290.5" cy="503.1797" fill="#84BE84" rx="3" ry="3" style="stroke:#038048;stroke-width:1.0;"/><text fill="#000000" font-family="sans-serif" font-size="14" lengthAdjust="spacing" textLength="98" x="299.5" y="507.4082">setUserPlayer()</text><ellipse cx="290.5" cy="520.7891" fill="#84BE84" rx="3" ry="3" style="stroke:#038048;stroke-width:1.0;"/><text fill="#000000" font-family="sans-serif" font-size="14" lengthAdjust="spacing" textLength="175" x="299.5" y="525.0176">setRandomMachinePlayer()</text><rect fill="#F24D5C" height="6" style="stroke:#C82930;stroke-width:1.0;" width="6" x="287.5" y="535.3984"/><text fill="#000000" font-family="sans-serif" font-size="14" lengthAdjust="spacing" textLength="114" x="299.5" y="542.627">addPlayer(Player)</text></g><!--class Line--><g id="elem_Line"><rect codeLine="5" fill="#F1F1F1" height="188.875" id="Line" rx="2.5" ry="2.5" style="stroke:#181818;stroke-width:0.5;" width="223" x="49.5" y="1178"/><ellipse cx="143.25" cy="1194" fill="#ADD1B2" rx="11" ry="11" style="stroke:#181818;stroke-width:1.0;"/><path d="M146.0156,1189.875 Q146.1719,1189.6563 146.3594,1189.5469 Q146.5469,1189.4375 146.7656,1189.4375 Q147.1406,1189.4375 147.375,1189.7031 Q147.6094,1189.9531 147.6094,1190.5625 L147.6094,1192.0156 Q147.6094,1192.625 147.375,1192.8906 Q147.1406,1193.1563 146.7656,1193.1563 Q146.4219,1193.1563 146.2188,1192.9531 Q146.0156,1192.7656 145.9063,1192.25 Q145.8594,1191.8906 145.6719,1191.7031 Q145.3438,1191.3281 144.7344,1191.1094 Q144.125,1190.8906 143.5,1190.8906 Q142.7344,1190.8906 142.0938,1191.2188 Q141.4688,1191.5469 140.9688,1192.2969 Q140.4844,1193.0469 140.4844,1194.0781 L140.4844,1195.1719 Q140.4844,1196.4063 141.375,1197.2344 Q142.2656,1198.0469 143.8594,1198.0469 Q144.7969,1198.0469 145.4531,1197.7969 Q145.8438,1197.6406 146.2656,1197.2031 Q146.5313,1196.9375 146.6719,1196.8594 Q146.8281,1196.7813 147.0313,1196.7813 Q147.3594,1196.7813 147.6094,1197.0469 Q147.875,1197.2969 147.875,1197.6406 Q147.875,1197.9844 147.5313,1198.3906 Q147.0313,1198.9688 146.2344,1199.2969 Q145.1563,1199.75 143.8594,1199.75 Q142.3438,1199.75 141.1406,1199.125 Q140.1563,1198.625 139.4688,1197.5625 Q138.7813,1196.4844 138.7813,1195.2031 L138.7813,1194.0469 Q138.7813,1192.7188 139.3906,1191.5781 Q140.0156,1190.4219 141.1094,1189.8125 Q142.2031,1189.1875 143.4375,1189.1875 Q144.1719,1189.1875 144.8125,1189.3594 Q145.4688,1189.5156 146.0156,1189.875 Z " fill="#000000"/><text fill="#000000" font-family="sans-serif" font-size="14" lengthAdjust="spacing" textLength="27" x="163.75" y="1199.7285">Line</text><line style="stroke:#181818;stroke-width:0.5;" x1="50.5" x2="271.5" y1="1210" y2="1210"/><ellipse cx="60.5" cy="1224.3047" fill="none" rx="3" ry="3" style="stroke:#038048;stroke-width:1.0;"/><text fill="#000000" font-family="sans-serif" font-size="14" lengthAdjust="spacing" text-decoration="underline" textLength="78" x="69.5" y="1228.5332">LENGTH: int</text><rect fill="none" height="6" style="stroke:#C82930;stroke-width:1.0;" width="6" x="57.5" y="1238.9141"/><text fill="#000000" font-family="sans-serif" font-size="14" lengthAdjust="spacing" textLength="113" x="69.5" y="1246.1426">origin: Coordinate</text><rect fill="none" height="6" style="stroke:#C82930;stroke-width:1.0;" width="6" x="57.5" y="1256.5234"/><text fill="#000000" font-family="sans-serif" font-size="14" lengthAdjust="spacing" textLength="164" x="69.5" y="1263.752">coordinates: Coordinate[ ]</text><rect fill="none" height="6" style="stroke:#C82930;stroke-width:1.0;" width="6" x="57.5" y="1274.1328"/><text fill="#000000" font-family="sans-serif" font-size="14" lengthAdjust="spacing" textLength="174" x="69.5" y="1281.3613">oppositeDirection: Direction</text><line style="stroke:#181818;stroke-width:0.5;" x1="50.5" x2="271.5" y1="1288.4375" y2="1288.4375"/><ellipse cx="60.5" cy="1302.7422" fill="#84BE84" rx="3" ry="3" style="stroke:#038048;stroke-width:1.0;"/><text fill="#000000" font-family="sans-serif" font-size="14" lengthAdjust="spacing" textLength="182" x="69.5" y="1306.9707">Line(coordinate: Coordinate)</text><ellipse cx="60.5" cy="1320.3516" fill="#84BE84" rx="3" ry="3" style="stroke:#038048;stroke-width:1.0;"/><text fill="#000000" font-family="sans-serif" font-size="14" lengthAdjust="spacing" textLength="147" x="69.5" y="1324.5801">set(direction: Direction)</text><ellipse cx="60.5" cy="1337.9609" fill="#84BE84" rx="3" ry="3" style="stroke:#038048;stroke-width:1.0;"/><text fill="#000000" font-family="sans-serif" font-size="14" lengthAdjust="spacing" textLength="93" x="69.5" y="1342.1895">shiftOpposite()</text><ellipse cx="60.5" cy="1355.5703" fill="#84BE84" rx="3" ry="3" style="stroke:#038048;stroke-width:1.0;"/><text fill="#000000" font-family="sans-serif" font-size="14" lengthAdjust="spacing" textLength="197" x="69.5" y="1359.7988">getCoordinates(): Coordinate[ ]</text></g><!--class Player--><g id="elem_Player"><rect codeLine="6" fill="#F1F1F1" height="171.2656" id="Player" rx="2.5" ry="2.5" style="stroke:#181818;stroke-width:0.5;" width="241" x="306.5" y="610"/><ellipse cx="402.75" cy="626" fill="#A9DCDF" rx="11" ry="11" style="stroke:#181818;stroke-width:1.0;"/><path d="M404.9375,627.7656 L400.7969,627.7656 L400.375,628.7969 L400.7969,628.7969 Q401.4063,628.7969 401.6719,629.0313 Q401.9375,629.2656 401.9375,629.6563 Q401.9375,630.0313 401.6719,630.2656 Q401.4063,630.5 400.7969,630.5 L398.5,630.5 Q397.8906,630.5 397.6406,630.2656 Q397.375,630.0313 397.375,629.6406 Q397.375,629.2656 397.6563,629.0313 Q397.9219,628.7813 398.5469,628.7969 L401.2188,622.1406 L400.1094,622.1406 Q399.5,622.1406 399.2344,621.9063 Q398.9688,621.6719 398.9688,621.2813 Q398.9688,620.9063 399.2344,620.6719 Q399.5,620.4375 400.1094,620.4375 L403.7813,620.4375 L407.1719,628.7969 Q407.7656,628.7969 407.9531,628.9375 Q408.3438,629.2031 408.3438,629.6563 Q408.3438,630.0313 408.0781,630.2656 Q407.8281,630.5 407.2188,630.5 L404.9219,630.5 Q404.3125,630.5 404.0469,630.2656 Q403.7813,630.0313 403.7813,629.6406 Q403.7813,629.2656 404.0469,629.0313 Q404.3125,628.7969 404.9219,628.7969 L405.3438,628.7969 L404.9375,627.7656 Z M404.2188,626.0625 L402.8594,622.6875 L401.4844,626.0625 L404.2188,626.0625 Z " fill="#000000"/><text fill="#000000" font-family="sans-serif" font-size="14" font-style="italic" lengthAdjust="spacing" textLength="40" x="423.25" y="631.7285">Player</text><line style="stroke:#181818;stroke-width:0.5;" x1="307.5" x2="546.5" y1="642" y2="642"/><rect fill="none" height="6" style="stroke:#C82930;stroke-width:1.0;" width="6" x="314.5" y="653.3047"/><text fill="#000000" font-family="sans-serif" font-size="14" lengthAdjust="spacing" textLength="73" x="326.5" y="660.5332">color: Color</text><rect fill="none" height="6" style="stroke:#C82930;stroke-width:1.0;" width="6" x="314.5" y="670.9141"/><text fill="#000000" font-family="sans-serif" font-size="14" lengthAdjust="spacing" textLength="83" x="326.5" y="678.1426">board: Board</text><line style="stroke:#181818;stroke-width:0.5;" x1="307.5" x2="546.5" y1="685.2188" y2="685.2188"/><rect fill="#F24D5C" height="6" style="stroke:#C82930;stroke-width:1.0;" width="6" x="314.5" y="696.5234"/><text fill="#000000" font-family="sans-serif" font-size="14" lengthAdjust="spacing" textLength="130" x="326.5" y="703.752">Player(Color, Board)</text><ellipse cx="317.5" cy="717.1328" fill="#84BE84" rx="3" ry="3" style="stroke:#038048;stroke-width:1.0;"/><text fill="#000000" font-family="sans-serif" font-size="14" lengthAdjust="spacing" textLength="106" x="326.5" y="721.3613">getColor(): Color</text><ellipse cx="317.5" cy="734.7422" fill="#84BE84" rx="3" ry="3" style="stroke:#038048;stroke-width:1.0;"/><text fill="#000000" font-family="sans-serif" font-size="14" lengthAdjust="spacing" textLength="215" x="326.5" y="738.9707">isCompleted(column: int): boolean</text><ellipse cx="317.5" cy="752.3516" fill="#84BE84" rx="3" ry="3" style="stroke:#038048;stroke-width:1.0;"/><text fill="#000000" font-family="sans-serif" font-size="14" lengthAdjust="spacing" textLength="147" x="326.5" y="756.5801">dropToken(column: int)</text><ellipse cx="317.5" cy="769.9609" fill="#84BE84" rx="3" ry="3" style="stroke:#038048;stroke-width:1.0;"/><text fill="#000000" font-family="sans-serif" font-size="14" font-style="italic" lengthAdjust="spacing" textLength="131" x="326.5" y="774.1895">accept(PlayerVisitor)</text></g><!--class UserPlayer--><g id="elem_UserPlayer"><rect codeLine="7" fill="#F1F1F1" height="83.2188" id="UserPlayer" rx="2.5" ry="2.5" style="stroke:#181818;stroke-width:0.5;" width="185" x="334.5" y="938"/><ellipse cx="388.25" cy="954" fill="#ADD1B2" rx="11" ry="11" style="stroke:#181818;stroke-width:1.0;"/><path d="M391.0156,949.875 Q391.1719,949.6563 391.3594,949.5469 Q391.5469,949.4375 391.7656,949.4375 Q392.1406,949.4375 392.375,949.7031 Q392.6094,949.9531 392.6094,950.5625 L392.6094,952.0156 Q392.6094,952.625 392.375,952.8906 Q392.1406,953.1563 391.7656,953.1563 Q391.4219,953.1563 391.2188,952.9531 Q391.0156,952.7656 390.9063,952.25 Q390.8594,951.8906 390.6719,951.7031 Q390.3438,951.3281 389.7344,951.1094 Q389.125,950.8906 388.5,950.8906 Q387.7344,950.8906 387.0938,951.2188 Q386.4688,951.5469 385.9688,952.2969 Q385.4844,953.0469 385.4844,954.0781 L385.4844,955.1719 Q385.4844,956.4063 386.375,957.2344 Q387.2656,958.0469 388.8594,958.0469 Q389.7969,958.0469 390.4531,957.7969 Q390.8438,957.6406 391.2656,957.2031 Q391.5313,956.9375 391.6719,956.8594 Q391.8281,956.7813 392.0313,956.7813 Q392.3594,956.7813 392.6094,957.0469 Q392.875,957.2969 392.875,957.6406 Q392.875,957.9844 392.5313,958.3906 Q392.0313,958.9688 391.2344,959.2969 Q390.1563,959.75 388.8594,959.75 Q387.3438,959.75 386.1406,959.125 Q385.1563,958.625 384.4688,957.5625 Q383.7813,956.4844 383.7813,955.2031 L383.7813,954.0469 Q383.7813,952.7188 384.3906,951.5781 Q385.0156,950.4219 386.1094,949.8125 Q387.2031,949.1875 388.4375,949.1875 Q389.1719,949.1875 389.8125,949.3594 Q390.4688,949.5156 391.0156,949.875 Z " fill="#000000"/><text fill="#000000" font-family="sans-serif" font-size="14" lengthAdjust="spacing" textLength="69" x="408.75" y="959.7285">UserPlayer</text><line style="stroke:#181818;stroke-width:0.5;" x1="335.5" x2="518.5" y1="970" y2="970"/><line style="stroke:#181818;stroke-width:0.5;" x1="335.5" x2="518.5" y1="978" y2="978"/><ellipse cx="345.5" cy="992.3047" fill="#84BE84" rx="3" ry="3" style="stroke:#038048;stroke-width:1.0;"/><text fill="#000000" font-family="sans-serif" font-size="14" lengthAdjust="spacing" textLength="159" x="354.5" y="996.5332">UserPlayer(Color, Board)</text><ellipse cx="345.5" cy="1009.9141" fill="#84BE84" rx="3" ry="3" style="stroke:#038048;stroke-width:1.0;"/><text fill="#000000" font-family="sans-serif" font-size="14" lengthAdjust="spacing" textLength="109" x="354.5" y="1014.1426">accept(Turnview)</text></g><!--class MachinePlayer--><g id="elem_MachinePlayer"><rect codeLine="8" fill="#F1F1F1" height="100.8281" id="MachinePlayer" rx="2.5" ry="2.5" style="stroke:#181818;stroke-width:0.5;" width="209" x="554.5" y="929"/><ellipse cx="607.75" cy="945" fill="#A9DCDF" rx="11" ry="11" style="stroke:#181818;stroke-width:1.0;"/><path d="M609.9375,946.7656 L605.7969,946.7656 L605.375,947.7969 L605.7969,947.7969 Q606.4063,947.7969 606.6719,948.0313 Q606.9375,948.2656 606.9375,948.6563 Q606.9375,949.0313 606.6719,949.2656 Q606.4063,949.5 605.7969,949.5 L603.5,949.5 Q602.8906,949.5 602.6406,949.2656 Q602.375,949.0313 602.375,948.6406 Q602.375,948.2656 602.6563,948.0313 Q602.9219,947.7813 603.5469,947.7969 L606.2188,941.1406 L605.1094,941.1406 Q604.5,941.1406 604.2344,940.9063 Q603.9688,940.6719 603.9688,940.2813 Q603.9688,939.9063 604.2344,939.6719 Q604.5,939.4375 605.1094,939.4375 L608.7813,939.4375 L612.1719,947.7969 Q612.7656,947.7969 612.9531,947.9375 Q613.3438,948.2031 613.3438,948.6563 Q613.3438,949.0313 613.0781,949.2656 Q612.8281,949.5 612.2188,949.5 L609.9219,949.5 Q609.3125,949.5 609.0469,949.2656 Q608.7813,949.0313 608.7813,948.6406 Q608.7813,948.2656 609.0469,948.0313 Q609.3125,947.7969 609.9219,947.7969 L610.3438,947.7969 L609.9375,946.7656 Z M609.2188,945.0625 L607.8594,941.6875 L606.4844,945.0625 L609.2188,945.0625 Z " fill="#000000"/><text fill="#000000" font-family="sans-serif" font-size="14" font-style="italic" lengthAdjust="spacing" textLength="94" x="628.25" y="950.7285">MachinePlayer</text><line style="stroke:#181818;stroke-width:0.5;" x1="555.5" x2="762.5" y1="961" y2="961"/><line style="stroke:#181818;stroke-width:0.5;" x1="555.5" x2="762.5" y1="969" y2="969"/><ellipse cx="565.5" cy="983.3047" fill="#84BE84" rx="3" ry="3" style="stroke:#038048;stroke-width:1.0;"/><text fill="#000000" font-family="sans-serif" font-size="14" lengthAdjust="spacing" textLength="183" x="574.5" y="987.5332">MachinePlayer(Color, Board)</text><ellipse cx="565.5" cy="1000.9141" fill="#84BE84" rx="3" ry="3" style="stroke:#038048;stroke-width:1.0;"/><text fill="#000000" font-family="sans-serif" font-size="14" font-style="italic" lengthAdjust="spacing" textLength="111" x="574.5" y="1005.1426">accept(TurnView)</text><ellipse cx="565.5" cy="1018.5234" fill="#84BE84" rx="3" ry="3" style="stroke:#038048;stroke-width:1.0;"/><text fill="#000000" font-family="sans-serif" font-size="14" font-style="italic" lengthAdjust="spacing" textLength="101" x="574.5" y="1022.752">getColumn(): int</text></g><!--class RandomMachinePlayer--><g id="elem_RandomMachinePlayer"><rect codeLine="9" fill="#F1F1F1" height="100.8281" id="RandomMachinePlayer" rx="2.5" ry="2.5" style="stroke:#181818;stroke-width:0.5;" width="262" x="499" y="1222"/><ellipse cx="552.75" cy="1238" fill="#ADD1B2" rx="11" ry="11" style="stroke:#181818;stroke-width:1.0;"/><path d="M555.5156,1233.875 Q555.6719,1233.6563 555.8594,1233.5469 Q556.0469,1233.4375 556.2656,1233.4375 Q556.6406,1233.4375 556.875,1233.7031 Q557.1094,1233.9531 557.1094,1234.5625 L557.1094,1236.0156 Q557.1094,1236.625 556.875,1236.8906 Q556.6406,1237.1563 556.2656,1237.1563 Q555.9219,1237.1563 555.7188,1236.9531 Q555.5156,1236.7656 555.4063,1236.25 Q555.3594,1235.8906 555.1719,1235.7031 Q554.8438,1235.3281 554.2344,1235.1094 Q553.625,1234.8906 553,1234.8906 Q552.2344,1234.8906 551.5938,1235.2188 Q550.9688,1235.5469 550.4688,1236.2969 Q549.9844,1237.0469 549.9844,1238.0781 L549.9844,1239.1719 Q549.9844,1240.4063 550.875,1241.2344 Q551.7656,1242.0469 553.3594,1242.0469 Q554.2969,1242.0469 554.9531,1241.7969 Q555.3438,1241.6406 555.7656,1241.2031 Q556.0313,1240.9375 556.1719,1240.8594 Q556.3281,1240.7813 556.5313,1240.7813 Q556.8594,1240.7813 557.1094,1241.0469 Q557.375,1241.2969 557.375,1241.6406 Q557.375,1241.9844 557.0313,1242.3906 Q556.5313,1242.9688 555.7344,1243.2969 Q554.6563,1243.75 553.3594,1243.75 Q551.8438,1243.75 550.6406,1243.125 Q549.6563,1242.625 548.9688,1241.5625 Q548.2813,1240.4844 548.2813,1239.2031 L548.2813,1238.0469 Q548.2813,1236.7188 548.8906,1235.5781 Q549.5156,1234.4219 550.6094,1233.8125 Q551.7031,1233.1875 552.9375,1233.1875 Q553.6719,1233.1875 554.3125,1233.3594 Q554.9688,1233.5156 555.5156,1233.875 Z " fill="#000000"/><text fill="#000000" font-family="sans-serif" font-size="14" lengthAdjust="spacing" textLength="146" x="573.25" y="1243.7285">RandomMachinePlayer</text><line style="stroke:#181818;stroke-width:0.5;" x1="500" x2="760" y1="1254" y2="1254"/><line style="stroke:#181818;stroke-width:0.5;" x1="500" x2="760" y1="1262" y2="1262"/><ellipse cx="510" cy="1276.3047" fill="#84BE84" rx="3" ry="3" style="stroke:#038048;stroke-width:1.0;"/><text fill="#000000" font-family="sans-serif" font-size="14" lengthAdjust="spacing" textLength="236" x="519" y="1280.5332">RandomMachinePlayer(Color, Board)</text><ellipse cx="510" cy="1293.9141" fill="#84BE84" rx="3" ry="3" style="stroke:#038048;stroke-width:1.0;"/><text fill="#000000" font-family="sans-serif" font-size="14" lengthAdjust="spacing" textLength="111" x="519" y="1298.1426">accept(TurnView)</text><ellipse cx="510" cy="1311.5234" fill="#84BE84" rx="3" ry="3" style="stroke:#038048;stroke-width:1.0;"/><text fill="#000000" font-family="sans-serif" font-size="14" lengthAdjust="spacing" textLength="101" x="519" y="1315.752">getColumn(): int</text></g><!--class Color--><g id="elem_Color"><rect codeLine="11" fill="#F1F1F1" height="48" id="Color" rx="2.5" ry="2.5" style="stroke:#181818;stroke-width:0.5;" width="104" x="799" y="955.5"/><ellipse cx="814" cy="971.5" fill="#EB937F" rx="11" ry="11" style="stroke:#181818;stroke-width:1.0;"/><path d="M812.8594,972.2969 L812.8594,974.7969 L817.1875,974.7969 L817.1875,973.875 Q817.1875,973.2656 817.4219,973 Q817.6719,972.7344 818.0469,972.7344 Q818.4219,972.7344 818.6563,973 Q818.8906,973.2656 818.8906,973.875 L818.8906,976.5 L810.8906,976.5 Q810.2656,976.5 810,976.2656 Q809.75,976.0313 809.75,975.6406 Q809.75,975.2656 810.0156,975.0313 Q810.2813,974.7969 810.8906,974.7969 L811.1563,974.7969 L811.1563,968.1406 L810.8906,968.1406 Q810.2656,968.1406 810,967.9063 Q809.75,967.6719 809.75,967.2813 Q809.75,966.9063 810,966.6719 Q810.2656,966.4375 810.8906,966.4375 L818.5156,966.4375 L818.5156,969.0313 Q818.5156,969.6406 818.2813,969.9063 Q818.0625,970.1563 817.6719,970.1563 Q817.2969,970.1563 817.0625,969.9063 Q816.8281,969.6406 816.8281,969.0313 L816.8281,968.1406 L812.8594,968.1406 L812.8594,970.5938 L814.3438,970.5938 Q814.3438,969.9375 814.4688,969.75 Q814.7344,969.3438 815.2031,969.3438 Q815.5781,969.3438 815.8125,969.6094 Q816.0469,969.8594 816.0469,970.4688 L816.0469,972.4375 Q816.0469,972.9844 815.9219,973.1719 Q815.6563,973.5625 815.2031,973.5625 Q814.7344,973.5625 814.4688,973.1563 Q814.3438,972.9688 814.3438,972.2969 L812.8594,972.2969 Z " fill="#000000"/><text fill="#000000" font-family="sans-serif" font-size="14" lengthAdjust="spacing" textLength="72" x="828" y="977.2285">types.Color</text><line style="stroke:#181818;stroke-width:0.5;" x1="800" x2="902" y1="987.5" y2="987.5"/><line style="stroke:#181818;stroke-width:0.5;" x1="800" x2="902" y1="995.5" y2="995.5"/></g><!--class Direction--><g id="elem_Direction"><rect codeLine="12" fill="#F1F1F1" height="48" id="Direction" rx="2.5" ry="2.5" style="stroke:#181818;stroke-width:0.5;" width="117" x="796.5" y="1248.5"/><ellipse cx="811.5" cy="1264.5" fill="#ADD1B2" rx="11" ry="11" style="stroke:#181818;stroke-width:1.0;"/><path d="M814.2656,1260.375 Q814.4219,1260.1563 814.6094,1260.0469 Q814.7969,1259.9375 815.0156,1259.9375 Q815.3906,1259.9375 815.625,1260.2031 Q815.8594,1260.4531 815.8594,1261.0625 L815.8594,1262.5156 Q815.8594,1263.125 815.625,1263.3906 Q815.3906,1263.6563 815.0156,1263.6563 Q814.6719,1263.6563 814.4688,1263.4531 Q814.2656,1263.2656 814.1563,1262.75 Q814.1094,1262.3906 813.9219,1262.2031 Q813.5938,1261.8281 812.9844,1261.6094 Q812.375,1261.3906 811.75,1261.3906 Q810.9844,1261.3906 810.3438,1261.7188 Q809.7188,1262.0469 809.2188,1262.7969 Q808.7344,1263.5469 808.7344,1264.5781 L808.7344,1265.6719 Q808.7344,1266.9063 809.625,1267.7344 Q810.5156,1268.5469 812.1094,1268.5469 Q813.0469,1268.5469 813.7031,1268.2969 Q814.0938,1268.1406 814.5156,1267.7031 Q814.7813,1267.4375 814.9219,1267.3594 Q815.0781,1267.2813 815.2813,1267.2813 Q815.6094,1267.2813 815.8594,1267.5469 Q816.125,1267.7969 816.125,1268.1406 Q816.125,1268.4844 815.7813,1268.8906 Q815.2813,1269.4688 814.4844,1269.7969 Q813.4063,1270.25 812.1094,1270.25 Q810.5938,1270.25 809.3906,1269.625 Q808.4063,1269.125 807.7188,1268.0625 Q807.0313,1266.9844 807.0313,1265.7031 L807.0313,1264.5469 Q807.0313,1263.2188 807.6406,1262.0781 Q808.2656,1260.9219 809.3594,1260.3125 Q810.4531,1259.6875 811.6875,1259.6875 Q812.4219,1259.6875 813.0625,1259.8594 Q813.7188,1260.0156 814.2656,1260.375 Z " fill="#000000"/><text fill="#000000" font-family="sans-serif" font-size="14" lengthAdjust="spacing" textLength="85" x="825.5" y="1270.2285">utils.Direction</text><line style="stroke:#181818;stroke-width:0.5;" x1="797.5" x2="912.5" y1="1280.5" y2="1280.5"/><line style="stroke:#181818;stroke-width:0.5;" x1="797.5" x2="912.5" y1="1288.5" y2="1288.5"/></g><!--class Coordinate--><g id="elem_Coordinate"><rect codeLine="14" fill="#F1F1F1" height="48" id="Coordinate" rx="2.5" ry="2.5" style="stroke:#181818;stroke-width:0.5;" width="131" x="789.5" y="1427"/><ellipse cx="804.5" cy="1443" fill="#ADD1B2" rx="11" ry="11" style="stroke:#181818;stroke-width:1.0;"/><path d="M807.2656,1438.875 Q807.4219,1438.6563 807.6094,1438.5469 Q807.7969,1438.4375 808.0156,1438.4375 Q808.3906,1438.4375 808.625,1438.7031 Q808.8594,1438.9531 808.8594,1439.5625 L808.8594,1441.0156 Q808.8594,1441.625 808.625,1441.8906 Q808.3906,1442.1563 808.0156,1442.1563 Q807.6719,1442.1563 807.4688,1441.9531 Q807.2656,1441.7656 807.1563,1441.25 Q807.1094,1440.8906 806.9219,1440.7031 Q806.5938,1440.3281 805.9844,1440.1094 Q805.375,1439.8906 804.75,1439.8906 Q803.9844,1439.8906 803.3438,1440.2188 Q802.7188,1440.5469 802.2188,1441.2969 Q801.7344,1442.0469 801.7344,1443.0781 L801.7344,1444.1719 Q801.7344,1445.4063 802.625,1446.2344 Q803.5156,1447.0469 805.1094,1447.0469 Q806.0469,1447.0469 806.7031,1446.7969 Q807.0938,1446.6406 807.5156,1446.2031 Q807.7813,1445.9375 807.9219,1445.8594 Q808.0781,1445.7813 808.2813,1445.7813 Q808.6094,1445.7813 808.8594,1446.0469 Q809.125,1446.2969 809.125,1446.6406 Q809.125,1446.9844 808.7813,1447.3906 Q808.2813,1447.9688 807.4844,1448.2969 Q806.4063,1448.75 805.1094,1448.75 Q803.5938,1448.75 802.3906,1448.125 Q801.4063,1447.625 800.7188,1446.5625 Q800.0313,1445.4844 800.0313,1444.2031 L800.0313,1443.0469 Q800.0313,1441.7188 800.6406,1440.5781 Q801.2656,1439.4219 802.3594,1438.8125 Q803.4531,1438.1875 804.6875,1438.1875 Q805.4219,1438.1875 806.0625,1438.3594 Q806.7188,1438.5156 807.2656,1438.875 Z " fill="#000000"/><text fill="#000000" font-family="sans-serif" font-size="14" lengthAdjust="spacing" textLength="99" x="818.5" y="1448.7285">utils.Coordinate</text><line style="stroke:#181818;stroke-width:0.5;" x1="790.5" x2="919.5" y1="1459" y2="1459"/><line style="stroke:#181818;stroke-width:0.5;" x1="790.5" x2="919.5" y1="1467" y2="1467"/></g><!--class ClosedInterval--><g id="elem_ClosedInterval"><rect fill="#F1F1F1" height="48" id="ClosedInterval" rx="2.5" ry="2.5" style="stroke:#181818;stroke-width:0.5;" width="122" x="794" y="1535"/><ellipse cx="809" cy="1551" fill="#ADD1B2" rx="11" ry="11" style="stroke:#181818;stroke-width:1.0;"/><path d="M811.7656,1546.875 Q811.9219,1546.6563 812.1094,1546.5469 Q812.2969,1546.4375 812.5156,1546.4375 Q812.8906,1546.4375 813.125,1546.7031 Q813.3594,1546.9531 813.3594,1547.5625 L813.3594,1549.0156 Q813.3594,1549.625 813.125,1549.8906 Q812.8906,1550.1563 812.5156,1550.1563 Q812.1719,1550.1563 811.9688,1549.9531 Q811.7656,1549.7656 811.6563,1549.25 Q811.6094,1548.8906 811.4219,1548.7031 Q811.0938,1548.3281 810.4844,1548.1094 Q809.875,1547.8906 809.25,1547.8906 Q808.4844,1547.8906 807.8438,1548.2188 Q807.2188,1548.5469 806.7188,1549.2969 Q806.2344,1550.0469 806.2344,1551.0781 L806.2344,1552.1719 Q806.2344,1553.4063 807.125,1554.2344 Q808.0156,1555.0469 809.6094,1555.0469 Q810.5469,1555.0469 811.2031,1554.7969 Q811.5938,1554.6406 812.0156,1554.2031 Q812.2813,1553.9375 812.4219,1553.8594 Q812.5781,1553.7813 812.7813,1553.7813 Q813.1094,1553.7813 813.3594,1554.0469 Q813.625,1554.2969 813.625,1554.6406 Q813.625,1554.9844 813.2813,1555.3906 Q812.7813,1555.9688 811.9844,1556.2969 Q810.9063,1556.75 809.6094,1556.75 Q808.0938,1556.75 806.8906,1556.125 Q805.9063,1555.625 805.2188,1554.5625 Q804.5313,1553.4844 804.5313,1552.2031 L804.5313,1551.0469 Q804.5313,1549.7188 805.1406,1548.5781 Q805.7656,1547.4219 806.8594,1546.8125 Q807.9531,1546.1875 809.1875,1546.1875 Q809.9219,1546.1875 810.5625,1546.3594 Q811.2188,1546.5156 811.7656,1546.875 Z " fill="#000000"/><text fill="#000000" font-family="sans-serif" font-size="14" lengthAdjust="spacing" textLength="90" x="823" y="1556.7285">ClosedInterval</text><line style="stroke:#181818;stroke-width:0.5;" x1="795" x2="915" y1="1567" y2="1567"/><line style="stroke:#181818;stroke-width:0.5;" x1="795" x2="915" y1="1575" y2="1575"/></g><!--reverse link Game to Board--><g id="link_Game_Board"><path codeLine="17" d="M262.8459,259.9612 C241.7359,408.8912 204.13,674.2 180.49,840.97 " fill="none" id="Game-backto-Board" style="stroke:#181818;stroke-width:1.0;"/><polygon fill="#181818" points="264.53,248.08,259.7275,253.4593,262.8459,259.9612,267.6484,254.582,264.53,248.08" style="stroke:#181818;stroke-width:1.0;"/></g><!--reverse link Game to Turn--><g id="link_Game_Turn"><path codeLine="18" d="M319.6556,259.5075 C326.5956,278.8875 329.87,288.04 336.99,307.93 " fill="none" id="Game-backto-Turn" style="stroke:#181818;stroke-width:1.0;"/><polygon fill="#181818" points="315.61,248.21,313.867,255.2073,319.6556,259.5075,321.3986,252.5102,315.61,248.21" style="stroke:#181818;stroke-width:1.0;"/></g><!--link Turn to Board--><g id="link_Turn_Board"><path codeLine="19" d="M316.32,550.47 C306.72,570.16 297.27,590.5 289,610 C257.2,684.97 228.9076,765.1213 205.8576,835.0813 " fill="none" id="Turn-to-Board" style="stroke:#181818;stroke-width:1.0;"/><polygon fill="#181818" points="203.98,840.78,210.5955,833.4837,205.5446,836.0311,202.9972,830.9803,203.98,840.78" style="stroke:#181818;stroke-width:1.0;"/></g><!--reverse link Turn to Player--><g id="link_Turn_Player"><path codeLine="20" d="M403.4668,562.0654 C407.0268,582.1254 408.56,590.75 411.93,609.68 " fill="none" id="Turn-backto-Player" style="stroke:#181818;stroke-width:1.0;"/><polygon fill="none" points="401.37,550.25,398.48,556.8566,403.4668,562.0654,406.3569,555.4587,401.37,550.25" style="stroke:#181818;stroke-width:1.0;"/></g><!--link Turn to Color--><g id="link_Turn_Color"><path codeLine="21" d="M480.86,516.71 C567.82,595.13 692.77,717.02 780,841 C806.28,878.35 826.5826,921.2254 838.8526,949.5154 " fill="none" id="Turn-to-Color" style="stroke:#181818;stroke-width:1.0;stroke-dasharray:7.0,7.0;"/><polygon fill="#181818" points="841.24,955.02,841.3285,945.1715,839.2505,950.4329,833.9891,948.3548,841.24,955.02" style="stroke:#181818;stroke-width:1.0;"/></g><!--link Player to Color--><g id="link_Player_Color"><path codeLine="22" d="M547.76,723.21 C621.95,744.71 714.92,781.41 780,841 C814.68,872.75 833.3199,919.6164 842.7899,949.7264 " fill="none" id="Player-to-Color" style="stroke:#181818;stroke-width:1.0;"/><polygon fill="#181818" points="844.59,955.45,845.7055,945.6645,843.0899,950.6803,838.0741,948.0647,844.59,955.45" style="stroke:#181818;stroke-width:1.0;"/></g><!--link Player to Board--><g id="link_Player_Board"><path codeLine="23" d="M347.19,781.11 C329.36,800.01 314.128,816.1663 294.858,836.5863 " fill="none" id="Player-to-Board" style="stroke:#181818;stroke-width:1.0;"/><polygon fill="#181818" points="290.74,840.95,299.8261,837.1497,294.1717,837.3136,294.0078,831.6591,290.74,840.95" style="stroke:#181818;stroke-width:1.0;"/></g><!--reverse link Player to UserPlayer--><g id="link_Player_UserPlayer"><path codeLine="24" d="M427,799.11 C427,851.02 427,897.15 427,937.95 " fill="none" id="Player-backto-UserPlayer" style="stroke:#181818;stroke-width:1.0;"/><polygon fill="none" points="427,781.11,421,799.11,433,799.11,427,781.11" style="stroke:#181818;stroke-width:1.0;"/></g><!--reverse link Player to MachinePlayer--><g id="link_Player_MachinePlayer"><path codeLine="25" d="M508.0463,795.0101 C547.6863,843.1901 584.54,888 618.11,928.8 " fill="none" id="Player-backto-MachinePlayer" style="stroke:#181818;stroke-width:1.0;"/><polygon fill="none" points="496.61,781.11,503.4129,798.8222,512.6796,791.198,496.61,781.11" style="stroke:#181818;stroke-width:1.0;"/></g><!--reverse link MachinePlayer to RandomMachinePlayer--><g id="link_MachinePlayer_RandomMachinePlayer"><path codeLine="26" d="M652.2659,1048.1014 C646.9459,1101.5114 640.31,1168.01 634.98,1221.52 " fill="none" id="MachinePlayer-backto-RandomMachinePlayer" style="stroke:#181818;stroke-width:1.0;"/><polygon fill="none" points="654.05,1030.19,646.2955,1047.5067,658.2364,1048.6961,654.05,1030.19" style="stroke:#181818;stroke-width:1.0;"/></g><!--link Board to Coordinate--><g id="link_Board_Coordinate"><path codeLine="27" d="M299.82,1109.6 C305.47,1112.67 311.21,1115.48 317,1118 C442.74,1172.64 838.89,1076.45 931,1178 C994.6,1248.12 972.63,1305.98 931,1391 C923.87,1405.55 916.1171,1414.0551 903.1671,1423.3351 " fill="none" id="Board-to-Coordinate" style="stroke:#181818;stroke-width:1.0;"/><polygon fill="#181818" points="898.29,1426.83,907.9355,1424.839,902.3542,1423.9176,903.2756,1418.3363,898.29,1426.83" style="stroke:#181818;stroke-width:1.0;"/></g><!--link Board to Line--><g id="link_Board_Line"><path codeLine="28" d="M161,1118.33 C161,1138.46 161,1152.78 161,1171.75 " fill="none" id="Board-to-Line" style="stroke:#181818;stroke-width:1.0;stroke-dasharray:7.0,7.0;"/><polygon fill="#181818" points="161,1177.75,165,1168.75,161,1172.75,157,1168.75,161,1177.75" style="stroke:#181818;stroke-width:1.0;"/></g><!--link Board to Direction--><g id="link_Board_Direction"><path codeLine="29" d="M299.93,1109.37 C305.55,1112.5 311.25,1115.39 317,1118 C505.98,1203.68 599.09,1076.38 780,1178 C808.85,1194.2 827.8308,1221.1305 840.3208,1243.1605 " fill="none" id="Board-to-Direction" style="stroke:#181818;stroke-width:1.0;stroke-dasharray:7.0,7.0;"/><polygon fill="#181818" points="843.28,1248.38,842.3208,1238.578,840.814,1244.0304,835.3615,1242.5236,843.28,1248.38" style="stroke:#181818;stroke-width:1.0;"/></g><!--link Direction to Coordinate--><g id="link_Direction_Coordinate"><path codeLine="30" d="M846.06,1296.57 C840.98,1330.4 840.089,1387.1565 845.169,1420.9865 " fill="none" id="Direction-to-Coordinate" style="stroke:#181818;stroke-width:1.0;"/><polygon fill="#181818" points="846.06,1426.92,848.6792,1417.4258,845.3175,1421.9754,840.7679,1418.6138,846.06,1426.92" style="stroke:#181818;stroke-width:1.0;"/></g><!--link Direction to Coordinate--><g id="link_Direction_Coordinate"><path codeLine="31" d="M864.46,1296.57 C869.85,1330.4 870.794,1387.1647 865.404,1420.9947 " fill="none" id="Direction-to-Coordinate-1" style="stroke:#181818;stroke-width:1.0;stroke-dasharray:7.0,7.0;"/><polygon fill="#181818" points="864.46,1426.92,869.8263,1418.6615,865.2467,1421.9823,861.9259,1417.4027,864.46,1426.92" style="stroke:#181818;stroke-width:1.0;"/></g><!--reverse link Coordinate to ClosedInterval--><g id="link_Coordinate_ClosedInterval"><path codeLine="32" d="M855,1487 C855,1504.66 855,1516.94 855,1534.68 " fill="none" id="Coordinate-backto-ClosedInterval" style="stroke:#181818;stroke-width:1.0;"/><polygon fill="#181818" points="855,1475,851,1481,855,1487,859,1481,855,1475" style="stroke:#181818;stroke-width:1.0;"/></g><!--SRC=[ZLLDJzmm4BtdLrYSTWlPKqzHXGJBbbRYInIegjMgCeuBLXCxYhsqYFBVE_wsYRVgPRD-xtayysRYa0vBYNhHqaukJd5FAv8YnmAFRGxTR4UU8sUCqmhVIpLYeb16NNNucOwv_5RIqU7bJUUOF4B8qjvhp5lHvuAAycsFbg8J8y8IxQddWSg5MU-vtITif4GnmOrWgnY42fWNBOKOMyQneeagWlyjgohj8tfNryZQ5vR6Els3wlhGaMOfW7JLcFLYSMWBgYngz1F01d30XpyG8x4sXNE_ifKLb6mrqTt1lZW7wlHCq-Cok5b5hz_iZOGjBn29ezgbPISaRJzpHSSdt3at6rJVwyEQr5C05TZLM6CTjA-VitbOZbHIbQmVg39EpkQDizGpJ7vbd5F3t0lHKSmJxYFZJ3xIjiH2p2CexSbvfoNEnKIXazICITRskK4lKc75o2lQlxWzFrvTVxywE_gsklxI8CQL5zM32IQRR4W0nycX-OxCB0-Q30mqzvYp1xQYRHWU6MbEVslp_79teLu1qU8K9Zi1BqnP5DIuRHrc7_FApp2GH3UgoL-1jrL6sCKnwWFa2WvqOG8Yn-HIz4D75JGQ3jtstFYQz3ngsr4CD-8dvPao4Rpu- -qL4q87vIgxOv8feGkCJcbvubkUUYvpiRHlJup-WZ3v6msItECys4GyoL97lZEH_w6r9aBLsaKzULMXlNfBgUjvHZisJhBPePjcOgybFpPolLblVAS31NUvEe46DjFh3MAQFp2S0V2tI01Yy_MxOmVWm1wIgE8u9R9ac4h2CbswVX9wUdDbeO4awlsi0-FAaaj2jWE3yD4DNqrHl-e7zPo8IwhmdcKosuTAVp-o- -ziTN5wyybsq96r6Da3urcBF4K295D-ZJPnzp08UDDe-F0qoMVAYVRrSnQ3fR7cGQHxtnQY98f7zaDTkWDd4JSUX4pjZPFc-XS0]--></g></svg>