<?xml version="1.0" encoding="us-ascii" standalone="no"?><svg xmlns="http://www.w3.org/2000/svg" xmlns:xlink="http://www.w3.org/1999/xlink" contentStyleType="text/css" height="1810px" preserveAspectRatio="none" style="width:1223px;height:1810px;background:#FFFFFF;" version="1.1" viewBox="0 0 1223 1810" width="1223px" zoomAndPan="magnify"><defs/><g><!--cluster models--><g id="cluster_models"><path d="M8.5,6 L60.5,6 A3.75,3.75 0 0 1 63,8.5 L70,29.6094 L847.5,29.6094 A2.5,2.5 0 0 1 850,32.1094 L850,1574.5 A2.5,2.5 0 0 1 847.5,1577 L8.5,1577 A2.5,2.5 0 0 1 6,1574.5 L6,8.5 A2.5,2.5 0 0 1 8.5,6 " fill="none" style="stroke:#000000;stroke-width:1.5;"/><line style="stroke:#000000;stroke-width:1.5;" x1="6" x2="70" y1="29.6094" y2="29.6094"/><text fill="#000000" font-family="sans-serif" font-size="14" font-weight="bold" lengthAdjust="spacing" textLength="51" x="10" y="22.5332">models</text></g><!--class Game--><g id="elem_Game"><rect codeLine="2" fill="#F1F1F1" height="206.4844" id="Game" rx="2.5" ry="2.5" style="stroke:#181818;stroke-width:0.5;" width="182" x="442" y="42"/><ellipse cx="509.75" cy="58" fill="#ADD1B2" rx="11" ry="11" style="stroke:#181818;stroke-width:1.0;"/><path d="M512.5156,53.875 Q512.6719,53.6563 512.8594,53.5469 Q513.0469,53.4375 513.2656,53.4375 Q513.6406,53.4375 513.875,53.7031 Q514.1094,53.9531 514.1094,54.5625 L514.1094,56.0156 Q514.1094,56.625 513.875,56.8906 Q513.6406,57.1563 513.2656,57.1563 Q512.9219,57.1563 512.7188,56.9531 Q512.5156,56.7656 512.4063,56.25 Q512.3594,55.8906 512.1719,55.7031 Q511.8438,55.3281 511.2344,55.1094 Q510.625,54.8906 510,54.8906 Q509.2344,54.8906 508.5938,55.2188 Q507.9688,55.5469 507.4688,56.2969 Q506.9844,57.0469 506.9844,58.0781 L506.9844,59.1719 Q506.9844,60.4063 507.875,61.2344 Q508.7656,62.0469 510.3594,62.0469 Q511.2969,62.0469 511.9531,61.7969 Q512.3438,61.6406 512.7656,61.2031 Q513.0313,60.9375 513.1719,60.8594 Q513.3281,60.7813 513.5313,60.7813 Q513.8594,60.7813 514.1094,61.0469 Q514.375,61.2969 514.375,61.6406 Q514.375,61.9844 514.0313,62.3906 Q513.5313,62.9688 512.7344,63.2969 Q511.6563,63.75 510.3594,63.75 Q508.8438,63.75 507.6406,63.125 Q506.6563,62.625 505.9688,61.5625 Q505.2813,60.4844 505.2813,59.2031 L505.2813,58.0469 Q505.2813,56.7188 505.8906,55.5781 Q506.5156,54.4219 507.6094,53.8125 Q508.7031,53.1875 509.9375,53.1875 Q510.6719,53.1875 511.3125,53.3594 Q511.9688,53.5156 512.5156,53.875 Z " fill="#000000"/><text fill="#000000" font-family="sans-serif" font-size="14" lengthAdjust="spacing" textLength="38" x="530.25" y="63.7285">Game</text><line style="stroke:#181818;stroke-width:0.5;" x1="443" x2="623" y1="74" y2="74"/><rect fill="none" height="6" style="stroke:#C82930;stroke-width:1.0;" width="6" x="450" y="85.3047"/><text fill="#000000" font-family="sans-serif" font-size="14" lengthAdjust="spacing" textLength="83" x="462" y="92.5332">board: Board</text><rect fill="none" height="6" style="stroke:#C82930;stroke-width:1.0;" width="6" x="450" y="102.9141"/><text fill="#000000" font-family="sans-serif" font-size="14" lengthAdjust="spacing" textLength="63" x="462" y="110.1426">turn: Turn</text><line style="stroke:#181818;stroke-width:0.5;" x1="443" x2="623" y1="117.2188" y2="117.2188"/><ellipse cx="453" cy="131.5234" fill="#84BE84" rx="3" ry="3" style="stroke:#038048;stroke-width:1.0;"/><text fill="#000000" font-family="sans-serif" font-size="14" lengthAdjust="spacing" textLength="48" x="462" y="135.752">Game()</text><ellipse cx="453" cy="149.1328" fill="#84BE84" rx="3" ry="3" style="stroke:#038048;stroke-width:1.0;"/><text fill="#000000" font-family="sans-serif" font-size="14" lengthAdjust="spacing" textLength="42" x="462" y="153.3613">reset()</text><ellipse cx="453" cy="166.7422" fill="#84BE84" rx="3" ry="3" style="stroke:#038048;stroke-width:1.0;"/><text fill="#000000" font-family="sans-serif" font-size="14" lengthAdjust="spacing" textLength="106" x="462" y="170.9707">getColor(): Color</text><ellipse cx="453" cy="184.3516" fill="#84BE84" rx="3" ry="3" style="stroke:#038048;stroke-width:1.0;"/><text fill="#000000" font-family="sans-serif" font-size="14" lengthAdjust="spacing" textLength="124" x="462" y="188.5801">isWinner(): boolean</text><ellipse cx="453" cy="201.9609" fill="#84BE84" rx="3" ry="3" style="stroke:#038048;stroke-width:1.0;"/><text fill="#000000" font-family="sans-serif" font-size="14" lengthAdjust="spacing" textLength="133" x="462" y="206.1895">isFinished(): boolean</text><ellipse cx="453" cy="219.5703" fill="#84BE84" rx="3" ry="3" style="stroke:#038048;stroke-width:1.0;"/><text fill="#000000" font-family="sans-serif" font-size="14" lengthAdjust="spacing" textLength="156" x="462" y="223.7988">getActivePlayer(): Player</text><ellipse cx="453" cy="237.1797" fill="#84BE84" rx="3" ry="3" style="stroke:#038048;stroke-width:1.0;"/><text fill="#000000" font-family="sans-serif" font-size="14" lengthAdjust="spacing" textLength="98" x="462" y="241.4082">getTurn(): Turn</text></g><!--class Board--><g id="elem_Board"><rect codeLine="3" fill="#F1F1F1" height="382.5781" id="Board" rx="2.5" ry="2.5" style="stroke:#181818;stroke-width:0.5;" width="277" x="336.5" y="876"/><ellipse cx="451.75" cy="892" fill="#ADD1B2" rx="11" ry="11" style="stroke:#181818;stroke-width:1.0;"/><path d="M454.5156,887.875 Q454.6719,887.6563 454.8594,887.5469 Q455.0469,887.4375 455.2656,887.4375 Q455.6406,887.4375 455.875,887.7031 Q456.1094,887.9531 456.1094,888.5625 L456.1094,890.0156 Q456.1094,890.625 455.875,890.8906 Q455.6406,891.1563 455.2656,891.1563 Q454.9219,891.1563 454.7188,890.9531 Q454.5156,890.7656 454.4063,890.25 Q454.3594,889.8906 454.1719,889.7031 Q453.8438,889.3281 453.2344,889.1094 Q452.625,888.8906 452,888.8906 Q451.2344,888.8906 450.5938,889.2188 Q449.9688,889.5469 449.4688,890.2969 Q448.9844,891.0469 448.9844,892.0781 L448.9844,893.1719 Q448.9844,894.4063 449.875,895.2344 Q450.7656,896.0469 452.3594,896.0469 Q453.2969,896.0469 453.9531,895.7969 Q454.3438,895.6406 454.7656,895.2031 Q455.0313,894.9375 455.1719,894.8594 Q455.3281,894.7813 455.5313,894.7813 Q455.8594,894.7813 456.1094,895.0469 Q456.375,895.2969 456.375,895.6406 Q456.375,895.9844 456.0313,896.3906 Q455.5313,896.9688 454.7344,897.2969 Q453.6563,897.75 452.3594,897.75 Q450.8438,897.75 449.6406,897.125 Q448.6563,896.625 447.9688,895.5625 Q447.2813,894.4844 447.2813,893.2031 L447.2813,892.0469 Q447.2813,890.7188 447.8906,889.5781 Q448.5156,888.4219 449.6094,887.8125 Q450.7031,887.1875 451.9375,887.1875 Q452.6719,887.1875 453.3125,887.3594 Q453.9688,887.5156 454.5156,887.875 Z " fill="#000000"/><text fill="#000000" font-family="sans-serif" font-size="14" lengthAdjust="spacing" textLength="38" x="472.25" y="897.7285">Board</text><line style="stroke:#181818;stroke-width:0.5;" x1="337.5" x2="612.5" y1="908" y2="908"/><rect fill="none" height="6" style="stroke:#C82930;stroke-width:1.0;" width="6" x="344.5" y="919.3047"/><text fill="#000000" font-family="sans-serif" font-size="14" lengthAdjust="spacing" textLength="96" x="356.5" y="926.5332">colors[][]: Color</text><rect fill="none" height="6" style="stroke:#C82930;stroke-width:1.0;" width="6" x="344.5" y="936.9141"/><text fill="#000000" font-family="sans-serif" font-size="14" lengthAdjust="spacing" textLength="131" x="356.5" y="944.1426">lastDrop: Coordinate</text><line style="stroke:#181818;stroke-width:0.5;" x1="337.5" x2="612.5" y1="951.2188" y2="951.2188"/><ellipse cx="347.5" cy="965.5234" fill="#84BE84" rx="3" ry="3" style="stroke:#038048;stroke-width:1.0;"/><text fill="#000000" font-family="sans-serif" font-size="14" lengthAdjust="spacing" textLength="48" x="356.5" y="969.752">Board()</text><ellipse cx="347.5" cy="983.1328" fill="#84BE84" rx="3" ry="3" style="stroke:#038048;stroke-width:1.0;"/><text fill="#000000" font-family="sans-serif" font-size="14" lengthAdjust="spacing" textLength="42" x="356.5" y="987.3613">reset()</text><ellipse cx="347.5" cy="1000.7422" fill="#84BE84" rx="3" ry="3" style="stroke:#038048;stroke-width:1.0;"/><text fill="#000000" font-family="sans-serif" font-size="14" lengthAdjust="spacing" textLength="185" x="356.5" y="1004.9707">dropToken(int column, Color)</text><ellipse cx="347.5" cy="1018.3516" fill="#84BE84" rx="3" ry="3" style="stroke:#038048;stroke-width:1.0;"/><text fill="#000000" font-family="sans-serif" font-size="14" lengthAdjust="spacing" textLength="203" x="356.5" y="1022.5801">isComplete(int column): boolean</text><ellipse cx="347.5" cy="1035.9609" fill="#84BE84" rx="3" ry="3" style="stroke:#038048;stroke-width:1.0;"/><text fill="#000000" font-family="sans-serif" font-size="14" lengthAdjust="spacing" textLength="139" x="356.5" y="1040.1895">isComplete(): boolean</text><ellipse cx="347.5" cy="1053.5703" fill="#84BE84" rx="3" ry="3" style="stroke:#038048;stroke-width:1.0;"/><text fill="#000000" font-family="sans-serif" font-size="14" lengthAdjust="spacing" textLength="133" x="356.5" y="1057.7988">isFinished(): boolean</text><ellipse cx="347.5" cy="1071.1797" fill="#84BE84" rx="3" ry="3" style="stroke:#038048;stroke-width:1.0;"/><text fill="#000000" font-family="sans-serif" font-size="14" lengthAdjust="spacing" textLength="124" x="356.5" y="1075.4082">isWinner(): boolean</text><ellipse cx="347.5" cy="1088.7891" fill="#84BE84" rx="3" ry="3" style="stroke:#038048;stroke-width:1.0;"/><text fill="#000000" font-family="sans-serif" font-size="14" lengthAdjust="spacing" textLength="162" x="356.5" y="1093.0176">isConnect4(line): boolean</text><ellipse cx="347.5" cy="1106.3984" fill="#84BE84" rx="3" ry="3" style="stroke:#038048;stroke-width:1.0;"/><text fill="#000000" font-family="sans-serif" font-size="14" lengthAdjust="spacing" textLength="251" x="356.5" y="1110.627">isOccupied(Coordinate, Color): boolean</text><ellipse cx="347.5" cy="1124.0078" fill="#84BE84" rx="3" ry="3" style="stroke:#038048;stroke-width:1.0;"/><text fill="#000000" font-family="sans-serif" font-size="14" lengthAdjust="spacing" textLength="188" x="356.5" y="1128.2363">isEmpty(Coordinate): boolean</text><ellipse cx="347.5" cy="1141.6172" fill="#84BE84" rx="3" ry="3" style="stroke:#038048;stroke-width:1.0;"/><text fill="#000000" font-family="sans-serif" font-size="14" lengthAdjust="spacing" textLength="186" x="356.5" y="1145.8457">isEmpty(column: int): boolean</text><ellipse cx="347.5" cy="1159.2266" fill="#84BE84" rx="3" ry="3" style="stroke:#038048;stroke-width:1.0;"/><text fill="#000000" font-family="sans-serif" font-size="14" lengthAdjust="spacing" textLength="176" x="356.5" y="1163.4551">getColor(Coordinate): Color</text><ellipse cx="347.5" cy="1176.8359" fill="#84BE84" rx="3" ry="3" style="stroke:#038048;stroke-width:1.0;"/><text fill="#000000" font-family="sans-serif" font-size="14" lengthAdjust="spacing" textLength="164" x="356.5" y="1181.0645">getLastDropColor(): Color</text><rect fill="#F24D5C" height="6" style="stroke:#C82930;stroke-width:1.0;" width="6" x="344.5" y="1191.4453"/><text fill="#000000" font-family="sans-serif" font-size="14" lengthAdjust="spacing" textLength="175" x="356.5" y="1198.6738">setColor(Coordinate, Color)</text><ellipse cx="347.5" cy="1212.0547" fill="#84BE84" rx="3" ry="3" style="stroke:#038048;stroke-width:1.0;"/><text fill="#000000" font-family="sans-serif" font-size="14" lengthAdjust="spacing" textLength="195" x="356.5" y="1216.2832">getUncompletedColumn(): int[ ]</text><ellipse cx="347.5" cy="1229.6641" fill="#84BE84" rx="3" ry="3" style="stroke:#038048;stroke-width:1.0;"/><text fill="#000000" font-family="sans-serif" font-size="14" lengthAdjust="spacing" textLength="150" x="356.5" y="1233.8926">removeTop(column: int)</text><rect fill="#F24D5C" height="6" style="stroke:#C82930;stroke-width:1.0;" width="6" x="344.5" y="1244.2734"/><text fill="#000000" font-family="sans-serif" font-size="14" lengthAdjust="spacing" textLength="201" x="356.5" y="1251.502">getTop(column: int): Coordinate</text></g><!--class Turn--><g id="elem_Turn"><rect codeLine="4" fill="#F1F1F1" height="259.3125" id="Turn" rx="2.5" ry="2.5" style="stroke:#181818;stroke-width:0.5;" width="201" x="544.5" y="308"/><ellipse cx="625.75" cy="324" fill="#ADD1B2" rx="11" ry="11" style="stroke:#181818;stroke-width:1.0;"/><path d="M628.5156,319.875 Q628.6719,319.6563 628.8594,319.5469 Q629.0469,319.4375 629.2656,319.4375 Q629.6406,319.4375 629.875,319.7031 Q630.1094,319.9531 630.1094,320.5625 L630.1094,322.0156 Q630.1094,322.625 629.875,322.8906 Q629.6406,323.1563 629.2656,323.1563 Q628.9219,323.1563 628.7188,322.9531 Q628.5156,322.7656 628.4063,322.25 Q628.3594,321.8906 628.1719,321.7031 Q627.8438,321.3281 627.2344,321.1094 Q626.625,320.8906 626,320.8906 Q625.2344,320.8906 624.5938,321.2188 Q623.9688,321.5469 623.4688,322.2969 Q622.9844,323.0469 622.9844,324.0781 L622.9844,325.1719 Q622.9844,326.4063 623.875,327.2344 Q624.7656,328.0469 626.3594,328.0469 Q627.2969,328.0469 627.9531,327.7969 Q628.3438,327.6406 628.7656,327.2031 Q629.0313,326.9375 629.1719,326.8594 Q629.3281,326.7813 629.5313,326.7813 Q629.8594,326.7813 630.1094,327.0469 Q630.375,327.2969 630.375,327.6406 Q630.375,327.9844 630.0313,328.3906 Q629.5313,328.9688 628.7344,329.2969 Q627.6563,329.75 626.3594,329.75 Q624.8438,329.75 623.6406,329.125 Q622.6563,328.625 621.9688,327.5625 Q621.2813,326.4844 621.2813,325.2031 L621.2813,324.0469 Q621.2813,322.7188 621.8906,321.5781 Q622.5156,320.4219 623.6094,319.8125 Q624.7031,319.1875 625.9375,319.1875 Q626.6719,319.1875 627.3125,319.3594 Q627.9688,319.5156 628.5156,319.875 Z " fill="#000000"/><text fill="#000000" font-family="sans-serif" font-size="14" lengthAdjust="spacing" textLength="30" x="646.25" y="329.7285">Turn</text><line style="stroke:#181818;stroke-width:0.5;" x1="545.5" x2="744.5" y1="340" y2="340"/><ellipse cx="555.5" cy="354.3047" fill="none" rx="3" ry="3" style="stroke:#038048;stroke-width:1.0;"/><text fill="#000000" font-family="sans-serif" font-size="14" lengthAdjust="spacing" text-decoration="underline" textLength="151" x="564.5" y="358.5332">NUMBER_PLAYERS: int</text><rect fill="none" height="6" style="stroke:#C82930;stroke-width:1.0;" width="6" x="552.5" y="368.9141"/><text fill="#000000" font-family="sans-serif" font-size="14" lengthAdjust="spacing" textLength="94" x="564.5" y="376.1426">players: Player</text><rect fill="none" height="6" style="stroke:#C82930;stroke-width:1.0;" width="6" x="552.5" y="386.5234"/><text fill="#000000" font-family="sans-serif" font-size="14" lengthAdjust="spacing" textLength="100" x="564.5" y="393.752">activePlayer: int</text><rect fill="none" height="6" style="stroke:#C82930;stroke-width:1.0;" width="6" x="552.5" y="404.1328"/><text fill="#000000" font-family="sans-serif" font-size="14" lengthAdjust="spacing" textLength="83" x="564.5" y="411.3613">board: Board</text><line style="stroke:#181818;stroke-width:0.5;" x1="545.5" x2="744.5" y1="418.4375" y2="418.4375"/><rect fill="#F24D5C" height="6" style="stroke:#C82930;stroke-width:1.0;" width="6" x="552.5" y="429.7422"/><text fill="#000000" font-family="sans-serif" font-size="14" lengthAdjust="spacing" textLength="78" x="564.5" y="436.9707">Turn(Board)</text><ellipse cx="555.5" cy="450.3516" fill="#84BE84" rx="3" ry="3" style="stroke:#038048;stroke-width:1.0;"/><text fill="#000000" font-family="sans-serif" font-size="14" lengthAdjust="spacing" textLength="136" x="564.5" y="454.5801">reset(int userPlayers)</text><ellipse cx="555.5" cy="467.9609" fill="#84BE84" rx="3" ry="3" style="stroke:#038048;stroke-width:1.0;"/><text fill="#000000" font-family="sans-serif" font-size="14" lengthAdjust="spacing" textLength="36" x="564.5" y="472.1895">next()</text><ellipse cx="555.5" cy="485.5703" fill="#84BE84" rx="3" ry="3" style="stroke:#038048;stroke-width:1.0;"/><text fill="#000000" font-family="sans-serif" font-size="14" lengthAdjust="spacing" textLength="156" x="564.5" y="489.7988">getActivePlayer(): Player</text><ellipse cx="555.5" cy="503.1797" fill="#84BE84" rx="3" ry="3" style="stroke:#038048;stroke-width:1.0;"/><text fill="#000000" font-family="sans-serif" font-size="14" lengthAdjust="spacing" textLength="98" x="564.5" y="507.4082">setUserPlayer()</text><ellipse cx="555.5" cy="520.7891" fill="#84BE84" rx="3" ry="3" style="stroke:#038048;stroke-width:1.0;"/><text fill="#000000" font-family="sans-serif" font-size="14" lengthAdjust="spacing" textLength="175" x="564.5" y="525.0176">setRandomMachinePlayer()</text><ellipse cx="555.5" cy="538.3984" fill="#84BE84" rx="3" ry="3" style="stroke:#038048;stroke-width:1.0;"/><text fill="#000000" font-family="sans-serif" font-size="14" lengthAdjust="spacing" textLength="116" x="564.5" y="542.627">setMinMaxPlayer()</text><rect fill="#F24D5C" height="6" style="stroke:#C82930;stroke-width:1.0;" width="6" x="552.5" y="553.0078"/><text fill="#000000" font-family="sans-serif" font-size="14" lengthAdjust="spacing" textLength="114" x="564.5" y="560.2363">addPlayer(Player)</text></g><!--class Line--><g id="elem_Line"><rect codeLine="5" fill="#F1F1F1" height="188.875" id="Line" rx="2.5" ry="2.5" style="stroke:#181818;stroke-width:0.5;" width="223" x="610.5" y="1345.5"/><ellipse cx="704.25" cy="1361.5" fill="#ADD1B2" rx="11" ry="11" style="stroke:#181818;stroke-width:1.0;"/><path d="M707.0156,1357.375 Q707.1719,1357.1563 707.3594,1357.0469 Q707.5469,1356.9375 707.7656,1356.9375 Q708.1406,1356.9375 708.375,1357.2031 Q708.6094,1357.4531 708.6094,1358.0625 L708.6094,1359.5156 Q708.6094,1360.125 708.375,1360.3906 Q708.1406,1360.6563 707.7656,1360.6563 Q707.4219,1360.6563 707.2188,1360.4531 Q707.0156,1360.2656 706.9063,1359.75 Q706.8594,1359.3906 706.6719,1359.2031 Q706.3438,1358.8281 705.7344,1358.6094 Q705.125,1358.3906 704.5,1358.3906 Q703.7344,1358.3906 703.0938,1358.7188 Q702.4688,1359.0469 701.9688,1359.7969 Q701.4844,1360.5469 701.4844,1361.5781 L701.4844,1362.6719 Q701.4844,1363.9063 702.375,1364.7344 Q703.2656,1365.5469 704.8594,1365.5469 Q705.7969,1365.5469 706.4531,1365.2969 Q706.8438,1365.1406 707.2656,1364.7031 Q707.5313,1364.4375 707.6719,1364.3594 Q707.8281,1364.2813 708.0313,1364.2813 Q708.3594,1364.2813 708.6094,1364.5469 Q708.875,1364.7969 708.875,1365.1406 Q708.875,1365.4844 708.5313,1365.8906 Q708.0313,1366.4688 707.2344,1366.7969 Q706.1563,1367.25 704.8594,1367.25 Q703.3438,1367.25 702.1406,1366.625 Q701.1563,1366.125 700.4688,1365.0625 Q699.7813,1363.9844 699.7813,1362.7031 L699.7813,1361.5469 Q699.7813,1360.2188 700.3906,1359.0781 Q701.0156,1357.9219 702.1094,1357.3125 Q703.2031,1356.6875 704.4375,1356.6875 Q705.1719,1356.6875 705.8125,1356.8594 Q706.4688,1357.0156 707.0156,1357.375 Z " fill="#000000"/><text fill="#000000" font-family="sans-serif" font-size="14" lengthAdjust="spacing" textLength="27" x="724.75" y="1367.2285">Line</text><line style="stroke:#181818;stroke-width:0.5;" x1="611.5" x2="832.5" y1="1377.5" y2="1377.5"/><ellipse cx="621.5" cy="1391.8047" fill="none" rx="3" ry="3" style="stroke:#038048;stroke-width:1.0;"/><text fill="#000000" font-family="sans-serif" font-size="14" lengthAdjust="spacing" text-decoration="underline" textLength="78" x="630.5" y="1396.0332">LENGTH: int</text><rect fill="none" height="6" style="stroke:#C82930;stroke-width:1.0;" width="6" x="618.5" y="1406.4141"/><text fill="#000000" font-family="sans-serif" font-size="14" lengthAdjust="spacing" textLength="113" x="630.5" y="1413.6426">origin: Coordinate</text><rect fill="none" height="6" style="stroke:#C82930;stroke-width:1.0;" width="6" x="618.5" y="1424.0234"/><text fill="#000000" font-family="sans-serif" font-size="14" lengthAdjust="spacing" textLength="164" x="630.5" y="1431.252">coordinates: Coordinate[ ]</text><rect fill="none" height="6" style="stroke:#C82930;stroke-width:1.0;" width="6" x="618.5" y="1441.6328"/><text fill="#000000" font-family="sans-serif" font-size="14" lengthAdjust="spacing" textLength="174" x="630.5" y="1448.8613">oppositeDirection: Direction</text><line style="stroke:#181818;stroke-width:0.5;" x1="611.5" x2="832.5" y1="1455.9375" y2="1455.9375"/><ellipse cx="621.5" cy="1470.2422" fill="#84BE84" rx="3" ry="3" style="stroke:#038048;stroke-width:1.0;"/><text fill="#000000" font-family="sans-serif" font-size="14" lengthAdjust="spacing" textLength="182" x="630.5" y="1474.4707">Line(coordinate: Coordinate)</text><ellipse cx="621.5" cy="1487.8516" fill="#84BE84" rx="3" ry="3" style="stroke:#038048;stroke-width:1.0;"/><text fill="#000000" font-family="sans-serif" font-size="14" lengthAdjust="spacing" textLength="147" x="630.5" y="1492.0801">set(direction: Direction)</text><ellipse cx="621.5" cy="1505.4609" fill="#84BE84" rx="3" ry="3" style="stroke:#038048;stroke-width:1.0;"/><text fill="#000000" font-family="sans-serif" font-size="14" lengthAdjust="spacing" textLength="93" x="630.5" y="1509.6895">shiftOpposite()</text><ellipse cx="621.5" cy="1523.0703" fill="#84BE84" rx="3" ry="3" style="stroke:#038048;stroke-width:1.0;"/><text fill="#000000" font-family="sans-serif" font-size="14" lengthAdjust="spacing" textLength="197" x="630.5" y="1527.2988">getCoordinates(): Coordinate[ ]</text></g><!--class Player--><g id="elem_Player"><rect codeLine="6" fill="#F1F1F1" height="188.875" id="Player" rx="2.5" ry="2.5" style="stroke:#181818;stroke-width:0.5;" width="241" x="586.5" y="627"/><ellipse cx="682.75" cy="643" fill="#A9DCDF" rx="11" ry="11" style="stroke:#181818;stroke-width:1.0;"/><path d="M684.9375,644.7656 L680.7969,644.7656 L680.375,645.7969 L680.7969,645.7969 Q681.4063,645.7969 681.6719,646.0313 Q681.9375,646.2656 681.9375,646.6563 Q681.9375,647.0313 681.6719,647.2656 Q681.4063,647.5 680.7969,647.5 L678.5,647.5 Q677.8906,647.5 677.6406,647.2656 Q677.375,647.0313 677.375,646.6406 Q677.375,646.2656 677.6563,646.0313 Q677.9219,645.7813 678.5469,645.7969 L681.2188,639.1406 L680.1094,639.1406 Q679.5,639.1406 679.2344,638.9063 Q678.9688,638.6719 678.9688,638.2813 Q678.9688,637.9063 679.2344,637.6719 Q679.5,637.4375 680.1094,637.4375 L683.7813,637.4375 L687.1719,645.7969 Q687.7656,645.7969 687.9531,645.9375 Q688.3438,646.2031 688.3438,646.6563 Q688.3438,647.0313 688.0781,647.2656 Q687.8281,647.5 687.2188,647.5 L684.9219,647.5 Q684.3125,647.5 684.0469,647.2656 Q683.7813,647.0313 683.7813,646.6406 Q683.7813,646.2656 684.0469,646.0313 Q684.3125,645.7969 684.9219,645.7969 L685.3438,645.7969 L684.9375,644.7656 Z M684.2188,643.0625 L682.8594,639.6875 L681.4844,643.0625 L684.2188,643.0625 Z " fill="#000000"/><text fill="#000000" font-family="sans-serif" font-size="14" font-style="italic" lengthAdjust="spacing" textLength="40" x="703.25" y="648.7285">Player</text><line style="stroke:#181818;stroke-width:0.5;" x1="587.5" x2="826.5" y1="659" y2="659"/><rect fill="none" height="6" style="stroke:#C82930;stroke-width:1.0;" width="6" x="594.5" y="670.3047"/><text fill="#000000" font-family="sans-serif" font-size="14" lengthAdjust="spacing" textLength="73" x="606.5" y="677.5332">color: Color</text><rect fill="none" height="6" style="stroke:#C82930;stroke-width:1.0;" width="6" x="594.5" y="687.9141"/><text fill="#000000" font-family="sans-serif" font-size="14" lengthAdjust="spacing" textLength="83" x="606.5" y="695.1426">board: Board</text><line style="stroke:#181818;stroke-width:0.5;" x1="587.5" x2="826.5" y1="702.2188" y2="702.2188"/><rect fill="#F24D5C" height="6" style="stroke:#C82930;stroke-width:1.0;" width="6" x="594.5" y="713.5234"/><text fill="#000000" font-family="sans-serif" font-size="14" lengthAdjust="spacing" textLength="130" x="606.5" y="720.752">Player(Color, Board)</text><ellipse cx="597.5" cy="734.1328" fill="#84BE84" rx="3" ry="3" style="stroke:#038048;stroke-width:1.0;"/><text fill="#000000" font-family="sans-serif" font-size="14" lengthAdjust="spacing" textLength="106" x="606.5" y="738.3613">getColor(): Color</text><ellipse cx="597.5" cy="751.7422" fill="#84BE84" rx="3" ry="3" style="stroke:#038048;stroke-width:1.0;"/><text fill="#000000" font-family="sans-serif" font-size="14" lengthAdjust="spacing" textLength="114" x="606.5" y="755.9707">getBoard(): Board</text><ellipse cx="597.5" cy="769.3516" fill="#84BE84" rx="3" ry="3" style="stroke:#038048;stroke-width:1.0;"/><text fill="#000000" font-family="sans-serif" font-size="14" lengthAdjust="spacing" textLength="215" x="606.5" y="773.5801">isCompleted(column: int): boolean</text><ellipse cx="597.5" cy="786.9609" fill="#84BE84" rx="3" ry="3" style="stroke:#038048;stroke-width:1.0;"/><text fill="#000000" font-family="sans-serif" font-size="14" lengthAdjust="spacing" textLength="147" x="606.5" y="791.1895">dropToken(column: int)</text><ellipse cx="597.5" cy="804.5703" fill="#84BE84" rx="3" ry="3" style="stroke:#038048;stroke-width:1.0;"/><text fill="#000000" font-family="sans-serif" font-size="14" font-style="italic" lengthAdjust="spacing" textLength="142" x="606.5" y="808.7988">getType(): PlayerType</text></g><!--class UserPlayer--><g id="elem_UserPlayer"><rect codeLine="7" fill="#F1F1F1" height="83.2188" id="UserPlayer" rx="2.5" ry="2.5" style="stroke:#181818;stroke-width:0.5;" width="185" x="648.5" y="1026"/><ellipse cx="702.25" cy="1042" fill="#ADD1B2" rx="11" ry="11" style="stroke:#181818;stroke-width:1.0;"/><path d="M705.0156,1037.875 Q705.1719,1037.6563 705.3594,1037.5469 Q705.5469,1037.4375 705.7656,1037.4375 Q706.1406,1037.4375 706.375,1037.7031 Q706.6094,1037.9531 706.6094,1038.5625 L706.6094,1040.0156 Q706.6094,1040.625 706.375,1040.8906 Q706.1406,1041.1563 705.7656,1041.1563 Q705.4219,1041.1563 705.2188,1040.9531 Q705.0156,1040.7656 704.9063,1040.25 Q704.8594,1039.8906 704.6719,1039.7031 Q704.3438,1039.3281 703.7344,1039.1094 Q703.125,1038.8906 702.5,1038.8906 Q701.7344,1038.8906 701.0938,1039.2188 Q700.4688,1039.5469 699.9688,1040.2969 Q699.4844,1041.0469 699.4844,1042.0781 L699.4844,1043.1719 Q699.4844,1044.4063 700.375,1045.2344 Q701.2656,1046.0469 702.8594,1046.0469 Q703.7969,1046.0469 704.4531,1045.7969 Q704.8438,1045.6406 705.2656,1045.2031 Q705.5313,1044.9375 705.6719,1044.8594 Q705.8281,1044.7813 706.0313,1044.7813 Q706.3594,1044.7813 706.6094,1045.0469 Q706.875,1045.2969 706.875,1045.6406 Q706.875,1045.9844 706.5313,1046.3906 Q706.0313,1046.9688 705.2344,1047.2969 Q704.1563,1047.75 702.8594,1047.75 Q701.3438,1047.75 700.1406,1047.125 Q699.1563,1046.625 698.4688,1045.5625 Q697.7813,1044.4844 697.7813,1043.2031 L697.7813,1042.0469 Q697.7813,1040.7188 698.3906,1039.5781 Q699.0156,1038.4219 700.1094,1037.8125 Q701.2031,1037.1875 702.4375,1037.1875 Q703.1719,1037.1875 703.8125,1037.3594 Q704.4688,1037.5156 705.0156,1037.875 Z " fill="#000000"/><text fill="#000000" font-family="sans-serif" font-size="14" lengthAdjust="spacing" textLength="69" x="722.75" y="1047.7285">UserPlayer</text><line style="stroke:#181818;stroke-width:0.5;" x1="649.5" x2="832.5" y1="1058" y2="1058"/><line style="stroke:#181818;stroke-width:0.5;" x1="649.5" x2="832.5" y1="1066" y2="1066"/><ellipse cx="659.5" cy="1080.3047" fill="#84BE84" rx="3" ry="3" style="stroke:#038048;stroke-width:1.0;"/><text fill="#000000" font-family="sans-serif" font-size="14" lengthAdjust="spacing" textLength="159" x="668.5" y="1084.5332">UserPlayer(Color, Board)</text><ellipse cx="659.5" cy="1097.9141" fill="#84BE84" rx="3" ry="3" style="stroke:#038048;stroke-width:1.0;"/><text fill="#000000" font-family="sans-serif" font-size="14" lengthAdjust="spacing" textLength="142" x="668.5" y="1102.1426">getType(): PlayerType</text></g><!--class MachinePlayer--><g id="elem_MachinePlayer"><rect codeLine="8" fill="#F1F1F1" height="83.2188" id="MachinePlayer" rx="2.5" ry="2.5" style="stroke:#181818;stroke-width:0.5;" width="209" x="92.5" y="1026"/><ellipse cx="145.75" cy="1042" fill="#A9DCDF" rx="11" ry="11" style="stroke:#181818;stroke-width:1.0;"/><path d="M147.9375,1043.7656 L143.7969,1043.7656 L143.375,1044.7969 L143.7969,1044.7969 Q144.4063,1044.7969 144.6719,1045.0313 Q144.9375,1045.2656 144.9375,1045.6563 Q144.9375,1046.0313 144.6719,1046.2656 Q144.4063,1046.5 143.7969,1046.5 L141.5,1046.5 Q140.8906,1046.5 140.6406,1046.2656 Q140.375,1046.0313 140.375,1045.6406 Q140.375,1045.2656 140.6563,1045.0313 Q140.9219,1044.7813 141.5469,1044.7969 L144.2188,1038.1406 L143.1094,1038.1406 Q142.5,1038.1406 142.2344,1037.9063 Q141.9688,1037.6719 141.9688,1037.2813 Q141.9688,1036.9063 142.2344,1036.6719 Q142.5,1036.4375 143.1094,1036.4375 L146.7813,1036.4375 L150.1719,1044.7969 Q150.7656,1044.7969 150.9531,1044.9375 Q151.3438,1045.2031 151.3438,1045.6563 Q151.3438,1046.0313 151.0781,1046.2656 Q150.8281,1046.5 150.2188,1046.5 L147.9219,1046.5 Q147.3125,1046.5 147.0469,1046.2656 Q146.7813,1046.0313 146.7813,1045.6406 Q146.7813,1045.2656 147.0469,1045.0313 Q147.3125,1044.7969 147.9219,1044.7969 L148.3438,1044.7969 L147.9375,1043.7656 Z M147.2188,1042.0625 L145.8594,1038.6875 L144.4844,1042.0625 L147.2188,1042.0625 Z " fill="#000000"/><text fill="#000000" font-family="sans-serif" font-size="14" font-style="italic" lengthAdjust="spacing" textLength="94" x="166.25" y="1047.7285">MachinePlayer</text><line style="stroke:#181818;stroke-width:0.5;" x1="93.5" x2="300.5" y1="1058" y2="1058"/><line style="stroke:#181818;stroke-width:0.5;" x1="93.5" x2="300.5" y1="1066" y2="1066"/><ellipse cx="103.5" cy="1080.3047" fill="#84BE84" rx="3" ry="3" style="stroke:#038048;stroke-width:1.0;"/><text fill="#000000" font-family="sans-serif" font-size="14" lengthAdjust="spacing" textLength="183" x="112.5" y="1084.5332">MachinePlayer(Color, Board)</text><ellipse cx="103.5" cy="1097.9141" fill="#84BE84" rx="3" ry="3" style="stroke:#038048;stroke-width:1.0;"/><text fill="#000000" font-family="sans-serif" font-size="14" font-style="italic" lengthAdjust="spacing" textLength="101" x="112.5" y="1102.1426">getColumn(): int</text></g><!--class RandomMachinePlayer--><g id="elem_RandomMachinePlayer"><rect codeLine="9" fill="#F1F1F1" height="100.8281" id="RandomMachinePlayer" rx="2.5" ry="2.5" style="stroke:#181818;stroke-width:0.5;" width="262" x="313" y="1389.5"/><ellipse cx="366.75" cy="1405.5" fill="#ADD1B2" rx="11" ry="11" style="stroke:#181818;stroke-width:1.0;"/><path d="M369.5156,1401.375 Q369.6719,1401.1563 369.8594,1401.0469 Q370.0469,1400.9375 370.2656,1400.9375 Q370.6406,1400.9375 370.875,1401.2031 Q371.1094,1401.4531 371.1094,1402.0625 L371.1094,1403.5156 Q371.1094,1404.125 370.875,1404.3906 Q370.6406,1404.6563 370.2656,1404.6563 Q369.9219,1404.6563 369.7188,1404.4531 Q369.5156,1404.2656 369.4063,1403.75 Q369.3594,1403.3906 369.1719,1403.2031 Q368.8438,1402.8281 368.2344,1402.6094 Q367.625,1402.3906 367,1402.3906 Q366.2344,1402.3906 365.5938,1402.7188 Q364.9688,1403.0469 364.4688,1403.7969 Q363.9844,1404.5469 363.9844,1405.5781 L363.9844,1406.6719 Q363.9844,1407.9063 364.875,1408.7344 Q365.7656,1409.5469 367.3594,1409.5469 Q368.2969,1409.5469 368.9531,1409.2969 Q369.3438,1409.1406 369.7656,1408.7031 Q370.0313,1408.4375 370.1719,1408.3594 Q370.3281,1408.2813 370.5313,1408.2813 Q370.8594,1408.2813 371.1094,1408.5469 Q371.375,1408.7969 371.375,1409.1406 Q371.375,1409.4844 371.0313,1409.8906 Q370.5313,1410.4688 369.7344,1410.7969 Q368.6563,1411.25 367.3594,1411.25 Q365.8438,1411.25 364.6406,1410.625 Q363.6563,1410.125 362.9688,1409.0625 Q362.2813,1407.9844 362.2813,1406.7031 L362.2813,1405.5469 Q362.2813,1404.2188 362.8906,1403.0781 Q363.5156,1401.9219 364.6094,1401.3125 Q365.7031,1400.6875 366.9375,1400.6875 Q367.6719,1400.6875 368.3125,1400.8594 Q368.9688,1401.0156 369.5156,1401.375 Z " fill="#000000"/><text fill="#000000" font-family="sans-serif" font-size="14" lengthAdjust="spacing" textLength="146" x="387.25" y="1411.2285">RandomMachinePlayer</text><line style="stroke:#181818;stroke-width:0.5;" x1="314" x2="574" y1="1421.5" y2="1421.5"/><line style="stroke:#181818;stroke-width:0.5;" x1="314" x2="574" y1="1429.5" y2="1429.5"/><ellipse cx="324" cy="1443.8047" fill="#84BE84" rx="3" ry="3" style="stroke:#038048;stroke-width:1.0;"/><text fill="#000000" font-family="sans-serif" font-size="14" lengthAdjust="spacing" textLength="236" x="333" y="1448.0332">RandomMachinePlayer(Color, Board)</text><ellipse cx="324" cy="1461.4141" fill="#84BE84" rx="3" ry="3" style="stroke:#038048;stroke-width:1.0;"/><text fill="#000000" font-family="sans-serif" font-size="14" lengthAdjust="spacing" textLength="101" x="333" y="1465.6426">getColumn(): int</text><ellipse cx="324" cy="1479.0234" fill="#84BE84" rx="3" ry="3" style="stroke:#038048;stroke-width:1.0;"/><text fill="#000000" font-family="sans-serif" font-size="14" lengthAdjust="spacing" textLength="142" x="333" y="1483.252">getType(): PlayerType</text></g><!--class MinMaxMachinePlayer--><g id="elem_MinMaxMachinePlayer"><rect codeLine="10" fill="#F1F1F1" height="241.7031" id="MinMaxMachinePlayer" rx="2.5" ry="2.5" style="stroke:#181818;stroke-width:0.5;" width="256" x="22" y="1319"/><ellipse cx="75.75" cy="1335" fill="#ADD1B2" rx="11" ry="11" style="stroke:#181818;stroke-width:1.0;"/><path d="M78.5156,1330.875 Q78.6719,1330.6563 78.8594,1330.5469 Q79.0469,1330.4375 79.2656,1330.4375 Q79.6406,1330.4375 79.875,1330.7031 Q80.1094,1330.9531 80.1094,1331.5625 L80.1094,1333.0156 Q80.1094,1333.625 79.875,1333.8906 Q79.6406,1334.1563 79.2656,1334.1563 Q78.9219,1334.1563 78.7188,1333.9531 Q78.5156,1333.7656 78.4063,1333.25 Q78.3594,1332.8906 78.1719,1332.7031 Q77.8438,1332.3281 77.2344,1332.1094 Q76.625,1331.8906 76,1331.8906 Q75.2344,1331.8906 74.5938,1332.2188 Q73.9688,1332.5469 73.4688,1333.2969 Q72.9844,1334.0469 72.9844,1335.0781 L72.9844,1336.1719 Q72.9844,1337.4063 73.875,1338.2344 Q74.7656,1339.0469 76.3594,1339.0469 Q77.2969,1339.0469 77.9531,1338.7969 Q78.3438,1338.6406 78.7656,1338.2031 Q79.0313,1337.9375 79.1719,1337.8594 Q79.3281,1337.7813 79.5313,1337.7813 Q79.8594,1337.7813 80.1094,1338.0469 Q80.375,1338.2969 80.375,1338.6406 Q80.375,1338.9844 80.0313,1339.3906 Q79.5313,1339.9688 78.7344,1340.2969 Q77.6563,1340.75 76.3594,1340.75 Q74.8438,1340.75 73.6406,1340.125 Q72.6563,1339.625 71.9688,1338.5625 Q71.2813,1337.4844 71.2813,1336.2031 L71.2813,1335.0469 Q71.2813,1333.7188 71.8906,1332.5781 Q72.5156,1331.4219 73.6094,1330.8125 Q74.7031,1330.1875 75.9375,1330.1875 Q76.6719,1330.1875 77.3125,1330.3594 Q77.9688,1330.5156 78.5156,1330.875 Z " fill="#000000"/><text fill="#000000" font-family="sans-serif" font-size="14" lengthAdjust="spacing" textLength="140" x="96.25" y="1340.7285">MinMaxMachinePlayer</text><line style="stroke:#181818;stroke-width:0.5;" x1="23" x2="277" y1="1351" y2="1351"/><rect fill="none" height="6" style="stroke:#C82930;stroke-width:1.0;" width="6" x="30" y="1362.3047"/><text fill="#000000" font-family="sans-serif" font-size="14" lengthAdjust="spacing" text-decoration="underline" textLength="81" x="42" y="1369.5332">MAX_STEPS</text><rect fill="none" height="6" style="stroke:#C82930;stroke-width:1.0;" width="6" x="30" y="1379.9141"/><text fill="#000000" font-family="sans-serif" font-size="14" lengthAdjust="spacing" text-decoration="underline" textLength="75" x="42" y="1387.1426">MAX_COST</text><rect fill="none" height="6" style="stroke:#C82930;stroke-width:1.0;" width="6" x="30" y="1397.5234"/><text fill="#000000" font-family="sans-serif" font-size="14" lengthAdjust="spacing" text-decoration="underline" textLength="95" x="42" y="1404.752">OTHER_COST</text><rect fill="none" height="6" style="stroke:#C82930;stroke-width:1.0;" width="6" x="30" y="1415.1328"/><text fill="#000000" font-family="sans-serif" font-size="14" lengthAdjust="spacing" text-decoration="underline" textLength="70" x="42" y="1422.3613">MIN_COST</text><line style="stroke:#181818;stroke-width:0.5;" x1="23" x2="277" y1="1429.4375" y2="1429.4375"/><ellipse cx="33" cy="1443.7422" fill="#84BE84" rx="3" ry="3" style="stroke:#038048;stroke-width:1.0;"/><text fill="#000000" font-family="sans-serif" font-size="14" lengthAdjust="spacing" textLength="230" x="42" y="1447.9707">MinMaxMachinePlayer(Color, Board)</text><ellipse cx="33" cy="1461.3516" fill="#84BE84" rx="3" ry="3" style="stroke:#038048;stroke-width:1.0;"/><text fill="#000000" font-family="sans-serif" font-size="14" lengthAdjust="spacing" textLength="101" x="42" y="1465.5801">getColumn(): int</text><ellipse cx="33" cy="1478.9609" fill="#84BE84" rx="3" ry="3" style="stroke:#038048;stroke-width:1.0;"/><text fill="#000000" font-family="sans-serif" font-size="14" lengthAdjust="spacing" textLength="142" x="42" y="1483.1895">getType(): PlayerType</text><rect fill="#F24D5C" height="6" style="stroke:#C82930;stroke-width:1.0;" width="6" x="30" y="1493.5703"/><text fill="#000000" font-family="sans-serif" font-size="14" lengthAdjust="spacing" textLength="161" x="42" y="1500.7988">getMinCost(steps: int): int</text><rect fill="#F24D5C" height="6" style="stroke:#C82930;stroke-width:1.0;" width="6" x="30" y="1511.1797"/><text fill="#000000" font-family="sans-serif" font-size="14" lengthAdjust="spacing" textLength="164" x="42" y="1518.4082">getMaxCost(steps: int): int</text><rect fill="#F24D5C" height="6" style="stroke:#C82930;stroke-width:1.0;" width="6" x="30" y="1528.7891"/><text fill="#000000" font-family="sans-serif" font-size="14" lengthAdjust="spacing" textLength="161" x="42" y="1536.0176">isEnd(steps: int): boolean</text><rect fill="#F24D5C" height="6" style="stroke:#C82930;stroke-width:1.0;" width="6" x="30" y="1546.3984"/><text fill="#000000" font-family="sans-serif" font-size="14" lengthAdjust="spacing" textLength="82" x="42" y="1553.627">getCost(): int</text></g><!--class State--><g id="elem_State"><rect codeLine="11" fill="#F1F1F1" height="100.8281" id="State" rx="2.5" ry="2.5" style="stroke:#181818;stroke-width:0.5;" width="125" x="708.5" y="94.5"/><ellipse cx="750.5" cy="110.5" fill="#ADD1B2" rx="11" ry="11" style="stroke:#181818;stroke-width:1.0;"/><path d="M753.2656,106.375 Q753.4219,106.1563 753.6094,106.0469 Q753.7969,105.9375 754.0156,105.9375 Q754.3906,105.9375 754.625,106.2031 Q754.8594,106.4531 754.8594,107.0625 L754.8594,108.5156 Q754.8594,109.125 754.625,109.3906 Q754.3906,109.6563 754.0156,109.6563 Q753.6719,109.6563 753.4688,109.4531 Q753.2656,109.2656 753.1563,108.75 Q753.1094,108.3906 752.9219,108.2031 Q752.5938,107.8281 751.9844,107.6094 Q751.375,107.3906 750.75,107.3906 Q749.9844,107.3906 749.3438,107.7188 Q748.7188,108.0469 748.2188,108.7969 Q747.7344,109.5469 747.7344,110.5781 L747.7344,111.6719 Q747.7344,112.9063 748.625,113.7344 Q749.5156,114.5469 751.1094,114.5469 Q752.0469,114.5469 752.7031,114.2969 Q753.0938,114.1406 753.5156,113.7031 Q753.7813,113.4375 753.9219,113.3594 Q754.0781,113.2813 754.2813,113.2813 Q754.6094,113.2813 754.8594,113.5469 Q755.125,113.7969 755.125,114.1406 Q755.125,114.4844 754.7813,114.8906 Q754.2813,115.4688 753.4844,115.7969 Q752.4063,116.25 751.1094,116.25 Q749.5938,116.25 748.3906,115.625 Q747.4063,115.125 746.7188,114.0625 Q746.0313,112.9844 746.0313,111.7031 L746.0313,110.5469 Q746.0313,109.2188 746.6406,108.0781 Q747.2656,106.9219 748.3594,106.3125 Q749.4531,105.6875 750.6875,105.6875 Q751.4219,105.6875 752.0625,105.8594 Q752.7188,106.0156 753.2656,106.375 Z " fill="#000000"/><text fill="#000000" font-family="sans-serif" font-size="14" lengthAdjust="spacing" textLength="33" x="770.5" y="116.2285">State</text><line style="stroke:#181818;stroke-width:0.5;" x1="709.5" x2="832.5" y1="126.5" y2="126.5"/><line style="stroke:#181818;stroke-width:0.5;" x1="709.5" x2="832.5" y1="134.5" y2="134.5"/><ellipse cx="719.5" cy="148.8047" fill="#84BE84" rx="3" ry="3" style="stroke:#038048;stroke-width:1.0;"/><text fill="#000000" font-family="sans-serif" font-size="14" lengthAdjust="spacing" textLength="42" x="728.5" y="153.0332">reset()</text><ellipse cx="719.5" cy="166.4141" fill="#84BE84" rx="3" ry="3" style="stroke:#038048;stroke-width:1.0;"/><text fill="#000000" font-family="sans-serif" font-size="14" lengthAdjust="spacing" textLength="36" x="728.5" y="170.6426">next()</text><ellipse cx="719.5" cy="184.0234" fill="#84BE84" rx="3" ry="3" style="stroke:#038048;stroke-width:1.0;"/><text fill="#000000" font-family="sans-serif" font-size="14" lengthAdjust="spacing" textLength="99" x="728.5" y="188.252">getValueState()</text></g><!--class StateValue--><g id="elem_StateValue"><rect codeLine="12" fill="#F1F1F1" height="48" id="StateValue" rx="2.5" ry="2.5" style="stroke:#181818;stroke-width:0.5;" width="139" x="866.5" y="413.5"/><ellipse cx="881.5" cy="429.5" fill="#ADD1B2" rx="11" ry="11" style="stroke:#181818;stroke-width:1.0;"/><path d="M884.2656,425.375 Q884.4219,425.1563 884.6094,425.0469 Q884.7969,424.9375 885.0156,424.9375 Q885.3906,424.9375 885.625,425.2031 Q885.8594,425.4531 885.8594,426.0625 L885.8594,427.5156 Q885.8594,428.125 885.625,428.3906 Q885.3906,428.6563 885.0156,428.6563 Q884.6719,428.6563 884.4688,428.4531 Q884.2656,428.2656 884.1563,427.75 Q884.1094,427.3906 883.9219,427.2031 Q883.5938,426.8281 882.9844,426.6094 Q882.375,426.3906 881.75,426.3906 Q880.9844,426.3906 880.3438,426.7188 Q879.7188,427.0469 879.2188,427.7969 Q878.7344,428.5469 878.7344,429.5781 L878.7344,430.6719 Q878.7344,431.9063 879.625,432.7344 Q880.5156,433.5469 882.1094,433.5469 Q883.0469,433.5469 883.7031,433.2969 Q884.0938,433.1406 884.5156,432.7031 Q884.7813,432.4375 884.9219,432.3594 Q885.0781,432.2813 885.2813,432.2813 Q885.6094,432.2813 885.8594,432.5469 Q886.125,432.7969 886.125,433.1406 Q886.125,433.4844 885.7813,433.8906 Q885.2813,434.4688 884.4844,434.7969 Q883.4063,435.25 882.1094,435.25 Q880.5938,435.25 879.3906,434.625 Q878.4063,434.125 877.7188,433.0625 Q877.0313,431.9844 877.0313,430.7031 L877.0313,429.5469 Q877.0313,428.2188 877.6406,427.0781 Q878.2656,425.9219 879.3594,425.3125 Q880.4531,424.6875 881.6875,424.6875 Q882.4219,424.6875 883.0625,424.8594 Q883.7188,425.0156 884.2656,425.375 Z " fill="#000000"/><text fill="#000000" font-family="sans-serif" font-size="14" lengthAdjust="spacing" textLength="107" x="895.5" y="435.2285">types.StateValue</text><line style="stroke:#181818;stroke-width:0.5;" x1="867.5" x2="1004.5" y1="445.5" y2="445.5"/><line style="stroke:#181818;stroke-width:0.5;" x1="867.5" x2="1004.5" y1="453.5" y2="453.5"/></g><!--class Color--><g id="elem_Color"><rect codeLine="26" fill="#F1F1F1" height="61.2188" id="Color" rx="2.5" ry="2.5" style="stroke:#181818;stroke-width:0.5;" width="156" x="1060" y="1037"/><ellipse cx="1075" cy="1059.6094" fill="#EB937F" rx="11" ry="11" style="stroke:#181818;stroke-width:1.0;"/><path d="M1073.8594,1060.4063 L1073.8594,1062.9063 L1078.1875,1062.9063 L1078.1875,1061.9844 Q1078.1875,1061.375 1078.4219,1061.1094 Q1078.6719,1060.8438 1079.0469,1060.8438 Q1079.4219,1060.8438 1079.6563,1061.1094 Q1079.8906,1061.375 1079.8906,1061.9844 L1079.8906,1064.6094 L1071.8906,1064.6094 Q1071.2656,1064.6094 1071,1064.375 Q1070.75,1064.1406 1070.75,1063.75 Q1070.75,1063.375 1071.0156,1063.1406 Q1071.2813,1062.9063 1071.8906,1062.9063 L1072.1563,1062.9063 L1072.1563,1056.25 L1071.8906,1056.25 Q1071.2656,1056.25 1071,1056.0156 Q1070.75,1055.7813 1070.75,1055.3906 Q1070.75,1055.0156 1071,1054.7813 Q1071.2656,1054.5469 1071.8906,1054.5469 L1079.5156,1054.5469 L1079.5156,1057.1406 Q1079.5156,1057.75 1079.2813,1058.0156 Q1079.0625,1058.2656 1078.6719,1058.2656 Q1078.2969,1058.2656 1078.0625,1058.0156 Q1077.8281,1057.75 1077.8281,1057.1406 L1077.8281,1056.25 L1073.8594,1056.25 L1073.8594,1058.7031 L1075.3438,1058.7031 Q1075.3438,1058.0469 1075.4688,1057.8594 Q1075.7344,1057.4531 1076.2031,1057.4531 Q1076.5781,1057.4531 1076.8125,1057.7188 Q1077.0469,1057.9688 1077.0469,1058.5781 L1077.0469,1060.5469 Q1077.0469,1061.0938 1076.9219,1061.2813 Q1076.6563,1061.6719 1076.2031,1061.6719 Q1075.7344,1061.6719 1075.4688,1061.2656 Q1075.3438,1061.0781 1075.3438,1060.4063 L1073.8594,1060.4063 Z " fill="#000000"/><text fill="#000000" font-family="sans-serif" font-size="14" lengthAdjust="spacing" textLength="124" x="1089" y="1056.5332">connect4.connect4.</text><text fill="#000000" font-family="sans-serif" font-size="14" lengthAdjust="spacing" textLength="72" x="1115" y="1074.1426">types.Color</text><line style="stroke:#181818;stroke-width:0.5;" x1="1061" x2="1215" y1="1082.2188" y2="1082.2188"/><line style="stroke:#181818;stroke-width:0.5;" x1="1061" x2="1215" y1="1090.2188" y2="1090.2188"/></g><!--class Direction--><g id="elem_Direction"><rect codeLine="27" fill="#F1F1F1" height="61.2188" id="Direction" rx="2.5" ry="2.5" style="stroke:#181818;stroke-width:0.5;" width="123" x="868.5" y="1409.5"/><ellipse cx="883.5" cy="1432.1094" fill="#ADD1B2" rx="11" ry="11" style="stroke:#181818;stroke-width:1.0;"/><path d="M886.2656,1427.9844 Q886.4219,1427.7656 886.6094,1427.6563 Q886.7969,1427.5469 887.0156,1427.5469 Q887.3906,1427.5469 887.625,1427.8125 Q887.8594,1428.0625 887.8594,1428.6719 L887.8594,1430.125 Q887.8594,1430.7344 887.625,1431 Q887.3906,1431.2656 887.0156,1431.2656 Q886.6719,1431.2656 886.4688,1431.0625 Q886.2656,1430.875 886.1563,1430.3594 Q886.1094,1430 885.9219,1429.8125 Q885.5938,1429.4375 884.9844,1429.2188 Q884.375,1429 883.75,1429 Q882.9844,1429 882.3438,1429.3281 Q881.7188,1429.6563 881.2188,1430.4063 Q880.7344,1431.1563 880.7344,1432.1875 L880.7344,1433.2813 Q880.7344,1434.5156 881.625,1435.3438 Q882.5156,1436.1563 884.1094,1436.1563 Q885.0469,1436.1563 885.7031,1435.9063 Q886.0938,1435.75 886.5156,1435.3125 Q886.7813,1435.0469 886.9219,1434.9688 Q887.0781,1434.8906 887.2813,1434.8906 Q887.6094,1434.8906 887.8594,1435.1563 Q888.125,1435.4063 888.125,1435.75 Q888.125,1436.0938 887.7813,1436.5 Q887.2813,1437.0781 886.4844,1437.4063 Q885.4063,1437.8594 884.1094,1437.8594 Q882.5938,1437.8594 881.3906,1437.2344 Q880.4063,1436.7344 879.7188,1435.6719 Q879.0313,1434.5938 879.0313,1433.3125 L879.0313,1432.1563 Q879.0313,1430.8281 879.6406,1429.6875 Q880.2656,1428.5313 881.3594,1427.9219 Q882.4531,1427.2969 883.6875,1427.2969 Q884.4219,1427.2969 885.0625,1427.4688 Q885.7188,1427.625 886.2656,1427.9844 Z " fill="#000000"/><text fill="#000000" font-family="sans-serif" font-size="14" lengthAdjust="spacing" textLength="91" x="897.5" y="1429.0332">connect4.utils.</text><text fill="#000000" font-family="sans-serif" font-size="14" lengthAdjust="spacing" textLength="56" x="915" y="1446.6426">Direction</text><line style="stroke:#181818;stroke-width:0.5;" x1="869.5" x2="990.5" y1="1454.7188" y2="1454.7188"/><line style="stroke:#181818;stroke-width:0.5;" x1="869.5" x2="990.5" y1="1462.7188" y2="1462.7188"/></g><!--class Coordinate--><g id="elem_Coordinate"><rect codeLine="29" fill="#F1F1F1" height="61.2188" id="Coordinate" rx="2.5" ry="2.5" style="stroke:#181818;stroke-width:0.5;" width="123" x="868.5" y="1621"/><ellipse cx="883.5" cy="1643.6094" fill="#ADD1B2" rx="11" ry="11" style="stroke:#181818;stroke-width:1.0;"/><path d="M886.2656,1639.4844 Q886.4219,1639.2656 886.6094,1639.1563 Q886.7969,1639.0469 887.0156,1639.0469 Q887.3906,1639.0469 887.625,1639.3125 Q887.8594,1639.5625 887.8594,1640.1719 L887.8594,1641.625 Q887.8594,1642.2344 887.625,1642.5 Q887.3906,1642.7656 887.0156,1642.7656 Q886.6719,1642.7656 886.4688,1642.5625 Q886.2656,1642.375 886.1563,1641.8594 Q886.1094,1641.5 885.9219,1641.3125 Q885.5938,1640.9375 884.9844,1640.7188 Q884.375,1640.5 883.75,1640.5 Q882.9844,1640.5 882.3438,1640.8281 Q881.7188,1641.1563 881.2188,1641.9063 Q880.7344,1642.6563 880.7344,1643.6875 L880.7344,1644.7813 Q880.7344,1646.0156 881.625,1646.8438 Q882.5156,1647.6563 884.1094,1647.6563 Q885.0469,1647.6563 885.7031,1647.4063 Q886.0938,1647.25 886.5156,1646.8125 Q886.7813,1646.5469 886.9219,1646.4688 Q887.0781,1646.3906 887.2813,1646.3906 Q887.6094,1646.3906 887.8594,1646.6563 Q888.125,1646.9063 888.125,1647.25 Q888.125,1647.5938 887.7813,1648 Q887.2813,1648.5781 886.4844,1648.9063 Q885.4063,1649.3594 884.1094,1649.3594 Q882.5938,1649.3594 881.3906,1648.7344 Q880.4063,1648.2344 879.7188,1647.1719 Q879.0313,1646.0938 879.0313,1644.8125 L879.0313,1643.6563 Q879.0313,1642.3281 879.6406,1641.1875 Q880.2656,1640.0313 881.3594,1639.4219 Q882.4531,1638.7969 883.6875,1638.7969 Q884.4219,1638.7969 885.0625,1638.9688 Q885.7188,1639.125 886.2656,1639.4844 Z " fill="#000000"/><text fill="#000000" font-family="sans-serif" font-size="14" lengthAdjust="spacing" textLength="91" x="897.5" y="1640.5332">connect4.utils.</text><text fill="#000000" font-family="sans-serif" font-size="14" lengthAdjust="spacing" textLength="70" x="908" y="1658.1426">Coordinate</text><line style="stroke:#181818;stroke-width:0.5;" x1="869.5" x2="990.5" y1="1666.2188" y2="1666.2188"/><line style="stroke:#181818;stroke-width:0.5;" x1="869.5" x2="990.5" y1="1674.2188" y2="1674.2188"/></g><!--class ClosedInterval--><g id="elem_ClosedInterval"><rect codeLine="30" fill="#F1F1F1" height="61.2188" id="ClosedInterval" rx="2.5" ry="2.5" style="stroke:#181818;stroke-width:0.5;" width="123" x="868.5" y="1742"/><ellipse cx="883.5" cy="1764.6094" fill="#ADD1B2" rx="11" ry="11" style="stroke:#181818;stroke-width:1.0;"/><path d="M886.2656,1760.4844 Q886.4219,1760.2656 886.6094,1760.1563 Q886.7969,1760.0469 887.0156,1760.0469 Q887.3906,1760.0469 887.625,1760.3125 Q887.8594,1760.5625 887.8594,1761.1719 L887.8594,1762.625 Q887.8594,1763.2344 887.625,1763.5 Q887.3906,1763.7656 887.0156,1763.7656 Q886.6719,1763.7656 886.4688,1763.5625 Q886.2656,1763.375 886.1563,1762.8594 Q886.1094,1762.5 885.9219,1762.3125 Q885.5938,1761.9375 884.9844,1761.7188 Q884.375,1761.5 883.75,1761.5 Q882.9844,1761.5 882.3438,1761.8281 Q881.7188,1762.1563 881.2188,1762.9063 Q880.7344,1763.6563 880.7344,1764.6875 L880.7344,1765.7813 Q880.7344,1767.0156 881.625,1767.8438 Q882.5156,1768.6563 884.1094,1768.6563 Q885.0469,1768.6563 885.7031,1768.4063 Q886.0938,1768.25 886.5156,1767.8125 Q886.7813,1767.5469 886.9219,1767.4688 Q887.0781,1767.3906 887.2813,1767.3906 Q887.6094,1767.3906 887.8594,1767.6563 Q888.125,1767.9063 888.125,1768.25 Q888.125,1768.5938 887.7813,1769 Q887.2813,1769.5781 886.4844,1769.9063 Q885.4063,1770.3594 884.1094,1770.3594 Q882.5938,1770.3594 881.3906,1769.7344 Q880.4063,1769.2344 879.7188,1768.1719 Q879.0313,1767.0938 879.0313,1765.8125 L879.0313,1764.6563 Q879.0313,1763.3281 879.6406,1762.1875 Q880.2656,1761.0313 881.3594,1760.4219 Q882.4531,1759.7969 883.6875,1759.7969 Q884.4219,1759.7969 885.0625,1759.9688 Q885.7188,1760.125 886.2656,1760.4844 Z " fill="#000000"/><text fill="#000000" font-family="sans-serif" font-size="14" lengthAdjust="spacing" textLength="91" x="897.5" y="1761.5332">connect4.utils.</text><text fill="#000000" font-family="sans-serif" font-size="14" lengthAdjust="spacing" textLength="90" x="898" y="1779.1426">ClosedInterval</text><line style="stroke:#181818;stroke-width:0.5;" x1="869.5" x2="990.5" y1="1787.2188" y2="1787.2188"/><line style="stroke:#181818;stroke-width:0.5;" x1="869.5" x2="990.5" y1="1795.2188" y2="1795.2188"/></g><!--class PlayerType--><g id="elem_PlayerType"><rect codeLine="31" fill="#F1F1F1" height="61.2188" id="PlayerType" rx="2.5" ry="2.5" style="stroke:#181818;stroke-width:0.5;" width="156" x="869" y="1037"/><ellipse cx="884" cy="1059.6094" fill="#ADD1B2" rx="11" ry="11" style="stroke:#181818;stroke-width:1.0;"/><path d="M886.7656,1055.4844 Q886.9219,1055.2656 887.1094,1055.1563 Q887.2969,1055.0469 887.5156,1055.0469 Q887.8906,1055.0469 888.125,1055.3125 Q888.3594,1055.5625 888.3594,1056.1719 L888.3594,1057.625 Q888.3594,1058.2344 888.125,1058.5 Q887.8906,1058.7656 887.5156,1058.7656 Q887.1719,1058.7656 886.9688,1058.5625 Q886.7656,1058.375 886.6563,1057.8594 Q886.6094,1057.5 886.4219,1057.3125 Q886.0938,1056.9375 885.4844,1056.7188 Q884.875,1056.5 884.25,1056.5 Q883.4844,1056.5 882.8438,1056.8281 Q882.2188,1057.1563 881.7188,1057.9063 Q881.2344,1058.6563 881.2344,1059.6875 L881.2344,1060.7813 Q881.2344,1062.0156 882.125,1062.8438 Q883.0156,1063.6563 884.6094,1063.6563 Q885.5469,1063.6563 886.2031,1063.4063 Q886.5938,1063.25 887.0156,1062.8125 Q887.2813,1062.5469 887.4219,1062.4688 Q887.5781,1062.3906 887.7813,1062.3906 Q888.1094,1062.3906 888.3594,1062.6563 Q888.625,1062.9063 888.625,1063.25 Q888.625,1063.5938 888.2813,1064 Q887.7813,1064.5781 886.9844,1064.9063 Q885.9063,1065.3594 884.6094,1065.3594 Q883.0938,1065.3594 881.8906,1064.7344 Q880.9063,1064.2344 880.2188,1063.1719 Q879.5313,1062.0938 879.5313,1060.8125 L879.5313,1059.6563 Q879.5313,1058.3281 880.1406,1057.1875 Q880.7656,1056.0313 881.8594,1055.4219 Q882.9531,1054.7969 884.1875,1054.7969 Q884.9219,1054.7969 885.5625,1054.9688 Q886.2188,1055.125 886.7656,1055.4844 Z " fill="#000000"/><text fill="#000000" font-family="sans-serif" font-size="14" lengthAdjust="spacing" textLength="124" x="898" y="1056.5332">connect4.connect4.</text><text fill="#000000" font-family="sans-serif" font-size="14" lengthAdjust="spacing" textLength="110" x="905" y="1074.1426">types.PlayerType</text><line style="stroke:#181818;stroke-width:0.5;" x1="870" x2="1024" y1="1082.2188" y2="1082.2188"/><line style="stroke:#181818;stroke-width:0.5;" x1="870" x2="1024" y1="1090.2188" y2="1090.2188"/></g><!--reverse link Game to Board--><g id="link_Game_Board"><path codeLine="14" d="M525.8153,260.0062 C516.2953,411.0762 499.04,684.95 487.03,875.62 " fill="none" id="Game-backto-Board" style="stroke:#181818;stroke-width:1.0;"/><polygon fill="#181818" points="526.57,248.03,522.2006,253.7666,525.8153,260.0062,530.1847,254.2697,526.57,248.03" style="stroke:#181818;stroke-width:1.0;"/></g><!--reverse link Game to Turn--><g id="link_Game_Turn"><path codeLine="15" d="M576.6478,259.2063 C584.1178,278.5763 587.7,287.89 595.44,307.96 " fill="none" id="Game-backto-Turn" style="stroke:#181818;stroke-width:1.0;"/><polygon fill="#181818" points="572.33,248.01,570.7568,255.0474,576.6478,259.2063,578.221,252.1689,572.33,248.01" style="stroke:#181818;stroke-width:1.0;"/></g><!--link Turn to Board--><g id="link_Turn_Board"><path codeLine="16" d="M589.68,567.24 C582.17,587.05 574.99,607.43 569,627 C544.4,707.39 525.0231,792.0858 509.4831,870.0358 " fill="none" id="Turn-to-Board" style="stroke:#181818;stroke-width:1.0;"/><polygon fill="#181818" points="508.31,875.92,513.9924,867.8757,509.2876,871.0165,506.1468,866.3116,508.31,875.92" style="stroke:#181818;stroke-width:1.0;"/></g><!--reverse link Turn to Player--><g id="link_Turn_Player"><path codeLine="17" d="M675.8578,578.8399 C680.2678,598.8899 682.17,607.55 686.36,626.63 " fill="none" id="Turn-backto-Player" style="stroke:#181818;stroke-width:1.0;"/><polygon fill="none" points="673.28,567.12,670.6623,573.8392,675.8578,578.8399,678.4755,572.1207,673.28,567.12" style="stroke:#181818;stroke-width:1.0;"/></g><!--link Player to Board--><g id="link_Player_Board"><path codeLine="18" d="M643.91,816.05 C631.23,834.85 620.8347,850.2655 606.8347,871.0255 " fill="none" id="Player-to-Board" style="stroke:#181818;stroke-width:1.0;"/><polygon fill="#181818" points="603.48,876,611.8284,870.7747,606.2756,871.8546,605.1957,866.3017,603.48,876" style="stroke:#181818;stroke-width:1.0;"/></g><!--reverse link Player to UserPlayer--><g id="link_Player_UserPlayer"><path codeLine="19" d="M718.0196,833.9628 C724.7996,902.5928 731.91,974.54 736.98,1025.85 " fill="none" id="Player-backto-UserPlayer" style="stroke:#181818;stroke-width:1.0;"/><polygon fill="none" points="716.25,816.05,712.0487,834.5527,723.9906,833.3729,716.25,816.05" style="stroke:#181818;stroke-width:1.0;"/></g><!--reverse link Player to MachinePlayer--><g id="link_Player_MachinePlayer"><path codeLine="20" d="M568.8758,754.2404 C486.7158,777.2304 396.59,812.1 319,876 C269.43,916.82 233.42,983.21 213.86,1025.85 " fill="none" id="Player-backto-MachinePlayer" style="stroke:#181818;stroke-width:1.0;"/><polygon fill="none" points="586.21,749.39,567.259,748.4624,570.4927,760.0185,586.21,749.39" style="stroke:#181818;stroke-width:1.0;"/></g><!--reverse link MachinePlayer to RandomMachinePlayer--><g id="link_MachinePlayer_RandomMachinePlayer"><path codeLine="21" d="M232.092,1124.5276 C256.472,1163.2976 284.89,1207.87 319,1259 C348.66,1303.47 383.42,1353.34 408.74,1389.3 " fill="none" id="MachinePlayer-backto-RandomMachinePlayer" style="stroke:#181818;stroke-width:1.0;"/><polygon fill="none" points="222.51,1109.29,227.0128,1127.7216,237.1712,1121.3336,222.51,1109.29" style="stroke:#181818;stroke-width:1.0;"/></g><!--reverse link MachinePlayer to MinMaxMachinePlayer--><g id="link_MachinePlayer_MinMaxMachinePlayer"><path codeLine="22" d="M189.5732,1127.0667 C183.2132,1177.1667 174.41,1246.6 165.25,1318.8 " fill="none" id="MachinePlayer-backto-MinMaxMachinePlayer" style="stroke:#181818;stroke-width:1.0;"/><polygon fill="none" points="191.84,1109.21,183.6209,1126.3111,195.5254,1127.8223,191.84,1109.21" style="stroke:#181818;stroke-width:1.0;"/></g><!--link Board to Line--><g id="link_Board_Line"><path codeLine="23" d="M602.12,1259.18 C622.09,1289.14 638.6101,1313.9289 656.2501,1340.3689 " fill="none" id="Board-to-Line" style="stroke:#181818;stroke-width:1.0;stroke-dasharray:7.0,7.0;"/><polygon fill="#181818" points="659.58,1345.36,657.9125,1335.6533,656.805,1341.2007,651.2577,1340.0933,659.58,1345.36" style="stroke:#181818;stroke-width:1.0;"/></g><!--link State to StateValue--><g id="link_State_StateValue"><path codeLine="24" d="M805.1068,206.0442 C841.1868,269.5642 893.3265,361.373 919.9565,408.253 " fill="none" id="State-StateValue" style="stroke:#181818;stroke-width:1.0;"/><polygon fill="#181818" points="799.18,195.61,798.6653,202.8027,805.1068,206.0442,805.6215,198.8515,799.18,195.61" style="stroke:#181818;stroke-width:1.0;"/><polygon fill="#181818" points="922.92,413.47,921.9527,403.6688,920.4504,409.1225,914.9967,407.6201,922.92,413.47" style="stroke:#181818;stroke-width:1.0;"/></g><!--link Player to PlayerType--><g id="link_Player_PlayerType"><path codeLine="33" d="M801.75,816.01 C818.81,835.06 835.7,855.56 850,876 C887.02,928.91 916.1949,992.373 932.5749,1031.143 " fill="none" id="Player-to-PlayerType" style="stroke:#181818;stroke-width:1.0;stroke-dasharray:7.0,7.0;"/><polygon fill="#181818" points="934.91,1036.67,935.092,1026.8228,932.9641,1032.0642,927.7227,1029.9363,934.91,1036.67" style="stroke:#181818;stroke-width:1.0;"/></g><!--link Turn to Color--><g id="link_Turn_Color"><path codeLine="34" d="M745.65,528.08 C778.31,558.52 814.08,593.37 845,627 C940.69,731.09 967.04,756.75 1043,876 C1077.45,930.08 1106.4526,992.8554 1123.1026,1031.2454 " fill="none" id="Turn-to-Color" style="stroke:#181818;stroke-width:1.0;stroke-dasharray:7.0,7.0;"/><polygon fill="#181818" points="1125.49,1036.75,1125.5787,1026.9015,1123.5005,1032.1628,1118.2392,1030.0847,1125.49,1036.75" style="stroke:#181818;stroke-width:1.0;"/></g><!--link Player to Color--><g id="link_Player_Color"><path codeLine="35" d="M827.9,755.48 C897.67,779.53 983.17,818.17 1043,876 C1090.3,921.72 1116.0204,990.2147 1128.3604,1031.2047 " fill="none" id="Player-to-Color" style="stroke:#181818;stroke-width:1.0;"/><polygon fill="#181818" points="1130.09,1036.95,1131.3258,1027.179,1128.6487,1032.1623,1123.6654,1029.4851,1130.09,1036.95" style="stroke:#181818;stroke-width:1.0;"/></g><!--link Board to Coordinate--><g id="link_Board_Coordinate"><path codeLine="36" d="M613.61,1247.88 C619.27,1251.87 625.07,1255.6 631,1259 C778.53,1343.67 898.55,1189.63 1009,1319 C1085.76,1408.91 1059.28,1478 1009,1585 C1002.41,1599.03 995.811,1607.2872 983.851,1617.0872 " fill="none" id="Board-to-Coordinate" style="stroke:#181818;stroke-width:1.0;"/><polygon fill="#181818" points="979.21,1620.89,988.7067,1618.2798,983.0775,1617.721,983.6363,1612.0918,979.21,1620.89" style="stroke:#181818;stroke-width:1.0;"/></g><!--link Board to Direction--><g id="link_Board_Direction"><path codeLine="37" d="M613.61,1246.64 C619.28,1251.02 625.08,1255.16 631,1259 C715.64,1313.97 768.16,1259.94 850,1319 C881.88,1342 902.1833,1376.502 915.1033,1403.932 " fill="none" id="Board-to-Direction" style="stroke:#181818;stroke-width:1.0;stroke-dasharray:7.0,7.0;"/><polygon fill="#181818" points="917.66,1409.36,917.4436,1399.5135,915.5294,1404.8367,910.2063,1402.9224,917.66,1409.36" style="stroke:#181818;stroke-width:1.0;"/></g><!--link Direction to Coordinate--><g id="link_Direction_Coordinate"><path codeLine="38" d="M920.8,1470.57 C916.08,1510.39 915.3683,1574.8712 920.0683,1614.7812 " fill="none" id="Direction-to-Coordinate" style="stroke:#181818;stroke-width:1.0;"/><polygon fill="#181818" points="920.77,1620.74,923.6899,1611.3339,920.1852,1615.7743,915.7448,1612.2696,920.77,1620.74" style="stroke:#181818;stroke-width:1.0;"/></g><!--link Direction to Coordinate--><g id="link_Direction_Coordinate"><path codeLine="39" d="M939.75,1470.57 C944.74,1510.39 945.4929,1574.8762 940.5129,1614.7862 " fill="none" id="Direction-to-Coordinate-1" style="stroke:#181818;stroke-width:1.0;stroke-dasharray:7.0,7.0;"/><polygon fill="#181818" points="939.77,1620.74,944.8536,1612.3045,940.3891,1615.7785,936.9152,1611.314,939.77,1620.74" style="stroke:#181818;stroke-width:1.0;"/></g><!--reverse link Coordinate to ClosedInterval--><g id="link_Coordinate_ClosedInterval"><path codeLine="40" d="M930,1694.22 C930,1712.4 930,1723.56 930,1741.74 " fill="none" id="Coordinate-backto-ClosedInterval" style="stroke:#181818;stroke-width:1.0;"/><polygon fill="#181818" points="930,1682.22,926,1688.22,930,1694.22,934,1688.22,930,1682.22" style="stroke:#181818;stroke-width:1.0;"/></g><!--SRC=[fLRRJXin47tVhx1uIXesJtrQLKWGKa1A22AX5m52PjS5gnjxjNOGYFBlzVsowmIglcJZEMV6dkCPssKD6GDhMg6QZK_W6cLbQ3cYiArYqshJajWommHby9xn5fOSHD153LzG6zEl66gDFUqqX-MZ29dolOIaekiTX3acS_YyWx3aaDiarVzliDuW01dOuoyDCWHbtCiogGZubET02-66IWJv0_Bym81gI0LefjMVW60CN_u8JY12Q8uN7eqq8IL0WfQIGIq2ZCS7G6sOobCcSn3ea6M8RDPWGclQAarAIWWg-UUn-tD3j4wAisUKFCQj034biTE6Oo7v3N6mvKyeRIjCv0gI3Xx_3u-QCbIT4OxQ9rXlyOeurbCBjX9flgE19ufQCVfBWRrTLuMqARt2ej06lIjwR3C8jiefbtc9EsGFw6aS44WcQpRErTHs0V9xELaHLhWmSh7iGfUvCOtaTp1qmnOnn8Fn0-8gey6mCAbP1BFlM0Yda7jAQmH9W7t51BD7LALG4VDGfFPaIbXIJ3473Bb8YQZ5QhqByCf4JUFo3OpEh-P7qykxYzdXp-dbiW2OS4lA6nMCkQZM3eD9Ouz8B6jKAr2ceRKPUOGhsBXMPnucw5cAPuVR4xKC4SsV6O6di2VEX9YWJuCkaiEgCZRz6ReQ5c0fjx28gxQRlpURE8gz3umK3axKHeGfliGwOKLrJEYwgH4NvI4Mj5aJjHj1fNXkrT9cHNyZ4Z43mgkzRTvaqOZUz2ghJisylf8Ug1sd5TEsn8hFPC6BjoUEs2D7IvseTEG4iX2pn6vBbrGHnBDiSUpDi9sNJBH_quJjbyyFVzmjLzEBvOUOayLozIvniJeL3VqXwlpiV1Tnb31tzoRjs5DjEo-XMfgSFwXMdL361uoZXjbYtnvVkS3dVtB1R4ggc6sxQViaQWPRWlfwieS4kxwzlYsYwqn0uYBbnw8bY_wz9cGn7UyDzZPn1j_EyWpLBRsl9mbO_e08Q452AM8QJbr30To_mQBG-bqmg8LiQSgYB3SD5k6z6ZQR97-wRlXBGDx5If-CZkOEtoXQl5sID3CxrZcftOwoVfp-XeWuLwIqXtRK8jVWDjplDNr2Azh4fxMRJFPD1umgASla8pQww6VJyvFLgIvH0-QqnG-OH9uMAfs9XRXSfVDk6iemH-w5LGJlCKCQoU_01mjZ3Hr95dULY18m7l4llZ0J3hnTxPvRwM3ONQjvnmSjv0pcZU768fHwv2k30Fu2]--></g></svg>