<?xml version="1.0" encoding="us-ascii" standalone="no"?><svg xmlns="http://www.w3.org/2000/svg" xmlns:xlink="http://www.w3.org/1999/xlink" contentStyleType="text/css" height="236px" preserveAspectRatio="none" style="width:209px;height:236px;background:#FFFFFF;" version="1.1" viewBox="0 0 209 236" width="209px" zoomAndPan="magnify"><defs/><g><!--cluster types--><g id="cluster_types"><path d="M8.5,6 L47.5,6 A3.75,3.75 0 0 1 50,8.5 L57,29.6094 L199.5,29.6094 A2.5,2.5 0 0 1 202,32.1094 L202,226.5 A2.5,2.5 0 0 1 199.5,229 L8.5,229 A2.5,2.5 0 0 1 6,226.5 L6,8.5 A2.5,2.5 0 0 1 8.5,6 " fill="none" style="stroke:#000000;stroke-width:1.5;"/><line style="stroke:#000000;stroke-width:1.5;" x1="6" x2="57" y1="29.6094" y2="29.6094"/><text fill="#000000" font-family="sans-serif" font-size="14" font-weight="bold" lengthAdjust="spacing" textLength="38" x="10" y="22.5332">types</text></g><!--class Color--><g id="elem_Color"><rect codeLine="2" fill="#F1F1F1" height="171.2656" id="Color" rx="2.5" ry="2.5" style="stroke:#181818;stroke-width:0.5;" width="164" x="22" y="42"/><ellipse cx="82.75" cy="58" fill="#EB937F" rx="11" ry="11" style="stroke:#181818;stroke-width:1.0;"/><path d="M81.6094,58.7969 L81.6094,61.2969 L85.9375,61.2969 L85.9375,60.375 Q85.9375,59.7656 86.1719,59.5 Q86.4219,59.2344 86.7969,59.2344 Q87.1719,59.2344 87.4063,59.5 Q87.6406,59.7656 87.6406,60.375 L87.6406,63 L79.6406,63 Q79.0156,63 78.75,62.7656 Q78.5,62.5313 78.5,62.1406 Q78.5,61.7656 78.7656,61.5313 Q79.0313,61.2969 79.6406,61.2969 L79.9063,61.2969 L79.9063,54.6406 L79.6406,54.6406 Q79.0156,54.6406 78.75,54.4063 Q78.5,54.1719 78.5,53.7813 Q78.5,53.4063 78.75,53.1719 Q79.0156,52.9375 79.6406,52.9375 L87.2656,52.9375 L87.2656,55.5313 Q87.2656,56.1406 87.0313,56.4063 Q86.8125,56.6563 86.4219,56.6563 Q86.0469,56.6563 85.8125,56.4063 Q85.5781,56.1406 85.5781,55.5313 L85.5781,54.6406 L81.6094,54.6406 L81.6094,57.0938 L83.0938,57.0938 Q83.0938,56.4375 83.2188,56.25 Q83.4844,55.8438 83.9531,55.8438 Q84.3281,55.8438 84.5625,56.1094 Q84.7969,56.3594 84.7969,56.9688 L84.7969,58.9375 Q84.7969,59.4844 84.6719,59.6719 Q84.4063,60.0625 83.9531,60.0625 Q83.4844,60.0625 83.2188,59.6563 Q83.0938,59.4688 83.0938,58.7969 L81.6094,58.7969 Z " fill="#000000"/><text fill="#000000" font-family="sans-serif" font-size="14" lengthAdjust="spacing" textLength="34" x="103.25" y="63.7285">Color</text><line style="stroke:#181818;stroke-width:0.5;" x1="23" x2="185" y1="74" y2="74"/><ellipse cx="33" cy="88.3047" fill="none" rx="3" ry="3" style="stroke:#038048;stroke-width:1.0;"/><text fill="#000000" font-family="sans-serif" font-size="14" lengthAdjust="spacing" textLength="29" x="42" y="92.5332">RED</text><ellipse cx="33" cy="105.9141" fill="none" rx="3" ry="3" style="stroke:#038048;stroke-width:1.0;"/><text fill="#000000" font-family="sans-serif" font-size="14" lengthAdjust="spacing" textLength="58" x="42" y="110.1426">YELLOW</text><ellipse cx="33" cy="123.5234" fill="none" rx="3" ry="3" style="stroke:#038048;stroke-width:1.0;"/><text fill="#000000" font-family="sans-serif" font-size="14" lengthAdjust="spacing" textLength="34" x="42" y="127.752">NULL</text><rect fill="none" height="6" style="stroke:#C82930;stroke-width:1.0;" width="6" x="30" y="138.1328"/><text fill="#000000" font-family="sans-serif" font-size="14" lengthAdjust="spacing" textLength="76" x="42" y="145.3613">color: String</text><line style="stroke:#181818;stroke-width:0.5;" x1="23" x2="185" y1="152.4375" y2="152.4375"/><ellipse cx="33" cy="166.7422" fill="#84BE84" rx="3" ry="3" style="stroke:#038048;stroke-width:1.0;"/><text fill="#000000" font-family="sans-serif" font-size="14" lengthAdjust="spacing" textLength="120" x="42" y="170.9707">Color(color: String)</text><ellipse cx="33" cy="184.3516" fill="#84BE84" rx="3" ry="3" style="stroke:#038048;stroke-width:1.0;"/><text fill="#000000" font-family="sans-serif" font-size="14" lengthAdjust="spacing" text-decoration="underline" textLength="138" x="42" y="188.5801">get(ordinal: int): Color</text><ellipse cx="33" cy="201.9609" fill="#84BE84" rx="3" ry="3" style="stroke:#038048;stroke-width:1.0;"/><text fill="#000000" font-family="sans-serif" font-size="14" lengthAdjust="spacing" textLength="104" x="42" y="206.1895">toString(): String</text></g><!--SRC=[IyqhpLKegIn8BTPppi_9B-BY0bCALWhQGQuk24wagu-FVpY2xnVgumFdwIQ365OAmIL5cNdf24LWXWQAf2PSjhgu9B4aCxbMGJizjKGZloWbCoynnqeXCwz4qqe1uXQuGINv4DqQcd1B0000]--></g></svg>