<?xml version="1.0" encoding="us-ascii" standalone="no"?><svg xmlns="http://www.w3.org/2000/svg" xmlns:xlink="http://www.w3.org/1999/xlink" contentStyleType="text/css" height="558px" preserveAspectRatio="none" style="width:1961px;height:558px;background:#FFFFFF;" version="1.1" viewBox="0 0 1961 558" width="1961px" zoomAndPan="magnify"><defs/><g><!--entity connect4.launchers--><g id="elem_connect4.launchers"><path d="M1484,6 L1636,6 A3.75,3.75 0 0 1 1638.5,8.5 L1645.5,29.6094 L1660,29.6094 A2.5,2.5 0 0 1 1662.5,32.1094 L1662.5,44.1094 A2.5,2.5 0 0 1 1660,46.6094 L1484,46.6094 A2.5,2.5 0 0 1 1481.5,44.1094 L1481.5,8.5 A2.5,2.5 0 0 1 1484,6 " fill="#F1F1F1" style="stroke:#181818;stroke-width:0.5;"/><line style="stroke:#181818;stroke-width:0.5;" x1="1481.5" x2="1645.5" y1="29.6094" y2="29.6094"/><text fill="#000000" font-family="sans-serif" font-size="14" font-weight="bold" lengthAdjust="spacing" textLength="139" x="1491.5" y="23.5332">connect4.launchers</text></g><!--entity connect4.controllers.core--><g id="elem_connect4.controllers.core"><path d="M1058.5,309 L1253.5,309 A3.75,3.75 0 0 1 1256,311.5 L1263,332.6094 L1277.5,332.6094 A2.5,2.5 0 0 1 1280,335.1094 L1280,347.1094 A2.5,2.5 0 0 1 1277.5,349.6094 L1058.5,349.6094 A2.5,2.5 0 0 1 1056,347.1094 L1056,311.5 A2.5,2.5 0 0 1 1058.5,309 " fill="#F1F1F1" style="stroke:#181818;stroke-width:0.5;"/><line style="stroke:#181818;stroke-width:0.5;" x1="1056" x2="1263" y1="332.6094" y2="332.6094"/><text fill="#000000" font-family="sans-serif" font-size="14" font-weight="bold" lengthAdjust="spacing" textLength="182" x="1066" y="326.5332">connect4.controllers.core</text></g><!--entity connect4.views--><g id="elem_connect4.views"><path d="M1541.5,208 L1664.5,208 A3.75,3.75 0 0 1 1667,210.5 L1674,231.6094 L1688.5,231.6094 A2.5,2.5 0 0 1 1691,234.1094 L1691,246.1094 A2.5,2.5 0 0 1 1688.5,248.6094 L1541.5,248.6094 A2.5,2.5 0 0 1 1539,246.1094 L1539,210.5 A2.5,2.5 0 0 1 1541.5,208 " fill="#F1F1F1" style="stroke:#181818;stroke-width:0.5;"/><line style="stroke:#181818;stroke-width:0.5;" x1="1539" x2="1674" y1="231.6094" y2="231.6094"/><text fill="#000000" font-family="sans-serif" font-size="14" font-weight="bold" lengthAdjust="spacing" textLength="110" x="1549" y="225.5332">connect4.views</text></g><!--entity connect4.views.graphics--><g id="elem_connect4.views.graphics"><path d="M1547,107 L1735,107 A3.75,3.75 0 0 1 1737.5,109.5 L1744.5,130.6094 L1759,130.6094 A2.5,2.5 0 0 1 1761.5,133.1094 L1761.5,145.1094 A2.5,2.5 0 0 1 1759,147.6094 L1547,147.6094 A2.5,2.5 0 0 1 1544.5,145.1094 L1544.5,109.5 A2.5,2.5 0 0 1 1547,107 " fill="#F1F1F1" style="stroke:#181818;stroke-width:0.5;"/><line style="stroke:#181818;stroke-width:0.5;" x1="1544.5" x2="1744.5" y1="130.6094" y2="130.6094"/><text fill="#000000" font-family="sans-serif" font-size="14" font-weight="bold" lengthAdjust="spacing" textLength="175" x="1554.5" y="124.5332">connect4.views.graphics</text></g><!--entity connect4.views.console--><g id="elem_connect4.views.console"><path d="M1228.5,107 L1411.5,107 A3.75,3.75 0 0 1 1414,109.5 L1421,130.6094 L1435.5,130.6094 A2.5,2.5 0 0 1 1438,133.1094 L1438,145.1094 A2.5,2.5 0 0 1 1435.5,147.6094 L1228.5,147.6094 A2.5,2.5 0 0 1 1226,145.1094 L1226,109.5 A2.5,2.5 0 0 1 1228.5,107 " fill="#F1F1F1" style="stroke:#181818;stroke-width:0.5;"/><line style="stroke:#181818;stroke-width:0.5;" x1="1226" x2="1421" y1="130.6094" y2="130.6094"/><text fill="#000000" font-family="sans-serif" font-size="14" font-weight="bold" lengthAdjust="spacing" textLength="170" x="1236" y="124.5332">connect4.views.console</text></g><!--entity connect4.launchers.standalone--><g id="elem_connect4.launchers.standalone"><path d="M145,107 L379,107 A3.75,3.75 0 0 1 381.5,109.5 L388.5,130.6094 L403,130.6094 A2.5,2.5 0 0 1 405.5,133.1094 L405.5,145.1094 A2.5,2.5 0 0 1 403,147.6094 L145,147.6094 A2.5,2.5 0 0 1 142.5,145.1094 L142.5,109.5 A2.5,2.5 0 0 1 145,107 " fill="#F1F1F1" style="stroke:#181818;stroke-width:0.5;"/><line style="stroke:#181818;stroke-width:0.5;" x1="142.5" x2="388.5" y1="130.6094" y2="130.6094"/><text fill="#000000" font-family="sans-serif" font-size="14" font-weight="bold" lengthAdjust="spacing" textLength="221" x="152.5" y="124.5332">connect4.launchers.standalone</text></g><!--entity connect4.controllers.implementation--><g id="elem_connect4.controllers.implementation"><path d="M493.5,208 L764.5,208 A3.75,3.75 0 0 1 767,210.5 L774,231.6094 L788.5,231.6094 A2.5,2.5 0 0 1 791,234.1094 L791,246.1094 A2.5,2.5 0 0 1 788.5,248.6094 L493.5,248.6094 A2.5,2.5 0 0 1 491,246.1094 L491,210.5 A2.5,2.5 0 0 1 493.5,208 " fill="#F1F1F1" style="stroke:#181818;stroke-width:0.5;"/><line style="stroke:#181818;stroke-width:0.5;" x1="491" x2="774" y1="231.6094" y2="231.6094"/><text fill="#000000" font-family="sans-serif" font-size="14" font-weight="bold" lengthAdjust="spacing" textLength="258" x="501" y="225.5332">connect4.controllers.implementation</text></g><!--entity connect4.launchers.distributed.client--><g id="elem_connect4.launchers.distributed.client"><path d="M82,208 L358,208 A3.75,3.75 0 0 1 360.5,210.5 L367.5,231.6094 L382,231.6094 A2.5,2.5 0 0 1 384.5,234.1094 L384.5,246.1094 A2.5,2.5 0 0 1 382,248.6094 L82,248.6094 A2.5,2.5 0 0 1 79.5,246.1094 L79.5,210.5 A2.5,2.5 0 0 1 82,208 " fill="#F1F1F1" style="stroke:#181818;stroke-width:0.5;"/><line style="stroke:#181818;stroke-width:0.5;" x1="79.5" x2="367.5" y1="231.6094" y2="231.6094"/><text fill="#000000" font-family="sans-serif" font-size="14" font-weight="bold" lengthAdjust="spacing" textLength="263" x="89.5" y="225.5332">connect4.launchers.distributed.client</text></g><!--entity connect4.controllers.proxies--><g id="elem_connect4.controllers.proxies"><path d="M127,309 L343,309 A3.75,3.75 0 0 1 345.5,311.5 L352.5,332.6094 L367,332.6094 A2.5,2.5 0 0 1 369.5,335.1094 L369.5,347.1094 A2.5,2.5 0 0 1 367,349.6094 L127,349.6094 A2.5,2.5 0 0 1 124.5,347.1094 L124.5,311.5 A2.5,2.5 0 0 1 127,309 " fill="#F1F1F1" style="stroke:#181818;stroke-width:0.5;"/><line style="stroke:#181818;stroke-width:0.5;" x1="124.5" x2="352.5" y1="332.6094" y2="332.6094"/><text fill="#000000" font-family="sans-serif" font-size="14" font-weight="bold" lengthAdjust="spacing" textLength="203" x="134.5" y="326.5332">connect4.controllers.proxies</text></g><!--entity connect4.launchers.distributed.server--><g id="elem_connect4.launchers.distributed.server"><path d="M614,6 L898,6 A3.75,3.75 0 0 1 900.5,8.5 L907.5,29.6094 L922,29.6094 A2.5,2.5 0 0 1 924.5,32.1094 L924.5,44.1094 A2.5,2.5 0 0 1 922,46.6094 L614,46.6094 A2.5,2.5 0 0 1 611.5,44.1094 L611.5,8.5 A2.5,2.5 0 0 1 614,6 " fill="#F1F1F1" style="stroke:#181818;stroke-width:0.5;"/><line style="stroke:#181818;stroke-width:0.5;" x1="611.5" x2="907.5" y1="29.6094" y2="29.6094"/><text fill="#000000" font-family="sans-serif" font-size="14" font-weight="bold" lengthAdjust="spacing" textLength="271" x="621.5" y="23.5332">connect4.launchers.distributed.server</text></g><!--entity connect4.launchers.distributed.server.dispatchers--><g id="elem_connect4.launchers.distributed.server.dispatchers"><path d="M443.5,107 L814.5,107 A3.75,3.75 0 0 1 817,109.5 L824,130.6094 L838.5,130.6094 A2.5,2.5 0 0 1 841,133.1094 L841,145.1094 A2.5,2.5 0 0 1 838.5,147.6094 L443.5,147.6094 A2.5,2.5 0 0 1 441,145.1094 L441,109.5 A2.5,2.5 0 0 1 443.5,107 " fill="#F1F1F1" style="stroke:#181818;stroke-width:0.5;"/><line style="stroke:#181818;stroke-width:0.5;" x1="441" x2="824" y1="130.6094" y2="130.6094"/><text fill="#000000" font-family="sans-serif" font-size="14" font-weight="bold" lengthAdjust="spacing" textLength="358" x="451" y="124.5332">connect4.launchers.distributed.server.dispatchers</text></g><!--entity connect4.types--><g id="elem_connect4.types"><path d="M638,511 L758,511 A3.75,3.75 0 0 1 760.5,513.5 L767.5,534.6094 L782,534.6094 A2.5,2.5 0 0 1 784.5,537.1094 L784.5,549.1094 A2.5,2.5 0 0 1 782,551.6094 L638,551.6094 A2.5,2.5 0 0 1 635.5,549.1094 L635.5,513.5 A2.5,2.5 0 0 1 638,511 " fill="#F1F1F1" style="stroke:#181818;stroke-width:0.5;"/><line style="stroke:#181818;stroke-width:0.5;" x1="635.5" x2="767.5" y1="534.6094" y2="534.6094"/><text fill="#000000" font-family="sans-serif" font-size="14" font-weight="bold" lengthAdjust="spacing" textLength="107" x="645.5" y="528.5332">connect4.types</text></g><!--entity utils.models--><g id="elem_utils.models"><path d="M1059,511 L1157,511 A3.75,3.75 0 0 1 1159.5,513.5 L1166.5,534.6094 L1181,534.6094 A2.5,2.5 0 0 1 1183.5,537.1094 L1183.5,549.1094 A2.5,2.5 0 0 1 1181,551.6094 L1059,551.6094 A2.5,2.5 0 0 1 1056.5,549.1094 L1056.5,513.5 A2.5,2.5 0 0 1 1059,511 " fill="#F1F1F1" style="stroke:#181818;stroke-width:0.5;"/><line style="stroke:#181818;stroke-width:0.5;" x1="1056.5" x2="1166.5" y1="534.6094" y2="534.6094"/><text fill="#000000" font-family="sans-serif" font-size="14" font-weight="bold" lengthAdjust="spacing" textLength="85" x="1066.5" y="528.5332">utils.models</text></g><!--entity connect4.net--><g id="elem_connect4.net"><path d="M111.5,410 L216.5,410 A3.75,3.75 0 0 1 219,412.5 L226,433.6094 L240.5,433.6094 A2.5,2.5 0 0 1 243,436.1094 L243,448.1094 A2.5,2.5 0 0 1 240.5,450.6094 L111.5,450.6094 A2.5,2.5 0 0 1 109,448.1094 L109,412.5 A2.5,2.5 0 0 1 111.5,410 " fill="#F1F1F1" style="stroke:#181818;stroke-width:0.5;"/><line style="stroke:#181818;stroke-width:0.5;" x1="109" x2="226" y1="433.6094" y2="433.6094"/><text fill="#000000" font-family="sans-serif" font-size="14" font-weight="bold" lengthAdjust="spacing" textLength="92" x="119" y="427.5332">connect4.net</text></g><!--entity connect4.models--><g id="elem_connect4.models"><path d="M907.5,410 L1040.5,410 A3.75,3.75 0 0 1 1043,412.5 L1050,433.6094 L1064.5,433.6094 A2.5,2.5 0 0 1 1067,436.1094 L1067,448.1094 A2.5,2.5 0 0 1 1064.5,450.6094 L907.5,450.6094 A2.5,2.5 0 0 1 905,448.1094 L905,412.5 A2.5,2.5 0 0 1 907.5,410 " fill="#F1F1F1" style="stroke:#181818;stroke-width:0.5;"/><line style="stroke:#181818;stroke-width:0.5;" x1="905" x2="1050" y1="433.6094" y2="433.6094"/><text fill="#000000" font-family="sans-serif" font-size="14" font-weight="bold" lengthAdjust="spacing" textLength="120" x="915" y="427.5332">connect4.models</text></g><!--entity utils.net--><g id="elem_utils.net"><path d="M129,511 L199,511 A3.75,3.75 0 0 1 201.5,513.5 L208.5,534.6094 L223,534.6094 A2.5,2.5 0 0 1 225.5,537.1094 L225.5,549.1094 A2.5,2.5 0 0 1 223,551.6094 L129,551.6094 A2.5,2.5 0 0 1 126.5,549.1094 L126.5,513.5 A2.5,2.5 0 0 1 129,511 " fill="#F1F1F1" style="stroke:#181818;stroke-width:0.5;"/><line style="stroke:#181818;stroke-width:0.5;" x1="126.5" x2="208.5" y1="534.6094" y2="534.6094"/><text fill="#000000" font-family="sans-serif" font-size="14" font-weight="bold" lengthAdjust="spacing" textLength="57" x="136.5" y="528.5332">utils.net</text></g><!--entity utils.views--><g id="elem_utils.views"><path d="M1389,208 L1477,208 A3.75,3.75 0 0 1 1479.5,210.5 L1486.5,231.6094 L1501,231.6094 A2.5,2.5 0 0 1 1503.5,234.1094 L1503.5,246.1094 A2.5,2.5 0 0 1 1501,248.6094 L1389,248.6094 A2.5,2.5 0 0 1 1386.5,246.1094 L1386.5,210.5 A2.5,2.5 0 0 1 1389,208 " fill="#F1F1F1" style="stroke:#181818;stroke-width:0.5;"/><line style="stroke:#181818;stroke-width:0.5;" x1="1386.5" x2="1486.5" y1="231.6094" y2="231.6094"/><text fill="#000000" font-family="sans-serif" font-size="14" font-weight="bold" lengthAdjust="spacing" textLength="75" x="1396.5" y="225.5332">utils.views</text></g><!--entity utils.models.menu--><g id="elem_utils.models.menu"><path d="M1041.5,208 L1182.5,208 A3.75,3.75 0 0 1 1185,210.5 L1192,231.6094 L1206.5,231.6094 A2.5,2.5 0 0 1 1209,234.1094 L1209,246.1094 A2.5,2.5 0 0 1 1206.5,248.6094 L1041.5,248.6094 A2.5,2.5 0 0 1 1039,246.1094 L1039,210.5 A2.5,2.5 0 0 1 1041.5,208 " fill="#F1F1F1" style="stroke:#181818;stroke-width:0.5;"/><line style="stroke:#181818;stroke-width:0.5;" x1="1039" x2="1192" y1="231.6094" y2="231.6094"/><text fill="#000000" font-family="sans-serif" font-size="14" font-weight="bold" lengthAdjust="spacing" textLength="128" x="1049" y="225.5332">utils.models.menu</text></g><!--link connect4.launchers to connect4.controllers.core--><g id="link_connect4.launchers_connect4.controllers.core"><path d="M1662.5,38.61 C1705.32,48.91 1752.72,68.77 1779,107 C1807.35,148.26 1754.07,237.16 1739,249 C1669.74,303.42 1431.8259,320.3674 1286.1359,325.7774 " fill="none" id="connect4.launchers-to-connect4.controllers.core" style="stroke:#181818;stroke-width:1.0;stroke-dasharray:7.0,7.0;"/><polygon fill="#181818" points="1280.14,326,1289.2822,329.6633,1285.1366,325.8145,1288.9854,321.6688,1280.14,326" style="stroke:#181818;stroke-width:1.0;"/></g><!--link connect4.launchers to connect4.views--><g id="link_connect4.launchers_connect4.views"><path d="M1554.96,47.41 C1536.49,71.55 1511.58,113.31 1527,148 C1538.2,173.21 1556.859,190.3772 1576.799,204.2872 " fill="none" id="connect4.launchers-to-connect4.views" style="stroke:#181818;stroke-width:1.0;stroke-dasharray:7.0,7.0;"/><polygon fill="#181818" points="1581.72,207.72,1576.6271,199.2901,1577.6192,204.8593,1572.05,205.8514,1581.72,207.72" style="stroke:#181818;stroke-width:1.0;"/></g><!--link connect4.launchers to connect4.views.console--><g id="link_connect4.launchers_connect4.views.console"><path d="M1524.58,47.06 C1482.5,64.42 1426.9069,87.3526 1384.8569,104.6926 " fill="none" id="connect4.launchers-to-connect4.views.console" style="stroke:#181818;stroke-width:1.0;stroke-dasharray:7.0,7.0;"/><polygon fill="#181818" points="1379.31,106.98,1389.1552,107.2469,1383.9324,105.0739,1386.1054,99.851,1379.31,106.98" style="stroke:#181818;stroke-width:1.0;"/></g><!--link connect4.launchers to connect4.views.graphics--><g id="link_connect4.launchers_connect4.views.graphics"><path d="M1588,47.06 C1602.2,64.42 1619.0401,84.9966 1633.2301,102.3366 " fill="none" id="connect4.launchers-to-connect4.views.graphics" style="stroke:#181818;stroke-width:1.0;stroke-dasharray:7.0,7.0;"/><polygon fill="#181818" points="1637.03,106.98,1634.4258,97.4817,1633.8634,103.1105,1628.2346,102.5482,1637.03,106.98" style="stroke:#181818;stroke-width:1.0;"/></g><!--link connect4.launchers.standalone to connect4.controllers.implementation--><g id="link_connect4.launchers.standalone_connect4.controllers.implementation"><path d="M346.5,148.06 C410.84,165.42 498.557,189.0775 562.847,206.4175 " fill="none" id="connect4.launchers.standalone-to-connect4.controllers.implementation" style="stroke:#181818;stroke-width:1.0;stroke-dasharray:7.0,7.0;"/><polygon fill="#181818" points="568.64,207.98,560.9922,201.7743,563.8125,206.678,558.9089,209.4983,568.64,207.98" style="stroke:#181818;stroke-width:1.0;"/></g><!--link connect4.launchers.distributed.client to connect4.controllers.proxies--><g id="link_connect4.launchers.distributed.client_connect4.controllers.proxies"><path d="M234.96,249.06 C237.59,266.42 240.5103,285.7078 243.1403,303.0478 " fill="none" id="connect4.launchers.distributed.client-to-connect4.controllers.proxies" style="stroke:#181818;stroke-width:1.0;stroke-dasharray:7.0,7.0;"/><polygon fill="#181818" points="244.04,308.98,246.6452,299.4819,243.2902,304.0365,238.7356,300.6816,244.04,308.98" style="stroke:#181818;stroke-width:1.0;"/></g><!--link connect4.launchers.distributed.server to connect4.launchers.distributed.server.dispatchers--><g id="link_connect4.launchers.distributed.server_connect4.launchers.distributed.server.dispatchers"><path d="M742.91,47.06 C720.64,64.42 693.0118,85.9508 670.7718,103.2908 " fill="none" id="connect4.launchers.distributed.server-to-connect4.launchers.distributed.server.dispatchers" style="stroke:#181818;stroke-width:1.0;stroke-dasharray:7.0,7.0;"/><polygon fill="#181818" points="666.04,106.98,675.5971,104.6006,669.9831,103.9056,670.6781,98.2916,666.04,106.98" style="stroke:#181818;stroke-width:1.0;"/></g><!--link connect4.launchers.distributed.server to connect4.controllers.implementation--><g id="link_connect4.launchers.distributed.server_connect4.controllers.implementation"><path d="M800.87,47.01 C836.32,70.57 884.47,111.59 859,148 C838.27,177.62 810.9559,194.3048 776.8459,205.9948 " fill="none" id="connect4.launchers.distributed.server-to-connect4.controllers.implementation" style="stroke:#181818;stroke-width:1.0;stroke-dasharray:7.0,7.0;"/><polygon fill="#181818" points="771.17,207.94,780.9807,208.8061,775.8999,206.319,778.3871,201.2382,771.17,207.94" style="stroke:#181818;stroke-width:1.0;"/></g><!--link connect4.launchers.distributed.server.dispatchers to connect4.controllers.implementation--><g id="link_connect4.launchers.distributed.server.dispatchers_connect4.controllers.implementation"><path d="M641,148.06 C641,165.42 641,184.64 641,201.98 " fill="none" id="connect4.launchers.distributed.server.dispatchers-to-connect4.controllers.implementation" style="stroke:#181818;stroke-width:1.0;stroke-dasharray:7.0,7.0;"/><polygon fill="#181818" points="641,207.98,645,198.98,641,202.98,637,198.98,641,207.98" style="stroke:#181818;stroke-width:1.0;"/></g><!--link connect4.launchers.distributed.server.dispatchers to connect4.types--><g id="link_connect4.launchers.distributed.server.dispatchers_connect4.types"><path d="M556.65,148.09 C525.13,159.95 492.51,178.68 474,208 C464.27,223.41 467.77,231.88 474,249 C516.72,366.47 627.6819,465.3129 679.5419,506.9629 " fill="none" id="connect4.launchers.distributed.server.dispatchers-to-connect4.types" style="stroke:#181818;stroke-width:1.0;stroke-dasharray:7.0,7.0;"/><polygon fill="#181818" points="684.22,510.72,679.7076,501.9657,680.3216,507.5891,674.6982,508.2031,684.22,510.72" style="stroke:#181818;stroke-width:1.0;"/></g><!--link connect4.launchers.distributed.server.dispatchers to utils.models--><g id="link_connect4.launchers.distributed.server.dispatchers_utils.models"><path d="M688.58,148.13 C722.91,162.98 769.9,184.73 809,208 C813.08,210.43 1082.27,406.11 1085,410 C1106.74,441.05 1114.3542,479.6053 1117.4842,504.9353 " fill="none" id="connect4.launchers.distributed.server.dispatchers-to-utils.models" style="stroke:#181818;stroke-width:1.0;stroke-dasharray:7.0,7.0;"/><polygon fill="#181818" points="1118.22,510.89,1121.0861,501.4674,1117.6068,505.9277,1113.1465,502.4485,1118.22,510.89" style="stroke:#181818;stroke-width:1.0;"/></g><!--link connect4.launchers.distributed.server.dispatchers to connect4.controllers.core--><g id="link_connect4.launchers.distributed.server.dispatchers_connect4.controllers.core"><path d="M700.12,148.12 C746.53,163.74 812.67,186.47 870,208 C959.86,241.74 1057.9565,282.2205 1116.2865,306.6705 " fill="none" id="connect4.launchers.distributed.server.dispatchers-to-connect4.controllers.core" style="stroke:#181818;stroke-width:1.0;stroke-dasharray:7.0,7.0;"/><polygon fill="#181818" points="1121.82,308.99,1115.066,301.8218,1117.2087,307.0571,1111.9734,309.1998,1121.82,308.99" style="stroke:#181818;stroke-width:1.0;"/></g><!--link connect4.launchers.distributed.server.dispatchers to connect4.net--><g id="link_connect4.launchers.distributed.server.dispatchers_connect4.net"><path d="M456.03,148.02 C291.6,166.28 75.14,192.93 62,208 C6,272.21 99.1316,364.8686 147.1416,405.9586 " fill="none" id="connect4.launchers.distributed.server.dispatchers-to-connect4.net" style="stroke:#181818;stroke-width:1.0;stroke-dasharray:7.0,7.0;"/><polygon fill="#181818" points="151.7,409.86,147.4633,400.969,147.9013,406.6088,142.2614,407.0469,151.7,409.86" style="stroke:#181818;stroke-width:1.0;"/></g><!--link connect4.models to connect4.types--><g id="link_connect4.models_connect4.types"><path d="M931.47,451.06 C883.08,468.42 818.4078,491.6145 770.0578,508.9545 " fill="none" id="connect4.models-to-connect4.types" style="stroke:#181818;stroke-width:1.0;stroke-dasharray:7.0,7.0;"/><polygon fill="#181818" points="764.41,510.98,774.232,511.7069,769.1165,509.2921,771.5313,504.1766,764.41,510.98" style="stroke:#181818;stroke-width:1.0;"/></g><!--link connect4.models to utils.models--><g id="link_connect4.models_utils.models"><path d="M1012.47,451.06 C1035.96,468.42 1065.2735,490.0756 1088.7535,507.4156 " fill="none" id="connect4.models-to-utils.models" style="stroke:#181818;stroke-width:1.0;stroke-dasharray:7.0,7.0;"/><polygon fill="#181818" points="1093.58,510.98,1088.7165,502.4158,1089.5579,508.0097,1083.964,508.8511,1093.58,510.98" style="stroke:#181818;stroke-width:1.0;"/></g><!--link connect4.net to connect4.types--><g id="link_connect4.net_connect4.types"><path d="M243.22,445.66 C252.21,447.5 261.32,449.32 270,451 C398.02,475.84 541.5889,501.2909 629.2389,516.5509 " fill="none" id="connect4.net-to-connect4.types" style="stroke:#181818;stroke-width:1.0;stroke-dasharray:7.0,7.0;"/><polygon fill="#181818" points="635.15,517.58,626.9695,512.0956,630.2241,516.7224,625.5973,519.977,635.15,517.58" style="stroke:#181818;stroke-width:1.0;"/></g><!--link connect4.net to utils.net--><g id="link_connect4.net_utils.net"><path d="M176,451.06 C176,468.42 176,487.64 176,504.98 " fill="none" id="connect4.net-to-utils.net" style="stroke:#181818;stroke-width:1.0;stroke-dasharray:7.0,7.0;"/><polygon fill="#181818" points="176,510.98,180,501.98,176,505.98,172,501.98,176,510.98" style="stroke:#181818;stroke-width:1.0;"/></g><!--link connect4.controllers.core to connect4.types--><g id="link_connect4.controllers.core_connect4.types"><path d="M1070.67,350.08 C1015.54,363.13 946.17,382.9 888,410 C828.29,437.81 770.9742,480.7881 738.2342,507.1381 " fill="none" id="connect4.controllers.core-to-connect4.types" style="stroke:#181818;stroke-width:1.0;stroke-dasharray:7.0,7.0;"/><polygon fill="#181818" points="733.56,510.9,743.0792,508.3733,737.4552,507.7651,738.0633,502.141,733.56,510.9" style="stroke:#181818;stroke-width:1.0;"/></g><!--link connect4.controllers.core to connect4.models--><g id="link_connect4.controllers.core_connect4.models"><path d="M1132.04,350.06 C1100.13,367.42 1059.0308,389.7731 1027.1508,407.1131 " fill="none" id="connect4.controllers.core-to-connect4.models" style="stroke:#181818;stroke-width:1.0;stroke-dasharray:7.0,7.0;"/><polygon fill="#181818" points="1021.88,409.98,1031.6974,409.1936,1026.2723,407.591,1027.8749,402.1659,1021.88,409.98" style="stroke:#181818;stroke-width:1.0;"/></g><!--link connect4.controllers.core to utils.models--><g id="link_connect4.controllers.core_utils.models"><path d="M1165.22,350.3 C1161.67,374.32 1154.88,415.96 1146,451 C1140.75,471.69 1134.9749,489.1784 1129.2849,505.1384 " fill="none" id="connect4.controllers.core-to-utils.models" style="stroke:#181818;stroke-width:1.0;stroke-dasharray:7.0,7.0;"/><polygon fill="#181818" points="1127.27,510.79,1134.06,503.6559,1128.9491,506.0804,1126.5246,500.9694,1127.27,510.79" style="stroke:#181818;stroke-width:1.0;"/></g><!--link connect4.controllers.implementation to connect4.controllers.core--><g id="link_connect4.controllers.implementation_connect4.controllers.core"><path d="M744.8,249 C837.16,266.35 965.6431,290.4925 1058.0731,307.8525 " fill="none" id="connect4.controllers.implementation-to-connect4.controllers.core" style="stroke:#181818;stroke-width:1.0;stroke-dasharray:7.0,7.0;"/><polygon fill="#181818" points="1063.97,308.96,1055.863,303.3674,1059.0559,308.037,1054.3863,311.2299,1063.97,308.96" style="stroke:#181818;stroke-width:1.0;"/></g><!--link connect4.controllers.implementation to connect4.models--><g id="link_connect4.controllers.implementation_connect4.models"><path d="M674.7,249.04 C740.66,287.28 880.8993,368.5706 946.9593,406.8706 " fill="none" id="connect4.controllers.implementation-to-connect4.models" style="stroke:#181818;stroke-width:1.0;stroke-dasharray:7.0,7.0;"/><polygon fill="#181818" points="952.15,409.88,946.3703,401.9054,947.8244,407.3721,942.3577,408.8263,952.15,409.88" style="stroke:#181818;stroke-width:1.0;"/></g><!--link connect4.controllers.implementation to connect4.types--><g id="link_connect4.controllers.implementation_connect4.types"><path d="M643.98,249.24 C650.06,288.17 664.91,377.44 684,451 C689.36,471.66 695.1377,489.154 700.7877,505.114 " fill="none" id="connect4.controllers.implementation-to-connect4.types" style="stroke:#181818;stroke-width:1.0;stroke-dasharray:7.0,7.0;"/><polygon fill="#181818" points="702.79,510.77,703.5573,500.9511,701.1214,506.0566,696.0159,503.6208,702.79,510.77" style="stroke:#181818;stroke-width:1.0;"/></g><!--link connect4.controllers.implementation to utils.models--><g id="link_connect4.controllers.implementation_utils.models"><path d="M657.83,249.29 C695.11,291.97 789.21,393.44 888,451 C941.06,481.92 1002.1875,501.7134 1050.4975,514.4234 " fill="none" id="connect4.controllers.implementation-to-utils.models" style="stroke:#181818;stroke-width:1.0;stroke-dasharray:7.0,7.0;"/><polygon fill="#181818" points="1056.3,515.95,1048.6139,509.7917,1051.4645,514.6778,1046.5785,517.5285,1056.3,515.95" style="stroke:#181818;stroke-width:1.0;"/></g><!--link connect4.controllers.proxies to connect4.types--><g id="link_connect4.controllers.proxies_connect4.types"><path d="M256.72,350.25 C271.17,377.45 300.99,425.9 341,451 C431.62,507.85 550.7303,524.1686 629.4803,528.7886 " fill="none" id="connect4.controllers.proxies-to-connect4.types" style="stroke:#181818;stroke-width:1.0;stroke-dasharray:7.0,7.0;"/><polygon fill="#181818" points="635.47,529.14,626.7197,524.6198,630.4786,528.8472,626.2512,532.606,635.47,529.14" style="stroke:#181818;stroke-width:1.0;"/></g><!--link connect4.controllers.proxies to connect4.net--><g id="link_connect4.controllers.proxies_connect4.net"><path d="M232.97,350.06 C220.52,367.42 205.9275,387.7648 193.4875,405.1048 " fill="none" id="connect4.controllers.proxies-to-connect4.net" style="stroke:#181818;stroke-width:1.0;stroke-dasharray:7.0,7.0;"/><polygon fill="#181818" points="189.99,409.98,198.4864,404.9989,192.9046,405.9174,191.9862,400.3356,189.99,409.98" style="stroke:#181818;stroke-width:1.0;"/></g><!--link connect4.controllers.proxies to utils.models--><g id="link_connect4.controllers.proxies_utils.models"><path d="M310.96,350.06 C395.71,375.53 550.12,420.4 684,451 C815.45,481.05 965.3241,506.2698 1050.5341,519.7898 " fill="none" id="connect4.controllers.proxies-to-utils.models" style="stroke:#181818;stroke-width:1.0;stroke-dasharray:7.0,7.0;"/><polygon fill="#181818" points="1056.46,520.73,1048.198,515.3691,1051.5218,519.9465,1046.9444,523.2702,1056.46,520.73" style="stroke:#181818;stroke-width:1.0;"/></g><!--link connect4.views to connect4.controllers.core--><g id="link_connect4.views_connect4.controllers.core"><path d="M1538.92,246.35 C1460.66,263.68 1344.738,289.3524 1262.258,307.6224 " fill="none" id="connect4.views-to-connect4.controllers.core" style="stroke:#181818;stroke-width:1.0;stroke-dasharray:7.0,7.0;"/><polygon fill="#181818" points="1256.4,308.92,1266.0521,310.8789,1261.2817,307.8387,1264.3219,303.0683,1256.4,308.92" style="stroke:#181818;stroke-width:1.0;"/></g><!--link connect4.views.console to connect4.controllers.core--><g id="link_connect4.views.console_connect4.controllers.core"><path d="M1315.97,148.04 C1284.62,186.28 1219.294,265.94 1187.894,304.24 " fill="none" id="connect4.views.console-to-connect4.controllers.core" style="stroke:#181818;stroke-width:1.0;stroke-dasharray:7.0,7.0;"/><polygon fill="#181818" points="1184.09,308.88,1192.8894,304.4561,1187.26,305.0134,1186.7028,299.384,1184.09,308.88" style="stroke:#181818;stroke-width:1.0;"/></g><!--link connect4.views.console to connect4.views--><g id="link_connect4.views.console_connect4.views"><path d="M1387.91,148.06 C1437.52,165.42 1503.9564,188.6592 1553.5364,205.9992 " fill="none" id="connect4.views.console-to-connect4.views" style="stroke:#181818;stroke-width:1.0;stroke-dasharray:7.0,7.0;"/><polygon fill="#181818" points="1559.2,207.98,1552.0251,201.2331,1554.4803,206.3294,1549.3841,208.7846,1559.2,207.98" style="stroke:#181818;stroke-width:1.0;"/></g><!--link connect4.views.console to utils.views--><g id="link_connect4.views.console_utils.views"><path d="M1354.32,148.06 C1374.13,165.42 1398.4062,186.687 1418.2062,204.027 " fill="none" id="connect4.views.console-to-utils.views" style="stroke:#181818;stroke-width:1.0;stroke-dasharray:7.0,7.0;"/><polygon fill="#181818" points="1422.72,207.98,1418.5847,199.0414,1418.9585,204.6859,1413.314,205.0597,1422.72,207.98" style="stroke:#181818;stroke-width:1.0;"/></g><!--link connect4.views.console to connect4.types--><g id="link_connect4.views.console_connect4.types"><path d="M1225.88,142.11 C1163.6,153.33 1085.01,173.26 1022,208 C878.73,286.98 763.8684,448.3946 726.0284,505.6446 " fill="none" id="connect4.views.console-to-connect4.types" style="stroke:#181818;stroke-width:1.0;stroke-dasharray:7.0,7.0;"/><polygon fill="#181818" points="722.72,510.65,731.0196,505.3474,725.477,506.4788,724.3456,500.9362,722.72,510.65" style="stroke:#181818;stroke-width:1.0;"/></g><!--link connect4.views.console to utils.models--><g id="link_connect4.views.console_utils.models"><path d="M1332.91,148.07 C1333.97,188.22 1332.22,281.85 1298,350 C1262.45,420.8 1193.7318,477.7264 1153.1918,507.3964 " fill="none" id="connect4.views.console-to-utils.models" style="stroke:#181818;stroke-width:1.0;stroke-dasharray:7.0,7.0;"/><polygon fill="#181818" points="1148.35,510.94,1157.9751,508.8525,1152.3848,507.987,1153.2503,502.3968,1148.35,510.94" style="stroke:#181818;stroke-width:1.0;"/></g><!--link connect4.views.console to utils.models.menu--><g id="link_connect4.views.console_utils.models.menu"><path d="M1290.9,148.06 C1254.44,165.42 1206.8576,188.0613 1170.4276,205.4013 " fill="none" id="connect4.views.console-to-utils.models.menu" style="stroke:#181818;stroke-width:1.0;stroke-dasharray:7.0,7.0;"/><polygon fill="#181818" points="1165.01,207.98,1174.8555,207.7237,1169.5247,205.8311,1171.4173,200.5002,1165.01,207.98" style="stroke:#181818;stroke-width:1.0;"/></g><!--link connect4.views.graphics to connect4.controllers.core--><g id="link_connect4.views.graphics_connect4.controllers.core"><path d="M1674.63,148.32 C1699.94,173.87 1735.24,218.62 1709,249 C1654.74,311.82 1428.159,325.7993 1286.199,328.4193 " fill="none" id="connect4.views.graphics-to-connect4.controllers.core" style="stroke:#181818;stroke-width:1.0;stroke-dasharray:7.0,7.0;"/><polygon fill="#181818" points="1280.2,328.53,1289.2723,332.3632,1285.1991,328.4377,1289.1247,324.3646,1280.2,328.53" style="stroke:#181818;stroke-width:1.0;"/></g><!--link connect4.views.graphics to connect4.types--><g id="link_connect4.views.graphics_connect4.types"><path d="M1684.07,148.04 C1718.23,171.99 1765.01,213.74 1739,249 C1623.2,405.96 1007.345,494.4563 790.555,521.1663 " fill="none" id="connect4.views.graphics-to-connect4.types" style="stroke:#181818;stroke-width:1.0;stroke-dasharray:7.0,7.0;"/><polygon fill="#181818" points="784.6,521.9,794.0216,524.7694,789.5625,521.2886,793.0433,516.8295,784.6,521.9" style="stroke:#181818;stroke-width:1.0;"/></g><!--link connect4.views.graphics to utils.models--><g id="link_connect4.views.graphics_utils.models"><path d="M1761.58,140.01 C1850.31,154.22 1954.64,184.89 1912,249 C1746.92,497.17 1347.0992,528.4335 1189.7692,530.9635 " fill="none" id="connect4.views.graphics-to-utils.models" style="stroke:#181818;stroke-width:1.0;stroke-dasharray:7.0,7.0;"/><polygon fill="#181818" points="1183.77,531.06,1192.8332,534.9148,1188.7694,530.9796,1192.7045,526.9158,1183.77,531.06" style="stroke:#181818;stroke-width:1.0;"/></g><!--link connect4.views.graphics to connect4.views--><g id="link_connect4.views.graphics_connect4.views"><path d="M1645.49,148.06 C1638.83,165.42 1631.3013,185.0389 1624.6413,202.3789 " fill="none" id="connect4.views.graphics-to-connect4.views" style="stroke:#181818;stroke-width:1.0;stroke-dasharray:7.0,7.0;"/><polygon fill="#181818" points="1622.49,207.98,1629.451,201.0126,1624.2827,203.3124,1621.9829,198.1442,1622.49,207.98" style="stroke:#181818;stroke-width:1.0;"/></g><!--link connect4.views.graphics to utils.views--><g id="link_connect4.views.graphics_utils.views"><path d="M1611.9,148.06 C1575.44,165.42 1527.8576,188.0613 1491.4276,205.4013 " fill="none" id="connect4.views.graphics-to-utils.views" style="stroke:#181818;stroke-width:1.0;stroke-dasharray:7.0,7.0;"/><polygon fill="#181818" points="1486.01,207.98,1495.8555,207.7237,1490.5247,205.8311,1492.4173,200.5002,1486.01,207.98" style="stroke:#181818;stroke-width:1.0;"/></g><!--SRC=[jLPBTiCW4DjpYfo0LTUz2yNp4buny02dxUrBIkAOttJSf3iRD4AInu0JybqSuI2jCI3Z2zTYCV84FZ1NJwM7wAtMQJ8zUsWHPmKVOJ3CZrwuavB3-VGQh0R6MYq7pbyH7RyLP5aarAg2XbuzjQRMEXwYC9FGrW2UgPgTXXbC555Pmr2cSI8L2oPiKY5wzRP4cBZKAjNW0fstdmfwINQenWflD5Hf0VmP_3xqPSY9c3kPL57g_Kzkv6ir7kENW_iViqIb0v_j19hoV-vsGzRv87DszJUI8eCdEkplQ0RYeujSA5hYsa1-HsFQG8eGDZjcMgj7KVPFuUbMSP_QqrZr3AeV1zU1TD6bRqAdKayEAWEc4gj3ekYK4MnUDr7oAbryqGaZz43Cpm58ZRSuMvzGL5uqiiBgb6-hYR1HcYF2QZlU3lBqMHSgGmQpmGrZNsZzggwX0jhVN37ERfmTpenZtm00]--></g></svg>