<?xml version="1.0" encoding="us-ascii" standalone="no"?><svg xmlns="http://www.w3.org/2000/svg" xmlns:xlink="http://www.w3.org/1999/xlink" contentStyleType="text/css" height="1539px" preserveAspectRatio="none" style="width:1544px;height:1539px;background:#FFFFFF;" version="1.1" viewBox="0 0 1544 1539" width="1544px" zoomAndPan="magnify"><defs/><g><!--cluster views--><g id="cluster_views"><path d="M8.5,6 L50.5,6 A3.75,3.75 0 0 1 53,8.5 L60,29.6094 L992.5,29.6094 A2.5,2.5 0 0 1 995,32.1094 L995,1529.5 A2.5,2.5 0 0 1 992.5,1532 L8.5,1532 A2.5,2.5 0 0 1 6,1529.5 L6,8.5 A2.5,2.5 0 0 1 8.5,6 " fill="none" style="stroke:#000000;stroke-width:1.5;"/><line style="stroke:#000000;stroke-width:1.5;" x1="6" x2="60" y1="29.6094" y2="29.6094"/><text fill="#000000" font-family="sans-serif" font-size="14" font-weight="bold" lengthAdjust="spacing" textLength="41" x="10" y="22.5332">views</text></g><!--class GameView--><g id="elem_GameView"><rect codeLine="2" fill="#F1F1F1" height="153.6563" id="GameView" rx="2.5" ry="2.5" style="stroke:#181818;stroke-width:0.5;" width="167" x="810.5" y="121"/><ellipse cx="856.25" cy="137" fill="#ADD1B2" rx="11" ry="11" style="stroke:#181818;stroke-width:1.0;"/><path d="M859.0156,132.875 Q859.1719,132.6563 859.3594,132.5469 Q859.5469,132.4375 859.7656,132.4375 Q860.1406,132.4375 860.375,132.7031 Q860.6094,132.9531 860.6094,133.5625 L860.6094,135.0156 Q860.6094,135.625 860.375,135.8906 Q860.1406,136.1563 859.7656,136.1563 Q859.4219,136.1563 859.2188,135.9531 Q859.0156,135.7656 858.9063,135.25 Q858.8594,134.8906 858.6719,134.7031 Q858.3438,134.3281 857.7344,134.1094 Q857.125,133.8906 856.5,133.8906 Q855.7344,133.8906 855.0938,134.2188 Q854.4688,134.5469 853.9688,135.2969 Q853.4844,136.0469 853.4844,137.0781 L853.4844,138.1719 Q853.4844,139.4063 854.375,140.2344 Q855.2656,141.0469 856.8594,141.0469 Q857.7969,141.0469 858.4531,140.7969 Q858.8438,140.6406 859.2656,140.2031 Q859.5313,139.9375 859.6719,139.8594 Q859.8281,139.7813 860.0313,139.7813 Q860.3594,139.7813 860.6094,140.0469 Q860.875,140.2969 860.875,140.6406 Q860.875,140.9844 860.5313,141.3906 Q860.0313,141.9688 859.2344,142.2969 Q858.1563,142.75 856.8594,142.75 Q855.3438,142.75 854.1406,142.125 Q853.1563,141.625 852.4688,140.5625 Q851.7813,139.4844 851.7813,138.2031 L851.7813,137.0469 Q851.7813,135.7188 852.3906,134.5781 Q853.0156,133.4219 854.1094,132.8125 Q855.2031,132.1875 856.4375,132.1875 Q857.1719,132.1875 857.8125,132.3594 Q858.4688,132.5156 859.0156,132.875 Z " fill="#000000"/><text fill="#000000" font-family="sans-serif" font-size="14" lengthAdjust="spacing" textLength="67" x="876.75" y="142.7285">GameView</text><line style="stroke:#181818;stroke-width:0.5;" x1="811.5" x2="976.5" y1="153" y2="153"/><rect fill="none" height="6" style="stroke:#C82930;stroke-width:1.0;" width="6" x="818.5" y="164.3047"/><text fill="#000000" font-family="sans-serif" font-size="14" lengthAdjust="spacing" textLength="81" x="830.5" y="171.5332">game: Game</text><rect fill="none" height="6" style="stroke:#C82930;stroke-width:1.0;" width="6" x="818.5" y="181.9141"/><text fill="#000000" font-family="sans-serif" font-size="14" lengthAdjust="spacing" textLength="141" x="830.5" y="189.1426">boardView: BoardView</text><rect fill="none" height="6" style="stroke:#C82930;stroke-width:1.0;" width="6" x="818.5" y="199.5234"/><text fill="#000000" font-family="sans-serif" font-size="14" lengthAdjust="spacing" textLength="121" x="830.5" y="206.752">turnView: TurnView</text><line style="stroke:#181818;stroke-width:0.5;" x1="811.5" x2="976.5" y1="213.8281" y2="213.8281"/><ellipse cx="821.5" cy="228.1328" fill="#84BE84" rx="3" ry="3" style="stroke:#038048;stroke-width:1.0;"/><text fill="#000000" font-family="sans-serif" font-size="14" lengthAdjust="spacing" textLength="115" x="830.5" y="232.3613">GameView(Game)</text><ellipse cx="821.5" cy="245.7422" fill="#84BE84" rx="3" ry="3" style="stroke:#038048;stroke-width:1.0;"/><text fill="#000000" font-family="sans-serif" font-size="14" lengthAdjust="spacing" textLength="74" x="830.5" y="249.9707">playGame()</text><rect fill="#F24D5C" height="6" style="stroke:#C82930;stroke-width:1.0;" width="6" x="818.5" y="260.3516"/><text fill="#000000" font-family="sans-serif" font-size="14" lengthAdjust="spacing" textLength="80" x="830.5" y="267.5801">isResumed()</text></g><!--class BoardView--><g id="elem_BoardView"><rect codeLine="3" fill="#F1F1F1" height="118.4375" id="BoardView" rx="2.5" ry="2.5" style="stroke:#181818;stroke-width:0.5;" width="141" x="837.5" y="440.5"/><ellipse cx="871.4" cy="456.5" fill="#ADD1B2" rx="11" ry="11" style="stroke:#181818;stroke-width:1.0;"/><path d="M874.1656,452.375 Q874.3219,452.1563 874.5094,452.0469 Q874.6969,451.9375 874.9156,451.9375 Q875.2906,451.9375 875.525,452.2031 Q875.7594,452.4531 875.7594,453.0625 L875.7594,454.5156 Q875.7594,455.125 875.525,455.3906 Q875.2906,455.6563 874.9156,455.6563 Q874.5719,455.6563 874.3688,455.4531 Q874.1656,455.2656 874.0563,454.75 Q874.0094,454.3906 873.8219,454.2031 Q873.4938,453.8281 872.8844,453.6094 Q872.275,453.3906 871.65,453.3906 Q870.8844,453.3906 870.2438,453.7188 Q869.6188,454.0469 869.1188,454.7969 Q868.6344,455.5469 868.6344,456.5781 L868.6344,457.6719 Q868.6344,458.9063 869.525,459.7344 Q870.4156,460.5469 872.0094,460.5469 Q872.9469,460.5469 873.6031,460.2969 Q873.9938,460.1406 874.4156,459.7031 Q874.6813,459.4375 874.8219,459.3594 Q874.9781,459.2813 875.1813,459.2813 Q875.5094,459.2813 875.7594,459.5469 Q876.025,459.7969 876.025,460.1406 Q876.025,460.4844 875.6813,460.8906 Q875.1813,461.4688 874.3844,461.7969 Q873.3063,462.25 872.0094,462.25 Q870.4938,462.25 869.2906,461.625 Q868.3063,461.125 867.6188,460.0625 Q866.9313,458.9844 866.9313,457.7031 L866.9313,456.5469 Q866.9313,455.2188 867.5406,454.0781 Q868.1656,452.9219 869.2594,452.3125 Q870.3531,451.6875 871.5875,451.6875 Q872.3219,451.6875 872.9625,451.8594 Q873.6188,452.0156 874.1656,452.375 Z " fill="#000000"/><text fill="#000000" font-family="sans-serif" font-size="14" lengthAdjust="spacing" textLength="67" x="889.6" y="462.2285">BoardView</text><line style="stroke:#181818;stroke-width:0.5;" x1="838.5" x2="977.5" y1="472.5" y2="472.5"/><rect fill="none" height="6" style="stroke:#C82930;stroke-width:1.0;" width="6" x="845.5" y="483.8047"/><text fill="#000000" font-family="sans-serif" font-size="14" lengthAdjust="spacing" textLength="81" x="857.5" y="491.0332">game: Game</text><line style="stroke:#181818;stroke-width:0.5;" x1="838.5" x2="977.5" y1="498.1094" y2="498.1094"/><rect fill="#F24D5C" height="6" style="stroke:#C82930;stroke-width:1.0;" width="6" x="845.5" y="509.4141"/><text fill="#000000" font-family="sans-serif" font-size="14" lengthAdjust="spacing" textLength="115" x="857.5" y="516.6426">BoardView(Game)</text><ellipse cx="848.5" cy="530.0234" fill="#84BE84" rx="3" ry="3" style="stroke:#038048;stroke-width:1.0;"/><text fill="#000000" font-family="sans-serif" font-size="14" lengthAdjust="spacing" textLength="50" x="857.5" y="534.252">writeln()</text><rect fill="#F24D5C" height="6" style="stroke:#C82930;stroke-width:1.0;" width="6" x="845.5" y="544.6328"/><text fill="#000000" font-family="sans-serif" font-size="14" lengthAdjust="spacing" textLength="101" x="857.5" y="551.8613">writeHorizontal()</text></g><!--class TurnView--><g id="elem_TurnView"><rect codeLine="4" fill="#F1F1F1" height="171.2656" id="TurnView" rx="2.5" ry="2.5" style="stroke:#181818;stroke-width:0.5;" width="323" x="479.5" y="414"/><ellipse cx="607.25" cy="430" fill="#ADD1B2" rx="11" ry="11" style="stroke:#181818;stroke-width:1.0;"/><path d="M610.0156,425.875 Q610.1719,425.6563 610.3594,425.5469 Q610.5469,425.4375 610.7656,425.4375 Q611.1406,425.4375 611.375,425.7031 Q611.6094,425.9531 611.6094,426.5625 L611.6094,428.0156 Q611.6094,428.625 611.375,428.8906 Q611.1406,429.1563 610.7656,429.1563 Q610.4219,429.1563 610.2188,428.9531 Q610.0156,428.7656 609.9063,428.25 Q609.8594,427.8906 609.6719,427.7031 Q609.3438,427.3281 608.7344,427.1094 Q608.125,426.8906 607.5,426.8906 Q606.7344,426.8906 606.0938,427.2188 Q605.4688,427.5469 604.9688,428.2969 Q604.4844,429.0469 604.4844,430.0781 L604.4844,431.1719 Q604.4844,432.4063 605.375,433.2344 Q606.2656,434.0469 607.8594,434.0469 Q608.7969,434.0469 609.4531,433.7969 Q609.8438,433.6406 610.2656,433.2031 Q610.5313,432.9375 610.6719,432.8594 Q610.8281,432.7813 611.0313,432.7813 Q611.3594,432.7813 611.6094,433.0469 Q611.875,433.2969 611.875,433.6406 Q611.875,433.9844 611.5313,434.3906 Q611.0313,434.9688 610.2344,435.2969 Q609.1563,435.75 607.8594,435.75 Q606.3438,435.75 605.1406,435.125 Q604.1563,434.625 603.4688,433.5625 Q602.7813,432.4844 602.7813,431.2031 L602.7813,430.0469 Q602.7813,428.7188 603.3906,427.5781 Q604.0156,426.4219 605.1094,425.8125 Q606.2031,425.1875 607.4375,425.1875 Q608.1719,425.1875 608.8125,425.3594 Q609.4688,425.5156 610.0156,425.875 Z " fill="#000000"/><text fill="#000000" font-family="sans-serif" font-size="14" lengthAdjust="spacing" textLength="59" x="627.75" y="435.7285">TurnView</text><line style="stroke:#181818;stroke-width:0.5;" x1="480.5" x2="801.5" y1="446" y2="446"/><rect fill="none" height="6" style="stroke:#C82930;stroke-width:1.0;" width="6" x="487.5" y="457.3047"/><text fill="#000000" font-family="sans-serif" font-size="14" lengthAdjust="spacing" textLength="81" x="499.5" y="464.5332">game: Game</text><rect fill="none" height="6" style="stroke:#C82930;stroke-width:1.0;" width="6" x="487.5" y="483.7188"/><text fill="#000000" font-family="sans-serif" font-size="14" lengthAdjust="spacing" textLength="186" x="499.5" y="482.1426">PlayerViewPrototypeRegistry:</text><text fill="#000000" font-family="sans-serif" font-size="14" lengthAdjust="spacing" textLength="182" x="499.5" y="499.752">PlayerViewPrototypeRegistry</text><line style="stroke:#181818;stroke-width:0.5;" x1="480.5" x2="801.5" y1="506.8281" y2="506.8281"/><rect fill="#F24D5C" height="6" style="stroke:#C82930;stroke-width:1.0;" width="6" x="487.5" y="518.1328"/><text fill="#000000" font-family="sans-serif" font-size="14" lengthAdjust="spacing" textLength="297" x="499.5" y="525.3613">TurnView(Game, PlayerViewPrototypeRegistry)</text><ellipse cx="490.5" cy="538.7422" fill="#84BE84" rx="3" ry="3" style="stroke:#038048;stroke-width:1.0;"/><text fill="#000000" font-family="sans-serif" font-size="14" lengthAdjust="spacing" textLength="89" x="499.5" y="542.9707">resetPlayers()</text><ellipse cx="490.5" cy="556.3516" fill="#84BE84" rx="3" ry="3" style="stroke:#038048;stroke-width:1.0;"/><text fill="#000000" font-family="sans-serif" font-size="14" lengthAdjust="spacing" textLength="79" x="499.5" y="560.5801">dropToken()</text><ellipse cx="490.5" cy="573.9609" fill="#84BE84" rx="3" ry="3" style="stroke:#038048;stroke-width:1.0;"/><text fill="#000000" font-family="sans-serif" font-size="14" lengthAdjust="spacing" textLength="79" x="499.5" y="578.1895">writeResult()</text></g><!--class PlayerView--><g id="elem_PlayerView"><rect codeLine="5" fill="#F1F1F1" height="118.4375" id="PlayerView" rx="2.5" ry="2.5" style="stroke:#181818;stroke-width:0.5;" width="143" x="22.5" y="988"/><ellipse cx="56.4" cy="1004" fill="#A9DCDF" rx="11" ry="11" style="stroke:#181818;stroke-width:1.0;"/><path d="M58.5875,1005.7656 L54.4469,1005.7656 L54.025,1006.7969 L54.4469,1006.7969 Q55.0563,1006.7969 55.3219,1007.0313 Q55.5875,1007.2656 55.5875,1007.6563 Q55.5875,1008.0313 55.3219,1008.2656 Q55.0563,1008.5 54.4469,1008.5 L52.15,1008.5 Q51.5406,1008.5 51.2906,1008.2656 Q51.025,1008.0313 51.025,1007.6406 Q51.025,1007.2656 51.3063,1007.0313 Q51.5719,1006.7813 52.1969,1006.7969 L54.8688,1000.1406 L53.7594,1000.1406 Q53.15,1000.1406 52.8844,999.9063 Q52.6188,999.6719 52.6188,999.2813 Q52.6188,998.9063 52.8844,998.6719 Q53.15,998.4375 53.7594,998.4375 L57.4313,998.4375 L60.8219,1006.7969 Q61.4156,1006.7969 61.6031,1006.9375 Q61.9938,1007.2031 61.9938,1007.6563 Q61.9938,1008.0313 61.7281,1008.2656 Q61.4781,1008.5 60.8688,1008.5 L58.5719,1008.5 Q57.9625,1008.5 57.6969,1008.2656 Q57.4313,1008.0313 57.4313,1007.6406 Q57.4313,1007.2656 57.6969,1007.0313 Q57.9625,1006.7969 58.5719,1006.7969 L58.9938,1006.7969 L58.5875,1005.7656 Z M57.8688,1004.0625 L56.5094,1000.6875 L55.1344,1004.0625 L57.8688,1004.0625 Z " fill="#000000"/><text fill="#000000" font-family="sans-serif" font-size="14" font-style="italic" lengthAdjust="spacing" textLength="69" x="74.6" y="1009.7285">PlayerView</text><line style="stroke:#181818;stroke-width:0.5;" x1="23.5" x2="164.5" y1="1020" y2="1020"/><line style="stroke:#181818;stroke-width:0.5;" x1="23.5" x2="164.5" y1="1028" y2="1028"/><ellipse cx="33.5" cy="1042.3047" fill="#84BE84" rx="3" ry="3" style="stroke:#038048;stroke-width:1.0;"/><text fill="#000000" font-family="sans-serif" font-size="14" font-style="italic" lengthAdjust="spacing" textLength="80" x="42.5" y="1046.5332">dropToken()</text><polygon fill="#FFFF44" points="33.5,1054.9141,37.5,1058.9141,33.5,1062.9141,29.5,1058.9141" style="stroke:#B38D22;stroke-width:1.0;"/><text fill="#000000" font-family="sans-serif" font-size="14" font-style="italic" lengthAdjust="spacing" textLength="101" x="42.5" y="1064.1426">getColumn(): int</text><ellipse cx="33.5" cy="1077.5234" fill="#84BE84" rx="3" ry="3" style="stroke:#038048;stroke-width:1.0;"/><text fill="#000000" font-family="sans-serif" font-size="14" font-style="italic" lengthAdjust="spacing" textLength="109" x="42.5" y="1081.752">setPlayer(Player)</text><ellipse cx="33.5" cy="1095.1328" fill="#84BE84" rx="3" ry="3" style="stroke:#038048;stroke-width:1.0;"/><text fill="#000000" font-family="sans-serif" font-size="14" font-style="italic" lengthAdjust="spacing" textLength="117" x="42.5" y="1099.3613">copy(): PlayerView</text></g><!--class MachinePlayerView--><g id="elem_MachinePlayerView"><rect codeLine="6" fill="#F1F1F1" height="188.875" id="MachinePlayerView" rx="2.5" ry="2.5" style="stroke:#181818;stroke-width:0.5;" width="225" x="231.5" y="1166"/><ellipse cx="278.25" cy="1182" fill="#A9DCDF" rx="11" ry="11" style="stroke:#181818;stroke-width:1.0;"/><path d="M280.4375,1183.7656 L276.2969,1183.7656 L275.875,1184.7969 L276.2969,1184.7969 Q276.9063,1184.7969 277.1719,1185.0313 Q277.4375,1185.2656 277.4375,1185.6563 Q277.4375,1186.0313 277.1719,1186.2656 Q276.9063,1186.5 276.2969,1186.5 L274,1186.5 Q273.3906,1186.5 273.1406,1186.2656 Q272.875,1186.0313 272.875,1185.6406 Q272.875,1185.2656 273.1563,1185.0313 Q273.4219,1184.7813 274.0469,1184.7969 L276.7188,1178.1406 L275.6094,1178.1406 Q275,1178.1406 274.7344,1177.9063 Q274.4688,1177.6719 274.4688,1177.2813 Q274.4688,1176.9063 274.7344,1176.6719 Q275,1176.4375 275.6094,1176.4375 L279.2813,1176.4375 L282.6719,1184.7969 Q283.2656,1184.7969 283.4531,1184.9375 Q283.8438,1185.2031 283.8438,1185.6563 Q283.8438,1186.0313 283.5781,1186.2656 Q283.3281,1186.5 282.7188,1186.5 L280.4219,1186.5 Q279.8125,1186.5 279.5469,1186.2656 Q279.2813,1186.0313 279.2813,1185.6406 Q279.2813,1185.2656 279.5469,1185.0313 Q279.8125,1184.7969 280.4219,1184.7969 L280.8438,1184.7969 L280.4375,1183.7656 Z M279.7188,1182.0625 L278.3594,1178.6875 L276.9844,1182.0625 L279.7188,1182.0625 Z " fill="#000000"/><text fill="#000000" font-family="sans-serif" font-size="14" font-style="italic" lengthAdjust="spacing" textLength="123" x="298.75" y="1187.7285">MachinePlayerView</text><line style="stroke:#181818;stroke-width:0.5;" x1="232.5" x2="455.5" y1="1198" y2="1198"/><rect fill="none" height="6" style="stroke:#C82930;stroke-width:1.0;" width="6" x="239.5" y="1209.3047"/><text fill="#000000" font-family="sans-serif" font-size="14" lengthAdjust="spacing" textLength="67" x="251.5" y="1216.5332">title: String</text><rect fill="none" height="6" style="stroke:#C82930;stroke-width:1.0;" width="6" x="239.5" y="1226.9141"/><text fill="#000000" font-family="sans-serif" font-size="14" lengthAdjust="spacing" textLength="140" x="251.5" y="1234.1426">player: MachinePlayer</text><line style="stroke:#181818;stroke-width:0.5;" x1="232.5" x2="455.5" y1="1241.2188" y2="1241.2188"/><ellipse cx="242.5" cy="1255.5234" fill="#84BE84" rx="3" ry="3" style="stroke:#038048;stroke-width:1.0;"/><text fill="#000000" font-family="sans-serif" font-size="14" lengthAdjust="spacing" textLength="199" x="251.5" y="1259.752">MachinePlayerView(title: String)</text><rect fill="#F24D5C" height="6" style="stroke:#C82930;stroke-width:1.0;" width="6" x="239.5" y="1270.1328"/><text fill="#000000" font-family="sans-serif" font-size="14" lengthAdjust="spacing" textLength="109" x="251.5" y="1277.3613">setPlayer(Player)</text><rect fill="#F24D5C" height="6" style="stroke:#C82930;stroke-width:1.0;" width="6" x="239.5" y="1287.7422"/><text fill="#000000" font-family="sans-serif" font-size="14" lengthAdjust="spacing" textLength="101" x="251.5" y="1294.9707">getColumn(): int</text><ellipse cx="242.5" cy="1308.3516" fill="#84BE84" rx="3" ry="3" style="stroke:#038048;stroke-width:1.0;"/><text fill="#000000" font-family="sans-serif" font-size="14" lengthAdjust="spacing" textLength="144" x="251.5" y="1312.5801">writeChoosenColumn()</text><ellipse cx="242.5" cy="1325.9609" fill="#84BE84" rx="3" ry="3" style="stroke:#038048;stroke-width:1.0;"/><text fill="#000000" font-family="sans-serif" font-size="14" lengthAdjust="spacing" textLength="79" x="251.5" y="1330.1895">dropToken()</text><polygon fill="#FFFF44" points="242.5,1338.5703,246.5,1342.5703,242.5,1346.5703,238.5,1342.5703" style="stroke:#B38D22;stroke-width:1.0;"/><text fill="#000000" font-family="sans-serif" font-size="14" lengthAdjust="spacing" textLength="117" x="251.5" y="1347.7988">getplayer(): Player</text></g><!--class MinMaxMachinePlayerView--><g id="elem_MinMaxMachinePlayerView"><rect codeLine="7" fill="#F1F1F1" height="100.8281" id="MinMaxMachinePlayerView" rx="2.5" ry="2.5" style="stroke:#181818;stroke-width:0.5;" width="298" x="474" y="1415"/><ellipse cx="534.25" cy="1431" fill="#ADD1B2" rx="11" ry="11" style="stroke:#181818;stroke-width:1.0;"/><path d="M537.0156,1426.875 Q537.1719,1426.6563 537.3594,1426.5469 Q537.5469,1426.4375 537.7656,1426.4375 Q538.1406,1426.4375 538.375,1426.7031 Q538.6094,1426.9531 538.6094,1427.5625 L538.6094,1429.0156 Q538.6094,1429.625 538.375,1429.8906 Q538.1406,1430.1563 537.7656,1430.1563 Q537.4219,1430.1563 537.2188,1429.9531 Q537.0156,1429.7656 536.9063,1429.25 Q536.8594,1428.8906 536.6719,1428.7031 Q536.3438,1428.3281 535.7344,1428.1094 Q535.125,1427.8906 534.5,1427.8906 Q533.7344,1427.8906 533.0938,1428.2188 Q532.4688,1428.5469 531.9688,1429.2969 Q531.4844,1430.0469 531.4844,1431.0781 L531.4844,1432.1719 Q531.4844,1433.4063 532.375,1434.2344 Q533.2656,1435.0469 534.8594,1435.0469 Q535.7969,1435.0469 536.4531,1434.7969 Q536.8438,1434.6406 537.2656,1434.2031 Q537.5313,1433.9375 537.6719,1433.8594 Q537.8281,1433.7813 538.0313,1433.7813 Q538.3594,1433.7813 538.6094,1434.0469 Q538.875,1434.2969 538.875,1434.6406 Q538.875,1434.9844 538.5313,1435.3906 Q538.0313,1435.9688 537.2344,1436.2969 Q536.1563,1436.75 534.8594,1436.75 Q533.3438,1436.75 532.1406,1436.125 Q531.1563,1435.625 530.4688,1434.5625 Q529.7813,1433.4844 529.7813,1432.2031 L529.7813,1431.0469 Q529.7813,1429.7188 530.3906,1428.5781 Q531.0156,1427.4219 532.1094,1426.8125 Q533.2031,1426.1875 534.4375,1426.1875 Q535.1719,1426.1875 535.8125,1426.3594 Q536.4688,1426.5156 537.0156,1426.875 Z " fill="#000000"/><text fill="#000000" font-family="sans-serif" font-size="14" lengthAdjust="spacing" textLength="169" x="554.75" y="1436.7285">MinMaxMachinePlayerView</text><line style="stroke:#181818;stroke-width:0.5;" x1="475" x2="771" y1="1447" y2="1447"/><line style="stroke:#181818;stroke-width:0.5;" x1="475" x2="771" y1="1455" y2="1455"/><ellipse cx="485" cy="1469.3047" fill="#84BE84" rx="3" ry="3" style="stroke:#038048;stroke-width:1.0;"/><text fill="#000000" font-family="sans-serif" font-size="14" lengthAdjust="spacing" textLength="179" x="494" y="1473.5332">MinMaxMachinePlayerView()</text><ellipse cx="485" cy="1486.9141" fill="#84BE84" rx="3" ry="3" style="stroke:#038048;stroke-width:1.0;"/><text fill="#000000" font-family="sans-serif" font-size="14" lengthAdjust="spacing" textLength="272" x="494" y="1491.1426">MinMaxMachinePlayerView(MachinePlayer)</text><ellipse cx="485" cy="1504.5234" fill="#84BE84" rx="3" ry="3" style="stroke:#038048;stroke-width:1.0;"/><text fill="#000000" font-family="sans-serif" font-size="14" lengthAdjust="spacing" textLength="117" x="494" y="1508.752">copy(): PlayerView</text></g><!--class RandomMachinePlayerView--><g id="elem_RandomMachinePlayerView"><rect codeLine="8" fill="#F1F1F1" height="100.8281" id="RandomMachinePlayerView" rx="2.5" ry="2.5" style="stroke:#181818;stroke-width:0.5;" width="304" x="135" y="1415"/><ellipse cx="195.25" cy="1431" fill="#ADD1B2" rx="11" ry="11" style="stroke:#181818;stroke-width:1.0;"/><path d="M198.0156,1426.875 Q198.1719,1426.6563 198.3594,1426.5469 Q198.5469,1426.4375 198.7656,1426.4375 Q199.1406,1426.4375 199.375,1426.7031 Q199.6094,1426.9531 199.6094,1427.5625 L199.6094,1429.0156 Q199.6094,1429.625 199.375,1429.8906 Q199.1406,1430.1563 198.7656,1430.1563 Q198.4219,1430.1563 198.2188,1429.9531 Q198.0156,1429.7656 197.9063,1429.25 Q197.8594,1428.8906 197.6719,1428.7031 Q197.3438,1428.3281 196.7344,1428.1094 Q196.125,1427.8906 195.5,1427.8906 Q194.7344,1427.8906 194.0938,1428.2188 Q193.4688,1428.5469 192.9688,1429.2969 Q192.4844,1430.0469 192.4844,1431.0781 L192.4844,1432.1719 Q192.4844,1433.4063 193.375,1434.2344 Q194.2656,1435.0469 195.8594,1435.0469 Q196.7969,1435.0469 197.4531,1434.7969 Q197.8438,1434.6406 198.2656,1434.2031 Q198.5313,1433.9375 198.6719,1433.8594 Q198.8281,1433.7813 199.0313,1433.7813 Q199.3594,1433.7813 199.6094,1434.0469 Q199.875,1434.2969 199.875,1434.6406 Q199.875,1434.9844 199.5313,1435.3906 Q199.0313,1435.9688 198.2344,1436.2969 Q197.1563,1436.75 195.8594,1436.75 Q194.3438,1436.75 193.1406,1436.125 Q192.1563,1435.625 191.4688,1434.5625 Q190.7813,1433.4844 190.7813,1432.2031 L190.7813,1431.0469 Q190.7813,1429.7188 191.3906,1428.5781 Q192.0156,1427.4219 193.1094,1426.8125 Q194.2031,1426.1875 195.4375,1426.1875 Q196.1719,1426.1875 196.8125,1426.3594 Q197.4688,1426.5156 198.0156,1426.875 Z " fill="#000000"/><text fill="#000000" font-family="sans-serif" font-size="14" lengthAdjust="spacing" textLength="175" x="215.75" y="1436.7285">RandomMachinePlayerView</text><line style="stroke:#181818;stroke-width:0.5;" x1="136" x2="438" y1="1447" y2="1447"/><line style="stroke:#181818;stroke-width:0.5;" x1="136" x2="438" y1="1455" y2="1455"/><ellipse cx="146" cy="1469.3047" fill="#84BE84" rx="3" ry="3" style="stroke:#038048;stroke-width:1.0;"/><text fill="#000000" font-family="sans-serif" font-size="14" lengthAdjust="spacing" textLength="185" x="155" y="1473.5332">RandomMachinePlayerView()</text><ellipse cx="146" cy="1486.9141" fill="#84BE84" rx="3" ry="3" style="stroke:#038048;stroke-width:1.0;"/><text fill="#000000" font-family="sans-serif" font-size="14" lengthAdjust="spacing" textLength="278" x="155" y="1491.1426">RandomMachinePlayerView(MachinePlayer)</text><ellipse cx="146" cy="1504.5234" fill="#84BE84" rx="3" ry="3" style="stroke:#038048;stroke-width:1.0;"/><text fill="#000000" font-family="sans-serif" font-size="14" lengthAdjust="spacing" textLength="117" x="155" y="1508.752">copy(): PlayerView</text></g><!--class UserPlayerView--><g id="elem_UserPlayerView"><rect codeLine="9" fill="#F1F1F1" height="100.8281" id="UserPlayerView" rx="2.5" ry="2.5" style="stroke:#181818;stroke-width:0.5;" width="203" x="718.5" y="1210"/><ellipse cx="766.75" cy="1226" fill="#ADD1B2" rx="11" ry="11" style="stroke:#181818;stroke-width:1.0;"/><path d="M769.5156,1221.875 Q769.6719,1221.6563 769.8594,1221.5469 Q770.0469,1221.4375 770.2656,1221.4375 Q770.6406,1221.4375 770.875,1221.7031 Q771.1094,1221.9531 771.1094,1222.5625 L771.1094,1224.0156 Q771.1094,1224.625 770.875,1224.8906 Q770.6406,1225.1563 770.2656,1225.1563 Q769.9219,1225.1563 769.7188,1224.9531 Q769.5156,1224.7656 769.4063,1224.25 Q769.3594,1223.8906 769.1719,1223.7031 Q768.8438,1223.3281 768.2344,1223.1094 Q767.625,1222.8906 767,1222.8906 Q766.2344,1222.8906 765.5938,1223.2188 Q764.9688,1223.5469 764.4688,1224.2969 Q763.9844,1225.0469 763.9844,1226.0781 L763.9844,1227.1719 Q763.9844,1228.4063 764.875,1229.2344 Q765.7656,1230.0469 767.3594,1230.0469 Q768.2969,1230.0469 768.9531,1229.7969 Q769.3438,1229.6406 769.7656,1229.2031 Q770.0313,1228.9375 770.1719,1228.8594 Q770.3281,1228.7813 770.5313,1228.7813 Q770.8594,1228.7813 771.1094,1229.0469 Q771.375,1229.2969 771.375,1229.6406 Q771.375,1229.9844 771.0313,1230.3906 Q770.5313,1230.9688 769.7344,1231.2969 Q768.6563,1231.75 767.3594,1231.75 Q765.8438,1231.75 764.6406,1231.125 Q763.6563,1230.625 762.9688,1229.5625 Q762.2813,1228.4844 762.2813,1227.2031 L762.2813,1226.0469 Q762.2813,1224.7188 762.8906,1223.5781 Q763.5156,1222.4219 764.6094,1221.8125 Q765.7031,1221.1875 766.9375,1221.1875 Q767.6719,1221.1875 768.3125,1221.3594 Q768.9688,1221.5156 769.5156,1221.875 Z " fill="#000000"/><text fill="#000000" font-family="sans-serif" font-size="14" lengthAdjust="spacing" textLength="98" x="787.25" y="1231.7285">UserPlayerView</text><line style="stroke:#181818;stroke-width:0.5;" x1="719.5" x2="920.5" y1="1242" y2="1242"/><rect fill="none" height="6" style="stroke:#C82930;stroke-width:1.0;" width="6" x="726.5" y="1253.3047"/><text fill="#000000" font-family="sans-serif" font-size="14" lengthAdjust="spacing" textLength="116" x="738.5" y="1260.5332">player: UserPlayer</text><line style="stroke:#181818;stroke-width:0.5;" x1="719.5" x2="920.5" y1="1267.6094" y2="1267.6094"/><ellipse cx="729.5" cy="1281.9141" fill="#84BE84" rx="3" ry="3" style="stroke:#038048;stroke-width:1.0;"/><text fill="#000000" font-family="sans-serif" font-size="14" lengthAdjust="spacing" textLength="177" x="738.5" y="1286.1426">UserPlayerView(UserPlayer)</text><rect fill="#F24D5C" height="6" style="stroke:#C82930;stroke-width:1.0;" width="6" x="726.5" y="1296.5234"/><text fill="#000000" font-family="sans-serif" font-size="14" lengthAdjust="spacing" textLength="101" x="738.5" y="1303.752">getColumn(): int</text></g><!--class TurnMenu--><g id="elem_TurnMenu"><rect codeLine="10" fill="#F1F1F1" height="83.2188" id="TurnMenu" rx="2.5" ry="2.5" style="stroke:#181818;stroke-width:0.5;" width="303" x="674.5" y="650.5"/><ellipse cx="789.25" cy="666.5" fill="#ADD1B2" rx="11" ry="11" style="stroke:#181818;stroke-width:1.0;"/><path d="M792.0156,662.375 Q792.1719,662.1563 792.3594,662.0469 Q792.5469,661.9375 792.7656,661.9375 Q793.1406,661.9375 793.375,662.2031 Q793.6094,662.4531 793.6094,663.0625 L793.6094,664.5156 Q793.6094,665.125 793.375,665.3906 Q793.1406,665.6563 792.7656,665.6563 Q792.4219,665.6563 792.2188,665.4531 Q792.0156,665.2656 791.9063,664.75 Q791.8594,664.3906 791.6719,664.2031 Q791.3438,663.8281 790.7344,663.6094 Q790.125,663.3906 789.5,663.3906 Q788.7344,663.3906 788.0938,663.7188 Q787.4688,664.0469 786.9688,664.7969 Q786.4844,665.5469 786.4844,666.5781 L786.4844,667.6719 Q786.4844,668.9063 787.375,669.7344 Q788.2656,670.5469 789.8594,670.5469 Q790.7969,670.5469 791.4531,670.2969 Q791.8438,670.1406 792.2656,669.7031 Q792.5313,669.4375 792.6719,669.3594 Q792.8281,669.2813 793.0313,669.2813 Q793.3594,669.2813 793.6094,669.5469 Q793.875,669.7969 793.875,670.1406 Q793.875,670.4844 793.5313,670.8906 Q793.0313,671.4688 792.2344,671.7969 Q791.1563,672.25 789.8594,672.25 Q788.3438,672.25 787.1406,671.625 Q786.1563,671.125 785.4688,670.0625 Q784.7813,668.9844 784.7813,667.7031 L784.7813,666.5469 Q784.7813,665.2188 785.3906,664.0781 Q786.0156,662.9219 787.1094,662.3125 Q788.2031,661.6875 789.4375,661.6875 Q790.1719,661.6875 790.8125,661.8594 Q791.4688,662.0156 792.0156,662.375 Z " fill="#000000"/><text fill="#000000" font-family="sans-serif" font-size="14" lengthAdjust="spacing" textLength="65" x="809.75" y="672.2285">TurnMenu</text><line style="stroke:#181818;stroke-width:0.5;" x1="675.5" x2="976.5" y1="682.5" y2="682.5"/><line style="stroke:#181818;stroke-width:0.5;" x1="675.5" x2="976.5" y1="690.5" y2="690.5"/><ellipse cx="685.5" cy="704.8047" fill="#84BE84" rx="3" ry="3" style="stroke:#038048;stroke-width:1.0;"/><text fill="#000000" font-family="sans-serif" font-size="14" lengthAdjust="spacing" textLength="277" x="694.5" y="709.0332">TurnMenu(model: Turn, maxSecuences: int)</text><ellipse cx="685.5" cy="722.4141" fill="#84BE84" rx="3" ry="3" style="stroke:#038048;stroke-width:1.0;"/><text fill="#000000" font-family="sans-serif" font-size="14" lengthAdjust="spacing" textLength="83" x="694.5" y="726.6426">addOptions()</text></g><!--class TurnOption--><g id="elem_TurnOption"><rect codeLine="11" fill="#F1F1F1" height="83.2188" id="TurnOption" rx="2.5" ry="2.5" style="stroke:#181818;stroke-width:0.5;" width="259" x="705.5" y="822"/><ellipse cx="794.75" cy="838" fill="#A9DCDF" rx="11" ry="11" style="stroke:#181818;stroke-width:1.0;"/><path d="M796.9375,839.7656 L792.7969,839.7656 L792.375,840.7969 L792.7969,840.7969 Q793.4063,840.7969 793.6719,841.0313 Q793.9375,841.2656 793.9375,841.6563 Q793.9375,842.0313 793.6719,842.2656 Q793.4063,842.5 792.7969,842.5 L790.5,842.5 Q789.8906,842.5 789.6406,842.2656 Q789.375,842.0313 789.375,841.6406 Q789.375,841.2656 789.6563,841.0313 Q789.9219,840.7813 790.5469,840.7969 L793.2188,834.1406 L792.1094,834.1406 Q791.5,834.1406 791.2344,833.9063 Q790.9688,833.6719 790.9688,833.2813 Q790.9688,832.9063 791.2344,832.6719 Q791.5,832.4375 792.1094,832.4375 L795.7813,832.4375 L799.1719,840.7969 Q799.7656,840.7969 799.9531,840.9375 Q800.3438,841.2031 800.3438,841.6563 Q800.3438,842.0313 800.0781,842.2656 Q799.8281,842.5 799.2188,842.5 L796.9219,842.5 Q796.3125,842.5 796.0469,842.2656 Q795.7813,842.0313 795.7813,841.6406 Q795.7813,841.2656 796.0469,841.0313 Q796.3125,840.7969 796.9219,840.7969 L797.3438,840.7969 L796.9375,839.7656 Z M796.2188,838.0625 L794.8594,834.6875 L793.4844,838.0625 L796.2188,838.0625 Z " fill="#000000"/><text fill="#000000" font-family="sans-serif" font-size="14" font-style="italic" lengthAdjust="spacing" textLength="72" x="815.25" y="843.7285">TurnOption</text><line style="stroke:#181818;stroke-width:0.5;" x1="706.5" x2="963.5" y1="854" y2="854"/><rect fill="none" height="6" style="stroke:#C82930;stroke-width:1.0;" width="6" x="713.5" y="865.3047"/><text fill="#000000" font-family="sans-serif" font-size="14" lengthAdjust="spacing" textLength="63" x="725.5" y="872.5332">turn: Turn</text><line style="stroke:#181818;stroke-width:0.5;" x1="706.5" x2="963.5" y1="879.6094" y2="879.6094"/><ellipse cx="716.5" cy="893.9141" fill="#84BE84" rx="3" ry="3" style="stroke:#038048;stroke-width:1.0;"/><text fill="#000000" font-family="sans-serif" font-size="14" lengthAdjust="spacing" textLength="233" x="725.5" y="898.1426">TurnOption(title: String, model: Turn)</text></g><!--class SetRandomMachinePlayerOption--><g id="elem_SetRandomMachinePlayerOption"><rect codeLine="12" fill="#F1F1F1" height="83.2188" id="SetRandomMachinePlayerOption" rx="2.5" ry="2.5" style="stroke:#181818;stroke-width:0.5;" width="275" x="200.5" y="1005.5"/><ellipse cx="230.8" cy="1021.5" fill="#ADD1B2" rx="11" ry="11" style="stroke:#181818;stroke-width:1.0;"/><path d="M233.5656,1017.375 Q233.7219,1017.1563 233.9094,1017.0469 Q234.0969,1016.9375 234.3156,1016.9375 Q234.6906,1016.9375 234.925,1017.2031 Q235.1594,1017.4531 235.1594,1018.0625 L235.1594,1019.5156 Q235.1594,1020.125 234.925,1020.3906 Q234.6906,1020.6563 234.3156,1020.6563 Q233.9719,1020.6563 233.7688,1020.4531 Q233.5656,1020.2656 233.4563,1019.75 Q233.4094,1019.3906 233.2219,1019.2031 Q232.8938,1018.8281 232.2844,1018.6094 Q231.675,1018.3906 231.05,1018.3906 Q230.2844,1018.3906 229.6438,1018.7188 Q229.0188,1019.0469 228.5188,1019.7969 Q228.0344,1020.5469 228.0344,1021.5781 L228.0344,1022.6719 Q228.0344,1023.9063 228.925,1024.7344 Q229.8156,1025.5469 231.4094,1025.5469 Q232.3469,1025.5469 233.0031,1025.2969 Q233.3938,1025.1406 233.8156,1024.7031 Q234.0813,1024.4375 234.2219,1024.3594 Q234.3781,1024.2813 234.5813,1024.2813 Q234.9094,1024.2813 235.1594,1024.5469 Q235.425,1024.7969 235.425,1025.1406 Q235.425,1025.4844 235.0813,1025.8906 Q234.5813,1026.4688 233.7844,1026.7969 Q232.7063,1027.25 231.4094,1027.25 Q229.8938,1027.25 228.6906,1026.625 Q227.7063,1026.125 227.0188,1025.0625 Q226.3313,1023.9844 226.3313,1022.7031 L226.3313,1021.5469 Q226.3313,1020.2188 226.9406,1019.0781 Q227.5656,1017.9219 228.6594,1017.3125 Q229.7531,1016.6875 230.9875,1016.6875 Q231.7219,1016.6875 232.3625,1016.8594 Q233.0188,1017.0156 233.5656,1017.375 Z " fill="#000000"/><text fill="#000000" font-family="sans-serif" font-size="14" lengthAdjust="spacing" textLength="209" x="248.2" y="1027.2285">SetRandomMachinePlayerOption</text><line style="stroke:#181818;stroke-width:0.5;" x1="201.5" x2="474.5" y1="1037.5" y2="1037.5"/><line style="stroke:#181818;stroke-width:0.5;" x1="201.5" x2="474.5" y1="1045.5" y2="1045.5"/><ellipse cx="211.5" cy="1059.8047" fill="#84BE84" rx="3" ry="3" style="stroke:#038048;stroke-width:1.0;"/><text fill="#000000" font-family="sans-serif" font-size="14" lengthAdjust="spacing" textLength="249" x="220.5" y="1064.0332">SetRandomMachinePlayerOption(Turn)</text><ellipse cx="211.5" cy="1077.4141" fill="#84BE84" rx="3" ry="3" style="stroke:#038048;stroke-width:1.0;"/><text fill="#000000" font-family="sans-serif" font-size="14" lengthAdjust="spacing" textLength="57" x="220.5" y="1081.6426">interact()</text></g><!--class SetMinMaxMachinePlayerOption--><g id="elem_SetMinMaxMachinePlayerOption"><rect codeLine="13" fill="#F1F1F1" height="48" id="SetMinMaxMachinePlayerOption" rx="2.5" ry="2.5" style="stroke:#181818;stroke-width:0.5;" width="235" x="510.5" y="1023"/><ellipse cx="525.5" cy="1039" fill="#ADD1B2" rx="11" ry="11" style="stroke:#181818;stroke-width:1.0;"/><path d="M528.2656,1034.875 Q528.4219,1034.6563 528.6094,1034.5469 Q528.7969,1034.4375 529.0156,1034.4375 Q529.3906,1034.4375 529.625,1034.7031 Q529.8594,1034.9531 529.8594,1035.5625 L529.8594,1037.0156 Q529.8594,1037.625 529.625,1037.8906 Q529.3906,1038.1563 529.0156,1038.1563 Q528.6719,1038.1563 528.4688,1037.9531 Q528.2656,1037.7656 528.1563,1037.25 Q528.1094,1036.8906 527.9219,1036.7031 Q527.5938,1036.3281 526.9844,1036.1094 Q526.375,1035.8906 525.75,1035.8906 Q524.9844,1035.8906 524.3438,1036.2188 Q523.7188,1036.5469 523.2188,1037.2969 Q522.7344,1038.0469 522.7344,1039.0781 L522.7344,1040.1719 Q522.7344,1041.4063 523.625,1042.2344 Q524.5156,1043.0469 526.1094,1043.0469 Q527.0469,1043.0469 527.7031,1042.7969 Q528.0938,1042.6406 528.5156,1042.2031 Q528.7813,1041.9375 528.9219,1041.8594 Q529.0781,1041.7813 529.2813,1041.7813 Q529.6094,1041.7813 529.8594,1042.0469 Q530.125,1042.2969 530.125,1042.6406 Q530.125,1042.9844 529.7813,1043.3906 Q529.2813,1043.9688 528.4844,1044.2969 Q527.4063,1044.75 526.1094,1044.75 Q524.5938,1044.75 523.3906,1044.125 Q522.4063,1043.625 521.7188,1042.5625 Q521.0313,1041.4844 521.0313,1040.2031 L521.0313,1039.0469 Q521.0313,1037.7188 521.6406,1036.5781 Q522.2656,1035.4219 523.3594,1034.8125 Q524.4531,1034.1875 525.6875,1034.1875 Q526.4219,1034.1875 527.0625,1034.3594 Q527.7188,1034.5156 528.2656,1034.875 Z " fill="#000000"/><text fill="#000000" font-family="sans-serif" font-size="14" lengthAdjust="spacing" textLength="203" x="539.5" y="1044.7285">SetMinMaxMachinePlayerOption</text><line style="stroke:#181818;stroke-width:0.5;" x1="511.5" x2="744.5" y1="1055" y2="1055"/><line style="stroke:#181818;stroke-width:0.5;" x1="511.5" x2="744.5" y1="1063" y2="1063"/></g><!--class SetUserPlayerOption--><g id="elem_SetUserPlayerOption"><rect codeLine="14" fill="#F1F1F1" height="83.2188" id="SetUserPlayerOption" rx="2.5" ry="2.5" style="stroke:#181818;stroke-width:0.5;" width="198" x="781" y="1005.5"/><ellipse cx="811.3" cy="1021.5" fill="#ADD1B2" rx="11" ry="11" style="stroke:#181818;stroke-width:1.0;"/><path d="M814.0656,1017.375 Q814.2219,1017.1563 814.4094,1017.0469 Q814.5969,1016.9375 814.8156,1016.9375 Q815.1906,1016.9375 815.425,1017.2031 Q815.6594,1017.4531 815.6594,1018.0625 L815.6594,1019.5156 Q815.6594,1020.125 815.425,1020.3906 Q815.1906,1020.6563 814.8156,1020.6563 Q814.4719,1020.6563 814.2688,1020.4531 Q814.0656,1020.2656 813.9563,1019.75 Q813.9094,1019.3906 813.7219,1019.2031 Q813.3938,1018.8281 812.7844,1018.6094 Q812.175,1018.3906 811.55,1018.3906 Q810.7844,1018.3906 810.1438,1018.7188 Q809.5188,1019.0469 809.0188,1019.7969 Q808.5344,1020.5469 808.5344,1021.5781 L808.5344,1022.6719 Q808.5344,1023.9063 809.425,1024.7344 Q810.3156,1025.5469 811.9094,1025.5469 Q812.8469,1025.5469 813.5031,1025.2969 Q813.8938,1025.1406 814.3156,1024.7031 Q814.5813,1024.4375 814.7219,1024.3594 Q814.8781,1024.2813 815.0813,1024.2813 Q815.4094,1024.2813 815.6594,1024.5469 Q815.925,1024.7969 815.925,1025.1406 Q815.925,1025.4844 815.5813,1025.8906 Q815.0813,1026.4688 814.2844,1026.7969 Q813.2063,1027.25 811.9094,1027.25 Q810.3938,1027.25 809.1906,1026.625 Q808.2063,1026.125 807.5188,1025.0625 Q806.8313,1023.9844 806.8313,1022.7031 L806.8313,1021.5469 Q806.8313,1020.2188 807.4406,1019.0781 Q808.0656,1017.9219 809.1594,1017.3125 Q810.2531,1016.6875 811.4875,1016.6875 Q812.2219,1016.6875 812.8625,1016.8594 Q813.5188,1017.0156 814.0656,1017.375 Z " fill="#000000"/><text fill="#000000" font-family="sans-serif" font-size="14" lengthAdjust="spacing" textLength="132" x="828.7" y="1027.2285">SetUserPlayerOption</text><line style="stroke:#181818;stroke-width:0.5;" x1="782" x2="978" y1="1037.5" y2="1037.5"/><line style="stroke:#181818;stroke-width:0.5;" x1="782" x2="978" y1="1045.5" y2="1045.5"/><ellipse cx="792" cy="1059.8047" fill="#84BE84" rx="3" ry="3" style="stroke:#038048;stroke-width:1.0;"/><text fill="#000000" font-family="sans-serif" font-size="14" lengthAdjust="spacing" textLength="172" x="801" y="1064.0332">SetUserPlayerOption(Turn)</text><ellipse cx="792" cy="1077.4141" fill="#84BE84" rx="3" ry="3" style="stroke:#038048;stroke-width:1.0;"/><text fill="#000000" font-family="sans-serif" font-size="14" lengthAdjust="spacing" textLength="57" x="801" y="1081.6426">interact()</text></g><!--class Message--><g id="elem_Message"><rect codeLine="15" fill="#F1F1F1" height="312.1406" id="Message" rx="2.5" ry="2.5" style="stroke:#181818;stroke-width:0.5;" width="214" x="464" y="42"/><ellipse cx="538.25" cy="58" fill="#EB937F" rx="11" ry="11" style="stroke:#181818;stroke-width:1.0;"/><path d="M537.1094,58.7969 L537.1094,61.2969 L541.4375,61.2969 L541.4375,60.375 Q541.4375,59.7656 541.6719,59.5 Q541.9219,59.2344 542.2969,59.2344 Q542.6719,59.2344 542.9063,59.5 Q543.1406,59.7656 543.1406,60.375 L543.1406,63 L535.1406,63 Q534.5156,63 534.25,62.7656 Q534,62.5313 534,62.1406 Q534,61.7656 534.2656,61.5313 Q534.5313,61.2969 535.1406,61.2969 L535.4063,61.2969 L535.4063,54.6406 L535.1406,54.6406 Q534.5156,54.6406 534.25,54.4063 Q534,54.1719 534,53.7813 Q534,53.4063 534.25,53.1719 Q534.5156,52.9375 535.1406,52.9375 L542.7656,52.9375 L542.7656,55.5313 Q542.7656,56.1406 542.5313,56.4063 Q542.3125,56.6563 541.9219,56.6563 Q541.5469,56.6563 541.3125,56.4063 Q541.0781,56.1406 541.0781,55.5313 L541.0781,54.6406 L537.1094,54.6406 L537.1094,57.0938 L538.5938,57.0938 Q538.5938,56.4375 538.7188,56.25 Q538.9844,55.8438 539.4531,55.8438 Q539.8281,55.8438 540.0625,56.1094 Q540.2969,56.3594 540.2969,56.9688 L540.2969,58.9375 Q540.2969,59.4844 540.1719,59.6719 Q539.9063,60.0625 539.4531,60.0625 Q538.9844,60.0625 538.7188,59.6563 Q538.5938,59.4688 538.5938,58.7969 L537.1094,58.7969 Z " fill="#000000"/><text fill="#000000" font-family="sans-serif" font-size="14" lengthAdjust="spacing" textLength="57" x="558.75" y="63.7285">Message</text><line style="stroke:#181818;stroke-width:0.5;" x1="465" x2="677" y1="74" y2="74"/><ellipse cx="475" cy="88.3047" fill="none" rx="3" ry="3" style="stroke:#038048;stroke-width:1.0;"/><text fill="#000000" font-family="sans-serif" font-size="14" lengthAdjust="spacing" text-decoration="underline" textLength="38" x="484" y="92.5332">TITLE</text><ellipse cx="475" cy="105.9141" fill="none" rx="3" ry="3" style="stroke:#038048;stroke-width:1.0;"/><text fill="#000000" font-family="sans-serif" font-size="14" lengthAdjust="spacing" text-decoration="underline" textLength="124" x="484" y="110.1426">HORIZONTAL_LINE</text><ellipse cx="475" cy="123.5234" fill="none" rx="3" ry="3" style="stroke:#038048;stroke-width:1.0;"/><text fill="#000000" font-family="sans-serif" font-size="14" lengthAdjust="spacing" text-decoration="underline" textLength="104" x="484" y="127.752">VERTICAL_LINE</text><ellipse cx="475" cy="141.1328" fill="none" rx="3" ry="3" style="stroke:#038048;stroke-width:1.0;"/><text fill="#000000" font-family="sans-serif" font-size="14" lengthAdjust="spacing" text-decoration="underline" textLength="37" x="484" y="145.3613">TURN</text><ellipse cx="475" cy="158.7422" fill="none" rx="3" ry="3" style="stroke:#038048;stroke-width:1.0;"/><text fill="#000000" font-family="sans-serif" font-size="14" lengthAdjust="spacing" text-decoration="underline" textLength="188" x="484" y="162.9707">ENTER_COLUMN_TO_DROP</text><ellipse cx="475" cy="176.3516" fill="none" rx="3" ry="3" style="stroke:#038048;stroke-width:1.0;"/><text fill="#000000" font-family="sans-serif" font-size="14" lengthAdjust="spacing" text-decoration="underline" textLength="117" x="484" y="180.5801">INVALID_COLUMN</text><ellipse cx="475" cy="193.9609" fill="none" rx="3" ry="3" style="stroke:#038048;stroke-width:1.0;"/><text fill="#000000" font-family="sans-serif" font-size="14" lengthAdjust="spacing" text-decoration="underline" textLength="152" x="484" y="198.1895">COMPLETED_COLUMN</text><ellipse cx="475" cy="211.5703" fill="none" rx="3" ry="3" style="stroke:#038048;stroke-width:1.0;"/><text fill="#000000" font-family="sans-serif" font-size="14" lengthAdjust="spacing" text-decoration="underline" textLength="87" x="484" y="215.7988">PLAYER_WIN</text><ellipse cx="475" cy="229.1797" fill="none" rx="3" ry="3" style="stroke:#038048;stroke-width:1.0;"/><text fill="#000000" font-family="sans-serif" font-size="14" lengthAdjust="spacing" text-decoration="underline" textLength="102" x="484" y="233.4082">PLAYERS_TIED</text><ellipse cx="475" cy="246.7891" fill="none" rx="3" ry="3" style="stroke:#038048;stroke-width:1.0;"/><text fill="#000000" font-family="sans-serif" font-size="14" lengthAdjust="spacing" text-decoration="underline" textLength="57" x="484" y="251.0176">RESUME</text><ellipse cx="475" cy="264.3984" fill="none" rx="3" ry="3" style="stroke:#038048;stroke-width:1.0;"/><text fill="#000000" font-family="sans-serif" font-size="14" lengthAdjust="spacing" text-decoration="underline" textLength="134" x="484" y="268.627">CHOOSEN_COLUMN</text><rect fill="none" height="6" style="stroke:#C82930;stroke-width:1.0;" width="6" x="472" y="279.0078"/><text fill="#000000" font-family="sans-serif" font-size="14" lengthAdjust="spacing" textLength="35" x="484" y="286.2363">string</text><line style="stroke:#181818;stroke-width:0.5;" x1="465" x2="677" y1="293.3125" y2="293.3125"/><ellipse cx="475" cy="307.6172" fill="#84BE84" rx="3" ry="3" style="stroke:#038048;stroke-width:1.0;"/><text fill="#000000" font-family="sans-serif" font-size="14" lengthAdjust="spacing" textLength="116" x="484" y="311.8457">constructor(string)</text><ellipse cx="475" cy="325.2266" fill="#84BE84" rx="3" ry="3" style="stroke:#038048;stroke-width:1.0;"/><text fill="#000000" font-family="sans-serif" font-size="14" lengthAdjust="spacing" textLength="39" x="484" y="329.4551">write()</text><ellipse cx="475" cy="342.8359" fill="#84BE84" rx="3" ry="3" style="stroke:#038048;stroke-width:1.0;"/><text fill="#000000" font-family="sans-serif" font-size="14" lengthAdjust="spacing" textLength="50" x="484" y="347.0645">writeln()</text></g><!--class YesNoDialog--><g id="elem_YesNoDialog"><rect codeLine="16" fill="#F1F1F1" height="206.4844" id="YesNoDialog" rx="2.5" ry="2.5" style="stroke:#181818;stroke-width:0.5;" width="116" x="119" y="95"/><ellipse cx="135.35" cy="111" fill="#ADD1B2" rx="11" ry="11" style="stroke:#181818;stroke-width:1.0;"/><path d="M138.1156,106.875 Q138.2719,106.6563 138.4594,106.5469 Q138.6469,106.4375 138.8656,106.4375 Q139.2406,106.4375 139.475,106.7031 Q139.7094,106.9531 139.7094,107.5625 L139.7094,109.0156 Q139.7094,109.625 139.475,109.8906 Q139.2406,110.1563 138.8656,110.1563 Q138.5219,110.1563 138.3188,109.9531 Q138.1156,109.7656 138.0063,109.25 Q137.9594,108.8906 137.7719,108.7031 Q137.4438,108.3281 136.8344,108.1094 Q136.225,107.8906 135.6,107.8906 Q134.8344,107.8906 134.1938,108.2188 Q133.5688,108.5469 133.0688,109.2969 Q132.5844,110.0469 132.5844,111.0781 L132.5844,112.1719 Q132.5844,113.4063 133.475,114.2344 Q134.3656,115.0469 135.9594,115.0469 Q136.8969,115.0469 137.5531,114.7969 Q137.9438,114.6406 138.3656,114.2031 Q138.6313,113.9375 138.7719,113.8594 Q138.9281,113.7813 139.1313,113.7813 Q139.4594,113.7813 139.7094,114.0469 Q139.975,114.2969 139.975,114.6406 Q139.975,114.9844 139.6313,115.3906 Q139.1313,115.9688 138.3344,116.2969 Q137.2563,116.75 135.9594,116.75 Q134.4438,116.75 133.2406,116.125 Q132.2563,115.625 131.5688,114.5625 Q130.8813,113.4844 130.8813,112.2031 L130.8813,111.0469 Q130.8813,109.7188 131.4906,108.5781 Q132.1156,107.4219 133.2094,106.8125 Q134.3031,106.1875 135.5375,106.1875 Q136.2719,106.1875 136.9125,106.3594 Q137.5688,106.5156 138.1156,106.875 Z " fill="#000000"/><text fill="#000000" font-family="sans-serif" font-size="14" lengthAdjust="spacing" textLength="81" x="149.65" y="116.7285">YesNoDialog</text><line style="stroke:#181818;stroke-width:0.5;" x1="120" x2="234" y1="127" y2="127"/><rect fill="none" height="6" style="stroke:#C82930;stroke-width:1.0;" width="6" x="127" y="138.3047"/><text fill="#000000" font-family="sans-serif" font-size="14" lengthAdjust="spacing" text-decoration="underline" textLength="90" x="139" y="145.5332">AFFIRMATIVE</text><rect fill="none" height="6" style="stroke:#C82930;stroke-width:1.0;" width="6" x="127" y="155.9141"/><text fill="#000000" font-family="sans-serif" font-size="14" lengthAdjust="spacing" text-decoration="underline" textLength="68" x="139" y="163.1426">NEGATIVE</text><rect fill="none" height="6" style="stroke:#C82930;stroke-width:1.0;" width="6" x="127" y="173.5234"/><text fill="#000000" font-family="sans-serif" font-size="14" lengthAdjust="spacing" text-decoration="underline" textLength="47" x="139" y="180.752">SUFFIX</text><rect fill="none" height="6" style="stroke:#C82930;stroke-width:1.0;" width="6" x="127" y="191.1328"/><text fill="#000000" font-family="sans-serif" font-size="14" lengthAdjust="spacing" text-decoration="underline" textLength="67" x="139" y="198.3613">MESSAGE</text><rect fill="none" height="6" style="stroke:#C82930;stroke-width:1.0;" width="6" x="127" y="208.7422"/><text fill="#000000" font-family="sans-serif" font-size="14" lengthAdjust="spacing" textLength="45" x="139" y="215.9707">answer</text><line style="stroke:#181818;stroke-width:0.5;" x1="120" x2="234" y1="223.0469" y2="223.0469"/><ellipse cx="130" cy="237.3516" fill="#84BE84" rx="3" ry="3" style="stroke:#038048;stroke-width:1.0;"/><text fill="#000000" font-family="sans-serif" font-size="14" lengthAdjust="spacing" textLength="39" x="139" y="241.5801">read()</text><ellipse cx="130" cy="254.9609" fill="#84BE84" rx="3" ry="3" style="stroke:#038048;stroke-width:1.0;"/><text fill="#000000" font-family="sans-serif" font-size="14" lengthAdjust="spacing" textLength="86" x="139" y="259.1895">isAffirmative()</text><ellipse cx="130" cy="272.5703" fill="#84BE84" rx="3" ry="3" style="stroke:#038048;stroke-width:1.0;"/><text fill="#000000" font-family="sans-serif" font-size="14" lengthAdjust="spacing" textLength="75" x="139" y="276.7988">isNegative()</text><ellipse cx="130" cy="290.1797" fill="#84BE84" rx="3" ry="3" style="stroke:#038048;stroke-width:1.0;"/><text fill="#000000" font-family="sans-serif" font-size="14" lengthAdjust="spacing" textLength="76" x="139" y="294.4082">getAnswer()</text></g><!--class PlayerViewPrototypeDirector--><g id="elem_PlayerViewPrototypeDirector"><rect codeLine="17" fill="#F1F1F1" height="93.9219" id="PlayerViewPrototypeDirector" rx="2.5" ry="2.5" style="stroke:#181818;stroke-width:0.5;" width="241" x="360.5" y="645"/><ellipse cx="388.55" cy="666.3516" fill="#ADD1B2" rx="11" ry="11" style="stroke:#181818;stroke-width:1.0;"/><path d="M391.3156,662.2266 Q391.4719,662.0078 391.6594,661.8984 Q391.8469,661.7891 392.0656,661.7891 Q392.4406,661.7891 392.675,662.0547 Q392.9094,662.3047 392.9094,662.9141 L392.9094,664.3672 Q392.9094,664.9766 392.675,665.2422 Q392.4406,665.5078 392.0656,665.5078 Q391.7219,665.5078 391.5188,665.3047 Q391.3156,665.1172 391.2063,664.6016 Q391.1594,664.2422 390.9719,664.0547 Q390.6438,663.6797 390.0344,663.4609 Q389.425,663.2422 388.8,663.2422 Q388.0344,663.2422 387.3938,663.5703 Q386.7688,663.8984 386.2688,664.6484 Q385.7844,665.3984 385.7844,666.4297 L385.7844,667.5234 Q385.7844,668.7578 386.675,669.5859 Q387.5656,670.3984 389.1594,670.3984 Q390.0969,670.3984 390.7531,670.1484 Q391.1438,669.9922 391.5656,669.5547 Q391.8313,669.2891 391.9719,669.2109 Q392.1281,669.1328 392.3313,669.1328 Q392.6594,669.1328 392.9094,669.3984 Q393.175,669.6484 393.175,669.9922 Q393.175,670.3359 392.8313,670.7422 Q392.3313,671.3203 391.5344,671.6484 Q390.4563,672.1016 389.1594,672.1016 Q387.6438,672.1016 386.4406,671.4766 Q385.4563,670.9766 384.7688,669.9141 Q384.0813,668.8359 384.0813,667.5547 L384.0813,666.3984 Q384.0813,665.0703 384.6906,663.9297 Q385.3156,662.7734 386.4094,662.1641 Q387.5031,661.5391 388.7375,661.5391 Q389.4719,661.5391 390.1125,661.7109 Q390.7688,661.8672 391.3156,662.2266 Z " fill="#000000"/><text fill="#000000" font-family="sans-serif" font-size="12" font-style="italic" lengthAdjust="spacing" textLength="57" x="466.95" y="662.457">&#171;Director&#187;</text><text fill="#000000" font-family="sans-serif" font-size="14" lengthAdjust="spacing" textLength="180" x="405.45" y="679.627">PlayerViewPrototypeDirector</text><line style="stroke:#181818;stroke-width:0.5;" x1="361.5" x2="600.5" y1="687.7031" y2="687.7031"/><line style="stroke:#181818;stroke-width:0.5;" x1="361.5" x2="600.5" y1="695.7031" y2="695.7031"/><ellipse cx="371.5" cy="718.8125" fill="#84BE84" rx="3" ry="3" style="stroke:#038048;stroke-width:1.0;"/><text fill="#000000" font-family="sans-serif" font-size="14" lengthAdjust="spacing" textLength="211" x="380.5" y="714.2363">get(PlayerViewPrototypeRegistry,</text><text fill="#000000" font-family="sans-serif" font-size="14" lengthAdjust="spacing" textLength="154" x="380.5" y="731.8457">PlayerType): PlayerView</text></g><!--class PlayerViewPrototypeRegistry--><g id="elem_PlayerViewPrototypeRegistry"><rect codeLine="18" fill="#F1F1F1" height="129.1406" id="PlayerViewPrototypeRegistry" rx="2.5" ry="2.5" style="stroke:#181818;stroke-width:0.5;" width="333" x="157.5" y="799"/><ellipse cx="228.75" cy="820.3516" fill="#ADD1B2" rx="11" ry="11" style="stroke:#181818;stroke-width:1.0;"/><path d="M231.5156,816.2266 Q231.6719,816.0078 231.8594,815.8984 Q232.0469,815.7891 232.2656,815.7891 Q232.6406,815.7891 232.875,816.0547 Q233.1094,816.3047 233.1094,816.9141 L233.1094,818.3672 Q233.1094,818.9766 232.875,819.2422 Q232.6406,819.5078 232.2656,819.5078 Q231.9219,819.5078 231.7188,819.3047 Q231.5156,819.1172 231.4063,818.6016 Q231.3594,818.2422 231.1719,818.0547 Q230.8438,817.6797 230.2344,817.4609 Q229.625,817.2422 229,817.2422 Q228.2344,817.2422 227.5938,817.5703 Q226.9688,817.8984 226.4688,818.6484 Q225.9844,819.3984 225.9844,820.4297 L225.9844,821.5234 Q225.9844,822.7578 226.875,823.5859 Q227.7656,824.3984 229.3594,824.3984 Q230.2969,824.3984 230.9531,824.1484 Q231.3438,823.9922 231.7656,823.5547 Q232.0313,823.2891 232.1719,823.2109 Q232.3281,823.1328 232.5313,823.1328 Q232.8594,823.1328 233.1094,823.3984 Q233.375,823.6484 233.375,823.9922 Q233.375,824.3359 233.0313,824.7422 Q232.5313,825.3203 231.7344,825.6484 Q230.6563,826.1016 229.3594,826.1016 Q227.8438,826.1016 226.6406,825.4766 Q225.6563,824.9766 224.9688,823.9141 Q224.2813,822.8359 224.2813,821.5547 L224.2813,820.3984 Q224.2813,819.0703 224.8906,817.9297 Q225.5156,816.7734 226.6094,816.1641 Q227.7031,815.5391 228.9375,815.5391 Q229.6719,815.5391 230.3125,815.7109 Q230.9688,815.8672 231.5156,816.2266 Z " fill="#000000"/><text fill="#000000" font-family="sans-serif" font-size="12" font-style="italic" lengthAdjust="spacing" textLength="111" x="284.75" y="816.457">&#171;PrototypeRegistry&#187;</text><text fill="#000000" font-family="sans-serif" font-size="14" lengthAdjust="spacing" textLength="182" x="249.25" y="833.627">PlayerViewPrototypeRegistry</text><line style="stroke:#181818;stroke-width:0.5;" x1="158.5" x2="489.5" y1="841.7031" y2="841.7031"/><rect fill="none" height="6" style="stroke:#C82930;stroke-width:1.0;" width="6" x="165.5" y="853.0078"/><text fill="#000000" font-family="sans-serif" font-size="14" lengthAdjust="spacing" textLength="307" x="177.5" y="860.2363">playerViews: HashMap&lt;PlayerType, PlayerView&gt;</text><line style="stroke:#181818;stroke-width:0.5;" x1="158.5" x2="489.5" y1="867.3125" y2="867.3125"/><ellipse cx="168.5" cy="881.6172" fill="#84BE84" rx="3" ry="3" style="stroke:#038048;stroke-width:1.0;"/><text fill="#000000" font-family="sans-serif" font-size="14" lengthAdjust="spacing" textLength="192" x="177.5" y="885.8457">PlayerViewPrototypeRegistry()</text><rect fill="#F24D5C" height="6" style="stroke:#C82930;stroke-width:1.0;" width="6" x="165.5" y="896.2266"/><text fill="#000000" font-family="sans-serif" font-size="14" lengthAdjust="spacing" textLength="252" x="177.5" y="903.4551">addPlayerView(PlayerType, PlayerView)</text><ellipse cx="168.5" cy="916.8359" fill="#84BE84" rx="3" ry="3" style="stroke:#038048;stroke-width:1.0;"/><text fill="#000000" font-family="sans-serif" font-size="14" lengthAdjust="spacing" textLength="171" x="177.5" y="921.0645">getPlayerView(PlayerType)</text></g><!--class Option--><g id="elem_Option"><rect codeLine="40" fill="#F1F1F1" height="48" id="Option" rx="2.5" ry="2.5" style="stroke:#181818;stroke-width:0.5;" width="204" x="1014" y="1023"/><ellipse cx="1029" cy="1039" fill="#ADD1B2" rx="11" ry="11" style="stroke:#181818;stroke-width:1.0;"/><path d="M1031.7656,1034.875 Q1031.9219,1034.6563 1032.1094,1034.5469 Q1032.2969,1034.4375 1032.5156,1034.4375 Q1032.8906,1034.4375 1033.125,1034.7031 Q1033.3594,1034.9531 1033.3594,1035.5625 L1033.3594,1037.0156 Q1033.3594,1037.625 1033.125,1037.8906 Q1032.8906,1038.1563 1032.5156,1038.1563 Q1032.1719,1038.1563 1031.9688,1037.9531 Q1031.7656,1037.7656 1031.6563,1037.25 Q1031.6094,1036.8906 1031.4219,1036.7031 Q1031.0938,1036.3281 1030.4844,1036.1094 Q1029.875,1035.8906 1029.25,1035.8906 Q1028.4844,1035.8906 1027.8438,1036.2188 Q1027.2188,1036.5469 1026.7188,1037.2969 Q1026.2344,1038.0469 1026.2344,1039.0781 L1026.2344,1040.1719 Q1026.2344,1041.4063 1027.125,1042.2344 Q1028.0156,1043.0469 1029.6094,1043.0469 Q1030.5469,1043.0469 1031.2031,1042.7969 Q1031.5938,1042.6406 1032.0156,1042.2031 Q1032.2813,1041.9375 1032.4219,1041.8594 Q1032.5781,1041.7813 1032.7813,1041.7813 Q1033.1094,1041.7813 1033.3594,1042.0469 Q1033.625,1042.2969 1033.625,1042.6406 Q1033.625,1042.9844 1033.2813,1043.3906 Q1032.7813,1043.9688 1031.9844,1044.2969 Q1030.9063,1044.75 1029.6094,1044.75 Q1028.0938,1044.75 1026.8906,1044.125 Q1025.9063,1043.625 1025.2188,1042.5625 Q1024.5313,1041.4844 1024.5313,1040.2031 L1024.5313,1039.0469 Q1024.5313,1037.7188 1025.1406,1036.5781 Q1025.7656,1035.4219 1026.8594,1034.8125 Q1027.9531,1034.1875 1029.1875,1034.1875 Q1029.9219,1034.1875 1030.5625,1034.3594 Q1031.2188,1034.5156 1031.7656,1034.875 Z " fill="#000000"/><text fill="#000000" font-family="sans-serif" font-size="14" lengthAdjust="spacing" textLength="172" x="1043" y="1044.7285">connect4.utils.menu.Option</text><line style="stroke:#181818;stroke-width:0.5;" x1="1015" x2="1217" y1="1055" y2="1055"/><line style="stroke:#181818;stroke-width:0.5;" x1="1015" x2="1217" y1="1063" y2="1063"/></g><!--class SecuentialMenu--><g id="elem_SecuentialMenu"><rect codeLine="41" fill="#F1F1F1" height="48" id="SecuentialMenu" rx="2.5" ry="2.5" style="stroke:#181818;stroke-width:0.5;" width="263" x="1202.5" y="839.5"/><ellipse cx="1217.5" cy="855.5" fill="#ADD1B2" rx="11" ry="11" style="stroke:#181818;stroke-width:1.0;"/><path d="M1220.2656,851.375 Q1220.4219,851.1563 1220.6094,851.0469 Q1220.7969,850.9375 1221.0156,850.9375 Q1221.3906,850.9375 1221.625,851.2031 Q1221.8594,851.4531 1221.8594,852.0625 L1221.8594,853.5156 Q1221.8594,854.125 1221.625,854.3906 Q1221.3906,854.6563 1221.0156,854.6563 Q1220.6719,854.6563 1220.4688,854.4531 Q1220.2656,854.2656 1220.1563,853.75 Q1220.1094,853.3906 1219.9219,853.2031 Q1219.5938,852.8281 1218.9844,852.6094 Q1218.375,852.3906 1217.75,852.3906 Q1216.9844,852.3906 1216.3438,852.7188 Q1215.7188,853.0469 1215.2188,853.7969 Q1214.7344,854.5469 1214.7344,855.5781 L1214.7344,856.6719 Q1214.7344,857.9063 1215.625,858.7344 Q1216.5156,859.5469 1218.1094,859.5469 Q1219.0469,859.5469 1219.7031,859.2969 Q1220.0938,859.1406 1220.5156,858.7031 Q1220.7813,858.4375 1220.9219,858.3594 Q1221.0781,858.2813 1221.2813,858.2813 Q1221.6094,858.2813 1221.8594,858.5469 Q1222.125,858.7969 1222.125,859.1406 Q1222.125,859.4844 1221.7813,859.8906 Q1221.2813,860.4688 1220.4844,860.7969 Q1219.4063,861.25 1218.1094,861.25 Q1216.5938,861.25 1215.3906,860.625 Q1214.4063,860.125 1213.7188,859.0625 Q1213.0313,857.9844 1213.0313,856.7031 L1213.0313,855.5469 Q1213.0313,854.2188 1213.6406,853.0781 Q1214.2656,851.9219 1215.3594,851.3125 Q1216.4531,850.6875 1217.6875,850.6875 Q1218.4219,850.6875 1219.0625,850.8594 Q1219.7188,851.0156 1220.2656,851.375 Z " fill="#000000"/><text fill="#000000" font-family="sans-serif" font-size="14" lengthAdjust="spacing" textLength="231" x="1231.5" y="861.2285">connect4.utils.menu.SecuentialMenu</text><line style="stroke:#181818;stroke-width:0.5;" x1="1203.5" x2="1464.5" y1="871.5" y2="871.5"/><line style="stroke:#181818;stroke-width:0.5;" x1="1203.5" x2="1464.5" y1="879.5" y2="879.5"/></g><!--class Game--><g id="elem_Game"><rect codeLine="42" fill="#F1F1F1" height="61.2188" id="Game" rx="2.5" ry="2.5" style="stroke:#181818;stroke-width:0.5;" width="156" x="1013" y="661.5"/><ellipse cx="1028" cy="684.1094" fill="#ADD1B2" rx="11" ry="11" style="stroke:#181818;stroke-width:1.0;"/><path d="M1030.7656,679.9844 Q1030.9219,679.7656 1031.1094,679.6563 Q1031.2969,679.5469 1031.5156,679.5469 Q1031.8906,679.5469 1032.125,679.8125 Q1032.3594,680.0625 1032.3594,680.6719 L1032.3594,682.125 Q1032.3594,682.7344 1032.125,683 Q1031.8906,683.2656 1031.5156,683.2656 Q1031.1719,683.2656 1030.9688,683.0625 Q1030.7656,682.875 1030.6563,682.3594 Q1030.6094,682 1030.4219,681.8125 Q1030.0938,681.4375 1029.4844,681.2188 Q1028.875,681 1028.25,681 Q1027.4844,681 1026.8438,681.3281 Q1026.2188,681.6563 1025.7188,682.4063 Q1025.2344,683.1563 1025.2344,684.1875 L1025.2344,685.2813 Q1025.2344,686.5156 1026.125,687.3438 Q1027.0156,688.1563 1028.6094,688.1563 Q1029.5469,688.1563 1030.2031,687.9063 Q1030.5938,687.75 1031.0156,687.3125 Q1031.2813,687.0469 1031.4219,686.9688 Q1031.5781,686.8906 1031.7813,686.8906 Q1032.1094,686.8906 1032.3594,687.1563 Q1032.625,687.4063 1032.625,687.75 Q1032.625,688.0938 1032.2813,688.5 Q1031.7813,689.0781 1030.9844,689.4063 Q1029.9063,689.8594 1028.6094,689.8594 Q1027.0938,689.8594 1025.8906,689.2344 Q1024.9063,688.7344 1024.2188,687.6719 Q1023.5313,686.5938 1023.5313,685.3125 L1023.5313,684.1563 Q1023.5313,682.8281 1024.1406,681.6875 Q1024.7656,680.5313 1025.8594,679.9219 Q1026.9531,679.2969 1028.1875,679.2969 Q1028.9219,679.2969 1029.5625,679.4688 Q1030.2188,679.625 1030.7656,679.9844 Z " fill="#000000"/><text fill="#000000" font-family="sans-serif" font-size="14" lengthAdjust="spacing" textLength="124" x="1042" y="681.0332">connect4.connect4.</text><text fill="#000000" font-family="sans-serif" font-size="14" lengthAdjust="spacing" textLength="87" x="1060.5" y="698.6426">models.Game</text><line style="stroke:#181818;stroke-width:0.5;" x1="1014" x2="1168" y1="706.7188" y2="706.7188"/><line style="stroke:#181818;stroke-width:0.5;" x1="1014" x2="1168" y1="714.7188" y2="714.7188"/></g><!--class Turn--><g id="elem_Turn"><rect codeLine="43" fill="#F1F1F1" height="61.2188" id="Turn" rx="2.5" ry="2.5" style="stroke:#181818;stroke-width:0.5;" width="156" x="1347" y="1016.5"/><ellipse cx="1362" cy="1039.1094" fill="#ADD1B2" rx="11" ry="11" style="stroke:#181818;stroke-width:1.0;"/><path d="M1364.7656,1034.9844 Q1364.9219,1034.7656 1365.1094,1034.6563 Q1365.2969,1034.5469 1365.5156,1034.5469 Q1365.8906,1034.5469 1366.125,1034.8125 Q1366.3594,1035.0625 1366.3594,1035.6719 L1366.3594,1037.125 Q1366.3594,1037.7344 1366.125,1038 Q1365.8906,1038.2656 1365.5156,1038.2656 Q1365.1719,1038.2656 1364.9688,1038.0625 Q1364.7656,1037.875 1364.6563,1037.3594 Q1364.6094,1037 1364.4219,1036.8125 Q1364.0938,1036.4375 1363.4844,1036.2188 Q1362.875,1036 1362.25,1036 Q1361.4844,1036 1360.8438,1036.3281 Q1360.2188,1036.6563 1359.7188,1037.4063 Q1359.2344,1038.1563 1359.2344,1039.1875 L1359.2344,1040.2813 Q1359.2344,1041.5156 1360.125,1042.3438 Q1361.0156,1043.1563 1362.6094,1043.1563 Q1363.5469,1043.1563 1364.2031,1042.9063 Q1364.5938,1042.75 1365.0156,1042.3125 Q1365.2813,1042.0469 1365.4219,1041.9688 Q1365.5781,1041.8906 1365.7813,1041.8906 Q1366.1094,1041.8906 1366.3594,1042.1563 Q1366.625,1042.4063 1366.625,1042.75 Q1366.625,1043.0938 1366.2813,1043.5 Q1365.7813,1044.0781 1364.9844,1044.4063 Q1363.9063,1044.8594 1362.6094,1044.8594 Q1361.0938,1044.8594 1359.8906,1044.2344 Q1358.9063,1043.7344 1358.2188,1042.6719 Q1357.5313,1041.5938 1357.5313,1040.3125 L1357.5313,1039.1563 Q1357.5313,1037.8281 1358.1406,1036.6875 Q1358.7656,1035.5313 1359.8594,1034.9219 Q1360.9531,1034.2969 1362.1875,1034.2969 Q1362.9219,1034.2969 1363.5625,1034.4688 Q1364.2188,1034.625 1364.7656,1034.9844 Z " fill="#000000"/><text fill="#000000" font-family="sans-serif" font-size="14" lengthAdjust="spacing" textLength="124" x="1376" y="1036.0332">connect4.connect4.</text><text fill="#000000" font-family="sans-serif" font-size="14" lengthAdjust="spacing" textLength="79" x="1398.5" y="1053.6426">models.Turn</text><line style="stroke:#181818;stroke-width:0.5;" x1="1348" x2="1502" y1="1061.7188" y2="1061.7188"/><line style="stroke:#181818;stroke-width:0.5;" x1="1348" x2="1502" y1="1069.7188" y2="1069.7188"/></g><!--class Coordinate--><g id="elem_Coordinate"><rect codeLine="44" fill="#F1F1F1" height="48" id="Coordinate" rx="2.5" ry="2.5" style="stroke:#181818;stroke-width:0.5;" width="194" x="1204" y="668"/><ellipse cx="1219" cy="684" fill="#ADD1B2" rx="11" ry="11" style="stroke:#181818;stroke-width:1.0;"/><path d="M1221.7656,679.875 Q1221.9219,679.6563 1222.1094,679.5469 Q1222.2969,679.4375 1222.5156,679.4375 Q1222.8906,679.4375 1223.125,679.7031 Q1223.3594,679.9531 1223.3594,680.5625 L1223.3594,682.0156 Q1223.3594,682.625 1223.125,682.8906 Q1222.8906,683.1563 1222.5156,683.1563 Q1222.1719,683.1563 1221.9688,682.9531 Q1221.7656,682.7656 1221.6563,682.25 Q1221.6094,681.8906 1221.4219,681.7031 Q1221.0938,681.3281 1220.4844,681.1094 Q1219.875,680.8906 1219.25,680.8906 Q1218.4844,680.8906 1217.8438,681.2188 Q1217.2188,681.5469 1216.7188,682.2969 Q1216.2344,683.0469 1216.2344,684.0781 L1216.2344,685.1719 Q1216.2344,686.4063 1217.125,687.2344 Q1218.0156,688.0469 1219.6094,688.0469 Q1220.5469,688.0469 1221.2031,687.7969 Q1221.5938,687.6406 1222.0156,687.2031 Q1222.2813,686.9375 1222.4219,686.8594 Q1222.5781,686.7813 1222.7813,686.7813 Q1223.1094,686.7813 1223.3594,687.0469 Q1223.625,687.2969 1223.625,687.6406 Q1223.625,687.9844 1223.2813,688.3906 Q1222.7813,688.9688 1221.9844,689.2969 Q1220.9063,689.75 1219.6094,689.75 Q1218.0938,689.75 1216.8906,689.125 Q1215.9063,688.625 1215.2188,687.5625 Q1214.5313,686.4844 1214.5313,685.2031 L1214.5313,684.0469 Q1214.5313,682.7188 1215.1406,681.5781 Q1215.7656,680.4219 1216.8594,679.8125 Q1217.9531,679.1875 1219.1875,679.1875 Q1219.9219,679.1875 1220.5625,679.3594 Q1221.2188,679.5156 1221.7656,679.875 Z " fill="#000000"/><text fill="#000000" font-family="sans-serif" font-size="14" lengthAdjust="spacing" textLength="162" x="1233" y="689.7285">connect4.Utils.Coordinate</text><line style="stroke:#181818;stroke-width:0.5;" x1="1205" x2="1397" y1="700" y2="700"/><line style="stroke:#181818;stroke-width:0.5;" x1="1205" x2="1397" y1="708" y2="708"/></g><!--class Console--><g id="elem_Console"><rect codeLine="45" fill="#F1F1F1" height="48" id="Console" rx="2.5" ry="2.5" style="stroke:#181818;stroke-width:0.5;" width="175" x="1012.5" y="174"/><ellipse cx="1027.5" cy="190" fill="#ADD1B2" rx="11" ry="11" style="stroke:#181818;stroke-width:1.0;"/><path d="M1030.2656,185.875 Q1030.4219,185.6563 1030.6094,185.5469 Q1030.7969,185.4375 1031.0156,185.4375 Q1031.3906,185.4375 1031.625,185.7031 Q1031.8594,185.9531 1031.8594,186.5625 L1031.8594,188.0156 Q1031.8594,188.625 1031.625,188.8906 Q1031.3906,189.1563 1031.0156,189.1563 Q1030.6719,189.1563 1030.4688,188.9531 Q1030.2656,188.7656 1030.1563,188.25 Q1030.1094,187.8906 1029.9219,187.7031 Q1029.5938,187.3281 1028.9844,187.1094 Q1028.375,186.8906 1027.75,186.8906 Q1026.9844,186.8906 1026.3438,187.2188 Q1025.7188,187.5469 1025.2188,188.2969 Q1024.7344,189.0469 1024.7344,190.0781 L1024.7344,191.1719 Q1024.7344,192.4063 1025.625,193.2344 Q1026.5156,194.0469 1028.1094,194.0469 Q1029.0469,194.0469 1029.7031,193.7969 Q1030.0938,193.6406 1030.5156,193.2031 Q1030.7813,192.9375 1030.9219,192.8594 Q1031.0781,192.7813 1031.2813,192.7813 Q1031.6094,192.7813 1031.8594,193.0469 Q1032.125,193.2969 1032.125,193.6406 Q1032.125,193.9844 1031.7813,194.3906 Q1031.2813,194.9688 1030.4844,195.2969 Q1029.4063,195.75 1028.1094,195.75 Q1026.5938,195.75 1025.3906,195.125 Q1024.4063,194.625 1023.7188,193.5625 Q1023.0313,192.4844 1023.0313,191.2031 L1023.0313,190.0469 Q1023.0313,188.7188 1023.6406,187.5781 Q1024.2656,186.4219 1025.3594,185.8125 Q1026.4531,185.1875 1027.6875,185.1875 Q1028.4219,185.1875 1029.0625,185.3594 Q1029.7188,185.5156 1030.2656,185.875 Z " fill="#000000"/><text fill="#000000" font-family="sans-serif" font-size="14" lengthAdjust="spacing" textLength="143" x="1041.5" y="195.7285">connect4.utils.Console</text><line style="stroke:#181818;stroke-width:0.5;" x1="1013.5" x2="1186.5" y1="206" y2="206"/><line style="stroke:#181818;stroke-width:0.5;" x1="1013.5" x2="1186.5" y1="214" y2="214"/></g><!--class Player--><g id="elem_Player"><rect codeLine="46" fill="#F1F1F1" height="61.2188" id="Player" rx="2.5" ry="2.5" style="stroke:#181818;stroke-width:0.5;" width="156" x="1011" y="1435"/><ellipse cx="1026" cy="1457.6094" fill="#ADD1B2" rx="11" ry="11" style="stroke:#181818;stroke-width:1.0;"/><path d="M1028.7656,1453.4844 Q1028.9219,1453.2656 1029.1094,1453.1563 Q1029.2969,1453.0469 1029.5156,1453.0469 Q1029.8906,1453.0469 1030.125,1453.3125 Q1030.3594,1453.5625 1030.3594,1454.1719 L1030.3594,1455.625 Q1030.3594,1456.2344 1030.125,1456.5 Q1029.8906,1456.7656 1029.5156,1456.7656 Q1029.1719,1456.7656 1028.9688,1456.5625 Q1028.7656,1456.375 1028.6563,1455.8594 Q1028.6094,1455.5 1028.4219,1455.3125 Q1028.0938,1454.9375 1027.4844,1454.7188 Q1026.875,1454.5 1026.25,1454.5 Q1025.4844,1454.5 1024.8438,1454.8281 Q1024.2188,1455.1563 1023.7188,1455.9063 Q1023.2344,1456.6563 1023.2344,1457.6875 L1023.2344,1458.7813 Q1023.2344,1460.0156 1024.125,1460.8438 Q1025.0156,1461.6563 1026.6094,1461.6563 Q1027.5469,1461.6563 1028.2031,1461.4063 Q1028.5938,1461.25 1029.0156,1460.8125 Q1029.2813,1460.5469 1029.4219,1460.4688 Q1029.5781,1460.3906 1029.7813,1460.3906 Q1030.1094,1460.3906 1030.3594,1460.6563 Q1030.625,1460.9063 1030.625,1461.25 Q1030.625,1461.5938 1030.2813,1462 Q1029.7813,1462.5781 1028.9844,1462.9063 Q1027.9063,1463.3594 1026.6094,1463.3594 Q1025.0938,1463.3594 1023.8906,1462.7344 Q1022.9063,1462.2344 1022.2188,1461.1719 Q1021.5313,1460.0938 1021.5313,1458.8125 L1021.5313,1457.6563 Q1021.5313,1456.3281 1022.1406,1455.1875 Q1022.7656,1454.0313 1023.8594,1453.4219 Q1024.9531,1452.7969 1026.1875,1452.7969 Q1026.9219,1452.7969 1027.5625,1452.9688 Q1028.2188,1453.125 1028.7656,1453.4844 Z " fill="#000000"/><text fill="#000000" font-family="sans-serif" font-size="14" lengthAdjust="spacing" textLength="124" x="1040" y="1454.5332">connect4.connect4.</text><text fill="#000000" font-family="sans-serif" font-size="14" lengthAdjust="spacing" textLength="89" x="1057.5" y="1472.1426">models.Player</text><line style="stroke:#181818;stroke-width:0.5;" x1="1012" x2="1166" y1="1480.2188" y2="1480.2188"/><line style="stroke:#181818;stroke-width:0.5;" x1="1012" x2="1166" y1="1488.2188" y2="1488.2188"/></g><!--class PlayerType--><g id="elem_PlayerType"><rect codeLine="47" fill="#F1F1F1" height="61.2188" id="PlayerType" rx="2.5" ry="2.5" style="stroke:#181818;stroke-width:0.5;" width="156" x="1011" y="833"/><ellipse cx="1026" cy="855.6094" fill="#EB937F" rx="11" ry="11" style="stroke:#181818;stroke-width:1.0;"/><path d="M1024.8594,856.4063 L1024.8594,858.9063 L1029.1875,858.9063 L1029.1875,857.9844 Q1029.1875,857.375 1029.4219,857.1094 Q1029.6719,856.8438 1030.0469,856.8438 Q1030.4219,856.8438 1030.6563,857.1094 Q1030.8906,857.375 1030.8906,857.9844 L1030.8906,860.6094 L1022.8906,860.6094 Q1022.2656,860.6094 1022,860.375 Q1021.75,860.1406 1021.75,859.75 Q1021.75,859.375 1022.0156,859.1406 Q1022.2813,858.9063 1022.8906,858.9063 L1023.1563,858.9063 L1023.1563,852.25 L1022.8906,852.25 Q1022.2656,852.25 1022,852.0156 Q1021.75,851.7813 1021.75,851.3906 Q1021.75,851.0156 1022,850.7813 Q1022.2656,850.5469 1022.8906,850.5469 L1030.5156,850.5469 L1030.5156,853.1406 Q1030.5156,853.75 1030.2813,854.0156 Q1030.0625,854.2656 1029.6719,854.2656 Q1029.2969,854.2656 1029.0625,854.0156 Q1028.8281,853.75 1028.8281,853.1406 L1028.8281,852.25 L1024.8594,852.25 L1024.8594,854.7031 L1026.3438,854.7031 Q1026.3438,854.0469 1026.4688,853.8594 Q1026.7344,853.4531 1027.2031,853.4531 Q1027.5781,853.4531 1027.8125,853.7188 Q1028.0469,853.9688 1028.0469,854.5781 L1028.0469,856.5469 Q1028.0469,857.0938 1027.9219,857.2813 Q1027.6563,857.6719 1027.2031,857.6719 Q1026.7344,857.6719 1026.4688,857.2656 Q1026.3438,857.0781 1026.3438,856.4063 L1024.8594,856.4063 Z " fill="#000000"/><text fill="#000000" font-family="sans-serif" font-size="14" lengthAdjust="spacing" textLength="124" x="1040" y="852.5332">connect4.connect4.</text><text fill="#000000" font-family="sans-serif" font-size="14" lengthAdjust="spacing" textLength="110" x="1047" y="870.1426">types.PlayerType</text><line style="stroke:#181818;stroke-width:0.5;" x1="1012" x2="1166" y1="878.2188" y2="878.2188"/><line style="stroke:#181818;stroke-width:0.5;" x1="1012" x2="1166" y1="886.2188" y2="886.2188"/></g><!--reverse link GameView to TurnView--><g id="link_GameView_TurnView"><path codeLine="20" d="M821.7568,284.5175 C786.0368,326.8075 749.3,370.3 712.51,413.85 " fill="none" id="GameView-backto-TurnView" style="stroke:#181818;stroke-width:1.0;"/><polygon fill="#181818" points="829.5,275.35,822.5726,277.3526,821.7568,284.5175,828.6842,282.5148,829.5,275.35" style="stroke:#181818;stroke-width:1.0;"/></g><!--reverse link GameView to BoardView--><g id="link_GameView_BoardView"><path codeLine="21" d="M898.1308,287.3369 C900.5308,338.6369 903.08,393.22 905.28,440.25 " fill="none" id="GameView-backto-BoardView" style="stroke:#181818;stroke-width:1.0;"/><polygon fill="#181818" points="897.57,275.35,893.8548,281.5304,898.1308,287.3369,901.846,281.1565,897.57,275.35" style="stroke:#181818;stroke-width:1.0;"/></g><!--reverse link GameView to PlayerViewPrototypeRegistry--><g id="link_GameView_PlayerViewPrototypeRegistry"><path codeLine="22" d="M803.2711,282.9119 C769.3811,311.1519 737.51,333.56 696,354 C599.68,401.43 545.95,347.07 462,414 C344.63,507.57 324.72,698.78 322.79,798.61 " fill="none" id="GameView-backto-PlayerViewPrototypeRegistry" style="stroke:#181818;stroke-width:1.0;"/><polygon fill="#181818" points="812.49,275.23,805.3199,275.998,803.2711,282.9119,810.4412,282.1439,812.49,275.23" style="stroke:#181818;stroke-width:1.0;"/></g><!--link TurnView to PlayerView--><g id="link_TurnView_PlayerView"><path codeLine="23" d="M642.75,585.37 C639.63,686.61 616.85,851.73 508,928 C387.7,1012.29 319.4,933.51 183,988 C177.18,990.33 176.6553,990.2957 170.8953,993.2857 " fill="none" id="TurnView-to-PlayerView" style="stroke:#181818;stroke-width:1.0;stroke-dasharray:7.0,7.0;"/><polygon fill="#181818" points="165.57,996.05,175.4008,995.4537,170.0077,993.7464,171.715,988.3533,165.57,996.05" style="stroke:#181818;stroke-width:1.0;"/></g><!--reverse link PlayerView to UserPlayerView--><g id="link_PlayerView_UserPlayerView"><path codeLine="24" d="M181.5597,1106.2011 C187.2997,1109.2211 177.2,1103.61 183,1106 C305.12,1156.26 345.53,1135.43 474,1166 C556.63,1185.66 649.51,1210.94 718.22,1230.25 " fill="none" id="PlayerView-backto-UserPlayerView" style="stroke:#181818;stroke-width:1.0;"/><polygon fill="none" points="165.63,1097.82,178.766,1111.5111,184.3534,1100.8912,165.63,1097.82" style="stroke:#181818;stroke-width:1.0;"/></g><!--reverse link PlayerView to MachinePlayerView--><g id="link_PlayerView_MachinePlayerView"><path codeLine="25" d="M176.3814,1117.6964 C198.2114,1136.1664 209.2,1145.46 233.22,1165.78 " fill="none" id="PlayerView-backto-MachinePlayerView" style="stroke:#181818;stroke-width:1.0;"/><polygon fill="none" points="162.64,1106.07,172.506,1122.2769,180.2569,1113.1159,162.64,1106.07" style="stroke:#181818;stroke-width:1.0;"/></g><!--reverse link MachinePlayerView to MinMaxMachinePlayerView--><g id="link_MachinePlayerView_MinMaxMachinePlayerView"><path codeLine="26" d="M471.2344,1354.071 C504.5044,1378.281 525.34,1393.44 554.88,1414.93 " fill="none" id="MachinePlayerView-backto-MinMaxMachinePlayerView" style="stroke:#181818;stroke-width:1.0;"/><polygon fill="none" points="456.68,1343.48,467.7041,1358.9225,474.7647,1349.2195,456.68,1343.48" style="stroke:#181818;stroke-width:1.0;"/></g><!--reverse link MachinePlayerView to RandomMachinePlayerView--><g id="link_MachinePlayerView_RandomMachinePlayerView"><path codeLine="27" d="M312.7985,1372.6083 C307.0185,1393.1683 306,1396.84 300.94,1414.85 " fill="none" id="MachinePlayerView-backto-RandomMachinePlayerView" style="stroke:#181818;stroke-width:1.0;"/><polygon fill="none" points="317.67,1355.28,307.0224,1370.9844,318.5746,1374.2321,317.67,1355.28" style="stroke:#181818;stroke-width:1.0;"/></g><!--reverse link TurnOption to SetRandomMachinePlayerOption--><g id="link_TurnOption_SetRandomMachinePlayerOption"><path codeLine="28" d="M704.7197,911.1448 C638.0697,935.0848 569.14,960.01 493,988 C477.76,993.6 461.7,999.56 445.92,1005.43 " fill="none" id="TurnOption-backto-SetRandomMachinePlayerOption" style="stroke:#181818;stroke-width:1.0;"/><polygon fill="none" points="721.66,905.06,702.6914,905.498,706.7479,916.7916,721.66,905.06" style="stroke:#181818;stroke-width:1.0;"/></g><!--reverse link TurnOption to SetMinMaxMachinePlayerOption--><g id="link_TurnOption_SetMinMaxMachinePlayerOption"><path codeLine="29" d="M775.2662,916.8774 C733.9262,953.1274 688.29,993.13 654.45,1022.8 " fill="none" id="TurnOption-backto-SetMinMaxMachinePlayerOption" style="stroke:#181818;stroke-width:1.0;"/><polygon fill="none" points="788.8,905.01,771.3104,912.3662,779.222,921.3887,788.8,905.01" style="stroke:#181818;stroke-width:1.0;"/></g><!--reverse link TurnOption to SetUserPlayerOption--><g id="link_TurnOption_SetUserPlayerOption"><path codeLine="30" d="M849.4312,922.7011 C856.8412,952.5911 862.53,975.54 869.93,1005.4 " fill="none" id="TurnOption-backto-SetUserPlayerOption" style="stroke:#181818;stroke-width:1.0;"/><polygon fill="none" points="845.1,905.23,843.6075,924.1449,855.255,921.2574,845.1,905.23" style="stroke:#181818;stroke-width:1.0;"/></g><!--link TurnView to TurnMenu--><g id="link_TurnView_TurnMenu"><path codeLine="31" d="M723.22,585.17 C745.22,607.82 763.8299,626.9857 782.3399,646.0457 " fill="none" id="TurnView-to-TurnMenu" style="stroke:#181818;stroke-width:1.0;stroke-dasharray:7.0,7.0;"/><polygon fill="#181818" points="786.52,650.35,783.1194,641.1068,783.0366,646.7631,777.3803,646.6803,786.52,650.35" style="stroke:#181818;stroke-width:1.0;"/></g><!--reverse link TurnMenu to TurnOption--><g id="link_TurnMenu_TurnOption"><path codeLine="32" d="M828.7964,745.5831 C830.2164,772.3231 831.43,795.21 832.85,821.94 " fill="none" id="TurnMenu-backto-TurnOption" style="stroke:#181818;stroke-width:1.0;"/><polygon fill="none" points="828.16,733.6,824.4838,739.8037,828.7964,745.5831,832.4725,739.3794,828.16,733.6" style="stroke:#181818;stroke-width:1.0;"/></g><!--link TurnView to PlayerViewPrototypeDirector--><g id="link_TurnView_PlayerViewPrototypeDirector"><path codeLine="33" d="M569.89,585.17 C552.61,605.74 538.6392,622.3758 523.5192,640.3758 " fill="none" id="TurnView-to-PlayerViewPrototypeDirector" style="stroke:#181818;stroke-width:1.0;stroke-dasharray:7.0,7.0;"/><polygon fill="#181818" points="519.66,644.97,528.5115,640.6514,522.876,641.1415,522.3859,635.5059,519.66,644.97" style="stroke:#181818;stroke-width:1.0;"/></g><!--link PlayerViewPrototypeDirector to PlayerViewPrototypeRegistry--><g id="link_PlayerViewPrototypeDirector_PlayerViewPrototypeRegistry"><path codeLine="35" d="M438.1,739.32 C421.12,757.65 405.3968,774.6178 387.1068,794.3678 " fill="none" id="PlayerViewPrototypeDirector-to-PlayerViewPrototypeRegistry" style="stroke:#181818;stroke-width:1.0;stroke-dasharray:7.0,7.0;"/><polygon fill="#181818" points="383.03,798.77,392.08,794.8845,386.4273,795.1015,386.2104,789.4488,383.03,798.77" style="stroke:#181818;stroke-width:1.0;"/></g><!--reverse link PlayerViewPrototypeRegistry to PlayerView--><g id="link_PlayerViewPrototypeRegistry_PlayerView"><path codeLine="36" d="M233.8103,935.6643 C208.5703,955.5843 190.33,969.98 165.76,989.38 " fill="none" id="PlayerViewPrototypeRegistry-backto-PlayerView" style="stroke:#181818;stroke-width:1.0;"/><polygon fill="none" points="243.23,928.23,236.042,928.8072,233.8103,935.6643,240.9982,935.0871,243.23,928.23" style="stroke:#181818;stroke-width:1.0;"/></g><!--link TurnOption to Option--><g id="link_TurnOption_Option"><path codeLine="49" d="M897.71,905.01 C953.84,941.26 1019.0294,983.3644 1064.9694,1013.0344 " fill="none" id="TurnOption-to-Option" style="stroke:#181818;stroke-width:1.0;"/><polygon fill="none" points="1080.09,1022.8,1068.2245,1007.9942,1061.7142,1018.0747,1080.09,1022.8" style="stroke:#181818;stroke-width:1.0;"/></g><!--link TurnMenu to SecuentialMenu--><g id="link_TurnMenu_SecuentialMenu"><path codeLine="50" d="M969.61,733.57 C1051.16,756.98 1144.79,784.55 1185,799 C1218.48,811.03 1238.8059,819.3594 1267.4459,832.1094 " fill="none" id="TurnMenu-to-SecuentialMenu" style="stroke:#181818;stroke-width:1.0;"/><polygon fill="none" points="1283.89,839.43,1269.8861,826.628,1265.0057,837.5908,1283.89,839.43" style="stroke:#181818;stroke-width:1.0;"/></g><!--link BoardView to Game--><g id="link_BoardView_Game"><path codeLine="51" d="M963.9,558.69 C996.48,592.61 1032.0537,629.6328 1058.3237,656.9828 " fill="none" id="BoardView-to-Game" style="stroke:#181818;stroke-width:1.0;"/><polygon fill="#181818" points="1062.48,661.31,1059.1303,652.0483,1059.0164,657.704,1053.3607,657.5901,1062.48,661.31" style="stroke:#181818;stroke-width:1.0;"/></g><!--link BoardView to Coordinate--><g id="link_BoardView_Coordinate"><path codeLine="52" d="M978.71,534.78 C1058.16,573.29 1179.5309,632.1228 1248.0009,665.3128 " fill="none" id="BoardView-to-Coordinate" style="stroke:#181818;stroke-width:1.0;stroke-dasharray:7.0,7.0;"/><polygon fill="#181818" points="1253.4,667.93,1247.0461,660.4049,1248.9007,665.749,1243.5565,667.6037,1253.4,667.93" style="stroke:#181818;stroke-width:1.0;"/></g><!--link GameView to Game--><g id="link_GameView_Game"><path codeLine="53" d="M932.71,275.18 C952.74,315.88 976.91,367.13 996,414 C1032.04,502.52 1064.6169,604.6849 1080.3169,655.7549 " fill="none" id="GameView-to-Game" style="stroke:#181818;stroke-width:1.0;"/><polygon fill="#181818" points="1082.08,661.49,1083.2588,651.7119,1080.6108,656.7107,1075.612,654.0627,1082.08,661.49" style="stroke:#181818;stroke-width:1.0;"/></g><!--reverse link MachinePlayerView to Player--><g id="link_MachinePlayerView_Player"><path codeLine="54" d="M468.1423,1295.8085 C538.2223,1314.7985 618.79,1335.86 701,1355 C830.89,1385.24 869.41,1370.15 995,1415 C1009.76,1420.27 1025.09,1427.5 1038.97,1434.81 " fill="none" id="MachinePlayerView-backto-Player" style="stroke:#181818;stroke-width:1.0;"/><polygon fill="#181818" points="456.56,1292.67,461.305,1298.1,468.1423,1295.8085,463.3973,1290.3785,456.56,1292.67" style="stroke:#181818;stroke-width:1.0;"/></g><!--reverse link UserPlayerView to Player--><g id="link_UserPlayerView_Player"><path codeLine="55" d="M895.3791,1318.3877 C946.7091,1357.1177 1006.71,1402.4 1049.68,1434.83 " fill="none" id="UserPlayerView-backto-Player" style="stroke:#181818;stroke-width:1.0;"/><polygon fill="#181818" points="885.8,1311.16,888.1803,1317.9669,895.3791,1318.3877,892.9988,1311.5808,885.8,1311.16" style="stroke:#181818;stroke-width:1.0;"/></g><!--link TurnView to Game--><g id="link_TurnView_Game"><path codeLine="56" d="M802.61,577.77 C808.46,580.26 814.27,582.67 820,585 C896.18,615.93 918.91,613.85 995,645 C1007.14,649.97 1014.5123,653.1626 1026.6523,658.8826 " fill="none" id="TurnView-to-Game" style="stroke:#181818;stroke-width:1.0;"/><polygon fill="#181818" points="1032.08,661.44,1025.6434,653.9855,1027.5569,659.3089,1022.2335,661.2224,1032.08,661.44" style="stroke:#181818;stroke-width:1.0;"/></g><!--link TurnMenu to Turn--><g id="link_TurnMenu_Turn"><path codeLine="57" d="M970.35,733.55 C979,735.52 987.6,737.35 996,739 C1103.01,759.96 1410.76,717.32 1483,799 C1537.86,861.03 1484.2006,960.176 1450.0506,1011.126 " fill="none" id="TurnMenu-to-Turn" style="stroke:#181818;stroke-width:1.0;"/><polygon fill="#181818" points="1446.71,1016.11,1455.0436,1010.8611,1449.4938,1011.9567,1448.3982,1006.4069,1446.71,1016.11" style="stroke:#181818;stroke-width:1.0;"/></g><!--link TurnOption to Turn--><g id="link_TurnOption_Turn"><path codeLine="58" d="M930.5,905.09 C951.24,913.22 973.2,921.3 994,928 C1099.48,961.96 1129.21,958.4 1236,988 C1272.55,998.13 1307.0329,1008.5309 1340.9329,1019.1209 " fill="none" id="TurnOption-to-Turn" style="stroke:#181818;stroke-width:1.0;"/><polygon fill="#181818" points="1346.66,1020.91,1339.2621,1014.4084,1341.8874,1019.4191,1336.8767,1022.0444,1346.66,1020.91" style="stroke:#181818;stroke-width:1.0;"/></g><!--link PlayerViewPrototypeDirector to PlayerType--><g id="link_PlayerViewPrototypeDirector_PlayerType"><path codeLine="59" d="M601.88,725.95 C620.29,730.58 639.11,735.08 657,739 C806.04,771.65 853.59,741.71 995,799 C1015.44,807.28 1031.153,816.9199 1047.803,829.1399 " fill="none" id="PlayerViewPrototypeDirector-to-PlayerType" style="stroke:#181818;stroke-width:1.0;stroke-dasharray:7.0,7.0;"/><polygon fill="#181818" points="1052.64,832.69,1047.7511,824.1402,1048.6091,829.7316,1043.0177,830.5896,1052.64,832.69" style="stroke:#181818;stroke-width:1.0;"/></g><!--SRC=[dLTTZzeu57tFhuXcNy8oyBHFqGY9XNGc4WGKmcnRLK9kS9beWurYq-bqs_- -TXp7TkAOxlBat7lkfqzkBda92F6_5l2LJ1_16JwpavThmZyng8uzQNQjK2q4dmcjG4vzNRijmHkiXlLhaByK26emGrkWDVZcngG07V7PZTaJM0seUFfhYAxszBXsSw45HeRH3b9BM3lGKeCTg99iz2ohism490ISe67o0P84BmjGufDdR_csmXJJjmjS5XNCAQxyXmTvdCrk6QNmLB2Ml36ZdenPUv8Z_k-JYT-om90gnXXYHp1FElAdqva6zDJHV_Z1V7IkjAlkyw4dQO0351k03x5D4KNWd0onW8TPOW7tc68qhMMqFFYukI0Rsi4MptDHQS2ulKWNex110e_z11UREW7nxtAC40lqn_HAYv9CpwoEgL3VDU0TpAyGKVO2r4KE6PamQSpvQ9gqXq_eZ8-m54DGuddFRk4vHk8N65V70W7QYRAl4rDQXKS4bz1MHQEIID6tMxa8r9sO8U8XOpSmQCQlHrfnu9sd4syo-J7pDVRK3Q-5PdUzzeLdsbdTP4t46QCgLoEXXVRVEJKjFFE5rpKjdrj7MexYVJ2BQMI_ncxU3K-RTg4_ER5pA2Bfui-oqj0s-1Y0Dec6bd4P-cDv3lXXPAWkB1N-71ZYIK5IIAvdU6HorGOpGrtiU2T3_nFwfRdCtCXpdUYzQmgCTBjn1Gca0aq2KtMiy2N3VqFKaRzM1OMyo9Bo6XMPp28DUVlGD59N2eSb3sFOrE8dN1NVCQAWvB5Sz62EJf06Zihlstvo0er2OzwvPYDBvjAgIUW_0VAo1fS7vKpl-Eo6hx53pOgyaGWu7XKYi6TmomblbDM9qM8E_4UkO3zrDXWO1V5_OtuNkBoU6IZq2qG7lRMaQuAF1f4vlhm5dRlg3oN-9XUqPDpRqQf09pj4N69eRY9MwBWd30p_8tk0VbbMMAzDrXHg_YzUC2OGIRWTgT-D3S3lHTIkEicwQ5-pwkhjAkx-lniP4gS7srqFR7SSFg1YMVuFeqwM3W-sB3jVGerhIjC7ZKr9e1v75eyzrdZDNn3-4X8AQ97_zCTPdAqYg-PfayOVDqasNnrMSMB7F4Tf5YzSY6oV9bP5b6HHUbXiLljrSiWsXsMwsLg1SV8yNyNB1cg5B3RhxIhA8YTekvf_O17_YbtgtI6BewKLa4Qx_TfUvE9fizb5IJ_wX3JZfPKmEY0clF9lK43aS53g-YqE-gBwU-TvsZz6FOF9_DsxE5tFi_Wv6iGaqQCRiDipB-y7rUjejvi_Tiqd095NnbPJoXO5m5UQZhGWyozVYkhCF7w5DdK2JmCwHkTv7KakIlLso1Jo7DHxirZCxlqp-2OMsnoIcluZmuXz5iKkIQIxPhLiThomjtCsaSIJETrPD1MQkNFzS-H-NFf0-BZbWXK4-VSk4E6wVoURA5snScupq7t-2m00]--></g></svg>