<?xml version="1.0" encoding="us-ascii" standalone="no"?><svg xmlns="http://www.w3.org/2000/svg" xmlns:xlink="http://www.w3.org/1999/xlink" contentStyleType="text/css" height="558px" preserveAspectRatio="none" style="width:540px;height:558px;background:#FFFFFF;" version="1.1" viewBox="0 0 540 558" width="540px" zoomAndPan="magnify"><defs/><g><!--entity connect4--><g id="elem_connect4"><path d="M45.16,6 L123.16,6 A3.75,3.75 0 0 1 125.66,8.5 L132.66,29.6094 L147.16,29.6094 A2.5,2.5 0 0 1 149.66,32.1094 L149.66,44.1094 A2.5,2.5 0 0 1 147.16,46.6094 L45.16,46.6094 A2.5,2.5 0 0 1 42.66,44.1094 L42.66,8.5 A2.5,2.5 0 0 1 45.16,6 " fill="#F1F1F1" style="stroke:#181818;stroke-width:0.5;"/><line style="stroke:#181818;stroke-width:0.5;" x1="42.66" x2="132.66" y1="29.6094" y2="29.6094"/><text fill="#000000" font-family="sans-serif" font-size="14" font-weight="bold" lengthAdjust="spacing" textLength="65" x="52.66" y="23.5332">connect4</text></g><!--entity connect4.controllers--><g id="elem_connect4.controllers"><path d="M24.66,309 L183.66,309 A3.75,3.75 0 0 1 186.16,311.5 L193.16,332.6094 L207.66,332.6094 A2.5,2.5 0 0 1 210.16,335.1094 L210.16,347.1094 A2.5,2.5 0 0 1 207.66,349.6094 L24.66,349.6094 A2.5,2.5 0 0 1 22.16,347.1094 L22.16,311.5 A2.5,2.5 0 0 1 24.66,309 " fill="#F1F1F1" style="stroke:#181818;stroke-width:0.5;"/><line style="stroke:#181818;stroke-width:0.5;" x1="22.16" x2="193.16" y1="332.6094" y2="332.6094"/><text fill="#000000" font-family="sans-serif" font-size="14" font-weight="bold" lengthAdjust="spacing" textLength="146" x="32.16" y="326.5332">connect4.controllers</text></g><!--entity connect4.models--><g id="elem_connect4.models"><path d="M180.66,410 L313.66,410 A3.75,3.75 0 0 1 316.16,412.5 L323.16,433.6094 L337.66,433.6094 A2.5,2.5 0 0 1 340.16,436.1094 L340.16,448.1094 A2.5,2.5 0 0 1 337.66,450.6094 L180.66,450.6094 A2.5,2.5 0 0 1 178.16,448.1094 L178.16,412.5 A2.5,2.5 0 0 1 180.66,410 " fill="#F1F1F1" style="stroke:#181818;stroke-width:0.5;"/><line style="stroke:#181818;stroke-width:0.5;" x1="178.16" x2="323.16" y1="433.6094" y2="433.6094"/><text fill="#000000" font-family="sans-serif" font-size="14" font-weight="bold" lengthAdjust="spacing" textLength="120" x="188.16" y="427.5332">connect4.models</text></g><!--entity connect4.types--><g id="elem_connect4.types"><path d="M117.16,511 L237.16,511 A3.75,3.75 0 0 1 239.66,513.5 L246.66,534.6094 L261.16,534.6094 A2.5,2.5 0 0 1 263.66,537.1094 L263.66,549.1094 A2.5,2.5 0 0 1 261.16,551.6094 L117.16,551.6094 A2.5,2.5 0 0 1 114.66,549.1094 L114.66,513.5 A2.5,2.5 0 0 1 117.16,511 " fill="#F1F1F1" style="stroke:#181818;stroke-width:0.5;"/><line style="stroke:#181818;stroke-width:0.5;" x1="114.66" x2="246.66" y1="534.6094" y2="534.6094"/><text fill="#000000" font-family="sans-serif" font-size="14" font-weight="bold" lengthAdjust="spacing" textLength="107" x="124.66" y="528.5332">connect4.types</text></g><!--entity connect4.views--><g id="elem_connect4.views"><path d="M51.66,208 L174.66,208 A3.75,3.75 0 0 1 177.16,210.5 L184.16,231.6094 L198.66,231.6094 A2.5,2.5 0 0 1 201.16,234.1094 L201.16,246.1094 A2.5,2.5 0 0 1 198.66,248.6094 L51.66,248.6094 A2.5,2.5 0 0 1 49.16,246.1094 L49.16,210.5 A2.5,2.5 0 0 1 51.66,208 " fill="#F1F1F1" style="stroke:#181818;stroke-width:0.5;"/><line style="stroke:#181818;stroke-width:0.5;" x1="49.16" x2="184.16" y1="231.6094" y2="231.6094"/><text fill="#000000" font-family="sans-serif" font-size="14" font-weight="bold" lengthAdjust="spacing" textLength="110" x="59.16" y="225.5332">connect4.views</text></g><!--entity connect4.views.console--><g id="elem_connect4.views.console"><path d="M323.66,107 L506.66,107 A3.75,3.75 0 0 1 509.16,109.5 L516.16,130.6094 L530.66,130.6094 A2.5,2.5 0 0 1 533.16,133.1094 L533.16,145.1094 A2.5,2.5 0 0 1 530.66,147.6094 L323.66,147.6094 A2.5,2.5 0 0 1 321.16,145.1094 L321.16,109.5 A2.5,2.5 0 0 1 323.66,107 " fill="#F1F1F1" style="stroke:#181818;stroke-width:0.5;"/><line style="stroke:#181818;stroke-width:0.5;" x1="321.16" x2="516.16" y1="130.6094" y2="130.6094"/><text fill="#000000" font-family="sans-serif" font-size="14" font-weight="bold" lengthAdjust="spacing" textLength="170" x="331.16" y="124.5332">connect4.views.console</text></g><!--entity connect4.views.graphics--><g id="elem_connect4.views.graphics"><path d="M71.16,107 L259.16,107 A3.75,3.75 0 0 1 261.66,109.5 L268.66,130.6094 L283.16,130.6094 A2.5,2.5 0 0 1 285.66,133.1094 L285.66,145.1094 A2.5,2.5 0 0 1 283.16,147.6094 L71.16,147.6094 A2.5,2.5 0 0 1 68.66,145.1094 L68.66,109.5 A2.5,2.5 0 0 1 71.16,107 " fill="#F1F1F1" style="stroke:#181818;stroke-width:0.5;"/><line style="stroke:#181818;stroke-width:0.5;" x1="68.66" x2="268.66" y1="130.6094" y2="130.6094"/><text fill="#000000" font-family="sans-serif" font-size="14" font-weight="bold" lengthAdjust="spacing" textLength="175" x="78.66" y="124.5332">connect4.views.graphics</text></g><!--link connect4 to connect4.controllers--><g id="link_connect4_connect4.controllers"><path d="M77.25,47.28 C64.08,62.37 47.44,84.35 39.16,107 C17.46,166.37 6,191.01 31.16,249 C42.02,274.02 60.2004,291.2408 79.5604,305.2608 " fill="none" id="connect4-to-connect4.controllers" style="stroke:#181818;stroke-width:1.0;stroke-dasharray:7.0,7.0;"/><polygon fill="#181818" points="84.42,308.78,79.4768,300.2615,80.3704,305.8474,74.7845,306.741,84.42,308.78" style="stroke:#181818;stroke-width:1.0;"/></g><!--link connect4 to connect4.views--><g id="link_connect4_connect4.views"><path d="M79.63,47.2 C61.67,71.13 37.26,112.67 51.16,148 C60.69,172.21 76.8607,189.5549 93.9707,203.9649 " fill="none" id="connect4-to-connect4.views" style="stroke:#181818;stroke-width:1.0;stroke-dasharray:7.0,7.0;"/><polygon fill="#181818" points="98.56,207.83,94.2528,198.9729,94.7356,204.6091,89.0994,205.0919,98.56,207.83" style="stroke:#181818;stroke-width:1.0;"/></g><!--link connect4 to connect4.views.console--><g id="link_connect4_connect4.views.console"><path d="M149.71,43.52 C207.53,60.81 293.9115,86.6511 355.9815,105.2111 " fill="none" id="connect4-to-connect4.views.console" style="stroke:#181818;stroke-width:1.0;stroke-dasharray:7.0,7.0;"/><polygon fill="#181818" points="361.73,106.93,354.2532,100.5193,356.9396,105.4976,351.9613,108.184,361.73,106.93" style="stroke:#181818;stroke-width:1.0;"/></g><!--link connect4 to connect4.views.graphics--><g id="link_connect4_connect4.views.graphics"><path d="M112.16,47.06 C126.37,64.42 143.2001,84.9966 157.3901,102.3366 " fill="none" id="connect4-to-connect4.views.graphics" style="stroke:#181818;stroke-width:1.0;stroke-dasharray:7.0,7.0;"/><polygon fill="#181818" points="161.19,106.98,158.5858,97.4817,158.0234,103.1105,152.3946,102.5482,161.19,106.98" style="stroke:#181818;stroke-width:1.0;"/></g><!--link connect4.controllers to connect4.models--><g id="link_connect4.controllers_connect4.models"><path d="M144.41,350.06 C169.48,367.42 200.9866,389.225 226.0366,406.565 " fill="none" id="connect4.controllers-to-connect4.models" style="stroke:#181818;stroke-width:1.0;stroke-dasharray:7.0,7.0;"/><polygon fill="#181818" points="230.97,409.98,225.8466,401.5687,226.8589,407.1342,221.2933,408.1465,230.97,409.98" style="stroke:#181818;stroke-width:1.0;"/></g><!--link connect4.controllers to connect4.types--><g id="link_connect4.controllers_connect4.types"><path d="M123.29,350.04 C137.25,388.28 165.9627,466.9437 179.9427,505.2437 " fill="none" id="connect4.controllers-to-connect4.types" style="stroke:#181818;stroke-width:1.0;stroke-dasharray:7.0,7.0;"/><polygon fill="#181818" points="182,510.88,182.6715,501.0541,180.2856,506.1831,175.1565,503.7971,182,510.88" style="stroke:#181818;stroke-width:1.0;"/></g><!--link connect4.models to connect4.types--><g id="link_connect4.models_connect4.types"><path d="M245.33,451.06 C233.06,468.42 218.6958,488.7422 206.4258,506.0822 " fill="none" id="connect4.models-to-connect4.types" style="stroke:#181818;stroke-width:1.0;stroke-dasharray:7.0,7.0;"/><polygon fill="#181818" points="202.96,510.98,211.4238,505.9438,205.8481,506.8985,204.8934,501.3228,202.96,510.98" style="stroke:#181818;stroke-width:1.0;"/></g><!--link connect4.views to connect4.controllers--><g id="link_connect4.views_connect4.controllers"><path d="M123.38,249.06 C121.81,266.42 120.051,285.6644 118.481,303.0044 " fill="none" id="connect4.views-to-connect4.controllers" style="stroke:#181818;stroke-width:1.0;stroke-dasharray:7.0,7.0;"/><polygon fill="#181818" points="117.94,308.98,122.7353,300.3774,118.3909,304.0004,114.7679,299.656,117.94,308.98" style="stroke:#181818;stroke-width:1.0;"/></g><!--link connect4.views.console to connect4.views--><g id="link_connect4.views.console_connect4.views"><path d="M367.5,148.06 C314.55,165.42 243.3116,188.7714 190.4016,206.1114 " fill="none" id="connect4.views.console-to-connect4.views" style="stroke:#181818;stroke-width:1.0;stroke-dasharray:7.0,7.0;"/><polygon fill="#181818" points="184.7,207.98,194.4981,208.9782,189.4513,206.4229,192.0067,201.3761,184.7,207.98" style="stroke:#181818;stroke-width:1.0;"/></g><!--link connect4.views.console to connect4.models--><g id="link_connect4.views.console_connect4.models"><path d="M416.14,148.25 C385.7,202.79 303.6334,349.8104 273.1534,404.4404 " fill="none" id="connect4.views.console-to-connect4.models" style="stroke:#181818;stroke-width:1.0;stroke-dasharray:7.0,7.0;"/><polygon fill="#181818" points="270.23,409.68,278.1082,403.7695,272.6662,405.3136,271.122,399.8716,270.23,409.68" style="stroke:#181818;stroke-width:1.0;"/></g><!--link connect4.views.graphics to connect4.views--><g id="link_connect4.views.graphics_connect4.views"><path d="M166.89,148.06 C157.77,165.42 147.3106,185.3284 138.2006,202.6684 " fill="none" id="connect4.views.graphics-to-connect4.views" style="stroke:#181818;stroke-width:1.0;stroke-dasharray:7.0,7.0;"/><polygon fill="#181818" points="135.41,207.98,143.1369,201.873,137.7355,203.5537,136.0548,198.1523,135.41,207.98" style="stroke:#181818;stroke-width:1.0;"/></g><!--link connect4.views.graphics to connect4.models--><g id="link_connect4.views.graphics_connect4.models"><path d="M189.3,148.04 C198.52,163.71 210.82,186.55 218.16,208 C242.78,279.97 253.0827,364.4678 256.8827,403.7778 " fill="none" id="connect4.views.graphics-to-connect4.models" style="stroke:#181818;stroke-width:1.0;stroke-dasharray:7.0,7.0;"/><polygon fill="#181818" points="257.46,409.75,260.5755,400.4069,256.9789,404.7732,252.6126,401.1766,257.46,409.75" style="stroke:#181818;stroke-width:1.0;"/></g><!--SRC=[ZL1R3e0W3Fld59w0Bx-z2y55ZIW4YCRR-m19m3dzMzfkxMg474K7bTJp3DBNp1G0FmPljL9WtPEST0iAmVrc086N0TOt-3HoMi4RtLbX-a4wncwYuhp1S-AAu4vmAGAbIJamvtmXjlCj37KLUwJaol9TGFuNLGUbBF_8Y_Xn5PV6ipi0]--></g></svg>