<?xml version="1.0" encoding="us-ascii" standalone="no"?><svg xmlns="http://www.w3.org/2000/svg" xmlns:xlink="http://www.w3.org/1999/xlink" contentStyleType="text/css" height="981px" preserveAspectRatio="none" style="width:1686px;height:981px;background:#FFFFFF;" version="1.1" viewBox="0 0 1686 981" width="1686px" zoomAndPan="magnify"><defs/><g><!--cluster graphics--><g id="cluster_graphics"><path d="M8.5,79 L70.5,79 A3.75,3.75 0 0 1 73,81.5 L80,102.6094 L1365.5,102.6094 A2.5,2.5 0 0 1 1368,105.1094 L1368,971.5 A2.5,2.5 0 0 1 1365.5,974 L8.5,974 A2.5,2.5 0 0 1 6,971.5 L6,81.5 A2.5,2.5 0 0 1 8.5,79 " fill="none" style="stroke:#000000;stroke-width:1.5;"/><line style="stroke:#000000;stroke-width:1.5;" x1="6" x2="80" y1="102.6094" y2="102.6094"/><text fill="#000000" font-family="sans-serif" font-size="14" font-weight="bold" lengthAdjust="spacing" textLength="61" x="10" y="95.5332">graphics</text></g><!--class FrameView--><g id="elem_FrameView"><rect codeLine="1" fill="#F1F1F1" height="48" id="FrameView" rx="2.5" ry="2.5" style="stroke:#181818;stroke-width:0.5;" width="102" x="1245" y="115"/><ellipse cx="1260" cy="131" fill="#B4A7E5" rx="11" ry="11" style="stroke:#181818;stroke-width:1.0;"/><path d="M1260.9531,127.6406 L1260.9531,134.2969 L1262.6719,134.2969 Q1263.2813,134.2969 1263.5469,134.5313 Q1263.8125,134.7656 1263.8125,135.1563 Q1263.8125,135.5313 1263.5469,135.7656 Q1263.2813,136 1262.6719,136 L1257.5313,136 Q1256.9219,136 1256.6563,135.7656 Q1256.3906,135.5313 1256.3906,135.1406 Q1256.3906,134.7656 1256.6563,134.5313 Q1256.9219,134.2969 1257.5313,134.2969 L1259.25,134.2969 L1259.25,127.6406 L1257.5313,127.6406 Q1256.9219,127.6406 1256.6563,127.4063 Q1256.3906,127.1719 1256.3906,126.7813 Q1256.3906,126.4063 1256.6563,126.1719 Q1256.9219,125.9375 1257.5313,125.9375 L1262.6719,125.9375 Q1263.2813,125.9375 1263.5469,126.1719 Q1263.8125,126.4063 1263.8125,126.7813 Q1263.8125,127.1719 1263.5469,127.4063 Q1263.2813,127.6406 1262.6719,127.6406 L1260.9531,127.6406 Z " fill="#000000"/><text fill="#000000" font-family="sans-serif" font-size="14" font-style="italic" lengthAdjust="spacing" textLength="70" x="1274" y="136.7285">FrameView</text><line style="stroke:#181818;stroke-width:0.5;" x1="1246" x2="1346" y1="147" y2="147"/><line style="stroke:#181818;stroke-width:0.5;" x1="1246" x2="1346" y1="155" y2="155"/></g><!--class MainFrame--><g id="elem_MainFrame"><rect codeLine="2" fill="#F1F1F1" height="48" id="MainFrame" rx="2.5" ry="2.5" style="stroke:#181818;stroke-width:0.5;" width="103" x="1244.5" y="223"/><ellipse cx="1259.5" cy="239" fill="#ADD1B2" rx="11" ry="11" style="stroke:#181818;stroke-width:1.0;"/><path d="M1262.2656,234.875 Q1262.4219,234.6563 1262.6094,234.5469 Q1262.7969,234.4375 1263.0156,234.4375 Q1263.3906,234.4375 1263.625,234.7031 Q1263.8594,234.9531 1263.8594,235.5625 L1263.8594,237.0156 Q1263.8594,237.625 1263.625,237.8906 Q1263.3906,238.1563 1263.0156,238.1563 Q1262.6719,238.1563 1262.4688,237.9531 Q1262.2656,237.7656 1262.1563,237.25 Q1262.1094,236.8906 1261.9219,236.7031 Q1261.5938,236.3281 1260.9844,236.1094 Q1260.375,235.8906 1259.75,235.8906 Q1258.9844,235.8906 1258.3438,236.2188 Q1257.7188,236.5469 1257.2188,237.2969 Q1256.7344,238.0469 1256.7344,239.0781 L1256.7344,240.1719 Q1256.7344,241.4063 1257.625,242.2344 Q1258.5156,243.0469 1260.1094,243.0469 Q1261.0469,243.0469 1261.7031,242.7969 Q1262.0938,242.6406 1262.5156,242.2031 Q1262.7813,241.9375 1262.9219,241.8594 Q1263.0781,241.7813 1263.2813,241.7813 Q1263.6094,241.7813 1263.8594,242.0469 Q1264.125,242.2969 1264.125,242.6406 Q1264.125,242.9844 1263.7813,243.3906 Q1263.2813,243.9688 1262.4844,244.2969 Q1261.4063,244.75 1260.1094,244.75 Q1258.5938,244.75 1257.3906,244.125 Q1256.4063,243.625 1255.7188,242.5625 Q1255.0313,241.4844 1255.0313,240.2031 L1255.0313,239.0469 Q1255.0313,237.7188 1255.6406,236.5781 Q1256.2656,235.4219 1257.3594,234.8125 Q1258.4531,234.1875 1259.6875,234.1875 Q1260.4219,234.1875 1261.0625,234.3594 Q1261.7188,234.5156 1262.2656,234.875 Z " fill="#000000"/><text fill="#000000" font-family="sans-serif" font-size="14" lengthAdjust="spacing" textLength="71" x="1273.5" y="244.7285">MainFrame</text><line style="stroke:#181818;stroke-width:0.5;" x1="1245.5" x2="1346.5" y1="255" y2="255"/><line style="stroke:#181818;stroke-width:0.5;" x1="1245.5" x2="1346.5" y1="263" y2="263"/></g><!--class GameLoopView--><g id="elem_GameLoopView"><rect codeLine="3" fill="#F1F1F1" height="48" id="GameLoopView" rx="2.5" ry="2.5" style="stroke:#181818;stroke-width:0.5;" width="131" x="1058.5" y="337.5"/><ellipse cx="1073.5" cy="353.5" fill="#B4A7E5" rx="11" ry="11" style="stroke:#181818;stroke-width:1.0;"/><path d="M1074.4531,350.1406 L1074.4531,356.7969 L1076.1719,356.7969 Q1076.7813,356.7969 1077.0469,357.0313 Q1077.3125,357.2656 1077.3125,357.6563 Q1077.3125,358.0313 1077.0469,358.2656 Q1076.7813,358.5 1076.1719,358.5 L1071.0313,358.5 Q1070.4219,358.5 1070.1563,358.2656 Q1069.8906,358.0313 1069.8906,357.6406 Q1069.8906,357.2656 1070.1563,357.0313 Q1070.4219,356.7969 1071.0313,356.7969 L1072.75,356.7969 L1072.75,350.1406 L1071.0313,350.1406 Q1070.4219,350.1406 1070.1563,349.9063 Q1069.8906,349.6719 1069.8906,349.2813 Q1069.8906,348.9063 1070.1563,348.6719 Q1070.4219,348.4375 1071.0313,348.4375 L1076.1719,348.4375 Q1076.7813,348.4375 1077.0469,348.6719 Q1077.3125,348.9063 1077.3125,349.2813 Q1077.3125,349.6719 1077.0469,349.9063 Q1076.7813,350.1406 1076.1719,350.1406 L1074.4531,350.1406 Z " fill="#000000"/><text fill="#000000" font-family="sans-serif" font-size="14" font-style="italic" lengthAdjust="spacing" textLength="99" x="1087.5" y="359.2285">GameLoopView</text><line style="stroke:#181818;stroke-width:0.5;" x1="1059.5" x2="1188.5" y1="369.5" y2="369.5"/><line style="stroke:#181818;stroke-width:0.5;" x1="1059.5" x2="1188.5" y1="377.5" y2="377.5"/></g><!--class BoardView--><g id="elem_BoardView"><rect codeLine="4" fill="#F1F1F1" height="48" id="BoardView" rx="2.5" ry="2.5" style="stroke:#181818;stroke-width:0.5;" width="99" x="829.5" y="452"/><ellipse cx="844.5" cy="468" fill="#A9DCDF" rx="11" ry="11" style="stroke:#181818;stroke-width:1.0;"/><path d="M846.6875,469.7656 L842.5469,469.7656 L842.125,470.7969 L842.5469,470.7969 Q843.1563,470.7969 843.4219,471.0313 Q843.6875,471.2656 843.6875,471.6563 Q843.6875,472.0313 843.4219,472.2656 Q843.1563,472.5 842.5469,472.5 L840.25,472.5 Q839.6406,472.5 839.3906,472.2656 Q839.125,472.0313 839.125,471.6406 Q839.125,471.2656 839.4063,471.0313 Q839.6719,470.7813 840.2969,470.7969 L842.9688,464.1406 L841.8594,464.1406 Q841.25,464.1406 840.9844,463.9063 Q840.7188,463.6719 840.7188,463.2813 Q840.7188,462.9063 840.9844,462.6719 Q841.25,462.4375 841.8594,462.4375 L845.5313,462.4375 L848.9219,470.7969 Q849.5156,470.7969 849.7031,470.9375 Q850.0938,471.2031 850.0938,471.6563 Q850.0938,472.0313 849.8281,472.2656 Q849.5781,472.5 848.9688,472.5 L846.6719,472.5 Q846.0625,472.5 845.7969,472.2656 Q845.5313,472.0313 845.5313,471.6406 Q845.5313,471.2656 845.7969,471.0313 Q846.0625,470.7969 846.6719,470.7969 L847.0938,470.7969 L846.6875,469.7656 Z M845.9688,468.0625 L844.6094,464.6875 L843.2344,468.0625 L845.9688,468.0625 Z " fill="#000000"/><text fill="#000000" font-family="sans-serif" font-size="14" font-style="italic" lengthAdjust="spacing" textLength="67" x="858.5" y="473.7285">BoardView</text><line style="stroke:#181818;stroke-width:0.5;" x1="830.5" x2="927.5" y1="484" y2="484"/><line style="stroke:#181818;stroke-width:0.5;" x1="830.5" x2="927.5" y1="492" y2="492"/></g><!--class BoardViewPrototypeDirector--><g id="elem_BoardViewPrototypeDirector"><rect codeLine="5" fill="#F1F1F1" height="48" id="BoardViewPrototypeDirector" rx="2.5" ry="2.5" style="stroke:#181818;stroke-width:0.5;" width="210" x="269" y="687.5"/><ellipse cx="284" cy="703.5" fill="#ADD1B2" rx="11" ry="11" style="stroke:#181818;stroke-width:1.0;"/><path d="M286.7656,699.375 Q286.9219,699.1563 287.1094,699.0469 Q287.2969,698.9375 287.5156,698.9375 Q287.8906,698.9375 288.125,699.2031 Q288.3594,699.4531 288.3594,700.0625 L288.3594,701.5156 Q288.3594,702.125 288.125,702.3906 Q287.8906,702.6563 287.5156,702.6563 Q287.1719,702.6563 286.9688,702.4531 Q286.7656,702.2656 286.6563,701.75 Q286.6094,701.3906 286.4219,701.2031 Q286.0938,700.8281 285.4844,700.6094 Q284.875,700.3906 284.25,700.3906 Q283.4844,700.3906 282.8438,700.7188 Q282.2188,701.0469 281.7188,701.7969 Q281.2344,702.5469 281.2344,703.5781 L281.2344,704.6719 Q281.2344,705.9063 282.125,706.7344 Q283.0156,707.5469 284.6094,707.5469 Q285.5469,707.5469 286.2031,707.2969 Q286.5938,707.1406 287.0156,706.7031 Q287.2813,706.4375 287.4219,706.3594 Q287.5781,706.2813 287.7813,706.2813 Q288.1094,706.2813 288.3594,706.5469 Q288.625,706.7969 288.625,707.1406 Q288.625,707.4844 288.2813,707.8906 Q287.7813,708.4688 286.9844,708.7969 Q285.9063,709.25 284.6094,709.25 Q283.0938,709.25 281.8906,708.625 Q280.9063,708.125 280.2188,707.0625 Q279.5313,705.9844 279.5313,704.7031 L279.5313,703.5469 Q279.5313,702.2188 280.1406,701.0781 Q280.7656,699.9219 281.8594,699.3125 Q282.9531,698.6875 284.1875,698.6875 Q284.9219,698.6875 285.5625,698.8594 Q286.2188,699.0156 286.7656,699.375 Z " fill="#000000"/><text fill="#000000" font-family="sans-serif" font-size="14" lengthAdjust="spacing" textLength="178" x="298" y="709.2285">BoardViewPrototypeDirector</text><line style="stroke:#181818;stroke-width:0.5;" x1="270" x2="478" y1="719.5" y2="719.5"/><line style="stroke:#181818;stroke-width:0.5;" x1="270" x2="478" y1="727.5" y2="727.5"/></g><!--class BoardViewPrototypeRegistry--><g id="elem_BoardViewPrototypeRegistry"><rect codeLine="6" fill="#F1F1F1" height="48" id="BoardViewPrototypeRegistry" rx="2.5" ry="2.5" style="stroke:#181818;stroke-width:0.5;" width="212" x="22" y="802"/><ellipse cx="37" cy="818" fill="#ADD1B2" rx="11" ry="11" style="stroke:#181818;stroke-width:1.0;"/><path d="M39.7656,813.875 Q39.9219,813.6563 40.1094,813.5469 Q40.2969,813.4375 40.5156,813.4375 Q40.8906,813.4375 41.125,813.7031 Q41.3594,813.9531 41.3594,814.5625 L41.3594,816.0156 Q41.3594,816.625 41.125,816.8906 Q40.8906,817.1563 40.5156,817.1563 Q40.1719,817.1563 39.9688,816.9531 Q39.7656,816.7656 39.6563,816.25 Q39.6094,815.8906 39.4219,815.7031 Q39.0938,815.3281 38.4844,815.1094 Q37.875,814.8906 37.25,814.8906 Q36.4844,814.8906 35.8438,815.2188 Q35.2188,815.5469 34.7188,816.2969 Q34.2344,817.0469 34.2344,818.0781 L34.2344,819.1719 Q34.2344,820.4063 35.125,821.2344 Q36.0156,822.0469 37.6094,822.0469 Q38.5469,822.0469 39.2031,821.7969 Q39.5938,821.6406 40.0156,821.2031 Q40.2813,820.9375 40.4219,820.8594 Q40.5781,820.7813 40.7813,820.7813 Q41.1094,820.7813 41.3594,821.0469 Q41.625,821.2969 41.625,821.6406 Q41.625,821.9844 41.2813,822.3906 Q40.7813,822.9688 39.9844,823.2969 Q38.9063,823.75 37.6094,823.75 Q36.0938,823.75 34.8906,823.125 Q33.9063,822.625 33.2188,821.5625 Q32.5313,820.4844 32.5313,819.2031 L32.5313,818.0469 Q32.5313,816.7188 33.1406,815.5781 Q33.7656,814.4219 34.8594,813.8125 Q35.9531,813.1875 37.1875,813.1875 Q37.9219,813.1875 38.5625,813.3594 Q39.2188,813.5156 39.7656,813.875 Z " fill="#000000"/><text fill="#000000" font-family="sans-serif" font-size="14" lengthAdjust="spacing" textLength="180" x="51" y="823.7285">BoardViewPrototypeRegistry</text><line style="stroke:#181818;stroke-width:0.5;" x1="23" x2="233" y1="834" y2="834"/><line style="stroke:#181818;stroke-width:0.5;" x1="23" x2="233" y1="842" y2="842"/></g><!--class Command--><g id="elem_Command"><rect codeLine="7" fill="#F1F1F1" height="48" id="Command" rx="2.5" ry="2.5" style="stroke:#181818;stroke-width:0.5;" width="96" x="960" y="566.5"/><ellipse cx="975" cy="582.5" fill="#B4A7E5" rx="11" ry="11" style="stroke:#181818;stroke-width:1.0;"/><path d="M975.9531,579.1406 L975.9531,585.7969 L977.6719,585.7969 Q978.2813,585.7969 978.5469,586.0313 Q978.8125,586.2656 978.8125,586.6563 Q978.8125,587.0313 978.5469,587.2656 Q978.2813,587.5 977.6719,587.5 L972.5313,587.5 Q971.9219,587.5 971.6563,587.2656 Q971.3906,587.0313 971.3906,586.6406 Q971.3906,586.2656 971.6563,586.0313 Q971.9219,585.7969 972.5313,585.7969 L974.25,585.7969 L974.25,579.1406 L972.5313,579.1406 Q971.9219,579.1406 971.6563,578.9063 Q971.3906,578.6719 971.3906,578.2813 Q971.3906,577.9063 971.6563,577.6719 Q971.9219,577.4375 972.5313,577.4375 L977.6719,577.4375 Q978.2813,577.4375 978.5469,577.6719 Q978.8125,577.9063 978.8125,578.2813 Q978.8125,578.6719 978.5469,578.9063 Q978.2813,579.1406 977.6719,579.1406 L975.9531,579.1406 Z " fill="#000000"/><text fill="#000000" font-family="sans-serif" font-size="14" font-style="italic" lengthAdjust="spacing" textLength="64" x="989" y="588.2285">Command</text><line style="stroke:#181818;stroke-width:0.5;" x1="961" x2="1055" y1="598.5" y2="598.5"/><line style="stroke:#181818;stroke-width:0.5;" x1="961" x2="1055" y1="606.5" y2="606.5"/></g><!--class PanelViewCommand--><g id="elem_PanelViewCommand"><rect codeLine="8" fill="#F1F1F1" height="48" id="PanelViewCommand" rx="2.5" ry="2.5" style="stroke:#181818;stroke-width:0.5;" width="161" x="849.5" y="802"/><ellipse cx="864.5" cy="818" fill="#A9DCDF" rx="11" ry="11" style="stroke:#181818;stroke-width:1.0;"/><path d="M866.6875,819.7656 L862.5469,819.7656 L862.125,820.7969 L862.5469,820.7969 Q863.1563,820.7969 863.4219,821.0313 Q863.6875,821.2656 863.6875,821.6563 Q863.6875,822.0313 863.4219,822.2656 Q863.1563,822.5 862.5469,822.5 L860.25,822.5 Q859.6406,822.5 859.3906,822.2656 Q859.125,822.0313 859.125,821.6406 Q859.125,821.2656 859.4063,821.0313 Q859.6719,820.7813 860.2969,820.7969 L862.9688,814.1406 L861.8594,814.1406 Q861.25,814.1406 860.9844,813.9063 Q860.7188,813.6719 860.7188,813.2813 Q860.7188,812.9063 860.9844,812.6719 Q861.25,812.4375 861.8594,812.4375 L865.5313,812.4375 L868.9219,820.7969 Q869.5156,820.7969 869.7031,820.9375 Q870.0938,821.2031 870.0938,821.6563 Q870.0938,822.0313 869.8281,822.2656 Q869.5781,822.5 868.9688,822.5 L866.6719,822.5 Q866.0625,822.5 865.7969,822.2656 Q865.5313,822.0313 865.5313,821.6406 Q865.5313,821.2656 865.7969,821.0313 Q866.0625,820.7969 866.6719,820.7969 L867.0938,820.7969 L866.6875,819.7656 Z M865.9688,818.0625 L864.6094,814.6875 L863.2344,818.0625 L865.9688,818.0625 Z " fill="#000000"/><text fill="#000000" font-family="sans-serif" font-size="14" font-style="italic" lengthAdjust="spacing" textLength="129" x="878.5" y="823.7285">PanelViewCommand</text><line style="stroke:#181818;stroke-width:0.5;" x1="850.5" x2="1009.5" y1="834" y2="834"/><line style="stroke:#181818;stroke-width:0.5;" x1="850.5" x2="1009.5" y1="842" y2="842"/></g><!--class ViewCommand--><g id="elem_ViewCommand"><rect codeLine="9" fill="#F1F1F1" height="48" id="ViewCommand" rx="2.5" ry="2.5" style="stroke:#181818;stroke-width:0.5;" width="125" x="1044.5" y="687.5"/><ellipse cx="1059.5" cy="703.5" fill="#A9DCDF" rx="11" ry="11" style="stroke:#181818;stroke-width:1.0;"/><path d="M1061.6875,705.2656 L1057.5469,705.2656 L1057.125,706.2969 L1057.5469,706.2969 Q1058.1563,706.2969 1058.4219,706.5313 Q1058.6875,706.7656 1058.6875,707.1563 Q1058.6875,707.5313 1058.4219,707.7656 Q1058.1563,708 1057.5469,708 L1055.25,708 Q1054.6406,708 1054.3906,707.7656 Q1054.125,707.5313 1054.125,707.1406 Q1054.125,706.7656 1054.4063,706.5313 Q1054.6719,706.2813 1055.2969,706.2969 L1057.9688,699.6406 L1056.8594,699.6406 Q1056.25,699.6406 1055.9844,699.4063 Q1055.7188,699.1719 1055.7188,698.7813 Q1055.7188,698.4063 1055.9844,698.1719 Q1056.25,697.9375 1056.8594,697.9375 L1060.5313,697.9375 L1063.9219,706.2969 Q1064.5156,706.2969 1064.7031,706.4375 Q1065.0938,706.7031 1065.0938,707.1563 Q1065.0938,707.5313 1064.8281,707.7656 Q1064.5781,708 1063.9688,708 L1061.6719,708 Q1061.0625,708 1060.7969,707.7656 Q1060.5313,707.5313 1060.5313,707.1406 Q1060.5313,706.7656 1060.7969,706.5313 Q1061.0625,706.2969 1061.6719,706.2969 L1062.0938,706.2969 L1061.6875,705.2656 Z M1060.9688,703.5625 L1059.6094,700.1875 L1058.2344,703.5625 L1060.9688,703.5625 Z " fill="#000000"/><text fill="#000000" font-family="sans-serif" font-size="14" font-style="italic" lengthAdjust="spacing" textLength="93" x="1073.5" y="709.2285">ViewCommand</text><line style="stroke:#181818;stroke-width:0.5;" x1="1045.5" x2="1168.5" y1="719.5" y2="719.5"/><line style="stroke:#181818;stroke-width:0.5;" x1="1045.5" x2="1168.5" y1="727.5" y2="727.5"/></g><!--class GraphicsView--><g id="elem_GraphicsView"><rect codeLine="10" fill="#F1F1F1" height="48" id="GraphicsView" rx="2.5" ry="2.5" style="stroke:#181818;stroke-width:0.5;" width="118" x="1069" y="115"/><ellipse cx="1084" cy="131" fill="#ADD1B2" rx="11" ry="11" style="stroke:#181818;stroke-width:1.0;"/><path d="M1086.7656,126.875 Q1086.9219,126.6563 1087.1094,126.5469 Q1087.2969,126.4375 1087.5156,126.4375 Q1087.8906,126.4375 1088.125,126.7031 Q1088.3594,126.9531 1088.3594,127.5625 L1088.3594,129.0156 Q1088.3594,129.625 1088.125,129.8906 Q1087.8906,130.1563 1087.5156,130.1563 Q1087.1719,130.1563 1086.9688,129.9531 Q1086.7656,129.7656 1086.6563,129.25 Q1086.6094,128.8906 1086.4219,128.7031 Q1086.0938,128.3281 1085.4844,128.1094 Q1084.875,127.8906 1084.25,127.8906 Q1083.4844,127.8906 1082.8438,128.2188 Q1082.2188,128.5469 1081.7188,129.2969 Q1081.2344,130.0469 1081.2344,131.0781 L1081.2344,132.1719 Q1081.2344,133.4063 1082.125,134.2344 Q1083.0156,135.0469 1084.6094,135.0469 Q1085.5469,135.0469 1086.2031,134.7969 Q1086.5938,134.6406 1087.0156,134.2031 Q1087.2813,133.9375 1087.4219,133.8594 Q1087.5781,133.7813 1087.7813,133.7813 Q1088.1094,133.7813 1088.3594,134.0469 Q1088.625,134.2969 1088.625,134.6406 Q1088.625,134.9844 1088.2813,135.3906 Q1087.7813,135.9688 1086.9844,136.2969 Q1085.9063,136.75 1084.6094,136.75 Q1083.0938,136.75 1081.8906,136.125 Q1080.9063,135.625 1080.2188,134.5625 Q1079.5313,133.4844 1079.5313,132.2031 L1079.5313,131.0469 Q1079.5313,129.7188 1080.1406,128.5781 Q1080.7656,127.4219 1081.8594,126.8125 Q1082.9531,126.1875 1084.1875,126.1875 Q1084.9219,126.1875 1085.5625,126.3594 Q1086.2188,126.5156 1086.7656,126.875 Z " fill="#000000"/><text fill="#000000" font-family="sans-serif" font-size="14" lengthAdjust="spacing" textLength="86" x="1098" y="136.7285">GraphicsView</text><line style="stroke:#181818;stroke-width:0.5;" x1="1070" x2="1186" y1="147" y2="147"/><line style="stroke:#181818;stroke-width:0.5;" x1="1070" x2="1186" y1="155" y2="155"/></g><!--class MachinePlayerBoardView--><g id="elem_MachinePlayerBoardView"><rect codeLine="11" fill="#F1F1F1" height="48" id="MachinePlayerBoardView" rx="2.5" ry="2.5" style="stroke:#181818;stroke-width:0.5;" width="192" x="306" y="802"/><ellipse cx="321" cy="818" fill="#ADD1B2" rx="11" ry="11" style="stroke:#181818;stroke-width:1.0;"/><path d="M323.7656,813.875 Q323.9219,813.6563 324.1094,813.5469 Q324.2969,813.4375 324.5156,813.4375 Q324.8906,813.4375 325.125,813.7031 Q325.3594,813.9531 325.3594,814.5625 L325.3594,816.0156 Q325.3594,816.625 325.125,816.8906 Q324.8906,817.1563 324.5156,817.1563 Q324.1719,817.1563 323.9688,816.9531 Q323.7656,816.7656 323.6563,816.25 Q323.6094,815.8906 323.4219,815.7031 Q323.0938,815.3281 322.4844,815.1094 Q321.875,814.8906 321.25,814.8906 Q320.4844,814.8906 319.8438,815.2188 Q319.2188,815.5469 318.7188,816.2969 Q318.2344,817.0469 318.2344,818.0781 L318.2344,819.1719 Q318.2344,820.4063 319.125,821.2344 Q320.0156,822.0469 321.6094,822.0469 Q322.5469,822.0469 323.2031,821.7969 Q323.5938,821.6406 324.0156,821.2031 Q324.2813,820.9375 324.4219,820.8594 Q324.5781,820.7813 324.7813,820.7813 Q325.1094,820.7813 325.3594,821.0469 Q325.625,821.2969 325.625,821.6406 Q325.625,821.9844 325.2813,822.3906 Q324.7813,822.9688 323.9844,823.2969 Q322.9063,823.75 321.6094,823.75 Q320.0938,823.75 318.8906,823.125 Q317.9063,822.625 317.2188,821.5625 Q316.5313,820.4844 316.5313,819.2031 L316.5313,818.0469 Q316.5313,816.7188 317.1406,815.5781 Q317.7656,814.4219 318.8594,813.8125 Q319.9531,813.1875 321.1875,813.1875 Q321.9219,813.1875 322.5625,813.3594 Q323.2188,813.5156 323.7656,813.875 Z " fill="#000000"/><text fill="#000000" font-family="sans-serif" font-size="14" lengthAdjust="spacing" textLength="160" x="335" y="823.7285">MachinePlayerBoardView</text><line style="stroke:#181818;stroke-width:0.5;" x1="307" x2="497" y1="834" y2="834"/><line style="stroke:#181818;stroke-width:0.5;" x1="307" x2="497" y1="842" y2="842"/></g><!--class NextTurnCommand--><g id="elem_NextTurnCommand"><rect codeLine="12" fill="#F1F1F1" height="48" id="NextTurnCommand" rx="2.5" ry="2.5" style="stroke:#181818;stroke-width:0.5;" width="153" x="853.5" y="910"/><ellipse cx="868.5" cy="926" fill="#ADD1B2" rx="11" ry="11" style="stroke:#181818;stroke-width:1.0;"/><path d="M871.2656,921.875 Q871.4219,921.6563 871.6094,921.5469 Q871.7969,921.4375 872.0156,921.4375 Q872.3906,921.4375 872.625,921.7031 Q872.8594,921.9531 872.8594,922.5625 L872.8594,924.0156 Q872.8594,924.625 872.625,924.8906 Q872.3906,925.1563 872.0156,925.1563 Q871.6719,925.1563 871.4688,924.9531 Q871.2656,924.7656 871.1563,924.25 Q871.1094,923.8906 870.9219,923.7031 Q870.5938,923.3281 869.9844,923.1094 Q869.375,922.8906 868.75,922.8906 Q867.9844,922.8906 867.3438,923.2188 Q866.7188,923.5469 866.2188,924.2969 Q865.7344,925.0469 865.7344,926.0781 L865.7344,927.1719 Q865.7344,928.4063 866.625,929.2344 Q867.5156,930.0469 869.1094,930.0469 Q870.0469,930.0469 870.7031,929.7969 Q871.0938,929.6406 871.5156,929.2031 Q871.7813,928.9375 871.9219,928.8594 Q872.0781,928.7813 872.2813,928.7813 Q872.6094,928.7813 872.8594,929.0469 Q873.125,929.2969 873.125,929.6406 Q873.125,929.9844 872.7813,930.3906 Q872.2813,930.9688 871.4844,931.2969 Q870.4063,931.75 869.1094,931.75 Q867.5938,931.75 866.3906,931.125 Q865.4063,930.625 864.7188,929.5625 Q864.0313,928.4844 864.0313,927.2031 L864.0313,926.0469 Q864.0313,924.7188 864.6406,923.5781 Q865.2656,922.4219 866.3594,921.8125 Q867.4531,921.1875 868.6875,921.1875 Q869.4219,921.1875 870.0625,921.3594 Q870.7188,921.5156 871.2656,921.875 Z " fill="#000000"/><text fill="#000000" font-family="sans-serif" font-size="14" lengthAdjust="spacing" textLength="121" x="882.5" y="931.7285">NextTurnCommand</text><line style="stroke:#181818;stroke-width:0.5;" x1="854.5" x2="1005.5" y1="942" y2="942"/><line style="stroke:#181818;stroke-width:0.5;" x1="854.5" x2="1005.5" y1="950" y2="950"/></g><!--class PlayCommand--><g id="elem_PlayCommand"><rect codeLine="13" fill="#F1F1F1" height="48" id="PlayCommand" rx="2.5" ry="2.5" style="stroke:#181818;stroke-width:0.5;" width="123" x="1045.5" y="802"/><ellipse cx="1060.5" cy="818" fill="#ADD1B2" rx="11" ry="11" style="stroke:#181818;stroke-width:1.0;"/><path d="M1063.2656,813.875 Q1063.4219,813.6563 1063.6094,813.5469 Q1063.7969,813.4375 1064.0156,813.4375 Q1064.3906,813.4375 1064.625,813.7031 Q1064.8594,813.9531 1064.8594,814.5625 L1064.8594,816.0156 Q1064.8594,816.625 1064.625,816.8906 Q1064.3906,817.1563 1064.0156,817.1563 Q1063.6719,817.1563 1063.4688,816.9531 Q1063.2656,816.7656 1063.1563,816.25 Q1063.1094,815.8906 1062.9219,815.7031 Q1062.5938,815.3281 1061.9844,815.1094 Q1061.375,814.8906 1060.75,814.8906 Q1059.9844,814.8906 1059.3438,815.2188 Q1058.7188,815.5469 1058.2188,816.2969 Q1057.7344,817.0469 1057.7344,818.0781 L1057.7344,819.1719 Q1057.7344,820.4063 1058.625,821.2344 Q1059.5156,822.0469 1061.1094,822.0469 Q1062.0469,822.0469 1062.7031,821.7969 Q1063.0938,821.6406 1063.5156,821.2031 Q1063.7813,820.9375 1063.9219,820.8594 Q1064.0781,820.7813 1064.2813,820.7813 Q1064.6094,820.7813 1064.8594,821.0469 Q1065.125,821.2969 1065.125,821.6406 Q1065.125,821.9844 1064.7813,822.3906 Q1064.2813,822.9688 1063.4844,823.2969 Q1062.4063,823.75 1061.1094,823.75 Q1059.5938,823.75 1058.3906,823.125 Q1057.4063,822.625 1056.7188,821.5625 Q1056.0313,820.4844 1056.0313,819.2031 L1056.0313,818.0469 Q1056.0313,816.7188 1056.6406,815.5781 Q1057.2656,814.4219 1058.3594,813.8125 Q1059.4531,813.1875 1060.6875,813.1875 Q1061.4219,813.1875 1062.0625,813.3594 Q1062.7188,813.5156 1063.2656,813.875 Z " fill="#000000"/><text fill="#000000" font-family="sans-serif" font-size="14" lengthAdjust="spacing" textLength="91" x="1074.5" y="823.7285">PlayCommand</text><line style="stroke:#181818;stroke-width:0.5;" x1="1046.5" x2="1167.5" y1="834" y2="834"/><line style="stroke:#181818;stroke-width:0.5;" x1="1046.5" x2="1167.5" y1="842" y2="842"/></g><!--class PlayPanelView--><g id="elem_PlayPanelView"><rect codeLine="14" fill="#F1F1F1" height="48" id="PlayPanelView" rx="2.5" ry="2.5" style="stroke:#181818;stroke-width:0.5;" width="124" x="504" y="566.5"/><ellipse cx="519" cy="582.5" fill="#ADD1B2" rx="11" ry="11" style="stroke:#181818;stroke-width:1.0;"/><path d="M521.7656,578.375 Q521.9219,578.1563 522.1094,578.0469 Q522.2969,577.9375 522.5156,577.9375 Q522.8906,577.9375 523.125,578.2031 Q523.3594,578.4531 523.3594,579.0625 L523.3594,580.5156 Q523.3594,581.125 523.125,581.3906 Q522.8906,581.6563 522.5156,581.6563 Q522.1719,581.6563 521.9688,581.4531 Q521.7656,581.2656 521.6563,580.75 Q521.6094,580.3906 521.4219,580.2031 Q521.0938,579.8281 520.4844,579.6094 Q519.875,579.3906 519.25,579.3906 Q518.4844,579.3906 517.8438,579.7188 Q517.2188,580.0469 516.7188,580.7969 Q516.2344,581.5469 516.2344,582.5781 L516.2344,583.6719 Q516.2344,584.9063 517.125,585.7344 Q518.0156,586.5469 519.6094,586.5469 Q520.5469,586.5469 521.2031,586.2969 Q521.5938,586.1406 522.0156,585.7031 Q522.2813,585.4375 522.4219,585.3594 Q522.5781,585.2813 522.7813,585.2813 Q523.1094,585.2813 523.3594,585.5469 Q523.625,585.7969 523.625,586.1406 Q523.625,586.4844 523.2813,586.8906 Q522.7813,587.4688 521.9844,587.7969 Q520.9063,588.25 519.6094,588.25 Q518.0938,588.25 516.8906,587.625 Q515.9063,587.125 515.2188,586.0625 Q514.5313,584.9844 514.5313,583.7031 L514.5313,582.5469 Q514.5313,581.2188 515.1406,580.0781 Q515.7656,578.9219 516.8594,578.3125 Q517.9531,577.6875 519.1875,577.6875 Q519.9219,577.6875 520.5625,577.8594 Q521.2188,578.0156 521.7656,578.375 Z " fill="#000000"/><text fill="#000000" font-family="sans-serif" font-size="14" lengthAdjust="spacing" textLength="92" x="533" y="588.2285">PlayPanelView</text><line style="stroke:#181818;stroke-width:0.5;" x1="505" x2="627" y1="598.5" y2="598.5"/><line style="stroke:#181818;stroke-width:0.5;" x1="505" x2="627" y1="606.5" y2="606.5"/></g><!--class ResumePanelView--><g id="elem_ResumePanelView"><rect codeLine="15" fill="#F1F1F1" height="48" id="ResumePanelView" rx="2.5" ry="2.5" style="stroke:#181818;stroke-width:0.5;" width="149" x="645.5" y="452"/><ellipse cx="660.5" cy="468" fill="#ADD1B2" rx="11" ry="11" style="stroke:#181818;stroke-width:1.0;"/><path d="M663.2656,463.875 Q663.4219,463.6563 663.6094,463.5469 Q663.7969,463.4375 664.0156,463.4375 Q664.3906,463.4375 664.625,463.7031 Q664.8594,463.9531 664.8594,464.5625 L664.8594,466.0156 Q664.8594,466.625 664.625,466.8906 Q664.3906,467.1563 664.0156,467.1563 Q663.6719,467.1563 663.4688,466.9531 Q663.2656,466.7656 663.1563,466.25 Q663.1094,465.8906 662.9219,465.7031 Q662.5938,465.3281 661.9844,465.1094 Q661.375,464.8906 660.75,464.8906 Q659.9844,464.8906 659.3438,465.2188 Q658.7188,465.5469 658.2188,466.2969 Q657.7344,467.0469 657.7344,468.0781 L657.7344,469.1719 Q657.7344,470.4063 658.625,471.2344 Q659.5156,472.0469 661.1094,472.0469 Q662.0469,472.0469 662.7031,471.7969 Q663.0938,471.6406 663.5156,471.2031 Q663.7813,470.9375 663.9219,470.8594 Q664.0781,470.7813 664.2813,470.7813 Q664.6094,470.7813 664.8594,471.0469 Q665.125,471.2969 665.125,471.6406 Q665.125,471.9844 664.7813,472.3906 Q664.2813,472.9688 663.4844,473.2969 Q662.4063,473.75 661.1094,473.75 Q659.5938,473.75 658.3906,473.125 Q657.4063,472.625 656.7188,471.5625 Q656.0313,470.4844 656.0313,469.2031 L656.0313,468.0469 Q656.0313,466.7188 656.6406,465.5781 Q657.2656,464.4219 658.3594,463.8125 Q659.4531,463.1875 660.6875,463.1875 Q661.4219,463.1875 662.0625,463.3594 Q662.7188,463.5156 663.2656,463.875 Z " fill="#000000"/><text fill="#000000" font-family="sans-serif" font-size="14" lengthAdjust="spacing" textLength="117" x="674.5" y="473.7285">ResumePanelView</text><line style="stroke:#181818;stroke-width:0.5;" x1="646.5" x2="793.5" y1="484" y2="484"/><line style="stroke:#181818;stroke-width:0.5;" x1="646.5" x2="793.5" y1="492" y2="492"/></g><!--class ResumeCommand--><g id="elem_ResumeCommand"><rect codeLine="16" fill="#F1F1F1" height="48" id="ResumeCommand" rx="2.5" ry="2.5" style="stroke:#181818;stroke-width:0.5;" width="148" x="1204" y="802"/><ellipse cx="1219" cy="818" fill="#ADD1B2" rx="11" ry="11" style="stroke:#181818;stroke-width:1.0;"/><path d="M1221.7656,813.875 Q1221.9219,813.6563 1222.1094,813.5469 Q1222.2969,813.4375 1222.5156,813.4375 Q1222.8906,813.4375 1223.125,813.7031 Q1223.3594,813.9531 1223.3594,814.5625 L1223.3594,816.0156 Q1223.3594,816.625 1223.125,816.8906 Q1222.8906,817.1563 1222.5156,817.1563 Q1222.1719,817.1563 1221.9688,816.9531 Q1221.7656,816.7656 1221.6563,816.25 Q1221.6094,815.8906 1221.4219,815.7031 Q1221.0938,815.3281 1220.4844,815.1094 Q1219.875,814.8906 1219.25,814.8906 Q1218.4844,814.8906 1217.8438,815.2188 Q1217.2188,815.5469 1216.7188,816.2969 Q1216.2344,817.0469 1216.2344,818.0781 L1216.2344,819.1719 Q1216.2344,820.4063 1217.125,821.2344 Q1218.0156,822.0469 1219.6094,822.0469 Q1220.5469,822.0469 1221.2031,821.7969 Q1221.5938,821.6406 1222.0156,821.2031 Q1222.2813,820.9375 1222.4219,820.8594 Q1222.5781,820.7813 1222.7813,820.7813 Q1223.1094,820.7813 1223.3594,821.0469 Q1223.625,821.2969 1223.625,821.6406 Q1223.625,821.9844 1223.2813,822.3906 Q1222.7813,822.9688 1221.9844,823.2969 Q1220.9063,823.75 1219.6094,823.75 Q1218.0938,823.75 1216.8906,823.125 Q1215.9063,822.625 1215.2188,821.5625 Q1214.5313,820.4844 1214.5313,819.2031 L1214.5313,818.0469 Q1214.5313,816.7188 1215.1406,815.5781 Q1215.7656,814.4219 1216.8594,813.8125 Q1217.9531,813.1875 1219.1875,813.1875 Q1219.9219,813.1875 1220.5625,813.3594 Q1221.2188,813.5156 1221.7656,813.875 Z " fill="#000000"/><text fill="#000000" font-family="sans-serif" font-size="14" lengthAdjust="spacing" textLength="116" x="1233" y="823.7285">ResumeCommand</text><line style="stroke:#181818;stroke-width:0.5;" x1="1205" x2="1351" y1="834" y2="834"/><line style="stroke:#181818;stroke-width:0.5;" x1="1205" x2="1351" y1="842" y2="842"/></g><!--class Square--><g id="elem_Square"><rect codeLine="17" fill="#F1F1F1" height="48" id="Square" rx="2.5" ry="2.5" style="stroke:#181818;stroke-width:0.5;" width="78" x="533" y="802"/><ellipse cx="548" cy="818" fill="#ADD1B2" rx="11" ry="11" style="stroke:#181818;stroke-width:1.0;"/><path d="M550.7656,813.875 Q550.9219,813.6563 551.1094,813.5469 Q551.2969,813.4375 551.5156,813.4375 Q551.8906,813.4375 552.125,813.7031 Q552.3594,813.9531 552.3594,814.5625 L552.3594,816.0156 Q552.3594,816.625 552.125,816.8906 Q551.8906,817.1563 551.5156,817.1563 Q551.1719,817.1563 550.9688,816.9531 Q550.7656,816.7656 550.6563,816.25 Q550.6094,815.8906 550.4219,815.7031 Q550.0938,815.3281 549.4844,815.1094 Q548.875,814.8906 548.25,814.8906 Q547.4844,814.8906 546.8438,815.2188 Q546.2188,815.5469 545.7188,816.2969 Q545.2344,817.0469 545.2344,818.0781 L545.2344,819.1719 Q545.2344,820.4063 546.125,821.2344 Q547.0156,822.0469 548.6094,822.0469 Q549.5469,822.0469 550.2031,821.7969 Q550.5938,821.6406 551.0156,821.2031 Q551.2813,820.9375 551.4219,820.8594 Q551.5781,820.7813 551.7813,820.7813 Q552.1094,820.7813 552.3594,821.0469 Q552.625,821.2969 552.625,821.6406 Q552.625,821.9844 552.2813,822.3906 Q551.7813,822.9688 550.9844,823.2969 Q549.9063,823.75 548.6094,823.75 Q547.0938,823.75 545.8906,823.125 Q544.9063,822.625 544.2188,821.5625 Q543.5313,820.4844 543.5313,819.2031 L543.5313,818.0469 Q543.5313,816.7188 544.1406,815.5781 Q544.7656,814.4219 545.8594,813.8125 Q546.9531,813.1875 548.1875,813.1875 Q548.9219,813.1875 549.5625,813.3594 Q550.2188,813.5156 550.7656,813.875 Z " fill="#000000"/><text fill="#000000" font-family="sans-serif" font-size="14" lengthAdjust="spacing" textLength="46" x="562" y="823.7285">Square</text><line style="stroke:#181818;stroke-width:0.5;" x1="534" x2="610" y1="834" y2="834"/><line style="stroke:#181818;stroke-width:0.5;" x1="534" x2="610" y1="842" y2="842"/></g><!--class ClickableSquare--><g id="elem_ClickableSquare"><rect codeLine="18" fill="#F1F1F1" height="48" id="ClickableSquare" rx="2.5" ry="2.5" style="stroke:#181818;stroke-width:0.5;" width="135" x="590.5" y="910"/><ellipse cx="605.5" cy="926" fill="#ADD1B2" rx="11" ry="11" style="stroke:#181818;stroke-width:1.0;"/><path d="M608.2656,921.875 Q608.4219,921.6563 608.6094,921.5469 Q608.7969,921.4375 609.0156,921.4375 Q609.3906,921.4375 609.625,921.7031 Q609.8594,921.9531 609.8594,922.5625 L609.8594,924.0156 Q609.8594,924.625 609.625,924.8906 Q609.3906,925.1563 609.0156,925.1563 Q608.6719,925.1563 608.4688,924.9531 Q608.2656,924.7656 608.1563,924.25 Q608.1094,923.8906 607.9219,923.7031 Q607.5938,923.3281 606.9844,923.1094 Q606.375,922.8906 605.75,922.8906 Q604.9844,922.8906 604.3438,923.2188 Q603.7188,923.5469 603.2188,924.2969 Q602.7344,925.0469 602.7344,926.0781 L602.7344,927.1719 Q602.7344,928.4063 603.625,929.2344 Q604.5156,930.0469 606.1094,930.0469 Q607.0469,930.0469 607.7031,929.7969 Q608.0938,929.6406 608.5156,929.2031 Q608.7813,928.9375 608.9219,928.8594 Q609.0781,928.7813 609.2813,928.7813 Q609.6094,928.7813 609.8594,929.0469 Q610.125,929.2969 610.125,929.6406 Q610.125,929.9844 609.7813,930.3906 Q609.2813,930.9688 608.4844,931.2969 Q607.4063,931.75 606.1094,931.75 Q604.5938,931.75 603.3906,931.125 Q602.4063,930.625 601.7188,929.5625 Q601.0313,928.4844 601.0313,927.2031 L601.0313,926.0469 Q601.0313,924.7188 601.6406,923.5781 Q602.2656,922.4219 603.3594,921.8125 Q604.4531,921.1875 605.6875,921.1875 Q606.4219,921.1875 607.0625,921.3594 Q607.7188,921.5156 608.2656,921.875 Z " fill="#000000"/><text fill="#000000" font-family="sans-serif" font-size="14" lengthAdjust="spacing" textLength="103" x="619.5" y="931.7285">ClickableSquare</text><line style="stroke:#181818;stroke-width:0.5;" x1="591.5" x2="724.5" y1="942" y2="942"/><line style="stroke:#181818;stroke-width:0.5;" x1="591.5" x2="724.5" y1="950" y2="950"/></g><!--class NonClickableSquare--><g id="elem_NonClickableSquare"><rect codeLine="19" fill="#F1F1F1" height="48" id="NonClickableSquare" rx="2.5" ry="2.5" style="stroke:#181818;stroke-width:0.5;" width="160" x="322" y="910"/><ellipse cx="337" cy="926" fill="#ADD1B2" rx="11" ry="11" style="stroke:#181818;stroke-width:1.0;"/><path d="M339.7656,921.875 Q339.9219,921.6563 340.1094,921.5469 Q340.2969,921.4375 340.5156,921.4375 Q340.8906,921.4375 341.125,921.7031 Q341.3594,921.9531 341.3594,922.5625 L341.3594,924.0156 Q341.3594,924.625 341.125,924.8906 Q340.8906,925.1563 340.5156,925.1563 Q340.1719,925.1563 339.9688,924.9531 Q339.7656,924.7656 339.6563,924.25 Q339.6094,923.8906 339.4219,923.7031 Q339.0938,923.3281 338.4844,923.1094 Q337.875,922.8906 337.25,922.8906 Q336.4844,922.8906 335.8438,923.2188 Q335.2188,923.5469 334.7188,924.2969 Q334.2344,925.0469 334.2344,926.0781 L334.2344,927.1719 Q334.2344,928.4063 335.125,929.2344 Q336.0156,930.0469 337.6094,930.0469 Q338.5469,930.0469 339.2031,929.7969 Q339.5938,929.6406 340.0156,929.2031 Q340.2813,928.9375 340.4219,928.8594 Q340.5781,928.7813 340.7813,928.7813 Q341.1094,928.7813 341.3594,929.0469 Q341.625,929.2969 341.625,929.6406 Q341.625,929.9844 341.2813,930.3906 Q340.7813,930.9688 339.9844,931.2969 Q338.9063,931.75 337.6094,931.75 Q336.0938,931.75 334.8906,931.125 Q333.9063,930.625 333.2188,929.5625 Q332.5313,928.4844 332.5313,927.2031 L332.5313,926.0469 Q332.5313,924.7188 333.1406,923.5781 Q333.7656,922.4219 334.8594,921.8125 Q335.9531,921.1875 337.1875,921.1875 Q337.9219,921.1875 338.5625,921.3594 Q339.2188,921.5156 339.7656,921.875 Z " fill="#000000"/><text fill="#000000" font-family="sans-serif" font-size="14" lengthAdjust="spacing" textLength="128" x="351" y="931.7285">NonClickableSquare</text><line style="stroke:#181818;stroke-width:0.5;" x1="323" x2="481" y1="942" y2="942"/><line style="stroke:#181818;stroke-width:0.5;" x1="323" x2="481" y1="950" y2="950"/></g><!--class StartPanelView--><g id="elem_StartPanelView"><rect codeLine="20" fill="#F1F1F1" height="48" id="StartPanelView" rx="2.5" ry="2.5" style="stroke:#181818;stroke-width:0.5;" width="127" x="1060.5" y="452"/><ellipse cx="1075.5" cy="468" fill="#ADD1B2" rx="11" ry="11" style="stroke:#181818;stroke-width:1.0;"/><path d="M1078.2656,463.875 Q1078.4219,463.6563 1078.6094,463.5469 Q1078.7969,463.4375 1079.0156,463.4375 Q1079.3906,463.4375 1079.625,463.7031 Q1079.8594,463.9531 1079.8594,464.5625 L1079.8594,466.0156 Q1079.8594,466.625 1079.625,466.8906 Q1079.3906,467.1563 1079.0156,467.1563 Q1078.6719,467.1563 1078.4688,466.9531 Q1078.2656,466.7656 1078.1563,466.25 Q1078.1094,465.8906 1077.9219,465.7031 Q1077.5938,465.3281 1076.9844,465.1094 Q1076.375,464.8906 1075.75,464.8906 Q1074.9844,464.8906 1074.3438,465.2188 Q1073.7188,465.5469 1073.2188,466.2969 Q1072.7344,467.0469 1072.7344,468.0781 L1072.7344,469.1719 Q1072.7344,470.4063 1073.625,471.2344 Q1074.5156,472.0469 1076.1094,472.0469 Q1077.0469,472.0469 1077.7031,471.7969 Q1078.0938,471.6406 1078.5156,471.2031 Q1078.7813,470.9375 1078.9219,470.8594 Q1079.0781,470.7813 1079.2813,470.7813 Q1079.6094,470.7813 1079.8594,471.0469 Q1080.125,471.2969 1080.125,471.6406 Q1080.125,471.9844 1079.7813,472.3906 Q1079.2813,472.9688 1078.4844,473.2969 Q1077.4063,473.75 1076.1094,473.75 Q1074.5938,473.75 1073.3906,473.125 Q1072.4063,472.625 1071.7188,471.5625 Q1071.0313,470.4844 1071.0313,469.2031 L1071.0313,468.0469 Q1071.0313,466.7188 1071.6406,465.5781 Q1072.2656,464.4219 1073.3594,463.8125 Q1074.4531,463.1875 1075.6875,463.1875 Q1076.4219,463.1875 1077.0625,463.3594 Q1077.7188,463.5156 1078.2656,463.875 Z " fill="#000000"/><text fill="#000000" font-family="sans-serif" font-size="14" lengthAdjust="spacing" textLength="95" x="1089.5" y="473.7285">StartPanelView</text><line style="stroke:#181818;stroke-width:0.5;" x1="1061.5" x2="1186.5" y1="484" y2="484"/><line style="stroke:#181818;stroke-width:0.5;" x1="1061.5" x2="1186.5" y1="492" y2="492"/></g><!--class TurnView--><g id="elem_TurnView"><rect codeLine="21" fill="#F1F1F1" height="48" id="TurnView" rx="2.5" ry="2.5" style="stroke:#181818;stroke-width:0.5;" width="91" x="142.5" y="687.5"/><ellipse cx="157.5" cy="703.5" fill="#ADD1B2" rx="11" ry="11" style="stroke:#181818;stroke-width:1.0;"/><path d="M160.2656,699.375 Q160.4219,699.1563 160.6094,699.0469 Q160.7969,698.9375 161.0156,698.9375 Q161.3906,698.9375 161.625,699.2031 Q161.8594,699.4531 161.8594,700.0625 L161.8594,701.5156 Q161.8594,702.125 161.625,702.3906 Q161.3906,702.6563 161.0156,702.6563 Q160.6719,702.6563 160.4688,702.4531 Q160.2656,702.2656 160.1563,701.75 Q160.1094,701.3906 159.9219,701.2031 Q159.5938,700.8281 158.9844,700.6094 Q158.375,700.3906 157.75,700.3906 Q156.9844,700.3906 156.3438,700.7188 Q155.7188,701.0469 155.2188,701.7969 Q154.7344,702.5469 154.7344,703.5781 L154.7344,704.6719 Q154.7344,705.9063 155.625,706.7344 Q156.5156,707.5469 158.1094,707.5469 Q159.0469,707.5469 159.7031,707.2969 Q160.0938,707.1406 160.5156,706.7031 Q160.7813,706.4375 160.9219,706.3594 Q161.0781,706.2813 161.2813,706.2813 Q161.6094,706.2813 161.8594,706.5469 Q162.125,706.7969 162.125,707.1406 Q162.125,707.4844 161.7813,707.8906 Q161.2813,708.4688 160.4844,708.7969 Q159.4063,709.25 158.1094,709.25 Q156.5938,709.25 155.3906,708.625 Q154.4063,708.125 153.7188,707.0625 Q153.0313,705.9844 153.0313,704.7031 L153.0313,703.5469 Q153.0313,702.2188 153.6406,701.0781 Q154.2656,699.9219 155.3594,699.3125 Q156.4531,698.6875 157.6875,698.6875 Q158.4219,698.6875 159.0625,698.8594 Q159.7188,699.0156 160.2656,699.375 Z " fill="#000000"/><text fill="#000000" font-family="sans-serif" font-size="14" lengthAdjust="spacing" textLength="59" x="171.5" y="709.2285">TurnView</text><line style="stroke:#181818;stroke-width:0.5;" x1="143.5" x2="232.5" y1="719.5" y2="719.5"/><line style="stroke:#181818;stroke-width:0.5;" x1="143.5" x2="232.5" y1="727.5" y2="727.5"/></g><!--class UserPlayerBoardView--><g id="elem_UserPlayerBoardView"><rect codeLine="22" fill="#F1F1F1" height="48" id="UserPlayerBoardView" rx="2.5" ry="2.5" style="stroke:#181818;stroke-width:0.5;" width="168" x="646" y="802"/><ellipse cx="661" cy="818" fill="#ADD1B2" rx="11" ry="11" style="stroke:#181818;stroke-width:1.0;"/><path d="M663.7656,813.875 Q663.9219,813.6563 664.1094,813.5469 Q664.2969,813.4375 664.5156,813.4375 Q664.8906,813.4375 665.125,813.7031 Q665.3594,813.9531 665.3594,814.5625 L665.3594,816.0156 Q665.3594,816.625 665.125,816.8906 Q664.8906,817.1563 664.5156,817.1563 Q664.1719,817.1563 663.9688,816.9531 Q663.7656,816.7656 663.6563,816.25 Q663.6094,815.8906 663.4219,815.7031 Q663.0938,815.3281 662.4844,815.1094 Q661.875,814.8906 661.25,814.8906 Q660.4844,814.8906 659.8438,815.2188 Q659.2188,815.5469 658.7188,816.2969 Q658.2344,817.0469 658.2344,818.0781 L658.2344,819.1719 Q658.2344,820.4063 659.125,821.2344 Q660.0156,822.0469 661.6094,822.0469 Q662.5469,822.0469 663.2031,821.7969 Q663.5938,821.6406 664.0156,821.2031 Q664.2813,820.9375 664.4219,820.8594 Q664.5781,820.7813 664.7813,820.7813 Q665.1094,820.7813 665.3594,821.0469 Q665.625,821.2969 665.625,821.6406 Q665.625,821.9844 665.2813,822.3906 Q664.7813,822.9688 663.9844,823.2969 Q662.9063,823.75 661.6094,823.75 Q660.0938,823.75 658.8906,823.125 Q657.9063,822.625 657.2188,821.5625 Q656.5313,820.4844 656.5313,819.2031 L656.5313,818.0469 Q656.5313,816.7188 657.1406,815.5781 Q657.7656,814.4219 658.8594,813.8125 Q659.9531,813.1875 661.1875,813.1875 Q661.9219,813.1875 662.5625,813.3594 Q663.2188,813.5156 663.7656,813.875 Z " fill="#000000"/><text fill="#000000" font-family="sans-serif" font-size="14" lengthAdjust="spacing" textLength="136" x="675" y="823.7285">UserPlayerBoardView</text><line style="stroke:#181818;stroke-width:0.5;" x1="647" x2="813" y1="834" y2="834"/><line style="stroke:#181818;stroke-width:0.5;" x1="647" x2="813" y1="842" y2="842"/></g><!--class PauseBoardView--><g id="elem_PauseBoardView"><rect codeLine="23" fill="#F1F1F1" height="48" id="PauseBoardView" rx="2.5" ry="2.5" style="stroke:#181818;stroke-width:0.5;" width="139" x="663.5" y="566.5"/><ellipse cx="678.5" cy="582.5" fill="#ADD1B2" rx="11" ry="11" style="stroke:#181818;stroke-width:1.0;"/><path d="M681.2656,578.375 Q681.4219,578.1563 681.6094,578.0469 Q681.7969,577.9375 682.0156,577.9375 Q682.3906,577.9375 682.625,578.2031 Q682.8594,578.4531 682.8594,579.0625 L682.8594,580.5156 Q682.8594,581.125 682.625,581.3906 Q682.3906,581.6563 682.0156,581.6563 Q681.6719,581.6563 681.4688,581.4531 Q681.2656,581.2656 681.1563,580.75 Q681.1094,580.3906 680.9219,580.2031 Q680.5938,579.8281 679.9844,579.6094 Q679.375,579.3906 678.75,579.3906 Q677.9844,579.3906 677.3438,579.7188 Q676.7188,580.0469 676.2188,580.7969 Q675.7344,581.5469 675.7344,582.5781 L675.7344,583.6719 Q675.7344,584.9063 676.625,585.7344 Q677.5156,586.5469 679.1094,586.5469 Q680.0469,586.5469 680.7031,586.2969 Q681.0938,586.1406 681.5156,585.7031 Q681.7813,585.4375 681.9219,585.3594 Q682.0781,585.2813 682.2813,585.2813 Q682.6094,585.2813 682.8594,585.5469 Q683.125,585.7969 683.125,586.1406 Q683.125,586.4844 682.7813,586.8906 Q682.2813,587.4688 681.4844,587.7969 Q680.4063,588.25 679.1094,588.25 Q677.5938,588.25 676.3906,587.625 Q675.4063,587.125 674.7188,586.0625 Q674.0313,584.9844 674.0313,583.7031 L674.0313,582.5469 Q674.0313,581.2188 674.6406,580.0781 Q675.2656,578.9219 676.3594,578.3125 Q677.4531,577.6875 678.6875,577.6875 Q679.4219,577.6875 680.0625,577.8594 Q680.7188,578.0156 681.2656,578.375 Z " fill="#000000"/><text fill="#000000" font-family="sans-serif" font-size="14" lengthAdjust="spacing" textLength="107" x="692.5" y="588.2285">PauseBoardView</text><line style="stroke:#181818;stroke-width:0.5;" x1="664.5" x2="801.5" y1="598.5" y2="598.5"/><line style="stroke:#181818;stroke-width:0.5;" x1="664.5" x2="801.5" y1="606.5" y2="606.5"/></g><!--class PanelView--><g id="elem_PanelView"><rect codeLine="24" fill="#F1F1F1" height="48" id="PanelView" rx="2.5" ry="2.5" style="stroke:#181818;stroke-width:0.5;" width="97" x="961.5" y="223"/><ellipse cx="976.5" cy="239" fill="#A9DCDF" rx="11" ry="11" style="stroke:#181818;stroke-width:1.0;"/><path d="M978.6875,240.7656 L974.5469,240.7656 L974.125,241.7969 L974.5469,241.7969 Q975.1563,241.7969 975.4219,242.0313 Q975.6875,242.2656 975.6875,242.6563 Q975.6875,243.0313 975.4219,243.2656 Q975.1563,243.5 974.5469,243.5 L972.25,243.5 Q971.6406,243.5 971.3906,243.2656 Q971.125,243.0313 971.125,242.6406 Q971.125,242.2656 971.4063,242.0313 Q971.6719,241.7813 972.2969,241.7969 L974.9688,235.1406 L973.8594,235.1406 Q973.25,235.1406 972.9844,234.9063 Q972.7188,234.6719 972.7188,234.2813 Q972.7188,233.9063 972.9844,233.6719 Q973.25,233.4375 973.8594,233.4375 L977.5313,233.4375 L980.9219,241.7969 Q981.5156,241.7969 981.7031,241.9375 Q982.0938,242.2031 982.0938,242.6563 Q982.0938,243.0313 981.8281,243.2656 Q981.5781,243.5 980.9688,243.5 L978.6719,243.5 Q978.0625,243.5 977.7969,243.2656 Q977.5313,243.0313 977.5313,242.6406 Q977.5313,242.2656 977.7969,242.0313 Q978.0625,241.7969 978.6719,241.7969 L979.0938,241.7969 L978.6875,240.7656 Z M977.9688,239.0625 L976.6094,235.6875 L975.2344,239.0625 L977.9688,239.0625 Z " fill="#000000"/><text fill="#000000" font-family="sans-serif" font-size="14" font-style="italic" lengthAdjust="spacing" textLength="65" x="990.5" y="244.7285">PanelView</text><line style="stroke:#181818;stroke-width:0.5;" x1="962.5" x2="1057.5" y1="255" y2="255"/><line style="stroke:#181818;stroke-width:0.5;" x1="962.5" x2="1057.5" y1="263" y2="263"/></g><!--class PlayerBoardView--><g id="elem_PlayerBoardView"><rect codeLine="25" fill="#F1F1F1" height="48" id="PlayerBoardView" rx="2.5" ry="2.5" style="stroke:#181818;stroke-width:0.5;" width="139" x="660.5" y="687.5"/><ellipse cx="675.5" cy="703.5" fill="#A9DCDF" rx="11" ry="11" style="stroke:#181818;stroke-width:1.0;"/><path d="M677.6875,705.2656 L673.5469,705.2656 L673.125,706.2969 L673.5469,706.2969 Q674.1563,706.2969 674.4219,706.5313 Q674.6875,706.7656 674.6875,707.1563 Q674.6875,707.5313 674.4219,707.7656 Q674.1563,708 673.5469,708 L671.25,708 Q670.6406,708 670.3906,707.7656 Q670.125,707.5313 670.125,707.1406 Q670.125,706.7656 670.4063,706.5313 Q670.6719,706.2813 671.2969,706.2969 L673.9688,699.6406 L672.8594,699.6406 Q672.25,699.6406 671.9844,699.4063 Q671.7188,699.1719 671.7188,698.7813 Q671.7188,698.4063 671.9844,698.1719 Q672.25,697.9375 672.8594,697.9375 L676.5313,697.9375 L679.9219,706.2969 Q680.5156,706.2969 680.7031,706.4375 Q681.0938,706.7031 681.0938,707.1563 Q681.0938,707.5313 680.8281,707.7656 Q680.5781,708 679.9688,708 L677.6719,708 Q677.0625,708 676.7969,707.7656 Q676.5313,707.5313 676.5313,707.1406 Q676.5313,706.7656 676.7969,706.5313 Q677.0625,706.2969 677.6719,706.2969 L678.0938,706.2969 L677.6875,705.2656 Z M676.9688,703.5625 L675.6094,700.1875 L674.2344,703.5625 L676.9688,703.5625 Z " fill="#000000"/><text fill="#000000" font-family="sans-serif" font-size="14" font-style="italic" lengthAdjust="spacing" textLength="107" x="689.5" y="709.2285">PlayerBoardView</text><line style="stroke:#181818;stroke-width:0.5;" x1="661.5" x2="798.5" y1="719.5" y2="719.5"/><line style="stroke:#181818;stroke-width:0.5;" x1="661.5" x2="798.5" y1="727.5" y2="727.5"/></g><!--class JFrame--><g id="elem_JFrame"><rect codeLine="27" fill="#F1F1F1" height="48" id="JFrame" rx="2.5" ry="2.5" style="stroke:#181818;stroke-width:0.5;" width="79" x="1256.5" y="7"/><ellipse cx="1271.5" cy="23" fill="#ADD1B2" rx="11" ry="11" style="stroke:#181818;stroke-width:1.0;"/><path d="M1274.2656,18.875 Q1274.4219,18.6563 1274.6094,18.5469 Q1274.7969,18.4375 1275.0156,18.4375 Q1275.3906,18.4375 1275.625,18.7031 Q1275.8594,18.9531 1275.8594,19.5625 L1275.8594,21.0156 Q1275.8594,21.625 1275.625,21.8906 Q1275.3906,22.1563 1275.0156,22.1563 Q1274.6719,22.1563 1274.4688,21.9531 Q1274.2656,21.7656 1274.1563,21.25 Q1274.1094,20.8906 1273.9219,20.7031 Q1273.5938,20.3281 1272.9844,20.1094 Q1272.375,19.8906 1271.75,19.8906 Q1270.9844,19.8906 1270.3438,20.2188 Q1269.7188,20.5469 1269.2188,21.2969 Q1268.7344,22.0469 1268.7344,23.0781 L1268.7344,24.1719 Q1268.7344,25.4063 1269.625,26.2344 Q1270.5156,27.0469 1272.1094,27.0469 Q1273.0469,27.0469 1273.7031,26.7969 Q1274.0938,26.6406 1274.5156,26.2031 Q1274.7813,25.9375 1274.9219,25.8594 Q1275.0781,25.7813 1275.2813,25.7813 Q1275.6094,25.7813 1275.8594,26.0469 Q1276.125,26.2969 1276.125,26.6406 Q1276.125,26.9844 1275.7813,27.3906 Q1275.2813,27.9688 1274.4844,28.2969 Q1273.4063,28.75 1272.1094,28.75 Q1270.5938,28.75 1269.3906,28.125 Q1268.4063,27.625 1267.7188,26.5625 Q1267.0313,25.4844 1267.0313,24.2031 L1267.0313,23.0469 Q1267.0313,21.7188 1267.6406,20.5781 Q1268.2656,19.4219 1269.3594,18.8125 Q1270.4531,18.1875 1271.6875,18.1875 Q1272.4219,18.1875 1273.0625,18.3594 Q1273.7188,18.5156 1274.2656,18.875 Z " fill="#000000"/><text fill="#000000" font-family="sans-serif" font-size="14" lengthAdjust="spacing" textLength="47" x="1285.5" y="28.7285">JFrame</text><line style="stroke:#181818;stroke-width:0.5;" x1="1257.5" x2="1334.5" y1="39" y2="39"/><line style="stroke:#181818;stroke-width:0.5;" x1="1257.5" x2="1334.5" y1="47" y2="47"/></g><!--class ResumeController--><g id="elem_ResumeController"><rect codeLine="31" fill="#F1F1F1" height="61.2188" id="ResumeController" rx="2.5" ry="2.5" style="stroke:#181818;stroke-width:0.5;" width="146" x="1533" y="331"/><ellipse cx="1548" cy="353.6094" fill="#ADD1B2" rx="11" ry="11" style="stroke:#181818;stroke-width:1.0;"/><path d="M1550.7656,349.4844 Q1550.9219,349.2656 1551.1094,349.1563 Q1551.2969,349.0469 1551.5156,349.0469 Q1551.8906,349.0469 1552.125,349.3125 Q1552.3594,349.5625 1552.3594,350.1719 L1552.3594,351.625 Q1552.3594,352.2344 1552.125,352.5 Q1551.8906,352.7656 1551.5156,352.7656 Q1551.1719,352.7656 1550.9688,352.5625 Q1550.7656,352.375 1550.6563,351.8594 Q1550.6094,351.5 1550.4219,351.3125 Q1550.0938,350.9375 1549.4844,350.7188 Q1548.875,350.5 1548.25,350.5 Q1547.4844,350.5 1546.8438,350.8281 Q1546.2188,351.1563 1545.7188,351.9063 Q1545.2344,352.6563 1545.2344,353.6875 L1545.2344,354.7813 Q1545.2344,356.0156 1546.125,356.8438 Q1547.0156,357.6563 1548.6094,357.6563 Q1549.5469,357.6563 1550.2031,357.4063 Q1550.5938,357.25 1551.0156,356.8125 Q1551.2813,356.5469 1551.4219,356.4688 Q1551.5781,356.3906 1551.7813,356.3906 Q1552.1094,356.3906 1552.3594,356.6563 Q1552.625,356.9063 1552.625,357.25 Q1552.625,357.5938 1552.2813,358 Q1551.7813,358.5781 1550.9844,358.9063 Q1549.9063,359.3594 1548.6094,359.3594 Q1547.0938,359.3594 1545.8906,358.7344 Q1544.9063,358.2344 1544.2188,357.1719 Q1543.5313,356.0938 1543.5313,354.8125 L1543.5313,353.6563 Q1543.5313,352.3281 1544.1406,351.1875 Q1544.7656,350.0313 1545.8594,349.4219 Q1546.9531,348.7969 1548.1875,348.7969 Q1548.9219,348.7969 1549.5625,348.9688 Q1550.2188,349.125 1550.7656,349.4844 Z " fill="#000000"/><text fill="#000000" font-family="sans-serif" font-size="14" lengthAdjust="spacing" textLength="70" x="1584" y="350.5332">controllers.</text><text fill="#000000" font-family="sans-serif" font-size="14" lengthAdjust="spacing" textLength="114" x="1562" y="368.1426">ResumeController</text><line style="stroke:#181818;stroke-width:0.5;" x1="1534" x2="1678" y1="376.2188" y2="376.2188"/><line style="stroke:#181818;stroke-width:0.5;" x1="1534" x2="1678" y1="384.2188" y2="384.2188"/></g><!--class StartController--><g id="elem_StartController"><rect codeLine="35" fill="#F1F1F1" height="61.2188" id="StartController" rx="2.5" ry="2.5" style="stroke:#181818;stroke-width:0.5;" width="124" x="1384" y="560"/><ellipse cx="1399" cy="582.6094" fill="#ADD1B2" rx="11" ry="11" style="stroke:#181818;stroke-width:1.0;"/><path d="M1401.7656,578.4844 Q1401.9219,578.2656 1402.1094,578.1563 Q1402.2969,578.0469 1402.5156,578.0469 Q1402.8906,578.0469 1403.125,578.3125 Q1403.3594,578.5625 1403.3594,579.1719 L1403.3594,580.625 Q1403.3594,581.2344 1403.125,581.5 Q1402.8906,581.7656 1402.5156,581.7656 Q1402.1719,581.7656 1401.9688,581.5625 Q1401.7656,581.375 1401.6563,580.8594 Q1401.6094,580.5 1401.4219,580.3125 Q1401.0938,579.9375 1400.4844,579.7188 Q1399.875,579.5 1399.25,579.5 Q1398.4844,579.5 1397.8438,579.8281 Q1397.2188,580.1563 1396.7188,580.9063 Q1396.2344,581.6563 1396.2344,582.6875 L1396.2344,583.7813 Q1396.2344,585.0156 1397.125,585.8438 Q1398.0156,586.6563 1399.6094,586.6563 Q1400.5469,586.6563 1401.2031,586.4063 Q1401.5938,586.25 1402.0156,585.8125 Q1402.2813,585.5469 1402.4219,585.4688 Q1402.5781,585.3906 1402.7813,585.3906 Q1403.1094,585.3906 1403.3594,585.6563 Q1403.625,585.9063 1403.625,586.25 Q1403.625,586.5938 1403.2813,587 Q1402.7813,587.5781 1401.9844,587.9063 Q1400.9063,588.3594 1399.6094,588.3594 Q1398.0938,588.3594 1396.8906,587.7344 Q1395.9063,587.2344 1395.2188,586.1719 Q1394.5313,585.0938 1394.5313,583.8125 L1394.5313,582.6563 Q1394.5313,581.3281 1395.1406,580.1875 Q1395.7656,579.0313 1396.8594,578.4219 Q1397.9531,577.7969 1399.1875,577.7969 Q1399.9219,577.7969 1400.5625,577.9688 Q1401.2188,578.125 1401.7656,578.4844 Z " fill="#000000"/><text fill="#000000" font-family="sans-serif" font-size="14" lengthAdjust="spacing" textLength="70" x="1424" y="579.5332">controllers.</text><text fill="#000000" font-family="sans-serif" font-size="14" lengthAdjust="spacing" textLength="92" x="1413" y="597.1426">StartController</text><line style="stroke:#181818;stroke-width:0.5;" x1="1385" x2="1507" y1="605.2188" y2="605.2188"/><line style="stroke:#181818;stroke-width:0.5;" x1="1385" x2="1507" y1="613.2188" y2="613.2188"/></g><!--class PlayController--><g id="elem_PlayController"><rect codeLine="39" fill="#F1F1F1" height="61.2188" id="PlayController" rx="2.5" ry="2.5" style="stroke:#181818;stroke-width:0.5;" width="121" x="1384.5" y="681"/><ellipse cx="1399.5" cy="703.6094" fill="#ADD1B2" rx="11" ry="11" style="stroke:#181818;stroke-width:1.0;"/><path d="M1402.2656,699.4844 Q1402.4219,699.2656 1402.6094,699.1563 Q1402.7969,699.0469 1403.0156,699.0469 Q1403.3906,699.0469 1403.625,699.3125 Q1403.8594,699.5625 1403.8594,700.1719 L1403.8594,701.625 Q1403.8594,702.2344 1403.625,702.5 Q1403.3906,702.7656 1403.0156,702.7656 Q1402.6719,702.7656 1402.4688,702.5625 Q1402.2656,702.375 1402.1563,701.8594 Q1402.1094,701.5 1401.9219,701.3125 Q1401.5938,700.9375 1400.9844,700.7188 Q1400.375,700.5 1399.75,700.5 Q1398.9844,700.5 1398.3438,700.8281 Q1397.7188,701.1563 1397.2188,701.9063 Q1396.7344,702.6563 1396.7344,703.6875 L1396.7344,704.7813 Q1396.7344,706.0156 1397.625,706.8438 Q1398.5156,707.6563 1400.1094,707.6563 Q1401.0469,707.6563 1401.7031,707.4063 Q1402.0938,707.25 1402.5156,706.8125 Q1402.7813,706.5469 1402.9219,706.4688 Q1403.0781,706.3906 1403.2813,706.3906 Q1403.6094,706.3906 1403.8594,706.6563 Q1404.125,706.9063 1404.125,707.25 Q1404.125,707.5938 1403.7813,708 Q1403.2813,708.5781 1402.4844,708.9063 Q1401.4063,709.3594 1400.1094,709.3594 Q1398.5938,709.3594 1397.3906,708.7344 Q1396.4063,708.2344 1395.7188,707.1719 Q1395.0313,706.0938 1395.0313,704.8125 L1395.0313,703.6563 Q1395.0313,702.3281 1395.6406,701.1875 Q1396.2656,700.0313 1397.3594,699.4219 Q1398.4531,698.7969 1399.6875,698.7969 Q1400.4219,698.7969 1401.0625,698.9688 Q1401.7188,699.125 1402.2656,699.4844 Z " fill="#000000"/><text fill="#000000" font-family="sans-serif" font-size="14" lengthAdjust="spacing" textLength="70" x="1423" y="700.5332">controllers.</text><text fill="#000000" font-family="sans-serif" font-size="14" lengthAdjust="spacing" textLength="89" x="1413.5" y="718.1426">PlayController</text><line style="stroke:#181818;stroke-width:0.5;" x1="1385.5" x2="1504.5" y1="726.2188" y2="726.2188"/><line style="stroke:#181818;stroke-width:0.5;" x1="1385.5" x2="1504.5" y1="734.2188" y2="734.2188"/></g><!--class View--><g id="elem_View"><rect codeLine="45" fill="#F1F1F1" height="48" id="View" rx="2.5" ry="2.5" style="stroke:#181818;stroke-width:0.5;" width="61" x="1097.5" y="7"/><ellipse cx="1112.5" cy="23" fill="#A9DCDF" rx="11" ry="11" style="stroke:#181818;stroke-width:1.0;"/><path d="M1114.6875,24.7656 L1110.5469,24.7656 L1110.125,25.7969 L1110.5469,25.7969 Q1111.1563,25.7969 1111.4219,26.0313 Q1111.6875,26.2656 1111.6875,26.6563 Q1111.6875,27.0313 1111.4219,27.2656 Q1111.1563,27.5 1110.5469,27.5 L1108.25,27.5 Q1107.6406,27.5 1107.3906,27.2656 Q1107.125,27.0313 1107.125,26.6406 Q1107.125,26.2656 1107.4063,26.0313 Q1107.6719,25.7813 1108.2969,25.7969 L1110.9688,19.1406 L1109.8594,19.1406 Q1109.25,19.1406 1108.9844,18.9063 Q1108.7188,18.6719 1108.7188,18.2813 Q1108.7188,17.9063 1108.9844,17.6719 Q1109.25,17.4375 1109.8594,17.4375 L1113.5313,17.4375 L1116.9219,25.7969 Q1117.5156,25.7969 1117.7031,25.9375 Q1118.0938,26.2031 1118.0938,26.6563 Q1118.0938,27.0313 1117.8281,27.2656 Q1117.5781,27.5 1116.9688,27.5 L1114.6719,27.5 Q1114.0625,27.5 1113.7969,27.2656 Q1113.5313,27.0313 1113.5313,26.6406 Q1113.5313,26.2656 1113.7969,26.0313 Q1114.0625,25.7969 1114.6719,25.7969 L1115.0938,25.7969 L1114.6875,24.7656 Z M1113.9688,23.0625 L1112.6094,19.6875 L1111.2344,23.0625 L1113.9688,23.0625 Z " fill="#000000"/><text fill="#000000" font-family="sans-serif" font-size="14" font-style="italic" lengthAdjust="spacing" textLength="29" x="1126.5" y="28.7285">View</text><line style="stroke:#181818;stroke-width:0.5;" x1="1098.5" x2="1157.5" y1="39" y2="39"/><line style="stroke:#181818;stroke-width:0.5;" x1="1098.5" x2="1157.5" y1="47" y2="47"/></g><!--class JOptionPane--><g id="elem_JOptionPane"><rect codeLine="48" fill="#F1F1F1" height="48" id="JOptionPane" rx="2.5" ry="2.5" style="stroke:#181818;stroke-width:0.5;" width="113" x="1384.5" y="337.5"/><ellipse cx="1399.5" cy="353.5" fill="#ADD1B2" rx="11" ry="11" style="stroke:#181818;stroke-width:1.0;"/><path d="M1402.2656,349.375 Q1402.4219,349.1563 1402.6094,349.0469 Q1402.7969,348.9375 1403.0156,348.9375 Q1403.3906,348.9375 1403.625,349.2031 Q1403.8594,349.4531 1403.8594,350.0625 L1403.8594,351.5156 Q1403.8594,352.125 1403.625,352.3906 Q1403.3906,352.6563 1403.0156,352.6563 Q1402.6719,352.6563 1402.4688,352.4531 Q1402.2656,352.2656 1402.1563,351.75 Q1402.1094,351.3906 1401.9219,351.2031 Q1401.5938,350.8281 1400.9844,350.6094 Q1400.375,350.3906 1399.75,350.3906 Q1398.9844,350.3906 1398.3438,350.7188 Q1397.7188,351.0469 1397.2188,351.7969 Q1396.7344,352.5469 1396.7344,353.5781 L1396.7344,354.6719 Q1396.7344,355.9063 1397.625,356.7344 Q1398.5156,357.5469 1400.1094,357.5469 Q1401.0469,357.5469 1401.7031,357.2969 Q1402.0938,357.1406 1402.5156,356.7031 Q1402.7813,356.4375 1402.9219,356.3594 Q1403.0781,356.2813 1403.2813,356.2813 Q1403.6094,356.2813 1403.8594,356.5469 Q1404.125,356.7969 1404.125,357.1406 Q1404.125,357.4844 1403.7813,357.8906 Q1403.2813,358.4688 1402.4844,358.7969 Q1401.4063,359.25 1400.1094,359.25 Q1398.5938,359.25 1397.3906,358.625 Q1396.4063,358.125 1395.7188,357.0625 Q1395.0313,355.9844 1395.0313,354.7031 L1395.0313,353.5469 Q1395.0313,352.2188 1395.6406,351.0781 Q1396.2656,349.9219 1397.3594,349.3125 Q1398.4531,348.6875 1399.6875,348.6875 Q1400.4219,348.6875 1401.0625,348.8594 Q1401.7188,349.0156 1402.2656,349.375 Z " fill="#000000"/><text fill="#000000" font-family="sans-serif" font-size="14" lengthAdjust="spacing" textLength="81" x="1413.5" y="359.2285">JOptionPane</text><line style="stroke:#181818;stroke-width:0.5;" x1="1385.5" x2="1496.5" y1="369.5" y2="369.5"/><line style="stroke:#181818;stroke-width:0.5;" x1="1385.5" x2="1496.5" y1="377.5" y2="377.5"/></g><!--class JPanel--><g id="elem_JPanel"><rect fill="#F1F1F1" height="48" id="JPanel" rx="2.5" ry="2.5" style="stroke:#181818;stroke-width:0.5;" width="74" x="1384" y="115"/><ellipse cx="1399" cy="131" fill="#ADD1B2" rx="11" ry="11" style="stroke:#181818;stroke-width:1.0;"/><path d="M1401.7656,126.875 Q1401.9219,126.6563 1402.1094,126.5469 Q1402.2969,126.4375 1402.5156,126.4375 Q1402.8906,126.4375 1403.125,126.7031 Q1403.3594,126.9531 1403.3594,127.5625 L1403.3594,129.0156 Q1403.3594,129.625 1403.125,129.8906 Q1402.8906,130.1563 1402.5156,130.1563 Q1402.1719,130.1563 1401.9688,129.9531 Q1401.7656,129.7656 1401.6563,129.25 Q1401.6094,128.8906 1401.4219,128.7031 Q1401.0938,128.3281 1400.4844,128.1094 Q1399.875,127.8906 1399.25,127.8906 Q1398.4844,127.8906 1397.8438,128.2188 Q1397.2188,128.5469 1396.7188,129.2969 Q1396.2344,130.0469 1396.2344,131.0781 L1396.2344,132.1719 Q1396.2344,133.4063 1397.125,134.2344 Q1398.0156,135.0469 1399.6094,135.0469 Q1400.5469,135.0469 1401.2031,134.7969 Q1401.5938,134.6406 1402.0156,134.2031 Q1402.2813,133.9375 1402.4219,133.8594 Q1402.5781,133.7813 1402.7813,133.7813 Q1403.1094,133.7813 1403.3594,134.0469 Q1403.625,134.2969 1403.625,134.6406 Q1403.625,134.9844 1403.2813,135.3906 Q1402.7813,135.9688 1401.9844,136.2969 Q1400.9063,136.75 1399.6094,136.75 Q1398.0938,136.75 1396.8906,136.125 Q1395.9063,135.625 1395.2188,134.5625 Q1394.5313,133.4844 1394.5313,132.2031 L1394.5313,131.0469 Q1394.5313,129.7188 1395.1406,128.5781 Q1395.7656,127.4219 1396.8594,126.8125 Q1397.9531,126.1875 1399.1875,126.1875 Q1399.9219,126.1875 1400.5625,126.3594 Q1401.2188,126.5156 1401.7656,126.875 Z " fill="#000000"/><text fill="#000000" font-family="sans-serif" font-size="14" lengthAdjust="spacing" textLength="42" x="1413" y="136.7285">JPanel</text><line style="stroke:#181818;stroke-width:0.5;" x1="1385" x2="1457" y1="147" y2="147"/><line style="stroke:#181818;stroke-width:0.5;" x1="1385" x2="1457" y1="155" y2="155"/></g><!--reverse link JFrame to FrameView--><g id="link_JFrame_FrameView"><path codeLine="28" d="M1296,73 C1296,90.66 1296,96.94 1296,114.68 " fill="none" id="JFrame-backto-FrameView" style="stroke:#181818;stroke-width:1.0;"/><polygon fill="none" points="1296,55,1290,73,1302,73,1296,55" style="stroke:#181818;stroke-width:1.0;"/></g><!--reverse link FrameView to MainFrame--><g id="link_FrameView_MainFrame"><path codeLine="29" d="M1296,181 C1296,198.66 1296,204.94 1296,222.68 " fill="none" id="FrameView-backto-MainFrame" style="stroke:#181818;stroke-width:1.0;"/><polygon fill="none" points="1296,163,1290,181,1302,181,1296,163" style="stroke:#181818;stroke-width:1.0;"/></g><!--reverse link GraphicsView to MainFrame--><g id="link_GraphicsView_MainFrame"><path codeLine="30" d="M1174.5993,169.4025 C1202.6893,187.1225 1231.19,205.11 1259.33,222.86 " fill="none" id="GraphicsView-backto-MainFrame" style="stroke:#181818;stroke-width:1.0;"/><polygon fill="#181818" points="1164.45,163,1167.3905,169.5843,1174.5993,169.4025,1171.6588,162.8181,1164.45,163" style="stroke:#181818;stroke-width:1.0;"/></g><!--link MainFrame to ResumeController--><g id="link_MainFrame_ResumeController"><path codeLine="33" d="M1347.54,266.7 C1398.16,285.07 1470.2201,311.2228 1527.2201,331.9128 " fill="none" id="MainFrame-to-ResumeController" style="stroke:#181818;stroke-width:1.0;"/><polygon fill="#181818" points="1532.86,333.96,1525.7649,327.1292,1528.16,332.254,1523.0353,334.6492,1532.86,333.96" style="stroke:#181818;stroke-width:1.0;"/></g><!--link StartPanelView to StartController--><g id="link_StartPanelView_StartController"><path codeLine="37" d="M1187.65,498 C1237.01,514.44 1307.04,538.11 1368,560 C1373.18,561.86 1372.9105,561.7443 1378.2805,563.7243 " fill="none" id="StartPanelView-to-StartController" style="stroke:#181818;stroke-width:1.0;"/><polygon fill="#181818" points="1383.91,565.8,1376.8495,558.9335,1379.2187,564.0703,1374.0819,566.4395,1383.91,565.8" style="stroke:#181818;stroke-width:1.0;"/></g><!--link PlayPanelView to PlayController--><g id="link_PlayPanelView_PlayController"><path codeLine="41" d="M622.68,614.53 C630.42,617.04 638.34,619.3 646,621 C960.37,690.67 1054.08,609.35 1368,681 C1373.3,682.21 1373.0018,681.9246 1378.3918,683.6046 " fill="none" id="PlayPanelView-to-PlayController" style="stroke:#181818;stroke-width:1.0;"/><polygon fill="#181818" points="1384.12,685.39,1376.718,678.8931,1379.3465,683.9022,1374.3374,686.5307,1384.12,685.39" style="stroke:#181818;stroke-width:1.0;"/></g><!--link ResumePanelView to PlayController--><g id="link_ResumePanelView_PlayController"><path codeLine="43" d="M794.78,495.83 C800.6,497.25 806.4,498.66 812,500 C928.17,527.82 960.06,524.1 1074,560 C1186.04,595.3 1306.3631,647.1076 1378.9331,679.9276 " fill="none" id="ResumePanelView-to-PlayController" style="stroke:#181818;stroke-width:1.0;"/><polygon fill="#181818" points="1384.4,682.4,1377.8479,675.0468,1379.8442,680.3396,1374.5514,682.336,1384.4,682.4" style="stroke:#181818;stroke-width:1.0;"/></g><!--reverse link View to GraphicsView--><g id="link_View_GraphicsView"><path codeLine="46" d="M1128,73 C1128,90.66 1128,96.94 1128,114.68 " fill="none" id="View-backto-GraphicsView" style="stroke:#181818;stroke-width:1.0;"/><polygon fill="none" points="1128,55,1122,73,1134,73,1128,55" style="stroke:#181818;stroke-width:1.0;"/></g><!--link MainFrame to JOptionPane--><g id="link_MainFrame_JOptionPane"><path codeLine="49" d="M1325.69,271.04 C1350.71,290.45 1381.5991,314.4125 1406.6091,333.8125 " fill="none" id="MainFrame-to-JOptionPane" style="stroke:#181818;stroke-width:1.0;stroke-dasharray:7.0,7.0;"/><polygon fill="#181818" points="1411.35,337.49,1406.6903,328.8132,1407.3992,334.4254,1401.787,335.1344,1411.35,337.49" style="stroke:#181818;stroke-width:1.0;"/></g><!--reverse link JPanel to PanelView--><g id="link_JPanel_PanelView"><path codeLine="51" d="M1367.2848,163.8084 C1258.9848,199.5384 1128.1,225.03 1058.54,237.65 " fill="none" id="JPanel-backto-PanelView" style="stroke:#181818;stroke-width:1.0;"/><polygon fill="none" points="1383.98,157.08,1365.042,158.2433,1369.5276,169.3734,1383.98,157.08" style="stroke:#181818;stroke-width:1.0;"/></g><!--reverse link PanelView to GameLoopView--><g id="link_PanelView_GameLoopView"><path codeLine="52" d="M1046.1555,283.6797 C1065.8355,303.0897 1081.02,318.09 1100.69,337.49 " fill="none" id="PanelView-backto-GameLoopView" style="stroke:#181818;stroke-width:1.0;"/><polygon fill="none" points="1033.34,271.04,1041.9423,287.9516,1050.3688,279.4079,1033.34,271.04" style="stroke:#181818;stroke-width:1.0;"/></g><!--reverse link GameLoopView to StartPanelView--><g id="link_GameLoopView_StartPanelView"><path codeLine="53" d="M1124,403.54 C1124,422.95 1124,432.59 1124,451.99 " fill="none" id="GameLoopView-backto-StartPanelView" style="stroke:#181818;stroke-width:1.0;"/><polygon fill="none" points="1124,385.54,1118,403.54,1130,403.54,1124,385.54" style="stroke:#181818;stroke-width:1.0;"/></g><!--reverse link ResumePanelView to PlayPanelView--><g id="link_ResumePanelView_PlayPanelView"><path codeLine="54" d="M673.9253,510.658 C647.3553,530.068 624.06,547.09 597.49,566.49 " fill="none" id="ResumePanelView-backto-PlayPanelView" style="stroke:#181818;stroke-width:1.0;"/><polygon fill="none" points="688.46,500.04,670.3859,505.8131,677.4646,515.5029,688.46,500.04" style="stroke:#181818;stroke-width:1.0;"/></g><!--reverse link GameLoopView to ResumePanelView--><g id="link_GameLoopView_ResumePanelView"><path codeLine="55" d="M1040.8497,385.6585 C968.6297,405.7685 870.28,433.15 794.71,454.2 " fill="none" id="GameLoopView-backto-ResumePanelView" style="stroke:#181818;stroke-width:1.0;"/><polygon fill="none" points="1058.19,380.83,1039.2402,379.8784,1042.4592,391.4386,1058.19,380.83" style="stroke:#181818;stroke-width:1.0;"/></g><!--reverse link PanelView to BoardView--><g id="link_PanelView_BoardView"><path codeLine="56" d="M987.7213,286.6092 C962.6113,330.1092 917.45,408.37 892.32,451.92 " fill="none" id="PanelView-backto-BoardView" style="stroke:#181818;stroke-width:1.0;"/><polygon fill="none" points="996.72,271.02,982.5249,283.6096,992.9177,289.6088,996.72,271.02" style="stroke:#181818;stroke-width:1.0;"/></g><!--reverse link PanelView to TurnView--><g id="link_PanelView_TurnView"><path codeLine="57" d="M944.4564,271.7205 C832.0164,313.2805 564.61,418.93 354,560 C296.79,598.32 239.34,655.6 209.32,687.3 " fill="none" id="PanelView-backto-TurnView" style="stroke:#181818;stroke-width:1.0;"/><polygon fill="none" points="961.34,265.48,942.3762,266.0926,946.5366,277.3484,961.34,265.48" style="stroke:#181818;stroke-width:1.0;"/></g><!--link GraphicsView to GameLoopView--><g id="link_GraphicsView_GameLoopView"><path codeLine="59" d="M1127.58,163.18 C1126.81,205.53 1125.299,288.941 1124.529,331.301 " fill="none" id="GraphicsView-to-GameLoopView" style="stroke:#181818;stroke-width:1.0;stroke-dasharray:7.0,7.0;"/><polygon fill="#181818" points="1124.42,337.3,1128.5829,328.3742,1124.5109,332.3008,1120.5842,328.2288,1124.42,337.3" style="stroke:#181818;stroke-width:1.0;"/></g><!--link MainFrame to GameLoopView--><g id="link_MainFrame_GameLoopView"><path codeLine="60" d="M1260.78,271.04 C1231.1,290.45 1193.8618,314.8065 1164.1918,334.2065 " fill="none" id="MainFrame-to-GameLoopView" style="stroke:#181818;stroke-width:1.0;"/><polygon fill="#181818" points="1159.17,337.49,1168.8917,335.9125,1163.3548,334.7537,1164.5137,329.2168,1159.17,337.49" style="stroke:#181818;stroke-width:1.0;"/></g><!--reverse link PlayPanelView to PlayerBoardView--><g id="link_PlayPanelView_PlayerBoardView"><path codeLine="62" d="M607.7241,621.7753 C636.6241,642.7353 669.2,666.38 698.07,687.33 " fill="none" id="PlayPanelView-backto-PlayerBoardView" style="stroke:#181818;stroke-width:1.0;"/><polygon fill="#181818" points="598.01,614.73,600.5186,621.4907,607.7241,621.7753,605.2155,615.0146,598.01,614.73" style="stroke:#181818;stroke-width:1.0;"/></g><!--reverse link PlayPanelView to TurnView--><g id="link_PlayPanelView_TurnView"><path codeLine="63" d="M492.0813,609.1122 C428.0613,624.9522 337.58,649.3 252,681 C246.03,683.21 239.85,685.74 233.79,688.37 " fill="none" id="PlayPanelView-backto-TurnView" style="stroke:#181818;stroke-width:1.0;"/><polygon fill="#181818" points="503.73,606.23,496.9449,603.7882,492.0813,609.1122,498.8664,611.554,503.73,606.23" style="stroke:#181818;stroke-width:1.0;"/></g><!--reverse link PlayPanelView to BoardViewPrototypeRegistry--><g id="link_PlayPanelView_BoardViewPrototypeRegistry"><path codeLine="64" d="M559.5972,626.2767 C552.6272,659.6567 537.31,709.33 497,742 C476.47,758.64 335.81,787.18 234.25,806.07 " fill="none" id="PlayPanelView-backto-BoardViewPrototypeRegistry" style="stroke:#181818;stroke-width:1.0;"/><polygon fill="#181818" points="562.05,614.53,556.9081,619.5857,559.5972,626.2767,564.7392,621.2209,562.05,614.53" style="stroke:#181818;stroke-width:1.0;"/></g><!--link PlayPanelView to BoardViewPrototypeDirector--><g id="link_PlayPanelView_BoardViewPrototypeDirector"><path codeLine="65" d="M528.52,614.73 C494.69,635.69 450.2798,663.219 416.4798,684.169 " fill="none" id="PlayPanelView-to-BoardViewPrototypeDirector" style="stroke:#181818;stroke-width:1.0;stroke-dasharray:7.0,7.0;"/><polygon fill="#181818" points="411.38,687.33,421.1371,685.9884,415.6299,684.6958,416.9224,679.1886,411.38,687.33" style="stroke:#181818;stroke-width:1.0;"/></g><!--link BoardViewPrototypeDirector to BoardViewPrototypeRegistry--><g id="link_BoardViewPrototypeDirector_BoardViewPrototypeRegistry"><path codeLine="66" d="M323.62,735.54 C281.17,754.95 226.1967,780.0951 183.7667,799.4951 " fill="none" id="BoardViewPrototypeDirector-to-BoardViewPrototypeRegistry" style="stroke:#181818;stroke-width:1.0;"/><polygon fill="#181818" points="178.31,801.99,188.1583,801.8854,182.8572,799.9109,184.8317,794.6098,178.31,801.99" style="stroke:#181818;stroke-width:1.0;"/></g><!--reverse link ResumePanelView to PauseBoardView--><g id="link_ResumePanelView_PauseBoardView"><path codeLine="68" d="M724.0418,511.9602 C726.2918,531.3702 728.1,547.09 730.34,566.49 " fill="none" id="ResumePanelView-backto-PauseBoardView" style="stroke:#181818;stroke-width:1.0;"/><polygon fill="#181818" points="722.66,500.04,719.3775,506.4607,724.0418,511.9602,727.3243,505.5395,722.66,500.04" style="stroke:#181818;stroke-width:1.0;"/></g><!--reverse link ResumePanelView to TurnView--><g id="link_ResumePanelView_TurnView"><path codeLine="69" d="M636.608,503.8813 C590.108,519.4113 540,537.32 487,560 C392.96,600.23 286.9,656.28 229.8,687.38 " fill="none" id="ResumePanelView-backto-TurnView" style="stroke:#181818;stroke-width:1.0;"/><polygon fill="#181818" points="647.99,500.08,641.0319,498.1867,636.608,503.8813,643.5661,505.7747,647.99,500.08" style="stroke:#181818;stroke-width:1.0;"/></g><!--link StartPanelView to ViewCommand--><g id="link_StartPanelView_ViewCommand"><path codeLine="71" d="M1122.31,500.24 C1119.05,545 1112.3753,636.6858 1109.1253,681.3658 " fill="none" id="StartPanelView-to-ViewCommand" style="stroke:#181818;stroke-width:1.0;"/><polygon fill="#181818" points="1108.69,687.35,1113.3324,678.6639,1109.0527,682.3632,1105.3535,678.0835,1108.69,687.35" style="stroke:#181818;stroke-width:1.0;"/></g><!--link PlayPanelView to ViewCommand--><g id="link_PlayPanelView_ViewCommand"><path codeLine="72" d="M625.5,614.64 C632.36,616.95 639.3,619.13 646,621 C786.16,660.17 949.0563,687.3404 1038.4363,700.7404 " fill="none" id="PlayPanelView-to-ViewCommand" style="stroke:#181818;stroke-width:1.0;"/><polygon fill="#181818" points="1044.37,701.63,1036.0625,696.3398,1039.4253,700.8887,1034.8764,704.2514,1044.37,701.63" style="stroke:#181818;stroke-width:1.0;"/></g><!--reverse link Command to PanelViewCommand--><g id="link_Command_PanelViewCommand"><path codeLine="74" d="M994.5342,631.8117 C979.5742,676.5717 952.66,757.17 937.73,801.85 " fill="none" id="Command-backto-PanelViewCommand" style="stroke:#181818;stroke-width:1.0;"/><polygon fill="none" points="1000.24,614.74,988.8436,629.9098,1000.2247,633.7137,1000.24,614.74" style="stroke:#181818;stroke-width:1.0;"/></g><!--reverse link PanelViewCommand to NextTurnCommand--><g id="link_PanelViewCommand_NextTurnCommand"><path codeLine="75" d="M930,868 C930,885.66 930,891.94 930,909.68 " fill="none" id="PanelViewCommand-backto-NextTurnCommand" style="stroke:#181818;stroke-width:1.0;"/><polygon fill="none" points="930,850,924,868,936,868,930,850" style="stroke:#181818;stroke-width:1.0;"/></g><!--reverse link Command to ViewCommand--><g id="link_Command_ViewCommand"><path codeLine="76" d="M1038.8368,628.5634 C1056.2868,649.5234 1070.3,666.38 1087.73,687.33 " fill="none" id="Command-backto-ViewCommand" style="stroke:#181818;stroke-width:1.0;"/><polygon fill="none" points="1027.32,614.73,1034.2257,632.4023,1043.448,624.7244,1027.32,614.73" style="stroke:#181818;stroke-width:1.0;"/></g><!--reverse link ViewCommand to PlayCommand--><g id="link_ViewCommand_PlayCommand"><path codeLine="77" d="M1107,753.54 C1107,772.95 1107,782.59 1107,801.99 " fill="none" id="ViewCommand-backto-PlayCommand" style="stroke:#181818;stroke-width:1.0;"/><polygon fill="none" points="1107,735.54,1101,753.54,1113,753.54,1107,735.54" style="stroke:#181818;stroke-width:1.0;"/></g><!--reverse link ViewCommand to ResumeCommand--><g id="link_ViewCommand_ResumeCommand"><path codeLine="78" d="M1157.0586,745.4315 C1186.5686,764.8415 1213.53,782.59 1243.03,801.99 " fill="none" id="ViewCommand-backto-ResumeCommand" style="stroke:#181818;stroke-width:1.0;"/><polygon fill="none" points="1142.02,735.54,1153.7614,750.4444,1160.3557,740.4187,1142.02,735.54" style="stroke:#181818;stroke-width:1.0;"/></g><!--reverse link BoardView to PlayerBoardView--><g id="link_BoardView_PlayerBoardView"><path codeLine="80" d="M867.5485,517.336 C858.7485,546.986 846.02,582.01 820,621 C803,646.48 777.92,670.67 758.56,687.47 " fill="none" id="BoardView-backto-PlayerBoardView" style="stroke:#181818;stroke-width:1.0;"/><polygon fill="none" points="872.67,500.08,861.7965,515.6288,873.3005,519.0432,872.67,500.08" style="stroke:#181818;stroke-width:1.0;"/></g><!--reverse link PlayerBoardView to MachinePlayerBoardView--><g id="link_PlayerBoardView_MachinePlayerBoardView"><path codeLine="81" d="M645.8034,741.379 C589.2034,760.789 525.65,782.59 469.08,801.99 " fill="none" id="PlayerBoardView-backto-MachinePlayerBoardView" style="stroke:#181818;stroke-width:1.0;"/><polygon fill="none" points="662.83,735.54,643.857,735.7034,647.7497,747.0545,662.83,735.54" style="stroke:#181818;stroke-width:1.0;"/></g><!--reverse link PlayerBoardView to UserPlayerBoardView--><g id="link_PlayerBoardView_UserPlayerBoardView"><path codeLine="82" d="M730,753.54 C730,772.95 730,782.59 730,801.99 " fill="none" id="PlayerBoardView-backto-UserPlayerBoardView" style="stroke:#181818;stroke-width:1.0;"/><polygon fill="none" points="730,735.54,724,753.54,736,753.54,730,735.54" style="stroke:#181818;stroke-width:1.0;"/></g><!--reverse link BoardView to PauseBoardView--><g id="link_BoardView_PauseBoardView"><path codeLine="83" d="M834.8418,511.0266 C809.6518,530.4366 788.04,547.09 762.86,566.49 " fill="none" id="BoardView-backto-PauseBoardView" style="stroke:#181818;stroke-width:1.0;"/><polygon fill="none" points="849.1,500.04,831.1796,506.2738,838.504,515.7793,849.1,500.04" style="stroke:#181818;stroke-width:1.0;"/></g><!--reverse link MachinePlayerBoardView to NonClickableSquare--><g id="link_MachinePlayerBoardView_NonClickableSquare"><path codeLine="84" d="M402,862 C402,879.66 402,891.94 402,909.68 " fill="none" id="MachinePlayerBoardView-backto-NonClickableSquare" style="stroke:#181818;stroke-width:1.0;"/><polygon fill="none" points="402,850,398,856,402,862,406,856,402,850" style="stroke:#181818;stroke-width:1.0;"/></g><!--reverse link UserPlayerBoardView to ClickableSquare--><g id="link_UserPlayerBoardView_ClickableSquare"><path codeLine="85" d="M707.6357,859.9254 C695.6357,877.5854 685.89,891.94 673.84,909.68 " fill="none" id="UserPlayerBoardView-backto-ClickableSquare" style="stroke:#181818;stroke-width:1.0;"/><polygon fill="none" points="714.38,850,707.6994,852.7146,707.6357,859.9254,714.3163,857.2108,714.38,850" style="stroke:#181818;stroke-width:1.0;"/></g><!--reverse link PauseBoardView to NonClickableSquare--><g id="link_PauseBoardView_NonClickableSquare"><path codeLine="86" d="M699.1656,622.7522 C662.3656,655.8322 598.97,708.21 527,742 C428.25,788.36 356.05,715.95 289,802 C258.54,841.09 314.29,884.21 357.77,909.93 " fill="none" id="PauseBoardView-backto-NonClickableSquare" style="stroke:#181818;stroke-width:1.0;"/><polygon fill="none" points="708.09,614.73,700.9538,615.7663,699.1656,622.7522,706.3019,621.7159,708.09,614.73" style="stroke:#181818;stroke-width:1.0;"/></g><!--reverse link Square to ClickableSquare--><g id="link_Square_ClickableSquare"><path codeLine="87" d="M602.0017,863.9773 C616.3317,881.6373 624.69,891.94 639.08,909.68 " fill="none" id="Square-backto-ClickableSquare" style="stroke:#181818;stroke-width:1.0;"/><polygon fill="none" points="590.66,850,597.3426,867.7579,606.6608,860.1967,590.66,850" style="stroke:#181818;stroke-width:1.0;"/></g><!--reverse link Square to NonClickableSquare--><g id="link_Square_NonClickableSquare"><path codeLine="88" d="M519.8373,859.526 C491.4273,877.246 467.58,892.11 439.11,909.86 " fill="none" id="Square-backto-NonClickableSquare" style="stroke:#181818;stroke-width:1.0;"/><polygon fill="none" points="535.11,850,516.662,854.4351,523.0126,864.6169,535.11,850" style="stroke:#181818;stroke-width:1.0;"/></g><!--link PlayerBoardView to PanelViewCommand--><g id="link_PlayerBoardView_PanelViewCommand"><path codeLine="90" d="M770.96,735.54 C805.47,754.95 849.3701,779.6492 883.8701,799.0492 " fill="none" id="PlayerBoardView-to-PanelViewCommand" style="stroke:#181818;stroke-width:1.0;"/><polygon fill="#181818" points="889.1,801.99,883.2158,794.0922,884.7418,799.5393,879.2946,801.0653,889.1,801.99" style="stroke:#181818;stroke-width:1.0;"/></g><!--SRC=[XLN9JiCm4BtdAooEIEaN80uKKGcnL6KvSJ7fK2mIkzYEe18VJsCtiMVi9ASuVc_UZ6UnXRIWFtW5RAVv_bDKPd6ZUGEl0dwAgkR61E2U2-d0GgHMg-F-dL9xPyZVZTMyiemeN2ckjpdf0LXhPPKzxE5QQAYiqlFC3Up4qTqX5zLIDGsNsz60rbn2tQdD4MCEWLQdHJvbrQUGiAxv0VJewH_WrpwtMeuuwAmdeE4C5Do0QHkOWKU4dxvRhe7kBcjHVV7t6lBmWv8pZ2VBjHsDgCj1Rl_5W9v9uPgt1W8wM-zn1l5pSdJh6zz_sCLVMR8m9yFA0s5EujPWvmZoidqDfDMgha4pRjXPDVoQnPkabBEY65HOMLuc6dt8BjUJqeHnLCRrSVA4rAlxffmGnuIZDkfL9uqfHK4QDiiXTNFv3wb7izYNxd5lXPATR9IvnU8I8SMjy-jbGfk4OBn-VCl5FnucxKtFuxNHoAOQT6g9UUXC0Wp3WxkkEoUA6ZSFWaY9pa_HnkEGCWQ_AJHnLsDo5-J44p0EkJDCk4bAuCw4xueS9IGpCn7nMv0sTOmMfmNfgi6OR7WQVGqG69idbl53aO3ukWyv3QQqpj5_Vx5bNxCiDtTdKv-u3dbrfhgKf0zBHjzHAGyx6LFp7n_M59OnJOxlRYrQwdy0]--></g></svg>