<?xml version="1.0" encoding="us-ascii" standalone="no"?><svg xmlns="http://www.w3.org/2000/svg" xmlns:xlink="http://www.w3.org/1999/xlink" contentStyleType="text/css" height="1013px" preserveAspectRatio="none" style="width:1730px;height:1013px;background:#FFFFFF;" version="1.1" viewBox="0 0 1730 1013" width="1730px" zoomAndPan="magnify"><defs/><g><!--cluster graphics--><g id="cluster_graphics"><path d="M130.52,79 L192.52,79 A3.75,3.75 0 0 1 195.02,81.5 L202.02,102.6094 L1481.52,102.6094 A2.5,2.5 0 0 1 1484.02,105.1094 L1484.02,1003.5 A2.5,2.5 0 0 1 1481.52,1006 L130.52,1006 A2.5,2.5 0 0 1 128.02,1003.5 L128.02,81.5 A2.5,2.5 0 0 1 130.52,79 " fill="none" style="stroke:#000000;stroke-width:1.5;"/><line style="stroke:#000000;stroke-width:1.5;" x1="128.02" x2="202.02" y1="102.6094" y2="102.6094"/><text fill="#000000" font-family="sans-serif" font-size="14" font-weight="bold" lengthAdjust="spacing" textLength="61" x="132.02" y="95.5332">graphics</text></g><!--class BoardView--><g id="elem_BoardView"><rect codeLine="1" fill="#F1F1F1" height="48" id="BoardView" rx="2.5" ry="2.5" style="stroke:#181818;stroke-width:0.5;" width="99" x="932.52" y="618"/><ellipse cx="947.52" cy="634" fill="#A9DCDF" rx="11" ry="11" style="stroke:#181818;stroke-width:1.0;"/><path d="M949.7075,635.7656 L945.5669,635.7656 L945.145,636.7969 L945.5669,636.7969 Q946.1763,636.7969 946.4419,637.0313 Q946.7075,637.2656 946.7075,637.6563 Q946.7075,638.0313 946.4419,638.2656 Q946.1763,638.5 945.5669,638.5 L943.27,638.5 Q942.6606,638.5 942.4106,638.2656 Q942.145,638.0313 942.145,637.6406 Q942.145,637.2656 942.4263,637.0313 Q942.6919,636.7813 943.3169,636.7969 L945.9888,630.1406 L944.8794,630.1406 Q944.27,630.1406 944.0044,629.9063 Q943.7388,629.6719 943.7388,629.2813 Q943.7388,628.9063 944.0044,628.6719 Q944.27,628.4375 944.8794,628.4375 L948.5513,628.4375 L951.9419,636.7969 Q952.5356,636.7969 952.7231,636.9375 Q953.1138,637.2031 953.1138,637.6563 Q953.1138,638.0313 952.8481,638.2656 Q952.5981,638.5 951.9888,638.5 L949.6919,638.5 Q949.0825,638.5 948.8169,638.2656 Q948.5513,638.0313 948.5513,637.6406 Q948.5513,637.2656 948.8169,637.0313 Q949.0825,636.7969 949.6919,636.7969 L950.1138,636.7969 L949.7075,635.7656 Z M948.9888,634.0625 L947.6294,630.6875 L946.2544,634.0625 L948.9888,634.0625 Z " fill="#000000"/><text fill="#000000" font-family="sans-serif" font-size="14" font-style="italic" lengthAdjust="spacing" textLength="67" x="961.52" y="639.7285">BoardView</text><line style="stroke:#181818;stroke-width:0.5;" x1="933.52" x2="1030.52" y1="650" y2="650"/><line style="stroke:#181818;stroke-width:0.5;" x1="933.52" x2="1030.52" y1="658" y2="658"/></g><!--class BoardViewPrototypeDirector--><g id="elem_BoardViewPrototypeDirector"><rect codeLine="2" fill="#F1F1F1" height="48" id="BoardViewPrototypeDirector" rx="2.5" ry="2.5" style="stroke:#181818;stroke-width:0.5;" width="210" x="1009.02" y="726"/><ellipse cx="1024.02" cy="742" fill="#ADD1B2" rx="11" ry="11" style="stroke:#181818;stroke-width:1.0;"/><path d="M1026.7856,737.875 Q1026.9419,737.6563 1027.1294,737.5469 Q1027.3169,737.4375 1027.5356,737.4375 Q1027.9106,737.4375 1028.145,737.7031 Q1028.3794,737.9531 1028.3794,738.5625 L1028.3794,740.0156 Q1028.3794,740.625 1028.145,740.8906 Q1027.9106,741.1563 1027.5356,741.1563 Q1027.1919,741.1563 1026.9888,740.9531 Q1026.7856,740.7656 1026.6763,740.25 Q1026.6294,739.8906 1026.4419,739.7031 Q1026.1138,739.3281 1025.5044,739.1094 Q1024.895,738.8906 1024.27,738.8906 Q1023.5044,738.8906 1022.8638,739.2188 Q1022.2388,739.5469 1021.7388,740.2969 Q1021.2544,741.0469 1021.2544,742.0781 L1021.2544,743.1719 Q1021.2544,744.4063 1022.145,745.2344 Q1023.0356,746.0469 1024.6294,746.0469 Q1025.5669,746.0469 1026.2231,745.7969 Q1026.6138,745.6406 1027.0356,745.2031 Q1027.3013,744.9375 1027.4419,744.8594 Q1027.5981,744.7813 1027.8013,744.7813 Q1028.1294,744.7813 1028.3794,745.0469 Q1028.645,745.2969 1028.645,745.6406 Q1028.645,745.9844 1028.3013,746.3906 Q1027.8013,746.9688 1027.0044,747.2969 Q1025.9263,747.75 1024.6294,747.75 Q1023.1138,747.75 1021.9106,747.125 Q1020.9263,746.625 1020.2388,745.5625 Q1019.5513,744.4844 1019.5513,743.2031 L1019.5513,742.0469 Q1019.5513,740.7188 1020.1606,739.5781 Q1020.7856,738.4219 1021.8794,737.8125 Q1022.9731,737.1875 1024.2075,737.1875 Q1024.9419,737.1875 1025.5825,737.3594 Q1026.2388,737.5156 1026.7856,737.875 Z " fill="#000000"/><text fill="#000000" font-family="sans-serif" font-size="14" lengthAdjust="spacing" textLength="178" x="1038.02" y="747.7285">BoardViewPrototypeDirector</text><line style="stroke:#181818;stroke-width:0.5;" x1="1010.02" x2="1218.02" y1="758" y2="758"/><line style="stroke:#181818;stroke-width:0.5;" x1="1010.02" x2="1218.02" y1="766" y2="766"/></g><!--class BoardViewPrototypeRegistry--><g id="elem_BoardViewPrototypeRegistry"><rect codeLine="3" fill="#F1F1F1" height="48" id="BoardViewPrototypeRegistry" rx="2.5" ry="2.5" style="stroke:#181818;stroke-width:0.5;" width="212" x="1254.02" y="726"/><ellipse cx="1269.02" cy="742" fill="#ADD1B2" rx="11" ry="11" style="stroke:#181818;stroke-width:1.0;"/><path d="M1271.7856,737.875 Q1271.9419,737.6563 1272.1294,737.5469 Q1272.3169,737.4375 1272.5356,737.4375 Q1272.9106,737.4375 1273.145,737.7031 Q1273.3794,737.9531 1273.3794,738.5625 L1273.3794,740.0156 Q1273.3794,740.625 1273.145,740.8906 Q1272.9106,741.1563 1272.5356,741.1563 Q1272.1919,741.1563 1271.9888,740.9531 Q1271.7856,740.7656 1271.6763,740.25 Q1271.6294,739.8906 1271.4419,739.7031 Q1271.1138,739.3281 1270.5044,739.1094 Q1269.895,738.8906 1269.27,738.8906 Q1268.5044,738.8906 1267.8638,739.2188 Q1267.2388,739.5469 1266.7388,740.2969 Q1266.2544,741.0469 1266.2544,742.0781 L1266.2544,743.1719 Q1266.2544,744.4063 1267.145,745.2344 Q1268.0356,746.0469 1269.6294,746.0469 Q1270.5669,746.0469 1271.2231,745.7969 Q1271.6138,745.6406 1272.0356,745.2031 Q1272.3013,744.9375 1272.4419,744.8594 Q1272.5981,744.7813 1272.8013,744.7813 Q1273.1294,744.7813 1273.3794,745.0469 Q1273.645,745.2969 1273.645,745.6406 Q1273.645,745.9844 1273.3013,746.3906 Q1272.8013,746.9688 1272.0044,747.2969 Q1270.9263,747.75 1269.6294,747.75 Q1268.1138,747.75 1266.9106,747.125 Q1265.9263,746.625 1265.2388,745.5625 Q1264.5513,744.4844 1264.5513,743.2031 L1264.5513,742.0469 Q1264.5513,740.7188 1265.1606,739.5781 Q1265.7856,738.4219 1266.8794,737.8125 Q1267.9731,737.1875 1269.2075,737.1875 Q1269.9419,737.1875 1270.5825,737.3594 Q1271.2388,737.5156 1271.7856,737.875 Z " fill="#000000"/><text fill="#000000" font-family="sans-serif" font-size="14" lengthAdjust="spacing" textLength="180" x="1283.02" y="747.7285">BoardViewPrototypeRegistry</text><line style="stroke:#181818;stroke-width:0.5;" x1="1255.02" x2="1465.02" y1="758" y2="758"/><line style="stroke:#181818;stroke-width:0.5;" x1="1255.02" x2="1465.02" y1="766" y2="766"/></g><!--class Command--><g id="elem_Command"><rect codeLine="4" fill="#F1F1F1" height="65.6094" id="Command" rx="2.5" ry="2.5" style="stroke:#181818;stroke-width:0.5;" width="97" x="729.52" y="384"/><ellipse cx="744.97" cy="400" fill="#B4A7E5" rx="11" ry="11" style="stroke:#181818;stroke-width:1.0;"/><path d="M745.9231,396.6406 L745.9231,403.2969 L747.6419,403.2969 Q748.2513,403.2969 748.5169,403.5313 Q748.7825,403.7656 748.7825,404.1563 Q748.7825,404.5313 748.5169,404.7656 Q748.2513,405 747.6419,405 L742.5013,405 Q741.8919,405 741.6263,404.7656 Q741.3606,404.5313 741.3606,404.1406 Q741.3606,403.7656 741.6263,403.5313 Q741.8919,403.2969 742.5013,403.2969 L744.22,403.2969 L744.22,396.6406 L742.5013,396.6406 Q741.8919,396.6406 741.6263,396.4063 Q741.3606,396.1719 741.3606,395.7813 Q741.3606,395.4063 741.6263,395.1719 Q741.8919,394.9375 742.5013,394.9375 L747.6419,394.9375 Q748.2513,394.9375 748.5169,395.1719 Q748.7825,395.4063 748.7825,395.7813 Q748.7825,396.1719 748.5169,396.4063 Q748.2513,396.6406 747.6419,396.6406 L745.9231,396.6406 Z " fill="#000000"/><text fill="#000000" font-family="sans-serif" font-size="14" font-style="italic" lengthAdjust="spacing" textLength="64" x="759.07" y="405.7285">Command</text><line style="stroke:#181818;stroke-width:0.5;" x1="730.52" x2="825.52" y1="416" y2="416"/><line style="stroke:#181818;stroke-width:0.5;" x1="730.52" x2="825.52" y1="424" y2="424"/><ellipse cx="740.52" cy="438.3047" fill="#84BE84" rx="3" ry="3" style="stroke:#038048;stroke-width:1.0;"/><text fill="#000000" font-family="sans-serif" font-size="14" font-style="italic" lengthAdjust="spacing" textLength="71" x="749.52" y="442.5332">command()</text></g><!--class JFrameView--><g id="elem_JFrameView"><rect codeLine="5" fill="#F1F1F1" height="83.2188" id="JFrameView" rx="2.5" ry="2.5" style="stroke:#181818;stroke-width:0.5;" width="109" x="1075.52" y="124"/><ellipse cx="1090.52" cy="140" fill="#A9DCDF" rx="11" ry="11" style="stroke:#181818;stroke-width:1.0;"/><path d="M1092.7075,141.7656 L1088.5669,141.7656 L1088.145,142.7969 L1088.5669,142.7969 Q1089.1763,142.7969 1089.4419,143.0313 Q1089.7075,143.2656 1089.7075,143.6563 Q1089.7075,144.0313 1089.4419,144.2656 Q1089.1763,144.5 1088.5669,144.5 L1086.27,144.5 Q1085.6606,144.5 1085.4106,144.2656 Q1085.145,144.0313 1085.145,143.6406 Q1085.145,143.2656 1085.4263,143.0313 Q1085.6919,142.7813 1086.3169,142.7969 L1088.9888,136.1406 L1087.8794,136.1406 Q1087.27,136.1406 1087.0044,135.9063 Q1086.7388,135.6719 1086.7388,135.2813 Q1086.7388,134.9063 1087.0044,134.6719 Q1087.27,134.4375 1087.8794,134.4375 L1091.5513,134.4375 L1094.9419,142.7969 Q1095.5356,142.7969 1095.7231,142.9375 Q1096.1138,143.2031 1096.1138,143.6563 Q1096.1138,144.0313 1095.8481,144.2656 Q1095.5981,144.5 1094.9888,144.5 L1092.6919,144.5 Q1092.0825,144.5 1091.8169,144.2656 Q1091.5513,144.0313 1091.5513,143.6406 Q1091.5513,143.2656 1091.8169,143.0313 Q1092.0825,142.7969 1092.6919,142.7969 L1093.1138,142.7969 L1092.7075,141.7656 Z M1091.9888,140.0625 L1090.6294,136.6875 L1089.2544,140.0625 L1091.9888,140.0625 Z " fill="#000000"/><text fill="#000000" font-family="sans-serif" font-size="14" font-style="italic" lengthAdjust="spacing" textLength="77" x="1104.52" y="145.7285">JFrameView</text><line style="stroke:#181818;stroke-width:0.5;" x1="1076.52" x2="1183.52" y1="156" y2="156"/><line style="stroke:#181818;stroke-width:0.5;" x1="1076.52" x2="1183.52" y1="164" y2="164"/><ellipse cx="1086.52" cy="178.3047" fill="#84BE84" rx="3" ry="3" style="stroke:#038048;stroke-width:1.0;"/><text fill="#000000" font-family="sans-serif" font-size="14" lengthAdjust="spacing" textLength="57" x="1095.52" y="182.5332">interact()</text><ellipse cx="1086.52" cy="195.9141" fill="#84BE84" rx="3" ry="3" style="stroke:#038048;stroke-width:1.0;"/><text fill="#000000" font-family="sans-serif" font-size="14" lengthAdjust="spacing" textLength="65" x="1095.52" y="200.1426">setPanel()</text></g><!--class JFrameViewFactory--><g id="elem_JFrameViewFactory"><rect codeLine="6" fill="#F1F1F1" height="48" id="JFrameViewFactory" rx="2.5" ry="2.5" style="stroke:#181818;stroke-width:0.5;" width="156" x="711.02" y="276"/><ellipse cx="726.02" cy="292" fill="#ADD1B2" rx="11" ry="11" style="stroke:#181818;stroke-width:1.0;"/><path d="M728.7856,287.875 Q728.9419,287.6563 729.1294,287.5469 Q729.3169,287.4375 729.5356,287.4375 Q729.9106,287.4375 730.145,287.7031 Q730.3794,287.9531 730.3794,288.5625 L730.3794,290.0156 Q730.3794,290.625 730.145,290.8906 Q729.9106,291.1563 729.5356,291.1563 Q729.1919,291.1563 728.9888,290.9531 Q728.7856,290.7656 728.6763,290.25 Q728.6294,289.8906 728.4419,289.7031 Q728.1138,289.3281 727.5044,289.1094 Q726.895,288.8906 726.27,288.8906 Q725.5044,288.8906 724.8638,289.2188 Q724.2388,289.5469 723.7388,290.2969 Q723.2544,291.0469 723.2544,292.0781 L723.2544,293.1719 Q723.2544,294.4063 724.145,295.2344 Q725.0356,296.0469 726.6294,296.0469 Q727.5669,296.0469 728.2231,295.7969 Q728.6138,295.6406 729.0356,295.2031 Q729.3013,294.9375 729.4419,294.8594 Q729.5981,294.7813 729.8013,294.7813 Q730.1294,294.7813 730.3794,295.0469 Q730.645,295.2969 730.645,295.6406 Q730.645,295.9844 730.3013,296.3906 Q729.8013,296.9688 729.0044,297.2969 Q727.9263,297.75 726.6294,297.75 Q725.1138,297.75 723.9106,297.125 Q722.9263,296.625 722.2388,295.5625 Q721.5513,294.4844 721.5513,293.2031 L721.5513,292.0469 Q721.5513,290.7188 722.1606,289.5781 Q722.7856,288.4219 723.8794,287.8125 Q724.9731,287.1875 726.2075,287.1875 Q726.9419,287.1875 727.5825,287.3594 Q728.2388,287.5156 728.7856,287.875 Z " fill="#000000"/><text fill="#000000" font-family="sans-serif" font-size="14" lengthAdjust="spacing" textLength="124" x="740.02" y="297.7285">JFrameViewFactory</text><line style="stroke:#181818;stroke-width:0.5;" x1="712.02" x2="866.02" y1="308" y2="308"/><line style="stroke:#181818;stroke-width:0.5;" x1="712.02" x2="866.02" y1="316" y2="316"/></g><!--class GraphicsView--><g id="elem_GraphicsView"><rect codeLine="7" fill="#F1F1F1" height="100.8281" id="GraphicsView" rx="2.5" ry="2.5" style="stroke:#181818;stroke-width:0.5;" width="118" x="842.02" y="115"/><ellipse cx="857.02" cy="131" fill="#ADD1B2" rx="11" ry="11" style="stroke:#181818;stroke-width:1.0;"/><path d="M859.7856,126.875 Q859.9419,126.6563 860.1294,126.5469 Q860.3169,126.4375 860.5356,126.4375 Q860.9106,126.4375 861.145,126.7031 Q861.3794,126.9531 861.3794,127.5625 L861.3794,129.0156 Q861.3794,129.625 861.145,129.8906 Q860.9106,130.1563 860.5356,130.1563 Q860.1919,130.1563 859.9888,129.9531 Q859.7856,129.7656 859.6763,129.25 Q859.6294,128.8906 859.4419,128.7031 Q859.1138,128.3281 858.5044,128.1094 Q857.895,127.8906 857.27,127.8906 Q856.5044,127.8906 855.8638,128.2188 Q855.2388,128.5469 854.7388,129.2969 Q854.2544,130.0469 854.2544,131.0781 L854.2544,132.1719 Q854.2544,133.4063 855.145,134.2344 Q856.0356,135.0469 857.6294,135.0469 Q858.5669,135.0469 859.2231,134.7969 Q859.6138,134.6406 860.0356,134.2031 Q860.3013,133.9375 860.4419,133.8594 Q860.5981,133.7813 860.8013,133.7813 Q861.1294,133.7813 861.3794,134.0469 Q861.645,134.2969 861.645,134.6406 Q861.645,134.9844 861.3013,135.3906 Q860.8013,135.9688 860.0044,136.2969 Q858.9263,136.75 857.6294,136.75 Q856.1138,136.75 854.9106,136.125 Q853.9263,135.625 853.2388,134.5625 Q852.5513,133.4844 852.5513,132.2031 L852.5513,131.0469 Q852.5513,129.7188 853.1606,128.5781 Q853.7856,127.4219 854.8794,126.8125 Q855.9731,126.1875 857.2075,126.1875 Q857.9419,126.1875 858.5825,126.3594 Q859.2388,126.5156 859.7856,126.875 Z " fill="#000000"/><text fill="#000000" font-family="sans-serif" font-size="14" lengthAdjust="spacing" textLength="86" x="871.02" y="136.7285">GraphicsView</text><line style="stroke:#181818;stroke-width:0.5;" x1="843.02" x2="959.02" y1="147" y2="147"/><line style="stroke:#181818;stroke-width:0.5;" x1="843.02" x2="959.02" y1="155" y2="155"/><ellipse cx="853.02" cy="169.3047" fill="#84BE84" rx="3" ry="3" style="stroke:#038048;stroke-width:1.0;"/><text fill="#000000" font-family="sans-serif" font-size="14" lengthAdjust="spacing" textLength="38" x="862.02" y="173.5332">start()</text><ellipse cx="853.02" cy="186.9141" fill="#84BE84" rx="3" ry="3" style="stroke:#038048;stroke-width:1.0;"/><text fill="#000000" font-family="sans-serif" font-size="14" lengthAdjust="spacing" textLength="36" x="862.02" y="191.1426">play()</text><ellipse cx="853.02" cy="204.5234" fill="#84BE84" rx="3" ry="3" style="stroke:#038048;stroke-width:1.0;"/><text fill="#000000" font-family="sans-serif" font-size="14" lengthAdjust="spacing" textLength="57" x="862.02" y="208.752">resume()</text></g><!--class MachinePlayerBoardView--><g id="elem_MachinePlayerBoardView"><rect codeLine="8" fill="#F1F1F1" height="48" id="MachinePlayerBoardView" rx="2.5" ry="2.5" style="stroke:#181818;stroke-width:0.5;" width="192" x="808.02" y="834"/><ellipse cx="823.02" cy="850" fill="#ADD1B2" rx="11" ry="11" style="stroke:#181818;stroke-width:1.0;"/><path d="M825.7856,845.875 Q825.9419,845.6563 826.1294,845.5469 Q826.3169,845.4375 826.5356,845.4375 Q826.9106,845.4375 827.145,845.7031 Q827.3794,845.9531 827.3794,846.5625 L827.3794,848.0156 Q827.3794,848.625 827.145,848.8906 Q826.9106,849.1563 826.5356,849.1563 Q826.1919,849.1563 825.9888,848.9531 Q825.7856,848.7656 825.6763,848.25 Q825.6294,847.8906 825.4419,847.7031 Q825.1138,847.3281 824.5044,847.1094 Q823.895,846.8906 823.27,846.8906 Q822.5044,846.8906 821.8638,847.2188 Q821.2388,847.5469 820.7388,848.2969 Q820.2544,849.0469 820.2544,850.0781 L820.2544,851.1719 Q820.2544,852.4063 821.145,853.2344 Q822.0356,854.0469 823.6294,854.0469 Q824.5669,854.0469 825.2231,853.7969 Q825.6138,853.6406 826.0356,853.2031 Q826.3013,852.9375 826.4419,852.8594 Q826.5981,852.7813 826.8013,852.7813 Q827.1294,852.7813 827.3794,853.0469 Q827.645,853.2969 827.645,853.6406 Q827.645,853.9844 827.3013,854.3906 Q826.8013,854.9688 826.0044,855.2969 Q824.9263,855.75 823.6294,855.75 Q822.1138,855.75 820.9106,855.125 Q819.9263,854.625 819.2388,853.5625 Q818.5513,852.4844 818.5513,851.2031 L818.5513,850.0469 Q818.5513,848.7188 819.1606,847.5781 Q819.7856,846.4219 820.8794,845.8125 Q821.9731,845.1875 823.2075,845.1875 Q823.9419,845.1875 824.5825,845.3594 Q825.2388,845.5156 825.7856,845.875 Z " fill="#000000"/><text fill="#000000" font-family="sans-serif" font-size="14" lengthAdjust="spacing" textLength="160" x="837.02" y="855.7285">MachinePlayerBoardView</text><line style="stroke:#181818;stroke-width:0.5;" x1="809.02" x2="999.02" y1="866" y2="866"/><line style="stroke:#181818;stroke-width:0.5;" x1="809.02" x2="999.02" y1="874" y2="874"/></g><!--class MacroCommand--><g id="elem_MacroCommand"><rect codeLine="9" fill="#F1F1F1" height="48" id="MacroCommand" rx="2.5" ry="2.5" style="stroke:#181818;stroke-width:0.5;" width="135" x="889.52" y="510"/><ellipse cx="904.52" cy="526" fill="#ADD1B2" rx="11" ry="11" style="stroke:#181818;stroke-width:1.0;"/><path d="M907.2856,521.875 Q907.4419,521.6563 907.6294,521.5469 Q907.8169,521.4375 908.0356,521.4375 Q908.4106,521.4375 908.645,521.7031 Q908.8794,521.9531 908.8794,522.5625 L908.8794,524.0156 Q908.8794,524.625 908.645,524.8906 Q908.4106,525.1563 908.0356,525.1563 Q907.6919,525.1563 907.4888,524.9531 Q907.2856,524.7656 907.1763,524.25 Q907.1294,523.8906 906.9419,523.7031 Q906.6138,523.3281 906.0044,523.1094 Q905.395,522.8906 904.77,522.8906 Q904.0044,522.8906 903.3638,523.2188 Q902.7388,523.5469 902.2388,524.2969 Q901.7544,525.0469 901.7544,526.0781 L901.7544,527.1719 Q901.7544,528.4063 902.645,529.2344 Q903.5356,530.0469 905.1294,530.0469 Q906.0669,530.0469 906.7231,529.7969 Q907.1138,529.6406 907.5356,529.2031 Q907.8013,528.9375 907.9419,528.8594 Q908.0981,528.7813 908.3013,528.7813 Q908.6294,528.7813 908.8794,529.0469 Q909.145,529.2969 909.145,529.6406 Q909.145,529.9844 908.8013,530.3906 Q908.3013,530.9688 907.5044,531.2969 Q906.4263,531.75 905.1294,531.75 Q903.6138,531.75 902.4106,531.125 Q901.4263,530.625 900.7388,529.5625 Q900.0513,528.4844 900.0513,527.2031 L900.0513,526.0469 Q900.0513,524.7188 900.6606,523.5781 Q901.2856,522.4219 902.3794,521.8125 Q903.4731,521.1875 904.7075,521.1875 Q905.4419,521.1875 906.0825,521.3594 Q906.7388,521.5156 907.2856,521.875 Z " fill="#000000"/><text fill="#000000" font-family="sans-serif" font-size="14" lengthAdjust="spacing" textLength="103" x="918.52" y="531.7285">MacroCommand</text><line style="stroke:#181818;stroke-width:0.5;" x1="890.52" x2="1023.52" y1="542" y2="542"/><line style="stroke:#181818;stroke-width:0.5;" x1="890.52" x2="1023.52" y1="550" y2="550"/></g><!--class MakeInvisibleCommand--><g id="elem_MakeInvisibleCommand"><rect codeLine="10" fill="#F1F1F1" height="48" id="MakeInvisibleCommand" rx="2.5" ry="2.5" style="stroke:#181818;stroke-width:0.5;" width="180" x="486.02" y="510"/><ellipse cx="501.02" cy="526" fill="#ADD1B2" rx="11" ry="11" style="stroke:#181818;stroke-width:1.0;"/><path d="M503.7856,521.875 Q503.9419,521.6563 504.1294,521.5469 Q504.3169,521.4375 504.5356,521.4375 Q504.9106,521.4375 505.145,521.7031 Q505.3794,521.9531 505.3794,522.5625 L505.3794,524.0156 Q505.3794,524.625 505.145,524.8906 Q504.9106,525.1563 504.5356,525.1563 Q504.1919,525.1563 503.9888,524.9531 Q503.7856,524.7656 503.6763,524.25 Q503.6294,523.8906 503.4419,523.7031 Q503.1138,523.3281 502.5044,523.1094 Q501.895,522.8906 501.27,522.8906 Q500.5044,522.8906 499.8638,523.2188 Q499.2388,523.5469 498.7388,524.2969 Q498.2544,525.0469 498.2544,526.0781 L498.2544,527.1719 Q498.2544,528.4063 499.145,529.2344 Q500.0356,530.0469 501.6294,530.0469 Q502.5669,530.0469 503.2231,529.7969 Q503.6138,529.6406 504.0356,529.2031 Q504.3013,528.9375 504.4419,528.8594 Q504.5981,528.7813 504.8013,528.7813 Q505.1294,528.7813 505.3794,529.0469 Q505.645,529.2969 505.645,529.6406 Q505.645,529.9844 505.3013,530.3906 Q504.8013,530.9688 504.0044,531.2969 Q502.9263,531.75 501.6294,531.75 Q500.1138,531.75 498.9106,531.125 Q497.9263,530.625 497.2388,529.5625 Q496.5513,528.4844 496.5513,527.2031 L496.5513,526.0469 Q496.5513,524.7188 497.1606,523.5781 Q497.7856,522.4219 498.8794,521.8125 Q499.9731,521.1875 501.2075,521.1875 Q501.9419,521.1875 502.5825,521.3594 Q503.2388,521.5156 503.7856,521.875 Z " fill="#000000"/><text fill="#000000" font-family="sans-serif" font-size="14" lengthAdjust="spacing" textLength="148" x="515.02" y="531.7285">MakeInvisibleCommand</text><line style="stroke:#181818;stroke-width:0.5;" x1="487.02" x2="665.02" y1="542" y2="542"/><line style="stroke:#181818;stroke-width:0.5;" x1="487.02" x2="665.02" y1="550" y2="550"/></g><!--class NextTurnCommand--><g id="elem_NextTurnCommand"><rect codeLine="11" fill="#F1F1F1" height="48" id="NextTurnCommand" rx="2.5" ry="2.5" style="stroke:#181818;stroke-width:0.5;" width="153" x="701.52" y="510"/><ellipse cx="716.52" cy="526" fill="#ADD1B2" rx="11" ry="11" style="stroke:#181818;stroke-width:1.0;"/><path d="M719.2856,521.875 Q719.4419,521.6563 719.6294,521.5469 Q719.8169,521.4375 720.0356,521.4375 Q720.4106,521.4375 720.645,521.7031 Q720.8794,521.9531 720.8794,522.5625 L720.8794,524.0156 Q720.8794,524.625 720.645,524.8906 Q720.4106,525.1563 720.0356,525.1563 Q719.6919,525.1563 719.4888,524.9531 Q719.2856,524.7656 719.1763,524.25 Q719.1294,523.8906 718.9419,523.7031 Q718.6138,523.3281 718.0044,523.1094 Q717.395,522.8906 716.77,522.8906 Q716.0044,522.8906 715.3638,523.2188 Q714.7388,523.5469 714.2388,524.2969 Q713.7544,525.0469 713.7544,526.0781 L713.7544,527.1719 Q713.7544,528.4063 714.645,529.2344 Q715.5356,530.0469 717.1294,530.0469 Q718.0669,530.0469 718.7231,529.7969 Q719.1138,529.6406 719.5356,529.2031 Q719.8013,528.9375 719.9419,528.8594 Q720.0981,528.7813 720.3013,528.7813 Q720.6294,528.7813 720.8794,529.0469 Q721.145,529.2969 721.145,529.6406 Q721.145,529.9844 720.8013,530.3906 Q720.3013,530.9688 719.5044,531.2969 Q718.4263,531.75 717.1294,531.75 Q715.6138,531.75 714.4106,531.125 Q713.4263,530.625 712.7388,529.5625 Q712.0513,528.4844 712.0513,527.2031 L712.0513,526.0469 Q712.0513,524.7188 712.6606,523.5781 Q713.2856,522.4219 714.3794,521.8125 Q715.4731,521.1875 716.7075,521.1875 Q717.4419,521.1875 718.0825,521.3594 Q718.7388,521.5156 719.2856,521.875 Z " fill="#000000"/><text fill="#000000" font-family="sans-serif" font-size="14" lengthAdjust="spacing" textLength="121" x="730.52" y="531.7285">NextTurnCommand</text><line style="stroke:#181818;stroke-width:0.5;" x1="702.52" x2="853.52" y1="542" y2="542"/><line style="stroke:#181818;stroke-width:0.5;" x1="702.52" x2="853.52" y1="550" y2="550"/></g><!--class PlayCommand--><g id="elem_PlayCommand"><rect codeLine="12" fill="#F1F1F1" height="48" id="PlayCommand" rx="2.5" ry="2.5" style="stroke:#181818;stroke-width:0.5;" width="123" x="144.52" y="510"/><ellipse cx="159.52" cy="526" fill="#ADD1B2" rx="11" ry="11" style="stroke:#181818;stroke-width:1.0;"/><path d="M162.2856,521.875 Q162.4419,521.6563 162.6294,521.5469 Q162.8169,521.4375 163.0356,521.4375 Q163.4106,521.4375 163.645,521.7031 Q163.8794,521.9531 163.8794,522.5625 L163.8794,524.0156 Q163.8794,524.625 163.645,524.8906 Q163.4106,525.1563 163.0356,525.1563 Q162.6919,525.1563 162.4887,524.9531 Q162.2856,524.7656 162.1762,524.25 Q162.1294,523.8906 161.9419,523.7031 Q161.6137,523.3281 161.0044,523.1094 Q160.395,522.8906 159.77,522.8906 Q159.0044,522.8906 158.3637,523.2188 Q157.7387,523.5469 157.2387,524.2969 Q156.7544,525.0469 156.7544,526.0781 L156.7544,527.1719 Q156.7544,528.4063 157.645,529.2344 Q158.5356,530.0469 160.1294,530.0469 Q161.0669,530.0469 161.7231,529.7969 Q162.1137,529.6406 162.5356,529.2031 Q162.8012,528.9375 162.9419,528.8594 Q163.0981,528.7813 163.3012,528.7813 Q163.6294,528.7813 163.8794,529.0469 Q164.145,529.2969 164.145,529.6406 Q164.145,529.9844 163.8012,530.3906 Q163.3012,530.9688 162.5044,531.2969 Q161.4262,531.75 160.1294,531.75 Q158.6137,531.75 157.4106,531.125 Q156.4262,530.625 155.7387,529.5625 Q155.0512,528.4844 155.0512,527.2031 L155.0512,526.0469 Q155.0512,524.7188 155.6606,523.5781 Q156.2856,522.4219 157.3794,521.8125 Q158.4731,521.1875 159.7075,521.1875 Q160.4419,521.1875 161.0825,521.3594 Q161.7387,521.5156 162.2856,521.875 Z " fill="#000000"/><text fill="#000000" font-family="sans-serif" font-size="14" lengthAdjust="spacing" textLength="91" x="173.52" y="531.7285">PlayCommand</text><line style="stroke:#181818;stroke-width:0.5;" x1="145.52" x2="266.52" y1="542" y2="542"/><line style="stroke:#181818;stroke-width:0.5;" x1="145.52" x2="266.52" y1="550" y2="550"/></g><!--class PlayerSelectionView--><g id="elem_PlayerSelectionView"><rect codeLine="13" fill="#F1F1F1" height="48" id="PlayerSelectionView" rx="2.5" ry="2.5" style="stroke:#181818;stroke-width:0.5;" width="159" x="1271.52" y="510"/><ellipse cx="1286.52" cy="526" fill="#ADD1B2" rx="11" ry="11" style="stroke:#181818;stroke-width:1.0;"/><path d="M1289.2856,521.875 Q1289.4419,521.6563 1289.6294,521.5469 Q1289.8169,521.4375 1290.0356,521.4375 Q1290.4106,521.4375 1290.645,521.7031 Q1290.8794,521.9531 1290.8794,522.5625 L1290.8794,524.0156 Q1290.8794,524.625 1290.645,524.8906 Q1290.4106,525.1563 1290.0356,525.1563 Q1289.6919,525.1563 1289.4888,524.9531 Q1289.2856,524.7656 1289.1763,524.25 Q1289.1294,523.8906 1288.9419,523.7031 Q1288.6138,523.3281 1288.0044,523.1094 Q1287.395,522.8906 1286.77,522.8906 Q1286.0044,522.8906 1285.3638,523.2188 Q1284.7388,523.5469 1284.2388,524.2969 Q1283.7544,525.0469 1283.7544,526.0781 L1283.7544,527.1719 Q1283.7544,528.4063 1284.645,529.2344 Q1285.5356,530.0469 1287.1294,530.0469 Q1288.0669,530.0469 1288.7231,529.7969 Q1289.1138,529.6406 1289.5356,529.2031 Q1289.8013,528.9375 1289.9419,528.8594 Q1290.0981,528.7813 1290.3013,528.7813 Q1290.6294,528.7813 1290.8794,529.0469 Q1291.145,529.2969 1291.145,529.6406 Q1291.145,529.9844 1290.8013,530.3906 Q1290.3013,530.9688 1289.5044,531.2969 Q1288.4263,531.75 1287.1294,531.75 Q1285.6138,531.75 1284.4106,531.125 Q1283.4263,530.625 1282.7388,529.5625 Q1282.0513,528.4844 1282.0513,527.2031 L1282.0513,526.0469 Q1282.0513,524.7188 1282.6606,523.5781 Q1283.2856,522.4219 1284.3794,521.8125 Q1285.4731,521.1875 1286.7075,521.1875 Q1287.4419,521.1875 1288.0825,521.3594 Q1288.7388,521.5156 1289.2856,521.875 Z " fill="#000000"/><text fill="#000000" font-family="sans-serif" font-size="14" lengthAdjust="spacing" textLength="127" x="1300.52" y="531.7285">PlayerSelectionView</text><line style="stroke:#181818;stroke-width:0.5;" x1="1272.52" x2="1429.52" y1="542" y2="542"/><line style="stroke:#181818;stroke-width:0.5;" x1="1272.52" x2="1429.52" y1="550" y2="550"/></g><!--class PlayView--><g id="elem_PlayView"><rect codeLine="14" fill="#F1F1F1" height="48" id="PlayView" rx="2.5" ry="2.5" style="stroke:#181818;stroke-width:0.5;" width="88" x="913.02" y="276"/><ellipse cx="928.02" cy="292" fill="#ADD1B2" rx="11" ry="11" style="stroke:#181818;stroke-width:1.0;"/><path d="M930.7856,287.875 Q930.9419,287.6563 931.1294,287.5469 Q931.3169,287.4375 931.5356,287.4375 Q931.9106,287.4375 932.145,287.7031 Q932.3794,287.9531 932.3794,288.5625 L932.3794,290.0156 Q932.3794,290.625 932.145,290.8906 Q931.9106,291.1563 931.5356,291.1563 Q931.1919,291.1563 930.9888,290.9531 Q930.7856,290.7656 930.6763,290.25 Q930.6294,289.8906 930.4419,289.7031 Q930.1138,289.3281 929.5044,289.1094 Q928.895,288.8906 928.27,288.8906 Q927.5044,288.8906 926.8638,289.2188 Q926.2388,289.5469 925.7388,290.2969 Q925.2544,291.0469 925.2544,292.0781 L925.2544,293.1719 Q925.2544,294.4063 926.145,295.2344 Q927.0356,296.0469 928.6294,296.0469 Q929.5669,296.0469 930.2231,295.7969 Q930.6138,295.6406 931.0356,295.2031 Q931.3013,294.9375 931.4419,294.8594 Q931.5981,294.7813 931.8013,294.7813 Q932.1294,294.7813 932.3794,295.0469 Q932.645,295.2969 932.645,295.6406 Q932.645,295.9844 932.3013,296.3906 Q931.8013,296.9688 931.0044,297.2969 Q929.9263,297.75 928.6294,297.75 Q927.1138,297.75 925.9106,297.125 Q924.9263,296.625 924.2388,295.5625 Q923.5513,294.4844 923.5513,293.2031 L923.5513,292.0469 Q923.5513,290.7188 924.1606,289.5781 Q924.7856,288.4219 925.8794,287.8125 Q926.9731,287.1875 928.2075,287.1875 Q928.9419,287.1875 929.5825,287.3594 Q930.2388,287.5156 930.7856,287.875 Z " fill="#000000"/><text fill="#000000" font-family="sans-serif" font-size="14" lengthAdjust="spacing" textLength="56" x="942.02" y="297.7285">PlayView</text><line style="stroke:#181818;stroke-width:0.5;" x1="914.02" x2="1000.02" y1="308" y2="308"/><line style="stroke:#181818;stroke-width:0.5;" x1="914.02" x2="1000.02" y1="316" y2="316"/></g><!--class ResumeView--><g id="elem_ResumeView"><rect codeLine="15" fill="#F1F1F1" height="48" id="ResumeView" rx="2.5" ry="2.5" style="stroke:#181818;stroke-width:0.5;" width="113" x="1073.52" y="276"/><ellipse cx="1088.52" cy="292" fill="#ADD1B2" rx="11" ry="11" style="stroke:#181818;stroke-width:1.0;"/><path d="M1091.2856,287.875 Q1091.4419,287.6563 1091.6294,287.5469 Q1091.8169,287.4375 1092.0356,287.4375 Q1092.4106,287.4375 1092.645,287.7031 Q1092.8794,287.9531 1092.8794,288.5625 L1092.8794,290.0156 Q1092.8794,290.625 1092.645,290.8906 Q1092.4106,291.1563 1092.0356,291.1563 Q1091.6919,291.1563 1091.4888,290.9531 Q1091.2856,290.7656 1091.1763,290.25 Q1091.1294,289.8906 1090.9419,289.7031 Q1090.6138,289.3281 1090.0044,289.1094 Q1089.395,288.8906 1088.77,288.8906 Q1088.0044,288.8906 1087.3638,289.2188 Q1086.7388,289.5469 1086.2388,290.2969 Q1085.7544,291.0469 1085.7544,292.0781 L1085.7544,293.1719 Q1085.7544,294.4063 1086.645,295.2344 Q1087.5356,296.0469 1089.1294,296.0469 Q1090.0669,296.0469 1090.7231,295.7969 Q1091.1138,295.6406 1091.5356,295.2031 Q1091.8013,294.9375 1091.9419,294.8594 Q1092.0981,294.7813 1092.3013,294.7813 Q1092.6294,294.7813 1092.8794,295.0469 Q1093.145,295.2969 1093.145,295.6406 Q1093.145,295.9844 1092.8013,296.3906 Q1092.3013,296.9688 1091.5044,297.2969 Q1090.4263,297.75 1089.1294,297.75 Q1087.6138,297.75 1086.4106,297.125 Q1085.4263,296.625 1084.7388,295.5625 Q1084.0513,294.4844 1084.0513,293.2031 L1084.0513,292.0469 Q1084.0513,290.7188 1084.6606,289.5781 Q1085.2856,288.4219 1086.3794,287.8125 Q1087.4731,287.1875 1088.7075,287.1875 Q1089.4419,287.1875 1090.0825,287.3594 Q1090.7388,287.5156 1091.2856,287.875 Z " fill="#000000"/><text fill="#000000" font-family="sans-serif" font-size="14" lengthAdjust="spacing" textLength="81" x="1102.52" y="297.7285">ResumeView</text><line style="stroke:#181818;stroke-width:0.5;" x1="1074.52" x2="1185.52" y1="308" y2="308"/><line style="stroke:#181818;stroke-width:0.5;" x1="1074.52" x2="1185.52" y1="316" y2="316"/></g><!--class ResumeCommand--><g id="elem_ResumeCommand"><rect codeLine="16" fill="#F1F1F1" height="48" id="ResumeCommand" rx="2.5" ry="2.5" style="stroke:#181818;stroke-width:0.5;" width="148" x="303.02" y="510"/><ellipse cx="318.02" cy="526" fill="#ADD1B2" rx="11" ry="11" style="stroke:#181818;stroke-width:1.0;"/><path d="M320.7856,521.875 Q320.9419,521.6563 321.1294,521.5469 Q321.3169,521.4375 321.5356,521.4375 Q321.9106,521.4375 322.145,521.7031 Q322.3794,521.9531 322.3794,522.5625 L322.3794,524.0156 Q322.3794,524.625 322.145,524.8906 Q321.9106,525.1563 321.5356,525.1563 Q321.1919,525.1563 320.9888,524.9531 Q320.7856,524.7656 320.6763,524.25 Q320.6294,523.8906 320.4419,523.7031 Q320.1138,523.3281 319.5044,523.1094 Q318.895,522.8906 318.27,522.8906 Q317.5044,522.8906 316.8638,523.2188 Q316.2388,523.5469 315.7388,524.2969 Q315.2544,525.0469 315.2544,526.0781 L315.2544,527.1719 Q315.2544,528.4063 316.145,529.2344 Q317.0356,530.0469 318.6294,530.0469 Q319.5669,530.0469 320.2231,529.7969 Q320.6138,529.6406 321.0356,529.2031 Q321.3013,528.9375 321.4419,528.8594 Q321.5981,528.7813 321.8013,528.7813 Q322.1294,528.7813 322.3794,529.0469 Q322.645,529.2969 322.645,529.6406 Q322.645,529.9844 322.3013,530.3906 Q321.8013,530.9688 321.0044,531.2969 Q319.9263,531.75 318.6294,531.75 Q317.1138,531.75 315.9106,531.125 Q314.9263,530.625 314.2388,529.5625 Q313.5513,528.4844 313.5513,527.2031 L313.5513,526.0469 Q313.5513,524.7188 314.1606,523.5781 Q314.7856,522.4219 315.8794,521.8125 Q316.9731,521.1875 318.2075,521.1875 Q318.9419,521.1875 319.5825,521.3594 Q320.2388,521.5156 320.7856,521.875 Z " fill="#000000"/><text fill="#000000" font-family="sans-serif" font-size="14" lengthAdjust="spacing" textLength="116" x="332.02" y="531.7285">ResumeCommand</text><line style="stroke:#181818;stroke-width:0.5;" x1="304.02" x2="450.02" y1="542" y2="542"/><line style="stroke:#181818;stroke-width:0.5;" x1="304.02" x2="450.02" y1="550" y2="550"/></g><!--class Square--><g id="elem_Square"><rect codeLine="17" fill="#F1F1F1" height="48" id="Square" rx="2.5" ry="2.5" style="stroke:#181818;stroke-width:0.5;" width="78" x="1035.02" y="834"/><ellipse cx="1050.02" cy="850" fill="#ADD1B2" rx="11" ry="11" style="stroke:#181818;stroke-width:1.0;"/><path d="M1052.7856,845.875 Q1052.9419,845.6563 1053.1294,845.5469 Q1053.3169,845.4375 1053.5356,845.4375 Q1053.9106,845.4375 1054.145,845.7031 Q1054.3794,845.9531 1054.3794,846.5625 L1054.3794,848.0156 Q1054.3794,848.625 1054.145,848.8906 Q1053.9106,849.1563 1053.5356,849.1563 Q1053.1919,849.1563 1052.9888,848.9531 Q1052.7856,848.7656 1052.6763,848.25 Q1052.6294,847.8906 1052.4419,847.7031 Q1052.1138,847.3281 1051.5044,847.1094 Q1050.895,846.8906 1050.27,846.8906 Q1049.5044,846.8906 1048.8638,847.2188 Q1048.2388,847.5469 1047.7388,848.2969 Q1047.2544,849.0469 1047.2544,850.0781 L1047.2544,851.1719 Q1047.2544,852.4063 1048.145,853.2344 Q1049.0356,854.0469 1050.6294,854.0469 Q1051.5669,854.0469 1052.2231,853.7969 Q1052.6138,853.6406 1053.0356,853.2031 Q1053.3013,852.9375 1053.4419,852.8594 Q1053.5981,852.7813 1053.8013,852.7813 Q1054.1294,852.7813 1054.3794,853.0469 Q1054.645,853.2969 1054.645,853.6406 Q1054.645,853.9844 1054.3013,854.3906 Q1053.8013,854.9688 1053.0044,855.2969 Q1051.9263,855.75 1050.6294,855.75 Q1049.1138,855.75 1047.9106,855.125 Q1046.9263,854.625 1046.2388,853.5625 Q1045.5513,852.4844 1045.5513,851.2031 L1045.5513,850.0469 Q1045.5513,848.7188 1046.1606,847.5781 Q1046.7856,846.4219 1047.8794,845.8125 Q1048.9731,845.1875 1050.2075,845.1875 Q1050.9419,845.1875 1051.5825,845.3594 Q1052.2388,845.5156 1052.7856,845.875 Z " fill="#000000"/><text fill="#000000" font-family="sans-serif" font-size="14" lengthAdjust="spacing" textLength="46" x="1064.02" y="855.7285">Square</text><line style="stroke:#181818;stroke-width:0.5;" x1="1036.02" x2="1112.02" y1="866" y2="866"/><line style="stroke:#181818;stroke-width:0.5;" x1="1036.02" x2="1112.02" y1="874" y2="874"/></g><!--class ClickableSquare--><g id="elem_ClickableSquare"><rect codeLine="18" fill="#F1F1F1" height="48" id="ClickableSquare" rx="2.5" ry="2.5" style="stroke:#181818;stroke-width:0.5;" width="135" x="1091.52" y="942"/><ellipse cx="1106.52" cy="958" fill="#ADD1B2" rx="11" ry="11" style="stroke:#181818;stroke-width:1.0;"/><path d="M1109.2856,953.875 Q1109.4419,953.6563 1109.6294,953.5469 Q1109.8169,953.4375 1110.0356,953.4375 Q1110.4106,953.4375 1110.645,953.7031 Q1110.8794,953.9531 1110.8794,954.5625 L1110.8794,956.0156 Q1110.8794,956.625 1110.645,956.8906 Q1110.4106,957.1563 1110.0356,957.1563 Q1109.6919,957.1563 1109.4888,956.9531 Q1109.2856,956.7656 1109.1763,956.25 Q1109.1294,955.8906 1108.9419,955.7031 Q1108.6138,955.3281 1108.0044,955.1094 Q1107.395,954.8906 1106.77,954.8906 Q1106.0044,954.8906 1105.3638,955.2188 Q1104.7388,955.5469 1104.2388,956.2969 Q1103.7544,957.0469 1103.7544,958.0781 L1103.7544,959.1719 Q1103.7544,960.4063 1104.645,961.2344 Q1105.5356,962.0469 1107.1294,962.0469 Q1108.0669,962.0469 1108.7231,961.7969 Q1109.1138,961.6406 1109.5356,961.2031 Q1109.8013,960.9375 1109.9419,960.8594 Q1110.0981,960.7813 1110.3013,960.7813 Q1110.6294,960.7813 1110.8794,961.0469 Q1111.145,961.2969 1111.145,961.6406 Q1111.145,961.9844 1110.8013,962.3906 Q1110.3013,962.9688 1109.5044,963.2969 Q1108.4263,963.75 1107.1294,963.75 Q1105.6138,963.75 1104.4106,963.125 Q1103.4263,962.625 1102.7388,961.5625 Q1102.0513,960.4844 1102.0513,959.2031 L1102.0513,958.0469 Q1102.0513,956.7188 1102.6606,955.5781 Q1103.2856,954.4219 1104.3794,953.8125 Q1105.4731,953.1875 1106.7075,953.1875 Q1107.4419,953.1875 1108.0825,953.3594 Q1108.7388,953.5156 1109.2856,953.875 Z " fill="#000000"/><text fill="#000000" font-family="sans-serif" font-size="14" lengthAdjust="spacing" textLength="103" x="1120.52" y="963.7285">ClickableSquare</text><line style="stroke:#181818;stroke-width:0.5;" x1="1092.52" x2="1225.52" y1="974" y2="974"/><line style="stroke:#181818;stroke-width:0.5;" x1="1092.52" x2="1225.52" y1="982" y2="982"/></g><!--class NonClickableSquare--><g id="elem_NonClickableSquare"><rect codeLine="19" fill="#F1F1F1" height="48" id="NonClickableSquare" rx="2.5" ry="2.5" style="stroke:#181818;stroke-width:0.5;" width="160" x="824.02" y="942"/><ellipse cx="839.02" cy="958" fill="#ADD1B2" rx="11" ry="11" style="stroke:#181818;stroke-width:1.0;"/><path d="M841.7856,953.875 Q841.9419,953.6563 842.1294,953.5469 Q842.3169,953.4375 842.5356,953.4375 Q842.9106,953.4375 843.145,953.7031 Q843.3794,953.9531 843.3794,954.5625 L843.3794,956.0156 Q843.3794,956.625 843.145,956.8906 Q842.9106,957.1563 842.5356,957.1563 Q842.1919,957.1563 841.9888,956.9531 Q841.7856,956.7656 841.6763,956.25 Q841.6294,955.8906 841.4419,955.7031 Q841.1138,955.3281 840.5044,955.1094 Q839.895,954.8906 839.27,954.8906 Q838.5044,954.8906 837.8638,955.2188 Q837.2388,955.5469 836.7388,956.2969 Q836.2544,957.0469 836.2544,958.0781 L836.2544,959.1719 Q836.2544,960.4063 837.145,961.2344 Q838.0356,962.0469 839.6294,962.0469 Q840.5669,962.0469 841.2231,961.7969 Q841.6138,961.6406 842.0356,961.2031 Q842.3013,960.9375 842.4419,960.8594 Q842.5981,960.7813 842.8013,960.7813 Q843.1294,960.7813 843.3794,961.0469 Q843.645,961.2969 843.645,961.6406 Q843.645,961.9844 843.3013,962.3906 Q842.8013,962.9688 842.0044,963.2969 Q840.9263,963.75 839.6294,963.75 Q838.1138,963.75 836.9106,963.125 Q835.9263,962.625 835.2388,961.5625 Q834.5513,960.4844 834.5513,959.2031 L834.5513,958.0469 Q834.5513,956.7188 835.1606,955.5781 Q835.7856,954.4219 836.8794,953.8125 Q837.9731,953.1875 839.2075,953.1875 Q839.9419,953.1875 840.5825,953.3594 Q841.2388,953.5156 841.7856,953.875 Z " fill="#000000"/><text fill="#000000" font-family="sans-serif" font-size="14" lengthAdjust="spacing" textLength="128" x="853.02" y="963.7285">NonClickableSquare</text><line style="stroke:#181818;stroke-width:0.5;" x1="825.02" x2="983.02" y1="974" y2="974"/><line style="stroke:#181818;stroke-width:0.5;" x1="825.02" x2="983.02" y1="982" y2="982"/></g><!--class StartView--><g id="elem_StartView"><rect codeLine="20" fill="#F1F1F1" height="48" id="StartView" rx="2.5" ry="2.5" style="stroke:#181818;stroke-width:0.5;" width="91" x="1221.52" y="276"/><ellipse cx="1236.52" cy="292" fill="#ADD1B2" rx="11" ry="11" style="stroke:#181818;stroke-width:1.0;"/><path d="M1239.2856,287.875 Q1239.4419,287.6563 1239.6294,287.5469 Q1239.8169,287.4375 1240.0356,287.4375 Q1240.4106,287.4375 1240.645,287.7031 Q1240.8794,287.9531 1240.8794,288.5625 L1240.8794,290.0156 Q1240.8794,290.625 1240.645,290.8906 Q1240.4106,291.1563 1240.0356,291.1563 Q1239.6919,291.1563 1239.4888,290.9531 Q1239.2856,290.7656 1239.1763,290.25 Q1239.1294,289.8906 1238.9419,289.7031 Q1238.6138,289.3281 1238.0044,289.1094 Q1237.395,288.8906 1236.77,288.8906 Q1236.0044,288.8906 1235.3638,289.2188 Q1234.7388,289.5469 1234.2388,290.2969 Q1233.7544,291.0469 1233.7544,292.0781 L1233.7544,293.1719 Q1233.7544,294.4063 1234.645,295.2344 Q1235.5356,296.0469 1237.1294,296.0469 Q1238.0669,296.0469 1238.7231,295.7969 Q1239.1138,295.6406 1239.5356,295.2031 Q1239.8013,294.9375 1239.9419,294.8594 Q1240.0981,294.7813 1240.3013,294.7813 Q1240.6294,294.7813 1240.8794,295.0469 Q1241.145,295.2969 1241.145,295.6406 Q1241.145,295.9844 1240.8013,296.3906 Q1240.3013,296.9688 1239.5044,297.2969 Q1238.4263,297.75 1237.1294,297.75 Q1235.6138,297.75 1234.4106,297.125 Q1233.4263,296.625 1232.7388,295.5625 Q1232.0513,294.4844 1232.0513,293.2031 L1232.0513,292.0469 Q1232.0513,290.7188 1232.6606,289.5781 Q1233.2856,288.4219 1234.3794,287.8125 Q1235.4731,287.1875 1236.7075,287.1875 Q1237.4419,287.1875 1238.0825,287.3594 Q1238.7388,287.5156 1239.2856,287.875 Z " fill="#000000"/><text fill="#000000" font-family="sans-serif" font-size="14" lengthAdjust="spacing" textLength="59" x="1250.52" y="297.7285">StartView</text><line style="stroke:#181818;stroke-width:0.5;" x1="1222.52" x2="1311.52" y1="308" y2="308"/><line style="stroke:#181818;stroke-width:0.5;" x1="1222.52" x2="1311.52" y1="316" y2="316"/></g><!--class TurnView--><g id="elem_TurnView"><rect codeLine="21" fill="#F1F1F1" height="48" id="TurnView" rx="2.5" ry="2.5" style="stroke:#181818;stroke-width:0.5;" width="91" x="1376.52" y="618"/><ellipse cx="1391.52" cy="634" fill="#ADD1B2" rx="11" ry="11" style="stroke:#181818;stroke-width:1.0;"/><path d="M1394.2856,629.875 Q1394.4419,629.6563 1394.6294,629.5469 Q1394.8169,629.4375 1395.0356,629.4375 Q1395.4106,629.4375 1395.645,629.7031 Q1395.8794,629.9531 1395.8794,630.5625 L1395.8794,632.0156 Q1395.8794,632.625 1395.645,632.8906 Q1395.4106,633.1563 1395.0356,633.1563 Q1394.6919,633.1563 1394.4888,632.9531 Q1394.2856,632.7656 1394.1763,632.25 Q1394.1294,631.8906 1393.9419,631.7031 Q1393.6138,631.3281 1393.0044,631.1094 Q1392.395,630.8906 1391.77,630.8906 Q1391.0044,630.8906 1390.3638,631.2188 Q1389.7388,631.5469 1389.2388,632.2969 Q1388.7544,633.0469 1388.7544,634.0781 L1388.7544,635.1719 Q1388.7544,636.4063 1389.645,637.2344 Q1390.5356,638.0469 1392.1294,638.0469 Q1393.0669,638.0469 1393.7231,637.7969 Q1394.1138,637.6406 1394.5356,637.2031 Q1394.8013,636.9375 1394.9419,636.8594 Q1395.0981,636.7813 1395.3013,636.7813 Q1395.6294,636.7813 1395.8794,637.0469 Q1396.145,637.2969 1396.145,637.6406 Q1396.145,637.9844 1395.8013,638.3906 Q1395.3013,638.9688 1394.5044,639.2969 Q1393.4263,639.75 1392.1294,639.75 Q1390.6138,639.75 1389.4106,639.125 Q1388.4263,638.625 1387.7388,637.5625 Q1387.0513,636.4844 1387.0513,635.2031 L1387.0513,634.0469 Q1387.0513,632.7188 1387.6606,631.5781 Q1388.2856,630.4219 1389.3794,629.8125 Q1390.4731,629.1875 1391.7075,629.1875 Q1392.4419,629.1875 1393.0825,629.3594 Q1393.7388,629.5156 1394.2856,629.875 Z " fill="#000000"/><text fill="#000000" font-family="sans-serif" font-size="14" lengthAdjust="spacing" textLength="59" x="1405.52" y="639.7285">TurnView</text><line style="stroke:#181818;stroke-width:0.5;" x1="1377.52" x2="1466.52" y1="650" y2="650"/><line style="stroke:#181818;stroke-width:0.5;" x1="1377.52" x2="1466.52" y1="658" y2="658"/></g><!--class UserPlayerBoardView--><g id="elem_UserPlayerBoardView"><rect codeLine="22" fill="#F1F1F1" height="48" id="UserPlayerBoardView" rx="2.5" ry="2.5" style="stroke:#181818;stroke-width:0.5;" width="168" x="1148.02" y="834"/><ellipse cx="1163.02" cy="850" fill="#ADD1B2" rx="11" ry="11" style="stroke:#181818;stroke-width:1.0;"/><path d="M1165.7856,845.875 Q1165.9419,845.6563 1166.1294,845.5469 Q1166.3169,845.4375 1166.5356,845.4375 Q1166.9106,845.4375 1167.145,845.7031 Q1167.3794,845.9531 1167.3794,846.5625 L1167.3794,848.0156 Q1167.3794,848.625 1167.145,848.8906 Q1166.9106,849.1563 1166.5356,849.1563 Q1166.1919,849.1563 1165.9888,848.9531 Q1165.7856,848.7656 1165.6763,848.25 Q1165.6294,847.8906 1165.4419,847.7031 Q1165.1138,847.3281 1164.5044,847.1094 Q1163.895,846.8906 1163.27,846.8906 Q1162.5044,846.8906 1161.8638,847.2188 Q1161.2388,847.5469 1160.7388,848.2969 Q1160.2544,849.0469 1160.2544,850.0781 L1160.2544,851.1719 Q1160.2544,852.4063 1161.145,853.2344 Q1162.0356,854.0469 1163.6294,854.0469 Q1164.5669,854.0469 1165.2231,853.7969 Q1165.6138,853.6406 1166.0356,853.2031 Q1166.3013,852.9375 1166.4419,852.8594 Q1166.5981,852.7813 1166.8013,852.7813 Q1167.1294,852.7813 1167.3794,853.0469 Q1167.645,853.2969 1167.645,853.6406 Q1167.645,853.9844 1167.3013,854.3906 Q1166.8013,854.9688 1166.0044,855.2969 Q1164.9263,855.75 1163.6294,855.75 Q1162.1138,855.75 1160.9106,855.125 Q1159.9263,854.625 1159.2388,853.5625 Q1158.5513,852.4844 1158.5513,851.2031 L1158.5513,850.0469 Q1158.5513,848.7188 1159.1606,847.5781 Q1159.7856,846.4219 1160.8794,845.8125 Q1161.9731,845.1875 1163.2075,845.1875 Q1163.9419,845.1875 1164.5825,845.3594 Q1165.2388,845.5156 1165.7856,845.875 Z " fill="#000000"/><text fill="#000000" font-family="sans-serif" font-size="14" lengthAdjust="spacing" textLength="136" x="1177.02" y="855.7285">UserPlayerBoardView</text><line style="stroke:#181818;stroke-width:0.5;" x1="1149.02" x2="1315.02" y1="866" y2="866"/><line style="stroke:#181818;stroke-width:0.5;" x1="1149.02" x2="1315.02" y1="874" y2="874"/></g><!--class PauseBoardView--><g id="elem_PauseBoardView"><rect codeLine="23" fill="#F1F1F1" height="48" id="PauseBoardView" rx="2.5" ry="2.5" style="stroke:#181818;stroke-width:0.5;" width="139" x="633.52" y="834"/><ellipse cx="648.52" cy="850" fill="#ADD1B2" rx="11" ry="11" style="stroke:#181818;stroke-width:1.0;"/><path d="M651.2856,845.875 Q651.4419,845.6563 651.6294,845.5469 Q651.8169,845.4375 652.0356,845.4375 Q652.4106,845.4375 652.645,845.7031 Q652.8794,845.9531 652.8794,846.5625 L652.8794,848.0156 Q652.8794,848.625 652.645,848.8906 Q652.4106,849.1563 652.0356,849.1563 Q651.6919,849.1563 651.4888,848.9531 Q651.2856,848.7656 651.1763,848.25 Q651.1294,847.8906 650.9419,847.7031 Q650.6138,847.3281 650.0044,847.1094 Q649.395,846.8906 648.77,846.8906 Q648.0044,846.8906 647.3638,847.2188 Q646.7388,847.5469 646.2388,848.2969 Q645.7544,849.0469 645.7544,850.0781 L645.7544,851.1719 Q645.7544,852.4063 646.645,853.2344 Q647.5356,854.0469 649.1294,854.0469 Q650.0669,854.0469 650.7231,853.7969 Q651.1138,853.6406 651.5356,853.2031 Q651.8013,852.9375 651.9419,852.8594 Q652.0981,852.7813 652.3013,852.7813 Q652.6294,852.7813 652.8794,853.0469 Q653.145,853.2969 653.145,853.6406 Q653.145,853.9844 652.8013,854.3906 Q652.3013,854.9688 651.5044,855.2969 Q650.4263,855.75 649.1294,855.75 Q647.6138,855.75 646.4106,855.125 Q645.4263,854.625 644.7388,853.5625 Q644.0513,852.4844 644.0513,851.2031 L644.0513,850.0469 Q644.0513,848.7188 644.6606,847.5781 Q645.2856,846.4219 646.3794,845.8125 Q647.4731,845.1875 648.7075,845.1875 Q649.4419,845.1875 650.0825,845.3594 Q650.7388,845.5156 651.2856,845.875 Z " fill="#000000"/><text fill="#000000" font-family="sans-serif" font-size="14" lengthAdjust="spacing" textLength="107" x="662.52" y="855.7285">PauseBoardView</text><line style="stroke:#181818;stroke-width:0.5;" x1="634.52" x2="771.52" y1="866" y2="866"/><line style="stroke:#181818;stroke-width:0.5;" x1="634.52" x2="771.52" y1="874" y2="874"/></g><!--class PanelView--><g id="elem_PanelView"><rect codeLine="24" fill="#F1F1F1" height="65.6094" id="PanelView" rx="2.5" ry="2.5" style="stroke:#181818;stroke-width:0.5;" width="97" x="1099.52" y="384"/><ellipse cx="1114.52" cy="400" fill="#A9DCDF" rx="11" ry="11" style="stroke:#181818;stroke-width:1.0;"/><path d="M1116.7075,401.7656 L1112.5669,401.7656 L1112.145,402.7969 L1112.5669,402.7969 Q1113.1763,402.7969 1113.4419,403.0313 Q1113.7075,403.2656 1113.7075,403.6563 Q1113.7075,404.0313 1113.4419,404.2656 Q1113.1763,404.5 1112.5669,404.5 L1110.27,404.5 Q1109.6606,404.5 1109.4106,404.2656 Q1109.145,404.0313 1109.145,403.6406 Q1109.145,403.2656 1109.4263,403.0313 Q1109.6919,402.7813 1110.3169,402.7969 L1112.9888,396.1406 L1111.8794,396.1406 Q1111.27,396.1406 1111.0044,395.9063 Q1110.7388,395.6719 1110.7388,395.2813 Q1110.7388,394.9063 1111.0044,394.6719 Q1111.27,394.4375 1111.8794,394.4375 L1115.5513,394.4375 L1118.9419,402.7969 Q1119.5356,402.7969 1119.7231,402.9375 Q1120.1138,403.2031 1120.1138,403.6563 Q1120.1138,404.0313 1119.8481,404.2656 Q1119.5981,404.5 1118.9888,404.5 L1116.6919,404.5 Q1116.0825,404.5 1115.8169,404.2656 Q1115.5513,404.0313 1115.5513,403.6406 Q1115.5513,403.2656 1115.8169,403.0313 Q1116.0825,402.7969 1116.6919,402.7969 L1117.1138,402.7969 L1116.7075,401.7656 Z M1115.9888,400.0625 L1114.6294,396.6875 L1113.2544,400.0625 L1115.9888,400.0625 Z " fill="#000000"/><text fill="#000000" font-family="sans-serif" font-size="14" font-style="italic" lengthAdjust="spacing" textLength="65" x="1128.52" y="405.7285">PanelView</text><line style="stroke:#181818;stroke-width:0.5;" x1="1100.52" x2="1195.52" y1="416" y2="416"/><line style="stroke:#181818;stroke-width:0.5;" x1="1100.52" x2="1195.52" y1="424" y2="424"/><ellipse cx="1110.52" cy="438.3047" fill="#84BE84" rx="3" ry="3" style="stroke:#038048;stroke-width:1.0;"/><text fill="#000000" font-family="sans-serif" font-size="14" lengthAdjust="spacing" textLength="39" x="1119.52" y="442.5332">write()</text></g><!--class PauseGameView--><g id="elem_PauseGameView"><rect codeLine="25" fill="#F1F1F1" height="48" id="PauseGameView" rx="2.5" ry="2.5" style="stroke:#181818;stroke-width:0.5;" width="139" x="1097.52" y="510"/><ellipse cx="1112.52" cy="526" fill="#ADD1B2" rx="11" ry="11" style="stroke:#181818;stroke-width:1.0;"/><path d="M1115.2856,521.875 Q1115.4419,521.6563 1115.6294,521.5469 Q1115.8169,521.4375 1116.0356,521.4375 Q1116.4106,521.4375 1116.645,521.7031 Q1116.8794,521.9531 1116.8794,522.5625 L1116.8794,524.0156 Q1116.8794,524.625 1116.645,524.8906 Q1116.4106,525.1563 1116.0356,525.1563 Q1115.6919,525.1563 1115.4888,524.9531 Q1115.2856,524.7656 1115.1763,524.25 Q1115.1294,523.8906 1114.9419,523.7031 Q1114.6138,523.3281 1114.0044,523.1094 Q1113.395,522.8906 1112.77,522.8906 Q1112.0044,522.8906 1111.3638,523.2188 Q1110.7388,523.5469 1110.2388,524.2969 Q1109.7544,525.0469 1109.7544,526.0781 L1109.7544,527.1719 Q1109.7544,528.4063 1110.645,529.2344 Q1111.5356,530.0469 1113.1294,530.0469 Q1114.0669,530.0469 1114.7231,529.7969 Q1115.1138,529.6406 1115.5356,529.2031 Q1115.8013,528.9375 1115.9419,528.8594 Q1116.0981,528.7813 1116.3013,528.7813 Q1116.6294,528.7813 1116.8794,529.0469 Q1117.145,529.2969 1117.145,529.6406 Q1117.145,529.9844 1116.8013,530.3906 Q1116.3013,530.9688 1115.5044,531.2969 Q1114.4263,531.75 1113.1294,531.75 Q1111.6138,531.75 1110.4106,531.125 Q1109.4263,530.625 1108.7388,529.5625 Q1108.0513,528.4844 1108.0513,527.2031 L1108.0513,526.0469 Q1108.0513,524.7188 1108.6606,523.5781 Q1109.2856,522.4219 1110.3794,521.8125 Q1111.4731,521.1875 1112.7075,521.1875 Q1113.4419,521.1875 1114.0825,521.3594 Q1114.7388,521.5156 1115.2856,521.875 Z " fill="#000000"/><text fill="#000000" font-family="sans-serif" font-size="14" lengthAdjust="spacing" textLength="107" x="1126.52" y="531.7285">PauseGameView</text><line style="stroke:#181818;stroke-width:0.5;" x1="1098.52" x2="1235.52" y1="542" y2="542"/><line style="stroke:#181818;stroke-width:0.5;" x1="1098.52" x2="1235.52" y1="550" y2="550"/></g><!--class PlayGameView--><g id="elem_PlayGameView"><rect codeLine="26" fill="#F1F1F1" height="48" id="PlayGameView" rx="2.5" ry="2.5" style="stroke:#181818;stroke-width:0.5;" width="126" x="1215.02" y="618"/><ellipse cx="1230.02" cy="634" fill="#ADD1B2" rx="11" ry="11" style="stroke:#181818;stroke-width:1.0;"/><path d="M1232.7856,629.875 Q1232.9419,629.6563 1233.1294,629.5469 Q1233.3169,629.4375 1233.5356,629.4375 Q1233.9106,629.4375 1234.145,629.7031 Q1234.3794,629.9531 1234.3794,630.5625 L1234.3794,632.0156 Q1234.3794,632.625 1234.145,632.8906 Q1233.9106,633.1563 1233.5356,633.1563 Q1233.1919,633.1563 1232.9888,632.9531 Q1232.7856,632.7656 1232.6763,632.25 Q1232.6294,631.8906 1232.4419,631.7031 Q1232.1138,631.3281 1231.5044,631.1094 Q1230.895,630.8906 1230.27,630.8906 Q1229.5044,630.8906 1228.8638,631.2188 Q1228.2388,631.5469 1227.7388,632.2969 Q1227.2544,633.0469 1227.2544,634.0781 L1227.2544,635.1719 Q1227.2544,636.4063 1228.145,637.2344 Q1229.0356,638.0469 1230.6294,638.0469 Q1231.5669,638.0469 1232.2231,637.7969 Q1232.6138,637.6406 1233.0356,637.2031 Q1233.3013,636.9375 1233.4419,636.8594 Q1233.5981,636.7813 1233.8013,636.7813 Q1234.1294,636.7813 1234.3794,637.0469 Q1234.645,637.2969 1234.645,637.6406 Q1234.645,637.9844 1234.3013,638.3906 Q1233.8013,638.9688 1233.0044,639.2969 Q1231.9263,639.75 1230.6294,639.75 Q1229.1138,639.75 1227.9106,639.125 Q1226.9263,638.625 1226.2388,637.5625 Q1225.5513,636.4844 1225.5513,635.2031 L1225.5513,634.0469 Q1225.5513,632.7188 1226.1606,631.5781 Q1226.7856,630.4219 1227.8794,629.8125 Q1228.9731,629.1875 1230.2075,629.1875 Q1230.9419,629.1875 1231.5825,629.3594 Q1232.2388,629.5156 1232.7856,629.875 Z " fill="#000000"/><text fill="#000000" font-family="sans-serif" font-size="14" lengthAdjust="spacing" textLength="94" x="1244.02" y="639.7285">PlayGameView</text><line style="stroke:#181818;stroke-width:0.5;" x1="1216.02" x2="1340.02" y1="650" y2="650"/><line style="stroke:#181818;stroke-width:0.5;" x1="1216.02" x2="1340.02" y1="658" y2="658"/></g><!--class PlayerBoardView--><g id="elem_PlayerBoardView"><rect codeLine="27" fill="#F1F1F1" height="48" id="PlayerBoardView" rx="2.5" ry="2.5" style="stroke:#181818;stroke-width:0.5;" width="139" x="834.52" y="726"/><ellipse cx="849.52" cy="742" fill="#A9DCDF" rx="11" ry="11" style="stroke:#181818;stroke-width:1.0;"/><path d="M851.7075,743.7656 L847.5669,743.7656 L847.145,744.7969 L847.5669,744.7969 Q848.1763,744.7969 848.4419,745.0313 Q848.7075,745.2656 848.7075,745.6563 Q848.7075,746.0313 848.4419,746.2656 Q848.1763,746.5 847.5669,746.5 L845.27,746.5 Q844.6606,746.5 844.4106,746.2656 Q844.145,746.0313 844.145,745.6406 Q844.145,745.2656 844.4263,745.0313 Q844.6919,744.7813 845.3169,744.7969 L847.9888,738.1406 L846.8794,738.1406 Q846.27,738.1406 846.0044,737.9063 Q845.7388,737.6719 845.7388,737.2813 Q845.7388,736.9063 846.0044,736.6719 Q846.27,736.4375 846.8794,736.4375 L850.5513,736.4375 L853.9419,744.7969 Q854.5356,744.7969 854.7231,744.9375 Q855.1138,745.2031 855.1138,745.6563 Q855.1138,746.0313 854.8481,746.2656 Q854.5981,746.5 853.9888,746.5 L851.6919,746.5 Q851.0825,746.5 850.8169,746.2656 Q850.5513,746.0313 850.5513,745.6406 Q850.5513,745.2656 850.8169,745.0313 Q851.0825,744.7969 851.6919,744.7969 L852.1138,744.7969 L851.7075,743.7656 Z M850.9888,742.0625 L849.6294,738.6875 L848.2544,742.0625 L850.9888,742.0625 Z " fill="#000000"/><text fill="#000000" font-family="sans-serif" font-size="14" font-style="italic" lengthAdjust="spacing" textLength="107" x="863.52" y="747.7285">PlayerBoardView</text><line style="stroke:#181818;stroke-width:0.5;" x1="835.52" x2="972.52" y1="758" y2="758"/><line style="stroke:#181818;stroke-width:0.5;" x1="835.52" x2="972.52" y1="766" y2="766"/></g><!--class View--><g id="elem_View"><rect codeLine="31" fill="#F1F1F1" height="48" id="View" rx="2.5" ry="2.5" style="stroke:#181818;stroke-width:0.5;" width="61" x="814.52" y="7"/><ellipse cx="829.52" cy="23" fill="#A9DCDF" rx="11" ry="11" style="stroke:#181818;stroke-width:1.0;"/><path d="M831.7075,24.7656 L827.5669,24.7656 L827.145,25.7969 L827.5669,25.7969 Q828.1763,25.7969 828.4419,26.0313 Q828.7075,26.2656 828.7075,26.6563 Q828.7075,27.0313 828.4419,27.2656 Q828.1763,27.5 827.5669,27.5 L825.27,27.5 Q824.6606,27.5 824.4106,27.2656 Q824.145,27.0313 824.145,26.6406 Q824.145,26.2656 824.4263,26.0313 Q824.6919,25.7813 825.3169,25.7969 L827.9888,19.1406 L826.8794,19.1406 Q826.27,19.1406 826.0044,18.9063 Q825.7388,18.6719 825.7388,18.2813 Q825.7388,17.9063 826.0044,17.6719 Q826.27,17.4375 826.8794,17.4375 L830.5513,17.4375 L833.9419,25.7969 Q834.5356,25.7969 834.7231,25.9375 Q835.1138,26.2031 835.1138,26.6563 Q835.1138,27.0313 834.8481,27.2656 Q834.5981,27.5 833.9888,27.5 L831.6919,27.5 Q831.0825,27.5 830.8169,27.2656 Q830.5513,27.0313 830.5513,26.6406 Q830.5513,26.2656 830.8169,26.0313 Q831.0825,25.7969 831.6919,25.7969 L832.1138,25.7969 L831.7075,24.7656 Z M830.9888,23.0625 L829.6294,19.6875 L828.2544,23.0625 L830.9888,23.0625 Z " fill="#000000"/><text fill="#000000" font-family="sans-serif" font-size="14" font-style="italic" lengthAdjust="spacing" textLength="29" x="843.52" y="28.7285">View</text><line style="stroke:#181818;stroke-width:0.5;" x1="815.52" x2="874.52" y1="39" y2="39"/><line style="stroke:#181818;stroke-width:0.5;" x1="815.52" x2="874.52" y1="47" y2="47"/></g><!--class Game--><g id="elem_Game"><rect codeLine="33" fill="#F1F1F1" height="48" id="Game" rx="2.5" ry="2.5" style="stroke:#181818;stroke-width:0.5;" width="70" x="42.02" y="618"/><ellipse cx="57.02" cy="634" fill="#ADD1B2" rx="11" ry="11" style="stroke:#181818;stroke-width:1.0;"/><path d="M59.7856,629.875 Q59.9419,629.6563 60.1294,629.5469 Q60.3169,629.4375 60.5356,629.4375 Q60.9106,629.4375 61.145,629.7031 Q61.3794,629.9531 61.3794,630.5625 L61.3794,632.0156 Q61.3794,632.625 61.145,632.8906 Q60.9106,633.1563 60.5356,633.1563 Q60.1919,633.1563 59.9888,632.9531 Q59.7856,632.7656 59.6763,632.25 Q59.6294,631.8906 59.4419,631.7031 Q59.1138,631.3281 58.5044,631.1094 Q57.895,630.8906 57.27,630.8906 Q56.5044,630.8906 55.8638,631.2188 Q55.2388,631.5469 54.7388,632.2969 Q54.2544,633.0469 54.2544,634.0781 L54.2544,635.1719 Q54.2544,636.4063 55.145,637.2344 Q56.0356,638.0469 57.6294,638.0469 Q58.5669,638.0469 59.2231,637.7969 Q59.6138,637.6406 60.0356,637.2031 Q60.3013,636.9375 60.4419,636.8594 Q60.5981,636.7813 60.8013,636.7813 Q61.1294,636.7813 61.3794,637.0469 Q61.645,637.2969 61.645,637.6406 Q61.645,637.9844 61.3013,638.3906 Q60.8013,638.9688 60.0044,639.2969 Q58.9263,639.75 57.6294,639.75 Q56.1138,639.75 54.9106,639.125 Q53.9263,638.625 53.2388,637.5625 Q52.5513,636.4844 52.5513,635.2031 L52.5513,634.0469 Q52.5513,632.7188 53.1606,631.5781 Q53.7856,630.4219 54.8794,629.8125 Q55.9731,629.1875 57.2075,629.1875 Q57.9419,629.1875 58.5825,629.3594 Q59.2388,629.5156 59.7856,629.875 Z " fill="#000000"/><text fill="#000000" font-family="sans-serif" font-size="14" lengthAdjust="spacing" textLength="38" x="71.02" y="639.7285">Game</text><line style="stroke:#181818;stroke-width:0.5;" x1="43.02" x2="111.02" y1="650" y2="650"/><line style="stroke:#181818;stroke-width:0.5;" x1="43.02" x2="111.02" y1="658" y2="658"/></g><!--class JOptionPane--><g id="elem_JOptionPane"><rect codeLine="34" fill="#F1F1F1" height="48" id="JOptionPane" rx="2.5" ry="2.5" style="stroke:#181818;stroke-width:0.5;" width="113" x="1500.52" y="276"/><ellipse cx="1515.52" cy="292" fill="#ADD1B2" rx="11" ry="11" style="stroke:#181818;stroke-width:1.0;"/><path d="M1518.2856,287.875 Q1518.4419,287.6563 1518.6294,287.5469 Q1518.8169,287.4375 1519.0356,287.4375 Q1519.4106,287.4375 1519.645,287.7031 Q1519.8794,287.9531 1519.8794,288.5625 L1519.8794,290.0156 Q1519.8794,290.625 1519.645,290.8906 Q1519.4106,291.1563 1519.0356,291.1563 Q1518.6919,291.1563 1518.4888,290.9531 Q1518.2856,290.7656 1518.1763,290.25 Q1518.1294,289.8906 1517.9419,289.7031 Q1517.6138,289.3281 1517.0044,289.1094 Q1516.395,288.8906 1515.77,288.8906 Q1515.0044,288.8906 1514.3638,289.2188 Q1513.7388,289.5469 1513.2388,290.2969 Q1512.7544,291.0469 1512.7544,292.0781 L1512.7544,293.1719 Q1512.7544,294.4063 1513.645,295.2344 Q1514.5356,296.0469 1516.1294,296.0469 Q1517.0669,296.0469 1517.7231,295.7969 Q1518.1138,295.6406 1518.5356,295.2031 Q1518.8013,294.9375 1518.9419,294.8594 Q1519.0981,294.7813 1519.3013,294.7813 Q1519.6294,294.7813 1519.8794,295.0469 Q1520.145,295.2969 1520.145,295.6406 Q1520.145,295.9844 1519.8013,296.3906 Q1519.3013,296.9688 1518.5044,297.2969 Q1517.4263,297.75 1516.1294,297.75 Q1514.6138,297.75 1513.4106,297.125 Q1512.4263,296.625 1511.7388,295.5625 Q1511.0513,294.4844 1511.0513,293.2031 L1511.0513,292.0469 Q1511.0513,290.7188 1511.6606,289.5781 Q1512.2856,288.4219 1513.3794,287.8125 Q1514.4731,287.1875 1515.7075,287.1875 Q1516.4419,287.1875 1517.0825,287.3594 Q1517.7388,287.5156 1518.2856,287.875 Z " fill="#000000"/><text fill="#000000" font-family="sans-serif" font-size="14" lengthAdjust="spacing" textLength="81" x="1529.52" y="297.7285">JOptionPane</text><line style="stroke:#181818;stroke-width:0.5;" x1="1501.52" x2="1612.52" y1="308" y2="308"/><line style="stroke:#181818;stroke-width:0.5;" x1="1501.52" x2="1612.52" y1="316" y2="316"/></g><!--class JFrame--><g id="elem_JFrame"><rect codeLine="40" fill="#F1F1F1" height="48" id="JFrame" rx="2.5" ry="2.5" style="stroke:#181818;stroke-width:0.5;" width="79" x="1090.52" y="7"/><ellipse cx="1105.52" cy="23" fill="#ADD1B2" rx="11" ry="11" style="stroke:#181818;stroke-width:1.0;"/><path d="M1108.2856,18.875 Q1108.4419,18.6563 1108.6294,18.5469 Q1108.8169,18.4375 1109.0356,18.4375 Q1109.4106,18.4375 1109.645,18.7031 Q1109.8794,18.9531 1109.8794,19.5625 L1109.8794,21.0156 Q1109.8794,21.625 1109.645,21.8906 Q1109.4106,22.1563 1109.0356,22.1563 Q1108.6919,22.1563 1108.4888,21.9531 Q1108.2856,21.7656 1108.1763,21.25 Q1108.1294,20.8906 1107.9419,20.7031 Q1107.6138,20.3281 1107.0044,20.1094 Q1106.395,19.8906 1105.77,19.8906 Q1105.0044,19.8906 1104.3638,20.2188 Q1103.7388,20.5469 1103.2388,21.2969 Q1102.7544,22.0469 1102.7544,23.0781 L1102.7544,24.1719 Q1102.7544,25.4063 1103.645,26.2344 Q1104.5356,27.0469 1106.1294,27.0469 Q1107.0669,27.0469 1107.7231,26.7969 Q1108.1138,26.6406 1108.5356,26.2031 Q1108.8013,25.9375 1108.9419,25.8594 Q1109.0981,25.7813 1109.3013,25.7813 Q1109.6294,25.7813 1109.8794,26.0469 Q1110.145,26.2969 1110.145,26.6406 Q1110.145,26.9844 1109.8013,27.3906 Q1109.3013,27.9688 1108.5044,28.2969 Q1107.4263,28.75 1106.1294,28.75 Q1104.6138,28.75 1103.4106,28.125 Q1102.4263,27.625 1101.7388,26.5625 Q1101.0513,25.4844 1101.0513,24.2031 L1101.0513,23.0469 Q1101.0513,21.7188 1101.6606,20.5781 Q1102.2856,19.4219 1103.3794,18.8125 Q1104.4731,18.1875 1105.7075,18.1875 Q1106.4419,18.1875 1107.0825,18.3594 Q1107.7388,18.5156 1108.2856,18.875 Z " fill="#000000"/><text fill="#000000" font-family="sans-serif" font-size="14" lengthAdjust="spacing" textLength="47" x="1119.52" y="28.7285">JFrame</text><line style="stroke:#181818;stroke-width:0.5;" x1="1091.52" x2="1168.52" y1="39" y2="39"/><line style="stroke:#181818;stroke-width:0.5;" x1="1091.52" x2="1168.52" y1="47" y2="47"/></g><!--class Player--><g id="elem_Player"><rect fill="#F1F1F1" height="48" id="Player" rx="2.5" ry="2.5" style="stroke:#181818;stroke-width:0.5;" width="72" x="1501.02" y="726"/><ellipse cx="1516.02" cy="742" fill="#ADD1B2" rx="11" ry="11" style="stroke:#181818;stroke-width:1.0;"/><path d="M1518.7856,737.875 Q1518.9419,737.6563 1519.1294,737.5469 Q1519.3169,737.4375 1519.5356,737.4375 Q1519.9106,737.4375 1520.145,737.7031 Q1520.3794,737.9531 1520.3794,738.5625 L1520.3794,740.0156 Q1520.3794,740.625 1520.145,740.8906 Q1519.9106,741.1563 1519.5356,741.1563 Q1519.1919,741.1563 1518.9888,740.9531 Q1518.7856,740.7656 1518.6763,740.25 Q1518.6294,739.8906 1518.4419,739.7031 Q1518.1138,739.3281 1517.5044,739.1094 Q1516.895,738.8906 1516.27,738.8906 Q1515.5044,738.8906 1514.8638,739.2188 Q1514.2388,739.5469 1513.7388,740.2969 Q1513.2544,741.0469 1513.2544,742.0781 L1513.2544,743.1719 Q1513.2544,744.4063 1514.145,745.2344 Q1515.0356,746.0469 1516.6294,746.0469 Q1517.5669,746.0469 1518.2231,745.7969 Q1518.6138,745.6406 1519.0356,745.2031 Q1519.3013,744.9375 1519.4419,744.8594 Q1519.5981,744.7813 1519.8013,744.7813 Q1520.1294,744.7813 1520.3794,745.0469 Q1520.645,745.2969 1520.645,745.6406 Q1520.645,745.9844 1520.3013,746.3906 Q1519.8013,746.9688 1519.0044,747.2969 Q1517.9263,747.75 1516.6294,747.75 Q1515.1138,747.75 1513.9106,747.125 Q1512.9263,746.625 1512.2388,745.5625 Q1511.5513,744.4844 1511.5513,743.2031 L1511.5513,742.0469 Q1511.5513,740.7188 1512.1606,739.5781 Q1512.7856,738.4219 1513.8794,737.8125 Q1514.9731,737.1875 1516.2075,737.1875 Q1516.9419,737.1875 1517.5825,737.3594 Q1518.2388,737.5156 1518.7856,737.875 Z " fill="#000000"/><text fill="#000000" font-family="sans-serif" font-size="14" lengthAdjust="spacing" textLength="40" x="1530.02" y="747.7285">Player</text><line style="stroke:#181818;stroke-width:0.5;" x1="1502.02" x2="1572.02" y1="758" y2="758"/><line style="stroke:#181818;stroke-width:0.5;" x1="1502.02" x2="1572.02" y1="766" y2="766"/></g><!--class PlayerType--><g id="elem_PlayerType"><rect fill="#F1F1F1" height="48" id="PlayerType" rx="2.5" ry="2.5" style="stroke:#181818;stroke-width:0.5;" width="104" x="1608.02" y="726"/><ellipse cx="1623.02" cy="742" fill="#ADD1B2" rx="11" ry="11" style="stroke:#181818;stroke-width:1.0;"/><path d="M1625.7856,737.875 Q1625.9419,737.6563 1626.1294,737.5469 Q1626.3169,737.4375 1626.5356,737.4375 Q1626.9106,737.4375 1627.145,737.7031 Q1627.3794,737.9531 1627.3794,738.5625 L1627.3794,740.0156 Q1627.3794,740.625 1627.145,740.8906 Q1626.9106,741.1563 1626.5356,741.1563 Q1626.1919,741.1563 1625.9888,740.9531 Q1625.7856,740.7656 1625.6763,740.25 Q1625.6294,739.8906 1625.4419,739.7031 Q1625.1138,739.3281 1624.5044,739.1094 Q1623.895,738.8906 1623.27,738.8906 Q1622.5044,738.8906 1621.8638,739.2188 Q1621.2388,739.5469 1620.7388,740.2969 Q1620.2544,741.0469 1620.2544,742.0781 L1620.2544,743.1719 Q1620.2544,744.4063 1621.145,745.2344 Q1622.0356,746.0469 1623.6294,746.0469 Q1624.5669,746.0469 1625.2231,745.7969 Q1625.6138,745.6406 1626.0356,745.2031 Q1626.3013,744.9375 1626.4419,744.8594 Q1626.5981,744.7813 1626.8013,744.7813 Q1627.1294,744.7813 1627.3794,745.0469 Q1627.645,745.2969 1627.645,745.6406 Q1627.645,745.9844 1627.3013,746.3906 Q1626.8013,746.9688 1626.0044,747.2969 Q1624.9263,747.75 1623.6294,747.75 Q1622.1138,747.75 1620.9106,747.125 Q1619.9263,746.625 1619.2388,745.5625 Q1618.5513,744.4844 1618.5513,743.2031 L1618.5513,742.0469 Q1618.5513,740.7188 1619.1606,739.5781 Q1619.7856,738.4219 1620.8794,737.8125 Q1621.9731,737.1875 1623.2075,737.1875 Q1623.9419,737.1875 1624.5825,737.3594 Q1625.2388,737.5156 1625.7856,737.875 Z " fill="#000000"/><text fill="#000000" font-family="sans-serif" font-size="14" lengthAdjust="spacing" textLength="72" x="1637.02" y="747.7285">PlayerType</text><line style="stroke:#181818;stroke-width:0.5;" x1="1609.02" x2="1711.02" y1="758" y2="758"/><line style="stroke:#181818;stroke-width:0.5;" x1="1609.02" x2="1711.02" y1="766" y2="766"/></g><!--class JPanel--><g id="elem_JPanel"><rect fill="#F1F1F1" height="48" id="JPanel" rx="2.5" ry="2.5" style="stroke:#181818;stroke-width:0.5;" width="74" x="1649.02" y="276"/><ellipse cx="1664.02" cy="292" fill="#ADD1B2" rx="11" ry="11" style="stroke:#181818;stroke-width:1.0;"/><path d="M1666.7856,287.875 Q1666.9419,287.6563 1667.1294,287.5469 Q1667.3169,287.4375 1667.5356,287.4375 Q1667.9106,287.4375 1668.145,287.7031 Q1668.3794,287.9531 1668.3794,288.5625 L1668.3794,290.0156 Q1668.3794,290.625 1668.145,290.8906 Q1667.9106,291.1563 1667.5356,291.1563 Q1667.1919,291.1563 1666.9888,290.9531 Q1666.7856,290.7656 1666.6763,290.25 Q1666.6294,289.8906 1666.4419,289.7031 Q1666.1138,289.3281 1665.5044,289.1094 Q1664.895,288.8906 1664.27,288.8906 Q1663.5044,288.8906 1662.8638,289.2188 Q1662.2388,289.5469 1661.7388,290.2969 Q1661.2544,291.0469 1661.2544,292.0781 L1661.2544,293.1719 Q1661.2544,294.4063 1662.145,295.2344 Q1663.0356,296.0469 1664.6294,296.0469 Q1665.5669,296.0469 1666.2231,295.7969 Q1666.6138,295.6406 1667.0356,295.2031 Q1667.3013,294.9375 1667.4419,294.8594 Q1667.5981,294.7813 1667.8013,294.7813 Q1668.1294,294.7813 1668.3794,295.0469 Q1668.645,295.2969 1668.645,295.6406 Q1668.645,295.9844 1668.3013,296.3906 Q1667.8013,296.9688 1667.0044,297.2969 Q1665.9263,297.75 1664.6294,297.75 Q1663.1138,297.75 1661.9106,297.125 Q1660.9263,296.625 1660.2388,295.5625 Q1659.5513,294.4844 1659.5513,293.2031 L1659.5513,292.0469 Q1659.5513,290.7188 1660.1606,289.5781 Q1660.7856,288.4219 1661.8794,287.8125 Q1662.9731,287.1875 1664.2075,287.1875 Q1664.9419,287.1875 1665.5825,287.3594 Q1666.2388,287.5156 1666.7856,287.875 Z " fill="#000000"/><text fill="#000000" font-family="sans-serif" font-size="14" lengthAdjust="spacing" textLength="42" x="1678.02" y="297.7285">JPanel</text><line style="stroke:#181818;stroke-width:0.5;" x1="1650.02" x2="1722.02" y1="308" y2="308"/><line style="stroke:#181818;stroke-width:0.5;" x1="1650.02" x2="1722.02" y1="316" y2="316"/></g><!--reverse link GraphicsView to JFrameViewFactory--><g id="link_GraphicsView_JFrameViewFactory"><path codeLine="30" d="M851.2513,225.3828 C833.9913,245.7928 822.59,259.28 808.7,275.72 " fill="none" id="GraphicsView-backto-JFrameViewFactory" style="stroke:#181818;stroke-width:1.0;"/><polygon fill="#181818" points="859,216.22,852.0714,218.2185,851.2513,225.3828,858.1799,223.3843,859,216.22" style="stroke:#181818;stroke-width:1.0;"/></g><!--reverse link View to GraphicsView--><g id="link_View_GraphicsView"><path codeLine="32" d="M861.7817,71.6624 C868.7317,88.1224 871.35,94.3 880.01,114.8 " fill="none" id="View-backto-GraphicsView" style="stroke:#181818;stroke-width:1.0;"/><polygon fill="none" points="854.78,55.08,856.2542,73.9963,867.3092,69.3285,854.78,55.08" style="stroke:#181818;stroke-width:1.0;"/></g><!--link GraphicsView to JOptionPane--><g id="link_GraphicsView_JOptionPane"><path codeLine="35" d="M960.03,187.65 C989.2,197.45 1025.13,208.55 1058.02,216 C1244.5,258.22 1297.54,233.79 1484.02,276 C1489.33,277.2 1489.0398,277.0009 1494.4998,278.5209 " fill="none" id="GraphicsView-to-JOptionPane" style="stroke:#181818;stroke-width:1.0;stroke-dasharray:7.0,7.0;"/><polygon fill="#181818" points="1500.28,280.13,1492.6825,273.8628,1495.4632,278.7891,1490.5369,281.5698,1500.28,280.13" style="stroke:#181818;stroke-width:1.0;"/></g><!--reverse link JFrameView to StartView--><g id="link_JFrameView_StartView"><path codeLine="37" d="M1185.1802,219.852 C1208.4502,242.352 1223.56,256.96 1243.07,275.84 " fill="none" id="JFrameView-backto-StartView" style="stroke:#181818;stroke-width:1.0;"/><polygon fill="none" points="1172.24,207.34,1181.0095,224.1654,1189.3509,215.5386,1172.24,207.34" style="stroke:#181818;stroke-width:1.0;"/></g><!--reverse link JFrameView to PlayView--><g id="link_JFrameView_PlayView"><path codeLine="38" d="M1062.4093,218.2842 C1033.0293,240.7842 1011.91,256.96 987.26,275.84 " fill="none" id="JFrameView-backto-PlayView" style="stroke:#181818;stroke-width:1.0;"/><polygon fill="none" points="1076.7,207.34,1058.7612,213.5206,1066.0574,223.0478,1076.7,207.34" style="stroke:#181818;stroke-width:1.0;"/></g><!--reverse link JFrameView to ResumeView--><g id="link_JFrameView_ResumeView"><path codeLine="39" d="M1130.02,225.34 C1130.02,247.84 1130.02,256.96 1130.02,275.84 " fill="none" id="JFrameView-backto-ResumeView" style="stroke:#181818;stroke-width:1.0;"/><polygon fill="none" points="1130.02,207.34,1124.02,225.34,1136.02,225.34,1130.02,207.34" style="stroke:#181818;stroke-width:1.0;"/></g><!--reverse link JFrame to JFrameView--><g id="link_JFrame_JFrameView"><path codeLine="41" d="M1130.02,73.08 C1130.02,91.99 1130.02,101.2 1130.02,123.76 " fill="none" id="JFrame-backto-JFrameView" style="stroke:#181818;stroke-width:1.0;"/><polygon fill="none" points="1130.02,55.08,1124.02,73.08,1136.02,73.08,1130.02,55.08" style="stroke:#181818;stroke-width:1.0;"/></g><!--link PlayView to Game--><g id="link_PlayView_Game"><path codeLine="42" d="M913,315.59 C903.79,318.49 894.11,321.44 885.02,324 C551.16,418.17 387.03,280.38 127.02,510 C95.27,538.04 84.4333,582.541 80.2033,611.981 " fill="none" id="PlayView-to-Game" style="stroke:#181818;stroke-width:1.0;"/><polygon fill="#181818" points="79.35,617.92,84.5893,609.5804,80.0611,612.9708,76.6707,608.4426,79.35,617.92" style="stroke:#181818;stroke-width:1.0;"/></g><!--reverse link PlayView to PanelView--><g id="link_PlayView_PanelView"><path codeLine="43" d="M1005.9496,330.4611 C1035.8196,348.4511 1067.07,367.26 1099.23,386.62 " fill="none" id="PlayView-backto-PanelView" style="stroke:#181818;stroke-width:1.0;"/><polygon fill="#181818" points="995.67,324.27,998.7461,330.7921,1005.9496,330.4611,1002.8735,323.939,995.67,324.27" style="stroke:#181818;stroke-width:1.0;"/></g><!--link PlayView to Command--><g id="link_PlayView_Command"><path codeLine="44" d="M920.8,324.27 C893.73,341.66 861.4783,362.3874 831.7883,381.4574 " fill="none" id="PlayView-to-Command" style="stroke:#181818;stroke-width:1.0;stroke-dasharray:7.0,7.0;"/><polygon fill="#181818" points="826.74,384.7,836.4742,383.2017,830.947,381.9979,832.1508,376.4706,826.74,384.7" style="stroke:#181818;stroke-width:1.0;"/></g><!--reverse link PlayView to MacroCommand--><g id="link_PlayView_MacroCommand"><path codeLine="45" d="M957.02,336.09 C957.02,380.45 957.02,465.1 957.02,509.66 " fill="none" id="PlayView-backto-MacroCommand" style="stroke:#181818;stroke-width:1.0;"/><polygon fill="#181818" points="957.02,324.09,953.02,330.09,957.02,336.09,961.02,330.09,957.02,324.09" style="stroke:#181818;stroke-width:1.0;"/></g><!--link PlayGameView to Player--><g id="link_PlayGameView_Player"><path codeLine="46" d="M1336.35,666.03 C1377.69,682.46 1434.4,705.24 1484.02,726 C1489.48,728.28 1489.7277,728.3706 1495.3577,730.7906 " fill="none" id="PlayGameView-to-Player" style="stroke:#181818;stroke-width:1.0;stroke-dasharray:7.0,7.0;"/><polygon fill="#181818" points="1500.87,733.16,1494.1811,725.931,1496.2764,731.1855,1491.0219,733.2808,1500.87,733.16" style="stroke:#181818;stroke-width:1.0;"/></g><!--link PlayGameView to PlayerType--><g id="link_PlayGameView_PlayerType"><path codeLine="47" d="M1341.21,661.1 C1347.23,662.77 1353.24,664.43 1359.02,666 C1461.81,693.88 1488.89,695.81 1591.02,726 C1596.47,727.61 1596.422,727.552 1602.052,729.342 " fill="none" id="PlayGameView-to-PlayerType" style="stroke:#181818;stroke-width:1.0;stroke-dasharray:7.0,7.0;"/><polygon fill="#181818" points="1607.77,731.16,1600.405,724.6211,1603.005,729.645,1597.9811,732.245,1607.77,731.16" style="stroke:#181818;stroke-width:1.0;"/></g><!--reverse link ResumeView to PanelView--><g id="link_ResumeView_PanelView"><path codeLine="49" d="M1135.5144,336.1258 C1138.1844,353.1958 1139.99,364.72 1142.95,383.61 " fill="none" id="ResumeView-backto-PanelView" style="stroke:#181818;stroke-width:1.0;"/><polygon fill="#181818" points="1133.66,324.27,1130.6353,330.8161,1135.5144,336.1258,1138.5392,329.5798,1133.66,324.27" style="stroke:#181818;stroke-width:1.0;"/></g><!--link JFrameViewFactory to Game--><g id="link_JFrameViewFactory_Game"><path codeLine="51" d="M710.98,304.19 C532.68,312.27 107.5,336.38 65.02,384 C6,450.17 43.4017,562.706 64.2217,612.406 " fill="none" id="JFrameViewFactory-to-Game" style="stroke:#181818;stroke-width:1.0;"/><polygon fill="#181818" points="66.54,617.94,66.7519,608.0934,64.6081,613.3283,59.3732,611.1845,66.54,617.94" style="stroke:#181818;stroke-width:1.0;"/></g><!--reverse link View to JFrameViewFactory--><g id="link_View_JFrameViewFactory"><path codeLine="52" d="M828.8611,60.7936 C826.3911,65.8136 826.72,65.79 825.02,71 C801.41,143.39 793.02,233.92 790.26,275.78 " fill="none" id="View-backto-JFrameViewFactory" style="stroke:#181818;stroke-width:1.0;stroke-dasharray:7.0,7.0;"/><polygon fill="#181818" points="831.51,55.41,823.9476,61.7195,829.3026,59.8963,831.1257,65.2514,831.51,55.41" style="stroke:#181818;stroke-width:1.0;"/></g><!--link JFrameViewFactory to Command--><g id="link_JFrameViewFactory_Command"><path codeLine="53" d="M786.79,324.27 C785.16,341.34 783.5023,358.7474 781.6923,377.6374 " fill="none" id="JFrameViewFactory-to-Command" style="stroke:#181818;stroke-width:1.0;stroke-dasharray:7.0,7.0;"/><polygon fill="#181818" points="781.12,383.61,785.9602,375.0326,781.5969,378.6328,777.9967,374.2695,781.12,383.61" style="stroke:#181818;stroke-width:1.0;"/></g><!--link JFrameViewFactory to PanelView--><g id="link_JFrameViewFactory_PanelView"><path codeLine="54" d="M861.24,324.13 C932.08,346.83 1032.4261,378.9693 1093.7561,398.6193 " fill="none" id="JFrameViewFactory-to-PanelView" style="stroke:#181818;stroke-width:1.0;stroke-dasharray:7.0,7.0;"/><polygon fill="#181818" points="1099.47,400.45,1092.1197,393.8947,1094.7084,398.9244,1089.6787,401.5132,1099.47,400.45" style="stroke:#181818;stroke-width:1.0;"/></g><!--reverse link Command to MacroCommand--><g id="link_Command_MacroCommand"><path codeLine="56" d="M842.0734,459.1503 C871.7834,478.2403 893.92,492.46 920.95,509.82 " fill="none" id="Command-backto-MacroCommand" style="stroke:#181818;stroke-width:1.0;"/><polygon fill="none" points="826.93,449.42,838.8299,464.1981,845.3168,454.1025,826.93,449.42" style="stroke:#181818;stroke-width:1.0;"/></g><!--reverse link Command to MakeInvisibleCommand--><g id="link_Command_MakeInvisibleCommand"><path codeLine="57" d="M713.7363,454.5937 C679.1763,474.2637 648.97,491.47 616.42,510 " fill="none" id="Command-backto-MakeInvisibleCommand" style="stroke:#181818;stroke-width:1.0;"/><polygon fill="none" points="729.38,445.69,710.7684,449.3791,716.7042,459.8082,729.38,445.69" style="stroke:#181818;stroke-width:1.0;"/></g><!--reverse link Command to NextTurnCommand--><g id="link_Command_NextTurnCommand"><path codeLine="58" d="M778.02,468.03 C778.02,487.04 778.02,492.7 778.02,509.89 " fill="none" id="Command-backto-NextTurnCommand" style="stroke:#181818;stroke-width:1.0;"/><polygon fill="none" points="778.02,450.03,772.02,468.03,784.02,468.03,778.02,450.03" style="stroke:#181818;stroke-width:1.0;"/></g><!--reverse link Command to PlayCommand--><g id="link_Command_PlayCommand"><path codeLine="59" d="M711.7321,428.3189 C623.1221,442.3689 447.11,471.87 286.02,510 C280.11,511.4 273.99,512.96 267.89,514.58 " fill="none" id="Command-backto-PlayCommand" style="stroke:#181818;stroke-width:1.0;"/><polygon fill="none" points="729.51,425.5,710.7925,422.3929,712.6717,434.2448,729.51,425.5" style="stroke:#181818;stroke-width:1.0;"/></g><!--reverse link Command to ResumeCommand--><g id="link_Command_ResumeCommand"><path codeLine="60" d="M711.9472,436.9511 C642.6472,456.8211 532.42,488.43 451.32,511.69 " fill="none" id="Command-backto-ResumeCommand" style="stroke:#181818;stroke-width:1.0;"/><polygon fill="none" points="729.25,431.99,710.2935,431.1835,713.6009,442.7187,729.25,431.99" style="stroke:#181818;stroke-width:1.0;"/></g><!--reverse link BoardView to PlayerBoardView--><g id="link_BoardView_PlayerBoardView"><path codeLine="62" d="M954.4291,680.496 C941.4291,698.156 934.23,707.94 921.18,725.68 " fill="none" id="BoardView-backto-PlayerBoardView" style="stroke:#181818;stroke-width:1.0;"/><polygon fill="none" points="965.1,666,949.5972,676.939,959.2611,684.0529,965.1,666" style="stroke:#181818;stroke-width:1.0;"/></g><!--reverse link PlayerBoardView to MachinePlayerBoardView--><g id="link_PlayerBoardView_MachinePlayerBoardView"><path codeLine="63" d="M904.02,792 C904.02,809.66 904.02,815.94 904.02,833.68 " fill="none" id="PlayerBoardView-backto-MachinePlayerBoardView" style="stroke:#181818;stroke-width:1.0;"/><polygon fill="none" points="904.02,774,898.02,792,910.02,792,904.02,774" style="stroke:#181818;stroke-width:1.0;"/></g><!--reverse link PlayerBoardView to UserPlayerBoardView--><g id="link_PlayerBoardView_UserPlayerBoardView"><path codeLine="64" d="M990.7076,779.0159 C1045.7176,796.7959 1105.09,815.98 1160.58,833.91 " fill="none" id="PlayerBoardView-backto-UserPlayerBoardView" style="stroke:#181818;stroke-width:1.0;"/><polygon fill="none" points="973.58,773.48,988.8623,784.7251,992.5529,773.3067,973.58,773.48" style="stroke:#181818;stroke-width:1.0;"/></g><!--reverse link BoardView to PauseBoardView--><g id="link_BoardView_PauseBoardView"><path codeLine="65" d="M915.6087,669.0342 C881.2587,683.5442 852.22,698.66 817.02,726 C776.3,757.62 739.12,805.45 718.91,833.72 " fill="none" id="BoardView-backto-PauseBoardView" style="stroke:#181818;stroke-width:1.0;"/><polygon fill="none" points="932.19,662.03,913.2739,663.5071,917.9434,674.5613,932.19,662.03" style="stroke:#181818;stroke-width:1.0;"/></g><!--reverse link JPanel to PanelView--><g id="link_JPanel_PanelView"><path codeLine="67" d="M1632.063,324.3174 C1626.173,326.6174 1636.87,322.24 1631.02,324 C1475.71,370.71 1284.88,398.76 1196.81,410.12 " fill="none" id="JPanel-backto-PanelView" style="stroke:#181818;stroke-width:1.0;"/><polygon fill="none" points="1648.83,317.77,1629.8806,318.7284,1634.2455,329.9064,1648.83,317.77" style="stroke:#181818;stroke-width:1.0;"/></g><!--reverse link PanelView to BoardView--><g id="link_PanelView_BoardView"><path codeLine="68" d="M1113.1318,464.8687 C1079.2318,510.4087 1029.09,577.77 999.34,617.74 " fill="none" id="PanelView-backto-BoardView" style="stroke:#181818;stroke-width:1.0;"/><polygon fill="none" points="1123.88,450.43,1108.3189,461.286,1117.9447,468.4514,1123.88,450.43" style="stroke:#181818;stroke-width:1.0;"/></g><!--reverse link PanelView to PlayerSelectionView--><g id="link_PanelView_PlayerSelectionView"><path codeLine="69" d="M1212.3032,454.4192 C1247.0232,474.0792 1277.54,491.37 1310.31,509.94 " fill="none" id="PanelView-backto-PlayerSelectionView" style="stroke:#181818;stroke-width:1.0;"/><polygon fill="none" points="1196.64,445.55,1209.3468,459.6403,1215.2596,449.1981,1196.64,445.55" style="stroke:#181818;stroke-width:1.0;"/></g><!--reverse link PanelView to TurnView--><g id="link_PanelView_TurnView"><path codeLine="70" d="M1214.3313,428.8884 C1291.3013,442.3384 1417.94,469.32 1448.02,510 C1471.59,541.88 1452.07,589.62 1436.51,617.81 " fill="none" id="PanelView-backto-TurnView" style="stroke:#181818;stroke-width:1.0;"/><polygon fill="none" points="1196.6,425.79,1213.2985,434.7989,1215.3641,422.978,1196.6,425.79" style="stroke:#181818;stroke-width:1.0;"/></g><!--reverse link PanelView to PauseGameView--><g id="link_PanelView_PauseGameView"><path codeLine="71" d="M1156.2434,467.7894 C1159.3834,486.7994 1160.36,492.7 1163.2,509.89 " fill="none" id="PanelView-backto-PauseGameView" style="stroke:#181818;stroke-width:1.0;"/><polygon fill="none" points="1153.31,450.03,1150.3236,468.7672,1162.1632,466.8116,1153.31,450.03" style="stroke:#181818;stroke-width:1.0;"/></g><!--link PauseGameView to Game--><g id="link_PauseGameView_Game"><path codeLine="73" d="M1097.49,549.28 C1079.49,552.57 1060.09,555.75 1042.02,558 C638.04,608.25 523,519.41 128.02,618 C122.74,619.32 122.9089,618.9519 117.6789,621.0219 " fill="none" id="PauseGameView-to-Game" style="stroke:#181818;stroke-width:1.0;"/><polygon fill="#181818" points="112.1,623.23,121.9404,623.6371,116.7491,621.3899,118.9963,616.1986,112.1,623.23" style="stroke:#181818;stroke-width:1.0;"/></g><!--reverse link PauseGameView to BoardView--><g id="link_PauseGameView_BoardView"><path codeLine="74" d="M1116.4677,563.9653 C1085.5377,581.6853 1053.39,600.11 1022.4,617.86 " fill="none" id="PauseGameView-backto-BoardView" style="stroke:#181818;stroke-width:1.0;"/><polygon fill="none" points="1126.88,558,1119.6854,557.5119,1116.4677,563.9653,1123.6623,564.4534,1126.88,558" style="stroke:#181818;stroke-width:1.0;"/></g><!--reverse link PauseGameView to TurnView--><g id="link_PauseGameView_TurnView"><path codeLine="75" d="M1233.4309,562.6058 C1279.4309,581.7258 1333.02,604.01 1376.17,621.94 " fill="none" id="PauseGameView-backto-TurnView" style="stroke:#181818;stroke-width:1.0;"/><polygon fill="#181818" points="1222.35,558,1226.3552,563.9965,1233.4309,562.6058,1229.4257,556.6093,1222.35,558" style="stroke:#181818;stroke-width:1.0;"/></g><!--reverse link PauseGameView to PlayGameView--><g id="link_PauseGameView_PlayGameView"><path codeLine="76" d="M1204.1267,570.4324 C1222.6167,588.0924 1235.02,599.94 1253.6,617.68 " fill="none" id="PauseGameView-backto-PlayGameView" style="stroke:#181818;stroke-width:1.0;"/><polygon fill="none" points="1191.11,558,1199.9826,574.7713,1208.2709,566.0935,1191.11,558" style="stroke:#181818;stroke-width:1.0;"/></g><!--reverse link PlayGameView to BoardViewPrototypeRegistry--><g id="link_PlayGameView_BoardViewPrototypeRegistry"><path codeLine="77" d="M1303.152,675.4919 C1316.812,693.1519 1328.26,707.94 1341.98,725.68 " fill="none" id="PlayGameView-backto-BoardViewPrototypeRegistry" style="stroke:#181818;stroke-width:1.0;"/><polygon fill="#181818" points="1295.81,666,1296.317,673.1933,1303.152,675.4919,1302.6449,668.2986,1295.81,666" style="stroke:#181818;stroke-width:1.0;"/></g><!--link PlayGameView to BoardViewPrototypeDirector--><g id="link_PlayGameView_BoardViewPrototypeDirector"><path codeLine="78" d="M1242.44,666 C1215.02,683.72 1182.3295,704.8537 1154.8595,722.6037 " fill="none" id="PlayGameView-to-BoardViewPrototypeDirector" style="stroke:#181818;stroke-width:1.0;stroke-dasharray:7.0,7.0;"/><polygon fill="#181818" points="1149.82,725.86,1159.5501,724.3352,1154.0196,723.1464,1155.2084,717.6159,1149.82,725.86" style="stroke:#181818;stroke-width:1.0;"/></g><!--reverse link MachinePlayerBoardView to NonClickableSquare--><g id="link_MachinePlayerBoardView_NonClickableSquare"><path codeLine="80" d="M904.02,894 C904.02,911.66 904.02,923.94 904.02,941.68 " fill="none" id="MachinePlayerBoardView-backto-NonClickableSquare" style="stroke:#181818;stroke-width:1.0;"/><polygon fill="none" points="904.02,882,900.02,888,904.02,894,908.02,888,904.02,882" style="stroke:#181818;stroke-width:1.0;"/></g><!--reverse link UserPlayerBoardView to ClickableSquare--><g id="link_UserPlayerBoardView_ClickableSquare"><path codeLine="81" d="M1209.3745,891.8836 C1197.2145,909.5436 1187.3,923.94 1175.08,941.68 " fill="none" id="UserPlayerBoardView-backto-ClickableSquare" style="stroke:#181818;stroke-width:1.0;"/><polygon fill="none" points="1216.18,882,1209.4827,884.6733,1209.3745,891.8836,1216.0718,889.2103,1216.18,882" style="stroke:#181818;stroke-width:1.0;"/></g><!--reverse link PauseBoardView to NonClickableSquare--><g id="link_PauseBoardView_NonClickableSquare"><path codeLine="82" d="M757.2444,887.5978 C790.8444,905.3178 826.48,924.11 860.15,941.86 " fill="none" id="PauseBoardView-backto-NonClickableSquare" style="stroke:#181818;stroke-width:1.0;"/><polygon fill="none" points="746.63,882,750.0712,888.337,757.2444,887.5978,753.8031,881.2608,746.63,882" style="stroke:#181818;stroke-width:1.0;"/></g><!--reverse link Square to ClickableSquare--><g id="link_Square_ClickableSquare"><path codeLine="84" d="M1103.72,896.0432 C1117.88,913.7032 1126.1,923.94 1140.32,941.68 " fill="none" id="Square-backto-ClickableSquare" style="stroke:#181818;stroke-width:1.0;"/><polygon fill="none" points="1092.46,882,1099.0389,899.7966,1108.4011,892.2899,1092.46,882" style="stroke:#181818;stroke-width:1.0;"/></g><!--reverse link Square to NonClickableSquare--><g id="link_Square_NonClickableSquare"><path codeLine="85" d="M1021.8573,891.526 C993.4473,909.246 969.6,924.11 941.13,941.86 " fill="none" id="Square-backto-NonClickableSquare" style="stroke:#181818;stroke-width:1.0;"/><polygon fill="none" points="1037.13,882,1018.682,886.4351,1025.0326,896.6169,1037.13,882" style="stroke:#181818;stroke-width:1.0;"/></g><!--SRC=[XLPDJ-Cm4BtxL-IuWDeVW127PKL59Q2YmDs40IpIkDWkRBNBVySVZUrnnksfoRmtdcVFywJyIHl5MzEq7TUwULLy_IPQFVqjkNf-5F35Qi12IIFDTWr_X8BMI7MOUGUlmfRRCj4RK2-yXSI-aAiLxvyPhmYQNog-0afHGYwvqx4j2RFT0vLypTitqSEYurjGrKrRbfA3mX7s3bVzfz3YgOCAvmR-clkDwYkmgxu70hM4pXwna3qbpb6e-1te3NrY0QbKN7vik88oUj69zftR7TBmZUmFC9Q6AqE9SUT2nHyqg0DjMV2DXeJMhBFWFNJL_5d5LgvsnAfB5m8PoytM74ycpTYUnM8-qTFF_bi-uLOdO_Sulrqx7xWjuLBJwJa2MQeRraqDA95ee18OEIWGThp0oUxbi4upcPm7pJ7Y3YAr8OQTwC66Y8ikNDu9dn9ElHQ_jvE6iQIzACv63KbwmzQdn4WP9-NQQJIhkIE68qERAn1YbY16EKaGcCyH1E0Bpw9VKrfkuk8zYgO69ScbhcvP4rzTDlU7DM3HACDJ0BAo6A2cP469OwPCHJE0eTVCo2Wi2oqvTenhvL2KEijl3ChSyyqSkNtFbvZHtVB2YL5DzCjJInvkMcqr5dx3TaimnwXSDDDEcnFjfjQler5yRUKIOUMDRe5ybjcu_yDXhwP5CA31U4EubEGC2tmfOVn2mqKwRVuDW_kxEMb3r19-0000]--></g></svg>