<?xml version="1.0" encoding="us-ascii" standalone="no"?><svg xmlns="http://www.w3.org/2000/svg" xmlns:xlink="http://www.w3.org/1999/xlink" contentStyleType="text/css" height="942px" preserveAspectRatio="none" style="width:1747px;height:942px;background:#FFFFFF;" version="1.1" viewBox="0 0 1747 942" width="1747px" zoomAndPan="magnify"><defs/><g><!--cluster graphics--><g id="cluster_graphics"><path d="M236.5,79 L298.5,79 A3.75,3.75 0 0 1 301,81.5 L308,102.6094 L1594.5,102.6094 A2.5,2.5 0 0 1 1597,105.1094 L1597,932.5 A2.5,2.5 0 0 1 1594.5,935 L236.5,935 A2.5,2.5 0 0 1 234,932.5 L234,81.5 A2.5,2.5 0 0 1 236.5,79 " fill="none" style="stroke:#000000;stroke-width:1.5;"/><line style="stroke:#000000;stroke-width:1.5;" x1="234" x2="308" y1="102.6094" y2="102.6094"/><text fill="#000000" font-family="sans-serif" font-size="14" font-weight="bold" lengthAdjust="spacing" textLength="61" x="238" y="95.5332">graphics</text></g><!--class FrameView--><g id="elem_FrameView"><rect codeLine="1" fill="#F1F1F1" height="48" id="FrameView" rx="2.5" ry="2.5" style="stroke:#181818;stroke-width:0.5;" width="102" x="704" y="115"/><ellipse cx="719" cy="131" fill="#B4A7E5" rx="11" ry="11" style="stroke:#181818;stroke-width:1.0;"/><path d="M719.9531,127.6406 L719.9531,134.2969 L721.6719,134.2969 Q722.2813,134.2969 722.5469,134.5313 Q722.8125,134.7656 722.8125,135.1563 Q722.8125,135.5313 722.5469,135.7656 Q722.2813,136 721.6719,136 L716.5313,136 Q715.9219,136 715.6563,135.7656 Q715.3906,135.5313 715.3906,135.1406 Q715.3906,134.7656 715.6563,134.5313 Q715.9219,134.2969 716.5313,134.2969 L718.25,134.2969 L718.25,127.6406 L716.5313,127.6406 Q715.9219,127.6406 715.6563,127.4063 Q715.3906,127.1719 715.3906,126.7813 Q715.3906,126.4063 715.6563,126.1719 Q715.9219,125.9375 716.5313,125.9375 L721.6719,125.9375 Q722.2813,125.9375 722.5469,126.1719 Q722.8125,126.4063 722.8125,126.7813 Q722.8125,127.1719 722.5469,127.4063 Q722.2813,127.6406 721.6719,127.6406 L719.9531,127.6406 Z " fill="#000000"/><text fill="#000000" font-family="sans-serif" font-size="14" font-style="italic" lengthAdjust="spacing" textLength="70" x="733" y="136.7285">FrameView</text><line style="stroke:#181818;stroke-width:0.5;" x1="705" x2="805" y1="147" y2="147"/><line style="stroke:#181818;stroke-width:0.5;" x1="705" x2="805" y1="155" y2="155"/></g><!--class MainFrame--><g id="elem_MainFrame"><rect codeLine="2" fill="#F1F1F1" height="48" id="MainFrame" rx="2.5" ry="2.5" style="stroke:#181818;stroke-width:0.5;" width="103" x="760.5" y="223"/><ellipse cx="775.5" cy="239" fill="#ADD1B2" rx="11" ry="11" style="stroke:#181818;stroke-width:1.0;"/><path d="M778.2656,234.875 Q778.4219,234.6563 778.6094,234.5469 Q778.7969,234.4375 779.0156,234.4375 Q779.3906,234.4375 779.625,234.7031 Q779.8594,234.9531 779.8594,235.5625 L779.8594,237.0156 Q779.8594,237.625 779.625,237.8906 Q779.3906,238.1563 779.0156,238.1563 Q778.6719,238.1563 778.4688,237.9531 Q778.2656,237.7656 778.1563,237.25 Q778.1094,236.8906 777.9219,236.7031 Q777.5938,236.3281 776.9844,236.1094 Q776.375,235.8906 775.75,235.8906 Q774.9844,235.8906 774.3438,236.2188 Q773.7188,236.5469 773.2188,237.2969 Q772.7344,238.0469 772.7344,239.0781 L772.7344,240.1719 Q772.7344,241.4063 773.625,242.2344 Q774.5156,243.0469 776.1094,243.0469 Q777.0469,243.0469 777.7031,242.7969 Q778.0938,242.6406 778.5156,242.2031 Q778.7813,241.9375 778.9219,241.8594 Q779.0781,241.7813 779.2813,241.7813 Q779.6094,241.7813 779.8594,242.0469 Q780.125,242.2969 780.125,242.6406 Q780.125,242.9844 779.7813,243.3906 Q779.2813,243.9688 778.4844,244.2969 Q777.4063,244.75 776.1094,244.75 Q774.5938,244.75 773.3906,244.125 Q772.4063,243.625 771.7188,242.5625 Q771.0313,241.4844 771.0313,240.2031 L771.0313,239.0469 Q771.0313,237.7188 771.6406,236.5781 Q772.2656,235.4219 773.3594,234.8125 Q774.4531,234.1875 775.6875,234.1875 Q776.4219,234.1875 777.0625,234.3594 Q777.7188,234.5156 778.2656,234.875 Z " fill="#000000"/><text fill="#000000" font-family="sans-serif" font-size="14" lengthAdjust="spacing" textLength="71" x="789.5" y="244.7285">MainFrame</text><line style="stroke:#181818;stroke-width:0.5;" x1="761.5" x2="862.5" y1="255" y2="255"/><line style="stroke:#181818;stroke-width:0.5;" x1="761.5" x2="862.5" y1="263" y2="263"/></g><!--class GameLoopView--><g id="elem_GameLoopView"><rect codeLine="3" fill="#F1F1F1" height="48" id="GameLoopView" rx="2.5" ry="2.5" style="stroke:#181818;stroke-width:0.5;" width="131" x="790.5" y="331"/><ellipse cx="805.5" cy="347" fill="#B4A7E5" rx="11" ry="11" style="stroke:#181818;stroke-width:1.0;"/><path d="M806.4531,343.6406 L806.4531,350.2969 L808.1719,350.2969 Q808.7813,350.2969 809.0469,350.5313 Q809.3125,350.7656 809.3125,351.1563 Q809.3125,351.5313 809.0469,351.7656 Q808.7813,352 808.1719,352 L803.0313,352 Q802.4219,352 802.1563,351.7656 Q801.8906,351.5313 801.8906,351.1406 Q801.8906,350.7656 802.1563,350.5313 Q802.4219,350.2969 803.0313,350.2969 L804.75,350.2969 L804.75,343.6406 L803.0313,343.6406 Q802.4219,343.6406 802.1563,343.4063 Q801.8906,343.1719 801.8906,342.7813 Q801.8906,342.4063 802.1563,342.1719 Q802.4219,341.9375 803.0313,341.9375 L808.1719,341.9375 Q808.7813,341.9375 809.0469,342.1719 Q809.3125,342.4063 809.3125,342.7813 Q809.3125,343.1719 809.0469,343.4063 Q808.7813,343.6406 808.1719,343.6406 L806.4531,343.6406 Z " fill="#000000"/><text fill="#000000" font-family="sans-serif" font-size="14" font-style="italic" lengthAdjust="spacing" textLength="99" x="819.5" y="352.7285">GameLoopView</text><line style="stroke:#181818;stroke-width:0.5;" x1="791.5" x2="920.5" y1="363" y2="363"/><line style="stroke:#181818;stroke-width:0.5;" x1="791.5" x2="920.5" y1="371" y2="371"/></g><!--class BoardView--><g id="elem_BoardView"><rect codeLine="4" fill="#F1F1F1" height="48" id="BoardView" rx="2.5" ry="2.5" style="stroke:#181818;stroke-width:0.5;" width="99" x="1074.5" y="547"/><ellipse cx="1089.5" cy="563" fill="#A9DCDF" rx="11" ry="11" style="stroke:#181818;stroke-width:1.0;"/><path d="M1091.6875,564.7656 L1087.5469,564.7656 L1087.125,565.7969 L1087.5469,565.7969 Q1088.1563,565.7969 1088.4219,566.0313 Q1088.6875,566.2656 1088.6875,566.6563 Q1088.6875,567.0313 1088.4219,567.2656 Q1088.1563,567.5 1087.5469,567.5 L1085.25,567.5 Q1084.6406,567.5 1084.3906,567.2656 Q1084.125,567.0313 1084.125,566.6406 Q1084.125,566.2656 1084.4063,566.0313 Q1084.6719,565.7813 1085.2969,565.7969 L1087.9688,559.1406 L1086.8594,559.1406 Q1086.25,559.1406 1085.9844,558.9063 Q1085.7188,558.6719 1085.7188,558.2813 Q1085.7188,557.9063 1085.9844,557.6719 Q1086.25,557.4375 1086.8594,557.4375 L1090.5313,557.4375 L1093.9219,565.7969 Q1094.5156,565.7969 1094.7031,565.9375 Q1095.0938,566.2031 1095.0938,566.6563 Q1095.0938,567.0313 1094.8281,567.2656 Q1094.5781,567.5 1093.9688,567.5 L1091.6719,567.5 Q1091.0625,567.5 1090.7969,567.2656 Q1090.5313,567.0313 1090.5313,566.6406 Q1090.5313,566.2656 1090.7969,566.0313 Q1091.0625,565.7969 1091.6719,565.7969 L1092.0938,565.7969 L1091.6875,564.7656 Z M1090.9688,563.0625 L1089.6094,559.6875 L1088.2344,563.0625 L1090.9688,563.0625 Z " fill="#000000"/><text fill="#000000" font-family="sans-serif" font-size="14" font-style="italic" lengthAdjust="spacing" textLength="67" x="1103.5" y="568.7285">BoardView</text><line style="stroke:#181818;stroke-width:0.5;" x1="1075.5" x2="1172.5" y1="579" y2="579"/><line style="stroke:#181818;stroke-width:0.5;" x1="1075.5" x2="1172.5" y1="587" y2="587"/></g><!--class BoardViewPrototypeDirector--><g id="elem_BoardViewPrototypeDirector"><rect codeLine="5" fill="#F1F1F1" height="48" id="BoardViewPrototypeDirector" rx="2.5" ry="2.5" style="stroke:#181818;stroke-width:0.5;" width="210" x="392" y="655"/><ellipse cx="407" cy="671" fill="#ADD1B2" rx="11" ry="11" style="stroke:#181818;stroke-width:1.0;"/><path d="M409.7656,666.875 Q409.9219,666.6563 410.1094,666.5469 Q410.2969,666.4375 410.5156,666.4375 Q410.8906,666.4375 411.125,666.7031 Q411.3594,666.9531 411.3594,667.5625 L411.3594,669.0156 Q411.3594,669.625 411.125,669.8906 Q410.8906,670.1563 410.5156,670.1563 Q410.1719,670.1563 409.9688,669.9531 Q409.7656,669.7656 409.6563,669.25 Q409.6094,668.8906 409.4219,668.7031 Q409.0938,668.3281 408.4844,668.1094 Q407.875,667.8906 407.25,667.8906 Q406.4844,667.8906 405.8438,668.2188 Q405.2188,668.5469 404.7188,669.2969 Q404.2344,670.0469 404.2344,671.0781 L404.2344,672.1719 Q404.2344,673.4063 405.125,674.2344 Q406.0156,675.0469 407.6094,675.0469 Q408.5469,675.0469 409.2031,674.7969 Q409.5938,674.6406 410.0156,674.2031 Q410.2813,673.9375 410.4219,673.8594 Q410.5781,673.7813 410.7813,673.7813 Q411.1094,673.7813 411.3594,674.0469 Q411.625,674.2969 411.625,674.6406 Q411.625,674.9844 411.2813,675.3906 Q410.7813,675.9688 409.9844,676.2969 Q408.9063,676.75 407.6094,676.75 Q406.0938,676.75 404.8906,676.125 Q403.9063,675.625 403.2188,674.5625 Q402.5313,673.4844 402.5313,672.2031 L402.5313,671.0469 Q402.5313,669.7188 403.1406,668.5781 Q403.7656,667.4219 404.8594,666.8125 Q405.9531,666.1875 407.1875,666.1875 Q407.9219,666.1875 408.5625,666.3594 Q409.2188,666.5156 409.7656,666.875 Z " fill="#000000"/><text fill="#000000" font-family="sans-serif" font-size="14" lengthAdjust="spacing" textLength="178" x="421" y="676.7285">BoardViewPrototypeDirector</text><line style="stroke:#181818;stroke-width:0.5;" x1="393" x2="601" y1="687" y2="687"/><line style="stroke:#181818;stroke-width:0.5;" x1="393" x2="601" y1="695" y2="695"/></g><!--class BoardViewPrototypeRegistry--><g id="elem_BoardViewPrototypeRegistry"><rect codeLine="6" fill="#F1F1F1" height="48" id="BoardViewPrototypeRegistry" rx="2.5" ry="2.5" style="stroke:#181818;stroke-width:0.5;" width="212" x="250" y="763"/><ellipse cx="265" cy="779" fill="#ADD1B2" rx="11" ry="11" style="stroke:#181818;stroke-width:1.0;"/><path d="M267.7656,774.875 Q267.9219,774.6563 268.1094,774.5469 Q268.2969,774.4375 268.5156,774.4375 Q268.8906,774.4375 269.125,774.7031 Q269.3594,774.9531 269.3594,775.5625 L269.3594,777.0156 Q269.3594,777.625 269.125,777.8906 Q268.8906,778.1563 268.5156,778.1563 Q268.1719,778.1563 267.9688,777.9531 Q267.7656,777.7656 267.6563,777.25 Q267.6094,776.8906 267.4219,776.7031 Q267.0938,776.3281 266.4844,776.1094 Q265.875,775.8906 265.25,775.8906 Q264.4844,775.8906 263.8438,776.2188 Q263.2188,776.5469 262.7188,777.2969 Q262.2344,778.0469 262.2344,779.0781 L262.2344,780.1719 Q262.2344,781.4063 263.125,782.2344 Q264.0156,783.0469 265.6094,783.0469 Q266.5469,783.0469 267.2031,782.7969 Q267.5938,782.6406 268.0156,782.2031 Q268.2813,781.9375 268.4219,781.8594 Q268.5781,781.7813 268.7813,781.7813 Q269.1094,781.7813 269.3594,782.0469 Q269.625,782.2969 269.625,782.6406 Q269.625,782.9844 269.2813,783.3906 Q268.7813,783.9688 267.9844,784.2969 Q266.9063,784.75 265.6094,784.75 Q264.0938,784.75 262.8906,784.125 Q261.9063,783.625 261.2188,782.5625 Q260.5313,781.4844 260.5313,780.2031 L260.5313,779.0469 Q260.5313,777.7188 261.1406,776.5781 Q261.7656,775.4219 262.8594,774.8125 Q263.9531,774.1875 265.1875,774.1875 Q265.9219,774.1875 266.5625,774.3594 Q267.2188,774.5156 267.7656,774.875 Z " fill="#000000"/><text fill="#000000" font-family="sans-serif" font-size="14" lengthAdjust="spacing" textLength="180" x="279" y="784.7285">BoardViewPrototypeRegistry</text><line style="stroke:#181818;stroke-width:0.5;" x1="251" x2="461" y1="795" y2="795"/><line style="stroke:#181818;stroke-width:0.5;" x1="251" x2="461" y1="803" y2="803"/></g><!--class Command--><g id="elem_Command"><rect codeLine="7" fill="#F1F1F1" height="48" id="Command" rx="2.5" ry="2.5" style="stroke:#181818;stroke-width:0.5;" width="96" x="893" y="547"/><ellipse cx="908" cy="563" fill="#B4A7E5" rx="11" ry="11" style="stroke:#181818;stroke-width:1.0;"/><path d="M908.9531,559.6406 L908.9531,566.2969 L910.6719,566.2969 Q911.2813,566.2969 911.5469,566.5313 Q911.8125,566.7656 911.8125,567.1563 Q911.8125,567.5313 911.5469,567.7656 Q911.2813,568 910.6719,568 L905.5313,568 Q904.9219,568 904.6563,567.7656 Q904.3906,567.5313 904.3906,567.1406 Q904.3906,566.7656 904.6563,566.5313 Q904.9219,566.2969 905.5313,566.2969 L907.25,566.2969 L907.25,559.6406 L905.5313,559.6406 Q904.9219,559.6406 904.6563,559.4063 Q904.3906,559.1719 904.3906,558.7813 Q904.3906,558.4063 904.6563,558.1719 Q904.9219,557.9375 905.5313,557.9375 L910.6719,557.9375 Q911.2813,557.9375 911.5469,558.1719 Q911.8125,558.4063 911.8125,558.7813 Q911.8125,559.1719 911.5469,559.4063 Q911.2813,559.6406 910.6719,559.6406 L908.9531,559.6406 Z " fill="#000000"/><text fill="#000000" font-family="sans-serif" font-size="14" font-style="italic" lengthAdjust="spacing" textLength="64" x="922" y="568.7285">Command</text><line style="stroke:#181818;stroke-width:0.5;" x1="894" x2="988" y1="579" y2="579"/><line style="stroke:#181818;stroke-width:0.5;" x1="894" x2="988" y1="587" y2="587"/></g><!--class PanelViewCommand--><g id="elem_PanelViewCommand"><rect codeLine="8" fill="#F1F1F1" height="48" id="PanelViewCommand" rx="2.5" ry="2.5" style="stroke:#181818;stroke-width:0.5;" width="161" x="1382.5" y="763"/><ellipse cx="1397.5" cy="779" fill="#A9DCDF" rx="11" ry="11" style="stroke:#181818;stroke-width:1.0;"/><path d="M1399.6875,780.7656 L1395.5469,780.7656 L1395.125,781.7969 L1395.5469,781.7969 Q1396.1563,781.7969 1396.4219,782.0313 Q1396.6875,782.2656 1396.6875,782.6563 Q1396.6875,783.0313 1396.4219,783.2656 Q1396.1563,783.5 1395.5469,783.5 L1393.25,783.5 Q1392.6406,783.5 1392.3906,783.2656 Q1392.125,783.0313 1392.125,782.6406 Q1392.125,782.2656 1392.4063,782.0313 Q1392.6719,781.7813 1393.2969,781.7969 L1395.9688,775.1406 L1394.8594,775.1406 Q1394.25,775.1406 1393.9844,774.9063 Q1393.7188,774.6719 1393.7188,774.2813 Q1393.7188,773.9063 1393.9844,773.6719 Q1394.25,773.4375 1394.8594,773.4375 L1398.5313,773.4375 L1401.9219,781.7969 Q1402.5156,781.7969 1402.7031,781.9375 Q1403.0938,782.2031 1403.0938,782.6563 Q1403.0938,783.0313 1402.8281,783.2656 Q1402.5781,783.5 1401.9688,783.5 L1399.6719,783.5 Q1399.0625,783.5 1398.7969,783.2656 Q1398.5313,783.0313 1398.5313,782.6406 Q1398.5313,782.2656 1398.7969,782.0313 Q1399.0625,781.7969 1399.6719,781.7969 L1400.0938,781.7969 L1399.6875,780.7656 Z M1398.9688,779.0625 L1397.6094,775.6875 L1396.2344,779.0625 L1398.9688,779.0625 Z " fill="#000000"/><text fill="#000000" font-family="sans-serif" font-size="14" font-style="italic" lengthAdjust="spacing" textLength="129" x="1411.5" y="784.7285">PanelViewCommand</text><line style="stroke:#181818;stroke-width:0.5;" x1="1383.5" x2="1542.5" y1="795" y2="795"/><line style="stroke:#181818;stroke-width:0.5;" x1="1383.5" x2="1542.5" y1="803" y2="803"/></g><!--class ViewCommand--><g id="elem_ViewCommand"><rect codeLine="9" fill="#F1F1F1" height="48" id="ViewCommand" rx="2.5" ry="2.5" style="stroke:#181818;stroke-width:0.5;" width="125" x="763.5" y="655"/><ellipse cx="778.5" cy="671" fill="#A9DCDF" rx="11" ry="11" style="stroke:#181818;stroke-width:1.0;"/><path d="M780.6875,672.7656 L776.5469,672.7656 L776.125,673.7969 L776.5469,673.7969 Q777.1563,673.7969 777.4219,674.0313 Q777.6875,674.2656 777.6875,674.6563 Q777.6875,675.0313 777.4219,675.2656 Q777.1563,675.5 776.5469,675.5 L774.25,675.5 Q773.6406,675.5 773.3906,675.2656 Q773.125,675.0313 773.125,674.6406 Q773.125,674.2656 773.4063,674.0313 Q773.6719,673.7813 774.2969,673.7969 L776.9688,667.1406 L775.8594,667.1406 Q775.25,667.1406 774.9844,666.9063 Q774.7188,666.6719 774.7188,666.2813 Q774.7188,665.9063 774.9844,665.6719 Q775.25,665.4375 775.8594,665.4375 L779.5313,665.4375 L782.9219,673.7969 Q783.5156,673.7969 783.7031,673.9375 Q784.0938,674.2031 784.0938,674.6563 Q784.0938,675.0313 783.8281,675.2656 Q783.5781,675.5 782.9688,675.5 L780.6719,675.5 Q780.0625,675.5 779.7969,675.2656 Q779.5313,675.0313 779.5313,674.6406 Q779.5313,674.2656 779.7969,674.0313 Q780.0625,673.7969 780.6719,673.7969 L781.0938,673.7969 L780.6875,672.7656 Z M779.9688,671.0625 L778.6094,667.6875 L777.2344,671.0625 L779.9688,671.0625 Z " fill="#000000"/><text fill="#000000" font-family="sans-serif" font-size="14" font-style="italic" lengthAdjust="spacing" textLength="93" x="792.5" y="676.7285">ViewCommand</text><line style="stroke:#181818;stroke-width:0.5;" x1="764.5" x2="887.5" y1="687" y2="687"/><line style="stroke:#181818;stroke-width:0.5;" x1="764.5" x2="887.5" y1="695" y2="695"/></g><!--class GraphicsView--><g id="elem_GraphicsView"><rect codeLine="10" fill="#F1F1F1" height="48" id="GraphicsView" rx="2.5" ry="2.5" style="stroke:#181818;stroke-width:0.5;" width="118" x="841" y="115"/><ellipse cx="856" cy="131" fill="#ADD1B2" rx="11" ry="11" style="stroke:#181818;stroke-width:1.0;"/><path d="M858.7656,126.875 Q858.9219,126.6563 859.1094,126.5469 Q859.2969,126.4375 859.5156,126.4375 Q859.8906,126.4375 860.125,126.7031 Q860.3594,126.9531 860.3594,127.5625 L860.3594,129.0156 Q860.3594,129.625 860.125,129.8906 Q859.8906,130.1563 859.5156,130.1563 Q859.1719,130.1563 858.9688,129.9531 Q858.7656,129.7656 858.6563,129.25 Q858.6094,128.8906 858.4219,128.7031 Q858.0938,128.3281 857.4844,128.1094 Q856.875,127.8906 856.25,127.8906 Q855.4844,127.8906 854.8438,128.2188 Q854.2188,128.5469 853.7188,129.2969 Q853.2344,130.0469 853.2344,131.0781 L853.2344,132.1719 Q853.2344,133.4063 854.125,134.2344 Q855.0156,135.0469 856.6094,135.0469 Q857.5469,135.0469 858.2031,134.7969 Q858.5938,134.6406 859.0156,134.2031 Q859.2813,133.9375 859.4219,133.8594 Q859.5781,133.7813 859.7813,133.7813 Q860.1094,133.7813 860.3594,134.0469 Q860.625,134.2969 860.625,134.6406 Q860.625,134.9844 860.2813,135.3906 Q859.7813,135.9688 858.9844,136.2969 Q857.9063,136.75 856.6094,136.75 Q855.0938,136.75 853.8906,136.125 Q852.9063,135.625 852.2188,134.5625 Q851.5313,133.4844 851.5313,132.2031 L851.5313,131.0469 Q851.5313,129.7188 852.1406,128.5781 Q852.7656,127.4219 853.8594,126.8125 Q854.9531,126.1875 856.1875,126.1875 Q856.9219,126.1875 857.5625,126.3594 Q858.2188,126.5156 858.7656,126.875 Z " fill="#000000"/><text fill="#000000" font-family="sans-serif" font-size="14" lengthAdjust="spacing" textLength="86" x="870" y="136.7285">GraphicsView</text><line style="stroke:#181818;stroke-width:0.5;" x1="842" x2="958" y1="147" y2="147"/><line style="stroke:#181818;stroke-width:0.5;" x1="842" x2="958" y1="155" y2="155"/></g><!--class MachinePlayerBoardView--><g id="elem_MachinePlayerBoardView"><rect codeLine="11" fill="#F1F1F1" height="48" id="MachinePlayerBoardView" rx="2.5" ry="2.5" style="stroke:#181818;stroke-width:0.5;" width="192" x="1155" y="763"/><ellipse cx="1170" cy="779" fill="#ADD1B2" rx="11" ry="11" style="stroke:#181818;stroke-width:1.0;"/><path d="M1172.7656,774.875 Q1172.9219,774.6563 1173.1094,774.5469 Q1173.2969,774.4375 1173.5156,774.4375 Q1173.8906,774.4375 1174.125,774.7031 Q1174.3594,774.9531 1174.3594,775.5625 L1174.3594,777.0156 Q1174.3594,777.625 1174.125,777.8906 Q1173.8906,778.1563 1173.5156,778.1563 Q1173.1719,778.1563 1172.9688,777.9531 Q1172.7656,777.7656 1172.6563,777.25 Q1172.6094,776.8906 1172.4219,776.7031 Q1172.0938,776.3281 1171.4844,776.1094 Q1170.875,775.8906 1170.25,775.8906 Q1169.4844,775.8906 1168.8438,776.2188 Q1168.2188,776.5469 1167.7188,777.2969 Q1167.2344,778.0469 1167.2344,779.0781 L1167.2344,780.1719 Q1167.2344,781.4063 1168.125,782.2344 Q1169.0156,783.0469 1170.6094,783.0469 Q1171.5469,783.0469 1172.2031,782.7969 Q1172.5938,782.6406 1173.0156,782.2031 Q1173.2813,781.9375 1173.4219,781.8594 Q1173.5781,781.7813 1173.7813,781.7813 Q1174.1094,781.7813 1174.3594,782.0469 Q1174.625,782.2969 1174.625,782.6406 Q1174.625,782.9844 1174.2813,783.3906 Q1173.7813,783.9688 1172.9844,784.2969 Q1171.9063,784.75 1170.6094,784.75 Q1169.0938,784.75 1167.8906,784.125 Q1166.9063,783.625 1166.2188,782.5625 Q1165.5313,781.4844 1165.5313,780.2031 L1165.5313,779.0469 Q1165.5313,777.7188 1166.1406,776.5781 Q1166.7656,775.4219 1167.8594,774.8125 Q1168.9531,774.1875 1170.1875,774.1875 Q1170.9219,774.1875 1171.5625,774.3594 Q1172.2188,774.5156 1172.7656,774.875 Z " fill="#000000"/><text fill="#000000" font-family="sans-serif" font-size="14" lengthAdjust="spacing" textLength="160" x="1184" y="784.7285">MachinePlayerBoardView</text><line style="stroke:#181818;stroke-width:0.5;" x1="1156" x2="1346" y1="795" y2="795"/><line style="stroke:#181818;stroke-width:0.5;" x1="1156" x2="1346" y1="803" y2="803"/></g><!--class NextTurnCommand--><g id="elem_NextTurnCommand"><rect codeLine="12" fill="#F1F1F1" height="48" id="NextTurnCommand" rx="2.5" ry="2.5" style="stroke:#181818;stroke-width:0.5;" width="153" x="1386.5" y="871"/><ellipse cx="1401.5" cy="887" fill="#ADD1B2" rx="11" ry="11" style="stroke:#181818;stroke-width:1.0;"/><path d="M1404.2656,882.875 Q1404.4219,882.6563 1404.6094,882.5469 Q1404.7969,882.4375 1405.0156,882.4375 Q1405.3906,882.4375 1405.625,882.7031 Q1405.8594,882.9531 1405.8594,883.5625 L1405.8594,885.0156 Q1405.8594,885.625 1405.625,885.8906 Q1405.3906,886.1563 1405.0156,886.1563 Q1404.6719,886.1563 1404.4688,885.9531 Q1404.2656,885.7656 1404.1563,885.25 Q1404.1094,884.8906 1403.9219,884.7031 Q1403.5938,884.3281 1402.9844,884.1094 Q1402.375,883.8906 1401.75,883.8906 Q1400.9844,883.8906 1400.3438,884.2188 Q1399.7188,884.5469 1399.2188,885.2969 Q1398.7344,886.0469 1398.7344,887.0781 L1398.7344,888.1719 Q1398.7344,889.4063 1399.625,890.2344 Q1400.5156,891.0469 1402.1094,891.0469 Q1403.0469,891.0469 1403.7031,890.7969 Q1404.0938,890.6406 1404.5156,890.2031 Q1404.7813,889.9375 1404.9219,889.8594 Q1405.0781,889.7813 1405.2813,889.7813 Q1405.6094,889.7813 1405.8594,890.0469 Q1406.125,890.2969 1406.125,890.6406 Q1406.125,890.9844 1405.7813,891.3906 Q1405.2813,891.9688 1404.4844,892.2969 Q1403.4063,892.75 1402.1094,892.75 Q1400.5938,892.75 1399.3906,892.125 Q1398.4063,891.625 1397.7188,890.5625 Q1397.0313,889.4844 1397.0313,888.2031 L1397.0313,887.0469 Q1397.0313,885.7188 1397.6406,884.5781 Q1398.2656,883.4219 1399.3594,882.8125 Q1400.4531,882.1875 1401.6875,882.1875 Q1402.4219,882.1875 1403.0625,882.3594 Q1403.7188,882.5156 1404.2656,882.875 Z " fill="#000000"/><text fill="#000000" font-family="sans-serif" font-size="14" lengthAdjust="spacing" textLength="121" x="1415.5" y="892.7285">NextTurnCommand</text><line style="stroke:#181818;stroke-width:0.5;" x1="1387.5" x2="1538.5" y1="903" y2="903"/><line style="stroke:#181818;stroke-width:0.5;" x1="1387.5" x2="1538.5" y1="911" y2="911"/></g><!--class PlayCommand--><g id="elem_PlayCommand"><rect codeLine="13" fill="#F1F1F1" height="48" id="PlayCommand" rx="2.5" ry="2.5" style="stroke:#181818;stroke-width:0.5;" width="123" x="497.5" y="763"/><ellipse cx="512.5" cy="779" fill="#ADD1B2" rx="11" ry="11" style="stroke:#181818;stroke-width:1.0;"/><path d="M515.2656,774.875 Q515.4219,774.6563 515.6094,774.5469 Q515.7969,774.4375 516.0156,774.4375 Q516.3906,774.4375 516.625,774.7031 Q516.8594,774.9531 516.8594,775.5625 L516.8594,777.0156 Q516.8594,777.625 516.625,777.8906 Q516.3906,778.1563 516.0156,778.1563 Q515.6719,778.1563 515.4688,777.9531 Q515.2656,777.7656 515.1563,777.25 Q515.1094,776.8906 514.9219,776.7031 Q514.5938,776.3281 513.9844,776.1094 Q513.375,775.8906 512.75,775.8906 Q511.9844,775.8906 511.3438,776.2188 Q510.7188,776.5469 510.2188,777.2969 Q509.7344,778.0469 509.7344,779.0781 L509.7344,780.1719 Q509.7344,781.4063 510.625,782.2344 Q511.5156,783.0469 513.1094,783.0469 Q514.0469,783.0469 514.7031,782.7969 Q515.0938,782.6406 515.5156,782.2031 Q515.7813,781.9375 515.9219,781.8594 Q516.0781,781.7813 516.2813,781.7813 Q516.6094,781.7813 516.8594,782.0469 Q517.125,782.2969 517.125,782.6406 Q517.125,782.9844 516.7813,783.3906 Q516.2813,783.9688 515.4844,784.2969 Q514.4063,784.75 513.1094,784.75 Q511.5938,784.75 510.3906,784.125 Q509.4063,783.625 508.7188,782.5625 Q508.0313,781.4844 508.0313,780.2031 L508.0313,779.0469 Q508.0313,777.7188 508.6406,776.5781 Q509.2656,775.4219 510.3594,774.8125 Q511.4531,774.1875 512.6875,774.1875 Q513.4219,774.1875 514.0625,774.3594 Q514.7188,774.5156 515.2656,774.875 Z " fill="#000000"/><text fill="#000000" font-family="sans-serif" font-size="14" lengthAdjust="spacing" textLength="91" x="526.5" y="784.7285">PlayCommand</text><line style="stroke:#181818;stroke-width:0.5;" x1="498.5" x2="619.5" y1="795" y2="795"/><line style="stroke:#181818;stroke-width:0.5;" x1="498.5" x2="619.5" y1="803" y2="803"/></g><!--class PlayPanelView--><g id="elem_PlayPanelView"><rect codeLine="14" fill="#F1F1F1" height="48" id="PlayPanelView" rx="2.5" ry="2.5" style="stroke:#181818;stroke-width:0.5;" width="124" x="479" y="547"/><ellipse cx="494" cy="563" fill="#ADD1B2" rx="11" ry="11" style="stroke:#181818;stroke-width:1.0;"/><path d="M496.7656,558.875 Q496.9219,558.6563 497.1094,558.5469 Q497.2969,558.4375 497.5156,558.4375 Q497.8906,558.4375 498.125,558.7031 Q498.3594,558.9531 498.3594,559.5625 L498.3594,561.0156 Q498.3594,561.625 498.125,561.8906 Q497.8906,562.1563 497.5156,562.1563 Q497.1719,562.1563 496.9688,561.9531 Q496.7656,561.7656 496.6563,561.25 Q496.6094,560.8906 496.4219,560.7031 Q496.0938,560.3281 495.4844,560.1094 Q494.875,559.8906 494.25,559.8906 Q493.4844,559.8906 492.8438,560.2188 Q492.2188,560.5469 491.7188,561.2969 Q491.2344,562.0469 491.2344,563.0781 L491.2344,564.1719 Q491.2344,565.4063 492.125,566.2344 Q493.0156,567.0469 494.6094,567.0469 Q495.5469,567.0469 496.2031,566.7969 Q496.5938,566.6406 497.0156,566.2031 Q497.2813,565.9375 497.4219,565.8594 Q497.5781,565.7813 497.7813,565.7813 Q498.1094,565.7813 498.3594,566.0469 Q498.625,566.2969 498.625,566.6406 Q498.625,566.9844 498.2813,567.3906 Q497.7813,567.9688 496.9844,568.2969 Q495.9063,568.75 494.6094,568.75 Q493.0938,568.75 491.8906,568.125 Q490.9063,567.625 490.2188,566.5625 Q489.5313,565.4844 489.5313,564.2031 L489.5313,563.0469 Q489.5313,561.7188 490.1406,560.5781 Q490.7656,559.4219 491.8594,558.8125 Q492.9531,558.1875 494.1875,558.1875 Q494.9219,558.1875 495.5625,558.3594 Q496.2188,558.5156 496.7656,558.875 Z " fill="#000000"/><text fill="#000000" font-family="sans-serif" font-size="14" lengthAdjust="spacing" textLength="92" x="508" y="568.7285">PlayPanelView</text><line style="stroke:#181818;stroke-width:0.5;" x1="480" x2="602" y1="579" y2="579"/><line style="stroke:#181818;stroke-width:0.5;" x1="480" x2="602" y1="587" y2="587"/></g><!--class ResumePanelView--><g id="elem_ResumePanelView"><rect codeLine="15" fill="#F1F1F1" height="48" id="ResumePanelView" rx="2.5" ry="2.5" style="stroke:#181818;stroke-width:0.5;" width="149" x="608.5" y="439"/><ellipse cx="623.5" cy="455" fill="#ADD1B2" rx="11" ry="11" style="stroke:#181818;stroke-width:1.0;"/><path d="M626.2656,450.875 Q626.4219,450.6563 626.6094,450.5469 Q626.7969,450.4375 627.0156,450.4375 Q627.3906,450.4375 627.625,450.7031 Q627.8594,450.9531 627.8594,451.5625 L627.8594,453.0156 Q627.8594,453.625 627.625,453.8906 Q627.3906,454.1563 627.0156,454.1563 Q626.6719,454.1563 626.4688,453.9531 Q626.2656,453.7656 626.1563,453.25 Q626.1094,452.8906 625.9219,452.7031 Q625.5938,452.3281 624.9844,452.1094 Q624.375,451.8906 623.75,451.8906 Q622.9844,451.8906 622.3438,452.2188 Q621.7188,452.5469 621.2188,453.2969 Q620.7344,454.0469 620.7344,455.0781 L620.7344,456.1719 Q620.7344,457.4063 621.625,458.2344 Q622.5156,459.0469 624.1094,459.0469 Q625.0469,459.0469 625.7031,458.7969 Q626.0938,458.6406 626.5156,458.2031 Q626.7813,457.9375 626.9219,457.8594 Q627.0781,457.7813 627.2813,457.7813 Q627.6094,457.7813 627.8594,458.0469 Q628.125,458.2969 628.125,458.6406 Q628.125,458.9844 627.7813,459.3906 Q627.2813,459.9688 626.4844,460.2969 Q625.4063,460.75 624.1094,460.75 Q622.5938,460.75 621.3906,460.125 Q620.4063,459.625 619.7188,458.5625 Q619.0313,457.4844 619.0313,456.2031 L619.0313,455.0469 Q619.0313,453.7188 619.6406,452.5781 Q620.2656,451.4219 621.3594,450.8125 Q622.4531,450.1875 623.6875,450.1875 Q624.4219,450.1875 625.0625,450.3594 Q625.7188,450.5156 626.2656,450.875 Z " fill="#000000"/><text fill="#000000" font-family="sans-serif" font-size="14" lengthAdjust="spacing" textLength="117" x="637.5" y="460.7285">ResumePanelView</text><line style="stroke:#181818;stroke-width:0.5;" x1="609.5" x2="756.5" y1="471" y2="471"/><line style="stroke:#181818;stroke-width:0.5;" x1="609.5" x2="756.5" y1="479" y2="479"/></g><!--class ResumeCommand--><g id="elem_ResumeCommand"><rect codeLine="16" fill="#F1F1F1" height="48" id="ResumeCommand" rx="2.5" ry="2.5" style="stroke:#181818;stroke-width:0.5;" width="148" x="656" y="763"/><ellipse cx="671" cy="779" fill="#ADD1B2" rx="11" ry="11" style="stroke:#181818;stroke-width:1.0;"/><path d="M673.7656,774.875 Q673.9219,774.6563 674.1094,774.5469 Q674.2969,774.4375 674.5156,774.4375 Q674.8906,774.4375 675.125,774.7031 Q675.3594,774.9531 675.3594,775.5625 L675.3594,777.0156 Q675.3594,777.625 675.125,777.8906 Q674.8906,778.1563 674.5156,778.1563 Q674.1719,778.1563 673.9688,777.9531 Q673.7656,777.7656 673.6563,777.25 Q673.6094,776.8906 673.4219,776.7031 Q673.0938,776.3281 672.4844,776.1094 Q671.875,775.8906 671.25,775.8906 Q670.4844,775.8906 669.8438,776.2188 Q669.2188,776.5469 668.7188,777.2969 Q668.2344,778.0469 668.2344,779.0781 L668.2344,780.1719 Q668.2344,781.4063 669.125,782.2344 Q670.0156,783.0469 671.6094,783.0469 Q672.5469,783.0469 673.2031,782.7969 Q673.5938,782.6406 674.0156,782.2031 Q674.2813,781.9375 674.4219,781.8594 Q674.5781,781.7813 674.7813,781.7813 Q675.1094,781.7813 675.3594,782.0469 Q675.625,782.2969 675.625,782.6406 Q675.625,782.9844 675.2813,783.3906 Q674.7813,783.9688 673.9844,784.2969 Q672.9063,784.75 671.6094,784.75 Q670.0938,784.75 668.8906,784.125 Q667.9063,783.625 667.2188,782.5625 Q666.5313,781.4844 666.5313,780.2031 L666.5313,779.0469 Q666.5313,777.7188 667.1406,776.5781 Q667.7656,775.4219 668.8594,774.8125 Q669.9531,774.1875 671.1875,774.1875 Q671.9219,774.1875 672.5625,774.3594 Q673.2188,774.5156 673.7656,774.875 Z " fill="#000000"/><text fill="#000000" font-family="sans-serif" font-size="14" lengthAdjust="spacing" textLength="116" x="685" y="784.7285">ResumeCommand</text><line style="stroke:#181818;stroke-width:0.5;" x1="657" x2="803" y1="795" y2="795"/><line style="stroke:#181818;stroke-width:0.5;" x1="657" x2="803" y1="803" y2="803"/></g><!--class Square--><g id="elem_Square"><rect codeLine="17" fill="#F1F1F1" height="48" id="Square" rx="2.5" ry="2.5" style="stroke:#181818;stroke-width:0.5;" width="78" x="1042" y="763"/><ellipse cx="1057" cy="779" fill="#ADD1B2" rx="11" ry="11" style="stroke:#181818;stroke-width:1.0;"/><path d="M1059.7656,774.875 Q1059.9219,774.6563 1060.1094,774.5469 Q1060.2969,774.4375 1060.5156,774.4375 Q1060.8906,774.4375 1061.125,774.7031 Q1061.3594,774.9531 1061.3594,775.5625 L1061.3594,777.0156 Q1061.3594,777.625 1061.125,777.8906 Q1060.8906,778.1563 1060.5156,778.1563 Q1060.1719,778.1563 1059.9688,777.9531 Q1059.7656,777.7656 1059.6563,777.25 Q1059.6094,776.8906 1059.4219,776.7031 Q1059.0938,776.3281 1058.4844,776.1094 Q1057.875,775.8906 1057.25,775.8906 Q1056.4844,775.8906 1055.8438,776.2188 Q1055.2188,776.5469 1054.7188,777.2969 Q1054.2344,778.0469 1054.2344,779.0781 L1054.2344,780.1719 Q1054.2344,781.4063 1055.125,782.2344 Q1056.0156,783.0469 1057.6094,783.0469 Q1058.5469,783.0469 1059.2031,782.7969 Q1059.5938,782.6406 1060.0156,782.2031 Q1060.2813,781.9375 1060.4219,781.8594 Q1060.5781,781.7813 1060.7813,781.7813 Q1061.1094,781.7813 1061.3594,782.0469 Q1061.625,782.2969 1061.625,782.6406 Q1061.625,782.9844 1061.2813,783.3906 Q1060.7813,783.9688 1059.9844,784.2969 Q1058.9063,784.75 1057.6094,784.75 Q1056.0938,784.75 1054.8906,784.125 Q1053.9063,783.625 1053.2188,782.5625 Q1052.5313,781.4844 1052.5313,780.2031 L1052.5313,779.0469 Q1052.5313,777.7188 1053.1406,776.5781 Q1053.7656,775.4219 1054.8594,774.8125 Q1055.9531,774.1875 1057.1875,774.1875 Q1057.9219,774.1875 1058.5625,774.3594 Q1059.2188,774.5156 1059.7656,774.875 Z " fill="#000000"/><text fill="#000000" font-family="sans-serif" font-size="14" lengthAdjust="spacing" textLength="46" x="1071" y="784.7285">Square</text><line style="stroke:#181818;stroke-width:0.5;" x1="1043" x2="1119" y1="795" y2="795"/><line style="stroke:#181818;stroke-width:0.5;" x1="1043" x2="1119" y1="803" y2="803"/></g><!--class ClickableSquare--><g id="elem_ClickableSquare"><rect codeLine="18" fill="#F1F1F1" height="48" id="ClickableSquare" rx="2.5" ry="2.5" style="stroke:#181818;stroke-width:0.5;" width="135" x="927.5" y="871"/><ellipse cx="942.5" cy="887" fill="#ADD1B2" rx="11" ry="11" style="stroke:#181818;stroke-width:1.0;"/><path d="M945.2656,882.875 Q945.4219,882.6563 945.6094,882.5469 Q945.7969,882.4375 946.0156,882.4375 Q946.3906,882.4375 946.625,882.7031 Q946.8594,882.9531 946.8594,883.5625 L946.8594,885.0156 Q946.8594,885.625 946.625,885.8906 Q946.3906,886.1563 946.0156,886.1563 Q945.6719,886.1563 945.4688,885.9531 Q945.2656,885.7656 945.1563,885.25 Q945.1094,884.8906 944.9219,884.7031 Q944.5938,884.3281 943.9844,884.1094 Q943.375,883.8906 942.75,883.8906 Q941.9844,883.8906 941.3438,884.2188 Q940.7188,884.5469 940.2188,885.2969 Q939.7344,886.0469 939.7344,887.0781 L939.7344,888.1719 Q939.7344,889.4063 940.625,890.2344 Q941.5156,891.0469 943.1094,891.0469 Q944.0469,891.0469 944.7031,890.7969 Q945.0938,890.6406 945.5156,890.2031 Q945.7813,889.9375 945.9219,889.8594 Q946.0781,889.7813 946.2813,889.7813 Q946.6094,889.7813 946.8594,890.0469 Q947.125,890.2969 947.125,890.6406 Q947.125,890.9844 946.7813,891.3906 Q946.2813,891.9688 945.4844,892.2969 Q944.4063,892.75 943.1094,892.75 Q941.5938,892.75 940.3906,892.125 Q939.4063,891.625 938.7188,890.5625 Q938.0313,889.4844 938.0313,888.2031 L938.0313,887.0469 Q938.0313,885.7188 938.6406,884.5781 Q939.2656,883.4219 940.3594,882.8125 Q941.4531,882.1875 942.6875,882.1875 Q943.4219,882.1875 944.0625,882.3594 Q944.7188,882.5156 945.2656,882.875 Z " fill="#000000"/><text fill="#000000" font-family="sans-serif" font-size="14" lengthAdjust="spacing" textLength="103" x="956.5" y="892.7285">ClickableSquare</text><line style="stroke:#181818;stroke-width:0.5;" x1="928.5" x2="1061.5" y1="903" y2="903"/><line style="stroke:#181818;stroke-width:0.5;" x1="928.5" x2="1061.5" y1="911" y2="911"/></g><!--class NonClickableSquare--><g id="elem_NonClickableSquare"><rect codeLine="19" fill="#F1F1F1" height="48" id="NonClickableSquare" rx="2.5" ry="2.5" style="stroke:#181818;stroke-width:0.5;" width="160" x="1171" y="871"/><ellipse cx="1186" cy="887" fill="#ADD1B2" rx="11" ry="11" style="stroke:#181818;stroke-width:1.0;"/><path d="M1188.7656,882.875 Q1188.9219,882.6563 1189.1094,882.5469 Q1189.2969,882.4375 1189.5156,882.4375 Q1189.8906,882.4375 1190.125,882.7031 Q1190.3594,882.9531 1190.3594,883.5625 L1190.3594,885.0156 Q1190.3594,885.625 1190.125,885.8906 Q1189.8906,886.1563 1189.5156,886.1563 Q1189.1719,886.1563 1188.9688,885.9531 Q1188.7656,885.7656 1188.6563,885.25 Q1188.6094,884.8906 1188.4219,884.7031 Q1188.0938,884.3281 1187.4844,884.1094 Q1186.875,883.8906 1186.25,883.8906 Q1185.4844,883.8906 1184.8438,884.2188 Q1184.2188,884.5469 1183.7188,885.2969 Q1183.2344,886.0469 1183.2344,887.0781 L1183.2344,888.1719 Q1183.2344,889.4063 1184.125,890.2344 Q1185.0156,891.0469 1186.6094,891.0469 Q1187.5469,891.0469 1188.2031,890.7969 Q1188.5938,890.6406 1189.0156,890.2031 Q1189.2813,889.9375 1189.4219,889.8594 Q1189.5781,889.7813 1189.7813,889.7813 Q1190.1094,889.7813 1190.3594,890.0469 Q1190.625,890.2969 1190.625,890.6406 Q1190.625,890.9844 1190.2813,891.3906 Q1189.7813,891.9688 1188.9844,892.2969 Q1187.9063,892.75 1186.6094,892.75 Q1185.0938,892.75 1183.8906,892.125 Q1182.9063,891.625 1182.2188,890.5625 Q1181.5313,889.4844 1181.5313,888.2031 L1181.5313,887.0469 Q1181.5313,885.7188 1182.1406,884.5781 Q1182.7656,883.4219 1183.8594,882.8125 Q1184.9531,882.1875 1186.1875,882.1875 Q1186.9219,882.1875 1187.5625,882.3594 Q1188.2188,882.5156 1188.7656,882.875 Z " fill="#000000"/><text fill="#000000" font-family="sans-serif" font-size="14" lengthAdjust="spacing" textLength="128" x="1200" y="892.7285">NonClickableSquare</text><line style="stroke:#181818;stroke-width:0.5;" x1="1172" x2="1330" y1="903" y2="903"/><line style="stroke:#181818;stroke-width:0.5;" x1="1172" x2="1330" y1="911" y2="911"/></g><!--class StartPanelView--><g id="elem_StartPanelView"><rect codeLine="20" fill="#F1F1F1" height="48" id="StartPanelView" rx="2.5" ry="2.5" style="stroke:#181818;stroke-width:0.5;" width="127" x="792.5" y="439"/><ellipse cx="807.5" cy="455" fill="#ADD1B2" rx="11" ry="11" style="stroke:#181818;stroke-width:1.0;"/><path d="M810.2656,450.875 Q810.4219,450.6563 810.6094,450.5469 Q810.7969,450.4375 811.0156,450.4375 Q811.3906,450.4375 811.625,450.7031 Q811.8594,450.9531 811.8594,451.5625 L811.8594,453.0156 Q811.8594,453.625 811.625,453.8906 Q811.3906,454.1563 811.0156,454.1563 Q810.6719,454.1563 810.4688,453.9531 Q810.2656,453.7656 810.1563,453.25 Q810.1094,452.8906 809.9219,452.7031 Q809.5938,452.3281 808.9844,452.1094 Q808.375,451.8906 807.75,451.8906 Q806.9844,451.8906 806.3438,452.2188 Q805.7188,452.5469 805.2188,453.2969 Q804.7344,454.0469 804.7344,455.0781 L804.7344,456.1719 Q804.7344,457.4063 805.625,458.2344 Q806.5156,459.0469 808.1094,459.0469 Q809.0469,459.0469 809.7031,458.7969 Q810.0938,458.6406 810.5156,458.2031 Q810.7813,457.9375 810.9219,457.8594 Q811.0781,457.7813 811.2813,457.7813 Q811.6094,457.7813 811.8594,458.0469 Q812.125,458.2969 812.125,458.6406 Q812.125,458.9844 811.7813,459.3906 Q811.2813,459.9688 810.4844,460.2969 Q809.4063,460.75 808.1094,460.75 Q806.5938,460.75 805.3906,460.125 Q804.4063,459.625 803.7188,458.5625 Q803.0313,457.4844 803.0313,456.2031 L803.0313,455.0469 Q803.0313,453.7188 803.6406,452.5781 Q804.2656,451.4219 805.3594,450.8125 Q806.4531,450.1875 807.6875,450.1875 Q808.4219,450.1875 809.0625,450.3594 Q809.7188,450.5156 810.2656,450.875 Z " fill="#000000"/><text fill="#000000" font-family="sans-serif" font-size="14" lengthAdjust="spacing" textLength="95" x="821.5" y="460.7285">StartPanelView</text><line style="stroke:#181818;stroke-width:0.5;" x1="793.5" x2="918.5" y1="471" y2="471"/><line style="stroke:#181818;stroke-width:0.5;" x1="793.5" x2="918.5" y1="479" y2="479"/></g><!--class TurnView--><g id="elem_TurnView"><rect codeLine="21" fill="#F1F1F1" height="48" id="TurnView" rx="2.5" ry="2.5" style="stroke:#181818;stroke-width:0.5;" width="91" x="637.5" y="655"/><ellipse cx="652.5" cy="671" fill="#ADD1B2" rx="11" ry="11" style="stroke:#181818;stroke-width:1.0;"/><path d="M655.2656,666.875 Q655.4219,666.6563 655.6094,666.5469 Q655.7969,666.4375 656.0156,666.4375 Q656.3906,666.4375 656.625,666.7031 Q656.8594,666.9531 656.8594,667.5625 L656.8594,669.0156 Q656.8594,669.625 656.625,669.8906 Q656.3906,670.1563 656.0156,670.1563 Q655.6719,670.1563 655.4688,669.9531 Q655.2656,669.7656 655.1563,669.25 Q655.1094,668.8906 654.9219,668.7031 Q654.5938,668.3281 653.9844,668.1094 Q653.375,667.8906 652.75,667.8906 Q651.9844,667.8906 651.3438,668.2188 Q650.7188,668.5469 650.2188,669.2969 Q649.7344,670.0469 649.7344,671.0781 L649.7344,672.1719 Q649.7344,673.4063 650.625,674.2344 Q651.5156,675.0469 653.1094,675.0469 Q654.0469,675.0469 654.7031,674.7969 Q655.0938,674.6406 655.5156,674.2031 Q655.7813,673.9375 655.9219,673.8594 Q656.0781,673.7813 656.2813,673.7813 Q656.6094,673.7813 656.8594,674.0469 Q657.125,674.2969 657.125,674.6406 Q657.125,674.9844 656.7813,675.3906 Q656.2813,675.9688 655.4844,676.2969 Q654.4063,676.75 653.1094,676.75 Q651.5938,676.75 650.3906,676.125 Q649.4063,675.625 648.7188,674.5625 Q648.0313,673.4844 648.0313,672.2031 L648.0313,671.0469 Q648.0313,669.7188 648.6406,668.5781 Q649.2656,667.4219 650.3594,666.8125 Q651.4531,666.1875 652.6875,666.1875 Q653.4219,666.1875 654.0625,666.3594 Q654.7188,666.5156 655.2656,666.875 Z " fill="#000000"/><text fill="#000000" font-family="sans-serif" font-size="14" lengthAdjust="spacing" textLength="59" x="666.5" y="676.7285">TurnView</text><line style="stroke:#181818;stroke-width:0.5;" x1="638.5" x2="727.5" y1="687" y2="687"/><line style="stroke:#181818;stroke-width:0.5;" x1="638.5" x2="727.5" y1="695" y2="695"/></g><!--class UserPlayerBoardView--><g id="elem_UserPlayerBoardView"><rect codeLine="22" fill="#F1F1F1" height="48" id="UserPlayerBoardView" rx="2.5" ry="2.5" style="stroke:#181818;stroke-width:0.5;" width="168" x="839" y="763"/><ellipse cx="854" cy="779" fill="#ADD1B2" rx="11" ry="11" style="stroke:#181818;stroke-width:1.0;"/><path d="M856.7656,774.875 Q856.9219,774.6563 857.1094,774.5469 Q857.2969,774.4375 857.5156,774.4375 Q857.8906,774.4375 858.125,774.7031 Q858.3594,774.9531 858.3594,775.5625 L858.3594,777.0156 Q858.3594,777.625 858.125,777.8906 Q857.8906,778.1563 857.5156,778.1563 Q857.1719,778.1563 856.9688,777.9531 Q856.7656,777.7656 856.6563,777.25 Q856.6094,776.8906 856.4219,776.7031 Q856.0938,776.3281 855.4844,776.1094 Q854.875,775.8906 854.25,775.8906 Q853.4844,775.8906 852.8438,776.2188 Q852.2188,776.5469 851.7188,777.2969 Q851.2344,778.0469 851.2344,779.0781 L851.2344,780.1719 Q851.2344,781.4063 852.125,782.2344 Q853.0156,783.0469 854.6094,783.0469 Q855.5469,783.0469 856.2031,782.7969 Q856.5938,782.6406 857.0156,782.2031 Q857.2813,781.9375 857.4219,781.8594 Q857.5781,781.7813 857.7813,781.7813 Q858.1094,781.7813 858.3594,782.0469 Q858.625,782.2969 858.625,782.6406 Q858.625,782.9844 858.2813,783.3906 Q857.7813,783.9688 856.9844,784.2969 Q855.9063,784.75 854.6094,784.75 Q853.0938,784.75 851.8906,784.125 Q850.9063,783.625 850.2188,782.5625 Q849.5313,781.4844 849.5313,780.2031 L849.5313,779.0469 Q849.5313,777.7188 850.1406,776.5781 Q850.7656,775.4219 851.8594,774.8125 Q852.9531,774.1875 854.1875,774.1875 Q854.9219,774.1875 855.5625,774.3594 Q856.2188,774.5156 856.7656,774.875 Z " fill="#000000"/><text fill="#000000" font-family="sans-serif" font-size="14" lengthAdjust="spacing" textLength="136" x="868" y="784.7285">UserPlayerBoardView</text><line style="stroke:#181818;stroke-width:0.5;" x1="840" x2="1006" y1="795" y2="795"/><line style="stroke:#181818;stroke-width:0.5;" x1="840" x2="1006" y1="803" y2="803"/></g><!--class PauseBoardView--><g id="elem_PauseBoardView"><rect codeLine="23" fill="#F1F1F1" height="48" id="PauseBoardView" rx="2.5" ry="2.5" style="stroke:#181818;stroke-width:0.5;" width="139" x="1160.5" y="655"/><ellipse cx="1175.5" cy="671" fill="#ADD1B2" rx="11" ry="11" style="stroke:#181818;stroke-width:1.0;"/><path d="M1178.2656,666.875 Q1178.4219,666.6563 1178.6094,666.5469 Q1178.7969,666.4375 1179.0156,666.4375 Q1179.3906,666.4375 1179.625,666.7031 Q1179.8594,666.9531 1179.8594,667.5625 L1179.8594,669.0156 Q1179.8594,669.625 1179.625,669.8906 Q1179.3906,670.1563 1179.0156,670.1563 Q1178.6719,670.1563 1178.4688,669.9531 Q1178.2656,669.7656 1178.1563,669.25 Q1178.1094,668.8906 1177.9219,668.7031 Q1177.5938,668.3281 1176.9844,668.1094 Q1176.375,667.8906 1175.75,667.8906 Q1174.9844,667.8906 1174.3438,668.2188 Q1173.7188,668.5469 1173.2188,669.2969 Q1172.7344,670.0469 1172.7344,671.0781 L1172.7344,672.1719 Q1172.7344,673.4063 1173.625,674.2344 Q1174.5156,675.0469 1176.1094,675.0469 Q1177.0469,675.0469 1177.7031,674.7969 Q1178.0938,674.6406 1178.5156,674.2031 Q1178.7813,673.9375 1178.9219,673.8594 Q1179.0781,673.7813 1179.2813,673.7813 Q1179.6094,673.7813 1179.8594,674.0469 Q1180.125,674.2969 1180.125,674.6406 Q1180.125,674.9844 1179.7813,675.3906 Q1179.2813,675.9688 1178.4844,676.2969 Q1177.4063,676.75 1176.1094,676.75 Q1174.5938,676.75 1173.3906,676.125 Q1172.4063,675.625 1171.7188,674.5625 Q1171.0313,673.4844 1171.0313,672.2031 L1171.0313,671.0469 Q1171.0313,669.7188 1171.6406,668.5781 Q1172.2656,667.4219 1173.3594,666.8125 Q1174.4531,666.1875 1175.6875,666.1875 Q1176.4219,666.1875 1177.0625,666.3594 Q1177.7188,666.5156 1178.2656,666.875 Z " fill="#000000"/><text fill="#000000" font-family="sans-serif" font-size="14" lengthAdjust="spacing" textLength="107" x="1189.5" y="676.7285">PauseBoardView</text><line style="stroke:#181818;stroke-width:0.5;" x1="1161.5" x2="1298.5" y1="687" y2="687"/><line style="stroke:#181818;stroke-width:0.5;" x1="1161.5" x2="1298.5" y1="695" y2="695"/></g><!--class PanelView--><g id="elem_PanelView"><rect codeLine="24" fill="#F1F1F1" height="48" id="PanelView" rx="2.5" ry="2.5" style="stroke:#181818;stroke-width:0.5;" width="97" x="1075.5" y="439"/><ellipse cx="1090.5" cy="455" fill="#A9DCDF" rx="11" ry="11" style="stroke:#181818;stroke-width:1.0;"/><path d="M1092.6875,456.7656 L1088.5469,456.7656 L1088.125,457.7969 L1088.5469,457.7969 Q1089.1563,457.7969 1089.4219,458.0313 Q1089.6875,458.2656 1089.6875,458.6563 Q1089.6875,459.0313 1089.4219,459.2656 Q1089.1563,459.5 1088.5469,459.5 L1086.25,459.5 Q1085.6406,459.5 1085.3906,459.2656 Q1085.125,459.0313 1085.125,458.6406 Q1085.125,458.2656 1085.4063,458.0313 Q1085.6719,457.7813 1086.2969,457.7969 L1088.9688,451.1406 L1087.8594,451.1406 Q1087.25,451.1406 1086.9844,450.9063 Q1086.7188,450.6719 1086.7188,450.2813 Q1086.7188,449.9063 1086.9844,449.6719 Q1087.25,449.4375 1087.8594,449.4375 L1091.5313,449.4375 L1094.9219,457.7969 Q1095.5156,457.7969 1095.7031,457.9375 Q1096.0938,458.2031 1096.0938,458.6563 Q1096.0938,459.0313 1095.8281,459.2656 Q1095.5781,459.5 1094.9688,459.5 L1092.6719,459.5 Q1092.0625,459.5 1091.7969,459.2656 Q1091.5313,459.0313 1091.5313,458.6406 Q1091.5313,458.2656 1091.7969,458.0313 Q1092.0625,457.7969 1092.6719,457.7969 L1093.0938,457.7969 L1092.6875,456.7656 Z M1091.9688,455.0625 L1090.6094,451.6875 L1089.2344,455.0625 L1091.9688,455.0625 Z " fill="#000000"/><text fill="#000000" font-family="sans-serif" font-size="14" font-style="italic" lengthAdjust="spacing" textLength="65" x="1104.5" y="460.7285">PanelView</text><line style="stroke:#181818;stroke-width:0.5;" x1="1076.5" x2="1171.5" y1="471" y2="471"/><line style="stroke:#181818;stroke-width:0.5;" x1="1076.5" x2="1171.5" y1="479" y2="479"/></g><!--class PlayerBoardView--><g id="elem_PlayerBoardView"><rect codeLine="25" fill="#F1F1F1" height="48" id="PlayerBoardView" rx="2.5" ry="2.5" style="stroke:#181818;stroke-width:0.5;" width="139" x="948.5" y="655"/><ellipse cx="963.5" cy="671" fill="#A9DCDF" rx="11" ry="11" style="stroke:#181818;stroke-width:1.0;"/><path d="M965.6875,672.7656 L961.5469,672.7656 L961.125,673.7969 L961.5469,673.7969 Q962.1563,673.7969 962.4219,674.0313 Q962.6875,674.2656 962.6875,674.6563 Q962.6875,675.0313 962.4219,675.2656 Q962.1563,675.5 961.5469,675.5 L959.25,675.5 Q958.6406,675.5 958.3906,675.2656 Q958.125,675.0313 958.125,674.6406 Q958.125,674.2656 958.4063,674.0313 Q958.6719,673.7813 959.2969,673.7969 L961.9688,667.1406 L960.8594,667.1406 Q960.25,667.1406 959.9844,666.9063 Q959.7188,666.6719 959.7188,666.2813 Q959.7188,665.9063 959.9844,665.6719 Q960.25,665.4375 960.8594,665.4375 L964.5313,665.4375 L967.9219,673.7969 Q968.5156,673.7969 968.7031,673.9375 Q969.0938,674.2031 969.0938,674.6563 Q969.0938,675.0313 968.8281,675.2656 Q968.5781,675.5 967.9688,675.5 L965.6719,675.5 Q965.0625,675.5 964.7969,675.2656 Q964.5313,675.0313 964.5313,674.6406 Q964.5313,674.2656 964.7969,674.0313 Q965.0625,673.7969 965.6719,673.7969 L966.0938,673.7969 L965.6875,672.7656 Z M964.9688,671.0625 L963.6094,667.6875 L962.2344,671.0625 L964.9688,671.0625 Z " fill="#000000"/><text fill="#000000" font-family="sans-serif" font-size="14" font-style="italic" lengthAdjust="spacing" textLength="107" x="977.5" y="676.7285">PlayerBoardView</text><line style="stroke:#181818;stroke-width:0.5;" x1="949.5" x2="1086.5" y1="687" y2="687"/><line style="stroke:#181818;stroke-width:0.5;" x1="949.5" x2="1086.5" y1="695" y2="695"/></g><!--class JFrame--><g id="elem_JFrame"><rect codeLine="27" fill="#F1F1F1" height="48" id="JFrame" rx="2.5" ry="2.5" style="stroke:#181818;stroke-width:0.5;" width="79" x="715.5" y="7"/><ellipse cx="730.5" cy="23" fill="#ADD1B2" rx="11" ry="11" style="stroke:#181818;stroke-width:1.0;"/><path d="M733.2656,18.875 Q733.4219,18.6563 733.6094,18.5469 Q733.7969,18.4375 734.0156,18.4375 Q734.3906,18.4375 734.625,18.7031 Q734.8594,18.9531 734.8594,19.5625 L734.8594,21.0156 Q734.8594,21.625 734.625,21.8906 Q734.3906,22.1563 734.0156,22.1563 Q733.6719,22.1563 733.4688,21.9531 Q733.2656,21.7656 733.1563,21.25 Q733.1094,20.8906 732.9219,20.7031 Q732.5938,20.3281 731.9844,20.1094 Q731.375,19.8906 730.75,19.8906 Q729.9844,19.8906 729.3438,20.2188 Q728.7188,20.5469 728.2188,21.2969 Q727.7344,22.0469 727.7344,23.0781 L727.7344,24.1719 Q727.7344,25.4063 728.625,26.2344 Q729.5156,27.0469 731.1094,27.0469 Q732.0469,27.0469 732.7031,26.7969 Q733.0938,26.6406 733.5156,26.2031 Q733.7813,25.9375 733.9219,25.8594 Q734.0781,25.7813 734.2813,25.7813 Q734.6094,25.7813 734.8594,26.0469 Q735.125,26.2969 735.125,26.6406 Q735.125,26.9844 734.7813,27.3906 Q734.2813,27.9688 733.4844,28.2969 Q732.4063,28.75 731.1094,28.75 Q729.5938,28.75 728.3906,28.125 Q727.4063,27.625 726.7188,26.5625 Q726.0313,25.4844 726.0313,24.2031 L726.0313,23.0469 Q726.0313,21.7188 726.6406,20.5781 Q727.2656,19.4219 728.3594,18.8125 Q729.4531,18.1875 730.6875,18.1875 Q731.4219,18.1875 732.0625,18.3594 Q732.7188,18.5156 733.2656,18.875 Z " fill="#000000"/><text fill="#000000" font-family="sans-serif" font-size="14" lengthAdjust="spacing" textLength="47" x="744.5" y="28.7285">JFrame</text><line style="stroke:#181818;stroke-width:0.5;" x1="716.5" x2="793.5" y1="39" y2="39"/><line style="stroke:#181818;stroke-width:0.5;" x1="716.5" x2="793.5" y1="47" y2="47"/></g><!--class Game--><g id="elem_Game"><rect codeLine="31" fill="#F1F1F1" height="48" id="Game" rx="2.5" ry="2.5" style="stroke:#181818;stroke-width:0.5;" width="70" x="1613" y="115"/><ellipse cx="1628" cy="131" fill="#ADD1B2" rx="11" ry="11" style="stroke:#181818;stroke-width:1.0;"/><path d="M1630.7656,126.875 Q1630.9219,126.6563 1631.1094,126.5469 Q1631.2969,126.4375 1631.5156,126.4375 Q1631.8906,126.4375 1632.125,126.7031 Q1632.3594,126.9531 1632.3594,127.5625 L1632.3594,129.0156 Q1632.3594,129.625 1632.125,129.8906 Q1631.8906,130.1563 1631.5156,130.1563 Q1631.1719,130.1563 1630.9688,129.9531 Q1630.7656,129.7656 1630.6563,129.25 Q1630.6094,128.8906 1630.4219,128.7031 Q1630.0938,128.3281 1629.4844,128.1094 Q1628.875,127.8906 1628.25,127.8906 Q1627.4844,127.8906 1626.8438,128.2188 Q1626.2188,128.5469 1625.7188,129.2969 Q1625.2344,130.0469 1625.2344,131.0781 L1625.2344,132.1719 Q1625.2344,133.4063 1626.125,134.2344 Q1627.0156,135.0469 1628.6094,135.0469 Q1629.5469,135.0469 1630.2031,134.7969 Q1630.5938,134.6406 1631.0156,134.2031 Q1631.2813,133.9375 1631.4219,133.8594 Q1631.5781,133.7813 1631.7813,133.7813 Q1632.1094,133.7813 1632.3594,134.0469 Q1632.625,134.2969 1632.625,134.6406 Q1632.625,134.9844 1632.2813,135.3906 Q1631.7813,135.9688 1630.9844,136.2969 Q1629.9063,136.75 1628.6094,136.75 Q1627.0938,136.75 1625.8906,136.125 Q1624.9063,135.625 1624.2188,134.5625 Q1623.5313,133.4844 1623.5313,132.2031 L1623.5313,131.0469 Q1623.5313,129.7188 1624.1406,128.5781 Q1624.7656,127.4219 1625.8594,126.8125 Q1626.9531,126.1875 1628.1875,126.1875 Q1628.9219,126.1875 1629.5625,126.3594 Q1630.2188,126.5156 1630.7656,126.875 Z " fill="#000000"/><text fill="#000000" font-family="sans-serif" font-size="14" lengthAdjust="spacing" textLength="38" x="1642" y="136.7285">Game</text><line style="stroke:#181818;stroke-width:0.5;" x1="1614" x2="1682" y1="147" y2="147"/><line style="stroke:#181818;stroke-width:0.5;" x1="1614" x2="1682" y1="155" y2="155"/></g><!--class View--><g id="elem_View"><rect codeLine="33" fill="#F1F1F1" height="48" id="View" rx="2.5" ry="2.5" style="stroke:#181818;stroke-width:0.5;" width="61" x="869.5" y="7"/><ellipse cx="884.5" cy="23" fill="#A9DCDF" rx="11" ry="11" style="stroke:#181818;stroke-width:1.0;"/><path d="M886.6875,24.7656 L882.5469,24.7656 L882.125,25.7969 L882.5469,25.7969 Q883.1563,25.7969 883.4219,26.0313 Q883.6875,26.2656 883.6875,26.6563 Q883.6875,27.0313 883.4219,27.2656 Q883.1563,27.5 882.5469,27.5 L880.25,27.5 Q879.6406,27.5 879.3906,27.2656 Q879.125,27.0313 879.125,26.6406 Q879.125,26.2656 879.4063,26.0313 Q879.6719,25.7813 880.2969,25.7969 L882.9688,19.1406 L881.8594,19.1406 Q881.25,19.1406 880.9844,18.9063 Q880.7188,18.6719 880.7188,18.2813 Q880.7188,17.9063 880.9844,17.6719 Q881.25,17.4375 881.8594,17.4375 L885.5313,17.4375 L888.9219,25.7969 Q889.5156,25.7969 889.7031,25.9375 Q890.0938,26.2031 890.0938,26.6563 Q890.0938,27.0313 889.8281,27.2656 Q889.5781,27.5 888.9688,27.5 L886.6719,27.5 Q886.0625,27.5 885.7969,27.2656 Q885.5313,27.0313 885.5313,26.6406 Q885.5313,26.2656 885.7969,26.0313 Q886.0625,25.7969 886.6719,25.7969 L887.0938,25.7969 L886.6875,24.7656 Z M885.9688,23.0625 L884.6094,19.6875 L883.2344,23.0625 L885.9688,23.0625 Z " fill="#000000"/><text fill="#000000" font-family="sans-serif" font-size="14" font-style="italic" lengthAdjust="spacing" textLength="29" x="898.5" y="28.7285">View</text><line style="stroke:#181818;stroke-width:0.5;" x1="870.5" x2="929.5" y1="39" y2="39"/><line style="stroke:#181818;stroke-width:0.5;" x1="870.5" x2="929.5" y1="47" y2="47"/></g><!--class JOptionPane--><g id="elem_JOptionPane"><rect codeLine="36" fill="#F1F1F1" height="48" id="JOptionPane" rx="2.5" ry="2.5" style="stroke:#181818;stroke-width:0.5;" width="113" x="104.5" y="331"/><ellipse cx="119.5" cy="347" fill="#ADD1B2" rx="11" ry="11" style="stroke:#181818;stroke-width:1.0;"/><path d="M122.2656,342.875 Q122.4219,342.6563 122.6094,342.5469 Q122.7969,342.4375 123.0156,342.4375 Q123.3906,342.4375 123.625,342.7031 Q123.8594,342.9531 123.8594,343.5625 L123.8594,345.0156 Q123.8594,345.625 123.625,345.8906 Q123.3906,346.1563 123.0156,346.1563 Q122.6719,346.1563 122.4688,345.9531 Q122.2656,345.7656 122.1563,345.25 Q122.1094,344.8906 121.9219,344.7031 Q121.5938,344.3281 120.9844,344.1094 Q120.375,343.8906 119.75,343.8906 Q118.9844,343.8906 118.3438,344.2188 Q117.7188,344.5469 117.2188,345.2969 Q116.7344,346.0469 116.7344,347.0781 L116.7344,348.1719 Q116.7344,349.4063 117.625,350.2344 Q118.5156,351.0469 120.1094,351.0469 Q121.0469,351.0469 121.7031,350.7969 Q122.0938,350.6406 122.5156,350.2031 Q122.7813,349.9375 122.9219,349.8594 Q123.0781,349.7813 123.2813,349.7813 Q123.6094,349.7813 123.8594,350.0469 Q124.125,350.2969 124.125,350.6406 Q124.125,350.9844 123.7813,351.3906 Q123.2813,351.9688 122.4844,352.2969 Q121.4063,352.75 120.1094,352.75 Q118.5938,352.75 117.3906,352.125 Q116.4063,351.625 115.7188,350.5625 Q115.0313,349.4844 115.0313,348.2031 L115.0313,347.0469 Q115.0313,345.7188 115.6406,344.5781 Q116.2656,343.4219 117.3594,342.8125 Q118.4531,342.1875 119.6875,342.1875 Q120.4219,342.1875 121.0625,342.3594 Q121.7188,342.5156 122.2656,342.875 Z " fill="#000000"/><text fill="#000000" font-family="sans-serif" font-size="14" lengthAdjust="spacing" textLength="81" x="133.5" y="352.7285">JOptionPane</text><line style="stroke:#181818;stroke-width:0.5;" x1="105.5" x2="216.5" y1="363" y2="363"/><line style="stroke:#181818;stroke-width:0.5;" x1="105.5" x2="216.5" y1="371" y2="371"/></g><!--class JPanel--><g id="elem_JPanel"><rect fill="#F1F1F1" height="48" id="JPanel" rx="2.5" ry="2.5" style="stroke:#181818;stroke-width:0.5;" width="74" x="1613" y="331"/><ellipse cx="1628" cy="347" fill="#ADD1B2" rx="11" ry="11" style="stroke:#181818;stroke-width:1.0;"/><path d="M1630.7656,342.875 Q1630.9219,342.6563 1631.1094,342.5469 Q1631.2969,342.4375 1631.5156,342.4375 Q1631.8906,342.4375 1632.125,342.7031 Q1632.3594,342.9531 1632.3594,343.5625 L1632.3594,345.0156 Q1632.3594,345.625 1632.125,345.8906 Q1631.8906,346.1563 1631.5156,346.1563 Q1631.1719,346.1563 1630.9688,345.9531 Q1630.7656,345.7656 1630.6563,345.25 Q1630.6094,344.8906 1630.4219,344.7031 Q1630.0938,344.3281 1629.4844,344.1094 Q1628.875,343.8906 1628.25,343.8906 Q1627.4844,343.8906 1626.8438,344.2188 Q1626.2188,344.5469 1625.7188,345.2969 Q1625.2344,346.0469 1625.2344,347.0781 L1625.2344,348.1719 Q1625.2344,349.4063 1626.125,350.2344 Q1627.0156,351.0469 1628.6094,351.0469 Q1629.5469,351.0469 1630.2031,350.7969 Q1630.5938,350.6406 1631.0156,350.2031 Q1631.2813,349.9375 1631.4219,349.8594 Q1631.5781,349.7813 1631.7813,349.7813 Q1632.1094,349.7813 1632.3594,350.0469 Q1632.625,350.2969 1632.625,350.6406 Q1632.625,350.9844 1632.2813,351.3906 Q1631.7813,351.9688 1630.9844,352.2969 Q1629.9063,352.75 1628.6094,352.75 Q1627.0938,352.75 1625.8906,352.125 Q1624.9063,351.625 1624.2188,350.5625 Q1623.5313,349.4844 1623.5313,348.2031 L1623.5313,347.0469 Q1623.5313,345.7188 1624.1406,344.5781 Q1624.7656,343.4219 1625.8594,342.8125 Q1626.9531,342.1875 1628.1875,342.1875 Q1628.9219,342.1875 1629.5625,342.3594 Q1630.2188,342.5156 1630.7656,342.875 Z " fill="#000000"/><text fill="#000000" font-family="sans-serif" font-size="14" lengthAdjust="spacing" textLength="42" x="1642" y="352.7285">JPanel</text><line style="stroke:#181818;stroke-width:0.5;" x1="1614" x2="1686" y1="363" y2="363"/><line style="stroke:#181818;stroke-width:0.5;" x1="1614" x2="1686" y1="371" y2="371"/></g><!--class Player--><g id="elem_Player"><rect codeLine="59" fill="#F1F1F1" height="48" id="Player" rx="2.5" ry="2.5" style="stroke:#181818;stroke-width:0.5;" width="72" x="7" y="655"/><ellipse cx="22" cy="671" fill="#ADD1B2" rx="11" ry="11" style="stroke:#181818;stroke-width:1.0;"/><path d="M24.7656,666.875 Q24.9219,666.6563 25.1094,666.5469 Q25.2969,666.4375 25.5156,666.4375 Q25.8906,666.4375 26.125,666.7031 Q26.3594,666.9531 26.3594,667.5625 L26.3594,669.0156 Q26.3594,669.625 26.125,669.8906 Q25.8906,670.1563 25.5156,670.1563 Q25.1719,670.1563 24.9688,669.9531 Q24.7656,669.7656 24.6563,669.25 Q24.6094,668.8906 24.4219,668.7031 Q24.0938,668.3281 23.4844,668.1094 Q22.875,667.8906 22.25,667.8906 Q21.4844,667.8906 20.8438,668.2188 Q20.2188,668.5469 19.7188,669.2969 Q19.2344,670.0469 19.2344,671.0781 L19.2344,672.1719 Q19.2344,673.4063 20.125,674.2344 Q21.0156,675.0469 22.6094,675.0469 Q23.5469,675.0469 24.2031,674.7969 Q24.5938,674.6406 25.0156,674.2031 Q25.2813,673.9375 25.4219,673.8594 Q25.5781,673.7813 25.7813,673.7813 Q26.1094,673.7813 26.3594,674.0469 Q26.625,674.2969 26.625,674.6406 Q26.625,674.9844 26.2813,675.3906 Q25.7813,675.9688 24.9844,676.2969 Q23.9063,676.75 22.6094,676.75 Q21.0938,676.75 19.8906,676.125 Q18.9063,675.625 18.2188,674.5625 Q17.5313,673.4844 17.5313,672.2031 L17.5313,671.0469 Q17.5313,669.7188 18.1406,668.5781 Q18.7656,667.4219 19.8594,666.8125 Q20.9531,666.1875 22.1875,666.1875 Q22.9219,666.1875 23.5625,666.3594 Q24.2188,666.5156 24.7656,666.875 Z " fill="#000000"/><text fill="#000000" font-family="sans-serif" font-size="14" lengthAdjust="spacing" textLength="40" x="36" y="676.7285">Player</text><line style="stroke:#181818;stroke-width:0.5;" x1="8" x2="78" y1="687" y2="687"/><line style="stroke:#181818;stroke-width:0.5;" x1="8" x2="78" y1="695" y2="695"/></g><!--class PlayerType--><g id="elem_PlayerType"><rect codeLine="60" fill="#F1F1F1" height="48" id="PlayerType" rx="2.5" ry="2.5" style="stroke:#181818;stroke-width:0.5;" width="104" x="114" y="655"/><ellipse cx="129" cy="671" fill="#ADD1B2" rx="11" ry="11" style="stroke:#181818;stroke-width:1.0;"/><path d="M131.7656,666.875 Q131.9219,666.6563 132.1094,666.5469 Q132.2969,666.4375 132.5156,666.4375 Q132.8906,666.4375 133.125,666.7031 Q133.3594,666.9531 133.3594,667.5625 L133.3594,669.0156 Q133.3594,669.625 133.125,669.8906 Q132.8906,670.1563 132.5156,670.1563 Q132.1719,670.1563 131.9688,669.9531 Q131.7656,669.7656 131.6563,669.25 Q131.6094,668.8906 131.4219,668.7031 Q131.0938,668.3281 130.4844,668.1094 Q129.875,667.8906 129.25,667.8906 Q128.4844,667.8906 127.8438,668.2188 Q127.2188,668.5469 126.7188,669.2969 Q126.2344,670.0469 126.2344,671.0781 L126.2344,672.1719 Q126.2344,673.4063 127.125,674.2344 Q128.0156,675.0469 129.6094,675.0469 Q130.5469,675.0469 131.2031,674.7969 Q131.5938,674.6406 132.0156,674.2031 Q132.2813,673.9375 132.4219,673.8594 Q132.5781,673.7813 132.7813,673.7813 Q133.1094,673.7813 133.3594,674.0469 Q133.625,674.2969 133.625,674.6406 Q133.625,674.9844 133.2813,675.3906 Q132.7813,675.9688 131.9844,676.2969 Q130.9063,676.75 129.6094,676.75 Q128.0938,676.75 126.8906,676.125 Q125.9063,675.625 125.2188,674.5625 Q124.5313,673.4844 124.5313,672.2031 L124.5313,671.0469 Q124.5313,669.7188 125.1406,668.5781 Q125.7656,667.4219 126.8594,666.8125 Q127.9531,666.1875 129.1875,666.1875 Q129.9219,666.1875 130.5625,666.3594 Q131.2188,666.5156 131.7656,666.875 Z " fill="#000000"/><text fill="#000000" font-family="sans-serif" font-size="14" lengthAdjust="spacing" textLength="72" x="143" y="676.7285">PlayerType</text><line style="stroke:#181818;stroke-width:0.5;" x1="115" x2="217" y1="687" y2="687"/><line style="stroke:#181818;stroke-width:0.5;" x1="115" x2="217" y1="695" y2="695"/></g><!--reverse link JFrame to FrameView--><g id="link_JFrame_FrameView"><path codeLine="28" d="M755,73 C755,90.66 755,96.94 755,114.68 " fill="none" id="JFrame-backto-FrameView" style="stroke:#181818;stroke-width:1.0;"/><polygon fill="none" points="755,55,749,73,761,73,755,55" style="stroke:#181818;stroke-width:1.0;"/></g><!--reverse link FrameView to MainFrame--><g id="link_FrameView_MainFrame"><path codeLine="29" d="M775.8904,178.8557 C785.3804,196.5157 789.92,204.94 799.46,222.68 " fill="none" id="FrameView-backto-MainFrame" style="stroke:#181818;stroke-width:1.0;"/><polygon fill="none" points="767.37,163,770.6052,181.6958,781.1756,176.0155,767.37,163" style="stroke:#181818;stroke-width:1.0;"/></g><!--reverse link GraphicsView to MainFrame--><g id="link_GraphicsView_MainFrame"><path codeLine="30" d="M873.2453,172.2332 C858.5853,189.8932 846.09,204.94 831.36,222.68 " fill="none" id="GraphicsView-backto-MainFrame" style="stroke:#181818;stroke-width:1.0;"/><polygon fill="#181818" points="880.91,163,873.9999,165.0617,873.2453,172.2332,880.1554,170.1715,880.91,163" style="stroke:#181818;stroke-width:1.0;"/></g><!--reverse link View to GraphicsView--><g id="link_View_GraphicsView"><path codeLine="34" d="M900,73 C900,90.66 900,96.94 900,114.68 " fill="none" id="View-backto-GraphicsView" style="stroke:#181818;stroke-width:1.0;"/><polygon fill="none" points="900,55,894,73,906,73,900,55" style="stroke:#181818;stroke-width:1.0;"/></g><!--link MainFrame to JOptionPane--><g id="link_MainFrame_JOptionPane"><path codeLine="37" d="M760.46,252.56 C658.82,262.18 425.76,287.33 234,331 C228.69,332.21 228.991,332.0136 223.521,333.5336 " fill="none" id="MainFrame-to-JOptionPane" style="stroke:#181818;stroke-width:1.0;stroke-dasharray:7.0,7.0;"/><polygon fill="#181818" points="217.74,335.14,227.4824,336.5844,222.5575,333.8013,225.3405,328.8764,217.74,335.14" style="stroke:#181818;stroke-width:1.0;"/></g><!--reverse link JPanel to PanelView--><g id="link_JPanel_PanelView"><path codeLine="39" d="M1596.0376,380.0853 C1444.7176,425.5053 1259.2,448.07 1172.54,457.3 " fill="none" id="JPanel-backto-PanelView" style="stroke:#181818;stroke-width:1.0;"/><polygon fill="none" points="1612.77,373.45,1593.8258,374.5078,1598.2494,385.6627,1612.77,373.45" style="stroke:#181818;stroke-width:1.0;"/></g><!--link GameLoopView to PanelView--><g id="link_GameLoopView_PanelView"><path codeLine="40" d="M914.15,379 C962.34,398.06 1013.2921,418.2087 1058.6421,436.1487 " fill="none" id="GameLoopView-to-PanelView" style="stroke:#181818;stroke-width:1.0;"/><polygon fill="none" points="1075.38,442.77,1060.8492,430.5693,1056.435,441.728,1075.38,442.77" style="stroke:#181818;stroke-width:1.0;"/></g><!--reverse link GameLoopView to StartPanelView--><g id="link_GameLoopView_StartPanelView"><path codeLine="41" d="M856,397 C856,414.66 856,420.94 856,438.68 " fill="none" id="GameLoopView-backto-StartPanelView" style="stroke:#181818;stroke-width:1.0;"/><polygon fill="none" points="856,379,850,397,862,397,856,379" style="stroke:#181818;stroke-width:1.0;"/></g><!--reverse link ResumePanelView to PlayPanelView--><g id="link_ResumePanelView_PlayPanelView"><path codeLine="42" d="M637.7652,497.7668 C614.1052,515.4268 596,528.94 572.24,546.68 " fill="none" id="ResumePanelView-backto-PlayPanelView" style="stroke:#181818;stroke-width:1.0;"/><polygon fill="none" points="652.19,487,634.1762,492.9585,641.3541,502.5751,652.19,487" style="stroke:#181818;stroke-width:1.0;"/></g><!--reverse link GameLoopView to ResumePanelView--><g id="link_GameLoopView_ResumePanelView"><path codeLine="43" d="M803.112,388.4041 C774.192,406.1241 749.74,421.11 720.76,438.86 " fill="none" id="GameLoopView-backto-ResumePanelView" style="stroke:#181818;stroke-width:1.0;"/><polygon fill="none" points="818.46,379,799.9772,383.2881,806.2467,393.5201,818.46,379" style="stroke:#181818;stroke-width:1.0;"/></g><!--reverse link PanelView to BoardView--><g id="link_PanelView_BoardView"><path codeLine="44" d="M1124,505 C1124,522.66 1124,528.94 1124,546.68 " fill="none" id="PanelView-backto-BoardView" style="stroke:#181818;stroke-width:1.0;"/><polygon fill="none" points="1124,487,1118,505,1130,505,1124,487" style="stroke:#181818;stroke-width:1.0;"/></g><!--reverse link PanelView to TurnView--><g id="link_PanelView_TurnView"><path codeLine="45" d="M1057.9861,480.6616 C1006.8361,494.2816 942.12,514.27 876,547 C813.58,577.9 747.91,626.41 711.54,654.92 " fill="none" id="PanelView-backto-TurnView" style="stroke:#181818;stroke-width:1.0;"/><polygon fill="none" points="1075.38,476.03,1056.4422,474.8636,1059.5299,486.4596,1075.38,476.03" style="stroke:#181818;stroke-width:1.0;"/></g><!--reverse link Game to MainFrame--><g id="link_Game_MainFrame"><path codeLine="47" d="M1607.3021,159.8157 C1602.0721,161.9157 1602.25,161.58 1597,163 C1327.81,235.91 990.55,245.35 863.54,246.16 " fill="none" id="Game-backto-MainFrame" style="stroke:#181818;stroke-width:1.0;"/><polygon fill="#181818" points="1612.87,157.58,1603.0277,157.2216,1608.2301,159.4431,1606.0086,164.6455,1612.87,157.58" style="stroke:#181818;stroke-width:1.0;"/></g><!--reverse link Game to PanelView--><g id="link_Game_PanelView"><path codeLine="48" d="M1607.6978,164.771 C1513.0378,222.931 1258.73,379.21 1161.48,438.97 " fill="none" id="Game-backto-PanelView" style="stroke:#181818;stroke-width:1.0;"/><polygon fill="#181818" points="1612.81,161.63,1603.0478,162.9333,1608.5499,164.2475,1607.2357,169.7496,1612.81,161.63" style="stroke:#181818;stroke-width:1.0;"/></g><!--reverse link Game to BoardViewPrototypeRegistry--><g id="link_Game_BoardViewPrototypeRegistry"><path codeLine="49" d="M1668.9759,168.1948 C1695.6659,206.0748 1740,279.39 1740,354 C1740,354 1740,354 1740,572 C1740,768.81 1510.42,666.62 1317,703 C950.47,771.95 849.93,715.58 480,763 C474.14,763.75 468.13,764.6 462.08,765.52 " fill="none" id="Game-backto-BoardViewPrototypeRegistry" style="stroke:#181818;stroke-width:1.0;"/><polygon fill="#181818" points="1665.52,163.29,1667.434,172.9511,1668.3999,167.3773,1673.9737,168.3433,1665.52,163.29" style="stroke:#181818;stroke-width:1.0;"/></g><!--link GraphicsView to GameLoopView--><g id="link_GraphicsView_GameLoopView"><path codeLine="51" d="M897.67,163.38 C894.8,189.73 889.26,233.76 881,271 C876.44,291.57 871.2687,308.7617 865.8187,325.2917 " fill="none" id="GraphicsView-to-GameLoopView" style="stroke:#181818;stroke-width:1.0;stroke-dasharray:7.0,7.0;"/><polygon fill="#181818" points="863.94,330.99,870.557,323.6951,865.5056,326.2414,862.9593,321.1901,863.94,330.99" style="stroke:#181818;stroke-width:1.0;"/></g><!--link MainFrame to GameLoopView--><g id="link_MainFrame_GameLoopView"><path codeLine="52" d="M821.55,271 C828.88,288.66 836.6607,307.398 844.0207,325.138 " fill="none" id="MainFrame-to-GameLoopView" style="stroke:#181818;stroke-width:1.0;"/><polygon fill="#181818" points="846.32,330.68,846.5658,320.8342,844.4039,326.0617,839.1765,323.8999,846.32,330.68" style="stroke:#181818;stroke-width:1.0;"/></g><!--reverse link PlayPanelView to PlayerBoardView--><g id="link_PlayPanelView_PlayerBoardView"><path codeLine="54" d="M615.0743,588.4629 C704.0943,608.2429 855.36,641.86 948.27,662.5 " fill="none" id="PlayPanelView-backto-PlayerBoardView" style="stroke:#181818;stroke-width:1.0;"/><polygon fill="#181818" points="603.36,585.86,608.3495,591.0662,615.0743,588.4629,610.0848,583.2567,603.36,585.86" style="stroke:#181818;stroke-width:1.0;"/></g><!--reverse link PlayPanelView to TurnView--><g id="link_PlayPanelView_TurnView"><path codeLine="55" d="M581.4266,602.1779 C605.0866,619.8379 628,636.94 651.76,654.68 " fill="none" id="PlayPanelView-backto-TurnView" style="stroke:#181818;stroke-width:1.0;"/><polygon fill="#181818" points="571.81,595,574.2257,601.7945,581.4266,602.1779,579.0109,595.3834,571.81,595" style="stroke:#181818;stroke-width:1.0;"/></g><!--reverse link PlayPanelView to BoardViewPrototypeRegistry--><g id="link_PlayPanelView_BoardViewPrototypeRegistry"><path codeLine="56" d="M467.2429,591.4451 C431.2529,603.7251 399.72,620.78 375,655 C351.99,686.86 351.24,734.6 353.28,762.8 " fill="none" id="PlayPanelView-backto-BoardViewPrototypeRegistry" style="stroke:#181818;stroke-width:1.0;"/><polygon fill="#181818" points="478.6,587.57,471.6298,585.7219,467.2429,591.4451,474.2132,593.2933,478.6,587.57" style="stroke:#181818;stroke-width:1.0;"/></g><!--link PlayPanelView to BoardViewPrototypeDirector--><g id="link_PlayPanelView_BoardViewPrototypeDirector"><path codeLine="57" d="M531.45,595 C524.12,612.66 516.3393,631.398 508.9793,649.138 " fill="none" id="PlayPanelView-to-BoardViewPrototypeDirector" style="stroke:#181818;stroke-width:1.0;stroke-dasharray:7.0,7.0;"/><polygon fill="#181818" points="506.68,654.68,513.8235,647.8999,508.5961,650.0617,506.4342,644.8342,506.68,654.68" style="stroke:#181818;stroke-width:1.0;"/></g><!--link BoardViewPrototypeDirector to BoardViewPrototypeRegistry--><g id="link_BoardViewPrototypeDirector_BoardViewPrototypeRegistry"><path codeLine="58" d="M466.41,703 C442.92,720.66 415.4161,741.3348 391.8161,759.0748 " fill="none" id="BoardViewPrototypeDirector-to-BoardViewPrototypeRegistry" style="stroke:#181818;stroke-width:1.0;"/><polygon fill="#181818" points="387.02,762.68,396.6176,760.4696,391.0167,759.6757,391.8107,754.0748,387.02,762.68" style="stroke:#181818;stroke-width:1.0;"/></g><!--link PlayPanelView to Player--><g id="link_PlayPanelView_Player"><path codeLine="61" d="M478.76,579.11 C391.74,590.07 229.39,614.19 96,655 C90.44,656.7 90.2346,656.5662 84.6546,658.8162 " fill="none" id="PlayPanelView-to-Player" style="stroke:#181818;stroke-width:1.0;stroke-dasharray:7.0,7.0;"/><polygon fill="#181818" points="79.09,661.06,88.9328,661.4041,83.7272,659.1902,85.9411,653.9845,79.09,661.06" style="stroke:#181818;stroke-width:1.0;"/></g><!--link PlayPanelView to PlayerType--><g id="link_PlayPanelView_PlayerType"><path codeLine="62" d="M478.94,587.57 C416.7,603.47 318.26,629.39 234,655 C228.87,656.56 229.2549,656.3814 223.9449,658.1114 " fill="none" id="PlayPanelView-to-PlayerType" style="stroke:#181818;stroke-width:1.0;stroke-dasharray:7.0,7.0;"/><polygon fill="#181818" points="218.24,659.97,228.0364,660.9853,222.9941,658.4211,225.5582,653.3788,218.24,659.97" style="stroke:#181818;stroke-width:1.0;"/></g><!--reverse link ResumePanelView to PauseBoardView--><g id="link_ResumePanelView_PauseBoardView"><path codeLine="63" d="M769.38,485.9622 C775.23,487.2722 769.35,485.89 775,487 C866.65,505.02 1120.31,485.95 1191,547 C1222.34,574.06 1229.07,625.1 1230.19,654.85 " fill="none" id="ResumePanelView-backto-PauseBoardView" style="stroke:#181818;stroke-width:1.0;"/><polygon fill="#181818" points="757.67,483.34,762.6509,488.5544,769.38,485.9622,764.3991,480.7478,757.67,483.34" style="stroke:#181818;stroke-width:1.0;"/></g><!--reverse link ResumePanelView to TurnView--><g id="link_ResumePanelView_TurnView"><path codeLine="64" d="M683,499.31 C683,540.47 683,613.58 683,654.72 " fill="none" id="ResumePanelView-backto-TurnView" style="stroke:#181818;stroke-width:1.0;"/><polygon fill="#181818" points="683,487.31,679,493.31,683,499.31,687,493.31,683,487.31" style="stroke:#181818;stroke-width:1.0;"/></g><!--link StartPanelView to ViewCommand--><g id="link_StartPanelView_ViewCommand"><path codeLine="66" d="M852.73,487.31 C846.96,528.47 835.8634,607.6382 830.0934,648.7782 " fill="none" id="StartPanelView-to-ViewCommand" style="stroke:#181818;stroke-width:1.0;"/><polygon fill="#181818" points="829.26,654.72,834.4713,646.3628,829.9545,649.7685,826.5488,645.2517,829.26,654.72" style="stroke:#181818;stroke-width:1.0;"/></g><!--link PlayPanelView to ViewCommand--><g id="link_PlayPanelView_ViewCommand"><path codeLine="67" d="M602.84,595 C650.48,612.72 710.4363,635.0186 758.1663,652.7686 " fill="none" id="PlayPanelView-to-ViewCommand" style="stroke:#181818;stroke-width:1.0;"/><polygon fill="#181818" points="763.79,654.86,756.7487,647.9738,759.1036,653.1172,753.9602,655.4721,763.79,654.86" style="stroke:#181818;stroke-width:1.0;"/></g><!--reverse link Command to PanelViewCommand--><g id="link_Command_PanelViewCommand"><path codeLine="69" d="M1005.7247,596.6965 C1040.2447,610.9665 1070.03,626.44 1105,655 C1126.07,672.21 1120.2,688.15 1143,703 C1153.22,709.66 1290.98,744.07 1382.38,766.45 " fill="none" id="Command-backto-PanelViewCommand" style="stroke:#181818;stroke-width:1.0;"/><polygon fill="none" points="989.09,589.82,1003.4325,602.2414,1008.0169,591.1516,989.09,589.82" style="stroke:#181818;stroke-width:1.0;"/></g><!--reverse link PanelViewCommand to NextTurnCommand--><g id="link_PanelViewCommand_NextTurnCommand"><path codeLine="70" d="M1463,829 C1463,846.66 1463,852.94 1463,870.68 " fill="none" id="PanelViewCommand-backto-NextTurnCommand" style="stroke:#181818;stroke-width:1.0;"/><polygon fill="none" points="1463,811,1457,829,1469,829,1463,811" style="stroke:#181818;stroke-width:1.0;"/></g><!--reverse link Command to ViewCommand--><g id="link_Command_ViewCommand"><path codeLine="71" d="M902.8145,607.1993 C883.6545,624.8593 870.55,636.94 851.3,654.68 " fill="none" id="Command-backto-ViewCommand" style="stroke:#181818;stroke-width:1.0;"/><polygon fill="none" points="916.05,595,898.7481,602.7875,906.881,611.6111,916.05,595" style="stroke:#181818;stroke-width:1.0;"/></g><!--reverse link ViewCommand to PlayCommand--><g id="link_ViewCommand_PlayCommand"><path codeLine="72" d="M751.3304,709.6424 C706.7004,727.3624 662,745.11 617.28,762.86 " fill="none" id="ViewCommand-backto-PlayCommand" style="stroke:#181818;stroke-width:1.0;"/><polygon fill="none" points="768.06,703,749.1163,704.0658,753.5445,715.2189,768.06,703" style="stroke:#181818;stroke-width:1.0;"/></g><!--reverse link ViewCommand to ResumeCommand--><g id="link_ViewCommand_ResumeCommand"><path codeLine="73" d="M793.0886,716.3432 C777.0986,734.0032 767.19,744.94 751.12,762.68 " fill="none" id="ViewCommand-backto-ResumeCommand" style="stroke:#181818;stroke-width:1.0;"/><polygon fill="none" points="805.17,703,788.6409,712.316,797.5363,720.3703,805.17,703" style="stroke:#181818;stroke-width:1.0;"/></g><!--reverse link BoardView to PlayerBoardView--><g id="link_BoardView_PlayerBoardView"><path codeLine="75" d="M1088.2721,607.7279 C1070.6121,625.3879 1059.06,636.94 1041.32,654.68 " fill="none" id="BoardView-backto-PlayerBoardView" style="stroke:#181818;stroke-width:1.0;"/><polygon fill="none" points="1101,595,1084.0294,603.4853,1092.5147,611.9706,1101,595" style="stroke:#181818;stroke-width:1.0;"/></g><!--reverse link PlayerBoardView to MachinePlayerBoardView--><g id="link_PlayerBoardView_MachinePlayerBoardView"><path codeLine="76" d="M1084.9441,710.4538 C1123.8941,728.1738 1161.12,745.11 1200.14,762.86 " fill="none" id="PlayerBoardView-backto-MachinePlayerBoardView" style="stroke:#181818;stroke-width:1.0;"/><polygon fill="none" points="1068.56,703,1082.4595,715.9152,1087.4288,704.9925,1068.56,703" style="stroke:#181818;stroke-width:1.0;"/></g><!--reverse link PlayerBoardView to UserPlayerBoardView--><g id="link_PlayerBoardView_UserPlayerBoardView"><path codeLine="77" d="M985.3755,716.4034 C969.5455,734.0634 959.8,744.94 943.9,762.68 " fill="none" id="PlayerBoardView-backto-UserPlayerBoardView" style="stroke:#181818;stroke-width:1.0;"/><polygon fill="none" points="997.39,703,980.9077,712.3986,989.8433,720.4083,997.39,703" style="stroke:#181818;stroke-width:1.0;"/></g><!--reverse link BoardView to PauseBoardView--><g id="link_BoardView_PauseBoardView"><path codeLine="78" d="M1159.7279,607.7279 C1177.3879,625.3879 1188.94,636.94 1206.68,654.68 " fill="none" id="BoardView-backto-PauseBoardView" style="stroke:#181818;stroke-width:1.0;"/><polygon fill="none" points="1147,595,1155.4853,611.9706,1163.9706,603.4853,1147,595" style="stroke:#181818;stroke-width:1.0;"/></g><!--reverse link MachinePlayerBoardView to NonClickableSquare--><g id="link_MachinePlayerBoardView_NonClickableSquare"><path codeLine="79" d="M1251,823 C1251,840.66 1251,852.94 1251,870.68 " fill="none" id="MachinePlayerBoardView-backto-NonClickableSquare" style="stroke:#181818;stroke-width:1.0;"/><polygon fill="none" points="1251,811,1247,817,1251,823,1255,817,1251,811" style="stroke:#181818;stroke-width:1.0;"/></g><!--reverse link UserPlayerBoardView to ClickableSquare--><g id="link_UserPlayerBoardView_ClickableSquare"><path codeLine="80" d="M945.3643,820.9254 C957.3643,838.5854 967.11,852.94 979.16,870.68 " fill="none" id="UserPlayerBoardView-backto-ClickableSquare" style="stroke:#181818;stroke-width:1.0;"/><polygon fill="none" points="938.62,811,938.6837,818.2108,945.3643,820.9254,945.3006,813.7146,938.62,811" style="stroke:#181818;stroke-width:1.0;"/></g><!--reverse link PauseBoardView to NonClickableSquare--><g id="link_PauseBoardView_NonClickableSquare"><path codeLine="81" d="M1311.516,688.9893 C1398.866,699.9893 1529.2,722.25 1561,763 C1574.12,779.82 1573.99,794.08 1561,811 C1546.77,829.54 1418.08,859.42 1331.05,877.82 " fill="none" id="PauseBoardView-backto-NonClickableSquare" style="stroke:#181818;stroke-width:1.0;"/><polygon fill="none" points="1299.61,687.49,1305.0632,692.2083,1311.516,688.9893,1306.0628,684.271,1299.61,687.49" style="stroke:#181818;stroke-width:1.0;"/></g><!--reverse link Square to ClickableSquare--><g id="link_Square_ClickableSquare"><path codeLine="82" d="M1050.9983,824.9773 C1036.6683,842.6373 1028.31,852.94 1013.92,870.68 " fill="none" id="Square-backto-ClickableSquare" style="stroke:#181818;stroke-width:1.0;"/><polygon fill="none" points="1062.34,811,1046.3392,821.1967,1055.6574,828.7579,1062.34,811" style="stroke:#181818;stroke-width:1.0;"/></g><!--reverse link Square to NonClickableSquare--><g id="link_Square_NonClickableSquare"><path codeLine="83" d="M1133.1627,820.526 C1161.5727,838.246 1185.42,853.11 1213.89,870.86 " fill="none" id="Square-backto-NonClickableSquare" style="stroke:#181818;stroke-width:1.0;"/><polygon fill="none" points="1117.89,811,1129.9874,825.6169,1136.338,815.4351,1117.89,811" style="stroke:#181818;stroke-width:1.0;"/></g><!--link PlayerBoardView to PanelViewCommand--><g id="link_PlayerBoardView_PanelViewCommand"><path codeLine="85" d="M1087.53,696.56 C1167.34,715.57 1292.2132,745.3199 1376.4432,765.3799 " fill="none" id="PlayerBoardView-to-PanelViewCommand" style="stroke:#181818;stroke-width:1.0;"/><polygon fill="#181818" points="1382.28,766.77,1374.4516,760.7937,1377.416,765.6116,1372.5982,768.5761,1382.28,766.77" style="stroke:#181818;stroke-width:1.0;"/></g><!--SRC=[XLNBRi8m4BpdAtok5Bu0zL2g8g6M8g2zcx05gqbC7QCMYOyljaESNTl9AObdT_OrteXQW_hY1R23ugUZA9h9Y-8LV0hupOgIDuq7thYeBPY9q6j-Et-LycGT-QxHYXUQ4OOdoTK-Hjq1AoMrr9SJF0i5XPPgt78D1t4BTubbDPDLnUjzCg4Lhw4qR6E6VHi2pTkNUCkAewXXLV8Bg6JrI_ZJsxEg4m6Czm3KrK31DJJd2aRW1F7cvymLqDDPAOfllYiX3YzbFMAnqLpfP4Qc1x7pZmRKI0jN_Do0HqVddROWSTf02oTyzs3JQvupVq-wDmVuUzAN1dj0aACrjoQZkLXEJuVqTK_d_QI5h4qvMSV99fD7X6GBMw-ZyQNthohBy-jZ2hD-P6H4L2qtac78GPL8t7st2T09mdAoAMxk_GX7jaS3Mm8FnRGChIxVpJmdK8RAjFEaQWajkX92Q219R6oI7DYGQSZMC136YSaLWJwsDwj84grb2h1UL22sJVXsnapygB7WR0dzxOk3KpHhNuZcEsTouCpe_aLWtptmxA_c0CGBre_9krBfzBxlgoJw_uZQnhOaZOdd46TdqhGaNEKHVcjAxN2G59jxkBI6i8XhKBuHGJ3gVm00]--></g></svg>