<?xml version="1.0" encoding="us-ascii" standalone="no"?><svg xmlns="http://www.w3.org/2000/svg" xmlns:xlink="http://www.w3.org/1999/xlink" contentStyleType="text/css" height="942px" preserveAspectRatio="none" style="width:1593px;height:942px;background:#FFFFFF;" version="1.1" viewBox="0 0 1593 942" width="1593px" zoomAndPan="magnify"><defs/><g><!--cluster graphics--><g id="cluster_graphics"><path d="M8.5,79 L70.5,79 A3.75,3.75 0 0 1 73,81.5 L80,102.6094 L1365.5,102.6094 A2.5,2.5 0 0 1 1368,105.1094 L1368,932.5 A2.5,2.5 0 0 1 1365.5,935 L8.5,935 A2.5,2.5 0 0 1 6,932.5 L6,81.5 A2.5,2.5 0 0 1 8.5,79 " fill="none" style="stroke:#000000;stroke-width:1.5;"/><line style="stroke:#000000;stroke-width:1.5;" x1="6" x2="80" y1="102.6094" y2="102.6094"/><text fill="#000000" font-family="sans-serif" font-size="14" font-weight="bold" lengthAdjust="spacing" textLength="61" x="10" y="95.5332">graphics</text></g><!--class FrameView--><g id="elem_FrameView"><rect codeLine="1" fill="#F1F1F1" height="48" id="FrameView" rx="2.5" ry="2.5" style="stroke:#181818;stroke-width:0.5;" width="102" x="1245" y="115"/><ellipse cx="1260" cy="131" fill="#B4A7E5" rx="11" ry="11" style="stroke:#181818;stroke-width:1.0;"/><path d="M1260.9531,127.6406 L1260.9531,134.2969 L1262.6719,134.2969 Q1263.2813,134.2969 1263.5469,134.5313 Q1263.8125,134.7656 1263.8125,135.1563 Q1263.8125,135.5313 1263.5469,135.7656 Q1263.2813,136 1262.6719,136 L1257.5313,136 Q1256.9219,136 1256.6563,135.7656 Q1256.3906,135.5313 1256.3906,135.1406 Q1256.3906,134.7656 1256.6563,134.5313 Q1256.9219,134.2969 1257.5313,134.2969 L1259.25,134.2969 L1259.25,127.6406 L1257.5313,127.6406 Q1256.9219,127.6406 1256.6563,127.4063 Q1256.3906,127.1719 1256.3906,126.7813 Q1256.3906,126.4063 1256.6563,126.1719 Q1256.9219,125.9375 1257.5313,125.9375 L1262.6719,125.9375 Q1263.2813,125.9375 1263.5469,126.1719 Q1263.8125,126.4063 1263.8125,126.7813 Q1263.8125,127.1719 1263.5469,127.4063 Q1263.2813,127.6406 1262.6719,127.6406 L1260.9531,127.6406 Z " fill="#000000"/><text fill="#000000" font-family="sans-serif" font-size="14" font-style="italic" lengthAdjust="spacing" textLength="70" x="1274" y="136.7285">FrameView</text><line style="stroke:#181818;stroke-width:0.5;" x1="1246" x2="1346" y1="147" y2="147"/><line style="stroke:#181818;stroke-width:0.5;" x1="1246" x2="1346" y1="155" y2="155"/></g><!--class MainFrame--><g id="elem_MainFrame"><rect codeLine="2" fill="#F1F1F1" height="48" id="MainFrame" rx="2.5" ry="2.5" style="stroke:#181818;stroke-width:0.5;" width="103" x="1244.5" y="223"/><ellipse cx="1259.5" cy="239" fill="#ADD1B2" rx="11" ry="11" style="stroke:#181818;stroke-width:1.0;"/><path d="M1262.2656,234.875 Q1262.4219,234.6563 1262.6094,234.5469 Q1262.7969,234.4375 1263.0156,234.4375 Q1263.3906,234.4375 1263.625,234.7031 Q1263.8594,234.9531 1263.8594,235.5625 L1263.8594,237.0156 Q1263.8594,237.625 1263.625,237.8906 Q1263.3906,238.1563 1263.0156,238.1563 Q1262.6719,238.1563 1262.4688,237.9531 Q1262.2656,237.7656 1262.1563,237.25 Q1262.1094,236.8906 1261.9219,236.7031 Q1261.5938,236.3281 1260.9844,236.1094 Q1260.375,235.8906 1259.75,235.8906 Q1258.9844,235.8906 1258.3438,236.2188 Q1257.7188,236.5469 1257.2188,237.2969 Q1256.7344,238.0469 1256.7344,239.0781 L1256.7344,240.1719 Q1256.7344,241.4063 1257.625,242.2344 Q1258.5156,243.0469 1260.1094,243.0469 Q1261.0469,243.0469 1261.7031,242.7969 Q1262.0938,242.6406 1262.5156,242.2031 Q1262.7813,241.9375 1262.9219,241.8594 Q1263.0781,241.7813 1263.2813,241.7813 Q1263.6094,241.7813 1263.8594,242.0469 Q1264.125,242.2969 1264.125,242.6406 Q1264.125,242.9844 1263.7813,243.3906 Q1263.2813,243.9688 1262.4844,244.2969 Q1261.4063,244.75 1260.1094,244.75 Q1258.5938,244.75 1257.3906,244.125 Q1256.4063,243.625 1255.7188,242.5625 Q1255.0313,241.4844 1255.0313,240.2031 L1255.0313,239.0469 Q1255.0313,237.7188 1255.6406,236.5781 Q1256.2656,235.4219 1257.3594,234.8125 Q1258.4531,234.1875 1259.6875,234.1875 Q1260.4219,234.1875 1261.0625,234.3594 Q1261.7188,234.5156 1262.2656,234.875 Z " fill="#000000"/><text fill="#000000" font-family="sans-serif" font-size="14" lengthAdjust="spacing" textLength="71" x="1273.5" y="244.7285">MainFrame</text><line style="stroke:#181818;stroke-width:0.5;" x1="1245.5" x2="1346.5" y1="255" y2="255"/><line style="stroke:#181818;stroke-width:0.5;" x1="1245.5" x2="1346.5" y1="263" y2="263"/></g><!--class GameLoopView--><g id="elem_GameLoopView"><rect codeLine="3" fill="#F1F1F1" height="48" id="GameLoopView" rx="2.5" ry="2.5" style="stroke:#181818;stroke-width:0.5;" width="131" x="1058.5" y="331"/><ellipse cx="1073.5" cy="347" fill="#B4A7E5" rx="11" ry="11" style="stroke:#181818;stroke-width:1.0;"/><path d="M1074.4531,343.6406 L1074.4531,350.2969 L1076.1719,350.2969 Q1076.7813,350.2969 1077.0469,350.5313 Q1077.3125,350.7656 1077.3125,351.1563 Q1077.3125,351.5313 1077.0469,351.7656 Q1076.7813,352 1076.1719,352 L1071.0313,352 Q1070.4219,352 1070.1563,351.7656 Q1069.8906,351.5313 1069.8906,351.1406 Q1069.8906,350.7656 1070.1563,350.5313 Q1070.4219,350.2969 1071.0313,350.2969 L1072.75,350.2969 L1072.75,343.6406 L1071.0313,343.6406 Q1070.4219,343.6406 1070.1563,343.4063 Q1069.8906,343.1719 1069.8906,342.7813 Q1069.8906,342.4063 1070.1563,342.1719 Q1070.4219,341.9375 1071.0313,341.9375 L1076.1719,341.9375 Q1076.7813,341.9375 1077.0469,342.1719 Q1077.3125,342.4063 1077.3125,342.7813 Q1077.3125,343.1719 1077.0469,343.4063 Q1076.7813,343.6406 1076.1719,343.6406 L1074.4531,343.6406 Z " fill="#000000"/><text fill="#000000" font-family="sans-serif" font-size="14" font-style="italic" lengthAdjust="spacing" textLength="99" x="1087.5" y="352.7285">GameLoopView</text><line style="stroke:#181818;stroke-width:0.5;" x1="1059.5" x2="1188.5" y1="363" y2="363"/><line style="stroke:#181818;stroke-width:0.5;" x1="1059.5" x2="1188.5" y1="371" y2="371"/></g><!--class BoardView--><g id="elem_BoardView"><rect codeLine="4" fill="#F1F1F1" height="48" id="BoardView" rx="2.5" ry="2.5" style="stroke:#181818;stroke-width:0.5;" width="99" x="771.5" y="439"/><ellipse cx="786.5" cy="455" fill="#A9DCDF" rx="11" ry="11" style="stroke:#181818;stroke-width:1.0;"/><path d="M788.6875,456.7656 L784.5469,456.7656 L784.125,457.7969 L784.5469,457.7969 Q785.1563,457.7969 785.4219,458.0313 Q785.6875,458.2656 785.6875,458.6563 Q785.6875,459.0313 785.4219,459.2656 Q785.1563,459.5 784.5469,459.5 L782.25,459.5 Q781.6406,459.5 781.3906,459.2656 Q781.125,459.0313 781.125,458.6406 Q781.125,458.2656 781.4063,458.0313 Q781.6719,457.7813 782.2969,457.7969 L784.9688,451.1406 L783.8594,451.1406 Q783.25,451.1406 782.9844,450.9063 Q782.7188,450.6719 782.7188,450.2813 Q782.7188,449.9063 782.9844,449.6719 Q783.25,449.4375 783.8594,449.4375 L787.5313,449.4375 L790.9219,457.7969 Q791.5156,457.7969 791.7031,457.9375 Q792.0938,458.2031 792.0938,458.6563 Q792.0938,459.0313 791.8281,459.2656 Q791.5781,459.5 790.9688,459.5 L788.6719,459.5 Q788.0625,459.5 787.7969,459.2656 Q787.5313,459.0313 787.5313,458.6406 Q787.5313,458.2656 787.7969,458.0313 Q788.0625,457.7969 788.6719,457.7969 L789.0938,457.7969 L788.6875,456.7656 Z M787.9688,455.0625 L786.6094,451.6875 L785.2344,455.0625 L787.9688,455.0625 Z " fill="#000000"/><text fill="#000000" font-family="sans-serif" font-size="14" font-style="italic" lengthAdjust="spacing" textLength="67" x="800.5" y="460.7285">BoardView</text><line style="stroke:#181818;stroke-width:0.5;" x1="772.5" x2="869.5" y1="471" y2="471"/><line style="stroke:#181818;stroke-width:0.5;" x1="772.5" x2="869.5" y1="479" y2="479"/></g><!--class BoardViewPrototypeDirector--><g id="elem_BoardViewPrototypeDirector"><rect codeLine="5" fill="#F1F1F1" height="48" id="BoardViewPrototypeDirector" rx="2.5" ry="2.5" style="stroke:#181818;stroke-width:0.5;" width="210" x="219" y="655"/><ellipse cx="234" cy="671" fill="#ADD1B2" rx="11" ry="11" style="stroke:#181818;stroke-width:1.0;"/><path d="M236.7656,666.875 Q236.9219,666.6563 237.1094,666.5469 Q237.2969,666.4375 237.5156,666.4375 Q237.8906,666.4375 238.125,666.7031 Q238.3594,666.9531 238.3594,667.5625 L238.3594,669.0156 Q238.3594,669.625 238.125,669.8906 Q237.8906,670.1563 237.5156,670.1563 Q237.1719,670.1563 236.9688,669.9531 Q236.7656,669.7656 236.6563,669.25 Q236.6094,668.8906 236.4219,668.7031 Q236.0938,668.3281 235.4844,668.1094 Q234.875,667.8906 234.25,667.8906 Q233.4844,667.8906 232.8438,668.2188 Q232.2188,668.5469 231.7188,669.2969 Q231.2344,670.0469 231.2344,671.0781 L231.2344,672.1719 Q231.2344,673.4063 232.125,674.2344 Q233.0156,675.0469 234.6094,675.0469 Q235.5469,675.0469 236.2031,674.7969 Q236.5938,674.6406 237.0156,674.2031 Q237.2813,673.9375 237.4219,673.8594 Q237.5781,673.7813 237.7813,673.7813 Q238.1094,673.7813 238.3594,674.0469 Q238.625,674.2969 238.625,674.6406 Q238.625,674.9844 238.2813,675.3906 Q237.7813,675.9688 236.9844,676.2969 Q235.9063,676.75 234.6094,676.75 Q233.0938,676.75 231.8906,676.125 Q230.9063,675.625 230.2188,674.5625 Q229.5313,673.4844 229.5313,672.2031 L229.5313,671.0469 Q229.5313,669.7188 230.1406,668.5781 Q230.7656,667.4219 231.8594,666.8125 Q232.9531,666.1875 234.1875,666.1875 Q234.9219,666.1875 235.5625,666.3594 Q236.2188,666.5156 236.7656,666.875 Z " fill="#000000"/><text fill="#000000" font-family="sans-serif" font-size="14" lengthAdjust="spacing" textLength="178" x="248" y="676.7285">BoardViewPrototypeDirector</text><line style="stroke:#181818;stroke-width:0.5;" x1="220" x2="428" y1="687" y2="687"/><line style="stroke:#181818;stroke-width:0.5;" x1="220" x2="428" y1="695" y2="695"/></g><!--class BoardViewPrototypeRegistry--><g id="elem_BoardViewPrototypeRegistry"><rect codeLine="6" fill="#F1F1F1" height="48" id="BoardViewPrototypeRegistry" rx="2.5" ry="2.5" style="stroke:#181818;stroke-width:0.5;" width="212" x="22" y="763"/><ellipse cx="37" cy="779" fill="#ADD1B2" rx="11" ry="11" style="stroke:#181818;stroke-width:1.0;"/><path d="M39.7656,774.875 Q39.9219,774.6563 40.1094,774.5469 Q40.2969,774.4375 40.5156,774.4375 Q40.8906,774.4375 41.125,774.7031 Q41.3594,774.9531 41.3594,775.5625 L41.3594,777.0156 Q41.3594,777.625 41.125,777.8906 Q40.8906,778.1563 40.5156,778.1563 Q40.1719,778.1563 39.9688,777.9531 Q39.7656,777.7656 39.6563,777.25 Q39.6094,776.8906 39.4219,776.7031 Q39.0938,776.3281 38.4844,776.1094 Q37.875,775.8906 37.25,775.8906 Q36.4844,775.8906 35.8438,776.2188 Q35.2188,776.5469 34.7188,777.2969 Q34.2344,778.0469 34.2344,779.0781 L34.2344,780.1719 Q34.2344,781.4063 35.125,782.2344 Q36.0156,783.0469 37.6094,783.0469 Q38.5469,783.0469 39.2031,782.7969 Q39.5938,782.6406 40.0156,782.2031 Q40.2813,781.9375 40.4219,781.8594 Q40.5781,781.7813 40.7813,781.7813 Q41.1094,781.7813 41.3594,782.0469 Q41.625,782.2969 41.625,782.6406 Q41.625,782.9844 41.2813,783.3906 Q40.7813,783.9688 39.9844,784.2969 Q38.9063,784.75 37.6094,784.75 Q36.0938,784.75 34.8906,784.125 Q33.9063,783.625 33.2188,782.5625 Q32.5313,781.4844 32.5313,780.2031 L32.5313,779.0469 Q32.5313,777.7188 33.1406,776.5781 Q33.7656,775.4219 34.8594,774.8125 Q35.9531,774.1875 37.1875,774.1875 Q37.9219,774.1875 38.5625,774.3594 Q39.2188,774.5156 39.7656,774.875 Z " fill="#000000"/><text fill="#000000" font-family="sans-serif" font-size="14" lengthAdjust="spacing" textLength="180" x="51" y="784.7285">BoardViewPrototypeRegistry</text><line style="stroke:#181818;stroke-width:0.5;" x1="23" x2="233" y1="795" y2="795"/><line style="stroke:#181818;stroke-width:0.5;" x1="23" x2="233" y1="803" y2="803"/></g><!--class Command--><g id="elem_Command"><rect codeLine="7" fill="#F1F1F1" height="48" id="Command" rx="2.5" ry="2.5" style="stroke:#181818;stroke-width:0.5;" width="96" x="948" y="547"/><ellipse cx="963" cy="563" fill="#B4A7E5" rx="11" ry="11" style="stroke:#181818;stroke-width:1.0;"/><path d="M963.9531,559.6406 L963.9531,566.2969 L965.6719,566.2969 Q966.2813,566.2969 966.5469,566.5313 Q966.8125,566.7656 966.8125,567.1563 Q966.8125,567.5313 966.5469,567.7656 Q966.2813,568 965.6719,568 L960.5313,568 Q959.9219,568 959.6563,567.7656 Q959.3906,567.5313 959.3906,567.1406 Q959.3906,566.7656 959.6563,566.5313 Q959.9219,566.2969 960.5313,566.2969 L962.25,566.2969 L962.25,559.6406 L960.5313,559.6406 Q959.9219,559.6406 959.6563,559.4063 Q959.3906,559.1719 959.3906,558.7813 Q959.3906,558.4063 959.6563,558.1719 Q959.9219,557.9375 960.5313,557.9375 L965.6719,557.9375 Q966.2813,557.9375 966.5469,558.1719 Q966.8125,558.4063 966.8125,558.7813 Q966.8125,559.1719 966.5469,559.4063 Q966.2813,559.6406 965.6719,559.6406 L963.9531,559.6406 Z " fill="#000000"/><text fill="#000000" font-family="sans-serif" font-size="14" font-style="italic" lengthAdjust="spacing" textLength="64" x="977" y="568.7285">Command</text><line style="stroke:#181818;stroke-width:0.5;" x1="949" x2="1043" y1="579" y2="579"/><line style="stroke:#181818;stroke-width:0.5;" x1="949" x2="1043" y1="587" y2="587"/></g><!--class PanelViewCommand--><g id="elem_PanelViewCommand"><rect codeLine="8" fill="#F1F1F1" height="48" id="PanelViewCommand" rx="2.5" ry="2.5" style="stroke:#181818;stroke-width:0.5;" width="161" x="849.5" y="763"/><ellipse cx="864.5" cy="779" fill="#A9DCDF" rx="11" ry="11" style="stroke:#181818;stroke-width:1.0;"/><path d="M866.6875,780.7656 L862.5469,780.7656 L862.125,781.7969 L862.5469,781.7969 Q863.1563,781.7969 863.4219,782.0313 Q863.6875,782.2656 863.6875,782.6563 Q863.6875,783.0313 863.4219,783.2656 Q863.1563,783.5 862.5469,783.5 L860.25,783.5 Q859.6406,783.5 859.3906,783.2656 Q859.125,783.0313 859.125,782.6406 Q859.125,782.2656 859.4063,782.0313 Q859.6719,781.7813 860.2969,781.7969 L862.9688,775.1406 L861.8594,775.1406 Q861.25,775.1406 860.9844,774.9063 Q860.7188,774.6719 860.7188,774.2813 Q860.7188,773.9063 860.9844,773.6719 Q861.25,773.4375 861.8594,773.4375 L865.5313,773.4375 L868.9219,781.7969 Q869.5156,781.7969 869.7031,781.9375 Q870.0938,782.2031 870.0938,782.6563 Q870.0938,783.0313 869.8281,783.2656 Q869.5781,783.5 868.9688,783.5 L866.6719,783.5 Q866.0625,783.5 865.7969,783.2656 Q865.5313,783.0313 865.5313,782.6406 Q865.5313,782.2656 865.7969,782.0313 Q866.0625,781.7969 866.6719,781.7969 L867.0938,781.7969 L866.6875,780.7656 Z M865.9688,779.0625 L864.6094,775.6875 L863.2344,779.0625 L865.9688,779.0625 Z " fill="#000000"/><text fill="#000000" font-family="sans-serif" font-size="14" font-style="italic" lengthAdjust="spacing" textLength="129" x="878.5" y="784.7285">PanelViewCommand</text><line style="stroke:#181818;stroke-width:0.5;" x1="850.5" x2="1009.5" y1="795" y2="795"/><line style="stroke:#181818;stroke-width:0.5;" x1="850.5" x2="1009.5" y1="803" y2="803"/></g><!--class ViewCommand--><g id="elem_ViewCommand"><rect codeLine="9" fill="#F1F1F1" height="48" id="ViewCommand" rx="2.5" ry="2.5" style="stroke:#181818;stroke-width:0.5;" width="125" x="1044.5" y="655"/><ellipse cx="1059.5" cy="671" fill="#A9DCDF" rx="11" ry="11" style="stroke:#181818;stroke-width:1.0;"/><path d="M1061.6875,672.7656 L1057.5469,672.7656 L1057.125,673.7969 L1057.5469,673.7969 Q1058.1563,673.7969 1058.4219,674.0313 Q1058.6875,674.2656 1058.6875,674.6563 Q1058.6875,675.0313 1058.4219,675.2656 Q1058.1563,675.5 1057.5469,675.5 L1055.25,675.5 Q1054.6406,675.5 1054.3906,675.2656 Q1054.125,675.0313 1054.125,674.6406 Q1054.125,674.2656 1054.4063,674.0313 Q1054.6719,673.7813 1055.2969,673.7969 L1057.9688,667.1406 L1056.8594,667.1406 Q1056.25,667.1406 1055.9844,666.9063 Q1055.7188,666.6719 1055.7188,666.2813 Q1055.7188,665.9063 1055.9844,665.6719 Q1056.25,665.4375 1056.8594,665.4375 L1060.5313,665.4375 L1063.9219,673.7969 Q1064.5156,673.7969 1064.7031,673.9375 Q1065.0938,674.2031 1065.0938,674.6563 Q1065.0938,675.0313 1064.8281,675.2656 Q1064.5781,675.5 1063.9688,675.5 L1061.6719,675.5 Q1061.0625,675.5 1060.7969,675.2656 Q1060.5313,675.0313 1060.5313,674.6406 Q1060.5313,674.2656 1060.7969,674.0313 Q1061.0625,673.7969 1061.6719,673.7969 L1062.0938,673.7969 L1061.6875,672.7656 Z M1060.9688,671.0625 L1059.6094,667.6875 L1058.2344,671.0625 L1060.9688,671.0625 Z " fill="#000000"/><text fill="#000000" font-family="sans-serif" font-size="14" font-style="italic" lengthAdjust="spacing" textLength="93" x="1073.5" y="676.7285">ViewCommand</text><line style="stroke:#181818;stroke-width:0.5;" x1="1045.5" x2="1168.5" y1="687" y2="687"/><line style="stroke:#181818;stroke-width:0.5;" x1="1045.5" x2="1168.5" y1="695" y2="695"/></g><!--class GraphicsView--><g id="elem_GraphicsView"><rect codeLine="10" fill="#F1F1F1" height="48" id="GraphicsView" rx="2.5" ry="2.5" style="stroke:#181818;stroke-width:0.5;" width="118" x="1069" y="115"/><ellipse cx="1084" cy="131" fill="#ADD1B2" rx="11" ry="11" style="stroke:#181818;stroke-width:1.0;"/><path d="M1086.7656,126.875 Q1086.9219,126.6563 1087.1094,126.5469 Q1087.2969,126.4375 1087.5156,126.4375 Q1087.8906,126.4375 1088.125,126.7031 Q1088.3594,126.9531 1088.3594,127.5625 L1088.3594,129.0156 Q1088.3594,129.625 1088.125,129.8906 Q1087.8906,130.1563 1087.5156,130.1563 Q1087.1719,130.1563 1086.9688,129.9531 Q1086.7656,129.7656 1086.6563,129.25 Q1086.6094,128.8906 1086.4219,128.7031 Q1086.0938,128.3281 1085.4844,128.1094 Q1084.875,127.8906 1084.25,127.8906 Q1083.4844,127.8906 1082.8438,128.2188 Q1082.2188,128.5469 1081.7188,129.2969 Q1081.2344,130.0469 1081.2344,131.0781 L1081.2344,132.1719 Q1081.2344,133.4063 1082.125,134.2344 Q1083.0156,135.0469 1084.6094,135.0469 Q1085.5469,135.0469 1086.2031,134.7969 Q1086.5938,134.6406 1087.0156,134.2031 Q1087.2813,133.9375 1087.4219,133.8594 Q1087.5781,133.7813 1087.7813,133.7813 Q1088.1094,133.7813 1088.3594,134.0469 Q1088.625,134.2969 1088.625,134.6406 Q1088.625,134.9844 1088.2813,135.3906 Q1087.7813,135.9688 1086.9844,136.2969 Q1085.9063,136.75 1084.6094,136.75 Q1083.0938,136.75 1081.8906,136.125 Q1080.9063,135.625 1080.2188,134.5625 Q1079.5313,133.4844 1079.5313,132.2031 L1079.5313,131.0469 Q1079.5313,129.7188 1080.1406,128.5781 Q1080.7656,127.4219 1081.8594,126.8125 Q1082.9531,126.1875 1084.1875,126.1875 Q1084.9219,126.1875 1085.5625,126.3594 Q1086.2188,126.5156 1086.7656,126.875 Z " fill="#000000"/><text fill="#000000" font-family="sans-serif" font-size="14" lengthAdjust="spacing" textLength="86" x="1098" y="136.7285">GraphicsView</text><line style="stroke:#181818;stroke-width:0.5;" x1="1070" x2="1186" y1="147" y2="147"/><line style="stroke:#181818;stroke-width:0.5;" x1="1070" x2="1186" y1="155" y2="155"/></g><!--class MachinePlayerBoardView--><g id="elem_MachinePlayerBoardView"><rect codeLine="11" fill="#F1F1F1" height="48" id="MachinePlayerBoardView" rx="2.5" ry="2.5" style="stroke:#181818;stroke-width:0.5;" width="192" x="306" y="763"/><ellipse cx="321" cy="779" fill="#ADD1B2" rx="11" ry="11" style="stroke:#181818;stroke-width:1.0;"/><path d="M323.7656,774.875 Q323.9219,774.6563 324.1094,774.5469 Q324.2969,774.4375 324.5156,774.4375 Q324.8906,774.4375 325.125,774.7031 Q325.3594,774.9531 325.3594,775.5625 L325.3594,777.0156 Q325.3594,777.625 325.125,777.8906 Q324.8906,778.1563 324.5156,778.1563 Q324.1719,778.1563 323.9688,777.9531 Q323.7656,777.7656 323.6563,777.25 Q323.6094,776.8906 323.4219,776.7031 Q323.0938,776.3281 322.4844,776.1094 Q321.875,775.8906 321.25,775.8906 Q320.4844,775.8906 319.8438,776.2188 Q319.2188,776.5469 318.7188,777.2969 Q318.2344,778.0469 318.2344,779.0781 L318.2344,780.1719 Q318.2344,781.4063 319.125,782.2344 Q320.0156,783.0469 321.6094,783.0469 Q322.5469,783.0469 323.2031,782.7969 Q323.5938,782.6406 324.0156,782.2031 Q324.2813,781.9375 324.4219,781.8594 Q324.5781,781.7813 324.7813,781.7813 Q325.1094,781.7813 325.3594,782.0469 Q325.625,782.2969 325.625,782.6406 Q325.625,782.9844 325.2813,783.3906 Q324.7813,783.9688 323.9844,784.2969 Q322.9063,784.75 321.6094,784.75 Q320.0938,784.75 318.8906,784.125 Q317.9063,783.625 317.2188,782.5625 Q316.5313,781.4844 316.5313,780.2031 L316.5313,779.0469 Q316.5313,777.7188 317.1406,776.5781 Q317.7656,775.4219 318.8594,774.8125 Q319.9531,774.1875 321.1875,774.1875 Q321.9219,774.1875 322.5625,774.3594 Q323.2188,774.5156 323.7656,774.875 Z " fill="#000000"/><text fill="#000000" font-family="sans-serif" font-size="14" lengthAdjust="spacing" textLength="160" x="335" y="784.7285">MachinePlayerBoardView</text><line style="stroke:#181818;stroke-width:0.5;" x1="307" x2="497" y1="795" y2="795"/><line style="stroke:#181818;stroke-width:0.5;" x1="307" x2="497" y1="803" y2="803"/></g><!--class NextTurnCommand--><g id="elem_NextTurnCommand"><rect codeLine="12" fill="#F1F1F1" height="48" id="NextTurnCommand" rx="2.5" ry="2.5" style="stroke:#181818;stroke-width:0.5;" width="153" x="853.5" y="871"/><ellipse cx="868.5" cy="887" fill="#ADD1B2" rx="11" ry="11" style="stroke:#181818;stroke-width:1.0;"/><path d="M871.2656,882.875 Q871.4219,882.6563 871.6094,882.5469 Q871.7969,882.4375 872.0156,882.4375 Q872.3906,882.4375 872.625,882.7031 Q872.8594,882.9531 872.8594,883.5625 L872.8594,885.0156 Q872.8594,885.625 872.625,885.8906 Q872.3906,886.1563 872.0156,886.1563 Q871.6719,886.1563 871.4688,885.9531 Q871.2656,885.7656 871.1563,885.25 Q871.1094,884.8906 870.9219,884.7031 Q870.5938,884.3281 869.9844,884.1094 Q869.375,883.8906 868.75,883.8906 Q867.9844,883.8906 867.3438,884.2188 Q866.7188,884.5469 866.2188,885.2969 Q865.7344,886.0469 865.7344,887.0781 L865.7344,888.1719 Q865.7344,889.4063 866.625,890.2344 Q867.5156,891.0469 869.1094,891.0469 Q870.0469,891.0469 870.7031,890.7969 Q871.0938,890.6406 871.5156,890.2031 Q871.7813,889.9375 871.9219,889.8594 Q872.0781,889.7813 872.2813,889.7813 Q872.6094,889.7813 872.8594,890.0469 Q873.125,890.2969 873.125,890.6406 Q873.125,890.9844 872.7813,891.3906 Q872.2813,891.9688 871.4844,892.2969 Q870.4063,892.75 869.1094,892.75 Q867.5938,892.75 866.3906,892.125 Q865.4063,891.625 864.7188,890.5625 Q864.0313,889.4844 864.0313,888.2031 L864.0313,887.0469 Q864.0313,885.7188 864.6406,884.5781 Q865.2656,883.4219 866.3594,882.8125 Q867.4531,882.1875 868.6875,882.1875 Q869.4219,882.1875 870.0625,882.3594 Q870.7188,882.5156 871.2656,882.875 Z " fill="#000000"/><text fill="#000000" font-family="sans-serif" font-size="14" lengthAdjust="spacing" textLength="121" x="882.5" y="892.7285">NextTurnCommand</text><line style="stroke:#181818;stroke-width:0.5;" x1="854.5" x2="1005.5" y1="903" y2="903"/><line style="stroke:#181818;stroke-width:0.5;" x1="854.5" x2="1005.5" y1="911" y2="911"/></g><!--class PlayCommand--><g id="elem_PlayCommand"><rect codeLine="13" fill="#F1F1F1" height="48" id="PlayCommand" rx="2.5" ry="2.5" style="stroke:#181818;stroke-width:0.5;" width="123" x="1045.5" y="763"/><ellipse cx="1060.5" cy="779" fill="#ADD1B2" rx="11" ry="11" style="stroke:#181818;stroke-width:1.0;"/><path d="M1063.2656,774.875 Q1063.4219,774.6563 1063.6094,774.5469 Q1063.7969,774.4375 1064.0156,774.4375 Q1064.3906,774.4375 1064.625,774.7031 Q1064.8594,774.9531 1064.8594,775.5625 L1064.8594,777.0156 Q1064.8594,777.625 1064.625,777.8906 Q1064.3906,778.1563 1064.0156,778.1563 Q1063.6719,778.1563 1063.4688,777.9531 Q1063.2656,777.7656 1063.1563,777.25 Q1063.1094,776.8906 1062.9219,776.7031 Q1062.5938,776.3281 1061.9844,776.1094 Q1061.375,775.8906 1060.75,775.8906 Q1059.9844,775.8906 1059.3438,776.2188 Q1058.7188,776.5469 1058.2188,777.2969 Q1057.7344,778.0469 1057.7344,779.0781 L1057.7344,780.1719 Q1057.7344,781.4063 1058.625,782.2344 Q1059.5156,783.0469 1061.1094,783.0469 Q1062.0469,783.0469 1062.7031,782.7969 Q1063.0938,782.6406 1063.5156,782.2031 Q1063.7813,781.9375 1063.9219,781.8594 Q1064.0781,781.7813 1064.2813,781.7813 Q1064.6094,781.7813 1064.8594,782.0469 Q1065.125,782.2969 1065.125,782.6406 Q1065.125,782.9844 1064.7813,783.3906 Q1064.2813,783.9688 1063.4844,784.2969 Q1062.4063,784.75 1061.1094,784.75 Q1059.5938,784.75 1058.3906,784.125 Q1057.4063,783.625 1056.7188,782.5625 Q1056.0313,781.4844 1056.0313,780.2031 L1056.0313,779.0469 Q1056.0313,777.7188 1056.6406,776.5781 Q1057.2656,775.4219 1058.3594,774.8125 Q1059.4531,774.1875 1060.6875,774.1875 Q1061.4219,774.1875 1062.0625,774.3594 Q1062.7188,774.5156 1063.2656,774.875 Z " fill="#000000"/><text fill="#000000" font-family="sans-serif" font-size="14" lengthAdjust="spacing" textLength="91" x="1074.5" y="784.7285">PlayCommand</text><line style="stroke:#181818;stroke-width:0.5;" x1="1046.5" x2="1167.5" y1="795" y2="795"/><line style="stroke:#181818;stroke-width:0.5;" x1="1046.5" x2="1167.5" y1="803" y2="803"/></g><!--class PlayPanelView--><g id="elem_PlayPanelView"><rect codeLine="14" fill="#F1F1F1" height="48" id="PlayPanelView" rx="2.5" ry="2.5" style="stroke:#181818;stroke-width:0.5;" width="124" x="459" y="547"/><ellipse cx="474" cy="563" fill="#ADD1B2" rx="11" ry="11" style="stroke:#181818;stroke-width:1.0;"/><path d="M476.7656,558.875 Q476.9219,558.6563 477.1094,558.5469 Q477.2969,558.4375 477.5156,558.4375 Q477.8906,558.4375 478.125,558.7031 Q478.3594,558.9531 478.3594,559.5625 L478.3594,561.0156 Q478.3594,561.625 478.125,561.8906 Q477.8906,562.1563 477.5156,562.1563 Q477.1719,562.1563 476.9688,561.9531 Q476.7656,561.7656 476.6563,561.25 Q476.6094,560.8906 476.4219,560.7031 Q476.0938,560.3281 475.4844,560.1094 Q474.875,559.8906 474.25,559.8906 Q473.4844,559.8906 472.8438,560.2188 Q472.2188,560.5469 471.7188,561.2969 Q471.2344,562.0469 471.2344,563.0781 L471.2344,564.1719 Q471.2344,565.4063 472.125,566.2344 Q473.0156,567.0469 474.6094,567.0469 Q475.5469,567.0469 476.2031,566.7969 Q476.5938,566.6406 477.0156,566.2031 Q477.2813,565.9375 477.4219,565.8594 Q477.5781,565.7813 477.7813,565.7813 Q478.1094,565.7813 478.3594,566.0469 Q478.625,566.2969 478.625,566.6406 Q478.625,566.9844 478.2813,567.3906 Q477.7813,567.9688 476.9844,568.2969 Q475.9063,568.75 474.6094,568.75 Q473.0938,568.75 471.8906,568.125 Q470.9063,567.625 470.2188,566.5625 Q469.5313,565.4844 469.5313,564.2031 L469.5313,563.0469 Q469.5313,561.7188 470.1406,560.5781 Q470.7656,559.4219 471.8594,558.8125 Q472.9531,558.1875 474.1875,558.1875 Q474.9219,558.1875 475.5625,558.3594 Q476.2188,558.5156 476.7656,558.875 Z " fill="#000000"/><text fill="#000000" font-family="sans-serif" font-size="14" lengthAdjust="spacing" textLength="92" x="488" y="568.7285">PlayPanelView</text><line style="stroke:#181818;stroke-width:0.5;" x1="460" x2="582" y1="579" y2="579"/><line style="stroke:#181818;stroke-width:0.5;" x1="460" x2="582" y1="587" y2="587"/></g><!--class ResumePanelView--><g id="elem_ResumePanelView"><rect codeLine="15" fill="#F1F1F1" height="48" id="ResumePanelView" rx="2.5" ry="2.5" style="stroke:#181818;stroke-width:0.5;" width="149" x="587.5" y="439"/><ellipse cx="602.5" cy="455" fill="#ADD1B2" rx="11" ry="11" style="stroke:#181818;stroke-width:1.0;"/><path d="M605.2656,450.875 Q605.4219,450.6563 605.6094,450.5469 Q605.7969,450.4375 606.0156,450.4375 Q606.3906,450.4375 606.625,450.7031 Q606.8594,450.9531 606.8594,451.5625 L606.8594,453.0156 Q606.8594,453.625 606.625,453.8906 Q606.3906,454.1563 606.0156,454.1563 Q605.6719,454.1563 605.4688,453.9531 Q605.2656,453.7656 605.1563,453.25 Q605.1094,452.8906 604.9219,452.7031 Q604.5938,452.3281 603.9844,452.1094 Q603.375,451.8906 602.75,451.8906 Q601.9844,451.8906 601.3438,452.2188 Q600.7188,452.5469 600.2188,453.2969 Q599.7344,454.0469 599.7344,455.0781 L599.7344,456.1719 Q599.7344,457.4063 600.625,458.2344 Q601.5156,459.0469 603.1094,459.0469 Q604.0469,459.0469 604.7031,458.7969 Q605.0938,458.6406 605.5156,458.2031 Q605.7813,457.9375 605.9219,457.8594 Q606.0781,457.7813 606.2813,457.7813 Q606.6094,457.7813 606.8594,458.0469 Q607.125,458.2969 607.125,458.6406 Q607.125,458.9844 606.7813,459.3906 Q606.2813,459.9688 605.4844,460.2969 Q604.4063,460.75 603.1094,460.75 Q601.5938,460.75 600.3906,460.125 Q599.4063,459.625 598.7188,458.5625 Q598.0313,457.4844 598.0313,456.2031 L598.0313,455.0469 Q598.0313,453.7188 598.6406,452.5781 Q599.2656,451.4219 600.3594,450.8125 Q601.4531,450.1875 602.6875,450.1875 Q603.4219,450.1875 604.0625,450.3594 Q604.7188,450.5156 605.2656,450.875 Z " fill="#000000"/><text fill="#000000" font-family="sans-serif" font-size="14" lengthAdjust="spacing" textLength="117" x="616.5" y="460.7285">ResumePanelView</text><line style="stroke:#181818;stroke-width:0.5;" x1="588.5" x2="735.5" y1="471" y2="471"/><line style="stroke:#181818;stroke-width:0.5;" x1="588.5" x2="735.5" y1="479" y2="479"/></g><!--class ResumeCommand--><g id="elem_ResumeCommand"><rect codeLine="16" fill="#F1F1F1" height="48" id="ResumeCommand" rx="2.5" ry="2.5" style="stroke:#181818;stroke-width:0.5;" width="148" x="1204" y="763"/><ellipse cx="1219" cy="779" fill="#ADD1B2" rx="11" ry="11" style="stroke:#181818;stroke-width:1.0;"/><path d="M1221.7656,774.875 Q1221.9219,774.6563 1222.1094,774.5469 Q1222.2969,774.4375 1222.5156,774.4375 Q1222.8906,774.4375 1223.125,774.7031 Q1223.3594,774.9531 1223.3594,775.5625 L1223.3594,777.0156 Q1223.3594,777.625 1223.125,777.8906 Q1222.8906,778.1563 1222.5156,778.1563 Q1222.1719,778.1563 1221.9688,777.9531 Q1221.7656,777.7656 1221.6563,777.25 Q1221.6094,776.8906 1221.4219,776.7031 Q1221.0938,776.3281 1220.4844,776.1094 Q1219.875,775.8906 1219.25,775.8906 Q1218.4844,775.8906 1217.8438,776.2188 Q1217.2188,776.5469 1216.7188,777.2969 Q1216.2344,778.0469 1216.2344,779.0781 L1216.2344,780.1719 Q1216.2344,781.4063 1217.125,782.2344 Q1218.0156,783.0469 1219.6094,783.0469 Q1220.5469,783.0469 1221.2031,782.7969 Q1221.5938,782.6406 1222.0156,782.2031 Q1222.2813,781.9375 1222.4219,781.8594 Q1222.5781,781.7813 1222.7813,781.7813 Q1223.1094,781.7813 1223.3594,782.0469 Q1223.625,782.2969 1223.625,782.6406 Q1223.625,782.9844 1223.2813,783.3906 Q1222.7813,783.9688 1221.9844,784.2969 Q1220.9063,784.75 1219.6094,784.75 Q1218.0938,784.75 1216.8906,784.125 Q1215.9063,783.625 1215.2188,782.5625 Q1214.5313,781.4844 1214.5313,780.2031 L1214.5313,779.0469 Q1214.5313,777.7188 1215.1406,776.5781 Q1215.7656,775.4219 1216.8594,774.8125 Q1217.9531,774.1875 1219.1875,774.1875 Q1219.9219,774.1875 1220.5625,774.3594 Q1221.2188,774.5156 1221.7656,774.875 Z " fill="#000000"/><text fill="#000000" font-family="sans-serif" font-size="14" lengthAdjust="spacing" textLength="116" x="1233" y="784.7285">ResumeCommand</text><line style="stroke:#181818;stroke-width:0.5;" x1="1205" x2="1351" y1="795" y2="795"/><line style="stroke:#181818;stroke-width:0.5;" x1="1205" x2="1351" y1="803" y2="803"/></g><!--class Square--><g id="elem_Square"><rect codeLine="17" fill="#F1F1F1" height="48" id="Square" rx="2.5" ry="2.5" style="stroke:#181818;stroke-width:0.5;" width="78" x="533" y="763"/><ellipse cx="548" cy="779" fill="#ADD1B2" rx="11" ry="11" style="stroke:#181818;stroke-width:1.0;"/><path d="M550.7656,774.875 Q550.9219,774.6563 551.1094,774.5469 Q551.2969,774.4375 551.5156,774.4375 Q551.8906,774.4375 552.125,774.7031 Q552.3594,774.9531 552.3594,775.5625 L552.3594,777.0156 Q552.3594,777.625 552.125,777.8906 Q551.8906,778.1563 551.5156,778.1563 Q551.1719,778.1563 550.9688,777.9531 Q550.7656,777.7656 550.6563,777.25 Q550.6094,776.8906 550.4219,776.7031 Q550.0938,776.3281 549.4844,776.1094 Q548.875,775.8906 548.25,775.8906 Q547.4844,775.8906 546.8438,776.2188 Q546.2188,776.5469 545.7188,777.2969 Q545.2344,778.0469 545.2344,779.0781 L545.2344,780.1719 Q545.2344,781.4063 546.125,782.2344 Q547.0156,783.0469 548.6094,783.0469 Q549.5469,783.0469 550.2031,782.7969 Q550.5938,782.6406 551.0156,782.2031 Q551.2813,781.9375 551.4219,781.8594 Q551.5781,781.7813 551.7813,781.7813 Q552.1094,781.7813 552.3594,782.0469 Q552.625,782.2969 552.625,782.6406 Q552.625,782.9844 552.2813,783.3906 Q551.7813,783.9688 550.9844,784.2969 Q549.9063,784.75 548.6094,784.75 Q547.0938,784.75 545.8906,784.125 Q544.9063,783.625 544.2188,782.5625 Q543.5313,781.4844 543.5313,780.2031 L543.5313,779.0469 Q543.5313,777.7188 544.1406,776.5781 Q544.7656,775.4219 545.8594,774.8125 Q546.9531,774.1875 548.1875,774.1875 Q548.9219,774.1875 549.5625,774.3594 Q550.2188,774.5156 550.7656,774.875 Z " fill="#000000"/><text fill="#000000" font-family="sans-serif" font-size="14" lengthAdjust="spacing" textLength="46" x="562" y="784.7285">Square</text><line style="stroke:#181818;stroke-width:0.5;" x1="534" x2="610" y1="795" y2="795"/><line style="stroke:#181818;stroke-width:0.5;" x1="534" x2="610" y1="803" y2="803"/></g><!--class ClickableSquare--><g id="elem_ClickableSquare"><rect codeLine="18" fill="#F1F1F1" height="48" id="ClickableSquare" rx="2.5" ry="2.5" style="stroke:#181818;stroke-width:0.5;" width="135" x="590.5" y="871"/><ellipse cx="605.5" cy="887" fill="#ADD1B2" rx="11" ry="11" style="stroke:#181818;stroke-width:1.0;"/><path d="M608.2656,882.875 Q608.4219,882.6563 608.6094,882.5469 Q608.7969,882.4375 609.0156,882.4375 Q609.3906,882.4375 609.625,882.7031 Q609.8594,882.9531 609.8594,883.5625 L609.8594,885.0156 Q609.8594,885.625 609.625,885.8906 Q609.3906,886.1563 609.0156,886.1563 Q608.6719,886.1563 608.4688,885.9531 Q608.2656,885.7656 608.1563,885.25 Q608.1094,884.8906 607.9219,884.7031 Q607.5938,884.3281 606.9844,884.1094 Q606.375,883.8906 605.75,883.8906 Q604.9844,883.8906 604.3438,884.2188 Q603.7188,884.5469 603.2188,885.2969 Q602.7344,886.0469 602.7344,887.0781 L602.7344,888.1719 Q602.7344,889.4063 603.625,890.2344 Q604.5156,891.0469 606.1094,891.0469 Q607.0469,891.0469 607.7031,890.7969 Q608.0938,890.6406 608.5156,890.2031 Q608.7813,889.9375 608.9219,889.8594 Q609.0781,889.7813 609.2813,889.7813 Q609.6094,889.7813 609.8594,890.0469 Q610.125,890.2969 610.125,890.6406 Q610.125,890.9844 609.7813,891.3906 Q609.2813,891.9688 608.4844,892.2969 Q607.4063,892.75 606.1094,892.75 Q604.5938,892.75 603.3906,892.125 Q602.4063,891.625 601.7188,890.5625 Q601.0313,889.4844 601.0313,888.2031 L601.0313,887.0469 Q601.0313,885.7188 601.6406,884.5781 Q602.2656,883.4219 603.3594,882.8125 Q604.4531,882.1875 605.6875,882.1875 Q606.4219,882.1875 607.0625,882.3594 Q607.7188,882.5156 608.2656,882.875 Z " fill="#000000"/><text fill="#000000" font-family="sans-serif" font-size="14" lengthAdjust="spacing" textLength="103" x="619.5" y="892.7285">ClickableSquare</text><line style="stroke:#181818;stroke-width:0.5;" x1="591.5" x2="724.5" y1="903" y2="903"/><line style="stroke:#181818;stroke-width:0.5;" x1="591.5" x2="724.5" y1="911" y2="911"/></g><!--class NonClickableSquare--><g id="elem_NonClickableSquare"><rect codeLine="19" fill="#F1F1F1" height="48" id="NonClickableSquare" rx="2.5" ry="2.5" style="stroke:#181818;stroke-width:0.5;" width="160" x="322" y="871"/><ellipse cx="337" cy="887" fill="#ADD1B2" rx="11" ry="11" style="stroke:#181818;stroke-width:1.0;"/><path d="M339.7656,882.875 Q339.9219,882.6563 340.1094,882.5469 Q340.2969,882.4375 340.5156,882.4375 Q340.8906,882.4375 341.125,882.7031 Q341.3594,882.9531 341.3594,883.5625 L341.3594,885.0156 Q341.3594,885.625 341.125,885.8906 Q340.8906,886.1563 340.5156,886.1563 Q340.1719,886.1563 339.9688,885.9531 Q339.7656,885.7656 339.6563,885.25 Q339.6094,884.8906 339.4219,884.7031 Q339.0938,884.3281 338.4844,884.1094 Q337.875,883.8906 337.25,883.8906 Q336.4844,883.8906 335.8438,884.2188 Q335.2188,884.5469 334.7188,885.2969 Q334.2344,886.0469 334.2344,887.0781 L334.2344,888.1719 Q334.2344,889.4063 335.125,890.2344 Q336.0156,891.0469 337.6094,891.0469 Q338.5469,891.0469 339.2031,890.7969 Q339.5938,890.6406 340.0156,890.2031 Q340.2813,889.9375 340.4219,889.8594 Q340.5781,889.7813 340.7813,889.7813 Q341.1094,889.7813 341.3594,890.0469 Q341.625,890.2969 341.625,890.6406 Q341.625,890.9844 341.2813,891.3906 Q340.7813,891.9688 339.9844,892.2969 Q338.9063,892.75 337.6094,892.75 Q336.0938,892.75 334.8906,892.125 Q333.9063,891.625 333.2188,890.5625 Q332.5313,889.4844 332.5313,888.2031 L332.5313,887.0469 Q332.5313,885.7188 333.1406,884.5781 Q333.7656,883.4219 334.8594,882.8125 Q335.9531,882.1875 337.1875,882.1875 Q337.9219,882.1875 338.5625,882.3594 Q339.2188,882.5156 339.7656,882.875 Z " fill="#000000"/><text fill="#000000" font-family="sans-serif" font-size="14" lengthAdjust="spacing" textLength="128" x="351" y="892.7285">NonClickableSquare</text><line style="stroke:#181818;stroke-width:0.5;" x1="323" x2="481" y1="903" y2="903"/><line style="stroke:#181818;stroke-width:0.5;" x1="323" x2="481" y1="911" y2="911"/></g><!--class StartPanelView--><g id="elem_StartPanelView"><rect codeLine="20" fill="#F1F1F1" height="48" id="StartPanelView" rx="2.5" ry="2.5" style="stroke:#181818;stroke-width:0.5;" width="127" x="1060.5" y="439"/><ellipse cx="1075.5" cy="455" fill="#ADD1B2" rx="11" ry="11" style="stroke:#181818;stroke-width:1.0;"/><path d="M1078.2656,450.875 Q1078.4219,450.6563 1078.6094,450.5469 Q1078.7969,450.4375 1079.0156,450.4375 Q1079.3906,450.4375 1079.625,450.7031 Q1079.8594,450.9531 1079.8594,451.5625 L1079.8594,453.0156 Q1079.8594,453.625 1079.625,453.8906 Q1079.3906,454.1563 1079.0156,454.1563 Q1078.6719,454.1563 1078.4688,453.9531 Q1078.2656,453.7656 1078.1563,453.25 Q1078.1094,452.8906 1077.9219,452.7031 Q1077.5938,452.3281 1076.9844,452.1094 Q1076.375,451.8906 1075.75,451.8906 Q1074.9844,451.8906 1074.3438,452.2188 Q1073.7188,452.5469 1073.2188,453.2969 Q1072.7344,454.0469 1072.7344,455.0781 L1072.7344,456.1719 Q1072.7344,457.4063 1073.625,458.2344 Q1074.5156,459.0469 1076.1094,459.0469 Q1077.0469,459.0469 1077.7031,458.7969 Q1078.0938,458.6406 1078.5156,458.2031 Q1078.7813,457.9375 1078.9219,457.8594 Q1079.0781,457.7813 1079.2813,457.7813 Q1079.6094,457.7813 1079.8594,458.0469 Q1080.125,458.2969 1080.125,458.6406 Q1080.125,458.9844 1079.7813,459.3906 Q1079.2813,459.9688 1078.4844,460.2969 Q1077.4063,460.75 1076.1094,460.75 Q1074.5938,460.75 1073.3906,460.125 Q1072.4063,459.625 1071.7188,458.5625 Q1071.0313,457.4844 1071.0313,456.2031 L1071.0313,455.0469 Q1071.0313,453.7188 1071.6406,452.5781 Q1072.2656,451.4219 1073.3594,450.8125 Q1074.4531,450.1875 1075.6875,450.1875 Q1076.4219,450.1875 1077.0625,450.3594 Q1077.7188,450.5156 1078.2656,450.875 Z " fill="#000000"/><text fill="#000000" font-family="sans-serif" font-size="14" lengthAdjust="spacing" textLength="95" x="1089.5" y="460.7285">StartPanelView</text><line style="stroke:#181818;stroke-width:0.5;" x1="1061.5" x2="1186.5" y1="471" y2="471"/><line style="stroke:#181818;stroke-width:0.5;" x1="1061.5" x2="1186.5" y1="479" y2="479"/></g><!--class TurnView--><g id="elem_TurnView"><rect codeLine="21" fill="#F1F1F1" height="48" id="TurnView" rx="2.5" ry="2.5" style="stroke:#181818;stroke-width:0.5;" width="91" x="92.5" y="655"/><ellipse cx="107.5" cy="671" fill="#ADD1B2" rx="11" ry="11" style="stroke:#181818;stroke-width:1.0;"/><path d="M110.2656,666.875 Q110.4219,666.6563 110.6094,666.5469 Q110.7969,666.4375 111.0156,666.4375 Q111.3906,666.4375 111.625,666.7031 Q111.8594,666.9531 111.8594,667.5625 L111.8594,669.0156 Q111.8594,669.625 111.625,669.8906 Q111.3906,670.1563 111.0156,670.1563 Q110.6719,670.1563 110.4688,669.9531 Q110.2656,669.7656 110.1563,669.25 Q110.1094,668.8906 109.9219,668.7031 Q109.5938,668.3281 108.9844,668.1094 Q108.375,667.8906 107.75,667.8906 Q106.9844,667.8906 106.3438,668.2188 Q105.7188,668.5469 105.2188,669.2969 Q104.7344,670.0469 104.7344,671.0781 L104.7344,672.1719 Q104.7344,673.4063 105.625,674.2344 Q106.5156,675.0469 108.1094,675.0469 Q109.0469,675.0469 109.7031,674.7969 Q110.0938,674.6406 110.5156,674.2031 Q110.7813,673.9375 110.9219,673.8594 Q111.0781,673.7813 111.2813,673.7813 Q111.6094,673.7813 111.8594,674.0469 Q112.125,674.2969 112.125,674.6406 Q112.125,674.9844 111.7813,675.3906 Q111.2813,675.9688 110.4844,676.2969 Q109.4063,676.75 108.1094,676.75 Q106.5938,676.75 105.3906,676.125 Q104.4063,675.625 103.7188,674.5625 Q103.0313,673.4844 103.0313,672.2031 L103.0313,671.0469 Q103.0313,669.7188 103.6406,668.5781 Q104.2656,667.4219 105.3594,666.8125 Q106.4531,666.1875 107.6875,666.1875 Q108.4219,666.1875 109.0625,666.3594 Q109.7188,666.5156 110.2656,666.875 Z " fill="#000000"/><text fill="#000000" font-family="sans-serif" font-size="14" lengthAdjust="spacing" textLength="59" x="121.5" y="676.7285">TurnView</text><line style="stroke:#181818;stroke-width:0.5;" x1="93.5" x2="182.5" y1="687" y2="687"/><line style="stroke:#181818;stroke-width:0.5;" x1="93.5" x2="182.5" y1="695" y2="695"/></g><!--class UserPlayerBoardView--><g id="elem_UserPlayerBoardView"><rect codeLine="22" fill="#F1F1F1" height="48" id="UserPlayerBoardView" rx="2.5" ry="2.5" style="stroke:#181818;stroke-width:0.5;" width="168" x="646" y="763"/><ellipse cx="661" cy="779" fill="#ADD1B2" rx="11" ry="11" style="stroke:#181818;stroke-width:1.0;"/><path d="M663.7656,774.875 Q663.9219,774.6563 664.1094,774.5469 Q664.2969,774.4375 664.5156,774.4375 Q664.8906,774.4375 665.125,774.7031 Q665.3594,774.9531 665.3594,775.5625 L665.3594,777.0156 Q665.3594,777.625 665.125,777.8906 Q664.8906,778.1563 664.5156,778.1563 Q664.1719,778.1563 663.9688,777.9531 Q663.7656,777.7656 663.6563,777.25 Q663.6094,776.8906 663.4219,776.7031 Q663.0938,776.3281 662.4844,776.1094 Q661.875,775.8906 661.25,775.8906 Q660.4844,775.8906 659.8438,776.2188 Q659.2188,776.5469 658.7188,777.2969 Q658.2344,778.0469 658.2344,779.0781 L658.2344,780.1719 Q658.2344,781.4063 659.125,782.2344 Q660.0156,783.0469 661.6094,783.0469 Q662.5469,783.0469 663.2031,782.7969 Q663.5938,782.6406 664.0156,782.2031 Q664.2813,781.9375 664.4219,781.8594 Q664.5781,781.7813 664.7813,781.7813 Q665.1094,781.7813 665.3594,782.0469 Q665.625,782.2969 665.625,782.6406 Q665.625,782.9844 665.2813,783.3906 Q664.7813,783.9688 663.9844,784.2969 Q662.9063,784.75 661.6094,784.75 Q660.0938,784.75 658.8906,784.125 Q657.9063,783.625 657.2188,782.5625 Q656.5313,781.4844 656.5313,780.2031 L656.5313,779.0469 Q656.5313,777.7188 657.1406,776.5781 Q657.7656,775.4219 658.8594,774.8125 Q659.9531,774.1875 661.1875,774.1875 Q661.9219,774.1875 662.5625,774.3594 Q663.2188,774.5156 663.7656,774.875 Z " fill="#000000"/><text fill="#000000" font-family="sans-serif" font-size="14" lengthAdjust="spacing" textLength="136" x="675" y="784.7285">UserPlayerBoardView</text><line style="stroke:#181818;stroke-width:0.5;" x1="647" x2="813" y1="795" y2="795"/><line style="stroke:#181818;stroke-width:0.5;" x1="647" x2="813" y1="803" y2="803"/></g><!--class PauseBoardView--><g id="elem_PauseBoardView"><rect codeLine="23" fill="#F1F1F1" height="48" id="PauseBoardView" rx="2.5" ry="2.5" style="stroke:#181818;stroke-width:0.5;" width="139" x="618.5" y="547"/><ellipse cx="633.5" cy="563" fill="#ADD1B2" rx="11" ry="11" style="stroke:#181818;stroke-width:1.0;"/><path d="M636.2656,558.875 Q636.4219,558.6563 636.6094,558.5469 Q636.7969,558.4375 637.0156,558.4375 Q637.3906,558.4375 637.625,558.7031 Q637.8594,558.9531 637.8594,559.5625 L637.8594,561.0156 Q637.8594,561.625 637.625,561.8906 Q637.3906,562.1563 637.0156,562.1563 Q636.6719,562.1563 636.4688,561.9531 Q636.2656,561.7656 636.1563,561.25 Q636.1094,560.8906 635.9219,560.7031 Q635.5938,560.3281 634.9844,560.1094 Q634.375,559.8906 633.75,559.8906 Q632.9844,559.8906 632.3438,560.2188 Q631.7188,560.5469 631.2188,561.2969 Q630.7344,562.0469 630.7344,563.0781 L630.7344,564.1719 Q630.7344,565.4063 631.625,566.2344 Q632.5156,567.0469 634.1094,567.0469 Q635.0469,567.0469 635.7031,566.7969 Q636.0938,566.6406 636.5156,566.2031 Q636.7813,565.9375 636.9219,565.8594 Q637.0781,565.7813 637.2813,565.7813 Q637.6094,565.7813 637.8594,566.0469 Q638.125,566.2969 638.125,566.6406 Q638.125,566.9844 637.7813,567.3906 Q637.2813,567.9688 636.4844,568.2969 Q635.4063,568.75 634.1094,568.75 Q632.5938,568.75 631.3906,568.125 Q630.4063,567.625 629.7188,566.5625 Q629.0313,565.4844 629.0313,564.2031 L629.0313,563.0469 Q629.0313,561.7188 629.6406,560.5781 Q630.2656,559.4219 631.3594,558.8125 Q632.4531,558.1875 633.6875,558.1875 Q634.4219,558.1875 635.0625,558.3594 Q635.7188,558.5156 636.2656,558.875 Z " fill="#000000"/><text fill="#000000" font-family="sans-serif" font-size="14" lengthAdjust="spacing" textLength="107" x="647.5" y="568.7285">PauseBoardView</text><line style="stroke:#181818;stroke-width:0.5;" x1="619.5" x2="756.5" y1="579" y2="579"/><line style="stroke:#181818;stroke-width:0.5;" x1="619.5" x2="756.5" y1="587" y2="587"/></g><!--class PanelView--><g id="elem_PanelView"><rect codeLine="24" fill="#F1F1F1" height="48" id="PanelView" rx="2.5" ry="2.5" style="stroke:#181818;stroke-width:0.5;" width="97" x="937.5" y="223"/><ellipse cx="952.5" cy="239" fill="#A9DCDF" rx="11" ry="11" style="stroke:#181818;stroke-width:1.0;"/><path d="M954.6875,240.7656 L950.5469,240.7656 L950.125,241.7969 L950.5469,241.7969 Q951.1563,241.7969 951.4219,242.0313 Q951.6875,242.2656 951.6875,242.6563 Q951.6875,243.0313 951.4219,243.2656 Q951.1563,243.5 950.5469,243.5 L948.25,243.5 Q947.6406,243.5 947.3906,243.2656 Q947.125,243.0313 947.125,242.6406 Q947.125,242.2656 947.4063,242.0313 Q947.6719,241.7813 948.2969,241.7969 L950.9688,235.1406 L949.8594,235.1406 Q949.25,235.1406 948.9844,234.9063 Q948.7188,234.6719 948.7188,234.2813 Q948.7188,233.9063 948.9844,233.6719 Q949.25,233.4375 949.8594,233.4375 L953.5313,233.4375 L956.9219,241.7969 Q957.5156,241.7969 957.7031,241.9375 Q958.0938,242.2031 958.0938,242.6563 Q958.0938,243.0313 957.8281,243.2656 Q957.5781,243.5 956.9688,243.5 L954.6719,243.5 Q954.0625,243.5 953.7969,243.2656 Q953.5313,243.0313 953.5313,242.6406 Q953.5313,242.2656 953.7969,242.0313 Q954.0625,241.7969 954.6719,241.7969 L955.0938,241.7969 L954.6875,240.7656 Z M953.9688,239.0625 L952.6094,235.6875 L951.2344,239.0625 L953.9688,239.0625 Z " fill="#000000"/><text fill="#000000" font-family="sans-serif" font-size="14" font-style="italic" lengthAdjust="spacing" textLength="65" x="966.5" y="244.7285">PanelView</text><line style="stroke:#181818;stroke-width:0.5;" x1="938.5" x2="1033.5" y1="255" y2="255"/><line style="stroke:#181818;stroke-width:0.5;" x1="938.5" x2="1033.5" y1="263" y2="263"/></g><!--class PlayerBoardView--><g id="elem_PlayerBoardView"><rect codeLine="25" fill="#F1F1F1" height="48" id="PlayerBoardView" rx="2.5" ry="2.5" style="stroke:#181818;stroke-width:0.5;" width="139" x="660.5" y="655"/><ellipse cx="675.5" cy="671" fill="#A9DCDF" rx="11" ry="11" style="stroke:#181818;stroke-width:1.0;"/><path d="M677.6875,672.7656 L673.5469,672.7656 L673.125,673.7969 L673.5469,673.7969 Q674.1563,673.7969 674.4219,674.0313 Q674.6875,674.2656 674.6875,674.6563 Q674.6875,675.0313 674.4219,675.2656 Q674.1563,675.5 673.5469,675.5 L671.25,675.5 Q670.6406,675.5 670.3906,675.2656 Q670.125,675.0313 670.125,674.6406 Q670.125,674.2656 670.4063,674.0313 Q670.6719,673.7813 671.2969,673.7969 L673.9688,667.1406 L672.8594,667.1406 Q672.25,667.1406 671.9844,666.9063 Q671.7188,666.6719 671.7188,666.2813 Q671.7188,665.9063 671.9844,665.6719 Q672.25,665.4375 672.8594,665.4375 L676.5313,665.4375 L679.9219,673.7969 Q680.5156,673.7969 680.7031,673.9375 Q681.0938,674.2031 681.0938,674.6563 Q681.0938,675.0313 680.8281,675.2656 Q680.5781,675.5 679.9688,675.5 L677.6719,675.5 Q677.0625,675.5 676.7969,675.2656 Q676.5313,675.0313 676.5313,674.6406 Q676.5313,674.2656 676.7969,674.0313 Q677.0625,673.7969 677.6719,673.7969 L678.0938,673.7969 L677.6875,672.7656 Z M676.9688,671.0625 L675.6094,667.6875 L674.2344,671.0625 L676.9688,671.0625 Z " fill="#000000"/><text fill="#000000" font-family="sans-serif" font-size="14" font-style="italic" lengthAdjust="spacing" textLength="107" x="689.5" y="676.7285">PlayerBoardView</text><line style="stroke:#181818;stroke-width:0.5;" x1="661.5" x2="798.5" y1="687" y2="687"/><line style="stroke:#181818;stroke-width:0.5;" x1="661.5" x2="798.5" y1="695" y2="695"/></g><!--class JFrame--><g id="elem_JFrame"><rect codeLine="27" fill="#F1F1F1" height="48" id="JFrame" rx="2.5" ry="2.5" style="stroke:#181818;stroke-width:0.5;" width="79" x="1256.5" y="7"/><ellipse cx="1271.5" cy="23" fill="#ADD1B2" rx="11" ry="11" style="stroke:#181818;stroke-width:1.0;"/><path d="M1274.2656,18.875 Q1274.4219,18.6563 1274.6094,18.5469 Q1274.7969,18.4375 1275.0156,18.4375 Q1275.3906,18.4375 1275.625,18.7031 Q1275.8594,18.9531 1275.8594,19.5625 L1275.8594,21.0156 Q1275.8594,21.625 1275.625,21.8906 Q1275.3906,22.1563 1275.0156,22.1563 Q1274.6719,22.1563 1274.4688,21.9531 Q1274.2656,21.7656 1274.1563,21.25 Q1274.1094,20.8906 1273.9219,20.7031 Q1273.5938,20.3281 1272.9844,20.1094 Q1272.375,19.8906 1271.75,19.8906 Q1270.9844,19.8906 1270.3438,20.2188 Q1269.7188,20.5469 1269.2188,21.2969 Q1268.7344,22.0469 1268.7344,23.0781 L1268.7344,24.1719 Q1268.7344,25.4063 1269.625,26.2344 Q1270.5156,27.0469 1272.1094,27.0469 Q1273.0469,27.0469 1273.7031,26.7969 Q1274.0938,26.6406 1274.5156,26.2031 Q1274.7813,25.9375 1274.9219,25.8594 Q1275.0781,25.7813 1275.2813,25.7813 Q1275.6094,25.7813 1275.8594,26.0469 Q1276.125,26.2969 1276.125,26.6406 Q1276.125,26.9844 1275.7813,27.3906 Q1275.2813,27.9688 1274.4844,28.2969 Q1273.4063,28.75 1272.1094,28.75 Q1270.5938,28.75 1269.3906,28.125 Q1268.4063,27.625 1267.7188,26.5625 Q1267.0313,25.4844 1267.0313,24.2031 L1267.0313,23.0469 Q1267.0313,21.7188 1267.6406,20.5781 Q1268.2656,19.4219 1269.3594,18.8125 Q1270.4531,18.1875 1271.6875,18.1875 Q1272.4219,18.1875 1273.0625,18.3594 Q1273.7188,18.5156 1274.2656,18.875 Z " fill="#000000"/><text fill="#000000" font-family="sans-serif" font-size="14" lengthAdjust="spacing" textLength="47" x="1285.5" y="28.7285">JFrame</text><line style="stroke:#181818;stroke-width:0.5;" x1="1257.5" x2="1334.5" y1="39" y2="39"/><line style="stroke:#181818;stroke-width:0.5;" x1="1257.5" x2="1334.5" y1="47" y2="47"/></g><!--class Logic--><g id="elem_Logic"><rect codeLine="39" fill="#F1F1F1" height="48" id="Logic" rx="2.5" ry="2.5" style="stroke:#181818;stroke-width:0.5;" width="136" x="1384" y="655"/><ellipse cx="1399" cy="671" fill="#ADD1B2" rx="11" ry="11" style="stroke:#181818;stroke-width:1.0;"/><path d="M1401.7656,666.875 Q1401.9219,666.6563 1402.1094,666.5469 Q1402.2969,666.4375 1402.5156,666.4375 Q1402.8906,666.4375 1403.125,666.7031 Q1403.3594,666.9531 1403.3594,667.5625 L1403.3594,669.0156 Q1403.3594,669.625 1403.125,669.8906 Q1402.8906,670.1563 1402.5156,670.1563 Q1402.1719,670.1563 1401.9688,669.9531 Q1401.7656,669.7656 1401.6563,669.25 Q1401.6094,668.8906 1401.4219,668.7031 Q1401.0938,668.3281 1400.4844,668.1094 Q1399.875,667.8906 1399.25,667.8906 Q1398.4844,667.8906 1397.8438,668.2188 Q1397.2188,668.5469 1396.7188,669.2969 Q1396.2344,670.0469 1396.2344,671.0781 L1396.2344,672.1719 Q1396.2344,673.4063 1397.125,674.2344 Q1398.0156,675.0469 1399.6094,675.0469 Q1400.5469,675.0469 1401.2031,674.7969 Q1401.5938,674.6406 1402.0156,674.2031 Q1402.2813,673.9375 1402.4219,673.8594 Q1402.5781,673.7813 1402.7813,673.7813 Q1403.1094,673.7813 1403.3594,674.0469 Q1403.625,674.2969 1403.625,674.6406 Q1403.625,674.9844 1403.2813,675.3906 Q1402.7813,675.9688 1401.9844,676.2969 Q1400.9063,676.75 1399.6094,676.75 Q1398.0938,676.75 1396.8906,676.125 Q1395.9063,675.625 1395.2188,674.5625 Q1394.5313,673.4844 1394.5313,672.2031 L1394.5313,671.0469 Q1394.5313,669.7188 1395.1406,668.5781 Q1395.7656,667.4219 1396.8594,666.8125 Q1397.9531,666.1875 1399.1875,666.1875 Q1399.9219,666.1875 1400.5625,666.3594 Q1401.2188,666.5156 1401.7656,666.875 Z " fill="#000000"/><text fill="#000000" font-family="sans-serif" font-size="14" lengthAdjust="spacing" textLength="104" x="1413" y="676.7285">controllers.Logic</text><line style="stroke:#181818;stroke-width:0.5;" x1="1385" x2="1519" y1="687" y2="687"/><line style="stroke:#181818;stroke-width:0.5;" x1="1385" x2="1519" y1="695" y2="695"/></g><!--class View--><g id="elem_View"><rect codeLine="45" fill="#F1F1F1" height="48" id="View" rx="2.5" ry="2.5" style="stroke:#181818;stroke-width:0.5;" width="61" x="1097.5" y="7"/><ellipse cx="1112.5" cy="23" fill="#A9DCDF" rx="11" ry="11" style="stroke:#181818;stroke-width:1.0;"/><path d="M1114.6875,24.7656 L1110.5469,24.7656 L1110.125,25.7969 L1110.5469,25.7969 Q1111.1563,25.7969 1111.4219,26.0313 Q1111.6875,26.2656 1111.6875,26.6563 Q1111.6875,27.0313 1111.4219,27.2656 Q1111.1563,27.5 1110.5469,27.5 L1108.25,27.5 Q1107.6406,27.5 1107.3906,27.2656 Q1107.125,27.0313 1107.125,26.6406 Q1107.125,26.2656 1107.4063,26.0313 Q1107.6719,25.7813 1108.2969,25.7969 L1110.9688,19.1406 L1109.8594,19.1406 Q1109.25,19.1406 1108.9844,18.9063 Q1108.7188,18.6719 1108.7188,18.2813 Q1108.7188,17.9063 1108.9844,17.6719 Q1109.25,17.4375 1109.8594,17.4375 L1113.5313,17.4375 L1116.9219,25.7969 Q1117.5156,25.7969 1117.7031,25.9375 Q1118.0938,26.2031 1118.0938,26.6563 Q1118.0938,27.0313 1117.8281,27.2656 Q1117.5781,27.5 1116.9688,27.5 L1114.6719,27.5 Q1114.0625,27.5 1113.7969,27.2656 Q1113.5313,27.0313 1113.5313,26.6406 Q1113.5313,26.2656 1113.7969,26.0313 Q1114.0625,25.7969 1114.6719,25.7969 L1115.0938,25.7969 L1114.6875,24.7656 Z M1113.9688,23.0625 L1112.6094,19.6875 L1111.2344,23.0625 L1113.9688,23.0625 Z " fill="#000000"/><text fill="#000000" font-family="sans-serif" font-size="14" font-style="italic" lengthAdjust="spacing" textLength="29" x="1126.5" y="28.7285">View</text><line style="stroke:#181818;stroke-width:0.5;" x1="1098.5" x2="1157.5" y1="39" y2="39"/><line style="stroke:#181818;stroke-width:0.5;" x1="1098.5" x2="1157.5" y1="47" y2="47"/></g><!--class JOptionPane--><g id="elem_JOptionPane"><rect codeLine="48" fill="#F1F1F1" height="48" id="JOptionPane" rx="2.5" ry="2.5" style="stroke:#181818;stroke-width:0.5;" width="113" x="1384.5" y="331"/><ellipse cx="1399.5" cy="347" fill="#ADD1B2" rx="11" ry="11" style="stroke:#181818;stroke-width:1.0;"/><path d="M1402.2656,342.875 Q1402.4219,342.6563 1402.6094,342.5469 Q1402.7969,342.4375 1403.0156,342.4375 Q1403.3906,342.4375 1403.625,342.7031 Q1403.8594,342.9531 1403.8594,343.5625 L1403.8594,345.0156 Q1403.8594,345.625 1403.625,345.8906 Q1403.3906,346.1563 1403.0156,346.1563 Q1402.6719,346.1563 1402.4688,345.9531 Q1402.2656,345.7656 1402.1563,345.25 Q1402.1094,344.8906 1401.9219,344.7031 Q1401.5938,344.3281 1400.9844,344.1094 Q1400.375,343.8906 1399.75,343.8906 Q1398.9844,343.8906 1398.3438,344.2188 Q1397.7188,344.5469 1397.2188,345.2969 Q1396.7344,346.0469 1396.7344,347.0781 L1396.7344,348.1719 Q1396.7344,349.4063 1397.625,350.2344 Q1398.5156,351.0469 1400.1094,351.0469 Q1401.0469,351.0469 1401.7031,350.7969 Q1402.0938,350.6406 1402.5156,350.2031 Q1402.7813,349.9375 1402.9219,349.8594 Q1403.0781,349.7813 1403.2813,349.7813 Q1403.6094,349.7813 1403.8594,350.0469 Q1404.125,350.2969 1404.125,350.6406 Q1404.125,350.9844 1403.7813,351.3906 Q1403.2813,351.9688 1402.4844,352.2969 Q1401.4063,352.75 1400.1094,352.75 Q1398.5938,352.75 1397.3906,352.125 Q1396.4063,351.625 1395.7188,350.5625 Q1395.0313,349.4844 1395.0313,348.2031 L1395.0313,347.0469 Q1395.0313,345.7188 1395.6406,344.5781 Q1396.2656,343.4219 1397.3594,342.8125 Q1398.4531,342.1875 1399.6875,342.1875 Q1400.4219,342.1875 1401.0625,342.3594 Q1401.7188,342.5156 1402.2656,342.875 Z " fill="#000000"/><text fill="#000000" font-family="sans-serif" font-size="14" lengthAdjust="spacing" textLength="81" x="1413.5" y="352.7285">JOptionPane</text><line style="stroke:#181818;stroke-width:0.5;" x1="1385.5" x2="1496.5" y1="363" y2="363"/><line style="stroke:#181818;stroke-width:0.5;" x1="1385.5" x2="1496.5" y1="371" y2="371"/></g><!--class JPanel--><g id="elem_JPanel"><rect fill="#F1F1F1" height="48" id="JPanel" rx="2.5" ry="2.5" style="stroke:#181818;stroke-width:0.5;" width="74" x="1384" y="115"/><ellipse cx="1399" cy="131" fill="#ADD1B2" rx="11" ry="11" style="stroke:#181818;stroke-width:1.0;"/><path d="M1401.7656,126.875 Q1401.9219,126.6563 1402.1094,126.5469 Q1402.2969,126.4375 1402.5156,126.4375 Q1402.8906,126.4375 1403.125,126.7031 Q1403.3594,126.9531 1403.3594,127.5625 L1403.3594,129.0156 Q1403.3594,129.625 1403.125,129.8906 Q1402.8906,130.1563 1402.5156,130.1563 Q1402.1719,130.1563 1401.9688,129.9531 Q1401.7656,129.7656 1401.6563,129.25 Q1401.6094,128.8906 1401.4219,128.7031 Q1401.0938,128.3281 1400.4844,128.1094 Q1399.875,127.8906 1399.25,127.8906 Q1398.4844,127.8906 1397.8438,128.2188 Q1397.2188,128.5469 1396.7188,129.2969 Q1396.2344,130.0469 1396.2344,131.0781 L1396.2344,132.1719 Q1396.2344,133.4063 1397.125,134.2344 Q1398.0156,135.0469 1399.6094,135.0469 Q1400.5469,135.0469 1401.2031,134.7969 Q1401.5938,134.6406 1402.0156,134.2031 Q1402.2813,133.9375 1402.4219,133.8594 Q1402.5781,133.7813 1402.7813,133.7813 Q1403.1094,133.7813 1403.3594,134.0469 Q1403.625,134.2969 1403.625,134.6406 Q1403.625,134.9844 1403.2813,135.3906 Q1402.7813,135.9688 1401.9844,136.2969 Q1400.9063,136.75 1399.6094,136.75 Q1398.0938,136.75 1396.8906,136.125 Q1395.9063,135.625 1395.2188,134.5625 Q1394.5313,133.4844 1394.5313,132.2031 L1394.5313,131.0469 Q1394.5313,129.7188 1395.1406,128.5781 Q1395.7656,127.4219 1396.8594,126.8125 Q1397.9531,126.1875 1399.1875,126.1875 Q1399.9219,126.1875 1400.5625,126.3594 Q1401.2188,126.5156 1401.7656,126.875 Z " fill="#000000"/><text fill="#000000" font-family="sans-serif" font-size="14" lengthAdjust="spacing" textLength="42" x="1413" y="136.7285">JPanel</text><line style="stroke:#181818;stroke-width:0.5;" x1="1385" x2="1457" y1="147" y2="147"/><line style="stroke:#181818;stroke-width:0.5;" x1="1385" x2="1457" y1="155" y2="155"/></g><!--reverse link JFrame to FrameView--><g id="link_JFrame_FrameView"><path codeLine="28" d="M1296,73 C1296,90.66 1296,96.94 1296,114.68 " fill="none" id="JFrame-backto-FrameView" style="stroke:#181818;stroke-width:1.0;"/><polygon fill="none" points="1296,55,1290,73,1302,73,1296,55" style="stroke:#181818;stroke-width:1.0;"/></g><!--reverse link FrameView to MainFrame--><g id="link_FrameView_MainFrame"><path codeLine="29" d="M1296,181 C1296,198.66 1296,204.94 1296,222.68 " fill="none" id="FrameView-backto-MainFrame" style="stroke:#181818;stroke-width:1.0;"/><polygon fill="none" points="1296,163,1290,181,1302,181,1296,163" style="stroke:#181818;stroke-width:1.0;"/></g><!--reverse link GraphicsView to MainFrame--><g id="link_GraphicsView_MainFrame"><path codeLine="30" d="M1174.5993,169.4025 C1202.6893,187.1225 1231.19,205.11 1259.33,222.86 " fill="none" id="GraphicsView-backto-MainFrame" style="stroke:#181818;stroke-width:1.0;"/><polygon fill="#181818" points="1164.45,163,1167.3905,169.5843,1174.5993,169.4025,1171.6588,162.8181,1164.45,163" style="stroke:#181818;stroke-width:1.0;"/></g><!--link MainFrame to Logic--><g id="link_MainFrame_Logic"><path codeLine="33" d="M1347.76,251.43 C1399.82,257.96 1477.58,276.8 1515,331 C1586.49,434.54 1505.7099,590.3128 1469.8299,649.7728 " fill="none" id="MainFrame-to-Logic" style="stroke:#181818;stroke-width:1.0;"/><polygon fill="#181818" points="1466.73,654.91,1474.8047,649.2709,1469.3133,650.629,1467.9551,645.1376,1466.73,654.91" style="stroke:#181818;stroke-width:1.0;"/></g><!--link StartPanelView to Logic--><g id="link_StartPanelView_Logic"><path codeLine="37" d="M1159.41,487.11 C1222.53,528.28 1348.7052,610.6011 1411.7052,651.7111 " fill="none" id="StartPanelView-to-Logic" style="stroke:#181818;stroke-width:1.0;"/><polygon fill="#181818" points="1416.73,654.99,1411.3787,646.7218,1412.5426,652.2576,1407.0068,653.4215,1416.73,654.99" style="stroke:#181818;stroke-width:1.0;"/></g><!--link PlayPanelView to Logic--><g id="link_PlayPanelView_Logic"><path codeLine="41" d="M583.16,591.19 C589.15,592.64 595.17,593.95 601,595 C937.47,655.88 1031.15,596.25 1368,655 C1373.21,655.91 1372.7144,655.6915 1378.0844,656.8915 " fill="none" id="PlayPanelView-to-Logic" style="stroke:#181818;stroke-width:1.0;"/><polygon fill="#181818" points="1383.94,658.2,1376.029,652.3335,1379.0604,657.1096,1374.2843,660.141,1383.94,658.2" style="stroke:#181818;stroke-width:1.0;"/></g><!--link ResumePanelView to Logic--><g id="link_ResumePanelView_Logic"><path codeLine="43" d="M736.73,483.03 C742.57,484.41 748.37,485.75 754,487 C890.14,517.26 927.16,511.39 1062,547 C1180.61,578.33 1309.9888,624.4819 1385.9988,652.8519 " fill="none" id="ResumePanelView-to-Logic" style="stroke:#181818;stroke-width:1.0;"/><polygon fill="#181818" points="1391.62,654.95,1384.5869,648.0554,1386.9356,653.2016,1381.7895,655.5504,1391.62,654.95" style="stroke:#181818;stroke-width:1.0;"/></g><!--reverse link View to GraphicsView--><g id="link_View_GraphicsView"><path codeLine="46" d="M1128,73 C1128,90.66 1128,96.94 1128,114.68 " fill="none" id="View-backto-GraphicsView" style="stroke:#181818;stroke-width:1.0;"/><polygon fill="none" points="1128,55,1122,73,1134,73,1128,55" style="stroke:#181818;stroke-width:1.0;"/></g><!--link MainFrame to JOptionPane--><g id="link_MainFrame_JOptionPane"><path codeLine="49" d="M1327.46,271 C1351.7,288.72 1380.2156,309.57 1404.5056,327.32 " fill="none" id="MainFrame-to-JOptionPane" style="stroke:#181818;stroke-width:1.0;stroke-dasharray:7.0,7.0;"/><polygon fill="#181818" points="1409.35,330.86,1404.4435,322.3203,1405.313,327.91,1399.7234,328.7795,1409.35,330.86" style="stroke:#181818;stroke-width:1.0;"/></g><!--reverse link JPanel to PanelView--><g id="link_JPanel_PanelView"><path codeLine="51" d="M1367.3048,163.8684 C1250.2248,201.5884 1108.14,226.64 1034.74,238.55 " fill="none" id="JPanel-backto-PanelView" style="stroke:#181818;stroke-width:1.0;"/><polygon fill="none" points="1384,157.14,1365.062,158.3033,1369.5476,169.4334,1384,157.14" style="stroke:#181818;stroke-width:1.0;"/></g><!--reverse link PanelView to GameLoopView--><g id="link_PanelView_GameLoopView"><path codeLine="52" d="M1030.2146,281.9652 C1053.2046,299.6252 1070.55,312.94 1093.64,330.68 " fill="none" id="PanelView-backto-GameLoopView" style="stroke:#181818;stroke-width:1.0;"/><polygon fill="none" points="1015.94,271,1026.5596,286.7234,1033.8697,277.207,1015.94,271" style="stroke:#181818;stroke-width:1.0;"/></g><!--reverse link GameLoopView to StartPanelView--><g id="link_GameLoopView_StartPanelView"><path codeLine="53" d="M1124,397 C1124,414.66 1124,420.94 1124,438.68 " fill="none" id="GameLoopView-backto-StartPanelView" style="stroke:#181818;stroke-width:1.0;"/><polygon fill="none" points="1124,379,1118,397,1130,397,1124,379" style="stroke:#181818;stroke-width:1.0;"/></g><!--reverse link ResumePanelView to PlayPanelView--><g id="link_ResumePanelView_PlayPanelView"><path codeLine="54" d="M617.0225,497.8167 C593.5325,515.4767 575.62,528.94 552.02,546.68 " fill="none" id="ResumePanelView-backto-PlayPanelView" style="stroke:#181818;stroke-width:1.0;"/><polygon fill="none" points="631.41,487,613.417,493.0208,620.6281,502.6125,631.41,487" style="stroke:#181818;stroke-width:1.0;"/></g><!--reverse link GameLoopView to ResumePanelView--><g id="link_GameLoopView_ResumePanelView"><path codeLine="55" d="M1040.8039,374.0478 C966.7539,390.2078 860.33,413.79 754,439 C748.39,440.33 742.6,441.73 736.78,443.14 " fill="none" id="GameLoopView-backto-ResumePanelView" style="stroke:#181818;stroke-width:1.0;"/><polygon fill="none" points="1058.39,370.21,1039.5246,368.1858,1042.0832,379.9099,1058.39,370.21" style="stroke:#181818;stroke-width:1.0;"/></g><!--reverse link PanelView to BoardView--><g id="link_PanelView_BoardView"><path codeLine="56" d="M957.0381,285.5641 C925.2981,326.7241 870.67,397.58 838.95,438.72 " fill="none" id="PanelView-backto-BoardView" style="stroke:#181818;stroke-width:1.0;"/><polygon fill="none" points="968.03,271.31,952.2868,281.9001,961.7895,289.228,968.03,271.31" style="stroke:#181818;stroke-width:1.0;"/></g><!--reverse link PanelView to TurnView--><g id="link_PanelView_TurnView"><path codeLine="57" d="M920.3012,272.8192 C808.4712,315.6592 543.56,421.6 324,547 C265.69,580.3 202.8,627.14 167.13,654.86 " fill="none" id="PanelView-backto-TurnView" style="stroke:#181818;stroke-width:1.0;"/><polygon fill="none" points="937.11,266.38,918.1548,267.2162,922.4475,278.4221,937.11,266.38" style="stroke:#181818;stroke-width:1.0;"/></g><!--link GraphicsView to GameLoopView--><g id="link_GraphicsView_GameLoopView"><path codeLine="59" d="M1127.56,163.31 C1126.79,204.47 1125.3108,283.581 1124.5508,324.721 " fill="none" id="GraphicsView-to-GameLoopView" style="stroke:#181818;stroke-width:1.0;stroke-dasharray:7.0,7.0;"/><polygon fill="#181818" points="1124.44,330.72,1128.6056,321.7954,1124.5324,325.7209,1120.6069,321.6477,1124.44,330.72" style="stroke:#181818;stroke-width:1.0;"/></g><!--link MainFrame to GameLoopView--><g id="link_MainFrame_GameLoopView"><path codeLine="60" d="M1258.68,271 C1229.93,288.72 1195.4578,309.962 1166.6578,327.712 " fill="none" id="MainFrame-to-GameLoopView" style="stroke:#181818;stroke-width:1.0;"/><polygon fill="#181818" points="1161.55,330.86,1171.3104,329.5431,1165.8065,328.2366,1167.113,322.7327,1161.55,330.86" style="stroke:#181818;stroke-width:1.0;"/></g><!--reverse link PlayPanelView to PlayerBoardView--><g id="link_PlayPanelView_PlayerBoardView"><path codeLine="62" d="M577.0523,600.4277 C611.9923,618.1477 649.37,637.11 684.38,654.86 " fill="none" id="PlayPanelView-backto-PlayerBoardView" style="stroke:#181818;stroke-width:1.0;"/><polygon fill="#181818" points="566.35,595,569.8919,601.2813,577.0523,600.4277,573.5104,594.1464,566.35,595" style="stroke:#181818;stroke-width:1.0;"/></g><!--reverse link PlayPanelView to TurnView--><g id="link_PlayPanelView_TurnView"><path codeLine="63" d="M447.1068,589.2015 C382.4768,604.6015 290.3,627.71 202,655 C196.02,656.85 189.78,658.92 183.63,661.04 " fill="none" id="PlayPanelView-backto-TurnView" style="stroke:#181818;stroke-width:1.0;"/><polygon fill="#181818" points="458.78,586.42,452.0162,583.9197,447.1068,589.2015,453.8706,591.7018,458.78,586.42" style="stroke:#181818;stroke-width:1.0;"/></g><!--reverse link PlayPanelView to BoardViewPrototypeRegistry--><g id="link_PlayPanelView_BoardViewPrototypeRegistry"><path codeLine="64" d="M510.3645,606.5573 C500.4545,636.1073 483.03,675.29 447,703 C413.66,728.64 313.42,752.2 234.11,767.62 " fill="none" id="PlayPanelView-backto-BoardViewPrototypeRegistry" style="stroke:#181818;stroke-width:1.0;"/><polygon fill="#181818" points="514.18,595.18,508.4798,599.5968,510.3645,606.5573,516.0647,602.1405,514.18,595.18" style="stroke:#181818;stroke-width:1.0;"/></g><!--link PlayPanelView to BoardViewPrototypeDirector--><g id="link_PlayPanelView_BoardViewPrototypeDirector"><path codeLine="65" d="M478.25,595 C445.32,612.72 405.2841,634.2678 372.2841,652.0178 " fill="none" id="PlayPanelView-to-BoardViewPrototypeDirector" style="stroke:#181818;stroke-width:1.0;stroke-dasharray:7.0,7.0;"/><polygon fill="#181818" points="367,654.86,376.821,654.1194,371.4034,652.4915,373.0314,647.0739,367,654.86" style="stroke:#181818;stroke-width:1.0;"/></g><!--link BoardViewPrototypeDirector to BoardViewPrototypeRegistry--><g id="link_BoardViewPrototypeDirector_BoardViewPrototypeRegistry"><path codeLine="66" d="M281.47,703 C248.71,720.72 208.888,742.2564 176.058,760.0064 " fill="none" id="BoardViewPrototypeDirector-to-BoardViewPrototypeRegistry" style="stroke:#181818;stroke-width:1.0;"/><polygon fill="#181818" points="170.78,762.86,180.5994,762.0982,175.1783,760.482,176.7945,755.0609,170.78,762.86" style="stroke:#181818;stroke-width:1.0;"/></g><!--reverse link ResumePanelView to PauseBoardView--><g id="link_ResumePanelView_PauseBoardView"><path codeLine="68" d="M670.4976,498.6548 C674.8276,516.3148 677.93,528.94 682.28,546.68 " fill="none" id="ResumePanelView-backto-PauseBoardView" style="stroke:#181818;stroke-width:1.0;"/><polygon fill="#181818" points="667.64,487,665.1839,493.7799,670.4976,498.6548,672.9537,491.8749,667.64,487" style="stroke:#181818;stroke-width:1.0;"/></g><!--reverse link ResumePanelView to TurnView--><g id="link_ResumePanelView_TurnView"><path codeLine="69" d="M587.3795,491.1674 C543.2595,507.4174 494.43,525.83 442,547 C349.55,584.34 242.78,631.24 183.56,657.59 " fill="none" id="ResumePanelView-backto-TurnView" style="stroke:#181818;stroke-width:1.0;"/><polygon fill="#181818" points="598.64,487.02,591.6273,485.3402,587.3795,491.1674,594.3922,492.8472,598.64,487.02" style="stroke:#181818;stroke-width:1.0;"/></g><!--link StartPanelView to ViewCommand--><g id="link_StartPanelView_ViewCommand"><path codeLine="71" d="M1122.15,487.31 C1118.88,528.47 1112.5954,607.5989 1109.3254,648.7389 " fill="none" id="StartPanelView-to-ViewCommand" style="stroke:#181818;stroke-width:1.0;"/><polygon fill="#181818" points="1108.85,654.72,1113.5505,646.0652,1109.2462,649.7357,1105.5757,645.4314,1108.85,654.72" style="stroke:#181818;stroke-width:1.0;"/></g><!--link PlayPanelView to ViewCommand--><g id="link_PlayPanelView_ViewCommand"><path codeLine="72" d="M583.27,590.67 C589.24,592.23 595.22,593.7 601,595 C759.07,630.56 942.181,656.7294 1038.281,669.3394 " fill="none" id="PlayPanelView-to-ViewCommand" style="stroke:#181818;stroke-width:1.0;"/><polygon fill="#181818" points="1044.23,670.12,1035.8269,664.9831,1039.2725,669.4695,1034.7861,672.9151,1044.23,670.12" style="stroke:#181818;stroke-width:1.0;"/></g><!--reverse link Command to PanelViewCommand--><g id="link_Command_PanelViewCommand"><path codeLine="74" d="M983.5068,612.511 C970.8168,653.671 949.87,721.58 937.18,762.72 " fill="none" id="Command-backto-PanelViewCommand" style="stroke:#181818;stroke-width:1.0;"/><polygon fill="none" points="988.81,595.31,977.7731,610.7433,989.2404,614.2788,988.81,595.31" style="stroke:#181818;stroke-width:1.0;"/></g><!--reverse link PanelViewCommand to NextTurnCommand--><g id="link_PanelViewCommand_NextTurnCommand"><path codeLine="75" d="M930,829 C930,846.66 930,852.94 930,870.68 " fill="none" id="PanelViewCommand-backto-NextTurnCommand" style="stroke:#181818;stroke-width:1.0;"/><polygon fill="none" points="930,811,924,829,936,829,930,811" style="stroke:#181818;stroke-width:1.0;"/></g><!--reverse link Command to ViewCommand--><g id="link_Command_ViewCommand"><path codeLine="76" d="M1033.1067,607.4324 C1051.5967,625.0924 1064,636.94 1082.58,654.68 " fill="none" id="Command-backto-ViewCommand" style="stroke:#181818;stroke-width:1.0;"/><polygon fill="none" points="1020.09,595,1028.9626,611.7713,1037.2509,603.0935,1020.09,595" style="stroke:#181818;stroke-width:1.0;"/></g><!--reverse link ViewCommand to PlayCommand--><g id="link_ViewCommand_PlayCommand"><path codeLine="77" d="M1107,721 C1107,738.66 1107,744.94 1107,762.68 " fill="none" id="ViewCommand-backto-PlayCommand" style="stroke:#181818;stroke-width:1.0;"/><polygon fill="none" points="1107,703,1101,721,1113,721,1107,703" style="stroke:#181818;stroke-width:1.0;"/></g><!--reverse link ViewCommand to ResumeCommand--><g id="link_ViewCommand_ResumeCommand"><path codeLine="78" d="M1159.3996,712.4827 C1187.9896,730.2027 1212.03,745.11 1240.67,762.86 " fill="none" id="ViewCommand-backto-ResumeCommand" style="stroke:#181818;stroke-width:1.0;"/><polygon fill="none" points="1144.1,703,1156.2387,717.5826,1162.5605,707.3828,1144.1,703" style="stroke:#181818;stroke-width:1.0;"/></g><!--reverse link BoardView to PlayerBoardView--><g id="link_BoardView_PlayerBoardView"><path codeLine="80" d="M808.7928,504.3498 C800.6128,530.8598 791.31,558.2 775,595 C765.77,615.83 753.29,638.51 743.82,654.89 " fill="none" id="BoardView-backto-PlayerBoardView" style="stroke:#181818;stroke-width:1.0;"/><polygon fill="none" points="814.1,487.15,803.0595,502.5807,814.526,506.1189,814.1,487.15" style="stroke:#181818;stroke-width:1.0;"/></g><!--reverse link PlayerBoardView to MachinePlayerBoardView--><g id="link_PlayerBoardView_MachinePlayerBoardView"><path codeLine="81" d="M643.3127,708.0168 C588.3127,725.7968 528.93,744.98 473.44,762.91 " fill="none" id="PlayerBoardView-backto-MachinePlayerBoardView" style="stroke:#181818;stroke-width:1.0;"/><polygon fill="none" points="660.44,702.48,641.4671,702.3077,645.1583,713.7259,660.44,702.48" style="stroke:#181818;stroke-width:1.0;"/></g><!--reverse link PlayerBoardView to UserPlayerBoardView--><g id="link_PlayerBoardView_UserPlayerBoardView"><path codeLine="82" d="M730,721 C730,738.66 730,744.94 730,762.68 " fill="none" id="PlayerBoardView-backto-UserPlayerBoardView" style="stroke:#181818;stroke-width:1.0;"/><polygon fill="none" points="730,703,724,721,736,721,730,703" style="stroke:#181818;stroke-width:1.0;"/></g><!--reverse link BoardView to PauseBoardView--><g id="link_BoardView_PauseBoardView"><path codeLine="83" d="M778.0658,498.2212 C755.9158,515.8812 739.52,528.94 717.26,546.68 " fill="none" id="BoardView-backto-PauseBoardView" style="stroke:#181818;stroke-width:1.0;"/><polygon fill="none" points="792.14,487,774.3254,493.5298,781.8062,502.9127,792.14,487" style="stroke:#181818;stroke-width:1.0;"/></g><!--reverse link MachinePlayerBoardView to NonClickableSquare--><g id="link_MachinePlayerBoardView_NonClickableSquare"><path codeLine="84" d="M402,823 C402,840.66 402,852.94 402,870.68 " fill="none" id="MachinePlayerBoardView-backto-NonClickableSquare" style="stroke:#181818;stroke-width:1.0;"/><polygon fill="none" points="402,811,398,817,402,823,406,817,402,811" style="stroke:#181818;stroke-width:1.0;"/></g><!--reverse link UserPlayerBoardView to ClickableSquare--><g id="link_UserPlayerBoardView_ClickableSquare"><path codeLine="85" d="M707.6357,820.9254 C695.6357,838.5854 685.89,852.94 673.84,870.68 " fill="none" id="UserPlayerBoardView-backto-ClickableSquare" style="stroke:#181818;stroke-width:1.0;"/><polygon fill="none" points="714.38,811,707.6994,813.7146,707.6357,820.9254,714.3163,818.2108,714.38,811" style="stroke:#181818;stroke-width:1.0;"/></g><!--reverse link PauseBoardView to NonClickableSquare--><g id="link_PauseBoardView_NonClickableSquare"><path codeLine="86" d="M645.9727,602.0966 C605.4027,630.5266 542.62,671.85 475,703 C396.11,739.35 340.13,692.78 289,763 C260,802.82 314.53,845.38 357.47,870.83 " fill="none" id="PauseBoardView-backto-NonClickableSquare" style="stroke:#181818;stroke-width:1.0;"/><polygon fill="none" points="655.8,595.21,648.5908,595.3775,645.9727,602.0966,653.1819,601.929,655.8,595.21" style="stroke:#181818;stroke-width:1.0;"/></g><!--reverse link Square to ClickableSquare--><g id="link_Square_ClickableSquare"><path codeLine="87" d="M602.0017,824.9773 C616.3317,842.6373 624.69,852.94 639.08,870.68 " fill="none" id="Square-backto-ClickableSquare" style="stroke:#181818;stroke-width:1.0;"/><polygon fill="none" points="590.66,811,597.3426,828.7579,606.6608,821.1967,590.66,811" style="stroke:#181818;stroke-width:1.0;"/></g><!--reverse link Square to NonClickableSquare--><g id="link_Square_NonClickableSquare"><path codeLine="88" d="M519.8373,820.526 C491.4273,838.246 467.58,853.11 439.11,870.86 " fill="none" id="Square-backto-NonClickableSquare" style="stroke:#181818;stroke-width:1.0;"/><polygon fill="none" points="535.11,811,516.662,815.4351,523.0126,825.6169,535.11,811" style="stroke:#181818;stroke-width:1.0;"/></g><!--link PlayerBoardView to PanelViewCommand--><g id="link_PlayerBoardView_PanelViewCommand"><path codeLine="90" d="M773.4,703 C806.83,720.72 847.5486,742.3002 881.0386,760.0502 " fill="none" id="PlayerBoardView-to-PanelViewCommand" style="stroke:#181818;stroke-width:1.0;"/><polygon fill="#181818" points="886.34,762.86,880.2611,755.111,881.9222,760.5185,876.5147,762.1796,886.34,762.86" style="stroke:#181818;stroke-width:1.0;"/></g><!--SRC=[bLLTJy8m57tVhsXu985VO7WG8mb19A0- -LBA5Hf7EzikIkAFbwrZRM-xBJvjwpdt-_IE2mFgWp8WHqMB4sTw-gZe6TuuV6Sifrexu8boKOCPZwqMr_ELb4LjIFVQACeCGHxk9LM7bEiMs2XffBaKyC0LC2FLC7CBHtuDTqbbDPVdCnM7peGsL41UUHiY-Xm4BPgNTClOYGlOvFG2ghFwDVoObrA9ZW2LTG_Kre31BUZo30DmX-FTLqaLuDDvpjadtUUGXjTI331sXYhJcL7LWzJvgmOrqC8DBJKuT73UtGmKfmcqjCAt3tBtEvaGTq_QDmkuU-9BWum3gF6xaaVE2DLanAGmIkOvA3sjJqTPooQJoSnI- -tUHMEPXOt-ltqWBDySYSg7K4lhrhYk1DVarjNdmd0fAczUiTFfB42oPHtEkd4JT3bO__u2yZyiZ9I7ox2-WziK-y0N2faxqI2WrNKeYAhE8EjmtW641Z9kilML6ZFQk37KiqP3SfLaptRkXkeQUi948wXh2gznYkAQcT2ulwPZ2VjerhmWLRN6wC3IyA8EGDyyilHtU0I6czZrr9dYENlVjvsJ_D4akQbrYcE6SqXx9x9gIRpp4_vhAkQ5GRgysOTDgmzBc4RbLoA8Hlq7]--></g></svg>