<?xml version="1.0" encoding="us-ascii" standalone="no"?><svg xmlns="http://www.w3.org/2000/svg" xmlns:xlink="http://www.w3.org/1999/xlink" contentStyleType="text/css" height="942px" preserveAspectRatio="none" style="width:1671px;height:942px;background:#FFFFFF;" version="1.1" viewBox="0 0 1671 942" width="1671px" zoomAndPan="magnify"><defs/><g><!--cluster graphics--><g id="cluster_graphics"><path d="M239.5,79 L301.5,79 A3.75,3.75 0 0 1 304,81.5 L311,102.6094 L1518.5,102.6094 A2.5,2.5 0 0 1 1521,105.1094 L1521,932.5 A2.5,2.5 0 0 1 1518.5,935 L239.5,935 A2.5,2.5 0 0 1 237,932.5 L237,81.5 A2.5,2.5 0 0 1 239.5,79 " fill="none" style="stroke:#000000;stroke-width:1.5;"/><line style="stroke:#000000;stroke-width:1.5;" x1="237" x2="311" y1="102.6094" y2="102.6094"/><text fill="#000000" font-family="sans-serif" font-size="14" font-weight="bold" lengthAdjust="spacing" textLength="61" x="241" y="95.5332">graphics</text></g><!--class FrameView--><g id="elem_FrameView"><rect codeLine="1" fill="#F1F1F1" height="48" id="FrameView" rx="2.5" ry="2.5" style="stroke:#181818;stroke-width:0.5;" width="102" x="779" y="115"/><ellipse cx="794" cy="131" fill="#B4A7E5" rx="11" ry="11" style="stroke:#181818;stroke-width:1.0;"/><path d="M794.9531,127.6406 L794.9531,134.2969 L796.6719,134.2969 Q797.2813,134.2969 797.5469,134.5313 Q797.8125,134.7656 797.8125,135.1563 Q797.8125,135.5313 797.5469,135.7656 Q797.2813,136 796.6719,136 L791.5313,136 Q790.9219,136 790.6563,135.7656 Q790.3906,135.5313 790.3906,135.1406 Q790.3906,134.7656 790.6563,134.5313 Q790.9219,134.2969 791.5313,134.2969 L793.25,134.2969 L793.25,127.6406 L791.5313,127.6406 Q790.9219,127.6406 790.6563,127.4063 Q790.3906,127.1719 790.3906,126.7813 Q790.3906,126.4063 790.6563,126.1719 Q790.9219,125.9375 791.5313,125.9375 L796.6719,125.9375 Q797.2813,125.9375 797.5469,126.1719 Q797.8125,126.4063 797.8125,126.7813 Q797.8125,127.1719 797.5469,127.4063 Q797.2813,127.6406 796.6719,127.6406 L794.9531,127.6406 Z " fill="#000000"/><text fill="#000000" font-family="sans-serif" font-size="14" font-style="italic" lengthAdjust="spacing" textLength="70" x="808" y="136.7285">FrameView</text><line style="stroke:#181818;stroke-width:0.5;" x1="780" x2="880" y1="147" y2="147"/><line style="stroke:#181818;stroke-width:0.5;" x1="780" x2="880" y1="155" y2="155"/></g><!--class MainFrame--><g id="elem_MainFrame"><rect codeLine="2" fill="#F1F1F1" height="48" id="MainFrame" rx="2.5" ry="2.5" style="stroke:#181818;stroke-width:0.5;" width="103" x="835.5" y="223"/><ellipse cx="850.5" cy="239" fill="#ADD1B2" rx="11" ry="11" style="stroke:#181818;stroke-width:1.0;"/><path d="M853.2656,234.875 Q853.4219,234.6563 853.6094,234.5469 Q853.7969,234.4375 854.0156,234.4375 Q854.3906,234.4375 854.625,234.7031 Q854.8594,234.9531 854.8594,235.5625 L854.8594,237.0156 Q854.8594,237.625 854.625,237.8906 Q854.3906,238.1563 854.0156,238.1563 Q853.6719,238.1563 853.4688,237.9531 Q853.2656,237.7656 853.1563,237.25 Q853.1094,236.8906 852.9219,236.7031 Q852.5938,236.3281 851.9844,236.1094 Q851.375,235.8906 850.75,235.8906 Q849.9844,235.8906 849.3438,236.2188 Q848.7188,236.5469 848.2188,237.2969 Q847.7344,238.0469 847.7344,239.0781 L847.7344,240.1719 Q847.7344,241.4063 848.625,242.2344 Q849.5156,243.0469 851.1094,243.0469 Q852.0469,243.0469 852.7031,242.7969 Q853.0938,242.6406 853.5156,242.2031 Q853.7813,241.9375 853.9219,241.8594 Q854.0781,241.7813 854.2813,241.7813 Q854.6094,241.7813 854.8594,242.0469 Q855.125,242.2969 855.125,242.6406 Q855.125,242.9844 854.7813,243.3906 Q854.2813,243.9688 853.4844,244.2969 Q852.4063,244.75 851.1094,244.75 Q849.5938,244.75 848.3906,244.125 Q847.4063,243.625 846.7188,242.5625 Q846.0313,241.4844 846.0313,240.2031 L846.0313,239.0469 Q846.0313,237.7188 846.6406,236.5781 Q847.2656,235.4219 848.3594,234.8125 Q849.4531,234.1875 850.6875,234.1875 Q851.4219,234.1875 852.0625,234.3594 Q852.7188,234.5156 853.2656,234.875 Z " fill="#000000"/><text fill="#000000" font-family="sans-serif" font-size="14" lengthAdjust="spacing" textLength="71" x="864.5" y="244.7285">MainFrame</text><line style="stroke:#181818;stroke-width:0.5;" x1="836.5" x2="937.5" y1="255" y2="255"/><line style="stroke:#181818;stroke-width:0.5;" x1="836.5" x2="937.5" y1="263" y2="263"/></g><!--class GameLoopView--><g id="elem_GameLoopView"><rect codeLine="3" fill="#F1F1F1" height="48" id="GameLoopView" rx="2.5" ry="2.5" style="stroke:#181818;stroke-width:0.5;" width="131" x="865.5" y="331"/><ellipse cx="880.5" cy="347" fill="#B4A7E5" rx="11" ry="11" style="stroke:#181818;stroke-width:1.0;"/><path d="M881.4531,343.6406 L881.4531,350.2969 L883.1719,350.2969 Q883.7813,350.2969 884.0469,350.5313 Q884.3125,350.7656 884.3125,351.1563 Q884.3125,351.5313 884.0469,351.7656 Q883.7813,352 883.1719,352 L878.0313,352 Q877.4219,352 877.1563,351.7656 Q876.8906,351.5313 876.8906,351.1406 Q876.8906,350.7656 877.1563,350.5313 Q877.4219,350.2969 878.0313,350.2969 L879.75,350.2969 L879.75,343.6406 L878.0313,343.6406 Q877.4219,343.6406 877.1563,343.4063 Q876.8906,343.1719 876.8906,342.7813 Q876.8906,342.4063 877.1563,342.1719 Q877.4219,341.9375 878.0313,341.9375 L883.1719,341.9375 Q883.7813,341.9375 884.0469,342.1719 Q884.3125,342.4063 884.3125,342.7813 Q884.3125,343.1719 884.0469,343.4063 Q883.7813,343.6406 883.1719,343.6406 L881.4531,343.6406 Z " fill="#000000"/><text fill="#000000" font-family="sans-serif" font-size="14" font-style="italic" lengthAdjust="spacing" textLength="99" x="894.5" y="352.7285">GameLoopView</text><line style="stroke:#181818;stroke-width:0.5;" x1="866.5" x2="995.5" y1="363" y2="363"/><line style="stroke:#181818;stroke-width:0.5;" x1="866.5" x2="995.5" y1="371" y2="371"/></g><!--class BoardView--><g id="elem_BoardView"><rect codeLine="4" fill="#F1F1F1" height="48" id="BoardView" rx="2.5" ry="2.5" style="stroke:#181818;stroke-width:0.5;" width="99" x="855.5" y="547"/><ellipse cx="870.5" cy="563" fill="#A9DCDF" rx="11" ry="11" style="stroke:#181818;stroke-width:1.0;"/><path d="M872.6875,564.7656 L868.5469,564.7656 L868.125,565.7969 L868.5469,565.7969 Q869.1563,565.7969 869.4219,566.0313 Q869.6875,566.2656 869.6875,566.6563 Q869.6875,567.0313 869.4219,567.2656 Q869.1563,567.5 868.5469,567.5 L866.25,567.5 Q865.6406,567.5 865.3906,567.2656 Q865.125,567.0313 865.125,566.6406 Q865.125,566.2656 865.4063,566.0313 Q865.6719,565.7813 866.2969,565.7969 L868.9688,559.1406 L867.8594,559.1406 Q867.25,559.1406 866.9844,558.9063 Q866.7188,558.6719 866.7188,558.2813 Q866.7188,557.9063 866.9844,557.6719 Q867.25,557.4375 867.8594,557.4375 L871.5313,557.4375 L874.9219,565.7969 Q875.5156,565.7969 875.7031,565.9375 Q876.0938,566.2031 876.0938,566.6563 Q876.0938,567.0313 875.8281,567.2656 Q875.5781,567.5 874.9688,567.5 L872.6719,567.5 Q872.0625,567.5 871.7969,567.2656 Q871.5313,567.0313 871.5313,566.6406 Q871.5313,566.2656 871.7969,566.0313 Q872.0625,565.7969 872.6719,565.7969 L873.0938,565.7969 L872.6875,564.7656 Z M871.9688,563.0625 L870.6094,559.6875 L869.2344,563.0625 L871.9688,563.0625 Z " fill="#000000"/><text fill="#000000" font-family="sans-serif" font-size="14" font-style="italic" lengthAdjust="spacing" textLength="67" x="884.5" y="568.7285">BoardView</text><line style="stroke:#181818;stroke-width:0.5;" x1="856.5" x2="953.5" y1="579" y2="579"/><line style="stroke:#181818;stroke-width:0.5;" x1="856.5" x2="953.5" y1="587" y2="587"/></g><!--class BoardViewPrototypeDirector--><g id="elem_BoardViewPrototypeDirector"><rect codeLine="5" fill="#F1F1F1" height="48" id="BoardViewPrototypeDirector" rx="2.5" ry="2.5" style="stroke:#181818;stroke-width:0.5;" width="210" x="253" y="655"/><ellipse cx="268" cy="671" fill="#ADD1B2" rx="11" ry="11" style="stroke:#181818;stroke-width:1.0;"/><path d="M270.7656,666.875 Q270.9219,666.6563 271.1094,666.5469 Q271.2969,666.4375 271.5156,666.4375 Q271.8906,666.4375 272.125,666.7031 Q272.3594,666.9531 272.3594,667.5625 L272.3594,669.0156 Q272.3594,669.625 272.125,669.8906 Q271.8906,670.1563 271.5156,670.1563 Q271.1719,670.1563 270.9688,669.9531 Q270.7656,669.7656 270.6563,669.25 Q270.6094,668.8906 270.4219,668.7031 Q270.0938,668.3281 269.4844,668.1094 Q268.875,667.8906 268.25,667.8906 Q267.4844,667.8906 266.8438,668.2188 Q266.2188,668.5469 265.7188,669.2969 Q265.2344,670.0469 265.2344,671.0781 L265.2344,672.1719 Q265.2344,673.4063 266.125,674.2344 Q267.0156,675.0469 268.6094,675.0469 Q269.5469,675.0469 270.2031,674.7969 Q270.5938,674.6406 271.0156,674.2031 Q271.2813,673.9375 271.4219,673.8594 Q271.5781,673.7813 271.7813,673.7813 Q272.1094,673.7813 272.3594,674.0469 Q272.625,674.2969 272.625,674.6406 Q272.625,674.9844 272.2813,675.3906 Q271.7813,675.9688 270.9844,676.2969 Q269.9063,676.75 268.6094,676.75 Q267.0938,676.75 265.8906,676.125 Q264.9063,675.625 264.2188,674.5625 Q263.5313,673.4844 263.5313,672.2031 L263.5313,671.0469 Q263.5313,669.7188 264.1406,668.5781 Q264.7656,667.4219 265.8594,666.8125 Q266.9531,666.1875 268.1875,666.1875 Q268.9219,666.1875 269.5625,666.3594 Q270.2188,666.5156 270.7656,666.875 Z " fill="#000000"/><text fill="#000000" font-family="sans-serif" font-size="14" lengthAdjust="spacing" textLength="178" x="282" y="676.7285">BoardViewPrototypeDirector</text><line style="stroke:#181818;stroke-width:0.5;" x1="254" x2="462" y1="687" y2="687"/><line style="stroke:#181818;stroke-width:0.5;" x1="254" x2="462" y1="695" y2="695"/></g><!--class BoardViewPrototypeRegistry--><g id="elem_BoardViewPrototypeRegistry"><rect codeLine="6" fill="#F1F1F1" height="48" id="BoardViewPrototypeRegistry" rx="2.5" ry="2.5" style="stroke:#181818;stroke-width:0.5;" width="212" x="323" y="763"/><ellipse cx="338" cy="779" fill="#ADD1B2" rx="11" ry="11" style="stroke:#181818;stroke-width:1.0;"/><path d="M340.7656,774.875 Q340.9219,774.6563 341.1094,774.5469 Q341.2969,774.4375 341.5156,774.4375 Q341.8906,774.4375 342.125,774.7031 Q342.3594,774.9531 342.3594,775.5625 L342.3594,777.0156 Q342.3594,777.625 342.125,777.8906 Q341.8906,778.1563 341.5156,778.1563 Q341.1719,778.1563 340.9688,777.9531 Q340.7656,777.7656 340.6563,777.25 Q340.6094,776.8906 340.4219,776.7031 Q340.0938,776.3281 339.4844,776.1094 Q338.875,775.8906 338.25,775.8906 Q337.4844,775.8906 336.8438,776.2188 Q336.2188,776.5469 335.7188,777.2969 Q335.2344,778.0469 335.2344,779.0781 L335.2344,780.1719 Q335.2344,781.4063 336.125,782.2344 Q337.0156,783.0469 338.6094,783.0469 Q339.5469,783.0469 340.2031,782.7969 Q340.5938,782.6406 341.0156,782.2031 Q341.2813,781.9375 341.4219,781.8594 Q341.5781,781.7813 341.7813,781.7813 Q342.1094,781.7813 342.3594,782.0469 Q342.625,782.2969 342.625,782.6406 Q342.625,782.9844 342.2813,783.3906 Q341.7813,783.9688 340.9844,784.2969 Q339.9063,784.75 338.6094,784.75 Q337.0938,784.75 335.8906,784.125 Q334.9063,783.625 334.2188,782.5625 Q333.5313,781.4844 333.5313,780.2031 L333.5313,779.0469 Q333.5313,777.7188 334.1406,776.5781 Q334.7656,775.4219 335.8594,774.8125 Q336.9531,774.1875 338.1875,774.1875 Q338.9219,774.1875 339.5625,774.3594 Q340.2188,774.5156 340.7656,774.875 Z " fill="#000000"/><text fill="#000000" font-family="sans-serif" font-size="14" lengthAdjust="spacing" textLength="180" x="352" y="784.7285">BoardViewPrototypeRegistry</text><line style="stroke:#181818;stroke-width:0.5;" x1="324" x2="534" y1="795" y2="795"/><line style="stroke:#181818;stroke-width:0.5;" x1="324" x2="534" y1="803" y2="803"/></g><!--class Command--><g id="elem_Command"><rect codeLine="7" fill="#F1F1F1" height="48" id="Command" rx="2.5" ry="2.5" style="stroke:#181818;stroke-width:0.5;" width="96" x="1129" y="547"/><ellipse cx="1144" cy="563" fill="#B4A7E5" rx="11" ry="11" style="stroke:#181818;stroke-width:1.0;"/><path d="M1144.9531,559.6406 L1144.9531,566.2969 L1146.6719,566.2969 Q1147.2813,566.2969 1147.5469,566.5313 Q1147.8125,566.7656 1147.8125,567.1563 Q1147.8125,567.5313 1147.5469,567.7656 Q1147.2813,568 1146.6719,568 L1141.5313,568 Q1140.9219,568 1140.6563,567.7656 Q1140.3906,567.5313 1140.3906,567.1406 Q1140.3906,566.7656 1140.6563,566.5313 Q1140.9219,566.2969 1141.5313,566.2969 L1143.25,566.2969 L1143.25,559.6406 L1141.5313,559.6406 Q1140.9219,559.6406 1140.6563,559.4063 Q1140.3906,559.1719 1140.3906,558.7813 Q1140.3906,558.4063 1140.6563,558.1719 Q1140.9219,557.9375 1141.5313,557.9375 L1146.6719,557.9375 Q1147.2813,557.9375 1147.5469,558.1719 Q1147.8125,558.4063 1147.8125,558.7813 Q1147.8125,559.1719 1147.5469,559.4063 Q1147.2813,559.6406 1146.6719,559.6406 L1144.9531,559.6406 Z " fill="#000000"/><text fill="#000000" font-family="sans-serif" font-size="14" font-style="italic" lengthAdjust="spacing" textLength="64" x="1158" y="568.7285">Command</text><line style="stroke:#181818;stroke-width:0.5;" x1="1130" x2="1224" y1="579" y2="579"/><line style="stroke:#181818;stroke-width:0.5;" x1="1130" x2="1224" y1="587" y2="587"/></g><!--class GraphicsView--><g id="elem_GraphicsView"><rect codeLine="8" fill="#F1F1F1" height="48" id="GraphicsView" rx="2.5" ry="2.5" style="stroke:#181818;stroke-width:0.5;" width="118" x="916" y="115"/><ellipse cx="931" cy="131" fill="#ADD1B2" rx="11" ry="11" style="stroke:#181818;stroke-width:1.0;"/><path d="M933.7656,126.875 Q933.9219,126.6563 934.1094,126.5469 Q934.2969,126.4375 934.5156,126.4375 Q934.8906,126.4375 935.125,126.7031 Q935.3594,126.9531 935.3594,127.5625 L935.3594,129.0156 Q935.3594,129.625 935.125,129.8906 Q934.8906,130.1563 934.5156,130.1563 Q934.1719,130.1563 933.9688,129.9531 Q933.7656,129.7656 933.6563,129.25 Q933.6094,128.8906 933.4219,128.7031 Q933.0938,128.3281 932.4844,128.1094 Q931.875,127.8906 931.25,127.8906 Q930.4844,127.8906 929.8438,128.2188 Q929.2188,128.5469 928.7188,129.2969 Q928.2344,130.0469 928.2344,131.0781 L928.2344,132.1719 Q928.2344,133.4063 929.125,134.2344 Q930.0156,135.0469 931.6094,135.0469 Q932.5469,135.0469 933.2031,134.7969 Q933.5938,134.6406 934.0156,134.2031 Q934.2813,133.9375 934.4219,133.8594 Q934.5781,133.7813 934.7813,133.7813 Q935.1094,133.7813 935.3594,134.0469 Q935.625,134.2969 935.625,134.6406 Q935.625,134.9844 935.2813,135.3906 Q934.7813,135.9688 933.9844,136.2969 Q932.9063,136.75 931.6094,136.75 Q930.0938,136.75 928.8906,136.125 Q927.9063,135.625 927.2188,134.5625 Q926.5313,133.4844 926.5313,132.2031 L926.5313,131.0469 Q926.5313,129.7188 927.1406,128.5781 Q927.7656,127.4219 928.8594,126.8125 Q929.9531,126.1875 931.1875,126.1875 Q931.9219,126.1875 932.5625,126.3594 Q933.2188,126.5156 933.7656,126.875 Z " fill="#000000"/><text fill="#000000" font-family="sans-serif" font-size="14" lengthAdjust="spacing" textLength="86" x="945" y="136.7285">GraphicsView</text><line style="stroke:#181818;stroke-width:0.5;" x1="917" x2="1033" y1="147" y2="147"/><line style="stroke:#181818;stroke-width:0.5;" x1="917" x2="1033" y1="155" y2="155"/></g><!--class MachinePlayerBoardView--><g id="elem_MachinePlayerBoardView"><rect codeLine="9" fill="#F1F1F1" height="48" id="MachinePlayerBoardView" rx="2.5" ry="2.5" style="stroke:#181818;stroke-width:0.5;" width="192" x="886" y="763"/><ellipse cx="901" cy="779" fill="#ADD1B2" rx="11" ry="11" style="stroke:#181818;stroke-width:1.0;"/><path d="M903.7656,774.875 Q903.9219,774.6563 904.1094,774.5469 Q904.2969,774.4375 904.5156,774.4375 Q904.8906,774.4375 905.125,774.7031 Q905.3594,774.9531 905.3594,775.5625 L905.3594,777.0156 Q905.3594,777.625 905.125,777.8906 Q904.8906,778.1563 904.5156,778.1563 Q904.1719,778.1563 903.9688,777.9531 Q903.7656,777.7656 903.6563,777.25 Q903.6094,776.8906 903.4219,776.7031 Q903.0938,776.3281 902.4844,776.1094 Q901.875,775.8906 901.25,775.8906 Q900.4844,775.8906 899.8438,776.2188 Q899.2188,776.5469 898.7188,777.2969 Q898.2344,778.0469 898.2344,779.0781 L898.2344,780.1719 Q898.2344,781.4063 899.125,782.2344 Q900.0156,783.0469 901.6094,783.0469 Q902.5469,783.0469 903.2031,782.7969 Q903.5938,782.6406 904.0156,782.2031 Q904.2813,781.9375 904.4219,781.8594 Q904.5781,781.7813 904.7813,781.7813 Q905.1094,781.7813 905.3594,782.0469 Q905.625,782.2969 905.625,782.6406 Q905.625,782.9844 905.2813,783.3906 Q904.7813,783.9688 903.9844,784.2969 Q902.9063,784.75 901.6094,784.75 Q900.0938,784.75 898.8906,784.125 Q897.9063,783.625 897.2188,782.5625 Q896.5313,781.4844 896.5313,780.2031 L896.5313,779.0469 Q896.5313,777.7188 897.1406,776.5781 Q897.7656,775.4219 898.8594,774.8125 Q899.9531,774.1875 901.1875,774.1875 Q901.9219,774.1875 902.5625,774.3594 Q903.2188,774.5156 903.7656,774.875 Z " fill="#000000"/><text fill="#000000" font-family="sans-serif" font-size="14" lengthAdjust="spacing" textLength="160" x="915" y="784.7285">MachinePlayerBoardView</text><line style="stroke:#181818;stroke-width:0.5;" x1="887" x2="1077" y1="795" y2="795"/><line style="stroke:#181818;stroke-width:0.5;" x1="887" x2="1077" y1="803" y2="803"/></g><!--class NextTurnCommand--><g id="elem_NextTurnCommand"><rect codeLine="10" fill="#F1F1F1" height="48" id="NextTurnCommand" rx="2.5" ry="2.5" style="stroke:#181818;stroke-width:0.5;" width="153" x="1193.5" y="655"/><ellipse cx="1208.5" cy="671" fill="#ADD1B2" rx="11" ry="11" style="stroke:#181818;stroke-width:1.0;"/><path d="M1211.2656,666.875 Q1211.4219,666.6563 1211.6094,666.5469 Q1211.7969,666.4375 1212.0156,666.4375 Q1212.3906,666.4375 1212.625,666.7031 Q1212.8594,666.9531 1212.8594,667.5625 L1212.8594,669.0156 Q1212.8594,669.625 1212.625,669.8906 Q1212.3906,670.1563 1212.0156,670.1563 Q1211.6719,670.1563 1211.4688,669.9531 Q1211.2656,669.7656 1211.1563,669.25 Q1211.1094,668.8906 1210.9219,668.7031 Q1210.5938,668.3281 1209.9844,668.1094 Q1209.375,667.8906 1208.75,667.8906 Q1207.9844,667.8906 1207.3438,668.2188 Q1206.7188,668.5469 1206.2188,669.2969 Q1205.7344,670.0469 1205.7344,671.0781 L1205.7344,672.1719 Q1205.7344,673.4063 1206.625,674.2344 Q1207.5156,675.0469 1209.1094,675.0469 Q1210.0469,675.0469 1210.7031,674.7969 Q1211.0938,674.6406 1211.5156,674.2031 Q1211.7813,673.9375 1211.9219,673.8594 Q1212.0781,673.7813 1212.2813,673.7813 Q1212.6094,673.7813 1212.8594,674.0469 Q1213.125,674.2969 1213.125,674.6406 Q1213.125,674.9844 1212.7813,675.3906 Q1212.2813,675.9688 1211.4844,676.2969 Q1210.4063,676.75 1209.1094,676.75 Q1207.5938,676.75 1206.3906,676.125 Q1205.4063,675.625 1204.7188,674.5625 Q1204.0313,673.4844 1204.0313,672.2031 L1204.0313,671.0469 Q1204.0313,669.7188 1204.6406,668.5781 Q1205.2656,667.4219 1206.3594,666.8125 Q1207.4531,666.1875 1208.6875,666.1875 Q1209.4219,666.1875 1210.0625,666.3594 Q1210.7188,666.5156 1211.2656,666.875 Z " fill="#000000"/><text fill="#000000" font-family="sans-serif" font-size="14" lengthAdjust="spacing" textLength="121" x="1222.5" y="676.7285">NextTurnCommand</text><line style="stroke:#181818;stroke-width:0.5;" x1="1194.5" x2="1345.5" y1="687" y2="687"/><line style="stroke:#181818;stroke-width:0.5;" x1="1194.5" x2="1345.5" y1="695" y2="695"/></g><!--class PlayCommand--><g id="elem_PlayCommand"><rect codeLine="11" fill="#F1F1F1" height="48" id="PlayCommand" rx="2.5" ry="2.5" style="stroke:#181818;stroke-width:0.5;" width="123" x="1381.5" y="655"/><ellipse cx="1396.5" cy="671" fill="#ADD1B2" rx="11" ry="11" style="stroke:#181818;stroke-width:1.0;"/><path d="M1399.2656,666.875 Q1399.4219,666.6563 1399.6094,666.5469 Q1399.7969,666.4375 1400.0156,666.4375 Q1400.3906,666.4375 1400.625,666.7031 Q1400.8594,666.9531 1400.8594,667.5625 L1400.8594,669.0156 Q1400.8594,669.625 1400.625,669.8906 Q1400.3906,670.1563 1400.0156,670.1563 Q1399.6719,670.1563 1399.4688,669.9531 Q1399.2656,669.7656 1399.1563,669.25 Q1399.1094,668.8906 1398.9219,668.7031 Q1398.5938,668.3281 1397.9844,668.1094 Q1397.375,667.8906 1396.75,667.8906 Q1395.9844,667.8906 1395.3438,668.2188 Q1394.7188,668.5469 1394.2188,669.2969 Q1393.7344,670.0469 1393.7344,671.0781 L1393.7344,672.1719 Q1393.7344,673.4063 1394.625,674.2344 Q1395.5156,675.0469 1397.1094,675.0469 Q1398.0469,675.0469 1398.7031,674.7969 Q1399.0938,674.6406 1399.5156,674.2031 Q1399.7813,673.9375 1399.9219,673.8594 Q1400.0781,673.7813 1400.2813,673.7813 Q1400.6094,673.7813 1400.8594,674.0469 Q1401.125,674.2969 1401.125,674.6406 Q1401.125,674.9844 1400.7813,675.3906 Q1400.2813,675.9688 1399.4844,676.2969 Q1398.4063,676.75 1397.1094,676.75 Q1395.5938,676.75 1394.3906,676.125 Q1393.4063,675.625 1392.7188,674.5625 Q1392.0313,673.4844 1392.0313,672.2031 L1392.0313,671.0469 Q1392.0313,669.7188 1392.6406,668.5781 Q1393.2656,667.4219 1394.3594,666.8125 Q1395.4531,666.1875 1396.6875,666.1875 Q1397.4219,666.1875 1398.0625,666.3594 Q1398.7188,666.5156 1399.2656,666.875 Z " fill="#000000"/><text fill="#000000" font-family="sans-serif" font-size="14" lengthAdjust="spacing" textLength="91" x="1410.5" y="676.7285">PlayCommand</text><line style="stroke:#181818;stroke-width:0.5;" x1="1382.5" x2="1503.5" y1="687" y2="687"/><line style="stroke:#181818;stroke-width:0.5;" x1="1382.5" x2="1503.5" y1="695" y2="695"/></g><!--class PlayPanelView--><g id="elem_PlayPanelView"><rect codeLine="12" fill="#F1F1F1" height="48" id="PlayPanelView" rx="2.5" ry="2.5" style="stroke:#181818;stroke-width:0.5;" width="124" x="437" y="547"/><ellipse cx="452" cy="563" fill="#ADD1B2" rx="11" ry="11" style="stroke:#181818;stroke-width:1.0;"/><path d="M454.7656,558.875 Q454.9219,558.6563 455.1094,558.5469 Q455.2969,558.4375 455.5156,558.4375 Q455.8906,558.4375 456.125,558.7031 Q456.3594,558.9531 456.3594,559.5625 L456.3594,561.0156 Q456.3594,561.625 456.125,561.8906 Q455.8906,562.1563 455.5156,562.1563 Q455.1719,562.1563 454.9688,561.9531 Q454.7656,561.7656 454.6563,561.25 Q454.6094,560.8906 454.4219,560.7031 Q454.0938,560.3281 453.4844,560.1094 Q452.875,559.8906 452.25,559.8906 Q451.4844,559.8906 450.8438,560.2188 Q450.2188,560.5469 449.7188,561.2969 Q449.2344,562.0469 449.2344,563.0781 L449.2344,564.1719 Q449.2344,565.4063 450.125,566.2344 Q451.0156,567.0469 452.6094,567.0469 Q453.5469,567.0469 454.2031,566.7969 Q454.5938,566.6406 455.0156,566.2031 Q455.2813,565.9375 455.4219,565.8594 Q455.5781,565.7813 455.7813,565.7813 Q456.1094,565.7813 456.3594,566.0469 Q456.625,566.2969 456.625,566.6406 Q456.625,566.9844 456.2813,567.3906 Q455.7813,567.9688 454.9844,568.2969 Q453.9063,568.75 452.6094,568.75 Q451.0938,568.75 449.8906,568.125 Q448.9063,567.625 448.2188,566.5625 Q447.5313,565.4844 447.5313,564.2031 L447.5313,563.0469 Q447.5313,561.7188 448.1406,560.5781 Q448.7656,559.4219 449.8594,558.8125 Q450.9531,558.1875 452.1875,558.1875 Q452.9219,558.1875 453.5625,558.3594 Q454.2188,558.5156 454.7656,558.875 Z " fill="#000000"/><text fill="#000000" font-family="sans-serif" font-size="14" lengthAdjust="spacing" textLength="92" x="466" y="568.7285">PlayPanelView</text><line style="stroke:#181818;stroke-width:0.5;" x1="438" x2="560" y1="579" y2="579"/><line style="stroke:#181818;stroke-width:0.5;" x1="438" x2="560" y1="587" y2="587"/></g><!--class ResumePanelView--><g id="elem_ResumePanelView"><rect codeLine="13" fill="#F1F1F1" height="48" id="ResumePanelView" rx="2.5" ry="2.5" style="stroke:#181818;stroke-width:0.5;" width="149" x="600.5" y="439"/><ellipse cx="615.5" cy="455" fill="#ADD1B2" rx="11" ry="11" style="stroke:#181818;stroke-width:1.0;"/><path d="M618.2656,450.875 Q618.4219,450.6563 618.6094,450.5469 Q618.7969,450.4375 619.0156,450.4375 Q619.3906,450.4375 619.625,450.7031 Q619.8594,450.9531 619.8594,451.5625 L619.8594,453.0156 Q619.8594,453.625 619.625,453.8906 Q619.3906,454.1563 619.0156,454.1563 Q618.6719,454.1563 618.4688,453.9531 Q618.2656,453.7656 618.1563,453.25 Q618.1094,452.8906 617.9219,452.7031 Q617.5938,452.3281 616.9844,452.1094 Q616.375,451.8906 615.75,451.8906 Q614.9844,451.8906 614.3438,452.2188 Q613.7188,452.5469 613.2188,453.2969 Q612.7344,454.0469 612.7344,455.0781 L612.7344,456.1719 Q612.7344,457.4063 613.625,458.2344 Q614.5156,459.0469 616.1094,459.0469 Q617.0469,459.0469 617.7031,458.7969 Q618.0938,458.6406 618.5156,458.2031 Q618.7813,457.9375 618.9219,457.8594 Q619.0781,457.7813 619.2813,457.7813 Q619.6094,457.7813 619.8594,458.0469 Q620.125,458.2969 620.125,458.6406 Q620.125,458.9844 619.7813,459.3906 Q619.2813,459.9688 618.4844,460.2969 Q617.4063,460.75 616.1094,460.75 Q614.5938,460.75 613.3906,460.125 Q612.4063,459.625 611.7188,458.5625 Q611.0313,457.4844 611.0313,456.2031 L611.0313,455.0469 Q611.0313,453.7188 611.6406,452.5781 Q612.2656,451.4219 613.3594,450.8125 Q614.4531,450.1875 615.6875,450.1875 Q616.4219,450.1875 617.0625,450.3594 Q617.7188,450.5156 618.2656,450.875 Z " fill="#000000"/><text fill="#000000" font-family="sans-serif" font-size="14" lengthAdjust="spacing" textLength="117" x="629.5" y="460.7285">ResumePanelView</text><line style="stroke:#181818;stroke-width:0.5;" x1="601.5" x2="748.5" y1="471" y2="471"/><line style="stroke:#181818;stroke-width:0.5;" x1="601.5" x2="748.5" y1="479" y2="479"/></g><!--class ResumeCommand--><g id="elem_ResumeCommand"><rect codeLine="14" fill="#F1F1F1" height="48" id="ResumeCommand" rx="2.5" ry="2.5" style="stroke:#181818;stroke-width:0.5;" width="148" x="1010" y="655"/><ellipse cx="1025" cy="671" fill="#ADD1B2" rx="11" ry="11" style="stroke:#181818;stroke-width:1.0;"/><path d="M1027.7656,666.875 Q1027.9219,666.6563 1028.1094,666.5469 Q1028.2969,666.4375 1028.5156,666.4375 Q1028.8906,666.4375 1029.125,666.7031 Q1029.3594,666.9531 1029.3594,667.5625 L1029.3594,669.0156 Q1029.3594,669.625 1029.125,669.8906 Q1028.8906,670.1563 1028.5156,670.1563 Q1028.1719,670.1563 1027.9688,669.9531 Q1027.7656,669.7656 1027.6563,669.25 Q1027.6094,668.8906 1027.4219,668.7031 Q1027.0938,668.3281 1026.4844,668.1094 Q1025.875,667.8906 1025.25,667.8906 Q1024.4844,667.8906 1023.8438,668.2188 Q1023.2188,668.5469 1022.7188,669.2969 Q1022.2344,670.0469 1022.2344,671.0781 L1022.2344,672.1719 Q1022.2344,673.4063 1023.125,674.2344 Q1024.0156,675.0469 1025.6094,675.0469 Q1026.5469,675.0469 1027.2031,674.7969 Q1027.5938,674.6406 1028.0156,674.2031 Q1028.2813,673.9375 1028.4219,673.8594 Q1028.5781,673.7813 1028.7813,673.7813 Q1029.1094,673.7813 1029.3594,674.0469 Q1029.625,674.2969 1029.625,674.6406 Q1029.625,674.9844 1029.2813,675.3906 Q1028.7813,675.9688 1027.9844,676.2969 Q1026.9063,676.75 1025.6094,676.75 Q1024.0938,676.75 1022.8906,676.125 Q1021.9063,675.625 1021.2188,674.5625 Q1020.5313,673.4844 1020.5313,672.2031 L1020.5313,671.0469 Q1020.5313,669.7188 1021.1406,668.5781 Q1021.7656,667.4219 1022.8594,666.8125 Q1023.9531,666.1875 1025.1875,666.1875 Q1025.9219,666.1875 1026.5625,666.3594 Q1027.2188,666.5156 1027.7656,666.875 Z " fill="#000000"/><text fill="#000000" font-family="sans-serif" font-size="14" lengthAdjust="spacing" textLength="116" x="1039" y="676.7285">ResumeCommand</text><line style="stroke:#181818;stroke-width:0.5;" x1="1011" x2="1157" y1="687" y2="687"/><line style="stroke:#181818;stroke-width:0.5;" x1="1011" x2="1157" y1="695" y2="695"/></g><!--class Square--><g id="elem_Square"><rect codeLine="15" fill="#F1F1F1" height="48" id="Square" rx="2.5" ry="2.5" style="stroke:#181818;stroke-width:0.5;" width="78" x="773" y="763"/><ellipse cx="788" cy="779" fill="#ADD1B2" rx="11" ry="11" style="stroke:#181818;stroke-width:1.0;"/><path d="M790.7656,774.875 Q790.9219,774.6563 791.1094,774.5469 Q791.2969,774.4375 791.5156,774.4375 Q791.8906,774.4375 792.125,774.7031 Q792.3594,774.9531 792.3594,775.5625 L792.3594,777.0156 Q792.3594,777.625 792.125,777.8906 Q791.8906,778.1563 791.5156,778.1563 Q791.1719,778.1563 790.9688,777.9531 Q790.7656,777.7656 790.6563,777.25 Q790.6094,776.8906 790.4219,776.7031 Q790.0938,776.3281 789.4844,776.1094 Q788.875,775.8906 788.25,775.8906 Q787.4844,775.8906 786.8438,776.2188 Q786.2188,776.5469 785.7188,777.2969 Q785.2344,778.0469 785.2344,779.0781 L785.2344,780.1719 Q785.2344,781.4063 786.125,782.2344 Q787.0156,783.0469 788.6094,783.0469 Q789.5469,783.0469 790.2031,782.7969 Q790.5938,782.6406 791.0156,782.2031 Q791.2813,781.9375 791.4219,781.8594 Q791.5781,781.7813 791.7813,781.7813 Q792.1094,781.7813 792.3594,782.0469 Q792.625,782.2969 792.625,782.6406 Q792.625,782.9844 792.2813,783.3906 Q791.7813,783.9688 790.9844,784.2969 Q789.9063,784.75 788.6094,784.75 Q787.0938,784.75 785.8906,784.125 Q784.9063,783.625 784.2188,782.5625 Q783.5313,781.4844 783.5313,780.2031 L783.5313,779.0469 Q783.5313,777.7188 784.1406,776.5781 Q784.7656,775.4219 785.8594,774.8125 Q786.9531,774.1875 788.1875,774.1875 Q788.9219,774.1875 789.5625,774.3594 Q790.2188,774.5156 790.7656,774.875 Z " fill="#000000"/><text fill="#000000" font-family="sans-serif" font-size="14" lengthAdjust="spacing" textLength="46" x="802" y="784.7285">Square</text><line style="stroke:#181818;stroke-width:0.5;" x1="774" x2="850" y1="795" y2="795"/><line style="stroke:#181818;stroke-width:0.5;" x1="774" x2="850" y1="803" y2="803"/></g><!--class ClickableSquare--><g id="elem_ClickableSquare"><rect codeLine="16" fill="#F1F1F1" height="48" id="ClickableSquare" rx="2.5" ry="2.5" style="stroke:#181818;stroke-width:0.5;" width="135" x="658.5" y="871"/><ellipse cx="673.5" cy="887" fill="#ADD1B2" rx="11" ry="11" style="stroke:#181818;stroke-width:1.0;"/><path d="M676.2656,882.875 Q676.4219,882.6563 676.6094,882.5469 Q676.7969,882.4375 677.0156,882.4375 Q677.3906,882.4375 677.625,882.7031 Q677.8594,882.9531 677.8594,883.5625 L677.8594,885.0156 Q677.8594,885.625 677.625,885.8906 Q677.3906,886.1563 677.0156,886.1563 Q676.6719,886.1563 676.4688,885.9531 Q676.2656,885.7656 676.1563,885.25 Q676.1094,884.8906 675.9219,884.7031 Q675.5938,884.3281 674.9844,884.1094 Q674.375,883.8906 673.75,883.8906 Q672.9844,883.8906 672.3438,884.2188 Q671.7188,884.5469 671.2188,885.2969 Q670.7344,886.0469 670.7344,887.0781 L670.7344,888.1719 Q670.7344,889.4063 671.625,890.2344 Q672.5156,891.0469 674.1094,891.0469 Q675.0469,891.0469 675.7031,890.7969 Q676.0938,890.6406 676.5156,890.2031 Q676.7813,889.9375 676.9219,889.8594 Q677.0781,889.7813 677.2813,889.7813 Q677.6094,889.7813 677.8594,890.0469 Q678.125,890.2969 678.125,890.6406 Q678.125,890.9844 677.7813,891.3906 Q677.2813,891.9688 676.4844,892.2969 Q675.4063,892.75 674.1094,892.75 Q672.5938,892.75 671.3906,892.125 Q670.4063,891.625 669.7188,890.5625 Q669.0313,889.4844 669.0313,888.2031 L669.0313,887.0469 Q669.0313,885.7188 669.6406,884.5781 Q670.2656,883.4219 671.3594,882.8125 Q672.4531,882.1875 673.6875,882.1875 Q674.4219,882.1875 675.0625,882.3594 Q675.7188,882.5156 676.2656,882.875 Z " fill="#000000"/><text fill="#000000" font-family="sans-serif" font-size="14" lengthAdjust="spacing" textLength="103" x="687.5" y="892.7285">ClickableSquare</text><line style="stroke:#181818;stroke-width:0.5;" x1="659.5" x2="792.5" y1="903" y2="903"/><line style="stroke:#181818;stroke-width:0.5;" x1="659.5" x2="792.5" y1="911" y2="911"/></g><!--class NonClickableSquare--><g id="elem_NonClickableSquare"><rect codeLine="17" fill="#F1F1F1" height="48" id="NonClickableSquare" rx="2.5" ry="2.5" style="stroke:#181818;stroke-width:0.5;" width="160" x="902" y="871"/><ellipse cx="917" cy="887" fill="#ADD1B2" rx="11" ry="11" style="stroke:#181818;stroke-width:1.0;"/><path d="M919.7656,882.875 Q919.9219,882.6563 920.1094,882.5469 Q920.2969,882.4375 920.5156,882.4375 Q920.8906,882.4375 921.125,882.7031 Q921.3594,882.9531 921.3594,883.5625 L921.3594,885.0156 Q921.3594,885.625 921.125,885.8906 Q920.8906,886.1563 920.5156,886.1563 Q920.1719,886.1563 919.9688,885.9531 Q919.7656,885.7656 919.6563,885.25 Q919.6094,884.8906 919.4219,884.7031 Q919.0938,884.3281 918.4844,884.1094 Q917.875,883.8906 917.25,883.8906 Q916.4844,883.8906 915.8438,884.2188 Q915.2188,884.5469 914.7188,885.2969 Q914.2344,886.0469 914.2344,887.0781 L914.2344,888.1719 Q914.2344,889.4063 915.125,890.2344 Q916.0156,891.0469 917.6094,891.0469 Q918.5469,891.0469 919.2031,890.7969 Q919.5938,890.6406 920.0156,890.2031 Q920.2813,889.9375 920.4219,889.8594 Q920.5781,889.7813 920.7813,889.7813 Q921.1094,889.7813 921.3594,890.0469 Q921.625,890.2969 921.625,890.6406 Q921.625,890.9844 921.2813,891.3906 Q920.7813,891.9688 919.9844,892.2969 Q918.9063,892.75 917.6094,892.75 Q916.0938,892.75 914.8906,892.125 Q913.9063,891.625 913.2188,890.5625 Q912.5313,889.4844 912.5313,888.2031 L912.5313,887.0469 Q912.5313,885.7188 913.1406,884.5781 Q913.7656,883.4219 914.8594,882.8125 Q915.9531,882.1875 917.1875,882.1875 Q917.9219,882.1875 918.5625,882.3594 Q919.2188,882.5156 919.7656,882.875 Z " fill="#000000"/><text fill="#000000" font-family="sans-serif" font-size="14" lengthAdjust="spacing" textLength="128" x="931" y="892.7285">NonClickableSquare</text><line style="stroke:#181818;stroke-width:0.5;" x1="903" x2="1061" y1="903" y2="903"/><line style="stroke:#181818;stroke-width:0.5;" x1="903" x2="1061" y1="911" y2="911"/></g><!--class StartPanelView--><g id="elem_StartPanelView"><rect codeLine="18" fill="#F1F1F1" height="48" id="StartPanelView" rx="2.5" ry="2.5" style="stroke:#181818;stroke-width:0.5;" width="127" x="867.5" y="439"/><ellipse cx="882.5" cy="455" fill="#ADD1B2" rx="11" ry="11" style="stroke:#181818;stroke-width:1.0;"/><path d="M885.2656,450.875 Q885.4219,450.6563 885.6094,450.5469 Q885.7969,450.4375 886.0156,450.4375 Q886.3906,450.4375 886.625,450.7031 Q886.8594,450.9531 886.8594,451.5625 L886.8594,453.0156 Q886.8594,453.625 886.625,453.8906 Q886.3906,454.1563 886.0156,454.1563 Q885.6719,454.1563 885.4688,453.9531 Q885.2656,453.7656 885.1563,453.25 Q885.1094,452.8906 884.9219,452.7031 Q884.5938,452.3281 883.9844,452.1094 Q883.375,451.8906 882.75,451.8906 Q881.9844,451.8906 881.3438,452.2188 Q880.7188,452.5469 880.2188,453.2969 Q879.7344,454.0469 879.7344,455.0781 L879.7344,456.1719 Q879.7344,457.4063 880.625,458.2344 Q881.5156,459.0469 883.1094,459.0469 Q884.0469,459.0469 884.7031,458.7969 Q885.0938,458.6406 885.5156,458.2031 Q885.7813,457.9375 885.9219,457.8594 Q886.0781,457.7813 886.2813,457.7813 Q886.6094,457.7813 886.8594,458.0469 Q887.125,458.2969 887.125,458.6406 Q887.125,458.9844 886.7813,459.3906 Q886.2813,459.9688 885.4844,460.2969 Q884.4063,460.75 883.1094,460.75 Q881.5938,460.75 880.3906,460.125 Q879.4063,459.625 878.7188,458.5625 Q878.0313,457.4844 878.0313,456.2031 L878.0313,455.0469 Q878.0313,453.7188 878.6406,452.5781 Q879.2656,451.4219 880.3594,450.8125 Q881.4531,450.1875 882.6875,450.1875 Q883.4219,450.1875 884.0625,450.3594 Q884.7188,450.5156 885.2656,450.875 Z " fill="#000000"/><text fill="#000000" font-family="sans-serif" font-size="14" lengthAdjust="spacing" textLength="95" x="896.5" y="460.7285">StartPanelView</text><line style="stroke:#181818;stroke-width:0.5;" x1="868.5" x2="993.5" y1="471" y2="471"/><line style="stroke:#181818;stroke-width:0.5;" x1="868.5" x2="993.5" y1="479" y2="479"/></g><!--class TurnView--><g id="elem_TurnView"><rect codeLine="19" fill="#F1F1F1" height="48" id="TurnView" rx="2.5" ry="2.5" style="stroke:#181818;stroke-width:0.5;" width="91" x="535.5" y="655"/><ellipse cx="550.5" cy="671" fill="#ADD1B2" rx="11" ry="11" style="stroke:#181818;stroke-width:1.0;"/><path d="M553.2656,666.875 Q553.4219,666.6563 553.6094,666.5469 Q553.7969,666.4375 554.0156,666.4375 Q554.3906,666.4375 554.625,666.7031 Q554.8594,666.9531 554.8594,667.5625 L554.8594,669.0156 Q554.8594,669.625 554.625,669.8906 Q554.3906,670.1563 554.0156,670.1563 Q553.6719,670.1563 553.4688,669.9531 Q553.2656,669.7656 553.1563,669.25 Q553.1094,668.8906 552.9219,668.7031 Q552.5938,668.3281 551.9844,668.1094 Q551.375,667.8906 550.75,667.8906 Q549.9844,667.8906 549.3438,668.2188 Q548.7188,668.5469 548.2188,669.2969 Q547.7344,670.0469 547.7344,671.0781 L547.7344,672.1719 Q547.7344,673.4063 548.625,674.2344 Q549.5156,675.0469 551.1094,675.0469 Q552.0469,675.0469 552.7031,674.7969 Q553.0938,674.6406 553.5156,674.2031 Q553.7813,673.9375 553.9219,673.8594 Q554.0781,673.7813 554.2813,673.7813 Q554.6094,673.7813 554.8594,674.0469 Q555.125,674.2969 555.125,674.6406 Q555.125,674.9844 554.7813,675.3906 Q554.2813,675.9688 553.4844,676.2969 Q552.4063,676.75 551.1094,676.75 Q549.5938,676.75 548.3906,676.125 Q547.4063,675.625 546.7188,674.5625 Q546.0313,673.4844 546.0313,672.2031 L546.0313,671.0469 Q546.0313,669.7188 546.6406,668.5781 Q547.2656,667.4219 548.3594,666.8125 Q549.4531,666.1875 550.6875,666.1875 Q551.4219,666.1875 552.0625,666.3594 Q552.7188,666.5156 553.2656,666.875 Z " fill="#000000"/><text fill="#000000" font-family="sans-serif" font-size="14" lengthAdjust="spacing" textLength="59" x="564.5" y="676.7285">TurnView</text><line style="stroke:#181818;stroke-width:0.5;" x1="536.5" x2="625.5" y1="687" y2="687"/><line style="stroke:#181818;stroke-width:0.5;" x1="536.5" x2="625.5" y1="695" y2="695"/></g><!--class UserPlayerBoardView--><g id="elem_UserPlayerBoardView"><rect codeLine="20" fill="#F1F1F1" height="48" id="UserPlayerBoardView" rx="2.5" ry="2.5" style="stroke:#181818;stroke-width:0.5;" width="168" x="570" y="763"/><ellipse cx="585" cy="779" fill="#ADD1B2" rx="11" ry="11" style="stroke:#181818;stroke-width:1.0;"/><path d="M587.7656,774.875 Q587.9219,774.6563 588.1094,774.5469 Q588.2969,774.4375 588.5156,774.4375 Q588.8906,774.4375 589.125,774.7031 Q589.3594,774.9531 589.3594,775.5625 L589.3594,777.0156 Q589.3594,777.625 589.125,777.8906 Q588.8906,778.1563 588.5156,778.1563 Q588.1719,778.1563 587.9688,777.9531 Q587.7656,777.7656 587.6563,777.25 Q587.6094,776.8906 587.4219,776.7031 Q587.0938,776.3281 586.4844,776.1094 Q585.875,775.8906 585.25,775.8906 Q584.4844,775.8906 583.8438,776.2188 Q583.2188,776.5469 582.7188,777.2969 Q582.2344,778.0469 582.2344,779.0781 L582.2344,780.1719 Q582.2344,781.4063 583.125,782.2344 Q584.0156,783.0469 585.6094,783.0469 Q586.5469,783.0469 587.2031,782.7969 Q587.5938,782.6406 588.0156,782.2031 Q588.2813,781.9375 588.4219,781.8594 Q588.5781,781.7813 588.7813,781.7813 Q589.1094,781.7813 589.3594,782.0469 Q589.625,782.2969 589.625,782.6406 Q589.625,782.9844 589.2813,783.3906 Q588.7813,783.9688 587.9844,784.2969 Q586.9063,784.75 585.6094,784.75 Q584.0938,784.75 582.8906,784.125 Q581.9063,783.625 581.2188,782.5625 Q580.5313,781.4844 580.5313,780.2031 L580.5313,779.0469 Q580.5313,777.7188 581.1406,776.5781 Q581.7656,775.4219 582.8594,774.8125 Q583.9531,774.1875 585.1875,774.1875 Q585.9219,774.1875 586.5625,774.3594 Q587.2188,774.5156 587.7656,774.875 Z " fill="#000000"/><text fill="#000000" font-family="sans-serif" font-size="14" lengthAdjust="spacing" textLength="136" x="599" y="784.7285">UserPlayerBoardView</text><line style="stroke:#181818;stroke-width:0.5;" x1="571" x2="737" y1="795" y2="795"/><line style="stroke:#181818;stroke-width:0.5;" x1="571" x2="737" y1="803" y2="803"/></g><!--class PauseBoardView--><g id="elem_PauseBoardView"><rect codeLine="21" fill="#F1F1F1" height="48" id="PauseBoardView" rx="2.5" ry="2.5" style="stroke:#181818;stroke-width:0.5;" width="139" x="835.5" y="655"/><ellipse cx="850.5" cy="671" fill="#ADD1B2" rx="11" ry="11" style="stroke:#181818;stroke-width:1.0;"/><path d="M853.2656,666.875 Q853.4219,666.6563 853.6094,666.5469 Q853.7969,666.4375 854.0156,666.4375 Q854.3906,666.4375 854.625,666.7031 Q854.8594,666.9531 854.8594,667.5625 L854.8594,669.0156 Q854.8594,669.625 854.625,669.8906 Q854.3906,670.1563 854.0156,670.1563 Q853.6719,670.1563 853.4688,669.9531 Q853.2656,669.7656 853.1563,669.25 Q853.1094,668.8906 852.9219,668.7031 Q852.5938,668.3281 851.9844,668.1094 Q851.375,667.8906 850.75,667.8906 Q849.9844,667.8906 849.3438,668.2188 Q848.7188,668.5469 848.2188,669.2969 Q847.7344,670.0469 847.7344,671.0781 L847.7344,672.1719 Q847.7344,673.4063 848.625,674.2344 Q849.5156,675.0469 851.1094,675.0469 Q852.0469,675.0469 852.7031,674.7969 Q853.0938,674.6406 853.5156,674.2031 Q853.7813,673.9375 853.9219,673.8594 Q854.0781,673.7813 854.2813,673.7813 Q854.6094,673.7813 854.8594,674.0469 Q855.125,674.2969 855.125,674.6406 Q855.125,674.9844 854.7813,675.3906 Q854.2813,675.9688 853.4844,676.2969 Q852.4063,676.75 851.1094,676.75 Q849.5938,676.75 848.3906,676.125 Q847.4063,675.625 846.7188,674.5625 Q846.0313,673.4844 846.0313,672.2031 L846.0313,671.0469 Q846.0313,669.7188 846.6406,668.5781 Q847.2656,667.4219 848.3594,666.8125 Q849.4531,666.1875 850.6875,666.1875 Q851.4219,666.1875 852.0625,666.3594 Q852.7188,666.5156 853.2656,666.875 Z " fill="#000000"/><text fill="#000000" font-family="sans-serif" font-size="14" lengthAdjust="spacing" textLength="107" x="864.5" y="676.7285">PauseBoardView</text><line style="stroke:#181818;stroke-width:0.5;" x1="836.5" x2="973.5" y1="687" y2="687"/><line style="stroke:#181818;stroke-width:0.5;" x1="836.5" x2="973.5" y1="695" y2="695"/></g><!--class PanelView--><g id="elem_PanelView"><rect codeLine="22" fill="#F1F1F1" height="48" id="PanelView" rx="2.5" ry="2.5" style="stroke:#181818;stroke-width:0.5;" width="97" x="1071.5" y="439"/><ellipse cx="1086.5" cy="455" fill="#A9DCDF" rx="11" ry="11" style="stroke:#181818;stroke-width:1.0;"/><path d="M1088.6875,456.7656 L1084.5469,456.7656 L1084.125,457.7969 L1084.5469,457.7969 Q1085.1563,457.7969 1085.4219,458.0313 Q1085.6875,458.2656 1085.6875,458.6563 Q1085.6875,459.0313 1085.4219,459.2656 Q1085.1563,459.5 1084.5469,459.5 L1082.25,459.5 Q1081.6406,459.5 1081.3906,459.2656 Q1081.125,459.0313 1081.125,458.6406 Q1081.125,458.2656 1081.4063,458.0313 Q1081.6719,457.7813 1082.2969,457.7969 L1084.9688,451.1406 L1083.8594,451.1406 Q1083.25,451.1406 1082.9844,450.9063 Q1082.7188,450.6719 1082.7188,450.2813 Q1082.7188,449.9063 1082.9844,449.6719 Q1083.25,449.4375 1083.8594,449.4375 L1087.5313,449.4375 L1090.9219,457.7969 Q1091.5156,457.7969 1091.7031,457.9375 Q1092.0938,458.2031 1092.0938,458.6563 Q1092.0938,459.0313 1091.8281,459.2656 Q1091.5781,459.5 1090.9688,459.5 L1088.6719,459.5 Q1088.0625,459.5 1087.7969,459.2656 Q1087.5313,459.0313 1087.5313,458.6406 Q1087.5313,458.2656 1087.7969,458.0313 Q1088.0625,457.7969 1088.6719,457.7969 L1089.0938,457.7969 L1088.6875,456.7656 Z M1087.9688,455.0625 L1086.6094,451.6875 L1085.2344,455.0625 L1087.9688,455.0625 Z " fill="#000000"/><text fill="#000000" font-family="sans-serif" font-size="14" font-style="italic" lengthAdjust="spacing" textLength="65" x="1100.5" y="460.7285">PanelView</text><line style="stroke:#181818;stroke-width:0.5;" x1="1072.5" x2="1167.5" y1="471" y2="471"/><line style="stroke:#181818;stroke-width:0.5;" x1="1072.5" x2="1167.5" y1="479" y2="479"/></g><!--class PlayerBoardView--><g id="elem_PlayerBoardView"><rect codeLine="23" fill="#F1F1F1" height="48" id="PlayerBoardView" rx="2.5" ry="2.5" style="stroke:#181818;stroke-width:0.5;" width="139" x="661.5" y="655"/><ellipse cx="676.5" cy="671" fill="#A9DCDF" rx="11" ry="11" style="stroke:#181818;stroke-width:1.0;"/><path d="M678.6875,672.7656 L674.5469,672.7656 L674.125,673.7969 L674.5469,673.7969 Q675.1563,673.7969 675.4219,674.0313 Q675.6875,674.2656 675.6875,674.6563 Q675.6875,675.0313 675.4219,675.2656 Q675.1563,675.5 674.5469,675.5 L672.25,675.5 Q671.6406,675.5 671.3906,675.2656 Q671.125,675.0313 671.125,674.6406 Q671.125,674.2656 671.4063,674.0313 Q671.6719,673.7813 672.2969,673.7969 L674.9688,667.1406 L673.8594,667.1406 Q673.25,667.1406 672.9844,666.9063 Q672.7188,666.6719 672.7188,666.2813 Q672.7188,665.9063 672.9844,665.6719 Q673.25,665.4375 673.8594,665.4375 L677.5313,665.4375 L680.9219,673.7969 Q681.5156,673.7969 681.7031,673.9375 Q682.0938,674.2031 682.0938,674.6563 Q682.0938,675.0313 681.8281,675.2656 Q681.5781,675.5 680.9688,675.5 L678.6719,675.5 Q678.0625,675.5 677.7969,675.2656 Q677.5313,675.0313 677.5313,674.6406 Q677.5313,674.2656 677.7969,674.0313 Q678.0625,673.7969 678.6719,673.7969 L679.0938,673.7969 L678.6875,672.7656 Z M677.9688,671.0625 L676.6094,667.6875 L675.2344,671.0625 L677.9688,671.0625 Z " fill="#000000"/><text fill="#000000" font-family="sans-serif" font-size="14" font-style="italic" lengthAdjust="spacing" textLength="107" x="690.5" y="676.7285">PlayerBoardView</text><line style="stroke:#181818;stroke-width:0.5;" x1="662.5" x2="799.5" y1="687" y2="687"/><line style="stroke:#181818;stroke-width:0.5;" x1="662.5" x2="799.5" y1="695" y2="695"/></g><!--class JFrame--><g id="elem_JFrame"><rect codeLine="25" fill="#F1F1F1" height="48" id="JFrame" rx="2.5" ry="2.5" style="stroke:#181818;stroke-width:0.5;" width="79" x="790.5" y="7"/><ellipse cx="805.5" cy="23" fill="#ADD1B2" rx="11" ry="11" style="stroke:#181818;stroke-width:1.0;"/><path d="M808.2656,18.875 Q808.4219,18.6563 808.6094,18.5469 Q808.7969,18.4375 809.0156,18.4375 Q809.3906,18.4375 809.625,18.7031 Q809.8594,18.9531 809.8594,19.5625 L809.8594,21.0156 Q809.8594,21.625 809.625,21.8906 Q809.3906,22.1563 809.0156,22.1563 Q808.6719,22.1563 808.4688,21.9531 Q808.2656,21.7656 808.1563,21.25 Q808.1094,20.8906 807.9219,20.7031 Q807.5938,20.3281 806.9844,20.1094 Q806.375,19.8906 805.75,19.8906 Q804.9844,19.8906 804.3438,20.2188 Q803.7188,20.5469 803.2188,21.2969 Q802.7344,22.0469 802.7344,23.0781 L802.7344,24.1719 Q802.7344,25.4063 803.625,26.2344 Q804.5156,27.0469 806.1094,27.0469 Q807.0469,27.0469 807.7031,26.7969 Q808.0938,26.6406 808.5156,26.2031 Q808.7813,25.9375 808.9219,25.8594 Q809.0781,25.7813 809.2813,25.7813 Q809.6094,25.7813 809.8594,26.0469 Q810.125,26.2969 810.125,26.6406 Q810.125,26.9844 809.7813,27.3906 Q809.2813,27.9688 808.4844,28.2969 Q807.4063,28.75 806.1094,28.75 Q804.5938,28.75 803.3906,28.125 Q802.4063,27.625 801.7188,26.5625 Q801.0313,25.4844 801.0313,24.2031 L801.0313,23.0469 Q801.0313,21.7188 801.6406,20.5781 Q802.2656,19.4219 803.3594,18.8125 Q804.4531,18.1875 805.6875,18.1875 Q806.4219,18.1875 807.0625,18.3594 Q807.7188,18.5156 808.2656,18.875 Z " fill="#000000"/><text fill="#000000" font-family="sans-serif" font-size="14" lengthAdjust="spacing" textLength="47" x="819.5" y="28.7285">JFrame</text><line style="stroke:#181818;stroke-width:0.5;" x1="791.5" x2="868.5" y1="39" y2="39"/><line style="stroke:#181818;stroke-width:0.5;" x1="791.5" x2="868.5" y1="47" y2="47"/></g><!--class Game--><g id="elem_Game"><rect codeLine="29" fill="#F1F1F1" height="48" id="Game" rx="2.5" ry="2.5" style="stroke:#181818;stroke-width:0.5;" width="70" x="1537" y="115"/><ellipse cx="1552" cy="131" fill="#ADD1B2" rx="11" ry="11" style="stroke:#181818;stroke-width:1.0;"/><path d="M1554.7656,126.875 Q1554.9219,126.6563 1555.1094,126.5469 Q1555.2969,126.4375 1555.5156,126.4375 Q1555.8906,126.4375 1556.125,126.7031 Q1556.3594,126.9531 1556.3594,127.5625 L1556.3594,129.0156 Q1556.3594,129.625 1556.125,129.8906 Q1555.8906,130.1563 1555.5156,130.1563 Q1555.1719,130.1563 1554.9688,129.9531 Q1554.7656,129.7656 1554.6563,129.25 Q1554.6094,128.8906 1554.4219,128.7031 Q1554.0938,128.3281 1553.4844,128.1094 Q1552.875,127.8906 1552.25,127.8906 Q1551.4844,127.8906 1550.8438,128.2188 Q1550.2188,128.5469 1549.7188,129.2969 Q1549.2344,130.0469 1549.2344,131.0781 L1549.2344,132.1719 Q1549.2344,133.4063 1550.125,134.2344 Q1551.0156,135.0469 1552.6094,135.0469 Q1553.5469,135.0469 1554.2031,134.7969 Q1554.5938,134.6406 1555.0156,134.2031 Q1555.2813,133.9375 1555.4219,133.8594 Q1555.5781,133.7813 1555.7813,133.7813 Q1556.1094,133.7813 1556.3594,134.0469 Q1556.625,134.2969 1556.625,134.6406 Q1556.625,134.9844 1556.2813,135.3906 Q1555.7813,135.9688 1554.9844,136.2969 Q1553.9063,136.75 1552.6094,136.75 Q1551.0938,136.75 1549.8906,136.125 Q1548.9063,135.625 1548.2188,134.5625 Q1547.5313,133.4844 1547.5313,132.2031 L1547.5313,131.0469 Q1547.5313,129.7188 1548.1406,128.5781 Q1548.7656,127.4219 1549.8594,126.8125 Q1550.9531,126.1875 1552.1875,126.1875 Q1552.9219,126.1875 1553.5625,126.3594 Q1554.2188,126.5156 1554.7656,126.875 Z " fill="#000000"/><text fill="#000000" font-family="sans-serif" font-size="14" lengthAdjust="spacing" textLength="38" x="1566" y="136.7285">Game</text><line style="stroke:#181818;stroke-width:0.5;" x1="1538" x2="1606" y1="147" y2="147"/><line style="stroke:#181818;stroke-width:0.5;" x1="1538" x2="1606" y1="155" y2="155"/></g><!--class View--><g id="elem_View"><rect codeLine="31" fill="#F1F1F1" height="48" id="View" rx="2.5" ry="2.5" style="stroke:#181818;stroke-width:0.5;" width="61" x="944.5" y="7"/><ellipse cx="959.5" cy="23" fill="#A9DCDF" rx="11" ry="11" style="stroke:#181818;stroke-width:1.0;"/><path d="M961.6875,24.7656 L957.5469,24.7656 L957.125,25.7969 L957.5469,25.7969 Q958.1563,25.7969 958.4219,26.0313 Q958.6875,26.2656 958.6875,26.6563 Q958.6875,27.0313 958.4219,27.2656 Q958.1563,27.5 957.5469,27.5 L955.25,27.5 Q954.6406,27.5 954.3906,27.2656 Q954.125,27.0313 954.125,26.6406 Q954.125,26.2656 954.4063,26.0313 Q954.6719,25.7813 955.2969,25.7969 L957.9688,19.1406 L956.8594,19.1406 Q956.25,19.1406 955.9844,18.9063 Q955.7188,18.6719 955.7188,18.2813 Q955.7188,17.9063 955.9844,17.6719 Q956.25,17.4375 956.8594,17.4375 L960.5313,17.4375 L963.9219,25.7969 Q964.5156,25.7969 964.7031,25.9375 Q965.0938,26.2031 965.0938,26.6563 Q965.0938,27.0313 964.8281,27.2656 Q964.5781,27.5 963.9688,27.5 L961.6719,27.5 Q961.0625,27.5 960.7969,27.2656 Q960.5313,27.0313 960.5313,26.6406 Q960.5313,26.2656 960.7969,26.0313 Q961.0625,25.7969 961.6719,25.7969 L962.0938,25.7969 L961.6875,24.7656 Z M960.9688,23.0625 L959.6094,19.6875 L958.2344,23.0625 L960.9688,23.0625 Z " fill="#000000"/><text fill="#000000" font-family="sans-serif" font-size="14" font-style="italic" lengthAdjust="spacing" textLength="29" x="973.5" y="28.7285">View</text><line style="stroke:#181818;stroke-width:0.5;" x1="945.5" x2="1004.5" y1="39" y2="39"/><line style="stroke:#181818;stroke-width:0.5;" x1="945.5" x2="1004.5" y1="47" y2="47"/></g><!--class JOptionPane--><g id="elem_JOptionPane"><rect codeLine="34" fill="#F1F1F1" height="48" id="JOptionPane" rx="2.5" ry="2.5" style="stroke:#181818;stroke-width:0.5;" width="113" x="107.5" y="331"/><ellipse cx="122.5" cy="347" fill="#ADD1B2" rx="11" ry="11" style="stroke:#181818;stroke-width:1.0;"/><path d="M125.2656,342.875 Q125.4219,342.6563 125.6094,342.5469 Q125.7969,342.4375 126.0156,342.4375 Q126.3906,342.4375 126.625,342.7031 Q126.8594,342.9531 126.8594,343.5625 L126.8594,345.0156 Q126.8594,345.625 126.625,345.8906 Q126.3906,346.1563 126.0156,346.1563 Q125.6719,346.1563 125.4688,345.9531 Q125.2656,345.7656 125.1563,345.25 Q125.1094,344.8906 124.9219,344.7031 Q124.5938,344.3281 123.9844,344.1094 Q123.375,343.8906 122.75,343.8906 Q121.9844,343.8906 121.3438,344.2188 Q120.7188,344.5469 120.2188,345.2969 Q119.7344,346.0469 119.7344,347.0781 L119.7344,348.1719 Q119.7344,349.4063 120.625,350.2344 Q121.5156,351.0469 123.1094,351.0469 Q124.0469,351.0469 124.7031,350.7969 Q125.0938,350.6406 125.5156,350.2031 Q125.7813,349.9375 125.9219,349.8594 Q126.0781,349.7813 126.2813,349.7813 Q126.6094,349.7813 126.8594,350.0469 Q127.125,350.2969 127.125,350.6406 Q127.125,350.9844 126.7813,351.3906 Q126.2813,351.9688 125.4844,352.2969 Q124.4063,352.75 123.1094,352.75 Q121.5938,352.75 120.3906,352.125 Q119.4063,351.625 118.7188,350.5625 Q118.0313,349.4844 118.0313,348.2031 L118.0313,347.0469 Q118.0313,345.7188 118.6406,344.5781 Q119.2656,343.4219 120.3594,342.8125 Q121.4531,342.1875 122.6875,342.1875 Q123.4219,342.1875 124.0625,342.3594 Q124.7188,342.5156 125.2656,342.875 Z " fill="#000000"/><text fill="#000000" font-family="sans-serif" font-size="14" lengthAdjust="spacing" textLength="81" x="136.5" y="352.7285">JOptionPane</text><line style="stroke:#181818;stroke-width:0.5;" x1="108.5" x2="219.5" y1="363" y2="363"/><line style="stroke:#181818;stroke-width:0.5;" x1="108.5" x2="219.5" y1="371" y2="371"/></g><!--class JPanel--><g id="elem_JPanel"><rect fill="#F1F1F1" height="48" id="JPanel" rx="2.5" ry="2.5" style="stroke:#181818;stroke-width:0.5;" width="74" x="1537" y="331"/><ellipse cx="1552" cy="347" fill="#ADD1B2" rx="11" ry="11" style="stroke:#181818;stroke-width:1.0;"/><path d="M1554.7656,342.875 Q1554.9219,342.6563 1555.1094,342.5469 Q1555.2969,342.4375 1555.5156,342.4375 Q1555.8906,342.4375 1556.125,342.7031 Q1556.3594,342.9531 1556.3594,343.5625 L1556.3594,345.0156 Q1556.3594,345.625 1556.125,345.8906 Q1555.8906,346.1563 1555.5156,346.1563 Q1555.1719,346.1563 1554.9688,345.9531 Q1554.7656,345.7656 1554.6563,345.25 Q1554.6094,344.8906 1554.4219,344.7031 Q1554.0938,344.3281 1553.4844,344.1094 Q1552.875,343.8906 1552.25,343.8906 Q1551.4844,343.8906 1550.8438,344.2188 Q1550.2188,344.5469 1549.7188,345.2969 Q1549.2344,346.0469 1549.2344,347.0781 L1549.2344,348.1719 Q1549.2344,349.4063 1550.125,350.2344 Q1551.0156,351.0469 1552.6094,351.0469 Q1553.5469,351.0469 1554.2031,350.7969 Q1554.5938,350.6406 1555.0156,350.2031 Q1555.2813,349.9375 1555.4219,349.8594 Q1555.5781,349.7813 1555.7813,349.7813 Q1556.1094,349.7813 1556.3594,350.0469 Q1556.625,350.2969 1556.625,350.6406 Q1556.625,350.9844 1556.2813,351.3906 Q1555.7813,351.9688 1554.9844,352.2969 Q1553.9063,352.75 1552.6094,352.75 Q1551.0938,352.75 1549.8906,352.125 Q1548.9063,351.625 1548.2188,350.5625 Q1547.5313,349.4844 1547.5313,348.2031 L1547.5313,347.0469 Q1547.5313,345.7188 1548.1406,344.5781 Q1548.7656,343.4219 1549.8594,342.8125 Q1550.9531,342.1875 1552.1875,342.1875 Q1552.9219,342.1875 1553.5625,342.3594 Q1554.2188,342.5156 1554.7656,342.875 Z " fill="#000000"/><text fill="#000000" font-family="sans-serif" font-size="14" lengthAdjust="spacing" textLength="42" x="1566" y="352.7285">JPanel</text><line style="stroke:#181818;stroke-width:0.5;" x1="1538" x2="1610" y1="363" y2="363"/><line style="stroke:#181818;stroke-width:0.5;" x1="1538" x2="1610" y1="371" y2="371"/></g><!--class Player--><g id="elem_Player"><rect codeLine="59" fill="#F1F1F1" height="48" id="Player" rx="2.5" ry="2.5" style="stroke:#181818;stroke-width:0.5;" width="72" x="7" y="655"/><ellipse cx="22" cy="671" fill="#ADD1B2" rx="11" ry="11" style="stroke:#181818;stroke-width:1.0;"/><path d="M24.7656,666.875 Q24.9219,666.6563 25.1094,666.5469 Q25.2969,666.4375 25.5156,666.4375 Q25.8906,666.4375 26.125,666.7031 Q26.3594,666.9531 26.3594,667.5625 L26.3594,669.0156 Q26.3594,669.625 26.125,669.8906 Q25.8906,670.1563 25.5156,670.1563 Q25.1719,670.1563 24.9688,669.9531 Q24.7656,669.7656 24.6563,669.25 Q24.6094,668.8906 24.4219,668.7031 Q24.0938,668.3281 23.4844,668.1094 Q22.875,667.8906 22.25,667.8906 Q21.4844,667.8906 20.8438,668.2188 Q20.2188,668.5469 19.7188,669.2969 Q19.2344,670.0469 19.2344,671.0781 L19.2344,672.1719 Q19.2344,673.4063 20.125,674.2344 Q21.0156,675.0469 22.6094,675.0469 Q23.5469,675.0469 24.2031,674.7969 Q24.5938,674.6406 25.0156,674.2031 Q25.2813,673.9375 25.4219,673.8594 Q25.5781,673.7813 25.7813,673.7813 Q26.1094,673.7813 26.3594,674.0469 Q26.625,674.2969 26.625,674.6406 Q26.625,674.9844 26.2813,675.3906 Q25.7813,675.9688 24.9844,676.2969 Q23.9063,676.75 22.6094,676.75 Q21.0938,676.75 19.8906,676.125 Q18.9063,675.625 18.2188,674.5625 Q17.5313,673.4844 17.5313,672.2031 L17.5313,671.0469 Q17.5313,669.7188 18.1406,668.5781 Q18.7656,667.4219 19.8594,666.8125 Q20.9531,666.1875 22.1875,666.1875 Q22.9219,666.1875 23.5625,666.3594 Q24.2188,666.5156 24.7656,666.875 Z " fill="#000000"/><text fill="#000000" font-family="sans-serif" font-size="14" lengthAdjust="spacing" textLength="40" x="36" y="676.7285">Player</text><line style="stroke:#181818;stroke-width:0.5;" x1="8" x2="78" y1="687" y2="687"/><line style="stroke:#181818;stroke-width:0.5;" x1="8" x2="78" y1="695" y2="695"/></g><!--class PlayerType--><g id="elem_PlayerType"><rect codeLine="60" fill="#F1F1F1" height="48" id="PlayerType" rx="2.5" ry="2.5" style="stroke:#181818;stroke-width:0.5;" width="104" x="114" y="655"/><ellipse cx="129" cy="671" fill="#ADD1B2" rx="11" ry="11" style="stroke:#181818;stroke-width:1.0;"/><path d="M131.7656,666.875 Q131.9219,666.6563 132.1094,666.5469 Q132.2969,666.4375 132.5156,666.4375 Q132.8906,666.4375 133.125,666.7031 Q133.3594,666.9531 133.3594,667.5625 L133.3594,669.0156 Q133.3594,669.625 133.125,669.8906 Q132.8906,670.1563 132.5156,670.1563 Q132.1719,670.1563 131.9688,669.9531 Q131.7656,669.7656 131.6563,669.25 Q131.6094,668.8906 131.4219,668.7031 Q131.0938,668.3281 130.4844,668.1094 Q129.875,667.8906 129.25,667.8906 Q128.4844,667.8906 127.8438,668.2188 Q127.2188,668.5469 126.7188,669.2969 Q126.2344,670.0469 126.2344,671.0781 L126.2344,672.1719 Q126.2344,673.4063 127.125,674.2344 Q128.0156,675.0469 129.6094,675.0469 Q130.5469,675.0469 131.2031,674.7969 Q131.5938,674.6406 132.0156,674.2031 Q132.2813,673.9375 132.4219,673.8594 Q132.5781,673.7813 132.7813,673.7813 Q133.1094,673.7813 133.3594,674.0469 Q133.625,674.2969 133.625,674.6406 Q133.625,674.9844 133.2813,675.3906 Q132.7813,675.9688 131.9844,676.2969 Q130.9063,676.75 129.6094,676.75 Q128.0938,676.75 126.8906,676.125 Q125.9063,675.625 125.2188,674.5625 Q124.5313,673.4844 124.5313,672.2031 L124.5313,671.0469 Q124.5313,669.7188 125.1406,668.5781 Q125.7656,667.4219 126.8594,666.8125 Q127.9531,666.1875 129.1875,666.1875 Q129.9219,666.1875 130.5625,666.3594 Q131.2188,666.5156 131.7656,666.875 Z " fill="#000000"/><text fill="#000000" font-family="sans-serif" font-size="14" lengthAdjust="spacing" textLength="72" x="143" y="676.7285">PlayerType</text><line style="stroke:#181818;stroke-width:0.5;" x1="115" x2="217" y1="687" y2="687"/><line style="stroke:#181818;stroke-width:0.5;" x1="115" x2="217" y1="695" y2="695"/></g><!--reverse link JFrame to FrameView--><g id="link_JFrame_FrameView"><path codeLine="26" d="M830,73 C830,90.66 830,96.94 830,114.68 " fill="none" id="JFrame-backto-FrameView" style="stroke:#181818;stroke-width:1.0;"/><polygon fill="none" points="830,55,824,73,836,73,830,55" style="stroke:#181818;stroke-width:1.0;"/></g><!--reverse link FrameView to MainFrame--><g id="link_FrameView_MainFrame"><path codeLine="27" d="M850.8904,178.8557 C860.3804,196.5157 864.92,204.94 874.46,222.68 " fill="none" id="FrameView-backto-MainFrame" style="stroke:#181818;stroke-width:1.0;"/><polygon fill="none" points="842.37,163,845.6052,181.6958,856.1756,176.0155,842.37,163" style="stroke:#181818;stroke-width:1.0;"/></g><!--reverse link GraphicsView to MainFrame--><g id="link_GraphicsView_MainFrame"><path codeLine="28" d="M948.2453,172.2332 C933.5853,189.8932 921.09,204.94 906.36,222.68 " fill="none" id="GraphicsView-backto-MainFrame" style="stroke:#181818;stroke-width:1.0;"/><polygon fill="#181818" points="955.91,163,948.9999,165.0617,948.2453,172.2332,955.1554,170.1715,955.91,163" style="stroke:#181818;stroke-width:1.0;"/></g><!--reverse link View to GraphicsView--><g id="link_View_GraphicsView"><path codeLine="32" d="M975,73 C975,90.66 975,96.94 975,114.68 " fill="none" id="View-backto-GraphicsView" style="stroke:#181818;stroke-width:1.0;"/><polygon fill="none" points="975,55,969,73,981,73,975,55" style="stroke:#181818;stroke-width:1.0;"/></g><!--link MainFrame to JOptionPane--><g id="link_MainFrame_JOptionPane"><path codeLine="35" d="M835.49,251.44 C724.85,259.52 456.73,282.76 237,331 C231.68,332.17 231.9764,331.9632 226.5064,333.4632 " fill="none" id="MainFrame-to-JOptionPane" style="stroke:#181818;stroke-width:1.0;stroke-dasharray:7.0,7.0;"/><polygon fill="#181818" points="220.72,335.05,230.4574,336.5274,225.542,333.7277,228.3417,328.8123,220.72,335.05" style="stroke:#181818;stroke-width:1.0;"/></g><!--reverse link JPanel to PanelView--><g id="link_JPanel_PanelView"><path codeLine="37" d="M1520.0141,380.0116 C1395.8141,419.3516 1244.94,443.89 1168.66,455.23 " fill="none" id="JPanel-backto-PanelView" style="stroke:#181818;stroke-width:1.0;"/><polygon fill="none" points="1536.72,373.31,1517.7802,374.443,1522.2479,385.5803,1536.72,373.31" style="stroke:#181818;stroke-width:1.0;"/></g><!--link GameLoopView to PanelView--><g id="link_GameLoopView_PanelView"><path codeLine="38" d="M972.01,379 C1003.6,396.72 1031.3904,412.3053 1063.0404,430.0553 " fill="none" id="GameLoopView-to-PanelView" style="stroke:#181818;stroke-width:1.0;"/><polygon fill="none" points="1078.74,438.86,1065.9753,424.8221,1060.1055,435.2885,1078.74,438.86" style="stroke:#181818;stroke-width:1.0;"/></g><!--reverse link GameLoopView to StartPanelView--><g id="link_GameLoopView_StartPanelView"><path codeLine="39" d="M931,397 C931,414.66 931,420.94 931,438.68 " fill="none" id="GameLoopView-backto-StartPanelView" style="stroke:#181818;stroke-width:1.0;"/><polygon fill="none" points="931,379,925,397,937,397,931,379" style="stroke:#181818;stroke-width:1.0;"/></g><!--reverse link ResumePanelView to PlayPanelView--><g id="link_ResumePanelView_PlayPanelView"><path codeLine="40" d="M621.3909,496.2871 C591.9709,514.0071 566.9,529.11 537.42,546.86 " fill="none" id="ResumePanelView-backto-PlayPanelView" style="stroke:#181818;stroke-width:1.0;"/><polygon fill="none" points="636.81,487,618.2952,491.1474,624.4866,501.4268,636.81,487" style="stroke:#181818;stroke-width:1.0;"/></g><!--reverse link GameLoopView to ResumePanelView--><g id="link_GameLoopView_ResumePanelView"><path codeLine="41" d="M858.8196,385.8869 C816.0296,403.6069 773.76,421.11 730.88,438.86 " fill="none" id="GameLoopView-backto-ResumePanelView" style="stroke:#181818;stroke-width:1.0;"/><polygon fill="none" points="875.45,379,856.524,380.3434,861.1152,391.4304,875.45,379" style="stroke:#181818;stroke-width:1.0;"/></g><!--reverse link PanelView to BoardView--><g id="link_PanelView_BoardView"><path codeLine="42" d="M1057.2056,494.9599 C1021.2656,512.6799 987.94,529.11 951.93,546.86 " fill="none" id="PanelView-backto-BoardView" style="stroke:#181818;stroke-width:1.0;"/><polygon fill="none" points="1073.35,487,1054.5523,489.5784,1059.8589,500.3413,1073.35,487" style="stroke:#181818;stroke-width:1.0;"/></g><!--reverse link PanelView to TurnView--><g id="link_PanelView_TurnView"><path codeLine="43" d="M1053.9606,479.6777 C997.0206,493.6777 917.78,515.24 838,547 C758.2,578.76 669.98,626.76 620.43,654.99 " fill="none" id="PanelView-backto-TurnView" style="stroke:#181818;stroke-width:1.0;"/><polygon fill="none" points="1071.44,475.38,1052.528,473.8512,1055.3932,485.5042,1071.44,475.38" style="stroke:#181818;stroke-width:1.0;"/></g><!--reverse link Game to MainFrame--><g id="link_Game_MainFrame"><path codeLine="46" d="M1531.2725,159.7214 C1526.0625,161.8414 1526.23,161.51 1521,163 C1310.38,222.86 1047.93,239.75 938.57,244.35 " fill="none" id="Game-backto-MainFrame" style="stroke:#181818;stroke-width:1.0;"/><polygon fill="#181818" points="1536.83,157.46,1526.9861,157.1471,1532.1987,159.3445,1530.0013,164.5571,1536.83,157.46" style="stroke:#181818;stroke-width:1.0;"/></g><!--reverse link Game to PanelView--><g id="link_Game_PanelView"><path codeLine="47" d="M1534.6034,166.6415 C1451.3134,225.9815 1235.82,379.49 1152.52,438.84 " fill="none" id="Game-backto-PanelView" style="stroke:#181818;stroke-width:1.0;"/><polygon fill="#181818" points="1539.49,163.16,1529.839,165.1245,1535.4178,166.0612,1534.481,171.64,1539.49,163.16" style="stroke:#181818;stroke-width:1.0;"/></g><!--reverse link Game to BoardViewPrototypeRegistry--><g id="link_Game_BoardViewPrototypeRegistry"><path codeLine="48" d="M1592.9759,168.1948 C1619.6659,206.0748 1664,279.39 1664,354 C1664,354 1664,354 1664,572 C1664,657.87 1600.97,669.29 1522,703 C1323.58,787.71 767.13,736.61 553,763 C547.13,763.72 541.12,764.55 535.07,765.45 " fill="none" id="Game-backto-BoardViewPrototypeRegistry" style="stroke:#181818;stroke-width:1.0;"/><polygon fill="#181818" points="1589.52,163.29,1591.434,172.9511,1592.3999,167.3773,1597.9737,168.3433,1589.52,163.29" style="stroke:#181818;stroke-width:1.0;"/></g><!--link GraphicsView to GameLoopView--><g id="link_GraphicsView_GameLoopView"><path codeLine="51" d="M972.67,163.38 C969.8,189.73 964.26,233.76 956,271 C951.44,291.57 946.2687,308.7617 940.8187,325.2917 " fill="none" id="GraphicsView-to-GameLoopView" style="stroke:#181818;stroke-width:1.0;stroke-dasharray:7.0,7.0;"/><polygon fill="#181818" points="938.94,330.99,945.557,323.6951,940.5056,326.2414,937.9593,321.1901,938.94,330.99" style="stroke:#181818;stroke-width:1.0;"/></g><!--link MainFrame to GameLoopView--><g id="link_MainFrame_GameLoopView"><path codeLine="52" d="M896.55,271 C903.88,288.66 911.6607,307.398 919.0207,325.138 " fill="none" id="MainFrame-to-GameLoopView" style="stroke:#181818;stroke-width:1.0;"/><polygon fill="#181818" points="921.32,330.68,921.5658,320.8342,919.4039,326.0617,914.1765,323.8999,921.32,330.68" style="stroke:#181818;stroke-width:1.0;"/></g><!--reverse link PlayPanelView to PlayerBoardView--><g id="link_PlayPanelView_PlayerBoardView"><path codeLine="54" d="M560.2545,599.9873 C599.0345,617.7073 641.5,637.11 680.36,654.86 " fill="none" id="PlayPanelView-backto-PlayerBoardView" style="stroke:#181818;stroke-width:1.0;"/><polygon fill="#181818" points="549.34,595,553.1349,601.1318,560.2545,599.9873,556.4597,593.8554,549.34,595" style="stroke:#181818;stroke-width:1.0;"/></g><!--reverse link PlayPanelView to TurnView--><g id="link_PlayPanelView_TurnView"><path codeLine="55" d="M524.132,604.4919 C537.792,622.1519 549.24,636.94 562.96,654.68 " fill="none" id="PlayPanelView-backto-TurnView" style="stroke:#181818;stroke-width:1.0;"/><polygon fill="#181818" points="516.79,595,517.297,602.1933,524.132,604.4919,523.6249,597.2986,516.79,595" style="stroke:#181818;stroke-width:1.0;"/></g><!--reverse link PlayPanelView to BoardViewPrototypeRegistry--><g id="link_PlayPanelView_BoardViewPrototypeRegistry"><path codeLine="56" d="M498.291,607.412 C497.311,634.182 494.08,666.96 481,703 C473.11,724.74 458.93,746.8 447.37,762.72 " fill="none" id="PlayPanelView-backto-BoardViewPrototypeRegistry" style="stroke:#181818;stroke-width:1.0;"/><polygon fill="#181818" points="498.73,595.42,494.5132,601.2696,498.291,607.412,502.5078,601.5623,498.73,595.42" style="stroke:#181818;stroke-width:1.0;"/></g><!--link PlayPanelView to BoardViewPrototypeDirector--><g id="link_PlayPanelView_BoardViewPrototypeDirector"><path codeLine="57" d="M468.41,595 C444.92,612.66 417.4161,633.3348 393.8161,651.0748 " fill="none" id="PlayPanelView-to-BoardViewPrototypeDirector" style="stroke:#181818;stroke-width:1.0;stroke-dasharray:7.0,7.0;"/><polygon fill="#181818" points="389.02,654.68,398.6176,652.4696,393.0167,651.6757,393.8107,646.0748,389.02,654.68" style="stroke:#181818;stroke-width:1.0;"/></g><!--link BoardViewPrototypeDirector to BoardViewPrototypeRegistry--><g id="link_BoardViewPrototypeDirector_BoardViewPrototypeRegistry"><path codeLine="58" d="M373.41,703 C385.23,720.66 398.1614,739.9546 410.0414,757.6946 " fill="none" id="BoardViewPrototypeDirector-to-BoardViewPrototypeRegistry" style="stroke:#181818;stroke-width:1.0;"/><polygon fill="#181818" points="413.38,762.68,411.6957,752.9762,410.5979,758.5255,405.0486,757.4277,413.38,762.68" style="stroke:#181818;stroke-width:1.0;"/></g><!--link PlayPanelView to Player--><g id="link_PlayPanelView_Player"><path codeLine="61" d="M436.89,580.71 C356.86,592.86 214,617.69 96,655 C90.45,656.75 90.2612,656.6376 84.6812,658.8976 " fill="none" id="PlayPanelView-to-Player" style="stroke:#181818;stroke-width:1.0;stroke-dasharray:7.0,7.0;"/><polygon fill="#181818" points="79.12,661.15,88.9634,661.4789,83.7543,659.273,85.9602,654.064,79.12,661.15" style="stroke:#181818;stroke-width:1.0;"/></g><!--link PlayPanelView to PlayerType--><g id="link_PlayPanelView_PlayerType"><path codeLine="62" d="M436.76,591.59 C383.66,608.34 305.27,633.13 237,655 C230.95,656.94 230.3326,657.1454 224.0426,659.1654 " fill="none" id="PlayPanelView-to-PlayerType" style="stroke:#181818;stroke-width:1.0;stroke-dasharray:7.0,7.0;"/><polygon fill="#181818" points="218.33,661,228.122,662.0566,223.0905,659.4712,225.6759,654.4397,218.33,661" style="stroke:#181818;stroke-width:1.0;"/></g><!--reverse link ResumePanelView to PauseBoardView--><g id="link_ResumePanelView_PauseBoardView"><path codeLine="63" d="M708.8356,495.4839 C753.0756,536.6439 835.76,613.58 879.98,654.72 " fill="none" id="ResumePanelView-backto-PauseBoardView" style="stroke:#181818;stroke-width:1.0;"/><polygon fill="#181818" points="700.05,487.31,701.7182,494.3255,708.8356,495.4839,707.1674,488.4684,700.05,487.31" style="stroke:#181818;stroke-width:1.0;"/></g><!--reverse link ResumePanelView to TurnView--><g id="link_ResumePanelView_TurnView"><path codeLine="64" d="M659.9339,498.2968 C641.8539,539.4568 609.3,613.58 591.23,654.72 " fill="none" id="ResumePanelView-backto-TurnView" style="stroke:#181818;stroke-width:1.0;"/><polygon fill="#181818" points="664.76,487.31,658.6847,491.1947,659.9339,498.2968,666.0092,494.4121,664.76,487.31" style="stroke:#181818;stroke-width:1.0;"/></g><!--link PanelView to Command--><g id="link_PanelView_Command"><path codeLine="66" d="M1132.37,487 C1141.86,504.66 1152.0782,523.6556 1161.6182,541.3956 " fill="none" id="PanelView-to-Command" style="stroke:#181818;stroke-width:1.0;"/><polygon fill="#181818" points="1164.46,546.68,1163.7203,536.859,1162.0919,542.2764,1156.6745,540.648,1164.46,546.68" style="stroke:#181818;stroke-width:1.0;"/></g><!--reverse link Command to NextTurnCommand--><g id="link_Command_NextTurnCommand"><path codeLine="68" d="M1209.0493,608.5321 C1224.5393,626.1921 1233.98,636.94 1249.54,654.68 " fill="none" id="Command-backto-NextTurnCommand" style="stroke:#181818;stroke-width:1.0;"/><polygon fill="none" points="1197.18,595,1204.5386,612.4886,1213.5601,604.5757,1197.18,595" style="stroke:#181818;stroke-width:1.0;"/></g><!--reverse link Command to PlayCommand--><g id="link_Command_PlayCommand"><path codeLine="69" d="M1241.8921,597.8613 C1286.8021,615.7513 1337.15,635.82 1384.99,654.88 " fill="none" id="Command-backto-PlayCommand" style="stroke:#181818;stroke-width:1.0;"/><polygon fill="none" points="1225.17,591.2,1239.6716,603.4353,1244.1125,592.2873,1225.17,591.2" style="stroke:#181818;stroke-width:1.0;"/></g><!--reverse link Command to ResumeCommand--><g id="link_Command_ResumeCommand"><path codeLine="70" d="M1144.9507,608.5321 C1129.4607,626.1921 1120.02,636.94 1104.46,654.68 " fill="none" id="Command-backto-ResumeCommand" style="stroke:#181818;stroke-width:1.0;"/><polygon fill="none" points="1156.82,595,1140.4399,604.5757,1149.4614,612.4886,1156.82,595" style="stroke:#181818;stroke-width:1.0;"/></g><!--reverse link BoardView to PlayerBoardView--><g id="link_BoardView_PlayerBoardView"><path codeLine="72" d="M851.8689,604.3664 C822.7889,622.0864 798.12,637.11 768.98,654.86 " fill="none" id="BoardView-backto-PlayerBoardView" style="stroke:#181818;stroke-width:1.0;"/><polygon fill="none" points="867.24,595,848.7468,599.2427,854.9911,609.4901,867.24,595" style="stroke:#181818;stroke-width:1.0;"/></g><!--reverse link PlayerBoardView to MachinePlayerBoardView--><g id="link_PlayerBoardView_MachinePlayerBoardView"><path codeLine="73" d="M802.042,710.0027 C844.002,727.7227 885.17,745.11 927.21,762.86 " fill="none" id="PlayerBoardView-backto-MachinePlayerBoardView" style="stroke:#181818;stroke-width:1.0;"/><polygon fill="none" points="785.46,703,799.7078,715.53,804.3762,704.4754,785.46,703" style="stroke:#181818;stroke-width:1.0;"/></g><!--reverse link PlayerBoardView to UserPlayerBoardView--><g id="link_PlayerBoardView_UserPlayerBoardView"><path codeLine="74" d="M703.7157,717.5665 C690.8957,735.2265 683.83,744.94 670.94,762.68 " fill="none" id="PlayerBoardView-backto-UserPlayerBoardView" style="stroke:#181818;stroke-width:1.0;"/><polygon fill="none" points="714.29,703,698.8602,714.0417,708.5712,721.0913,714.29,703" style="stroke:#181818;stroke-width:1.0;"/></g><!--reverse link BoardView to PauseBoardView--><g id="link_BoardView_PauseBoardView"><path codeLine="75" d="M905,613 C905,630.66 905,636.94 905,654.68 " fill="none" id="BoardView-backto-PauseBoardView" style="stroke:#181818;stroke-width:1.0;"/><polygon fill="none" points="905,595,899,613,911,613,905,595" style="stroke:#181818;stroke-width:1.0;"/></g><!--reverse link MachinePlayerBoardView to NonClickableSquare--><g id="link_MachinePlayerBoardView_NonClickableSquare"><path codeLine="76" d="M982,823 C982,840.66 982,852.94 982,870.68 " fill="none" id="MachinePlayerBoardView-backto-NonClickableSquare" style="stroke:#181818;stroke-width:1.0;"/><polygon fill="none" points="982,811,978,817,982,823,986,817,982,811" style="stroke:#181818;stroke-width:1.0;"/></g><!--reverse link UserPlayerBoardView to ClickableSquare--><g id="link_UserPlayerBoardView_ClickableSquare"><path codeLine="77" d="M676.3643,820.9254 C688.3643,838.5854 698.11,852.94 710.16,870.68 " fill="none" id="UserPlayerBoardView-backto-ClickableSquare" style="stroke:#181818;stroke-width:1.0;"/><polygon fill="none" points="669.62,811,669.6837,818.2108,676.3643,820.9254,676.3006,813.7146,669.62,811" style="stroke:#181818;stroke-width:1.0;"/></g><!--reverse link PauseBoardView to NonClickableSquare--><g id="link_PauseBoardView_NonClickableSquare"><path codeLine="78" d="M986.1072,705.1953 C1034.6472,721.6153 1081.75,741.27 1096,763 C1107.7,780.84 1105.68,791.99 1096,811 C1082.62,837.29 1056.58,857.22 1032.76,870.95 " fill="none" id="PauseBoardView-backto-NonClickableSquare" style="stroke:#181818;stroke-width:1.0;"/><polygon fill="none" points="974.74,701.35,979.1419,707.0617,986.1072,705.1953,981.7054,699.4836,974.74,701.35" style="stroke:#181818;stroke-width:1.0;"/></g><!--reverse link Square to ClickableSquare--><g id="link_Square_ClickableSquare"><path codeLine="79" d="M781.9983,824.9773 C767.6683,842.6373 759.31,852.94 744.92,870.68 " fill="none" id="Square-backto-ClickableSquare" style="stroke:#181818;stroke-width:1.0;"/><polygon fill="none" points="793.34,811,777.3392,821.1967,786.6574,828.7579,793.34,811" style="stroke:#181818;stroke-width:1.0;"/></g><!--reverse link Square to NonClickableSquare--><g id="link_Square_NonClickableSquare"><path codeLine="80" d="M864.1627,820.526 C892.5727,838.246 916.42,853.11 944.89,870.86 " fill="none" id="Square-backto-NonClickableSquare" style="stroke:#181818;stroke-width:1.0;"/><polygon fill="none" points="848.89,811,860.9874,825.6169,867.338,815.4351,848.89,811" style="stroke:#181818;stroke-width:1.0;"/></g><!--SRC=[XLHDRy8m3BtdL-GygVm2jCEOXeGsLW7RFHGFehLDbwRQaFZneqbfi9kqfwP-zlD7NYnB0_fBPC2FMbGdcTMp5oqA-9Jmox9SrBK7teGiBSZaC6fvjRygLTb0iQ-D5fdXXE592Nq8KVT0gfLHvbp1izIG6QMdFJTmbDTqvr1L2rKKeZnGacLt27UPdMG9QIxEeAC5h-7Fx1fTHXAqqIDGAah8GxGRg9i29k08yVQd4HgeTP7Bx5liSmZ3QrLEU6oDq2PQKJk3aFsZ1ZqnmbGqDNWqfXcVEkf1ydI9LawhxiFdboJXNjhzoG5UslVIu0y8ShIjq1cjnN9wEgIlMpdlbP6gRDjXFIUVpHuHmbQsNqVZMxz_NJn9BeynpCQHAoEYwhYH38SSL8aat4-R0BqWc2NbSppTcmcdjgQHbytmjRH3G_l6ppD92CHGe_P6gLw67dqJGsYaIkpS5ZcorkAGxM4aZPEJQmBzxAvUWI8wpnXWewX4x9Zm-mov-ClszhRwsuPYtS59W-vC1DvlJ0JWdUVdviFeNTxztrvtSAK7VKEBY-R4WmcpSzLsFDok0NxhIlrmaXYR-xYonh10A6F_]--></g></svg>