<?xml version="1.0" encoding="us-ascii" standalone="no"?><svg xmlns="http://www.w3.org/2000/svg" xmlns:xlink="http://www.w3.org/1999/xlink" contentStyleType="text/css" height="834px" preserveAspectRatio="none" style="width:1533px;height:834px;background:#FFFFFF;" version="1.1" viewBox="0 0 1533 834" width="1533px" zoomAndPan="magnify"><defs/><g><!--cluster graphics--><g id="cluster_graphics"><path d="M8.5,79 L70.5,79 A3.75,3.75 0 0 1 73,81.5 L80,102.6094 L1329.5,102.6094 A2.5,2.5 0 0 1 1332,105.1094 L1332,824.5 A2.5,2.5 0 0 1 1329.5,827 L8.5,827 A2.5,2.5 0 0 1 6,824.5 L6,81.5 A2.5,2.5 0 0 1 8.5,79 " fill="none" style="stroke:#000000;stroke-width:1.5;"/><line style="stroke:#000000;stroke-width:1.5;" x1="6" x2="80" y1="102.6094" y2="102.6094"/><text fill="#000000" font-family="sans-serif" font-size="14" font-weight="bold" lengthAdjust="spacing" textLength="61" x="10" y="95.5332">graphics</text></g><!--class FrameView--><g id="elem_FrameView"><rect codeLine="1" fill="#F1F1F1" height="48" id="FrameView" rx="2.5" ry="2.5" style="stroke:#181818;stroke-width:0.5;" width="102" x="1213" y="115"/><ellipse cx="1228" cy="131" fill="#B4A7E5" rx="11" ry="11" style="stroke:#181818;stroke-width:1.0;"/><path d="M1228.9531,127.6406 L1228.9531,134.2969 L1230.6719,134.2969 Q1231.2813,134.2969 1231.5469,134.5313 Q1231.8125,134.7656 1231.8125,135.1563 Q1231.8125,135.5313 1231.5469,135.7656 Q1231.2813,136 1230.6719,136 L1225.5313,136 Q1224.9219,136 1224.6563,135.7656 Q1224.3906,135.5313 1224.3906,135.1406 Q1224.3906,134.7656 1224.6563,134.5313 Q1224.9219,134.2969 1225.5313,134.2969 L1227.25,134.2969 L1227.25,127.6406 L1225.5313,127.6406 Q1224.9219,127.6406 1224.6563,127.4063 Q1224.3906,127.1719 1224.3906,126.7813 Q1224.3906,126.4063 1224.6563,126.1719 Q1224.9219,125.9375 1225.5313,125.9375 L1230.6719,125.9375 Q1231.2813,125.9375 1231.5469,126.1719 Q1231.8125,126.4063 1231.8125,126.7813 Q1231.8125,127.1719 1231.5469,127.4063 Q1231.2813,127.6406 1230.6719,127.6406 L1228.9531,127.6406 Z " fill="#000000"/><text fill="#000000" font-family="sans-serif" font-size="14" font-style="italic" lengthAdjust="spacing" textLength="70" x="1242" y="136.7285">FrameView</text><line style="stroke:#181818;stroke-width:0.5;" x1="1214" x2="1314" y1="147" y2="147"/><line style="stroke:#181818;stroke-width:0.5;" x1="1214" x2="1314" y1="155" y2="155"/></g><!--class MainFrame--><g id="elem_MainFrame"><rect codeLine="2" fill="#F1F1F1" height="48" id="MainFrame" rx="2.5" ry="2.5" style="stroke:#181818;stroke-width:0.5;" width="103" x="1212.5" y="223"/><ellipse cx="1227.5" cy="239" fill="#ADD1B2" rx="11" ry="11" style="stroke:#181818;stroke-width:1.0;"/><path d="M1230.2656,234.875 Q1230.4219,234.6563 1230.6094,234.5469 Q1230.7969,234.4375 1231.0156,234.4375 Q1231.3906,234.4375 1231.625,234.7031 Q1231.8594,234.9531 1231.8594,235.5625 L1231.8594,237.0156 Q1231.8594,237.625 1231.625,237.8906 Q1231.3906,238.1563 1231.0156,238.1563 Q1230.6719,238.1563 1230.4688,237.9531 Q1230.2656,237.7656 1230.1563,237.25 Q1230.1094,236.8906 1229.9219,236.7031 Q1229.5938,236.3281 1228.9844,236.1094 Q1228.375,235.8906 1227.75,235.8906 Q1226.9844,235.8906 1226.3438,236.2188 Q1225.7188,236.5469 1225.2188,237.2969 Q1224.7344,238.0469 1224.7344,239.0781 L1224.7344,240.1719 Q1224.7344,241.4063 1225.625,242.2344 Q1226.5156,243.0469 1228.1094,243.0469 Q1229.0469,243.0469 1229.7031,242.7969 Q1230.0938,242.6406 1230.5156,242.2031 Q1230.7813,241.9375 1230.9219,241.8594 Q1231.0781,241.7813 1231.2813,241.7813 Q1231.6094,241.7813 1231.8594,242.0469 Q1232.125,242.2969 1232.125,242.6406 Q1232.125,242.9844 1231.7813,243.3906 Q1231.2813,243.9688 1230.4844,244.2969 Q1229.4063,244.75 1228.1094,244.75 Q1226.5938,244.75 1225.3906,244.125 Q1224.4063,243.625 1223.7188,242.5625 Q1223.0313,241.4844 1223.0313,240.2031 L1223.0313,239.0469 Q1223.0313,237.7188 1223.6406,236.5781 Q1224.2656,235.4219 1225.3594,234.8125 Q1226.4531,234.1875 1227.6875,234.1875 Q1228.4219,234.1875 1229.0625,234.3594 Q1229.7188,234.5156 1230.2656,234.875 Z " fill="#000000"/><text fill="#000000" font-family="sans-serif" font-size="14" lengthAdjust="spacing" textLength="71" x="1241.5" y="244.7285">MainFrame</text><line style="stroke:#181818;stroke-width:0.5;" x1="1213.5" x2="1314.5" y1="255" y2="255"/><line style="stroke:#181818;stroke-width:0.5;" x1="1213.5" x2="1314.5" y1="263" y2="263"/></g><!--class GameLoopView--><g id="elem_GameLoopView"><rect codeLine="3" fill="#F1F1F1" height="48" id="GameLoopView" rx="2.5" ry="2.5" style="stroke:#181818;stroke-width:0.5;" width="131" x="1092.5" y="331"/><ellipse cx="1107.5" cy="347" fill="#B4A7E5" rx="11" ry="11" style="stroke:#181818;stroke-width:1.0;"/><path d="M1108.4531,343.6406 L1108.4531,350.2969 L1110.1719,350.2969 Q1110.7813,350.2969 1111.0469,350.5313 Q1111.3125,350.7656 1111.3125,351.1563 Q1111.3125,351.5313 1111.0469,351.7656 Q1110.7813,352 1110.1719,352 L1105.0313,352 Q1104.4219,352 1104.1563,351.7656 Q1103.8906,351.5313 1103.8906,351.1406 Q1103.8906,350.7656 1104.1563,350.5313 Q1104.4219,350.2969 1105.0313,350.2969 L1106.75,350.2969 L1106.75,343.6406 L1105.0313,343.6406 Q1104.4219,343.6406 1104.1563,343.4063 Q1103.8906,343.1719 1103.8906,342.7813 Q1103.8906,342.4063 1104.1563,342.1719 Q1104.4219,341.9375 1105.0313,341.9375 L1110.1719,341.9375 Q1110.7813,341.9375 1111.0469,342.1719 Q1111.3125,342.4063 1111.3125,342.7813 Q1111.3125,343.1719 1111.0469,343.4063 Q1110.7813,343.6406 1110.1719,343.6406 L1108.4531,343.6406 Z " fill="#000000"/><text fill="#000000" font-family="sans-serif" font-size="14" font-style="italic" lengthAdjust="spacing" textLength="99" x="1121.5" y="352.7285">GameLoopView</text><line style="stroke:#181818;stroke-width:0.5;" x1="1093.5" x2="1222.5" y1="363" y2="363"/><line style="stroke:#181818;stroke-width:0.5;" x1="1093.5" x2="1222.5" y1="371" y2="371"/></g><!--class BoardView--><g id="elem_BoardView"><rect codeLine="4" fill="#F1F1F1" height="48" id="BoardView" rx="2.5" ry="2.5" style="stroke:#181818;stroke-width:0.5;" width="99" x="958.5" y="331"/><ellipse cx="973.5" cy="347" fill="#A9DCDF" rx="11" ry="11" style="stroke:#181818;stroke-width:1.0;"/><path d="M975.6875,348.7656 L971.5469,348.7656 L971.125,349.7969 L971.5469,349.7969 Q972.1563,349.7969 972.4219,350.0313 Q972.6875,350.2656 972.6875,350.6563 Q972.6875,351.0313 972.4219,351.2656 Q972.1563,351.5 971.5469,351.5 L969.25,351.5 Q968.6406,351.5 968.3906,351.2656 Q968.125,351.0313 968.125,350.6406 Q968.125,350.2656 968.4063,350.0313 Q968.6719,349.7813 969.2969,349.7969 L971.9688,343.1406 L970.8594,343.1406 Q970.25,343.1406 969.9844,342.9063 Q969.7188,342.6719 969.7188,342.2813 Q969.7188,341.9063 969.9844,341.6719 Q970.25,341.4375 970.8594,341.4375 L974.5313,341.4375 L977.9219,349.7969 Q978.5156,349.7969 978.7031,349.9375 Q979.0938,350.2031 979.0938,350.6563 Q979.0938,351.0313 978.8281,351.2656 Q978.5781,351.5 977.9688,351.5 L975.6719,351.5 Q975.0625,351.5 974.7969,351.2656 Q974.5313,351.0313 974.5313,350.6406 Q974.5313,350.2656 974.7969,350.0313 Q975.0625,349.7969 975.6719,349.7969 L976.0938,349.7969 L975.6875,348.7656 Z M974.9688,347.0625 L973.6094,343.6875 L972.2344,347.0625 L974.9688,347.0625 Z " fill="#000000"/><text fill="#000000" font-family="sans-serif" font-size="14" font-style="italic" lengthAdjust="spacing" textLength="67" x="987.5" y="352.7285">BoardView</text><line style="stroke:#181818;stroke-width:0.5;" x1="959.5" x2="1056.5" y1="363" y2="363"/><line style="stroke:#181818;stroke-width:0.5;" x1="959.5" x2="1056.5" y1="371" y2="371"/></g><!--class BoardViewPrototypeDirector--><g id="elem_BoardViewPrototypeDirector"><rect codeLine="5" fill="#F1F1F1" height="48" id="BoardViewPrototypeDirector" rx="2.5" ry="2.5" style="stroke:#181818;stroke-width:0.5;" width="210" x="523" y="547"/><ellipse cx="538" cy="563" fill="#ADD1B2" rx="11" ry="11" style="stroke:#181818;stroke-width:1.0;"/><path d="M540.7656,558.875 Q540.9219,558.6563 541.1094,558.5469 Q541.2969,558.4375 541.5156,558.4375 Q541.8906,558.4375 542.125,558.7031 Q542.3594,558.9531 542.3594,559.5625 L542.3594,561.0156 Q542.3594,561.625 542.125,561.8906 Q541.8906,562.1563 541.5156,562.1563 Q541.1719,562.1563 540.9688,561.9531 Q540.7656,561.7656 540.6563,561.25 Q540.6094,560.8906 540.4219,560.7031 Q540.0938,560.3281 539.4844,560.1094 Q538.875,559.8906 538.25,559.8906 Q537.4844,559.8906 536.8438,560.2188 Q536.2188,560.5469 535.7188,561.2969 Q535.2344,562.0469 535.2344,563.0781 L535.2344,564.1719 Q535.2344,565.4063 536.125,566.2344 Q537.0156,567.0469 538.6094,567.0469 Q539.5469,567.0469 540.2031,566.7969 Q540.5938,566.6406 541.0156,566.2031 Q541.2813,565.9375 541.4219,565.8594 Q541.5781,565.7813 541.7813,565.7813 Q542.1094,565.7813 542.3594,566.0469 Q542.625,566.2969 542.625,566.6406 Q542.625,566.9844 542.2813,567.3906 Q541.7813,567.9688 540.9844,568.2969 Q539.9063,568.75 538.6094,568.75 Q537.0938,568.75 535.8906,568.125 Q534.9063,567.625 534.2188,566.5625 Q533.5313,565.4844 533.5313,564.2031 L533.5313,563.0469 Q533.5313,561.7188 534.1406,560.5781 Q534.7656,559.4219 535.8594,558.8125 Q536.9531,558.1875 538.1875,558.1875 Q538.9219,558.1875 539.5625,558.3594 Q540.2188,558.5156 540.7656,558.875 Z " fill="#000000"/><text fill="#000000" font-family="sans-serif" font-size="14" lengthAdjust="spacing" textLength="178" x="552" y="568.7285">BoardViewPrototypeDirector</text><line style="stroke:#181818;stroke-width:0.5;" x1="524" x2="732" y1="579" y2="579"/><line style="stroke:#181818;stroke-width:0.5;" x1="524" x2="732" y1="587" y2="587"/></g><!--class BoardViewPrototypeRegistry--><g id="elem_BoardViewPrototypeRegistry"><rect codeLine="6" fill="#F1F1F1" height="48" id="BoardViewPrototypeRegistry" rx="2.5" ry="2.5" style="stroke:#181818;stroke-width:0.5;" width="212" x="22" y="655"/><ellipse cx="37" cy="671" fill="#ADD1B2" rx="11" ry="11" style="stroke:#181818;stroke-width:1.0;"/><path d="M39.7656,666.875 Q39.9219,666.6563 40.1094,666.5469 Q40.2969,666.4375 40.5156,666.4375 Q40.8906,666.4375 41.125,666.7031 Q41.3594,666.9531 41.3594,667.5625 L41.3594,669.0156 Q41.3594,669.625 41.125,669.8906 Q40.8906,670.1563 40.5156,670.1563 Q40.1719,670.1563 39.9688,669.9531 Q39.7656,669.7656 39.6563,669.25 Q39.6094,668.8906 39.4219,668.7031 Q39.0938,668.3281 38.4844,668.1094 Q37.875,667.8906 37.25,667.8906 Q36.4844,667.8906 35.8438,668.2188 Q35.2188,668.5469 34.7188,669.2969 Q34.2344,670.0469 34.2344,671.0781 L34.2344,672.1719 Q34.2344,673.4063 35.125,674.2344 Q36.0156,675.0469 37.6094,675.0469 Q38.5469,675.0469 39.2031,674.7969 Q39.5938,674.6406 40.0156,674.2031 Q40.2813,673.9375 40.4219,673.8594 Q40.5781,673.7813 40.7813,673.7813 Q41.1094,673.7813 41.3594,674.0469 Q41.625,674.2969 41.625,674.6406 Q41.625,674.9844 41.2813,675.3906 Q40.7813,675.9688 39.9844,676.2969 Q38.9063,676.75 37.6094,676.75 Q36.0938,676.75 34.8906,676.125 Q33.9063,675.625 33.2188,674.5625 Q32.5313,673.4844 32.5313,672.2031 L32.5313,671.0469 Q32.5313,669.7188 33.1406,668.5781 Q33.7656,667.4219 34.8594,666.8125 Q35.9531,666.1875 37.1875,666.1875 Q37.9219,666.1875 38.5625,666.3594 Q39.2188,666.5156 39.7656,666.875 Z " fill="#000000"/><text fill="#000000" font-family="sans-serif" font-size="14" lengthAdjust="spacing" textLength="180" x="51" y="676.7285">BoardViewPrototypeRegistry</text><line style="stroke:#181818;stroke-width:0.5;" x1="23" x2="233" y1="687" y2="687"/><line style="stroke:#181818;stroke-width:0.5;" x1="23" x2="233" y1="695" y2="695"/></g><!--class Command--><g id="elem_Command"><rect codeLine="7" fill="#F1F1F1" height="48" id="Command" rx="2.5" ry="2.5" style="stroke:#181818;stroke-width:0.5;" width="96" x="1044" y="439"/><ellipse cx="1059" cy="455" fill="#B4A7E5" rx="11" ry="11" style="stroke:#181818;stroke-width:1.0;"/><path d="M1059.9531,451.6406 L1059.9531,458.2969 L1061.6719,458.2969 Q1062.2813,458.2969 1062.5469,458.5313 Q1062.8125,458.7656 1062.8125,459.1563 Q1062.8125,459.5313 1062.5469,459.7656 Q1062.2813,460 1061.6719,460 L1056.5313,460 Q1055.9219,460 1055.6563,459.7656 Q1055.3906,459.5313 1055.3906,459.1406 Q1055.3906,458.7656 1055.6563,458.5313 Q1055.9219,458.2969 1056.5313,458.2969 L1058.25,458.2969 L1058.25,451.6406 L1056.5313,451.6406 Q1055.9219,451.6406 1055.6563,451.4063 Q1055.3906,451.1719 1055.3906,450.7813 Q1055.3906,450.4063 1055.6563,450.1719 Q1055.9219,449.9375 1056.5313,449.9375 L1061.6719,449.9375 Q1062.2813,449.9375 1062.5469,450.1719 Q1062.8125,450.4063 1062.8125,450.7813 Q1062.8125,451.1719 1062.5469,451.4063 Q1062.2813,451.6406 1061.6719,451.6406 L1059.9531,451.6406 Z " fill="#000000"/><text fill="#000000" font-family="sans-serif" font-size="14" font-style="italic" lengthAdjust="spacing" textLength="64" x="1073" y="460.7285">Command</text><line style="stroke:#181818;stroke-width:0.5;" x1="1045" x2="1139" y1="471" y2="471"/><line style="stroke:#181818;stroke-width:0.5;" x1="1045" x2="1139" y1="479" y2="479"/></g><!--class PanelViewCommand--><g id="elem_PanelViewCommand"><rect codeLine="8" fill="#F1F1F1" height="48" id="PanelViewCommand" rx="2.5" ry="2.5" style="stroke:#181818;stroke-width:0.5;" width="161" x="1154.5" y="655"/><ellipse cx="1169.5" cy="671" fill="#A9DCDF" rx="11" ry="11" style="stroke:#181818;stroke-width:1.0;"/><path d="M1171.6875,672.7656 L1167.5469,672.7656 L1167.125,673.7969 L1167.5469,673.7969 Q1168.1563,673.7969 1168.4219,674.0313 Q1168.6875,674.2656 1168.6875,674.6563 Q1168.6875,675.0313 1168.4219,675.2656 Q1168.1563,675.5 1167.5469,675.5 L1165.25,675.5 Q1164.6406,675.5 1164.3906,675.2656 Q1164.125,675.0313 1164.125,674.6406 Q1164.125,674.2656 1164.4063,674.0313 Q1164.6719,673.7813 1165.2969,673.7969 L1167.9688,667.1406 L1166.8594,667.1406 Q1166.25,667.1406 1165.9844,666.9063 Q1165.7188,666.6719 1165.7188,666.2813 Q1165.7188,665.9063 1165.9844,665.6719 Q1166.25,665.4375 1166.8594,665.4375 L1170.5313,665.4375 L1173.9219,673.7969 Q1174.5156,673.7969 1174.7031,673.9375 Q1175.0938,674.2031 1175.0938,674.6563 Q1175.0938,675.0313 1174.8281,675.2656 Q1174.5781,675.5 1173.9688,675.5 L1171.6719,675.5 Q1171.0625,675.5 1170.7969,675.2656 Q1170.5313,675.0313 1170.5313,674.6406 Q1170.5313,674.2656 1170.7969,674.0313 Q1171.0625,673.7969 1171.6719,673.7969 L1172.0938,673.7969 L1171.6875,672.7656 Z M1170.9688,671.0625 L1169.6094,667.6875 L1168.2344,671.0625 L1170.9688,671.0625 Z " fill="#000000"/><text fill="#000000" font-family="sans-serif" font-size="14" font-style="italic" lengthAdjust="spacing" textLength="129" x="1183.5" y="676.7285">PanelViewCommand</text><line style="stroke:#181818;stroke-width:0.5;" x1="1155.5" x2="1314.5" y1="687" y2="687"/><line style="stroke:#181818;stroke-width:0.5;" x1="1155.5" x2="1314.5" y1="695" y2="695"/></g><!--class ViewCommand--><g id="elem_ViewCommand"><rect codeLine="9" fill="#F1F1F1" height="48" id="ViewCommand" rx="2.5" ry="2.5" style="stroke:#181818;stroke-width:0.5;" width="125" x="805.5" y="547"/><ellipse cx="820.5" cy="563" fill="#A9DCDF" rx="11" ry="11" style="stroke:#181818;stroke-width:1.0;"/><path d="M822.6875,564.7656 L818.5469,564.7656 L818.125,565.7969 L818.5469,565.7969 Q819.1563,565.7969 819.4219,566.0313 Q819.6875,566.2656 819.6875,566.6563 Q819.6875,567.0313 819.4219,567.2656 Q819.1563,567.5 818.5469,567.5 L816.25,567.5 Q815.6406,567.5 815.3906,567.2656 Q815.125,567.0313 815.125,566.6406 Q815.125,566.2656 815.4063,566.0313 Q815.6719,565.7813 816.2969,565.7969 L818.9688,559.1406 L817.8594,559.1406 Q817.25,559.1406 816.9844,558.9063 Q816.7188,558.6719 816.7188,558.2813 Q816.7188,557.9063 816.9844,557.6719 Q817.25,557.4375 817.8594,557.4375 L821.5313,557.4375 L824.9219,565.7969 Q825.5156,565.7969 825.7031,565.9375 Q826.0938,566.2031 826.0938,566.6563 Q826.0938,567.0313 825.8281,567.2656 Q825.5781,567.5 824.9688,567.5 L822.6719,567.5 Q822.0625,567.5 821.7969,567.2656 Q821.5313,567.0313 821.5313,566.6406 Q821.5313,566.2656 821.7969,566.0313 Q822.0625,565.7969 822.6719,565.7969 L823.0938,565.7969 L822.6875,564.7656 Z M821.9688,563.0625 L820.6094,559.6875 L819.2344,563.0625 L821.9688,563.0625 Z " fill="#000000"/><text fill="#000000" font-family="sans-serif" font-size="14" font-style="italic" lengthAdjust="spacing" textLength="93" x="834.5" y="568.7285">ViewCommand</text><line style="stroke:#181818;stroke-width:0.5;" x1="806.5" x2="929.5" y1="579" y2="579"/><line style="stroke:#181818;stroke-width:0.5;" x1="806.5" x2="929.5" y1="587" y2="587"/></g><!--class GraphicsView--><g id="elem_GraphicsView"><rect codeLine="10" fill="#F1F1F1" height="48" id="GraphicsView" rx="2.5" ry="2.5" style="stroke:#181818;stroke-width:0.5;" width="118" x="1060" y="115"/><ellipse cx="1075" cy="131" fill="#ADD1B2" rx="11" ry="11" style="stroke:#181818;stroke-width:1.0;"/><path d="M1077.7656,126.875 Q1077.9219,126.6563 1078.1094,126.5469 Q1078.2969,126.4375 1078.5156,126.4375 Q1078.8906,126.4375 1079.125,126.7031 Q1079.3594,126.9531 1079.3594,127.5625 L1079.3594,129.0156 Q1079.3594,129.625 1079.125,129.8906 Q1078.8906,130.1563 1078.5156,130.1563 Q1078.1719,130.1563 1077.9688,129.9531 Q1077.7656,129.7656 1077.6563,129.25 Q1077.6094,128.8906 1077.4219,128.7031 Q1077.0938,128.3281 1076.4844,128.1094 Q1075.875,127.8906 1075.25,127.8906 Q1074.4844,127.8906 1073.8438,128.2188 Q1073.2188,128.5469 1072.7188,129.2969 Q1072.2344,130.0469 1072.2344,131.0781 L1072.2344,132.1719 Q1072.2344,133.4063 1073.125,134.2344 Q1074.0156,135.0469 1075.6094,135.0469 Q1076.5469,135.0469 1077.2031,134.7969 Q1077.5938,134.6406 1078.0156,134.2031 Q1078.2813,133.9375 1078.4219,133.8594 Q1078.5781,133.7813 1078.7813,133.7813 Q1079.1094,133.7813 1079.3594,134.0469 Q1079.625,134.2969 1079.625,134.6406 Q1079.625,134.9844 1079.2813,135.3906 Q1078.7813,135.9688 1077.9844,136.2969 Q1076.9063,136.75 1075.6094,136.75 Q1074.0938,136.75 1072.8906,136.125 Q1071.9063,135.625 1071.2188,134.5625 Q1070.5313,133.4844 1070.5313,132.2031 L1070.5313,131.0469 Q1070.5313,129.7188 1071.1406,128.5781 Q1071.7656,127.4219 1072.8594,126.8125 Q1073.9531,126.1875 1075.1875,126.1875 Q1075.9219,126.1875 1076.5625,126.3594 Q1077.2188,126.5156 1077.7656,126.875 Z " fill="#000000"/><text fill="#000000" font-family="sans-serif" font-size="14" lengthAdjust="spacing" textLength="86" x="1089" y="136.7285">GraphicsView</text><line style="stroke:#181818;stroke-width:0.5;" x1="1061" x2="1177" y1="147" y2="147"/><line style="stroke:#181818;stroke-width:0.5;" x1="1061" x2="1177" y1="155" y2="155"/></g><!--class MachinePlayerBoardView--><g id="elem_MachinePlayerBoardView"><rect codeLine="11" fill="#F1F1F1" height="48" id="MachinePlayerBoardView" rx="2.5" ry="2.5" style="stroke:#181818;stroke-width:0.5;" width="192" x="611" y="655"/><ellipse cx="626" cy="671" fill="#ADD1B2" rx="11" ry="11" style="stroke:#181818;stroke-width:1.0;"/><path d="M628.7656,666.875 Q628.9219,666.6563 629.1094,666.5469 Q629.2969,666.4375 629.5156,666.4375 Q629.8906,666.4375 630.125,666.7031 Q630.3594,666.9531 630.3594,667.5625 L630.3594,669.0156 Q630.3594,669.625 630.125,669.8906 Q629.8906,670.1563 629.5156,670.1563 Q629.1719,670.1563 628.9688,669.9531 Q628.7656,669.7656 628.6563,669.25 Q628.6094,668.8906 628.4219,668.7031 Q628.0938,668.3281 627.4844,668.1094 Q626.875,667.8906 626.25,667.8906 Q625.4844,667.8906 624.8438,668.2188 Q624.2188,668.5469 623.7188,669.2969 Q623.2344,670.0469 623.2344,671.0781 L623.2344,672.1719 Q623.2344,673.4063 624.125,674.2344 Q625.0156,675.0469 626.6094,675.0469 Q627.5469,675.0469 628.2031,674.7969 Q628.5938,674.6406 629.0156,674.2031 Q629.2813,673.9375 629.4219,673.8594 Q629.5781,673.7813 629.7813,673.7813 Q630.1094,673.7813 630.3594,674.0469 Q630.625,674.2969 630.625,674.6406 Q630.625,674.9844 630.2813,675.3906 Q629.7813,675.9688 628.9844,676.2969 Q627.9063,676.75 626.6094,676.75 Q625.0938,676.75 623.8906,676.125 Q622.9063,675.625 622.2188,674.5625 Q621.5313,673.4844 621.5313,672.2031 L621.5313,671.0469 Q621.5313,669.7188 622.1406,668.5781 Q622.7656,667.4219 623.8594,666.8125 Q624.9531,666.1875 626.1875,666.1875 Q626.9219,666.1875 627.5625,666.3594 Q628.2188,666.5156 628.7656,666.875 Z " fill="#000000"/><text fill="#000000" font-family="sans-serif" font-size="14" lengthAdjust="spacing" textLength="160" x="640" y="676.7285">MachinePlayerBoardView</text><line style="stroke:#181818;stroke-width:0.5;" x1="612" x2="802" y1="687" y2="687"/><line style="stroke:#181818;stroke-width:0.5;" x1="612" x2="802" y1="695" y2="695"/></g><!--class NextTurnCommand--><g id="elem_NextTurnCommand"><rect codeLine="12" fill="#F1F1F1" height="48" id="NextTurnCommand" rx="2.5" ry="2.5" style="stroke:#181818;stroke-width:0.5;" width="153" x="1158.5" y="763"/><ellipse cx="1173.5" cy="779" fill="#ADD1B2" rx="11" ry="11" style="stroke:#181818;stroke-width:1.0;"/><path d="M1176.2656,774.875 Q1176.4219,774.6563 1176.6094,774.5469 Q1176.7969,774.4375 1177.0156,774.4375 Q1177.3906,774.4375 1177.625,774.7031 Q1177.8594,774.9531 1177.8594,775.5625 L1177.8594,777.0156 Q1177.8594,777.625 1177.625,777.8906 Q1177.3906,778.1563 1177.0156,778.1563 Q1176.6719,778.1563 1176.4688,777.9531 Q1176.2656,777.7656 1176.1563,777.25 Q1176.1094,776.8906 1175.9219,776.7031 Q1175.5938,776.3281 1174.9844,776.1094 Q1174.375,775.8906 1173.75,775.8906 Q1172.9844,775.8906 1172.3438,776.2188 Q1171.7188,776.5469 1171.2188,777.2969 Q1170.7344,778.0469 1170.7344,779.0781 L1170.7344,780.1719 Q1170.7344,781.4063 1171.625,782.2344 Q1172.5156,783.0469 1174.1094,783.0469 Q1175.0469,783.0469 1175.7031,782.7969 Q1176.0938,782.6406 1176.5156,782.2031 Q1176.7813,781.9375 1176.9219,781.8594 Q1177.0781,781.7813 1177.2813,781.7813 Q1177.6094,781.7813 1177.8594,782.0469 Q1178.125,782.2969 1178.125,782.6406 Q1178.125,782.9844 1177.7813,783.3906 Q1177.2813,783.9688 1176.4844,784.2969 Q1175.4063,784.75 1174.1094,784.75 Q1172.5938,784.75 1171.3906,784.125 Q1170.4063,783.625 1169.7188,782.5625 Q1169.0313,781.4844 1169.0313,780.2031 L1169.0313,779.0469 Q1169.0313,777.7188 1169.6406,776.5781 Q1170.2656,775.4219 1171.3594,774.8125 Q1172.4531,774.1875 1173.6875,774.1875 Q1174.4219,774.1875 1175.0625,774.3594 Q1175.7188,774.5156 1176.2656,774.875 Z " fill="#000000"/><text fill="#000000" font-family="sans-serif" font-size="14" lengthAdjust="spacing" textLength="121" x="1187.5" y="784.7285">NextTurnCommand</text><line style="stroke:#181818;stroke-width:0.5;" x1="1159.5" x2="1310.5" y1="795" y2="795"/><line style="stroke:#181818;stroke-width:0.5;" x1="1159.5" x2="1310.5" y1="803" y2="803"/></g><!--class PlayCommand--><g id="elem_PlayCommand"><rect codeLine="13" fill="#F1F1F1" height="48" id="PlayCommand" rx="2.5" ry="2.5" style="stroke:#181818;stroke-width:0.5;" width="123" x="269.5" y="655"/><ellipse cx="284.5" cy="671" fill="#ADD1B2" rx="11" ry="11" style="stroke:#181818;stroke-width:1.0;"/><path d="M287.2656,666.875 Q287.4219,666.6563 287.6094,666.5469 Q287.7969,666.4375 288.0156,666.4375 Q288.3906,666.4375 288.625,666.7031 Q288.8594,666.9531 288.8594,667.5625 L288.8594,669.0156 Q288.8594,669.625 288.625,669.8906 Q288.3906,670.1563 288.0156,670.1563 Q287.6719,670.1563 287.4688,669.9531 Q287.2656,669.7656 287.1563,669.25 Q287.1094,668.8906 286.9219,668.7031 Q286.5938,668.3281 285.9844,668.1094 Q285.375,667.8906 284.75,667.8906 Q283.9844,667.8906 283.3438,668.2188 Q282.7188,668.5469 282.2188,669.2969 Q281.7344,670.0469 281.7344,671.0781 L281.7344,672.1719 Q281.7344,673.4063 282.625,674.2344 Q283.5156,675.0469 285.1094,675.0469 Q286.0469,675.0469 286.7031,674.7969 Q287.0938,674.6406 287.5156,674.2031 Q287.7813,673.9375 287.9219,673.8594 Q288.0781,673.7813 288.2813,673.7813 Q288.6094,673.7813 288.8594,674.0469 Q289.125,674.2969 289.125,674.6406 Q289.125,674.9844 288.7813,675.3906 Q288.2813,675.9688 287.4844,676.2969 Q286.4063,676.75 285.1094,676.75 Q283.5938,676.75 282.3906,676.125 Q281.4063,675.625 280.7188,674.5625 Q280.0313,673.4844 280.0313,672.2031 L280.0313,671.0469 Q280.0313,669.7188 280.6406,668.5781 Q281.2656,667.4219 282.3594,666.8125 Q283.4531,666.1875 284.6875,666.1875 Q285.4219,666.1875 286.0625,666.3594 Q286.7188,666.5156 287.2656,666.875 Z " fill="#000000"/><text fill="#000000" font-family="sans-serif" font-size="14" lengthAdjust="spacing" textLength="91" x="298.5" y="676.7285">PlayCommand</text><line style="stroke:#181818;stroke-width:0.5;" x1="270.5" x2="391.5" y1="687" y2="687"/><line style="stroke:#181818;stroke-width:0.5;" x1="270.5" x2="391.5" y1="695" y2="695"/></g><!--class PlayPanelView--><g id="elem_PlayPanelView"><rect codeLine="14" fill="#F1F1F1" height="48" id="PlayPanelView" rx="2.5" ry="2.5" style="stroke:#181818;stroke-width:0.5;" width="124" x="806" y="439"/><ellipse cx="821" cy="455" fill="#ADD1B2" rx="11" ry="11" style="stroke:#181818;stroke-width:1.0;"/><path d="M823.7656,450.875 Q823.9219,450.6563 824.1094,450.5469 Q824.2969,450.4375 824.5156,450.4375 Q824.8906,450.4375 825.125,450.7031 Q825.3594,450.9531 825.3594,451.5625 L825.3594,453.0156 Q825.3594,453.625 825.125,453.8906 Q824.8906,454.1563 824.5156,454.1563 Q824.1719,454.1563 823.9688,453.9531 Q823.7656,453.7656 823.6563,453.25 Q823.6094,452.8906 823.4219,452.7031 Q823.0938,452.3281 822.4844,452.1094 Q821.875,451.8906 821.25,451.8906 Q820.4844,451.8906 819.8438,452.2188 Q819.2188,452.5469 818.7188,453.2969 Q818.2344,454.0469 818.2344,455.0781 L818.2344,456.1719 Q818.2344,457.4063 819.125,458.2344 Q820.0156,459.0469 821.6094,459.0469 Q822.5469,459.0469 823.2031,458.7969 Q823.5938,458.6406 824.0156,458.2031 Q824.2813,457.9375 824.4219,457.8594 Q824.5781,457.7813 824.7813,457.7813 Q825.1094,457.7813 825.3594,458.0469 Q825.625,458.2969 825.625,458.6406 Q825.625,458.9844 825.2813,459.3906 Q824.7813,459.9688 823.9844,460.2969 Q822.9063,460.75 821.6094,460.75 Q820.0938,460.75 818.8906,460.125 Q817.9063,459.625 817.2188,458.5625 Q816.5313,457.4844 816.5313,456.2031 L816.5313,455.0469 Q816.5313,453.7188 817.1406,452.5781 Q817.7656,451.4219 818.8594,450.8125 Q819.9531,450.1875 821.1875,450.1875 Q821.9219,450.1875 822.5625,450.3594 Q823.2188,450.5156 823.7656,450.875 Z " fill="#000000"/><text fill="#000000" font-family="sans-serif" font-size="14" lengthAdjust="spacing" textLength="92" x="835" y="460.7285">PlayPanelView</text><line style="stroke:#181818;stroke-width:0.5;" x1="807" x2="929" y1="471" y2="471"/><line style="stroke:#181818;stroke-width:0.5;" x1="807" x2="929" y1="479" y2="479"/></g><!--class ResumeCommand--><g id="elem_ResumeCommand"><rect codeLine="15" fill="#F1F1F1" height="48" id="ResumeCommand" rx="2.5" ry="2.5" style="stroke:#181818;stroke-width:0.5;" width="148" x="428" y="655"/><ellipse cx="443" cy="671" fill="#ADD1B2" rx="11" ry="11" style="stroke:#181818;stroke-width:1.0;"/><path d="M445.7656,666.875 Q445.9219,666.6563 446.1094,666.5469 Q446.2969,666.4375 446.5156,666.4375 Q446.8906,666.4375 447.125,666.7031 Q447.3594,666.9531 447.3594,667.5625 L447.3594,669.0156 Q447.3594,669.625 447.125,669.8906 Q446.8906,670.1563 446.5156,670.1563 Q446.1719,670.1563 445.9688,669.9531 Q445.7656,669.7656 445.6563,669.25 Q445.6094,668.8906 445.4219,668.7031 Q445.0938,668.3281 444.4844,668.1094 Q443.875,667.8906 443.25,667.8906 Q442.4844,667.8906 441.8438,668.2188 Q441.2188,668.5469 440.7188,669.2969 Q440.2344,670.0469 440.2344,671.0781 L440.2344,672.1719 Q440.2344,673.4063 441.125,674.2344 Q442.0156,675.0469 443.6094,675.0469 Q444.5469,675.0469 445.2031,674.7969 Q445.5938,674.6406 446.0156,674.2031 Q446.2813,673.9375 446.4219,673.8594 Q446.5781,673.7813 446.7813,673.7813 Q447.1094,673.7813 447.3594,674.0469 Q447.625,674.2969 447.625,674.6406 Q447.625,674.9844 447.2813,675.3906 Q446.7813,675.9688 445.9844,676.2969 Q444.9063,676.75 443.6094,676.75 Q442.0938,676.75 440.8906,676.125 Q439.9063,675.625 439.2188,674.5625 Q438.5313,673.4844 438.5313,672.2031 L438.5313,671.0469 Q438.5313,669.7188 439.1406,668.5781 Q439.7656,667.4219 440.8594,666.8125 Q441.9531,666.1875 443.1875,666.1875 Q443.9219,666.1875 444.5625,666.3594 Q445.2188,666.5156 445.7656,666.875 Z " fill="#000000"/><text fill="#000000" font-family="sans-serif" font-size="14" lengthAdjust="spacing" textLength="116" x="457" y="676.7285">ResumeCommand</text><line style="stroke:#181818;stroke-width:0.5;" x1="429" x2="575" y1="687" y2="687"/><line style="stroke:#181818;stroke-width:0.5;" x1="429" x2="575" y1="695" y2="695"/></g><!--class Square--><g id="elem_Square"><rect codeLine="16" fill="#F1F1F1" height="48" id="Square" rx="2.5" ry="2.5" style="stroke:#181818;stroke-width:0.5;" width="78" x="838" y="655"/><ellipse cx="853" cy="671" fill="#ADD1B2" rx="11" ry="11" style="stroke:#181818;stroke-width:1.0;"/><path d="M855.7656,666.875 Q855.9219,666.6563 856.1094,666.5469 Q856.2969,666.4375 856.5156,666.4375 Q856.8906,666.4375 857.125,666.7031 Q857.3594,666.9531 857.3594,667.5625 L857.3594,669.0156 Q857.3594,669.625 857.125,669.8906 Q856.8906,670.1563 856.5156,670.1563 Q856.1719,670.1563 855.9688,669.9531 Q855.7656,669.7656 855.6563,669.25 Q855.6094,668.8906 855.4219,668.7031 Q855.0938,668.3281 854.4844,668.1094 Q853.875,667.8906 853.25,667.8906 Q852.4844,667.8906 851.8438,668.2188 Q851.2188,668.5469 850.7188,669.2969 Q850.2344,670.0469 850.2344,671.0781 L850.2344,672.1719 Q850.2344,673.4063 851.125,674.2344 Q852.0156,675.0469 853.6094,675.0469 Q854.5469,675.0469 855.2031,674.7969 Q855.5938,674.6406 856.0156,674.2031 Q856.2813,673.9375 856.4219,673.8594 Q856.5781,673.7813 856.7813,673.7813 Q857.1094,673.7813 857.3594,674.0469 Q857.625,674.2969 857.625,674.6406 Q857.625,674.9844 857.2813,675.3906 Q856.7813,675.9688 855.9844,676.2969 Q854.9063,676.75 853.6094,676.75 Q852.0938,676.75 850.8906,676.125 Q849.9063,675.625 849.2188,674.5625 Q848.5313,673.4844 848.5313,672.2031 L848.5313,671.0469 Q848.5313,669.7188 849.1406,668.5781 Q849.7656,667.4219 850.8594,666.8125 Q851.9531,666.1875 853.1875,666.1875 Q853.9219,666.1875 854.5625,666.3594 Q855.2188,666.5156 855.7656,666.875 Z " fill="#000000"/><text fill="#000000" font-family="sans-serif" font-size="14" lengthAdjust="spacing" textLength="46" x="867" y="676.7285">Square</text><line style="stroke:#181818;stroke-width:0.5;" x1="839" x2="915" y1="687" y2="687"/><line style="stroke:#181818;stroke-width:0.5;" x1="839" x2="915" y1="695" y2="695"/></g><!--class ClickableSquare--><g id="elem_ClickableSquare"><rect codeLine="17" fill="#F1F1F1" height="48" id="ClickableSquare" rx="2.5" ry="2.5" style="stroke:#181818;stroke-width:0.5;" width="135" x="895.5" y="763"/><ellipse cx="910.5" cy="779" fill="#ADD1B2" rx="11" ry="11" style="stroke:#181818;stroke-width:1.0;"/><path d="M913.2656,774.875 Q913.4219,774.6563 913.6094,774.5469 Q913.7969,774.4375 914.0156,774.4375 Q914.3906,774.4375 914.625,774.7031 Q914.8594,774.9531 914.8594,775.5625 L914.8594,777.0156 Q914.8594,777.625 914.625,777.8906 Q914.3906,778.1563 914.0156,778.1563 Q913.6719,778.1563 913.4688,777.9531 Q913.2656,777.7656 913.1563,777.25 Q913.1094,776.8906 912.9219,776.7031 Q912.5938,776.3281 911.9844,776.1094 Q911.375,775.8906 910.75,775.8906 Q909.9844,775.8906 909.3438,776.2188 Q908.7188,776.5469 908.2188,777.2969 Q907.7344,778.0469 907.7344,779.0781 L907.7344,780.1719 Q907.7344,781.4063 908.625,782.2344 Q909.5156,783.0469 911.1094,783.0469 Q912.0469,783.0469 912.7031,782.7969 Q913.0938,782.6406 913.5156,782.2031 Q913.7813,781.9375 913.9219,781.8594 Q914.0781,781.7813 914.2813,781.7813 Q914.6094,781.7813 914.8594,782.0469 Q915.125,782.2969 915.125,782.6406 Q915.125,782.9844 914.7813,783.3906 Q914.2813,783.9688 913.4844,784.2969 Q912.4063,784.75 911.1094,784.75 Q909.5938,784.75 908.3906,784.125 Q907.4063,783.625 906.7188,782.5625 Q906.0313,781.4844 906.0313,780.2031 L906.0313,779.0469 Q906.0313,777.7188 906.6406,776.5781 Q907.2656,775.4219 908.3594,774.8125 Q909.4531,774.1875 910.6875,774.1875 Q911.4219,774.1875 912.0625,774.3594 Q912.7188,774.5156 913.2656,774.875 Z " fill="#000000"/><text fill="#000000" font-family="sans-serif" font-size="14" lengthAdjust="spacing" textLength="103" x="924.5" y="784.7285">ClickableSquare</text><line style="stroke:#181818;stroke-width:0.5;" x1="896.5" x2="1029.5" y1="795" y2="795"/><line style="stroke:#181818;stroke-width:0.5;" x1="896.5" x2="1029.5" y1="803" y2="803"/></g><!--class NonClickableSquare--><g id="elem_NonClickableSquare"><rect codeLine="18" fill="#F1F1F1" height="48" id="NonClickableSquare" rx="2.5" ry="2.5" style="stroke:#181818;stroke-width:0.5;" width="160" x="663" y="763"/><ellipse cx="678" cy="779" fill="#ADD1B2" rx="11" ry="11" style="stroke:#181818;stroke-width:1.0;"/><path d="M680.7656,774.875 Q680.9219,774.6563 681.1094,774.5469 Q681.2969,774.4375 681.5156,774.4375 Q681.8906,774.4375 682.125,774.7031 Q682.3594,774.9531 682.3594,775.5625 L682.3594,777.0156 Q682.3594,777.625 682.125,777.8906 Q681.8906,778.1563 681.5156,778.1563 Q681.1719,778.1563 680.9688,777.9531 Q680.7656,777.7656 680.6563,777.25 Q680.6094,776.8906 680.4219,776.7031 Q680.0938,776.3281 679.4844,776.1094 Q678.875,775.8906 678.25,775.8906 Q677.4844,775.8906 676.8438,776.2188 Q676.2188,776.5469 675.7188,777.2969 Q675.2344,778.0469 675.2344,779.0781 L675.2344,780.1719 Q675.2344,781.4063 676.125,782.2344 Q677.0156,783.0469 678.6094,783.0469 Q679.5469,783.0469 680.2031,782.7969 Q680.5938,782.6406 681.0156,782.2031 Q681.2813,781.9375 681.4219,781.8594 Q681.5781,781.7813 681.7813,781.7813 Q682.1094,781.7813 682.3594,782.0469 Q682.625,782.2969 682.625,782.6406 Q682.625,782.9844 682.2813,783.3906 Q681.7813,783.9688 680.9844,784.2969 Q679.9063,784.75 678.6094,784.75 Q677.0938,784.75 675.8906,784.125 Q674.9063,783.625 674.2188,782.5625 Q673.5313,781.4844 673.5313,780.2031 L673.5313,779.0469 Q673.5313,777.7188 674.1406,776.5781 Q674.7656,775.4219 675.8594,774.8125 Q676.9531,774.1875 678.1875,774.1875 Q678.9219,774.1875 679.5625,774.3594 Q680.2188,774.5156 680.7656,774.875 Z " fill="#000000"/><text fill="#000000" font-family="sans-serif" font-size="14" lengthAdjust="spacing" textLength="128" x="692" y="784.7285">NonClickableSquare</text><line style="stroke:#181818;stroke-width:0.5;" x1="664" x2="822" y1="795" y2="795"/><line style="stroke:#181818;stroke-width:0.5;" x1="664" x2="822" y1="803" y2="803"/></g><!--class StartPanelView--><g id="elem_StartPanelView"><rect codeLine="19" fill="#F1F1F1" height="48" id="StartPanelView" rx="2.5" ry="2.5" style="stroke:#181818;stroke-width:0.5;" width="127" x="1175.5" y="439"/><ellipse cx="1190.5" cy="455" fill="#ADD1B2" rx="11" ry="11" style="stroke:#181818;stroke-width:1.0;"/><path d="M1193.2656,450.875 Q1193.4219,450.6563 1193.6094,450.5469 Q1193.7969,450.4375 1194.0156,450.4375 Q1194.3906,450.4375 1194.625,450.7031 Q1194.8594,450.9531 1194.8594,451.5625 L1194.8594,453.0156 Q1194.8594,453.625 1194.625,453.8906 Q1194.3906,454.1563 1194.0156,454.1563 Q1193.6719,454.1563 1193.4688,453.9531 Q1193.2656,453.7656 1193.1563,453.25 Q1193.1094,452.8906 1192.9219,452.7031 Q1192.5938,452.3281 1191.9844,452.1094 Q1191.375,451.8906 1190.75,451.8906 Q1189.9844,451.8906 1189.3438,452.2188 Q1188.7188,452.5469 1188.2188,453.2969 Q1187.7344,454.0469 1187.7344,455.0781 L1187.7344,456.1719 Q1187.7344,457.4063 1188.625,458.2344 Q1189.5156,459.0469 1191.1094,459.0469 Q1192.0469,459.0469 1192.7031,458.7969 Q1193.0938,458.6406 1193.5156,458.2031 Q1193.7813,457.9375 1193.9219,457.8594 Q1194.0781,457.7813 1194.2813,457.7813 Q1194.6094,457.7813 1194.8594,458.0469 Q1195.125,458.2969 1195.125,458.6406 Q1195.125,458.9844 1194.7813,459.3906 Q1194.2813,459.9688 1193.4844,460.2969 Q1192.4063,460.75 1191.1094,460.75 Q1189.5938,460.75 1188.3906,460.125 Q1187.4063,459.625 1186.7188,458.5625 Q1186.0313,457.4844 1186.0313,456.2031 L1186.0313,455.0469 Q1186.0313,453.7188 1186.6406,452.5781 Q1187.2656,451.4219 1188.3594,450.8125 Q1189.4531,450.1875 1190.6875,450.1875 Q1191.4219,450.1875 1192.0625,450.3594 Q1192.7188,450.5156 1193.2656,450.875 Z " fill="#000000"/><text fill="#000000" font-family="sans-serif" font-size="14" lengthAdjust="spacing" textLength="95" x="1204.5" y="460.7285">StartPanelView</text><line style="stroke:#181818;stroke-width:0.5;" x1="1176.5" x2="1301.5" y1="471" y2="471"/><line style="stroke:#181818;stroke-width:0.5;" x1="1176.5" x2="1301.5" y1="479" y2="479"/></g><!--class TurnView--><g id="elem_TurnView"><rect codeLine="20" fill="#F1F1F1" height="48" id="TurnView" rx="2.5" ry="2.5" style="stroke:#181818;stroke-width:0.5;" width="91" x="396.5" y="547"/><ellipse cx="411.5" cy="563" fill="#ADD1B2" rx="11" ry="11" style="stroke:#181818;stroke-width:1.0;"/><path d="M414.2656,558.875 Q414.4219,558.6563 414.6094,558.5469 Q414.7969,558.4375 415.0156,558.4375 Q415.3906,558.4375 415.625,558.7031 Q415.8594,558.9531 415.8594,559.5625 L415.8594,561.0156 Q415.8594,561.625 415.625,561.8906 Q415.3906,562.1563 415.0156,562.1563 Q414.6719,562.1563 414.4688,561.9531 Q414.2656,561.7656 414.1563,561.25 Q414.1094,560.8906 413.9219,560.7031 Q413.5938,560.3281 412.9844,560.1094 Q412.375,559.8906 411.75,559.8906 Q410.9844,559.8906 410.3438,560.2188 Q409.7188,560.5469 409.2188,561.2969 Q408.7344,562.0469 408.7344,563.0781 L408.7344,564.1719 Q408.7344,565.4063 409.625,566.2344 Q410.5156,567.0469 412.1094,567.0469 Q413.0469,567.0469 413.7031,566.7969 Q414.0938,566.6406 414.5156,566.2031 Q414.7813,565.9375 414.9219,565.8594 Q415.0781,565.7813 415.2813,565.7813 Q415.6094,565.7813 415.8594,566.0469 Q416.125,566.2969 416.125,566.6406 Q416.125,566.9844 415.7813,567.3906 Q415.2813,567.9688 414.4844,568.2969 Q413.4063,568.75 412.1094,568.75 Q410.5938,568.75 409.3906,568.125 Q408.4063,567.625 407.7188,566.5625 Q407.0313,565.4844 407.0313,564.2031 L407.0313,563.0469 Q407.0313,561.7188 407.6406,560.5781 Q408.2656,559.4219 409.3594,558.8125 Q410.4531,558.1875 411.6875,558.1875 Q412.4219,558.1875 413.0625,558.3594 Q413.7188,558.5156 414.2656,558.875 Z " fill="#000000"/><text fill="#000000" font-family="sans-serif" font-size="14" lengthAdjust="spacing" textLength="59" x="425.5" y="568.7285">TurnView</text><line style="stroke:#181818;stroke-width:0.5;" x1="397.5" x2="486.5" y1="579" y2="579"/><line style="stroke:#181818;stroke-width:0.5;" x1="397.5" x2="486.5" y1="587" y2="587"/></g><!--class UserPlayerBoardView--><g id="elem_UserPlayerBoardView"><rect codeLine="21" fill="#F1F1F1" height="48" id="UserPlayerBoardView" rx="2.5" ry="2.5" style="stroke:#181818;stroke-width:0.5;" width="168" x="951" y="655"/><ellipse cx="966" cy="671" fill="#ADD1B2" rx="11" ry="11" style="stroke:#181818;stroke-width:1.0;"/><path d="M968.7656,666.875 Q968.9219,666.6563 969.1094,666.5469 Q969.2969,666.4375 969.5156,666.4375 Q969.8906,666.4375 970.125,666.7031 Q970.3594,666.9531 970.3594,667.5625 L970.3594,669.0156 Q970.3594,669.625 970.125,669.8906 Q969.8906,670.1563 969.5156,670.1563 Q969.1719,670.1563 968.9688,669.9531 Q968.7656,669.7656 968.6563,669.25 Q968.6094,668.8906 968.4219,668.7031 Q968.0938,668.3281 967.4844,668.1094 Q966.875,667.8906 966.25,667.8906 Q965.4844,667.8906 964.8438,668.2188 Q964.2188,668.5469 963.7188,669.2969 Q963.2344,670.0469 963.2344,671.0781 L963.2344,672.1719 Q963.2344,673.4063 964.125,674.2344 Q965.0156,675.0469 966.6094,675.0469 Q967.5469,675.0469 968.2031,674.7969 Q968.5938,674.6406 969.0156,674.2031 Q969.2813,673.9375 969.4219,673.8594 Q969.5781,673.7813 969.7813,673.7813 Q970.1094,673.7813 970.3594,674.0469 Q970.625,674.2969 970.625,674.6406 Q970.625,674.9844 970.2813,675.3906 Q969.7813,675.9688 968.9844,676.2969 Q967.9063,676.75 966.6094,676.75 Q965.0938,676.75 963.8906,676.125 Q962.9063,675.625 962.2188,674.5625 Q961.5313,673.4844 961.5313,672.2031 L961.5313,671.0469 Q961.5313,669.7188 962.1406,668.5781 Q962.7656,667.4219 963.8594,666.8125 Q964.9531,666.1875 966.1875,666.1875 Q966.9219,666.1875 967.5625,666.3594 Q968.2188,666.5156 968.7656,666.875 Z " fill="#000000"/><text fill="#000000" font-family="sans-serif" font-size="14" lengthAdjust="spacing" textLength="136" x="980" y="676.7285">UserPlayerBoardView</text><line style="stroke:#181818;stroke-width:0.5;" x1="952" x2="1118" y1="687" y2="687"/><line style="stroke:#181818;stroke-width:0.5;" x1="952" x2="1118" y1="695" y2="695"/></g><!--class PanelView--><g id="elem_PanelView"><rect codeLine="22" fill="#F1F1F1" height="48" id="PanelView" rx="2.5" ry="2.5" style="stroke:#181818;stroke-width:0.5;" width="97" x="978.5" y="223"/><ellipse cx="993.5" cy="239" fill="#A9DCDF" rx="11" ry="11" style="stroke:#181818;stroke-width:1.0;"/><path d="M995.6875,240.7656 L991.5469,240.7656 L991.125,241.7969 L991.5469,241.7969 Q992.1563,241.7969 992.4219,242.0313 Q992.6875,242.2656 992.6875,242.6563 Q992.6875,243.0313 992.4219,243.2656 Q992.1563,243.5 991.5469,243.5 L989.25,243.5 Q988.6406,243.5 988.3906,243.2656 Q988.125,243.0313 988.125,242.6406 Q988.125,242.2656 988.4063,242.0313 Q988.6719,241.7813 989.2969,241.7969 L991.9688,235.1406 L990.8594,235.1406 Q990.25,235.1406 989.9844,234.9063 Q989.7188,234.6719 989.7188,234.2813 Q989.7188,233.9063 989.9844,233.6719 Q990.25,233.4375 990.8594,233.4375 L994.5313,233.4375 L997.9219,241.7969 Q998.5156,241.7969 998.7031,241.9375 Q999.0938,242.2031 999.0938,242.6563 Q999.0938,243.0313 998.8281,243.2656 Q998.5781,243.5 997.9688,243.5 L995.6719,243.5 Q995.0625,243.5 994.7969,243.2656 Q994.5313,243.0313 994.5313,242.6406 Q994.5313,242.2656 994.7969,242.0313 Q995.0625,241.7969 995.6719,241.7969 L996.0938,241.7969 L995.6875,240.7656 Z M994.9688,239.0625 L993.6094,235.6875 L992.2344,239.0625 L994.9688,239.0625 Z " fill="#000000"/><text fill="#000000" font-family="sans-serif" font-size="14" font-style="italic" lengthAdjust="spacing" textLength="65" x="1007.5" y="244.7285">PanelView</text><line style="stroke:#181818;stroke-width:0.5;" x1="979.5" x2="1074.5" y1="255" y2="255"/><line style="stroke:#181818;stroke-width:0.5;" x1="979.5" x2="1074.5" y1="263" y2="263"/></g><!--class PlayerBoardView--><g id="elem_PlayerBoardView"><rect codeLine="23" fill="#F1F1F1" height="48" id="PlayerBoardView" rx="2.5" ry="2.5" style="stroke:#181818;stroke-width:0.5;" width="139" x="965.5" y="547"/><ellipse cx="980.5" cy="563" fill="#A9DCDF" rx="11" ry="11" style="stroke:#181818;stroke-width:1.0;"/><path d="M982.6875,564.7656 L978.5469,564.7656 L978.125,565.7969 L978.5469,565.7969 Q979.1563,565.7969 979.4219,566.0313 Q979.6875,566.2656 979.6875,566.6563 Q979.6875,567.0313 979.4219,567.2656 Q979.1563,567.5 978.5469,567.5 L976.25,567.5 Q975.6406,567.5 975.3906,567.2656 Q975.125,567.0313 975.125,566.6406 Q975.125,566.2656 975.4063,566.0313 Q975.6719,565.7813 976.2969,565.7969 L978.9688,559.1406 L977.8594,559.1406 Q977.25,559.1406 976.9844,558.9063 Q976.7188,558.6719 976.7188,558.2813 Q976.7188,557.9063 976.9844,557.6719 Q977.25,557.4375 977.8594,557.4375 L981.5313,557.4375 L984.9219,565.7969 Q985.5156,565.7969 985.7031,565.9375 Q986.0938,566.2031 986.0938,566.6563 Q986.0938,567.0313 985.8281,567.2656 Q985.5781,567.5 984.9688,567.5 L982.6719,567.5 Q982.0625,567.5 981.7969,567.2656 Q981.5313,567.0313 981.5313,566.6406 Q981.5313,566.2656 981.7969,566.0313 Q982.0625,565.7969 982.6719,565.7969 L983.0938,565.7969 L982.6875,564.7656 Z M981.9688,563.0625 L980.6094,559.6875 L979.2344,563.0625 L981.9688,563.0625 Z " fill="#000000"/><text fill="#000000" font-family="sans-serif" font-size="14" font-style="italic" lengthAdjust="spacing" textLength="107" x="994.5" y="568.7285">PlayerBoardView</text><line style="stroke:#181818;stroke-width:0.5;" x1="966.5" x2="1103.5" y1="579" y2="579"/><line style="stroke:#181818;stroke-width:0.5;" x1="966.5" x2="1103.5" y1="587" y2="587"/></g><!--class JFrame--><g id="elem_JFrame"><rect codeLine="25" fill="#F1F1F1" height="48" id="JFrame" rx="2.5" ry="2.5" style="stroke:#181818;stroke-width:0.5;" width="79" x="1224.5" y="7"/><ellipse cx="1239.5" cy="23" fill="#ADD1B2" rx="11" ry="11" style="stroke:#181818;stroke-width:1.0;"/><path d="M1242.2656,18.875 Q1242.4219,18.6563 1242.6094,18.5469 Q1242.7969,18.4375 1243.0156,18.4375 Q1243.3906,18.4375 1243.625,18.7031 Q1243.8594,18.9531 1243.8594,19.5625 L1243.8594,21.0156 Q1243.8594,21.625 1243.625,21.8906 Q1243.3906,22.1563 1243.0156,22.1563 Q1242.6719,22.1563 1242.4688,21.9531 Q1242.2656,21.7656 1242.1563,21.25 Q1242.1094,20.8906 1241.9219,20.7031 Q1241.5938,20.3281 1240.9844,20.1094 Q1240.375,19.8906 1239.75,19.8906 Q1238.9844,19.8906 1238.3438,20.2188 Q1237.7188,20.5469 1237.2188,21.2969 Q1236.7344,22.0469 1236.7344,23.0781 L1236.7344,24.1719 Q1236.7344,25.4063 1237.625,26.2344 Q1238.5156,27.0469 1240.1094,27.0469 Q1241.0469,27.0469 1241.7031,26.7969 Q1242.0938,26.6406 1242.5156,26.2031 Q1242.7813,25.9375 1242.9219,25.8594 Q1243.0781,25.7813 1243.2813,25.7813 Q1243.6094,25.7813 1243.8594,26.0469 Q1244.125,26.2969 1244.125,26.6406 Q1244.125,26.9844 1243.7813,27.3906 Q1243.2813,27.9688 1242.4844,28.2969 Q1241.4063,28.75 1240.1094,28.75 Q1238.5938,28.75 1237.3906,28.125 Q1236.4063,27.625 1235.7188,26.5625 Q1235.0313,25.4844 1235.0313,24.2031 L1235.0313,23.0469 Q1235.0313,21.7188 1235.6406,20.5781 Q1236.2656,19.4219 1237.3594,18.8125 Q1238.4531,18.1875 1239.6875,18.1875 Q1240.4219,18.1875 1241.0625,18.3594 Q1241.7188,18.5156 1242.2656,18.875 Z " fill="#000000"/><text fill="#000000" font-family="sans-serif" font-size="14" lengthAdjust="spacing" textLength="47" x="1253.5" y="28.7285">JFrame</text><line style="stroke:#181818;stroke-width:0.5;" x1="1225.5" x2="1302.5" y1="39" y2="39"/><line style="stroke:#181818;stroke-width:0.5;" x1="1225.5" x2="1302.5" y1="47" y2="47"/></g><!--class Logic--><g id="elem_Logic"><rect codeLine="37" fill="#F1F1F1" height="48" id="Logic" rx="2.5" ry="2.5" style="stroke:#181818;stroke-width:0.5;" width="136" x="1348" y="547"/><ellipse cx="1363" cy="563" fill="#ADD1B2" rx="11" ry="11" style="stroke:#181818;stroke-width:1.0;"/><path d="M1365.7656,558.875 Q1365.9219,558.6563 1366.1094,558.5469 Q1366.2969,558.4375 1366.5156,558.4375 Q1366.8906,558.4375 1367.125,558.7031 Q1367.3594,558.9531 1367.3594,559.5625 L1367.3594,561.0156 Q1367.3594,561.625 1367.125,561.8906 Q1366.8906,562.1563 1366.5156,562.1563 Q1366.1719,562.1563 1365.9688,561.9531 Q1365.7656,561.7656 1365.6563,561.25 Q1365.6094,560.8906 1365.4219,560.7031 Q1365.0938,560.3281 1364.4844,560.1094 Q1363.875,559.8906 1363.25,559.8906 Q1362.4844,559.8906 1361.8438,560.2188 Q1361.2188,560.5469 1360.7188,561.2969 Q1360.2344,562.0469 1360.2344,563.0781 L1360.2344,564.1719 Q1360.2344,565.4063 1361.125,566.2344 Q1362.0156,567.0469 1363.6094,567.0469 Q1364.5469,567.0469 1365.2031,566.7969 Q1365.5938,566.6406 1366.0156,566.2031 Q1366.2813,565.9375 1366.4219,565.8594 Q1366.5781,565.7813 1366.7813,565.7813 Q1367.1094,565.7813 1367.3594,566.0469 Q1367.625,566.2969 1367.625,566.6406 Q1367.625,566.9844 1367.2813,567.3906 Q1366.7813,567.9688 1365.9844,568.2969 Q1364.9063,568.75 1363.6094,568.75 Q1362.0938,568.75 1360.8906,568.125 Q1359.9063,567.625 1359.2188,566.5625 Q1358.5313,565.4844 1358.5313,564.2031 L1358.5313,563.0469 Q1358.5313,561.7188 1359.1406,560.5781 Q1359.7656,559.4219 1360.8594,558.8125 Q1361.9531,558.1875 1363.1875,558.1875 Q1363.9219,558.1875 1364.5625,558.3594 Q1365.2188,558.5156 1365.7656,558.875 Z " fill="#000000"/><text fill="#000000" font-family="sans-serif" font-size="14" lengthAdjust="spacing" textLength="104" x="1377" y="568.7285">controllers.Logic</text><line style="stroke:#181818;stroke-width:0.5;" x1="1349" x2="1483" y1="579" y2="579"/><line style="stroke:#181818;stroke-width:0.5;" x1="1349" x2="1483" y1="587" y2="587"/></g><!--class View--><g id="elem_View"><rect codeLine="41" fill="#F1F1F1" height="48" id="View" rx="2.5" ry="2.5" style="stroke:#181818;stroke-width:0.5;" width="61" x="1088.5" y="7"/><ellipse cx="1103.5" cy="23" fill="#A9DCDF" rx="11" ry="11" style="stroke:#181818;stroke-width:1.0;"/><path d="M1105.6875,24.7656 L1101.5469,24.7656 L1101.125,25.7969 L1101.5469,25.7969 Q1102.1563,25.7969 1102.4219,26.0313 Q1102.6875,26.2656 1102.6875,26.6563 Q1102.6875,27.0313 1102.4219,27.2656 Q1102.1563,27.5 1101.5469,27.5 L1099.25,27.5 Q1098.6406,27.5 1098.3906,27.2656 Q1098.125,27.0313 1098.125,26.6406 Q1098.125,26.2656 1098.4063,26.0313 Q1098.6719,25.7813 1099.2969,25.7969 L1101.9688,19.1406 L1100.8594,19.1406 Q1100.25,19.1406 1099.9844,18.9063 Q1099.7188,18.6719 1099.7188,18.2813 Q1099.7188,17.9063 1099.9844,17.6719 Q1100.25,17.4375 1100.8594,17.4375 L1104.5313,17.4375 L1107.9219,25.7969 Q1108.5156,25.7969 1108.7031,25.9375 Q1109.0938,26.2031 1109.0938,26.6563 Q1109.0938,27.0313 1108.8281,27.2656 Q1108.5781,27.5 1107.9688,27.5 L1105.6719,27.5 Q1105.0625,27.5 1104.7969,27.2656 Q1104.5313,27.0313 1104.5313,26.6406 Q1104.5313,26.2656 1104.7969,26.0313 Q1105.0625,25.7969 1105.6719,25.7969 L1106.0938,25.7969 L1105.6875,24.7656 Z M1104.9688,23.0625 L1103.6094,19.6875 L1102.2344,23.0625 L1104.9688,23.0625 Z " fill="#000000"/><text fill="#000000" font-family="sans-serif" font-size="14" font-style="italic" lengthAdjust="spacing" textLength="29" x="1117.5" y="28.7285">View</text><line style="stroke:#181818;stroke-width:0.5;" x1="1089.5" x2="1148.5" y1="39" y2="39"/><line style="stroke:#181818;stroke-width:0.5;" x1="1089.5" x2="1148.5" y1="47" y2="47"/></g><!--class JOptionPane--><g id="elem_JOptionPane"><rect codeLine="44" fill="#F1F1F1" height="48" id="JOptionPane" rx="2.5" ry="2.5" style="stroke:#181818;stroke-width:0.5;" width="113" x="1348.5" y="331"/><ellipse cx="1363.5" cy="347" fill="#ADD1B2" rx="11" ry="11" style="stroke:#181818;stroke-width:1.0;"/><path d="M1366.2656,342.875 Q1366.4219,342.6563 1366.6094,342.5469 Q1366.7969,342.4375 1367.0156,342.4375 Q1367.3906,342.4375 1367.625,342.7031 Q1367.8594,342.9531 1367.8594,343.5625 L1367.8594,345.0156 Q1367.8594,345.625 1367.625,345.8906 Q1367.3906,346.1563 1367.0156,346.1563 Q1366.6719,346.1563 1366.4688,345.9531 Q1366.2656,345.7656 1366.1563,345.25 Q1366.1094,344.8906 1365.9219,344.7031 Q1365.5938,344.3281 1364.9844,344.1094 Q1364.375,343.8906 1363.75,343.8906 Q1362.9844,343.8906 1362.3438,344.2188 Q1361.7188,344.5469 1361.2188,345.2969 Q1360.7344,346.0469 1360.7344,347.0781 L1360.7344,348.1719 Q1360.7344,349.4063 1361.625,350.2344 Q1362.5156,351.0469 1364.1094,351.0469 Q1365.0469,351.0469 1365.7031,350.7969 Q1366.0938,350.6406 1366.5156,350.2031 Q1366.7813,349.9375 1366.9219,349.8594 Q1367.0781,349.7813 1367.2813,349.7813 Q1367.6094,349.7813 1367.8594,350.0469 Q1368.125,350.2969 1368.125,350.6406 Q1368.125,350.9844 1367.7813,351.3906 Q1367.2813,351.9688 1366.4844,352.2969 Q1365.4063,352.75 1364.1094,352.75 Q1362.5938,352.75 1361.3906,352.125 Q1360.4063,351.625 1359.7188,350.5625 Q1359.0313,349.4844 1359.0313,348.2031 L1359.0313,347.0469 Q1359.0313,345.7188 1359.6406,344.5781 Q1360.2656,343.4219 1361.3594,342.8125 Q1362.4531,342.1875 1363.6875,342.1875 Q1364.4219,342.1875 1365.0625,342.3594 Q1365.7188,342.5156 1366.2656,342.875 Z " fill="#000000"/><text fill="#000000" font-family="sans-serif" font-size="14" lengthAdjust="spacing" textLength="81" x="1377.5" y="352.7285">JOptionPane</text><line style="stroke:#181818;stroke-width:0.5;" x1="1349.5" x2="1460.5" y1="363" y2="363"/><line style="stroke:#181818;stroke-width:0.5;" x1="1349.5" x2="1460.5" y1="371" y2="371"/></g><!--class JPanel--><g id="elem_JPanel"><rect fill="#F1F1F1" height="48" id="JPanel" rx="2.5" ry="2.5" style="stroke:#181818;stroke-width:0.5;" width="74" x="1350" y="115"/><ellipse cx="1365" cy="131" fill="#ADD1B2" rx="11" ry="11" style="stroke:#181818;stroke-width:1.0;"/><path d="M1367.7656,126.875 Q1367.9219,126.6563 1368.1094,126.5469 Q1368.2969,126.4375 1368.5156,126.4375 Q1368.8906,126.4375 1369.125,126.7031 Q1369.3594,126.9531 1369.3594,127.5625 L1369.3594,129.0156 Q1369.3594,129.625 1369.125,129.8906 Q1368.8906,130.1563 1368.5156,130.1563 Q1368.1719,130.1563 1367.9688,129.9531 Q1367.7656,129.7656 1367.6563,129.25 Q1367.6094,128.8906 1367.4219,128.7031 Q1367.0938,128.3281 1366.4844,128.1094 Q1365.875,127.8906 1365.25,127.8906 Q1364.4844,127.8906 1363.8438,128.2188 Q1363.2188,128.5469 1362.7188,129.2969 Q1362.2344,130.0469 1362.2344,131.0781 L1362.2344,132.1719 Q1362.2344,133.4063 1363.125,134.2344 Q1364.0156,135.0469 1365.6094,135.0469 Q1366.5469,135.0469 1367.2031,134.7969 Q1367.5938,134.6406 1368.0156,134.2031 Q1368.2813,133.9375 1368.4219,133.8594 Q1368.5781,133.7813 1368.7813,133.7813 Q1369.1094,133.7813 1369.3594,134.0469 Q1369.625,134.2969 1369.625,134.6406 Q1369.625,134.9844 1369.2813,135.3906 Q1368.7813,135.9688 1367.9844,136.2969 Q1366.9063,136.75 1365.6094,136.75 Q1364.0938,136.75 1362.8906,136.125 Q1361.9063,135.625 1361.2188,134.5625 Q1360.5313,133.4844 1360.5313,132.2031 L1360.5313,131.0469 Q1360.5313,129.7188 1361.1406,128.5781 Q1361.7656,127.4219 1362.8594,126.8125 Q1363.9531,126.1875 1365.1875,126.1875 Q1365.9219,126.1875 1366.5625,126.3594 Q1367.2188,126.5156 1367.7656,126.875 Z " fill="#000000"/><text fill="#000000" font-family="sans-serif" font-size="14" lengthAdjust="spacing" textLength="42" x="1379" y="136.7285">JPanel</text><line style="stroke:#181818;stroke-width:0.5;" x1="1351" x2="1423" y1="147" y2="147"/><line style="stroke:#181818;stroke-width:0.5;" x1="1351" x2="1423" y1="155" y2="155"/></g><!--reverse link JFrame to FrameView--><g id="link_JFrame_FrameView"><path codeLine="26" d="M1264,73 C1264,90.66 1264,96.94 1264,114.68 " fill="none" id="JFrame-backto-FrameView" style="stroke:#181818;stroke-width:1.0;"/><polygon fill="none" points="1264,55,1258,73,1270,73,1264,55" style="stroke:#181818;stroke-width:1.0;"/></g><!--reverse link FrameView to MainFrame--><g id="link_FrameView_MainFrame"><path codeLine="27" d="M1264,181 C1264,198.66 1264,204.94 1264,222.68 " fill="none" id="FrameView-backto-MainFrame" style="stroke:#181818;stroke-width:1.0;"/><polygon fill="none" points="1264,163,1258,181,1270,181,1264,163" style="stroke:#181818;stroke-width:1.0;"/></g><!--link GraphicsView to MainFrame--><g id="link_GraphicsView_MainFrame"><path codeLine="28" d="M1160.1475,170.0818 C1184.3875,187.8018 1203.2156,201.57 1227.5056,219.32 " fill="none" id="GraphicsView-MainFrame" style="stroke:#181818;stroke-width:1.0;"/><polygon fill="#181818" points="1150.46,163,1152.9432,169.7701,1160.1475,170.0818,1157.6644,163.3117,1150.46,163" style="stroke:#181818;stroke-width:1.0;"/><polygon fill="#181818" points="1232.35,222.86,1227.4435,214.3203,1228.313,219.91,1222.7234,220.7795,1232.35,222.86" style="stroke:#181818;stroke-width:1.0;"/></g><!--link MainFrame to Logic--><g id="link_MainFrame_Logic"><path codeLine="31" d="M1315.8,251.86 C1366.92,258.74 1442.56,277.88 1479,331 C1526.09,399.65 1469.0954,496.6119 1437.0454,541.9119 " fill="none" id="MainFrame-to-Logic" style="stroke:#181818;stroke-width:1.0;"/><polygon fill="#181818" points="1433.58,546.81,1442.0435,541.7732,1436.4678,542.7283,1435.5127,537.1526,1433.58,546.81" style="stroke:#181818;stroke-width:1.0;"/></g><!--link StartPanelView to Logic--><g id="link_StartPanelView_Logic"><path codeLine="35" d="M1277.41,487 C1306.99,504.72 1342.5724,526.0274 1372.2124,543.7774 " fill="none" id="StartPanelView-to-Logic" style="stroke:#181818;stroke-width:1.0;"/><polygon fill="#181818" points="1377.36,546.86,1371.6937,538.8043,1373.0704,544.2911,1367.5836,545.6678,1377.36,546.86" style="stroke:#181818;stroke-width:1.0;"/></g><!--link PlayPanelView to Logic--><g id="link_PlayPanelView_Logic"><path codeLine="39" d="M930.28,473.31 C1019.67,487.08 1189.32,514.77 1332,547 C1337.16,548.17 1336.6604,547.9797 1342.0004,549.3197 " fill="none" id="PlayPanelView-to-Logic" style="stroke:#181818;stroke-width:1.0;"/><polygon fill="#181818" points="1347.82,550.78,1340.0642,544.7098,1342.9704,549.563,1338.1171,552.4692,1347.82,550.78" style="stroke:#181818;stroke-width:1.0;"/></g><!--reverse link View to GraphicsView--><g id="link_View_GraphicsView"><path codeLine="42" d="M1119,73 C1119,90.66 1119,96.94 1119,114.68 " fill="none" id="View-backto-GraphicsView" style="stroke:#181818;stroke-width:1.0;"/><polygon fill="none" points="1119,55,1113,73,1125,73,1119,55" style="stroke:#181818;stroke-width:1.0;"/></g><!--link MainFrame to JOptionPane--><g id="link_MainFrame_JOptionPane"><path codeLine="45" d="M1294.59,271 C1318.08,288.66 1345.5839,309.3348 1369.1839,327.0748 " fill="none" id="MainFrame-to-JOptionPane" style="stroke:#181818;stroke-width:1.0;stroke-dasharray:7.0,7.0;"/><polygon fill="#181818" points="1373.98,330.68,1369.1893,322.0748,1369.9833,327.6757,1364.3824,328.4696,1373.98,330.68" style="stroke:#181818;stroke-width:1.0;"/></g><!--reverse link JPanel to PanelView--><g id="link_JPanel_PanelView"><path codeLine="47" d="M1333.279,162.964 C1327.309,165.364 1337.87,160.98 1332,163 C1242.99,193.58 1136.36,220.44 1075.66,234.83 " fill="none" id="JPanel-backto-PanelView" style="stroke:#181818;stroke-width:1.0;"/><polygon fill="none" points="1349.98,156.25,1331.041,157.397,1335.517,168.531,1349.98,156.25" style="stroke:#181818;stroke-width:1.0;"/></g><!--reverse link PanelView to GameLoopView--><g id="link_PanelView_GameLoopView"><path codeLine="48" d="M1069.4216,282.3241 C1091.2416,299.9841 1107.26,312.94 1129.18,330.68 " fill="none" id="PanelView-backto-GameLoopView" style="stroke:#181818;stroke-width:1.0;"/><polygon fill="none" points="1055.43,271,1065.6469,286.988,1073.1963,277.6602,1055.43,271" style="stroke:#181818;stroke-width:1.0;"/></g><!--reverse link GameLoopView to StartPanelView--><g id="link_GameLoopView_StartPanelView"><path codeLine="49" d="M1186.5066,393.3042 C1199.9966,410.9642 1207.62,420.94 1221.18,438.68 " fill="none" id="GameLoopView-backto-StartPanelView" style="stroke:#181818;stroke-width:1.0;"/><polygon fill="none" points="1175.58,379,1181.7385,396.9464,1191.2746,389.662,1175.58,379" style="stroke:#181818;stroke-width:1.0;"/></g><!--reverse link GameLoopView to PlayPanelView--><g id="link_GameLoopView_PlayPanelView"><path codeLine="50" d="M1078.1643,385.1803 C1029.3643,403.0203 978.96,421.44 930.3,439.23 " fill="none" id="GameLoopView-backto-PlayPanelView" style="stroke:#181818;stroke-width:1.0;"/><polygon fill="none" points="1095.07,379,1076.1042,379.545,1080.2244,390.8155,1095.07,379" style="stroke:#181818;stroke-width:1.0;"/></g><!--reverse link PanelView to BoardView--><g id="link_PanelView_BoardView"><path codeLine="51" d="M1019.6998,288.7168 C1016.5298,306.3768 1015.36,312.94 1012.18,330.68 " fill="none" id="PanelView-backto-BoardView" style="stroke:#181818;stroke-width:1.0;"/><polygon fill="none" points="1022.88,271,1013.7942,287.6568,1025.6054,289.7769,1022.88,271" style="stroke:#181818;stroke-width:1.0;"/></g><!--reverse link PanelView to TurnView--><g id="link_PanelView_TurnView"><path codeLine="52" d="M969.1609,279.8395 C861.3509,339.1795 591.9,487.49 484.08,546.84 " fill="none" id="PanelView-backto-TurnView" style="stroke:#181818;stroke-width:1.0;"/><polygon fill="none" points="984.93,271.16,966.2677,274.5832,972.054,285.0959,984.93,271.16" style="stroke:#181818;stroke-width:1.0;"/></g><!--link GraphicsView to GameLoopView--><g id="link_GraphicsView_GameLoopView"><path codeLine="54" d="M1123.25,163.31 C1130.75,204.47 1145.1839,283.6773 1152.6839,324.8173 " fill="none" id="GraphicsView-to-GameLoopView" style="stroke:#181818;stroke-width:1.0;stroke-dasharray:7.0,7.0;"/><polygon fill="#181818" points="1153.76,330.72,1156.081,321.1485,1152.8633,325.8011,1148.2107,322.5833,1153.76,330.72" style="stroke:#181818;stroke-width:1.0;"/></g><!--link MainFrame to GameLoopView--><g id="link_MainFrame_GameLoopView"><path codeLine="55" d="M1241,271 C1223.34,288.66 1203.3026,308.6974 1185.5626,326.4374 " fill="none" id="MainFrame-to-GameLoopView" style="stroke:#181818;stroke-width:1.0;"/><polygon fill="#181818" points="1181.32,330.68,1190.5124,327.1445,1184.8555,327.1445,1184.8555,321.4876,1181.32,330.68" style="stroke:#181818;stroke-width:1.0;"/></g><!--link PlayPanelView to PlayerBoardView--><g id="link_PlayPanelView_PlayerBoardView"><path codeLine="57" d="M914.3707,493.4319 C942.2807,511.1519 965.514,525.8951 993.484,543.6451 " fill="none" id="PlayPanelView-PlayerBoardView" style="stroke:#181818;stroke-width:1.0;"/><polygon fill="#181818" points="904.24,487,907.1614,493.5929,914.3707,493.4319,911.4493,486.8391,904.24,487" style="stroke:#181818;stroke-width:1.0;"/><polygon fill="#181818" points="998.55,546.86,993.0943,538.6603,994.3283,544.1809,988.8077,545.4149,998.55,546.86" style="stroke:#181818;stroke-width:1.0;"/></g><!--link PlayPanelView to TurnView--><g id="link_PlayPanelView_TurnView"><path codeLine="58" d="M794.1601,478.2187 C721.5901,492.6387 609.95,516.52 506,547 C500,548.76 499.4109,548.8494 493.2609,550.9394 " fill="none" id="PlayPanelView-TurnView" style="stroke:#181818;stroke-width:1.0;"/><polygon fill="#181818" points="805.93,475.88,799.2655,473.1261,794.1601,478.2187,800.8246,480.9727,805.93,475.88" style="stroke:#181818;stroke-width:1.0;"/><polygon fill="#181818" points="487.58,552.87,497.3884,553.7614,492.3141,551.2612,494.8143,546.1868,487.58,552.87" style="stroke:#181818;stroke-width:1.0;"/></g><!--link PlayPanelView to BoardViewPrototypeRegistry--><g id="link_PlayPanelView_BoardViewPrototypeRegistry"><path codeLine="59" d="M835.6895,495.8001 C819.3895,512.0801 806.04,526.09 788,547 C770.4,567.39 774.42,581.69 751,595 C556.81,705.39 472.82,621.28 252,655 C246.16,655.89 246.0881,655.862 240.0381,656.872 " fill="none" id="PlayPanelView-BoardViewPrototypeRegistry" style="stroke:#181818;stroke-width:1.0;"/><polygon fill="#181818" points="844.18,487.32,837.1081,488.7299,835.6895,495.8001,842.7614,494.3902,844.18,487.32" style="stroke:#181818;stroke-width:1.0;"/><polygon fill="#181818" points="234.12,657.86,243.6558,660.3234,239.0517,657.0367,242.3385,652.4326,234.12,657.86" style="stroke:#181818;stroke-width:1.0;"/></g><!--link PlayPanelView to BoardViewPrototypeDirector--><g id="link_PlayPanelView_BoardViewPrototypeDirector"><path codeLine="60" d="M815.92,487 C775.81,504.72 726.0685,526.686 685.8785,544.436 " fill="none" id="PlayPanelView-to-BoardViewPrototypeDirector" style="stroke:#181818;stroke-width:1.0;stroke-dasharray:7.0,7.0;"/><polygon fill="#181818" points="680.39,546.86,690.2388,546.883,684.9638,544.84,687.0068,539.5649,680.39,546.86" style="stroke:#181818;stroke-width:1.0;"/></g><!--link BoardViewPrototypeDirector to BoardViewPrototypeRegistry--><g id="link_BoardViewPrototypeDirector_BoardViewPrototypeRegistry"><path codeLine="61" d="M522.88,594.29 C438.09,612.26 325.2295,636.1856 240.1395,654.2256 " fill="none" id="BoardViewPrototypeDirector-to-BoardViewPrototypeRegistry" style="stroke:#181818;stroke-width:1.0;"/><polygon fill="#181818" points="234.27,655.47,243.9039,657.5164,239.1613,654.433,242.2447,649.6904,234.27,655.47" style="stroke:#181818;stroke-width:1.0;"/></g><!--link StartPanelView to ViewCommand--><g id="link_StartPanelView_ViewCommand"><path codeLine="63" d="M1175.41,482.1 C1116.45,498.88 1026.28,524.58 948,547 C942.44,548.59 942.4376,548.5964 936.6476,550.2564 " fill="none" id="StartPanelView-to-ViewCommand" style="stroke:#181818;stroke-width:1.0;"/><polygon fill="#181818" points="930.88,551.91,940.6338,553.2747,935.6864,550.532,938.4291,545.5845,930.88,551.91" style="stroke:#181818;stroke-width:1.0;"/></g><!--link PlayPanelView to ViewCommand--><g id="link_PlayPanelView_ViewCommand"><path codeLine="64" d="M868,487 C868,504.66 868,522.94 868,540.68 " fill="none" id="PlayPanelView-to-ViewCommand" style="stroke:#181818;stroke-width:1.0;"/><polygon fill="#181818" points="868,546.68,872,537.68,868,541.68,864,537.68,868,546.68" style="stroke:#181818;stroke-width:1.0;"/></g><!--reverse link Command to PanelViewCommand--><g id="link_Command_PanelViewCommand"><path codeLine="66" d="M1117.5797,502.2768 C1145.0797,543.4368 1191.95,613.58 1219.44,654.72 " fill="none" id="Command-backto-PanelViewCommand" style="stroke:#181818;stroke-width:1.0;"/><polygon fill="none" points="1107.58,487.31,1112.5908,505.6101,1122.5686,498.9436,1107.58,487.31" style="stroke:#181818;stroke-width:1.0;"/></g><!--reverse link PanelViewCommand to NextTurnCommand--><g id="link_PanelViewCommand_NextTurnCommand"><path codeLine="67" d="M1235,721 C1235,738.66 1235,744.94 1235,762.68 " fill="none" id="PanelViewCommand-backto-NextTurnCommand" style="stroke:#181818;stroke-width:1.0;"/><polygon fill="none" points="1235,703,1229,721,1241,721,1235,703" style="stroke:#181818;stroke-width:1.0;"/></g><!--reverse link Command to ViewCommand--><g id="link_Command_ViewCommand"><path codeLine="68" d="M1027.679,494.4377 C990.139,512.1977 954.46,529.09 916.75,546.93 " fill="none" id="Command-backto-ViewCommand" style="stroke:#181818;stroke-width:1.0;"/><polygon fill="none" points="1043.95,486.74,1025.1131,489.0141,1030.2449,499.8614,1043.95,486.74" style="stroke:#181818;stroke-width:1.0;"/></g><!--reverse link ViewCommand to PlayCommand--><g id="link_ViewCommand_PlayCommand"><path codeLine="69" d="M787.7284,593.048 C778.6284,595.258 786.84,593.15 778,595 C616.22,628.83 572.26,618.77 411,655 C405.08,656.33 398.95,657.84 392.83,659.44 " fill="none" id="ViewCommand-backto-PlayCommand" style="stroke:#181818;stroke-width:1.0;"/><polygon fill="none" points="805.22,588.8,786.3124,587.2174,789.1444,598.8785,805.22,588.8" style="stroke:#181818;stroke-width:1.0;"/></g><!--reverse link ViewCommand to ResumeCommand--><g id="link_ViewCommand_ResumeCommand"><path codeLine="70" d="M788.2105,595.1072 C724.7105,613.4972 643.66,636.97 576.24,656.5 " fill="none" id="ViewCommand-backto-ResumeCommand" style="stroke:#181818;stroke-width:1.0;"/><polygon fill="none" points="805.5,590.1,786.5414,589.344,789.8795,600.8703,805.5,590.1" style="stroke:#181818;stroke-width:1.0;"/></g><!--reverse link BoardView to PlayerBoardView--><g id="link_BoardView_PlayerBoardView"><path codeLine="72" d="M1013.1918,397.1686 C1018.3818,438.3286 1026.87,505.58 1032.06,546.72 " fill="none" id="BoardView-backto-PlayerBoardView" style="stroke:#181818;stroke-width:1.0;"/><polygon fill="none" points="1010.94,379.31,1007.239,397.9192,1019.1447,396.418,1010.94,379.31" style="stroke:#181818;stroke-width:1.0;"/></g><!--reverse link PlayerBoardView to MachinePlayerBoardView--><g id="link_PlayerBoardView_MachinePlayerBoardView"><path codeLine="73" d="M948.3127,600.0168 C893.3127,617.7968 833.93,636.98 778.44,654.91 " fill="none" id="PlayerBoardView-backto-MachinePlayerBoardView" style="stroke:#181818;stroke-width:1.0;"/><polygon fill="none" points="965.44,594.48,946.4671,594.3077,950.1583,605.7259,965.44,594.48" style="stroke:#181818;stroke-width:1.0;"/></g><!--reverse link PlayerBoardView to UserPlayerBoardView--><g id="link_PlayerBoardView_UserPlayerBoardView"><path codeLine="74" d="M1035,613 C1035,630.66 1035,636.94 1035,654.68 " fill="none" id="PlayerBoardView-backto-UserPlayerBoardView" style="stroke:#181818;stroke-width:1.0;"/><polygon fill="none" points="1035,595,1029,613,1041,613,1035,595" style="stroke:#181818;stroke-width:1.0;"/></g><!--link MachinePlayerBoardView to NonClickableSquare--><g id="link_MachinePlayerBoardView_NonClickableSquare"><path codeLine="75" d="M718.6703,714.3621 C724.6703,732.0221 727.1319,739.2582 733.1519,756.9982 " fill="none" id="MachinePlayerBoardView-NonClickableSquare" style="stroke:#181818;stroke-width:1.0;"/><polygon fill="none" points="714.81,703,712.9528,709.9678,718.6703,714.3621,720.5275,707.3943,714.81,703" style="stroke:#181818;stroke-width:1.0;"/><polygon fill="#181818" points="735.08,762.68,735.9757,752.872,733.4733,757.9452,728.4,755.4427,735.08,762.68" style="stroke:#181818;stroke-width:1.0;"/></g><!--link UserPlayerBoardView to ClickableSquare--><g id="link_UserPlayerBoardView_ClickableSquare"><path codeLine="76" d="M1012.6357,712.9254 C1000.6357,730.5854 994.2613,739.9767 982.2113,757.7167 " fill="none" id="UserPlayerBoardView-ClickableSquare" style="stroke:#181818;stroke-width:1.0;"/><polygon fill="none" points="1019.38,703,1012.6994,705.7146,1012.6357,712.9254,1019.3163,710.2108,1019.38,703" style="stroke:#181818;stroke-width:1.0;"/><polygon fill="#181818" points="978.84,762.68,987.2059,757.4826,981.6494,758.5439,980.5882,752.9875,978.84,762.68" style="stroke:#181818;stroke-width:1.0;"/></g><!--reverse link Square to ClickableSquare--><g id="link_Square_ClickableSquare"><path codeLine="77" d="M907.0017,716.9773 C921.3317,734.6373 929.69,744.94 944.08,762.68 " fill="none" id="Square-backto-ClickableSquare" style="stroke:#181818;stroke-width:1.0;"/><polygon fill="none" points="895.66,703,902.3426,720.7579,911.6608,713.1967,895.66,703" style="stroke:#181818;stroke-width:1.0;"/></g><!--reverse link Square to NonClickableSquare--><g id="link_Square_NonClickableSquare"><path codeLine="78" d="M833.8041,714.1688 C811.4841,731.8288 794.91,744.94 772.48,762.68 " fill="none" id="Square-backto-NonClickableSquare" style="stroke:#181818;stroke-width:1.0;"/><polygon fill="none" points="847.92,703,830.0812,709.4635,837.527,718.8741,847.92,703" style="stroke:#181818;stroke-width:1.0;"/></g><!--link PlayerBoardView to PanelViewCommand--><g id="link_PlayerBoardView_PanelViewCommand"><path codeLine="80" d="M1078.4,595 C1111.83,612.72 1152.5486,634.3002 1186.0386,652.0502 " fill="none" id="PlayerBoardView-to-PanelViewCommand" style="stroke:#181818;stroke-width:1.0;"/><polygon fill="#181818" points="1191.34,654.86,1185.2611,647.111,1186.9222,652.5185,1181.5147,654.1796,1191.34,654.86" style="stroke:#181818;stroke-width:1.0;"/></g><!--SRC=[bLJ1JiCm3BttAoAEIDqNe1qOOj8qnhG19ovPPhQ8DYb99fZ4nxCqNPEuQIjERVFUintxrLmOK1-K0JaeMXqvqvD7HKjuu_2TiO9gxO4doaKDPhohcb_Ebr9MjP3kj56K6O8Yt4kgzgdGBR1MqaXphk21As16gd7c1WxyakwSgcecovAAVMz1QogWiD76Y247GVFc9TqoTkG2rWKzW-gz_Gf-pCj9YPu4LZq0jNV0u0RqgOGUvVRhH1NWqrd1sIVT5P26LrACCBQ6AjDRaRrawlnLWy8z6XrPFmD5Qh8jd7VTWzpzvZdnLc_V7E2j7awNtERvDC2Qm4jvu8nGJMwO54R9eW2b9_NfJTQoYTNMXyEwTz4eixYN_zT7vWZbg75r0_pT8pzVU_TS6Iw5ZHRSQ3APHaYsgDEvC7vElWONFzmKuOU3aOEwXDZpABYVEW9QwyKJjLU82ehd5K6eeRKPiDSIb3Pp0XlOPZ7RrZcm9FiXCf8cvR9msNLD5A9Pyu96tehHWQFXTHU1eRoZ33TX1upNdM-9b-911T_NtpwvhfFSrCvAwucqRKlipaG8nyL4zt1vXx14ZaxnjMlneFu0]--></g></svg>