<?xml version="1.0" encoding="us-ascii" standalone="no"?><svg xmlns="http://www.w3.org/2000/svg" xmlns:xlink="http://www.w3.org/1999/xlink" contentStyleType="text/css" height="834px" preserveAspectRatio="none" style="width:1532px;height:834px;background:#FFFFFF;" version="1.1" viewBox="0 0 1532 834" width="1532px" zoomAndPan="magnify"><defs/><g><!--cluster graphics--><g id="cluster_graphics"><path d="M8.5,79 L70.5,79 A3.75,3.75 0 0 1 73,81.5 L80,102.6094 L1328.5,102.6094 A2.5,2.5 0 0 1 1331,105.1094 L1331,824.5 A2.5,2.5 0 0 1 1328.5,827 L8.5,827 A2.5,2.5 0 0 1 6,824.5 L6,81.5 A2.5,2.5 0 0 1 8.5,79 " fill="none" style="stroke:#000000;stroke-width:1.5;"/><line style="stroke:#000000;stroke-width:1.5;" x1="6" x2="80" y1="102.6094" y2="102.6094"/><text fill="#000000" font-family="sans-serif" font-size="14" font-weight="bold" lengthAdjust="spacing" textLength="61" x="10" y="95.5332">graphics</text></g><!--class FrameView--><g id="elem_FrameView"><rect codeLine="1" fill="#F1F1F1" height="48" id="FrameView" rx="2.5" ry="2.5" style="stroke:#181818;stroke-width:0.5;" width="102" x="1211" y="115"/><ellipse cx="1226" cy="131" fill="#B4A7E5" rx="11" ry="11" style="stroke:#181818;stroke-width:1.0;"/><path d="M1226.9531,127.6406 L1226.9531,134.2969 L1228.6719,134.2969 Q1229.2813,134.2969 1229.5469,134.5313 Q1229.8125,134.7656 1229.8125,135.1563 Q1229.8125,135.5313 1229.5469,135.7656 Q1229.2813,136 1228.6719,136 L1223.5313,136 Q1222.9219,136 1222.6563,135.7656 Q1222.3906,135.5313 1222.3906,135.1406 Q1222.3906,134.7656 1222.6563,134.5313 Q1222.9219,134.2969 1223.5313,134.2969 L1225.25,134.2969 L1225.25,127.6406 L1223.5313,127.6406 Q1222.9219,127.6406 1222.6563,127.4063 Q1222.3906,127.1719 1222.3906,126.7813 Q1222.3906,126.4063 1222.6563,126.1719 Q1222.9219,125.9375 1223.5313,125.9375 L1228.6719,125.9375 Q1229.2813,125.9375 1229.5469,126.1719 Q1229.8125,126.4063 1229.8125,126.7813 Q1229.8125,127.1719 1229.5469,127.4063 Q1229.2813,127.6406 1228.6719,127.6406 L1226.9531,127.6406 Z " fill="#000000"/><text fill="#000000" font-family="sans-serif" font-size="14" font-style="italic" lengthAdjust="spacing" textLength="70" x="1240" y="136.7285">FrameView</text><line style="stroke:#181818;stroke-width:0.5;" x1="1212" x2="1312" y1="147" y2="147"/><line style="stroke:#181818;stroke-width:0.5;" x1="1212" x2="1312" y1="155" y2="155"/></g><!--class MainFrame--><g id="elem_MainFrame"><rect codeLine="2" fill="#F1F1F1" height="48" id="MainFrame" rx="2.5" ry="2.5" style="stroke:#181818;stroke-width:0.5;" width="103" x="1211.5" y="223"/><ellipse cx="1226.5" cy="239" fill="#ADD1B2" rx="11" ry="11" style="stroke:#181818;stroke-width:1.0;"/><path d="M1229.2656,234.875 Q1229.4219,234.6563 1229.6094,234.5469 Q1229.7969,234.4375 1230.0156,234.4375 Q1230.3906,234.4375 1230.625,234.7031 Q1230.8594,234.9531 1230.8594,235.5625 L1230.8594,237.0156 Q1230.8594,237.625 1230.625,237.8906 Q1230.3906,238.1563 1230.0156,238.1563 Q1229.6719,238.1563 1229.4688,237.9531 Q1229.2656,237.7656 1229.1563,237.25 Q1229.1094,236.8906 1228.9219,236.7031 Q1228.5938,236.3281 1227.9844,236.1094 Q1227.375,235.8906 1226.75,235.8906 Q1225.9844,235.8906 1225.3438,236.2188 Q1224.7188,236.5469 1224.2188,237.2969 Q1223.7344,238.0469 1223.7344,239.0781 L1223.7344,240.1719 Q1223.7344,241.4063 1224.625,242.2344 Q1225.5156,243.0469 1227.1094,243.0469 Q1228.0469,243.0469 1228.7031,242.7969 Q1229.0938,242.6406 1229.5156,242.2031 Q1229.7813,241.9375 1229.9219,241.8594 Q1230.0781,241.7813 1230.2813,241.7813 Q1230.6094,241.7813 1230.8594,242.0469 Q1231.125,242.2969 1231.125,242.6406 Q1231.125,242.9844 1230.7813,243.3906 Q1230.2813,243.9688 1229.4844,244.2969 Q1228.4063,244.75 1227.1094,244.75 Q1225.5938,244.75 1224.3906,244.125 Q1223.4063,243.625 1222.7188,242.5625 Q1222.0313,241.4844 1222.0313,240.2031 L1222.0313,239.0469 Q1222.0313,237.7188 1222.6406,236.5781 Q1223.2656,235.4219 1224.3594,234.8125 Q1225.4531,234.1875 1226.6875,234.1875 Q1227.4219,234.1875 1228.0625,234.3594 Q1228.7188,234.5156 1229.2656,234.875 Z " fill="#000000"/><text fill="#000000" font-family="sans-serif" font-size="14" lengthAdjust="spacing" textLength="71" x="1240.5" y="244.7285">MainFrame</text><line style="stroke:#181818;stroke-width:0.5;" x1="1212.5" x2="1313.5" y1="255" y2="255"/><line style="stroke:#181818;stroke-width:0.5;" x1="1212.5" x2="1313.5" y1="263" y2="263"/></g><!--class GameLoopView--><g id="elem_GameLoopView"><rect codeLine="3" fill="#F1F1F1" height="48" id="GameLoopView" rx="2.5" ry="2.5" style="stroke:#181818;stroke-width:0.5;" width="131" x="960.5" y="331"/><ellipse cx="975.5" cy="347" fill="#B4A7E5" rx="11" ry="11" style="stroke:#181818;stroke-width:1.0;"/><path d="M976.4531,343.6406 L976.4531,350.2969 L978.1719,350.2969 Q978.7813,350.2969 979.0469,350.5313 Q979.3125,350.7656 979.3125,351.1563 Q979.3125,351.5313 979.0469,351.7656 Q978.7813,352 978.1719,352 L973.0313,352 Q972.4219,352 972.1563,351.7656 Q971.8906,351.5313 971.8906,351.1406 Q971.8906,350.7656 972.1563,350.5313 Q972.4219,350.2969 973.0313,350.2969 L974.75,350.2969 L974.75,343.6406 L973.0313,343.6406 Q972.4219,343.6406 972.1563,343.4063 Q971.8906,343.1719 971.8906,342.7813 Q971.8906,342.4063 972.1563,342.1719 Q972.4219,341.9375 973.0313,341.9375 L978.1719,341.9375 Q978.7813,341.9375 979.0469,342.1719 Q979.3125,342.4063 979.3125,342.7813 Q979.3125,343.1719 979.0469,343.4063 Q978.7813,343.6406 978.1719,343.6406 L976.4531,343.6406 Z " fill="#000000"/><text fill="#000000" font-family="sans-serif" font-size="14" font-style="italic" lengthAdjust="spacing" textLength="99" x="989.5" y="352.7285">GameLoopView</text><line style="stroke:#181818;stroke-width:0.5;" x1="961.5" x2="1090.5" y1="363" y2="363"/><line style="stroke:#181818;stroke-width:0.5;" x1="961.5" x2="1090.5" y1="371" y2="371"/></g><!--class BoardView--><g id="elem_BoardView"><rect codeLine="4" fill="#F1F1F1" height="48" id="BoardView" rx="2.5" ry="2.5" style="stroke:#181818;stroke-width:0.5;" width="99" x="908.5" y="547"/><ellipse cx="923.5" cy="563" fill="#A9DCDF" rx="11" ry="11" style="stroke:#181818;stroke-width:1.0;"/><path d="M925.6875,564.7656 L921.5469,564.7656 L921.125,565.7969 L921.5469,565.7969 Q922.1563,565.7969 922.4219,566.0313 Q922.6875,566.2656 922.6875,566.6563 Q922.6875,567.0313 922.4219,567.2656 Q922.1563,567.5 921.5469,567.5 L919.25,567.5 Q918.6406,567.5 918.3906,567.2656 Q918.125,567.0313 918.125,566.6406 Q918.125,566.2656 918.4063,566.0313 Q918.6719,565.7813 919.2969,565.7969 L921.9688,559.1406 L920.8594,559.1406 Q920.25,559.1406 919.9844,558.9063 Q919.7188,558.6719 919.7188,558.2813 Q919.7188,557.9063 919.9844,557.6719 Q920.25,557.4375 920.8594,557.4375 L924.5313,557.4375 L927.9219,565.7969 Q928.5156,565.7969 928.7031,565.9375 Q929.0938,566.2031 929.0938,566.6563 Q929.0938,567.0313 928.8281,567.2656 Q928.5781,567.5 927.9688,567.5 L925.6719,567.5 Q925.0625,567.5 924.7969,567.2656 Q924.5313,567.0313 924.5313,566.6406 Q924.5313,566.2656 924.7969,566.0313 Q925.0625,565.7969 925.6719,565.7969 L926.0938,565.7969 L925.6875,564.7656 Z M924.9688,563.0625 L923.6094,559.6875 L922.2344,563.0625 L924.9688,563.0625 Z " fill="#000000"/><text fill="#000000" font-family="sans-serif" font-size="14" font-style="italic" lengthAdjust="spacing" textLength="67" x="937.5" y="568.7285">BoardView</text><line style="stroke:#181818;stroke-width:0.5;" x1="909.5" x2="1006.5" y1="579" y2="579"/><line style="stroke:#181818;stroke-width:0.5;" x1="909.5" x2="1006.5" y1="587" y2="587"/></g><!--class BoardViewPrototypeDirector--><g id="elem_BoardViewPrototypeDirector"><rect codeLine="5" fill="#F1F1F1" height="48" id="BoardViewPrototypeDirector" rx="2.5" ry="2.5" style="stroke:#181818;stroke-width:0.5;" width="210" x="503" y="547"/><ellipse cx="518" cy="563" fill="#ADD1B2" rx="11" ry="11" style="stroke:#181818;stroke-width:1.0;"/><path d="M520.7656,558.875 Q520.9219,558.6563 521.1094,558.5469 Q521.2969,558.4375 521.5156,558.4375 Q521.8906,558.4375 522.125,558.7031 Q522.3594,558.9531 522.3594,559.5625 L522.3594,561.0156 Q522.3594,561.625 522.125,561.8906 Q521.8906,562.1563 521.5156,562.1563 Q521.1719,562.1563 520.9688,561.9531 Q520.7656,561.7656 520.6563,561.25 Q520.6094,560.8906 520.4219,560.7031 Q520.0938,560.3281 519.4844,560.1094 Q518.875,559.8906 518.25,559.8906 Q517.4844,559.8906 516.8438,560.2188 Q516.2188,560.5469 515.7188,561.2969 Q515.2344,562.0469 515.2344,563.0781 L515.2344,564.1719 Q515.2344,565.4063 516.125,566.2344 Q517.0156,567.0469 518.6094,567.0469 Q519.5469,567.0469 520.2031,566.7969 Q520.5938,566.6406 521.0156,566.2031 Q521.2813,565.9375 521.4219,565.8594 Q521.5781,565.7813 521.7813,565.7813 Q522.1094,565.7813 522.3594,566.0469 Q522.625,566.2969 522.625,566.6406 Q522.625,566.9844 522.2813,567.3906 Q521.7813,567.9688 520.9844,568.2969 Q519.9063,568.75 518.6094,568.75 Q517.0938,568.75 515.8906,568.125 Q514.9063,567.625 514.2188,566.5625 Q513.5313,565.4844 513.5313,564.2031 L513.5313,563.0469 Q513.5313,561.7188 514.1406,560.5781 Q514.7656,559.4219 515.8594,558.8125 Q516.9531,558.1875 518.1875,558.1875 Q518.9219,558.1875 519.5625,558.3594 Q520.2188,558.5156 520.7656,558.875 Z " fill="#000000"/><text fill="#000000" font-family="sans-serif" font-size="14" lengthAdjust="spacing" textLength="178" x="532" y="568.7285">BoardViewPrototypeDirector</text><line style="stroke:#181818;stroke-width:0.5;" x1="504" x2="712" y1="579" y2="579"/><line style="stroke:#181818;stroke-width:0.5;" x1="504" x2="712" y1="587" y2="587"/></g><!--class BoardViewPrototypeRegistry--><g id="elem_BoardViewPrototypeRegistry"><rect codeLine="6" fill="#F1F1F1" height="48" id="BoardViewPrototypeRegistry" rx="2.5" ry="2.5" style="stroke:#181818;stroke-width:0.5;" width="212" x="22" y="655"/><ellipse cx="37" cy="671" fill="#ADD1B2" rx="11" ry="11" style="stroke:#181818;stroke-width:1.0;"/><path d="M39.7656,666.875 Q39.9219,666.6563 40.1094,666.5469 Q40.2969,666.4375 40.5156,666.4375 Q40.8906,666.4375 41.125,666.7031 Q41.3594,666.9531 41.3594,667.5625 L41.3594,669.0156 Q41.3594,669.625 41.125,669.8906 Q40.8906,670.1563 40.5156,670.1563 Q40.1719,670.1563 39.9688,669.9531 Q39.7656,669.7656 39.6563,669.25 Q39.6094,668.8906 39.4219,668.7031 Q39.0938,668.3281 38.4844,668.1094 Q37.875,667.8906 37.25,667.8906 Q36.4844,667.8906 35.8438,668.2188 Q35.2188,668.5469 34.7188,669.2969 Q34.2344,670.0469 34.2344,671.0781 L34.2344,672.1719 Q34.2344,673.4063 35.125,674.2344 Q36.0156,675.0469 37.6094,675.0469 Q38.5469,675.0469 39.2031,674.7969 Q39.5938,674.6406 40.0156,674.2031 Q40.2813,673.9375 40.4219,673.8594 Q40.5781,673.7813 40.7813,673.7813 Q41.1094,673.7813 41.3594,674.0469 Q41.625,674.2969 41.625,674.6406 Q41.625,674.9844 41.2813,675.3906 Q40.7813,675.9688 39.9844,676.2969 Q38.9063,676.75 37.6094,676.75 Q36.0938,676.75 34.8906,676.125 Q33.9063,675.625 33.2188,674.5625 Q32.5313,673.4844 32.5313,672.2031 L32.5313,671.0469 Q32.5313,669.7188 33.1406,668.5781 Q33.7656,667.4219 34.8594,666.8125 Q35.9531,666.1875 37.1875,666.1875 Q37.9219,666.1875 38.5625,666.3594 Q39.2188,666.5156 39.7656,666.875 Z " fill="#000000"/><text fill="#000000" font-family="sans-serif" font-size="14" lengthAdjust="spacing" textLength="180" x="51" y="676.7285">BoardViewPrototypeRegistry</text><line style="stroke:#181818;stroke-width:0.5;" x1="23" x2="233" y1="687" y2="687"/><line style="stroke:#181818;stroke-width:0.5;" x1="23" x2="233" y1="695" y2="695"/></g><!--class Command--><g id="elem_Command"><rect codeLine="7" fill="#F1F1F1" height="48" id="Command" rx="2.5" ry="2.5" style="stroke:#181818;stroke-width:0.5;" width="96" x="546" y="439"/><ellipse cx="561" cy="455" fill="#B4A7E5" rx="11" ry="11" style="stroke:#181818;stroke-width:1.0;"/><path d="M561.9531,451.6406 L561.9531,458.2969 L563.6719,458.2969 Q564.2813,458.2969 564.5469,458.5313 Q564.8125,458.7656 564.8125,459.1563 Q564.8125,459.5313 564.5469,459.7656 Q564.2813,460 563.6719,460 L558.5313,460 Q557.9219,460 557.6563,459.7656 Q557.3906,459.5313 557.3906,459.1406 Q557.3906,458.7656 557.6563,458.5313 Q557.9219,458.2969 558.5313,458.2969 L560.25,458.2969 L560.25,451.6406 L558.5313,451.6406 Q557.9219,451.6406 557.6563,451.4063 Q557.3906,451.1719 557.3906,450.7813 Q557.3906,450.4063 557.6563,450.1719 Q557.9219,449.9375 558.5313,449.9375 L563.6719,449.9375 Q564.2813,449.9375 564.5469,450.1719 Q564.8125,450.4063 564.8125,450.7813 Q564.8125,451.1719 564.5469,451.4063 Q564.2813,451.6406 563.6719,451.6406 L561.9531,451.6406 Z " fill="#000000"/><text fill="#000000" font-family="sans-serif" font-size="14" font-style="italic" lengthAdjust="spacing" textLength="64" x="575" y="460.7285">Command</text><line style="stroke:#181818;stroke-width:0.5;" x1="547" x2="641" y1="471" y2="471"/><line style="stroke:#181818;stroke-width:0.5;" x1="547" x2="641" y1="479" y2="479"/></g><!--class PanelViewCommand--><g id="elem_PanelViewCommand"><rect codeLine="8" fill="#F1F1F1" height="48" id="PanelViewCommand" rx="2.5" ry="2.5" style="stroke:#181818;stroke-width:0.5;" width="161" x="452.5" y="655"/><ellipse cx="467.5" cy="671" fill="#A9DCDF" rx="11" ry="11" style="stroke:#181818;stroke-width:1.0;"/><path d="M469.6875,672.7656 L465.5469,672.7656 L465.125,673.7969 L465.5469,673.7969 Q466.1563,673.7969 466.4219,674.0313 Q466.6875,674.2656 466.6875,674.6563 Q466.6875,675.0313 466.4219,675.2656 Q466.1563,675.5 465.5469,675.5 L463.25,675.5 Q462.6406,675.5 462.3906,675.2656 Q462.125,675.0313 462.125,674.6406 Q462.125,674.2656 462.4063,674.0313 Q462.6719,673.7813 463.2969,673.7969 L465.9688,667.1406 L464.8594,667.1406 Q464.25,667.1406 463.9844,666.9063 Q463.7188,666.6719 463.7188,666.2813 Q463.7188,665.9063 463.9844,665.6719 Q464.25,665.4375 464.8594,665.4375 L468.5313,665.4375 L471.9219,673.7969 Q472.5156,673.7969 472.7031,673.9375 Q473.0938,674.2031 473.0938,674.6563 Q473.0938,675.0313 472.8281,675.2656 Q472.5781,675.5 471.9688,675.5 L469.6719,675.5 Q469.0625,675.5 468.7969,675.2656 Q468.5313,675.0313 468.5313,674.6406 Q468.5313,674.2656 468.7969,674.0313 Q469.0625,673.7969 469.6719,673.7969 L470.0938,673.7969 L469.6875,672.7656 Z M468.9688,671.0625 L467.6094,667.6875 L466.2344,671.0625 L468.9688,671.0625 Z " fill="#000000"/><text fill="#000000" font-family="sans-serif" font-size="14" font-style="italic" lengthAdjust="spacing" textLength="129" x="481.5" y="676.7285">PanelViewCommand</text><line style="stroke:#181818;stroke-width:0.5;" x1="453.5" x2="612.5" y1="687" y2="687"/><line style="stroke:#181818;stroke-width:0.5;" x1="453.5" x2="612.5" y1="695" y2="695"/></g><!--class ViewCommand--><g id="elem_ViewCommand"><rect codeLine="9" fill="#F1F1F1" height="48" id="ViewCommand" rx="2.5" ry="2.5" style="stroke:#181818;stroke-width:0.5;" width="125" x="748.5" y="547"/><ellipse cx="763.5" cy="563" fill="#A9DCDF" rx="11" ry="11" style="stroke:#181818;stroke-width:1.0;"/><path d="M765.6875,564.7656 L761.5469,564.7656 L761.125,565.7969 L761.5469,565.7969 Q762.1563,565.7969 762.4219,566.0313 Q762.6875,566.2656 762.6875,566.6563 Q762.6875,567.0313 762.4219,567.2656 Q762.1563,567.5 761.5469,567.5 L759.25,567.5 Q758.6406,567.5 758.3906,567.2656 Q758.125,567.0313 758.125,566.6406 Q758.125,566.2656 758.4063,566.0313 Q758.6719,565.7813 759.2969,565.7969 L761.9688,559.1406 L760.8594,559.1406 Q760.25,559.1406 759.9844,558.9063 Q759.7188,558.6719 759.7188,558.2813 Q759.7188,557.9063 759.9844,557.6719 Q760.25,557.4375 760.8594,557.4375 L764.5313,557.4375 L767.9219,565.7969 Q768.5156,565.7969 768.7031,565.9375 Q769.0938,566.2031 769.0938,566.6563 Q769.0938,567.0313 768.8281,567.2656 Q768.5781,567.5 767.9688,567.5 L765.6719,567.5 Q765.0625,567.5 764.7969,567.2656 Q764.5313,567.0313 764.5313,566.6406 Q764.5313,566.2656 764.7969,566.0313 Q765.0625,565.7969 765.6719,565.7969 L766.0938,565.7969 L765.6875,564.7656 Z M764.9688,563.0625 L763.6094,559.6875 L762.2344,563.0625 L764.9688,563.0625 Z " fill="#000000"/><text fill="#000000" font-family="sans-serif" font-size="14" font-style="italic" lengthAdjust="spacing" textLength="93" x="777.5" y="568.7285">ViewCommand</text><line style="stroke:#181818;stroke-width:0.5;" x1="749.5" x2="872.5" y1="579" y2="579"/><line style="stroke:#181818;stroke-width:0.5;" x1="749.5" x2="872.5" y1="587" y2="587"/></g><!--class GraphicsView--><g id="elem_GraphicsView"><rect codeLine="10" fill="#F1F1F1" height="48" id="GraphicsView" rx="2.5" ry="2.5" style="stroke:#181818;stroke-width:0.5;" width="118" x="1013" y="115"/><ellipse cx="1028" cy="131" fill="#ADD1B2" rx="11" ry="11" style="stroke:#181818;stroke-width:1.0;"/><path d="M1030.7656,126.875 Q1030.9219,126.6563 1031.1094,126.5469 Q1031.2969,126.4375 1031.5156,126.4375 Q1031.8906,126.4375 1032.125,126.7031 Q1032.3594,126.9531 1032.3594,127.5625 L1032.3594,129.0156 Q1032.3594,129.625 1032.125,129.8906 Q1031.8906,130.1563 1031.5156,130.1563 Q1031.1719,130.1563 1030.9688,129.9531 Q1030.7656,129.7656 1030.6563,129.25 Q1030.6094,128.8906 1030.4219,128.7031 Q1030.0938,128.3281 1029.4844,128.1094 Q1028.875,127.8906 1028.25,127.8906 Q1027.4844,127.8906 1026.8438,128.2188 Q1026.2188,128.5469 1025.7188,129.2969 Q1025.2344,130.0469 1025.2344,131.0781 L1025.2344,132.1719 Q1025.2344,133.4063 1026.125,134.2344 Q1027.0156,135.0469 1028.6094,135.0469 Q1029.5469,135.0469 1030.2031,134.7969 Q1030.5938,134.6406 1031.0156,134.2031 Q1031.2813,133.9375 1031.4219,133.8594 Q1031.5781,133.7813 1031.7813,133.7813 Q1032.1094,133.7813 1032.3594,134.0469 Q1032.625,134.2969 1032.625,134.6406 Q1032.625,134.9844 1032.2813,135.3906 Q1031.7813,135.9688 1030.9844,136.2969 Q1029.9063,136.75 1028.6094,136.75 Q1027.0938,136.75 1025.8906,136.125 Q1024.9063,135.625 1024.2188,134.5625 Q1023.5313,133.4844 1023.5313,132.2031 L1023.5313,131.0469 Q1023.5313,129.7188 1024.1406,128.5781 Q1024.7656,127.4219 1025.8594,126.8125 Q1026.9531,126.1875 1028.1875,126.1875 Q1028.9219,126.1875 1029.5625,126.3594 Q1030.2188,126.5156 1030.7656,126.875 Z " fill="#000000"/><text fill="#000000" font-family="sans-serif" font-size="14" lengthAdjust="spacing" textLength="86" x="1042" y="136.7285">GraphicsView</text><line style="stroke:#181818;stroke-width:0.5;" x1="1014" x2="1130" y1="147" y2="147"/><line style="stroke:#181818;stroke-width:0.5;" x1="1014" x2="1130" y1="155" y2="155"/></g><!--class MachinePlayerBoardView--><g id="elem_MachinePlayerBoardView"><rect codeLine="11" fill="#F1F1F1" height="48" id="MachinePlayerBoardView" rx="2.5" ry="2.5" style="stroke:#181818;stroke-width:0.5;" width="192" x="807" y="655"/><ellipse cx="822" cy="671" fill="#ADD1B2" rx="11" ry="11" style="stroke:#181818;stroke-width:1.0;"/><path d="M824.7656,666.875 Q824.9219,666.6563 825.1094,666.5469 Q825.2969,666.4375 825.5156,666.4375 Q825.8906,666.4375 826.125,666.7031 Q826.3594,666.9531 826.3594,667.5625 L826.3594,669.0156 Q826.3594,669.625 826.125,669.8906 Q825.8906,670.1563 825.5156,670.1563 Q825.1719,670.1563 824.9688,669.9531 Q824.7656,669.7656 824.6563,669.25 Q824.6094,668.8906 824.4219,668.7031 Q824.0938,668.3281 823.4844,668.1094 Q822.875,667.8906 822.25,667.8906 Q821.4844,667.8906 820.8438,668.2188 Q820.2188,668.5469 819.7188,669.2969 Q819.2344,670.0469 819.2344,671.0781 L819.2344,672.1719 Q819.2344,673.4063 820.125,674.2344 Q821.0156,675.0469 822.6094,675.0469 Q823.5469,675.0469 824.2031,674.7969 Q824.5938,674.6406 825.0156,674.2031 Q825.2813,673.9375 825.4219,673.8594 Q825.5781,673.7813 825.7813,673.7813 Q826.1094,673.7813 826.3594,674.0469 Q826.625,674.2969 826.625,674.6406 Q826.625,674.9844 826.2813,675.3906 Q825.7813,675.9688 824.9844,676.2969 Q823.9063,676.75 822.6094,676.75 Q821.0938,676.75 819.8906,676.125 Q818.9063,675.625 818.2188,674.5625 Q817.5313,673.4844 817.5313,672.2031 L817.5313,671.0469 Q817.5313,669.7188 818.1406,668.5781 Q818.7656,667.4219 819.8594,666.8125 Q820.9531,666.1875 822.1875,666.1875 Q822.9219,666.1875 823.5625,666.3594 Q824.2188,666.5156 824.7656,666.875 Z " fill="#000000"/><text fill="#000000" font-family="sans-serif" font-size="14" lengthAdjust="spacing" textLength="160" x="836" y="676.7285">MachinePlayerBoardView</text><line style="stroke:#181818;stroke-width:0.5;" x1="808" x2="998" y1="687" y2="687"/><line style="stroke:#181818;stroke-width:0.5;" x1="808" x2="998" y1="695" y2="695"/></g><!--class NextTurnCommand--><g id="elem_NextTurnCommand"><rect codeLine="12" fill="#F1F1F1" height="48" id="NextTurnCommand" rx="2.5" ry="2.5" style="stroke:#181818;stroke-width:0.5;" width="153" x="456.5" y="763"/><ellipse cx="471.5" cy="779" fill="#ADD1B2" rx="11" ry="11" style="stroke:#181818;stroke-width:1.0;"/><path d="M474.2656,774.875 Q474.4219,774.6563 474.6094,774.5469 Q474.7969,774.4375 475.0156,774.4375 Q475.3906,774.4375 475.625,774.7031 Q475.8594,774.9531 475.8594,775.5625 L475.8594,777.0156 Q475.8594,777.625 475.625,777.8906 Q475.3906,778.1563 475.0156,778.1563 Q474.6719,778.1563 474.4688,777.9531 Q474.2656,777.7656 474.1563,777.25 Q474.1094,776.8906 473.9219,776.7031 Q473.5938,776.3281 472.9844,776.1094 Q472.375,775.8906 471.75,775.8906 Q470.9844,775.8906 470.3438,776.2188 Q469.7188,776.5469 469.2188,777.2969 Q468.7344,778.0469 468.7344,779.0781 L468.7344,780.1719 Q468.7344,781.4063 469.625,782.2344 Q470.5156,783.0469 472.1094,783.0469 Q473.0469,783.0469 473.7031,782.7969 Q474.0938,782.6406 474.5156,782.2031 Q474.7813,781.9375 474.9219,781.8594 Q475.0781,781.7813 475.2813,781.7813 Q475.6094,781.7813 475.8594,782.0469 Q476.125,782.2969 476.125,782.6406 Q476.125,782.9844 475.7813,783.3906 Q475.2813,783.9688 474.4844,784.2969 Q473.4063,784.75 472.1094,784.75 Q470.5938,784.75 469.3906,784.125 Q468.4063,783.625 467.7188,782.5625 Q467.0313,781.4844 467.0313,780.2031 L467.0313,779.0469 Q467.0313,777.7188 467.6406,776.5781 Q468.2656,775.4219 469.3594,774.8125 Q470.4531,774.1875 471.6875,774.1875 Q472.4219,774.1875 473.0625,774.3594 Q473.7188,774.5156 474.2656,774.875 Z " fill="#000000"/><text fill="#000000" font-family="sans-serif" font-size="14" lengthAdjust="spacing" textLength="121" x="485.5" y="784.7285">NextTurnCommand</text><line style="stroke:#181818;stroke-width:0.5;" x1="457.5" x2="608.5" y1="795" y2="795"/><line style="stroke:#181818;stroke-width:0.5;" x1="457.5" x2="608.5" y1="803" y2="803"/></g><!--class PlayCommand--><g id="elem_PlayCommand"><rect codeLine="13" fill="#F1F1F1" height="48" id="PlayCommand" rx="2.5" ry="2.5" style="stroke:#181818;stroke-width:0.5;" width="123" x="648.5" y="655"/><ellipse cx="663.5" cy="671" fill="#ADD1B2" rx="11" ry="11" style="stroke:#181818;stroke-width:1.0;"/><path d="M666.2656,666.875 Q666.4219,666.6563 666.6094,666.5469 Q666.7969,666.4375 667.0156,666.4375 Q667.3906,666.4375 667.625,666.7031 Q667.8594,666.9531 667.8594,667.5625 L667.8594,669.0156 Q667.8594,669.625 667.625,669.8906 Q667.3906,670.1563 667.0156,670.1563 Q666.6719,670.1563 666.4688,669.9531 Q666.2656,669.7656 666.1563,669.25 Q666.1094,668.8906 665.9219,668.7031 Q665.5938,668.3281 664.9844,668.1094 Q664.375,667.8906 663.75,667.8906 Q662.9844,667.8906 662.3438,668.2188 Q661.7188,668.5469 661.2188,669.2969 Q660.7344,670.0469 660.7344,671.0781 L660.7344,672.1719 Q660.7344,673.4063 661.625,674.2344 Q662.5156,675.0469 664.1094,675.0469 Q665.0469,675.0469 665.7031,674.7969 Q666.0938,674.6406 666.5156,674.2031 Q666.7813,673.9375 666.9219,673.8594 Q667.0781,673.7813 667.2813,673.7813 Q667.6094,673.7813 667.8594,674.0469 Q668.125,674.2969 668.125,674.6406 Q668.125,674.9844 667.7813,675.3906 Q667.2813,675.9688 666.4844,676.2969 Q665.4063,676.75 664.1094,676.75 Q662.5938,676.75 661.3906,676.125 Q660.4063,675.625 659.7188,674.5625 Q659.0313,673.4844 659.0313,672.2031 L659.0313,671.0469 Q659.0313,669.7188 659.6406,668.5781 Q660.2656,667.4219 661.3594,666.8125 Q662.4531,666.1875 663.6875,666.1875 Q664.4219,666.1875 665.0625,666.3594 Q665.7188,666.5156 666.2656,666.875 Z " fill="#000000"/><text fill="#000000" font-family="sans-serif" font-size="14" lengthAdjust="spacing" textLength="91" x="677.5" y="676.7285">PlayCommand</text><line style="stroke:#181818;stroke-width:0.5;" x1="649.5" x2="770.5" y1="687" y2="687"/><line style="stroke:#181818;stroke-width:0.5;" x1="649.5" x2="770.5" y1="695" y2="695"/></g><!--class PlayPanelView--><g id="elem_PlayPanelView"><rect codeLine="14" fill="#F1F1F1" height="48" id="PlayPanelView" rx="2.5" ry="2.5" style="stroke:#181818;stroke-width:0.5;" width="124" x="804" y="439"/><ellipse cx="819" cy="455" fill="#ADD1B2" rx="11" ry="11" style="stroke:#181818;stroke-width:1.0;"/><path d="M821.7656,450.875 Q821.9219,450.6563 822.1094,450.5469 Q822.2969,450.4375 822.5156,450.4375 Q822.8906,450.4375 823.125,450.7031 Q823.3594,450.9531 823.3594,451.5625 L823.3594,453.0156 Q823.3594,453.625 823.125,453.8906 Q822.8906,454.1563 822.5156,454.1563 Q822.1719,454.1563 821.9688,453.9531 Q821.7656,453.7656 821.6563,453.25 Q821.6094,452.8906 821.4219,452.7031 Q821.0938,452.3281 820.4844,452.1094 Q819.875,451.8906 819.25,451.8906 Q818.4844,451.8906 817.8438,452.2188 Q817.2188,452.5469 816.7188,453.2969 Q816.2344,454.0469 816.2344,455.0781 L816.2344,456.1719 Q816.2344,457.4063 817.125,458.2344 Q818.0156,459.0469 819.6094,459.0469 Q820.5469,459.0469 821.2031,458.7969 Q821.5938,458.6406 822.0156,458.2031 Q822.2813,457.9375 822.4219,457.8594 Q822.5781,457.7813 822.7813,457.7813 Q823.1094,457.7813 823.3594,458.0469 Q823.625,458.2969 823.625,458.6406 Q823.625,458.9844 823.2813,459.3906 Q822.7813,459.9688 821.9844,460.2969 Q820.9063,460.75 819.6094,460.75 Q818.0938,460.75 816.8906,460.125 Q815.9063,459.625 815.2188,458.5625 Q814.5313,457.4844 814.5313,456.2031 L814.5313,455.0469 Q814.5313,453.7188 815.1406,452.5781 Q815.7656,451.4219 816.8594,450.8125 Q817.9531,450.1875 819.1875,450.1875 Q819.9219,450.1875 820.5625,450.3594 Q821.2188,450.5156 821.7656,450.875 Z " fill="#000000"/><text fill="#000000" font-family="sans-serif" font-size="14" lengthAdjust="spacing" textLength="92" x="833" y="460.7285">PlayPanelView</text><line style="stroke:#181818;stroke-width:0.5;" x1="805" x2="927" y1="471" y2="471"/><line style="stroke:#181818;stroke-width:0.5;" x1="805" x2="927" y1="479" y2="479"/></g><!--class ResumeCommand--><g id="elem_ResumeCommand"><rect codeLine="15" fill="#F1F1F1" height="48" id="ResumeCommand" rx="2.5" ry="2.5" style="stroke:#181818;stroke-width:0.5;" width="148" x="269" y="655"/><ellipse cx="284" cy="671" fill="#ADD1B2" rx="11" ry="11" style="stroke:#181818;stroke-width:1.0;"/><path d="M286.7656,666.875 Q286.9219,666.6563 287.1094,666.5469 Q287.2969,666.4375 287.5156,666.4375 Q287.8906,666.4375 288.125,666.7031 Q288.3594,666.9531 288.3594,667.5625 L288.3594,669.0156 Q288.3594,669.625 288.125,669.8906 Q287.8906,670.1563 287.5156,670.1563 Q287.1719,670.1563 286.9688,669.9531 Q286.7656,669.7656 286.6563,669.25 Q286.6094,668.8906 286.4219,668.7031 Q286.0938,668.3281 285.4844,668.1094 Q284.875,667.8906 284.25,667.8906 Q283.4844,667.8906 282.8438,668.2188 Q282.2188,668.5469 281.7188,669.2969 Q281.2344,670.0469 281.2344,671.0781 L281.2344,672.1719 Q281.2344,673.4063 282.125,674.2344 Q283.0156,675.0469 284.6094,675.0469 Q285.5469,675.0469 286.2031,674.7969 Q286.5938,674.6406 287.0156,674.2031 Q287.2813,673.9375 287.4219,673.8594 Q287.5781,673.7813 287.7813,673.7813 Q288.1094,673.7813 288.3594,674.0469 Q288.625,674.2969 288.625,674.6406 Q288.625,674.9844 288.2813,675.3906 Q287.7813,675.9688 286.9844,676.2969 Q285.9063,676.75 284.6094,676.75 Q283.0938,676.75 281.8906,676.125 Q280.9063,675.625 280.2188,674.5625 Q279.5313,673.4844 279.5313,672.2031 L279.5313,671.0469 Q279.5313,669.7188 280.1406,668.5781 Q280.7656,667.4219 281.8594,666.8125 Q282.9531,666.1875 284.1875,666.1875 Q284.9219,666.1875 285.5625,666.3594 Q286.2188,666.5156 286.7656,666.875 Z " fill="#000000"/><text fill="#000000" font-family="sans-serif" font-size="14" lengthAdjust="spacing" textLength="116" x="298" y="676.7285">ResumeCommand</text><line style="stroke:#181818;stroke-width:0.5;" x1="270" x2="416" y1="687" y2="687"/><line style="stroke:#181818;stroke-width:0.5;" x1="270" x2="416" y1="695" y2="695"/></g><!--class Square--><g id="elem_Square"><rect codeLine="16" fill="#F1F1F1" height="48" id="Square" rx="2.5" ry="2.5" style="stroke:#181818;stroke-width:0.5;" width="78" x="1034" y="655"/><ellipse cx="1049" cy="671" fill="#ADD1B2" rx="11" ry="11" style="stroke:#181818;stroke-width:1.0;"/><path d="M1051.7656,666.875 Q1051.9219,666.6563 1052.1094,666.5469 Q1052.2969,666.4375 1052.5156,666.4375 Q1052.8906,666.4375 1053.125,666.7031 Q1053.3594,666.9531 1053.3594,667.5625 L1053.3594,669.0156 Q1053.3594,669.625 1053.125,669.8906 Q1052.8906,670.1563 1052.5156,670.1563 Q1052.1719,670.1563 1051.9688,669.9531 Q1051.7656,669.7656 1051.6563,669.25 Q1051.6094,668.8906 1051.4219,668.7031 Q1051.0938,668.3281 1050.4844,668.1094 Q1049.875,667.8906 1049.25,667.8906 Q1048.4844,667.8906 1047.8438,668.2188 Q1047.2188,668.5469 1046.7188,669.2969 Q1046.2344,670.0469 1046.2344,671.0781 L1046.2344,672.1719 Q1046.2344,673.4063 1047.125,674.2344 Q1048.0156,675.0469 1049.6094,675.0469 Q1050.5469,675.0469 1051.2031,674.7969 Q1051.5938,674.6406 1052.0156,674.2031 Q1052.2813,673.9375 1052.4219,673.8594 Q1052.5781,673.7813 1052.7813,673.7813 Q1053.1094,673.7813 1053.3594,674.0469 Q1053.625,674.2969 1053.625,674.6406 Q1053.625,674.9844 1053.2813,675.3906 Q1052.7813,675.9688 1051.9844,676.2969 Q1050.9063,676.75 1049.6094,676.75 Q1048.0938,676.75 1046.8906,676.125 Q1045.9063,675.625 1045.2188,674.5625 Q1044.5313,673.4844 1044.5313,672.2031 L1044.5313,671.0469 Q1044.5313,669.7188 1045.1406,668.5781 Q1045.7656,667.4219 1046.8594,666.8125 Q1047.9531,666.1875 1049.1875,666.1875 Q1049.9219,666.1875 1050.5625,666.3594 Q1051.2188,666.5156 1051.7656,666.875 Z " fill="#000000"/><text fill="#000000" font-family="sans-serif" font-size="14" lengthAdjust="spacing" textLength="46" x="1063" y="676.7285">Square</text><line style="stroke:#181818;stroke-width:0.5;" x1="1035" x2="1111" y1="687" y2="687"/><line style="stroke:#181818;stroke-width:0.5;" x1="1035" x2="1111" y1="695" y2="695"/></g><!--class ClickableSquare--><g id="elem_ClickableSquare"><rect codeLine="17" fill="#F1F1F1" height="48" id="ClickableSquare" rx="2.5" ry="2.5" style="stroke:#181818;stroke-width:0.5;" width="135" x="1126.5" y="763"/><ellipse cx="1141.5" cy="779" fill="#ADD1B2" rx="11" ry="11" style="stroke:#181818;stroke-width:1.0;"/><path d="M1144.2656,774.875 Q1144.4219,774.6563 1144.6094,774.5469 Q1144.7969,774.4375 1145.0156,774.4375 Q1145.3906,774.4375 1145.625,774.7031 Q1145.8594,774.9531 1145.8594,775.5625 L1145.8594,777.0156 Q1145.8594,777.625 1145.625,777.8906 Q1145.3906,778.1563 1145.0156,778.1563 Q1144.6719,778.1563 1144.4688,777.9531 Q1144.2656,777.7656 1144.1563,777.25 Q1144.1094,776.8906 1143.9219,776.7031 Q1143.5938,776.3281 1142.9844,776.1094 Q1142.375,775.8906 1141.75,775.8906 Q1140.9844,775.8906 1140.3438,776.2188 Q1139.7188,776.5469 1139.2188,777.2969 Q1138.7344,778.0469 1138.7344,779.0781 L1138.7344,780.1719 Q1138.7344,781.4063 1139.625,782.2344 Q1140.5156,783.0469 1142.1094,783.0469 Q1143.0469,783.0469 1143.7031,782.7969 Q1144.0938,782.6406 1144.5156,782.2031 Q1144.7813,781.9375 1144.9219,781.8594 Q1145.0781,781.7813 1145.2813,781.7813 Q1145.6094,781.7813 1145.8594,782.0469 Q1146.125,782.2969 1146.125,782.6406 Q1146.125,782.9844 1145.7813,783.3906 Q1145.2813,783.9688 1144.4844,784.2969 Q1143.4063,784.75 1142.1094,784.75 Q1140.5938,784.75 1139.3906,784.125 Q1138.4063,783.625 1137.7188,782.5625 Q1137.0313,781.4844 1137.0313,780.2031 L1137.0313,779.0469 Q1137.0313,777.7188 1137.6406,776.5781 Q1138.2656,775.4219 1139.3594,774.8125 Q1140.4531,774.1875 1141.6875,774.1875 Q1142.4219,774.1875 1143.0625,774.3594 Q1143.7188,774.5156 1144.2656,774.875 Z " fill="#000000"/><text fill="#000000" font-family="sans-serif" font-size="14" lengthAdjust="spacing" textLength="103" x="1155.5" y="784.7285">ClickableSquare</text><line style="stroke:#181818;stroke-width:0.5;" x1="1127.5" x2="1260.5" y1="795" y2="795"/><line style="stroke:#181818;stroke-width:0.5;" x1="1127.5" x2="1260.5" y1="803" y2="803"/></g><!--class NonClickableSquare--><g id="elem_NonClickableSquare"><rect codeLine="18" fill="#F1F1F1" height="48" id="NonClickableSquare" rx="2.5" ry="2.5" style="stroke:#181818;stroke-width:0.5;" width="160" x="859" y="763"/><ellipse cx="874" cy="779" fill="#ADD1B2" rx="11" ry="11" style="stroke:#181818;stroke-width:1.0;"/><path d="M876.7656,774.875 Q876.9219,774.6563 877.1094,774.5469 Q877.2969,774.4375 877.5156,774.4375 Q877.8906,774.4375 878.125,774.7031 Q878.3594,774.9531 878.3594,775.5625 L878.3594,777.0156 Q878.3594,777.625 878.125,777.8906 Q877.8906,778.1563 877.5156,778.1563 Q877.1719,778.1563 876.9688,777.9531 Q876.7656,777.7656 876.6563,777.25 Q876.6094,776.8906 876.4219,776.7031 Q876.0938,776.3281 875.4844,776.1094 Q874.875,775.8906 874.25,775.8906 Q873.4844,775.8906 872.8438,776.2188 Q872.2188,776.5469 871.7188,777.2969 Q871.2344,778.0469 871.2344,779.0781 L871.2344,780.1719 Q871.2344,781.4063 872.125,782.2344 Q873.0156,783.0469 874.6094,783.0469 Q875.5469,783.0469 876.2031,782.7969 Q876.5938,782.6406 877.0156,782.2031 Q877.2813,781.9375 877.4219,781.8594 Q877.5781,781.7813 877.7813,781.7813 Q878.1094,781.7813 878.3594,782.0469 Q878.625,782.2969 878.625,782.6406 Q878.625,782.9844 878.2813,783.3906 Q877.7813,783.9688 876.9844,784.2969 Q875.9063,784.75 874.6094,784.75 Q873.0938,784.75 871.8906,784.125 Q870.9063,783.625 870.2188,782.5625 Q869.5313,781.4844 869.5313,780.2031 L869.5313,779.0469 Q869.5313,777.7188 870.1406,776.5781 Q870.7656,775.4219 871.8594,774.8125 Q872.9531,774.1875 874.1875,774.1875 Q874.9219,774.1875 875.5625,774.3594 Q876.2188,774.5156 876.7656,774.875 Z " fill="#000000"/><text fill="#000000" font-family="sans-serif" font-size="14" lengthAdjust="spacing" textLength="128" x="888" y="784.7285">NonClickableSquare</text><line style="stroke:#181818;stroke-width:0.5;" x1="860" x2="1018" y1="795" y2="795"/><line style="stroke:#181818;stroke-width:0.5;" x1="860" x2="1018" y1="803" y2="803"/></g><!--class StartPanelView--><g id="elem_StartPanelView"><rect codeLine="19" fill="#F1F1F1" height="48" id="StartPanelView" rx="2.5" ry="2.5" style="stroke:#181818;stroke-width:0.5;" width="127" x="963.5" y="439"/><ellipse cx="978.5" cy="455" fill="#ADD1B2" rx="11" ry="11" style="stroke:#181818;stroke-width:1.0;"/><path d="M981.2656,450.875 Q981.4219,450.6563 981.6094,450.5469 Q981.7969,450.4375 982.0156,450.4375 Q982.3906,450.4375 982.625,450.7031 Q982.8594,450.9531 982.8594,451.5625 L982.8594,453.0156 Q982.8594,453.625 982.625,453.8906 Q982.3906,454.1563 982.0156,454.1563 Q981.6719,454.1563 981.4688,453.9531 Q981.2656,453.7656 981.1563,453.25 Q981.1094,452.8906 980.9219,452.7031 Q980.5938,452.3281 979.9844,452.1094 Q979.375,451.8906 978.75,451.8906 Q977.9844,451.8906 977.3438,452.2188 Q976.7188,452.5469 976.2188,453.2969 Q975.7344,454.0469 975.7344,455.0781 L975.7344,456.1719 Q975.7344,457.4063 976.625,458.2344 Q977.5156,459.0469 979.1094,459.0469 Q980.0469,459.0469 980.7031,458.7969 Q981.0938,458.6406 981.5156,458.2031 Q981.7813,457.9375 981.9219,457.8594 Q982.0781,457.7813 982.2813,457.7813 Q982.6094,457.7813 982.8594,458.0469 Q983.125,458.2969 983.125,458.6406 Q983.125,458.9844 982.7813,459.3906 Q982.2813,459.9688 981.4844,460.2969 Q980.4063,460.75 979.1094,460.75 Q977.5938,460.75 976.3906,460.125 Q975.4063,459.625 974.7188,458.5625 Q974.0313,457.4844 974.0313,456.2031 L974.0313,455.0469 Q974.0313,453.7188 974.6406,452.5781 Q975.2656,451.4219 976.3594,450.8125 Q977.4531,450.1875 978.6875,450.1875 Q979.4219,450.1875 980.0625,450.3594 Q980.7188,450.5156 981.2656,450.875 Z " fill="#000000"/><text fill="#000000" font-family="sans-serif" font-size="14" lengthAdjust="spacing" textLength="95" x="992.5" y="460.7285">StartPanelView</text><line style="stroke:#181818;stroke-width:0.5;" x1="964.5" x2="1089.5" y1="471" y2="471"/><line style="stroke:#181818;stroke-width:0.5;" x1="964.5" x2="1089.5" y1="479" y2="479"/></g><!--class TurnView--><g id="elem_TurnView"><rect codeLine="20" fill="#F1F1F1" height="48" id="TurnView" rx="2.5" ry="2.5" style="stroke:#181818;stroke-width:0.5;" width="91" x="1081.5" y="547"/><ellipse cx="1096.5" cy="563" fill="#ADD1B2" rx="11" ry="11" style="stroke:#181818;stroke-width:1.0;"/><path d="M1099.2656,558.875 Q1099.4219,558.6563 1099.6094,558.5469 Q1099.7969,558.4375 1100.0156,558.4375 Q1100.3906,558.4375 1100.625,558.7031 Q1100.8594,558.9531 1100.8594,559.5625 L1100.8594,561.0156 Q1100.8594,561.625 1100.625,561.8906 Q1100.3906,562.1563 1100.0156,562.1563 Q1099.6719,562.1563 1099.4688,561.9531 Q1099.2656,561.7656 1099.1563,561.25 Q1099.1094,560.8906 1098.9219,560.7031 Q1098.5938,560.3281 1097.9844,560.1094 Q1097.375,559.8906 1096.75,559.8906 Q1095.9844,559.8906 1095.3438,560.2188 Q1094.7188,560.5469 1094.2188,561.2969 Q1093.7344,562.0469 1093.7344,563.0781 L1093.7344,564.1719 Q1093.7344,565.4063 1094.625,566.2344 Q1095.5156,567.0469 1097.1094,567.0469 Q1098.0469,567.0469 1098.7031,566.7969 Q1099.0938,566.6406 1099.5156,566.2031 Q1099.7813,565.9375 1099.9219,565.8594 Q1100.0781,565.7813 1100.2813,565.7813 Q1100.6094,565.7813 1100.8594,566.0469 Q1101.125,566.2969 1101.125,566.6406 Q1101.125,566.9844 1100.7813,567.3906 Q1100.2813,567.9688 1099.4844,568.2969 Q1098.4063,568.75 1097.1094,568.75 Q1095.5938,568.75 1094.3906,568.125 Q1093.4063,567.625 1092.7188,566.5625 Q1092.0313,565.4844 1092.0313,564.2031 L1092.0313,563.0469 Q1092.0313,561.7188 1092.6406,560.5781 Q1093.2656,559.4219 1094.3594,558.8125 Q1095.4531,558.1875 1096.6875,558.1875 Q1097.4219,558.1875 1098.0625,558.3594 Q1098.7188,558.5156 1099.2656,558.875 Z " fill="#000000"/><text fill="#000000" font-family="sans-serif" font-size="14" lengthAdjust="spacing" textLength="59" x="1110.5" y="568.7285">TurnView</text><line style="stroke:#181818;stroke-width:0.5;" x1="1082.5" x2="1171.5" y1="579" y2="579"/><line style="stroke:#181818;stroke-width:0.5;" x1="1082.5" x2="1171.5" y1="587" y2="587"/></g><!--class UserPlayerBoardView--><g id="elem_UserPlayerBoardView"><rect codeLine="21" fill="#F1F1F1" height="48" id="UserPlayerBoardView" rx="2.5" ry="2.5" style="stroke:#181818;stroke-width:0.5;" width="168" x="1147" y="655"/><ellipse cx="1162" cy="671" fill="#ADD1B2" rx="11" ry="11" style="stroke:#181818;stroke-width:1.0;"/><path d="M1164.7656,666.875 Q1164.9219,666.6563 1165.1094,666.5469 Q1165.2969,666.4375 1165.5156,666.4375 Q1165.8906,666.4375 1166.125,666.7031 Q1166.3594,666.9531 1166.3594,667.5625 L1166.3594,669.0156 Q1166.3594,669.625 1166.125,669.8906 Q1165.8906,670.1563 1165.5156,670.1563 Q1165.1719,670.1563 1164.9688,669.9531 Q1164.7656,669.7656 1164.6563,669.25 Q1164.6094,668.8906 1164.4219,668.7031 Q1164.0938,668.3281 1163.4844,668.1094 Q1162.875,667.8906 1162.25,667.8906 Q1161.4844,667.8906 1160.8438,668.2188 Q1160.2188,668.5469 1159.7188,669.2969 Q1159.2344,670.0469 1159.2344,671.0781 L1159.2344,672.1719 Q1159.2344,673.4063 1160.125,674.2344 Q1161.0156,675.0469 1162.6094,675.0469 Q1163.5469,675.0469 1164.2031,674.7969 Q1164.5938,674.6406 1165.0156,674.2031 Q1165.2813,673.9375 1165.4219,673.8594 Q1165.5781,673.7813 1165.7813,673.7813 Q1166.1094,673.7813 1166.3594,674.0469 Q1166.625,674.2969 1166.625,674.6406 Q1166.625,674.9844 1166.2813,675.3906 Q1165.7813,675.9688 1164.9844,676.2969 Q1163.9063,676.75 1162.6094,676.75 Q1161.0938,676.75 1159.8906,676.125 Q1158.9063,675.625 1158.2188,674.5625 Q1157.5313,673.4844 1157.5313,672.2031 L1157.5313,671.0469 Q1157.5313,669.7188 1158.1406,668.5781 Q1158.7656,667.4219 1159.8594,666.8125 Q1160.9531,666.1875 1162.1875,666.1875 Q1162.9219,666.1875 1163.5625,666.3594 Q1164.2188,666.5156 1164.7656,666.875 Z " fill="#000000"/><text fill="#000000" font-family="sans-serif" font-size="14" lengthAdjust="spacing" textLength="136" x="1176" y="676.7285">UserPlayerBoardView</text><line style="stroke:#181818;stroke-width:0.5;" x1="1148" x2="1314" y1="687" y2="687"/><line style="stroke:#181818;stroke-width:0.5;" x1="1148" x2="1314" y1="695" y2="695"/></g><!--class PanelView--><g id="elem_PanelView"><rect codeLine="22" fill="#F1F1F1" height="48" id="PanelView" rx="2.5" ry="2.5" style="stroke:#181818;stroke-width:0.5;" width="97" x="1079.5" y="223"/><ellipse cx="1094.5" cy="239" fill="#A9DCDF" rx="11" ry="11" style="stroke:#181818;stroke-width:1.0;"/><path d="M1096.6875,240.7656 L1092.5469,240.7656 L1092.125,241.7969 L1092.5469,241.7969 Q1093.1563,241.7969 1093.4219,242.0313 Q1093.6875,242.2656 1093.6875,242.6563 Q1093.6875,243.0313 1093.4219,243.2656 Q1093.1563,243.5 1092.5469,243.5 L1090.25,243.5 Q1089.6406,243.5 1089.3906,243.2656 Q1089.125,243.0313 1089.125,242.6406 Q1089.125,242.2656 1089.4063,242.0313 Q1089.6719,241.7813 1090.2969,241.7969 L1092.9688,235.1406 L1091.8594,235.1406 Q1091.25,235.1406 1090.9844,234.9063 Q1090.7188,234.6719 1090.7188,234.2813 Q1090.7188,233.9063 1090.9844,233.6719 Q1091.25,233.4375 1091.8594,233.4375 L1095.5313,233.4375 L1098.9219,241.7969 Q1099.5156,241.7969 1099.7031,241.9375 Q1100.0938,242.2031 1100.0938,242.6563 Q1100.0938,243.0313 1099.8281,243.2656 Q1099.5781,243.5 1098.9688,243.5 L1096.6719,243.5 Q1096.0625,243.5 1095.7969,243.2656 Q1095.5313,243.0313 1095.5313,242.6406 Q1095.5313,242.2656 1095.7969,242.0313 Q1096.0625,241.7969 1096.6719,241.7969 L1097.0938,241.7969 L1096.6875,240.7656 Z M1095.9688,239.0625 L1094.6094,235.6875 L1093.2344,239.0625 L1095.9688,239.0625 Z " fill="#000000"/><text fill="#000000" font-family="sans-serif" font-size="14" font-style="italic" lengthAdjust="spacing" textLength="65" x="1108.5" y="244.7285">PanelView</text><line style="stroke:#181818;stroke-width:0.5;" x1="1080.5" x2="1175.5" y1="255" y2="255"/><line style="stroke:#181818;stroke-width:0.5;" x1="1080.5" x2="1175.5" y1="263" y2="263"/></g><!--class JFrame--><g id="elem_JFrame"><rect codeLine="25" fill="#F1F1F1" height="48" id="JFrame" rx="2.5" ry="2.5" style="stroke:#181818;stroke-width:0.5;" width="79" x="1222.5" y="7"/><ellipse cx="1237.5" cy="23" fill="#ADD1B2" rx="11" ry="11" style="stroke:#181818;stroke-width:1.0;"/><path d="M1240.2656,18.875 Q1240.4219,18.6563 1240.6094,18.5469 Q1240.7969,18.4375 1241.0156,18.4375 Q1241.3906,18.4375 1241.625,18.7031 Q1241.8594,18.9531 1241.8594,19.5625 L1241.8594,21.0156 Q1241.8594,21.625 1241.625,21.8906 Q1241.3906,22.1563 1241.0156,22.1563 Q1240.6719,22.1563 1240.4688,21.9531 Q1240.2656,21.7656 1240.1563,21.25 Q1240.1094,20.8906 1239.9219,20.7031 Q1239.5938,20.3281 1238.9844,20.1094 Q1238.375,19.8906 1237.75,19.8906 Q1236.9844,19.8906 1236.3438,20.2188 Q1235.7188,20.5469 1235.2188,21.2969 Q1234.7344,22.0469 1234.7344,23.0781 L1234.7344,24.1719 Q1234.7344,25.4063 1235.625,26.2344 Q1236.5156,27.0469 1238.1094,27.0469 Q1239.0469,27.0469 1239.7031,26.7969 Q1240.0938,26.6406 1240.5156,26.2031 Q1240.7813,25.9375 1240.9219,25.8594 Q1241.0781,25.7813 1241.2813,25.7813 Q1241.6094,25.7813 1241.8594,26.0469 Q1242.125,26.2969 1242.125,26.6406 Q1242.125,26.9844 1241.7813,27.3906 Q1241.2813,27.9688 1240.4844,28.2969 Q1239.4063,28.75 1238.1094,28.75 Q1236.5938,28.75 1235.3906,28.125 Q1234.4063,27.625 1233.7188,26.5625 Q1233.0313,25.4844 1233.0313,24.2031 L1233.0313,23.0469 Q1233.0313,21.7188 1233.6406,20.5781 Q1234.2656,19.4219 1235.3594,18.8125 Q1236.4531,18.1875 1237.6875,18.1875 Q1238.4219,18.1875 1239.0625,18.3594 Q1239.7188,18.5156 1240.2656,18.875 Z " fill="#000000"/><text fill="#000000" font-family="sans-serif" font-size="14" lengthAdjust="spacing" textLength="47" x="1251.5" y="28.7285">JFrame</text><line style="stroke:#181818;stroke-width:0.5;" x1="1223.5" x2="1300.5" y1="39" y2="39"/><line style="stroke:#181818;stroke-width:0.5;" x1="1223.5" x2="1300.5" y1="47" y2="47"/></g><!--class Logic--><g id="elem_Logic"><rect codeLine="37" fill="#F1F1F1" height="48" id="Logic" rx="2.5" ry="2.5" style="stroke:#181818;stroke-width:0.5;" width="136" x="1347" y="547"/><ellipse cx="1362" cy="563" fill="#ADD1B2" rx="11" ry="11" style="stroke:#181818;stroke-width:1.0;"/><path d="M1364.7656,558.875 Q1364.9219,558.6563 1365.1094,558.5469 Q1365.2969,558.4375 1365.5156,558.4375 Q1365.8906,558.4375 1366.125,558.7031 Q1366.3594,558.9531 1366.3594,559.5625 L1366.3594,561.0156 Q1366.3594,561.625 1366.125,561.8906 Q1365.8906,562.1563 1365.5156,562.1563 Q1365.1719,562.1563 1364.9688,561.9531 Q1364.7656,561.7656 1364.6563,561.25 Q1364.6094,560.8906 1364.4219,560.7031 Q1364.0938,560.3281 1363.4844,560.1094 Q1362.875,559.8906 1362.25,559.8906 Q1361.4844,559.8906 1360.8438,560.2188 Q1360.2188,560.5469 1359.7188,561.2969 Q1359.2344,562.0469 1359.2344,563.0781 L1359.2344,564.1719 Q1359.2344,565.4063 1360.125,566.2344 Q1361.0156,567.0469 1362.6094,567.0469 Q1363.5469,567.0469 1364.2031,566.7969 Q1364.5938,566.6406 1365.0156,566.2031 Q1365.2813,565.9375 1365.4219,565.8594 Q1365.5781,565.7813 1365.7813,565.7813 Q1366.1094,565.7813 1366.3594,566.0469 Q1366.625,566.2969 1366.625,566.6406 Q1366.625,566.9844 1366.2813,567.3906 Q1365.7813,567.9688 1364.9844,568.2969 Q1363.9063,568.75 1362.6094,568.75 Q1361.0938,568.75 1359.8906,568.125 Q1358.9063,567.625 1358.2188,566.5625 Q1357.5313,565.4844 1357.5313,564.2031 L1357.5313,563.0469 Q1357.5313,561.7188 1358.1406,560.5781 Q1358.7656,559.4219 1359.8594,558.8125 Q1360.9531,558.1875 1362.1875,558.1875 Q1362.9219,558.1875 1363.5625,558.3594 Q1364.2188,558.5156 1364.7656,558.875 Z " fill="#000000"/><text fill="#000000" font-family="sans-serif" font-size="14" lengthAdjust="spacing" textLength="104" x="1376" y="568.7285">controllers.Logic</text><line style="stroke:#181818;stroke-width:0.5;" x1="1348" x2="1482" y1="579" y2="579"/><line style="stroke:#181818;stroke-width:0.5;" x1="1348" x2="1482" y1="587" y2="587"/></g><!--class View--><g id="elem_View"><rect codeLine="41" fill="#F1F1F1" height="48" id="View" rx="2.5" ry="2.5" style="stroke:#181818;stroke-width:0.5;" width="61" x="1041.5" y="7"/><ellipse cx="1056.5" cy="23" fill="#A9DCDF" rx="11" ry="11" style="stroke:#181818;stroke-width:1.0;"/><path d="M1058.6875,24.7656 L1054.5469,24.7656 L1054.125,25.7969 L1054.5469,25.7969 Q1055.1563,25.7969 1055.4219,26.0313 Q1055.6875,26.2656 1055.6875,26.6563 Q1055.6875,27.0313 1055.4219,27.2656 Q1055.1563,27.5 1054.5469,27.5 L1052.25,27.5 Q1051.6406,27.5 1051.3906,27.2656 Q1051.125,27.0313 1051.125,26.6406 Q1051.125,26.2656 1051.4063,26.0313 Q1051.6719,25.7813 1052.2969,25.7969 L1054.9688,19.1406 L1053.8594,19.1406 Q1053.25,19.1406 1052.9844,18.9063 Q1052.7188,18.6719 1052.7188,18.2813 Q1052.7188,17.9063 1052.9844,17.6719 Q1053.25,17.4375 1053.8594,17.4375 L1057.5313,17.4375 L1060.9219,25.7969 Q1061.5156,25.7969 1061.7031,25.9375 Q1062.0938,26.2031 1062.0938,26.6563 Q1062.0938,27.0313 1061.8281,27.2656 Q1061.5781,27.5 1060.9688,27.5 L1058.6719,27.5 Q1058.0625,27.5 1057.7969,27.2656 Q1057.5313,27.0313 1057.5313,26.6406 Q1057.5313,26.2656 1057.7969,26.0313 Q1058.0625,25.7969 1058.6719,25.7969 L1059.0938,25.7969 L1058.6875,24.7656 Z M1057.9688,23.0625 L1056.6094,19.6875 L1055.2344,23.0625 L1057.9688,23.0625 Z " fill="#000000"/><text fill="#000000" font-family="sans-serif" font-size="14" font-style="italic" lengthAdjust="spacing" textLength="29" x="1070.5" y="28.7285">View</text><line style="stroke:#181818;stroke-width:0.5;" x1="1042.5" x2="1101.5" y1="39" y2="39"/><line style="stroke:#181818;stroke-width:0.5;" x1="1042.5" x2="1101.5" y1="47" y2="47"/></g><!--class JOptionPane--><g id="elem_JOptionPane"><rect codeLine="44" fill="#F1F1F1" height="48" id="JOptionPane" rx="2.5" ry="2.5" style="stroke:#181818;stroke-width:0.5;" width="113" x="1347.5" y="331"/><ellipse cx="1362.5" cy="347" fill="#ADD1B2" rx="11" ry="11" style="stroke:#181818;stroke-width:1.0;"/><path d="M1365.2656,342.875 Q1365.4219,342.6563 1365.6094,342.5469 Q1365.7969,342.4375 1366.0156,342.4375 Q1366.3906,342.4375 1366.625,342.7031 Q1366.8594,342.9531 1366.8594,343.5625 L1366.8594,345.0156 Q1366.8594,345.625 1366.625,345.8906 Q1366.3906,346.1563 1366.0156,346.1563 Q1365.6719,346.1563 1365.4688,345.9531 Q1365.2656,345.7656 1365.1563,345.25 Q1365.1094,344.8906 1364.9219,344.7031 Q1364.5938,344.3281 1363.9844,344.1094 Q1363.375,343.8906 1362.75,343.8906 Q1361.9844,343.8906 1361.3438,344.2188 Q1360.7188,344.5469 1360.2188,345.2969 Q1359.7344,346.0469 1359.7344,347.0781 L1359.7344,348.1719 Q1359.7344,349.4063 1360.625,350.2344 Q1361.5156,351.0469 1363.1094,351.0469 Q1364.0469,351.0469 1364.7031,350.7969 Q1365.0938,350.6406 1365.5156,350.2031 Q1365.7813,349.9375 1365.9219,349.8594 Q1366.0781,349.7813 1366.2813,349.7813 Q1366.6094,349.7813 1366.8594,350.0469 Q1367.125,350.2969 1367.125,350.6406 Q1367.125,350.9844 1366.7813,351.3906 Q1366.2813,351.9688 1365.4844,352.2969 Q1364.4063,352.75 1363.1094,352.75 Q1361.5938,352.75 1360.3906,352.125 Q1359.4063,351.625 1358.7188,350.5625 Q1358.0313,349.4844 1358.0313,348.2031 L1358.0313,347.0469 Q1358.0313,345.7188 1358.6406,344.5781 Q1359.2656,343.4219 1360.3594,342.8125 Q1361.4531,342.1875 1362.6875,342.1875 Q1363.4219,342.1875 1364.0625,342.3594 Q1364.7188,342.5156 1365.2656,342.875 Z " fill="#000000"/><text fill="#000000" font-family="sans-serif" font-size="14" lengthAdjust="spacing" textLength="81" x="1376.5" y="352.7285">JOptionPane</text><line style="stroke:#181818;stroke-width:0.5;" x1="1348.5" x2="1459.5" y1="363" y2="363"/><line style="stroke:#181818;stroke-width:0.5;" x1="1348.5" x2="1459.5" y1="371" y2="371"/></g><!--class JPanel--><g id="elem_JPanel"><rect fill="#F1F1F1" height="48" id="JPanel" rx="2.5" ry="2.5" style="stroke:#181818;stroke-width:0.5;" width="74" x="1348" y="115"/><ellipse cx="1363" cy="131" fill="#ADD1B2" rx="11" ry="11" style="stroke:#181818;stroke-width:1.0;"/><path d="M1365.7656,126.875 Q1365.9219,126.6563 1366.1094,126.5469 Q1366.2969,126.4375 1366.5156,126.4375 Q1366.8906,126.4375 1367.125,126.7031 Q1367.3594,126.9531 1367.3594,127.5625 L1367.3594,129.0156 Q1367.3594,129.625 1367.125,129.8906 Q1366.8906,130.1563 1366.5156,130.1563 Q1366.1719,130.1563 1365.9688,129.9531 Q1365.7656,129.7656 1365.6563,129.25 Q1365.6094,128.8906 1365.4219,128.7031 Q1365.0938,128.3281 1364.4844,128.1094 Q1363.875,127.8906 1363.25,127.8906 Q1362.4844,127.8906 1361.8438,128.2188 Q1361.2188,128.5469 1360.7188,129.2969 Q1360.2344,130.0469 1360.2344,131.0781 L1360.2344,132.1719 Q1360.2344,133.4063 1361.125,134.2344 Q1362.0156,135.0469 1363.6094,135.0469 Q1364.5469,135.0469 1365.2031,134.7969 Q1365.5938,134.6406 1366.0156,134.2031 Q1366.2813,133.9375 1366.4219,133.8594 Q1366.5781,133.7813 1366.7813,133.7813 Q1367.1094,133.7813 1367.3594,134.0469 Q1367.625,134.2969 1367.625,134.6406 Q1367.625,134.9844 1367.2813,135.3906 Q1366.7813,135.9688 1365.9844,136.2969 Q1364.9063,136.75 1363.6094,136.75 Q1362.0938,136.75 1360.8906,136.125 Q1359.9063,135.625 1359.2188,134.5625 Q1358.5313,133.4844 1358.5313,132.2031 L1358.5313,131.0469 Q1358.5313,129.7188 1359.1406,128.5781 Q1359.7656,127.4219 1360.8594,126.8125 Q1361.9531,126.1875 1363.1875,126.1875 Q1363.9219,126.1875 1364.5625,126.3594 Q1365.2188,126.5156 1365.7656,126.875 Z " fill="#000000"/><text fill="#000000" font-family="sans-serif" font-size="14" lengthAdjust="spacing" textLength="42" x="1377" y="136.7285">JPanel</text><line style="stroke:#181818;stroke-width:0.5;" x1="1349" x2="1421" y1="147" y2="147"/><line style="stroke:#181818;stroke-width:0.5;" x1="1349" x2="1421" y1="155" y2="155"/></g><!--reverse link JFrame to FrameView--><g id="link_JFrame_FrameView"><path codeLine="26" d="M1262,73 C1262,90.66 1262,96.94 1262,114.68 " fill="none" id="JFrame-backto-FrameView" style="stroke:#181818;stroke-width:1.0;"/><polygon fill="none" points="1262,55,1256,73,1268,73,1262,55" style="stroke:#181818;stroke-width:1.0;"/></g><!--reverse link FrameView to MainFrame--><g id="link_FrameView_MainFrame"><path codeLine="27" d="M1262.3831,180.9993 C1262.5431,198.6593 1262.61,204.94 1262.78,222.68 " fill="none" id="FrameView-backto-MainFrame" style="stroke:#181818;stroke-width:1.0;"/><polygon fill="none" points="1262.22,163,1256.3833,181.0536,1268.3828,180.9449,1262.22,163" style="stroke:#181818;stroke-width:1.0;"/></g><!--link GraphicsView to MainFrame--><g id="link_GraphicsView_MainFrame"><path codeLine="28" d="M1123.9325,168.823 C1155.8625,186.543 1184.0735,202.1989 1216.0635,219.9489 " fill="none" id="GraphicsView-MainFrame" style="stroke:#181818;stroke-width:1.0;"/><polygon fill="#181818" points="1113.44,163,1116.7453,169.409,1123.9325,168.823,1120.6273,162.414,1113.44,163" style="stroke:#181818;stroke-width:1.0;"/><polygon fill="#181818" points="1221.31,222.86,1215.381,214.9957,1216.9379,220.4341,1211.4996,221.9911,1221.31,222.86" style="stroke:#181818;stroke-width:1.0;"/></g><!--link MainFrame to Logic--><g id="link_MainFrame_Logic"><path codeLine="31" d="M1314.8,251.86 C1365.92,258.74 1441.56,277.88 1478,331 C1525.09,399.65 1468.0954,496.6119 1436.0454,541.9119 " fill="none" id="MainFrame-to-Logic" style="stroke:#181818;stroke-width:1.0;"/><polygon fill="#181818" points="1432.58,546.81,1441.0435,541.7732,1435.4678,542.7283,1434.5127,537.1526,1432.58,546.81" style="stroke:#181818;stroke-width:1.0;"/></g><!--link StartPanelView to Logic--><g id="link_StartPanelView_Logic"><path codeLine="35" d="M1090.76,481.39 C1152.28,498.18 1248.02,524.31 1331,547 C1336.1,548.4 1335.5919,548.2595 1340.9019,549.7095 " fill="none" id="StartPanelView-to-Logic" style="stroke:#181818;stroke-width:1.0;"/><polygon fill="#181818" points="1346.69,551.29,1339.0616,545.0605,1341.8666,549.9729,1336.9542,552.7779,1346.69,551.29" style="stroke:#181818;stroke-width:1.0;"/></g><!--link PlayPanelView to Logic--><g id="link_PlayPanelView_Logic"><path codeLine="39" d="M928.26,482.72 C934.23,484.26 940.21,485.72 946,487 C1115.1,524.33 1161.66,510.74 1331,547 C1336.17,548.11 1335.6722,547.913 1341.0222,549.223 " fill="none" id="PlayPanelView-to-Logic" style="stroke:#181818;stroke-width:1.0;"/><polygon fill="#181818" points="1346.85,550.65,1339.0596,544.6243,1341.9935,549.4608,1337.1569,552.3947,1346.85,550.65" style="stroke:#181818;stroke-width:1.0;"/></g><!--reverse link View to GraphicsView--><g id="link_View_GraphicsView"><path codeLine="42" d="M1072,73 C1072,90.66 1072,96.94 1072,114.68 " fill="none" id="View-backto-GraphicsView" style="stroke:#181818;stroke-width:1.0;"/><polygon fill="none" points="1072,55,1066,73,1078,73,1072,55" style="stroke:#181818;stroke-width:1.0;"/></g><!--link MainFrame to JOptionPane--><g id="link_MainFrame_JOptionPane"><path codeLine="45" d="M1293.59,271 C1317.08,288.66 1344.5839,309.3348 1368.1839,327.0748 " fill="none" id="MainFrame-to-JOptionPane" style="stroke:#181818;stroke-width:1.0;stroke-dasharray:7.0,7.0;"/><polygon fill="#181818" points="1372.98,330.68,1368.1893,322.0748,1368.9833,327.6757,1363.3824,328.4696,1372.98,330.68" style="stroke:#181818;stroke-width:1.0;"/></g><!--reverse link JPanel to PanelView--><g id="link_JPanel_PanelView"><path codeLine="47" d="M1331.2766,162.9331 C1325.6366,165.3231 1336.45,160.72 1331,163 C1278.47,184.92 1218.06,209.55 1176.89,226.24 " fill="none" id="JPanel-backto-PanelView" style="stroke:#181818;stroke-width:1.0;"/><polygon fill="none" points="1347.85,155.91,1328.9356,157.4087,1333.6177,168.4576,1347.85,155.91" style="stroke:#181818;stroke-width:1.0;"/></g><!--reverse link PanelView to GameLoopView--><g id="link_PanelView_GameLoopView"><path codeLine="48" d="M1093.3905,283.9716 C1076.4005,301.6316 1065.51,312.94 1048.44,330.68 " fill="none" id="PanelView-backto-GameLoopView" style="stroke:#181818;stroke-width:1.0;"/><polygon fill="none" points="1105.87,271,1089.0667,279.8118,1097.7144,288.1314,1105.87,271" style="stroke:#181818;stroke-width:1.0;"/></g><!--reverse link GameLoopView to StartPanelView--><g id="link_GameLoopView_StartPanelView"><path codeLine="49" d="M1026.3831,396.9993 C1026.5431,414.6593 1026.61,420.94 1026.78,438.68 " fill="none" id="GameLoopView-backto-StartPanelView" style="stroke:#181818;stroke-width:1.0;"/><polygon fill="none" points="1026.22,379,1020.3833,397.0536,1032.3828,396.9449,1026.22,379" style="stroke:#181818;stroke-width:1.0;"/></g><!--reverse link GameLoopView to PlayPanelView--><g id="link_GameLoopView_PlayPanelView"><path codeLine="50" d="M976.2755,388.9431 C949.5355,406.6631 927.72,421.11 900.93,438.86 " fill="none" id="GameLoopView-backto-PlayPanelView" style="stroke:#181818;stroke-width:1.0;"/><polygon fill="none" points="991.28,379,972.9612,383.9416,979.5899,393.9446,991.28,379" style="stroke:#181818;stroke-width:1.0;"/></g><!--reverse link PanelView to BoardView--><g id="link_PanelView_BoardView"><path codeLine="51" d="M1129.223,289.0943 C1130.553,341.9243 1130.79,451.78 1108,487 C1085.2,522.23 1042.01,543.83 1007.81,556.13 " fill="none" id="PanelView-backto-BoardView" style="stroke:#181818;stroke-width:1.0;"/><polygon fill="none" points="1128.77,271.1,1123.2249,289.2453,1135.2211,288.9433,1128.77,271.1" style="stroke:#181818;stroke-width:1.0;"/></g><!--reverse link PanelView to TurnView--><g id="link_PanelView_TurnView"><path codeLine="52" d="M1133.4795,289.0538 C1135.6095,305.6638 1135.9,310.74 1137,331 C1140.74,400.23 1141.15,417.79 1137,487 C1135.78,507.28 1132.91,530.2 1130.55,546.81 " fill="none" id="PanelView-backto-TurnView" style="stroke:#181818;stroke-width:1.0;"/><polygon fill="none" points="1131.19,271.2,1127.5282,289.817,1139.4308,288.2906,1131.19,271.2" style="stroke:#181818;stroke-width:1.0;"/></g><!--link GraphicsView to GameLoopView--><g id="link_GraphicsView_GameLoopView"><path codeLine="54" d="M1066.99,163.31 C1058.14,204.47 1041.1118,283.7142 1032.2618,324.8542 " fill="none" id="GraphicsView-to-GameLoopView" style="stroke:#181818;stroke-width:1.0;stroke-dasharray:7.0,7.0;"/><polygon fill="#181818" points="1031,330.72,1036.8033,322.7625,1032.0515,325.8318,1028.9822,321.0801,1031,330.72" style="stroke:#181818;stroke-width:1.0;"/></g><!--link MainFrame to GameLoopView--><g id="link_MainFrame_GameLoopView"><path codeLine="55" d="M1211.57,271 C1171.96,288.72 1122.9075,310.661 1083.2075,328.411 " fill="none" id="MainFrame-to-GameLoopView" style="stroke:#181818;stroke-width:1.0;"/><polygon fill="#181818" points="1077.73,330.86,1087.5788,330.8382,1082.2945,328.8192,1084.3135,323.5349,1077.73,330.86" style="stroke:#181818;stroke-width:1.0;"/></g><!--link PlayPanelView to BoardView--><g id="link_PlayPanelView_BoardView"><path codeLine="57" d="M893.8264,496.062 C909.1564,513.722 918.4267,524.4091 933.8267,542.1491 " fill="none" id="PlayPanelView-BoardView" style="stroke:#181818;stroke-width:1.0;"/><polygon fill="#181818" points="885.96,487,886.8725,494.1531,893.8264,496.062,892.9139,488.9089,885.96,487" style="stroke:#181818;stroke-width:1.0;"/><polygon fill="#181818" points="937.76,546.68,934.8807,537.2614,934.4823,542.9042,928.8395,542.5058,937.76,546.68" style="stroke:#181818;stroke-width:1.0;"/></g><!--link PlayPanelView to TurnView--><g id="link_PlayPanelView_TurnView"><path codeLine="58" d="M933.7483,491.5147 C981.2783,510.8147 1031.6209,531.2624 1075.7709,549.1924 " fill="none" id="PlayPanelView-TurnView" style="stroke:#181818;stroke-width:1.0;"/><polygon fill="#181818" points="922.63,487,926.6843,492.9635,933.7483,491.5147,929.6941,485.5512,922.63,487" style="stroke:#181818;stroke-width:1.0;"/><polygon fill="#181818" points="1081.33,551.45,1074.4965,544.3575,1076.6974,549.5686,1071.4863,551.7696,1081.33,551.45" style="stroke:#181818;stroke-width:1.0;"/></g><!--link PlayPanelView to BoardViewPrototypeRegistry--><g id="link_PlayPanelView_BoardViewPrototypeRegistry"><path codeLine="59" d="M792.0066,477.0632 C716.2166,490.9532 596.4,514.91 486,547 C377.01,578.69 258.9411,624.4573 189.2011,652.7073 " fill="none" id="PlayPanelView-BoardViewPrototypeRegistry" style="stroke:#181818;stroke-width:1.0;"/><polygon fill="#181818" points="803.81,474.9,797.1872,472.0471,792.0066,477.0632,798.6294,479.9161,803.81,474.9" style="stroke:#181818;stroke-width:1.0;"/><polygon fill="#181818" points="183.64,654.96,193.4834,655.2884,188.2742,653.0828,190.4798,647.8736,183.64,654.96" style="stroke:#181818;stroke-width:1.0;"/></g><!--link PlayPanelView to BoardViewPrototypeDirector--><g id="link_PlayPanelView_BoardViewPrototypeDirector"><path codeLine="60" d="M810.02,487 C766.89,504.72 713.08,526.8302 669.87,544.5802 " fill="none" id="PlayPanelView-to-BoardViewPrototypeDirector" style="stroke:#181818;stroke-width:1.0;stroke-dasharray:7.0,7.0;"/><polygon fill="#181818" points="664.32,546.86,674.1649,547.1402,668.945,544.9601,671.1251,539.7402,664.32,546.86" style="stroke:#181818;stroke-width:1.0;"/></g><!--link BoardViewPrototypeDirector to BoardViewPrototypeRegistry--><g id="link_BoardViewPrototypeDirector_BoardViewPrototypeRegistry"><path codeLine="61" d="M503.85,595 C423.47,612.75 318.6489,635.8963 238.2189,653.6563 " fill="none" id="BoardViewPrototypeDirector-to-BoardViewPrototypeRegistry" style="stroke:#181818;stroke-width:1.0;"/><polygon fill="#181818" points="232.36,654.95,242.0108,656.9153,237.2424,653.8719,240.2858,649.1035,232.36,654.95" style="stroke:#181818;stroke-width:1.0;"/></g><!--link StartPanelView to ViewCommand--><g id="link_StartPanelView_ViewCommand"><path codeLine="63" d="M980.13,487 C944.02,504.72 899.7167,526.4673 863.5367,544.2173 " fill="none" id="StartPanelView-to-ViewCommand" style="stroke:#181818;stroke-width:1.0;"/><polygon fill="#181818" points="858.15,546.86,867.9918,546.487,862.6389,544.6577,864.4682,539.3048,858.15,546.86" style="stroke:#181818;stroke-width:1.0;"/></g><!--link PlayPanelView to ViewCommand--><g id="link_PlayPanelView_ViewCommand"><path codeLine="64" d="M854.07,487 C844.9,504.66 835.0623,523.6137 825.8623,541.3537 " fill="none" id="PlayPanelView-to-ViewCommand" style="stroke:#181818;stroke-width:1.0;"/><polygon fill="#181818" points="823.1,546.68,830.7943,540.532,825.4019,542.2414,823.6925,536.849,823.1,546.68" style="stroke:#181818;stroke-width:1.0;"/></g><!--reverse link Command to PanelViewCommand--><g id="link_Command_PanelViewCommand"><path codeLine="66" d="M531.3251,496.5166 C508.5151,510.4366 498.75,521.12 486,547 C468.17,583.2 493.6,627.92 513.44,654.63 " fill="none" id="Command-backto-PanelViewCommand" style="stroke:#181818;stroke-width:1.0;"/><polygon fill="none" points="546.69,487.14,528.1996,491.3949,534.4506,501.6382,546.69,487.14" style="stroke:#181818;stroke-width:1.0;"/></g><!--reverse link PanelViewCommand to NextTurnCommand--><g id="link_PanelViewCommand_NextTurnCommand"><path codeLine="67" d="M533,721 C533,738.66 533,744.94 533,762.68 " fill="none" id="PanelViewCommand-backto-NextTurnCommand" style="stroke:#181818;stroke-width:1.0;"/><polygon fill="none" points="533,703,527,721,539,721,533,703" style="stroke:#181818;stroke-width:1.0;"/></g><!--reverse link Command to ViewCommand--><g id="link_Command_ViewCommand"><path codeLine="68" d="M657.263,494.9015 C693.533,512.6215 727.29,529.11 763.63,546.86 " fill="none" id="Command-backto-ViewCommand" style="stroke:#181818;stroke-width:1.0;"/><polygon fill="none" points="641.09,487,654.6292,500.2925,659.8969,489.5105,641.09,487" style="stroke:#181818;stroke-width:1.0;"/></g><!--reverse link ViewCommand to PlayCommand--><g id="link_ViewCommand_PlayCommand"><path codeLine="69" d="M776.6658,608.0341 C759.8458,625.6941 749.12,636.94 732.22,654.68 " fill="none" id="ViewCommand-backto-PlayCommand" style="stroke:#181818;stroke-width:1.0;"/><polygon fill="none" points="789.08,595,772.3211,603.8961,781.0105,612.1722,789.08,595" style="stroke:#181818;stroke-width:1.0;"/></g><!--reverse link ViewCommand to ResumeCommand--><g id="link_ViewCommand_ResumeCommand"><path codeLine="70" d="M730.8557,595.2277 C600.4757,627.1277 565.92,625.38 435,655 C429.22,656.31 423.24,657.7 417.25,659.13 " fill="none" id="ViewCommand-backto-ResumeCommand" style="stroke:#181818;stroke-width:1.0;"/><polygon fill="none" points="748.24,590.56,729.2998,589.433,732.4116,601.0225,748.24,590.56" style="stroke:#181818;stroke-width:1.0;"/></g><!--reverse link BoardView to MachinePlayerBoardView--><g id="link_BoardView_MachinePlayerBoardView"><path codeLine="73" d="M937.7751,610.9748 C928.6051,628.6348 924.3,636.94 915.1,654.68 " fill="none" id="BoardView-backto-MachinePlayerBoardView" style="stroke:#181818;stroke-width:1.0;"/><polygon fill="none" points="946.07,595,932.4501,608.2098,943.1,613.7398,946.07,595" style="stroke:#181818;stroke-width:1.0;"/></g><!--reverse link BoardView to UserPlayerBoardView--><g id="link_BoardView_UserPlayerBoardView"><path codeLine="74" d="M1024.5302,597.8335 C1070.6702,615.7435 1122.61,635.91 1171.6,654.94 " fill="none" id="BoardView-backto-UserPlayerBoardView" style="stroke:#181818;stroke-width:1.0;"/><polygon fill="none" points="1007.75,591.32,1022.359,603.4269,1026.7013,592.2401,1007.75,591.32" style="stroke:#181818;stroke-width:1.0;"/></g><!--link MachinePlayerBoardView to NonClickableSquare--><g id="link_MachinePlayerBoardView_NonClickableSquare"><path codeLine="75" d="M914.6703,714.3621 C920.6703,732.0221 923.1319,739.2582 929.1519,756.9982 " fill="none" id="MachinePlayerBoardView-NonClickableSquare" style="stroke:#181818;stroke-width:1.0;"/><polygon fill="none" points="910.81,703,908.9528,709.9678,914.6703,714.3621,916.5275,707.3943,910.81,703" style="stroke:#181818;stroke-width:1.0;"/><polygon fill="#181818" points="931.08,762.68,931.9757,752.872,929.4733,757.9452,924.4,755.4427,931.08,762.68" style="stroke:#181818;stroke-width:1.0;"/></g><!--link UserPlayerBoardView to ClickableSquare--><g id="link_UserPlayerBoardView_ClickableSquare"><path codeLine="76" d="M1219.0178,714.3305 C1212.8578,731.9905 1210.3067,739.275 1204.1167,757.015 " fill="none" id="UserPlayerBoardView-ClickableSquare" style="stroke:#181818;stroke-width:1.0;"/><polygon fill="none" points="1222.97,703,1217.2171,707.3478,1219.0178,714.3305,1224.7707,709.9826,1222.97,703" style="stroke:#181818;stroke-width:1.0;"/><polygon fill="#181818" points="1202.14,762.68,1208.8817,755.5002,1203.7872,757.9591,1201.3284,752.8646,1202.14,762.68" style="stroke:#181818;stroke-width:1.0;"/></g><!--reverse link Square to ClickableSquare--><g id="link_Square_ClickableSquare"><path codeLine="77" d="M1112.7968,714.864 C1132.9468,732.524 1147.13,744.94 1167.38,762.68 " fill="none" id="Square-backto-ClickableSquare" style="stroke:#181818;stroke-width:1.0;"/><polygon fill="none" points="1099.26,703,1108.8421,719.3763,1116.7515,710.3518,1099.26,703" style="stroke:#181818;stroke-width:1.0;"/></g><!--reverse link Square to NonClickableSquare--><g id="link_Square_NonClickableSquare"><path codeLine="78" d="M1029.8041,714.1688 C1007.4841,731.8288 990.91,744.94 968.48,762.68 " fill="none" id="Square-backto-NonClickableSquare" style="stroke:#181818;stroke-width:1.0;"/><polygon fill="none" points="1043.92,703,1026.0812,709.4635,1033.527,718.8741,1043.92,703" style="stroke:#181818;stroke-width:1.0;"/></g><!--link BoardView to PanelViewCommand--><g id="link_BoardView_PanelViewCommand"><path codeLine="80" d="M908.42,589.66 C902.58,591.55 896.68,593.38 891,595 C776.98,627.63 746.51,628.12 631,655 C625.38,656.31 625.4336,656.2992 619.5936,657.6592 " fill="none" id="BoardView-to-PanelViewCommand" style="stroke:#181818;stroke-width:1.0;"/><polygon fill="#181818" points="613.75,659.02,623.4227,660.8745,618.6197,657.886,621.6082,653.083,613.75,659.02" style="stroke:#181818;stroke-width:1.0;"/></g><!--SRC=[bLJBJW8n5DttAngN9iCN61PY92681DILcrAkq3ZJZcs9alZnqkamVSvCN4svvvpxvZAkGNuG2lWWINraL4qU9QdWZS4teYLHoW5FXF46H2nLpI_sfH1r8oGxfIMX6aSUxWMH-vph3bXBeOK-r_30950jv3Xp0mTs2NVEPJKJLKNulZUXDU5G6czZH9yJGVFsaMyPFJ8EwvASGVPMlu8V_NAIl2U0KGz0NGqnk05rgg17kVqw4GcnTLOo-abs9UJXbU0ZZAqcKlTcP8hCsLyLoBX7eoD3g7Mpi4jfF_ZkjoYms-7kPG6tm_xOy6rHJ3siTRmK1qOnKVY62gwbA4kGQj9ORr37naRR68TrxxnLeh19_zS7K_VbKS-Q1hZQWqMzzkwvranmuyshQ3AP1WXQDE6i6pS0buFrxvy0_uU5ezL82U4oHyxTOaH0jrFXH4q9GKBXl08eQcYp35wy5EnY3WdJ0nMoJOO3TwyVmYDXSllbtwzqVNmKjOzes9quCbXQVC42q9SdIl-u9M1umP3hoVNFdBsk4IjtNF9AB4mpCaSkuy9oOwBzsBX3M2Q6bxRnd3J-3m00]--></g></svg>