<?xml version="1.0" encoding="us-ascii" standalone="no"?><svg xmlns="http://www.w3.org/2000/svg" xmlns:xlink="http://www.w3.org/1999/xlink" contentStyleType="text/css" height="1662px" preserveAspectRatio="none" style="width:1389px;height:1662px;background:#FFFFFF;" version="1.1" viewBox="0 0 1389 1662" width="1389px" zoomAndPan="magnify"><defs/><g><!--cluster graphics--><g id="cluster_graphics"><path d="M214.5,79 L276.5,79 A3.75,3.75 0 0 1 279,81.5 L286,102.6094 L945.5,102.6094 A2.5,2.5 0 0 1 948,105.1094 L948,1652.5 A2.5,2.5 0 0 1 945.5,1655 L214.5,1655 A2.5,2.5 0 0 1 212,1652.5 L212,81.5 A2.5,2.5 0 0 1 214.5,79 " fill="none" style="stroke:#000000;stroke-width:1.5;"/><line style="stroke:#000000;stroke-width:1.5;" x1="212" x2="286" y1="102.6094" y2="102.6094"/><text fill="#000000" font-family="sans-serif" font-size="14" font-weight="bold" lengthAdjust="spacing" textLength="61" x="216" y="95.5332">graphics</text></g><!--class GraphicsView--><g id="elem_GraphicsView"><rect codeLine="1" fill="#F1F1F1" height="118.4375" id="GraphicsView" rx="2.5" ry="2.5" style="stroke:#181818;stroke-width:0.5;" width="198" x="691" y="115"/><ellipse cx="742.75" cy="131" fill="#ADD1B2" rx="11" ry="11" style="stroke:#181818;stroke-width:1.0;"/><path d="M745.5156,126.875 Q745.6719,126.6563 745.8594,126.5469 Q746.0469,126.4375 746.2656,126.4375 Q746.6406,126.4375 746.875,126.7031 Q747.1094,126.9531 747.1094,127.5625 L747.1094,129.0156 Q747.1094,129.625 746.875,129.8906 Q746.6406,130.1563 746.2656,130.1563 Q745.9219,130.1563 745.7188,129.9531 Q745.5156,129.7656 745.4063,129.25 Q745.3594,128.8906 745.1719,128.7031 Q744.8438,128.3281 744.2344,128.1094 Q743.625,127.8906 743,127.8906 Q742.2344,127.8906 741.5938,128.2188 Q740.9688,128.5469 740.4688,129.2969 Q739.9844,130.0469 739.9844,131.0781 L739.9844,132.1719 Q739.9844,133.4063 740.875,134.2344 Q741.7656,135.0469 743.3594,135.0469 Q744.2969,135.0469 744.9531,134.7969 Q745.3438,134.6406 745.7656,134.2031 Q746.0313,133.9375 746.1719,133.8594 Q746.3281,133.7813 746.5313,133.7813 Q746.8594,133.7813 747.1094,134.0469 Q747.375,134.2969 747.375,134.6406 Q747.375,134.9844 747.0313,135.3906 Q746.5313,135.9688 745.7344,136.2969 Q744.6563,136.75 743.3594,136.75 Q741.8438,136.75 740.6406,136.125 Q739.6563,135.625 738.9688,134.5625 Q738.2813,133.4844 738.2813,132.2031 L738.2813,131.0469 Q738.2813,129.7188 738.8906,128.5781 Q739.5156,127.4219 740.6094,126.8125 Q741.7031,126.1875 742.9375,126.1875 Q743.6719,126.1875 744.3125,126.3594 Q744.9688,126.5156 745.5156,126.875 Z " fill="#000000"/><text fill="#000000" font-family="sans-serif" font-size="14" lengthAdjust="spacing" textLength="86" x="763.25" y="136.7285">GraphicsView</text><line style="stroke:#181818;stroke-width:0.5;" x1="692" x2="888" y1="147" y2="147"/><line style="stroke:#181818;stroke-width:0.5;" x1="692" x2="888" y1="155" y2="155"/><ellipse cx="702" cy="169.3047" fill="#84BE84" rx="3" ry="3" style="stroke:#038048;stroke-width:1.0;"/><text fill="#000000" font-family="sans-serif" font-size="14" lengthAdjust="spacing" textLength="130" x="711" y="173.5332">start(StartController)</text><ellipse cx="702" cy="186.9141" fill="#84BE84" rx="3" ry="3" style="stroke:#038048;stroke-width:1.0;"/><text fill="#000000" font-family="sans-serif" font-size="14" lengthAdjust="spacing" textLength="125" x="711" y="191.1426">play(PlayController)</text><ellipse cx="702" cy="204.5234" fill="#84BE84" rx="3" ry="3" style="stroke:#038048;stroke-width:1.0;"/><text fill="#000000" font-family="sans-serif" font-size="14" lengthAdjust="spacing" textLength="171" x="711" y="208.752">resume(ResumeController)</text><ellipse cx="702" cy="222.1328" fill="#84BE84" rx="3" ry="3" style="stroke:#038048;stroke-width:1.0;"/><text fill="#000000" font-family="sans-serif" font-size="14" lengthAdjust="spacing" textLength="172" x="711" y="226.3613">setLatch(CountDownLatch)</text></g><!--class MainFrame--><g id="elem_MainFrame"><rect codeLine="9" fill="#F1F1F1" height="118.4375" id="MainFrame" rx="2.5" ry="2.5" style="stroke:#181818;stroke-width:0.5;" width="283" x="648.5" y="293"/><ellipse cx="750.25" cy="309" fill="#ADD1B2" rx="11" ry="11" style="stroke:#181818;stroke-width:1.0;"/><path d="M753.0156,304.875 Q753.1719,304.6563 753.3594,304.5469 Q753.5469,304.4375 753.7656,304.4375 Q754.1406,304.4375 754.375,304.7031 Q754.6094,304.9531 754.6094,305.5625 L754.6094,307.0156 Q754.6094,307.625 754.375,307.8906 Q754.1406,308.1563 753.7656,308.1563 Q753.4219,308.1563 753.2188,307.9531 Q753.0156,307.7656 752.9063,307.25 Q752.8594,306.8906 752.6719,306.7031 Q752.3438,306.3281 751.7344,306.1094 Q751.125,305.8906 750.5,305.8906 Q749.7344,305.8906 749.0938,306.2188 Q748.4688,306.5469 747.9688,307.2969 Q747.4844,308.0469 747.4844,309.0781 L747.4844,310.1719 Q747.4844,311.4063 748.375,312.2344 Q749.2656,313.0469 750.8594,313.0469 Q751.7969,313.0469 752.4531,312.7969 Q752.8438,312.6406 753.2656,312.2031 Q753.5313,311.9375 753.6719,311.8594 Q753.8281,311.7813 754.0313,311.7813 Q754.3594,311.7813 754.6094,312.0469 Q754.875,312.2969 754.875,312.6406 Q754.875,312.9844 754.5313,313.3906 Q754.0313,313.9688 753.2344,314.2969 Q752.1563,314.75 750.8594,314.75 Q749.3438,314.75 748.1406,314.125 Q747.1563,313.625 746.4688,312.5625 Q745.7813,311.4844 745.7813,310.2031 L745.7813,309.0469 Q745.7813,307.7188 746.3906,306.5781 Q747.0156,305.4219 748.1094,304.8125 Q749.2031,304.1875 750.4375,304.1875 Q751.1719,304.1875 751.8125,304.3594 Q752.4688,304.5156 753.0156,304.875 Z " fill="#000000"/><text fill="#000000" font-family="sans-serif" font-size="14" lengthAdjust="spacing" textLength="71" x="770.75" y="314.7285">MainFrame</text><line style="stroke:#181818;stroke-width:0.5;" x1="649.5" x2="930.5" y1="325" y2="325"/><line style="stroke:#181818;stroke-width:0.5;" x1="649.5" x2="930.5" y1="333" y2="333"/><ellipse cx="659.5" cy="347.3047" fill="#84BE84" rx="3" ry="3" style="stroke:#038048;stroke-width:1.0;"/><text fill="#000000" font-family="sans-serif" font-size="14" lengthAdjust="spacing" textLength="57" x="668.5" y="351.5332">interact()</text><ellipse cx="659.5" cy="364.9141" fill="#84BE84" rx="3" ry="3" style="stroke:#038048;stroke-width:1.0;"/><text fill="#000000" font-family="sans-serif" font-size="14" lengthAdjust="spacing" textLength="164" x="668.5" y="369.1426">setPanel(GameLoopView)</text><ellipse cx="659.5" cy="382.5234" fill="#84BE84" rx="3" ry="3" style="stroke:#038048;stroke-width:1.0;"/><text fill="#000000" font-family="sans-serif" font-size="14" lengthAdjust="spacing" textLength="39" x="668.5" y="386.752">write()</text><ellipse cx="659.5" cy="400.1328" fill="#84BE84" rx="3" ry="3" style="stroke:#038048;stroke-width:1.0;"/><text fill="#000000" font-family="sans-serif" font-size="14" lengthAdjust="spacing" textLength="257" x="668.5" y="404.3613">isResumed(ResumeController) : boolean</text></g><!--class PanelView--><g id="elem_PanelView"><rect codeLine="75" fill="#F1F1F1" height="65.6094" id="PanelView" rx="2.5" ry="2.5" style="stroke:#181818;stroke-width:0.5;" width="97" x="358.5" y="319"/><ellipse cx="373.5" cy="335" fill="#A9DCDF" rx="11" ry="11" style="stroke:#181818;stroke-width:1.0;"/><path d="M375.6875,336.7656 L371.5469,336.7656 L371.125,337.7969 L371.5469,337.7969 Q372.1563,337.7969 372.4219,338.0313 Q372.6875,338.2656 372.6875,338.6563 Q372.6875,339.0313 372.4219,339.2656 Q372.1563,339.5 371.5469,339.5 L369.25,339.5 Q368.6406,339.5 368.3906,339.2656 Q368.125,339.0313 368.125,338.6406 Q368.125,338.2656 368.4063,338.0313 Q368.6719,337.7813 369.2969,337.7969 L371.9688,331.1406 L370.8594,331.1406 Q370.25,331.1406 369.9844,330.9063 Q369.7188,330.6719 369.7188,330.2813 Q369.7188,329.9063 369.9844,329.6719 Q370.25,329.4375 370.8594,329.4375 L374.5313,329.4375 L377.9219,337.7969 Q378.5156,337.7969 378.7031,337.9375 Q379.0938,338.2031 379.0938,338.6563 Q379.0938,339.0313 378.8281,339.2656 Q378.5781,339.5 377.9688,339.5 L375.6719,339.5 Q375.0625,339.5 374.7969,339.2656 Q374.5313,339.0313 374.5313,338.6406 Q374.5313,338.2656 374.7969,338.0313 Q375.0625,337.7969 375.6719,337.7969 L376.0938,337.7969 L375.6875,336.7656 Z M374.9688,335.0625 L373.6094,331.6875 L372.2344,335.0625 L374.9688,335.0625 Z " fill="#000000"/><text fill="#000000" font-family="sans-serif" font-size="14" font-style="italic" lengthAdjust="spacing" textLength="65" x="387.5" y="340.7285">PanelView</text><line style="stroke:#181818;stroke-width:0.5;" x1="359.5" x2="454.5" y1="351" y2="351"/><line style="stroke:#181818;stroke-width:0.5;" x1="359.5" x2="454.5" y1="359" y2="359"/><ellipse cx="369.5" cy="373.3047" fill="#84BE84" rx="3" ry="3" style="stroke:#038048;stroke-width:1.0;"/><text fill="#000000" font-family="sans-serif" font-size="14" font-style="italic" lengthAdjust="spacing" textLength="39" x="378.5" y="377.5332">write()</text></g><!--class GameLoopView--><g id="elem_GameLoopView"><rect codeLine="18" fill="#F1F1F1" height="48" id="GameLoopView" rx="2.5" ry="2.5" style="stroke:#181818;stroke-width:0.5;" width="131" x="546.5" y="477.5"/><ellipse cx="561.5" cy="493.5" fill="#B4A7E5" rx="11" ry="11" style="stroke:#181818;stroke-width:1.0;"/><path d="M562.4531,490.1406 L562.4531,496.7969 L564.1719,496.7969 Q564.7813,496.7969 565.0469,497.0313 Q565.3125,497.2656 565.3125,497.6563 Q565.3125,498.0313 565.0469,498.2656 Q564.7813,498.5 564.1719,498.5 L559.0313,498.5 Q558.4219,498.5 558.1563,498.2656 Q557.8906,498.0313 557.8906,497.6406 Q557.8906,497.2656 558.1563,497.0313 Q558.4219,496.7969 559.0313,496.7969 L560.75,496.7969 L560.75,490.1406 L559.0313,490.1406 Q558.4219,490.1406 558.1563,489.9063 Q557.8906,489.6719 557.8906,489.2813 Q557.8906,488.9063 558.1563,488.6719 Q558.4219,488.4375 559.0313,488.4375 L564.1719,488.4375 Q564.7813,488.4375 565.0469,488.6719 Q565.3125,488.9063 565.3125,489.2813 Q565.3125,489.6719 565.0469,489.9063 Q564.7813,490.1406 564.1719,490.1406 L562.4531,490.1406 Z " fill="#000000"/><text fill="#000000" font-family="sans-serif" font-size="14" font-style="italic" lengthAdjust="spacing" textLength="99" x="575.5" y="499.2285">GameLoopView</text><line style="stroke:#181818;stroke-width:0.5;" x1="547.5" x2="676.5" y1="509.5" y2="509.5"/><line style="stroke:#181818;stroke-width:0.5;" x1="547.5" x2="676.5" y1="517.5" y2="517.5"/></g><!--class StartPanelView--><g id="elem_StartPanelView"><rect codeLine="19" fill="#F1F1F1" height="100.8281" id="StartPanelView" rx="2.5" ry="2.5" style="stroke:#181818;stroke-width:0.5;" width="215" x="716.5" y="600.5"/><ellipse cx="772.25" cy="616.5" fill="#ADD1B2" rx="11" ry="11" style="stroke:#181818;stroke-width:1.0;"/><path d="M775.0156,612.375 Q775.1719,612.1563 775.3594,612.0469 Q775.5469,611.9375 775.7656,611.9375 Q776.1406,611.9375 776.375,612.2031 Q776.6094,612.4531 776.6094,613.0625 L776.6094,614.5156 Q776.6094,615.125 776.375,615.3906 Q776.1406,615.6563 775.7656,615.6563 Q775.4219,615.6563 775.2188,615.4531 Q775.0156,615.2656 774.9063,614.75 Q774.8594,614.3906 774.6719,614.2031 Q774.3438,613.8281 773.7344,613.6094 Q773.125,613.3906 772.5,613.3906 Q771.7344,613.3906 771.0938,613.7188 Q770.4688,614.0469 769.9688,614.7969 Q769.4844,615.5469 769.4844,616.5781 L769.4844,617.6719 Q769.4844,618.9063 770.375,619.7344 Q771.2656,620.5469 772.8594,620.5469 Q773.7969,620.5469 774.4531,620.2969 Q774.8438,620.1406 775.2656,619.7031 Q775.5313,619.4375 775.6719,619.3594 Q775.8281,619.2813 776.0313,619.2813 Q776.3594,619.2813 776.6094,619.5469 Q776.875,619.7969 776.875,620.1406 Q776.875,620.4844 776.5313,620.8906 Q776.0313,621.4688 775.2344,621.7969 Q774.1563,622.25 772.8594,622.25 Q771.3438,622.25 770.1406,621.625 Q769.1563,621.125 768.4688,620.0625 Q767.7813,618.9844 767.7813,617.7031 L767.7813,616.5469 Q767.7813,615.2188 768.3906,614.0781 Q769.0156,612.9219 770.1094,612.3125 Q771.2031,611.6875 772.4375,611.6875 Q773.1719,611.6875 773.8125,611.8594 Q774.4688,612.0156 775.0156,612.375 Z " fill="#000000"/><text fill="#000000" font-family="sans-serif" font-size="14" lengthAdjust="spacing" textLength="95" x="792.75" y="622.2285">StartPanelView</text><line style="stroke:#181818;stroke-width:0.5;" x1="717.5" x2="930.5" y1="632.5" y2="632.5"/><line style="stroke:#181818;stroke-width:0.5;" x1="717.5" x2="930.5" y1="640.5" y2="640.5"/><ellipse cx="727.5" cy="654.8047" fill="#84BE84" rx="3" ry="3" style="stroke:#038048;stroke-width:1.0;"/><text fill="#000000" font-family="sans-serif" font-size="14" lengthAdjust="spacing" textLength="39" x="736.5" y="659.0332">write()</text><ellipse cx="727.5" cy="672.4141" fill="#84BE84" rx="3" ry="3" style="stroke:#038048;stroke-width:1.0;"/><text fill="#000000" font-family="sans-serif" font-size="14" lengthAdjust="spacing" textLength="81" x="736.5" y="676.6426">addPlayers()</text><ellipse cx="727.5" cy="690.0234" fill="#84BE84" rx="3" ry="3" style="stroke:#038048;stroke-width:1.0;"/><text fill="#000000" font-family="sans-serif" font-size="14" lengthAdjust="spacing" textLength="189" x="736.5" y="694.252">actionPerformed(ActionEvent)</text></g><!--class PlayPanelView--><g id="elem_PlayPanelView"><rect codeLine="25" fill="#F1F1F1" height="118.4375" id="PlayPanelView" rx="2.5" ry="2.5" style="stroke:#181818;stroke-width:0.5;" width="220" x="461" y="592"/><ellipse cx="520.75" cy="608" fill="#ADD1B2" rx="11" ry="11" style="stroke:#181818;stroke-width:1.0;"/><path d="M523.5156,603.875 Q523.6719,603.6563 523.8594,603.5469 Q524.0469,603.4375 524.2656,603.4375 Q524.6406,603.4375 524.875,603.7031 Q525.1094,603.9531 525.1094,604.5625 L525.1094,606.0156 Q525.1094,606.625 524.875,606.8906 Q524.6406,607.1563 524.2656,607.1563 Q523.9219,607.1563 523.7188,606.9531 Q523.5156,606.7656 523.4063,606.25 Q523.3594,605.8906 523.1719,605.7031 Q522.8438,605.3281 522.2344,605.1094 Q521.625,604.8906 521,604.8906 Q520.2344,604.8906 519.5938,605.2188 Q518.9688,605.5469 518.4688,606.2969 Q517.9844,607.0469 517.9844,608.0781 L517.9844,609.1719 Q517.9844,610.4063 518.875,611.2344 Q519.7656,612.0469 521.3594,612.0469 Q522.2969,612.0469 522.9531,611.7969 Q523.3438,611.6406 523.7656,611.2031 Q524.0313,610.9375 524.1719,610.8594 Q524.3281,610.7813 524.5313,610.7813 Q524.8594,610.7813 525.1094,611.0469 Q525.375,611.2969 525.375,611.6406 Q525.375,611.9844 525.0313,612.3906 Q524.5313,612.9688 523.7344,613.2969 Q522.6563,613.75 521.3594,613.75 Q519.8438,613.75 518.6406,613.125 Q517.6563,612.625 516.9688,611.5625 Q516.2813,610.4844 516.2813,609.2031 L516.2813,608.0469 Q516.2813,606.7188 516.8906,605.5781 Q517.5156,604.4219 518.6094,603.8125 Q519.7031,603.1875 520.9375,603.1875 Q521.6719,603.1875 522.3125,603.3594 Q522.9688,603.5156 523.5156,603.875 Z " fill="#000000"/><text fill="#000000" font-family="sans-serif" font-size="14" lengthAdjust="spacing" textLength="92" x="541.25" y="613.7285">PlayPanelView</text><line style="stroke:#181818;stroke-width:0.5;" x1="462" x2="680" y1="624" y2="624"/><line style="stroke:#181818;stroke-width:0.5;" x1="462" x2="680" y1="632" y2="632"/><ellipse cx="472" cy="646.3047" fill="#84BE84" rx="3" ry="3" style="stroke:#038048;stroke-width:1.0;"/><text fill="#000000" font-family="sans-serif" font-size="14" lengthAdjust="spacing" textLength="39" x="481" y="650.5332">write()</text><rect fill="#F24D5C" height="6" style="stroke:#C82930;stroke-width:1.0;" width="6" x="469" y="660.9141"/><text fill="#000000" font-family="sans-serif" font-size="14" lengthAdjust="spacing" textLength="95" x="481" y="668.1426">removeBoard()</text><ellipse cx="472" cy="681.5234" fill="#84BE84" rx="3" ry="3" style="stroke:#038048;stroke-width:1.0;"/><text fill="#000000" font-family="sans-serif" font-size="14" lengthAdjust="spacing" textLength="194" x="481" y="685.752">visit(MachinePlayerBoardView)</text><ellipse cx="472" cy="699.1328" fill="#84BE84" rx="3" ry="3" style="stroke:#038048;stroke-width:1.0;"/><text fill="#000000" font-family="sans-serif" font-size="14" lengthAdjust="spacing" textLength="170" x="481" y="703.3613">visit(UserPlayerBoardView)</text></g><!--class BoardView--><g id="elem_BoardView"><rect codeLine="31" fill="#F1F1F1" height="171.2656" id="BoardView" rx="2.5" ry="2.5" style="stroke:#181818;stroke-width:0.5;" width="329" x="349.5" y="1074"/><ellipse cx="476.25" cy="1090" fill="#A9DCDF" rx="11" ry="11" style="stroke:#181818;stroke-width:1.0;"/><path d="M478.4375,1091.7656 L474.2969,1091.7656 L473.875,1092.7969 L474.2969,1092.7969 Q474.9063,1092.7969 475.1719,1093.0313 Q475.4375,1093.2656 475.4375,1093.6563 Q475.4375,1094.0313 475.1719,1094.2656 Q474.9063,1094.5 474.2969,1094.5 L472,1094.5 Q471.3906,1094.5 471.1406,1094.2656 Q470.875,1094.0313 470.875,1093.6406 Q470.875,1093.2656 471.1563,1093.0313 Q471.4219,1092.7813 472.0469,1092.7969 L474.7188,1086.1406 L473.6094,1086.1406 Q473,1086.1406 472.7344,1085.9063 Q472.4688,1085.6719 472.4688,1085.2813 Q472.4688,1084.9063 472.7344,1084.6719 Q473,1084.4375 473.6094,1084.4375 L477.2813,1084.4375 L480.6719,1092.7969 Q481.2656,1092.7969 481.4531,1092.9375 Q481.8438,1093.2031 481.8438,1093.6563 Q481.8438,1094.0313 481.5781,1094.2656 Q481.3281,1094.5 480.7188,1094.5 L478.4219,1094.5 Q477.8125,1094.5 477.5469,1094.2656 Q477.2813,1094.0313 477.2813,1093.6406 Q477.2813,1093.2656 477.5469,1093.0313 Q477.8125,1092.7969 478.4219,1092.7969 L478.8438,1092.7969 L478.4375,1091.7656 Z M477.7188,1090.0625 L476.3594,1086.6875 L474.9844,1090.0625 L477.7188,1090.0625 Z " fill="#000000"/><text fill="#000000" font-family="sans-serif" font-size="14" font-style="italic" lengthAdjust="spacing" textLength="67" x="496.75" y="1095.7285">BoardView</text><line style="stroke:#181818;stroke-width:0.5;" x1="350.5" x2="677.5" y1="1106" y2="1106"/><line style="stroke:#181818;stroke-width:0.5;" x1="350.5" x2="677.5" y1="1114" y2="1114"/><ellipse cx="360.5" cy="1128.3047" fill="#84BE84" rx="3" ry="3" style="stroke:#038048;stroke-width:1.0;"/><text fill="#000000" font-family="sans-serif" font-size="14" lengthAdjust="spacing" textLength="303" x="369.5" y="1132.5332">BoardView(PlayController, PanelViewCommand)</text><ellipse cx="360.5" cy="1145.9141" fill="#84BE84" rx="3" ry="3" style="stroke:#038048;stroke-width:1.0;"/><text fill="#000000" font-family="sans-serif" font-size="14" lengthAdjust="spacing" textLength="39" x="369.5" y="1150.1426">write()</text><polygon fill="#FFFF44" points="360.5,1158.5234,364.5,1162.5234,360.5,1166.5234,356.5,1162.5234" style="stroke:#B38D22;stroke-width:1.0;"/><text fill="#000000" font-family="sans-serif" font-size="14" font-style="italic" lengthAdjust="spacing" textLength="224" x="369.5" y="1167.752">createSquare(Coordinate) : Square</text><polygon fill="#FFFF44" points="360.5,1176.1328,364.5,1180.1328,360.5,1184.1328,356.5,1180.1328" style="stroke:#B38D22;stroke-width:1.0;"/><text fill="#000000" font-family="sans-serif" font-size="14" lengthAdjust="spacing" textLength="232" x="369.5" y="1185.3613">getColors() : Map&lt;Color, ImageIcon&gt;</text><polygon fill="#FFFF44" points="360.5,1193.7422,364.5,1197.7422,360.5,1201.7422,356.5,1197.7422" style="stroke:#B38D22;stroke-width:1.0;"/><text fill="#000000" font-family="sans-serif" font-size="14" lengthAdjust="spacing" textLength="292" x="369.5" y="1202.9707">getNextTurnCommand() : PanelViewCommand</text><polygon fill="#FFFF44" points="360.5,1211.3516,364.5,1215.3516,360.5,1219.3516,356.5,1215.3516" style="stroke:#B38D22;stroke-width:1.0;"/><text fill="#000000" font-family="sans-serif" font-size="14" lengthAdjust="spacing" textLength="220" x="369.5" y="1220.5801">getPlayController() : PlayController</text><ellipse cx="360.5" cy="1233.9609" fill="#84BE84" rx="3" ry="3" style="stroke:#038048;stroke-width:1.0;"/><text fill="#000000" font-family="sans-serif" font-size="14" font-style="italic" lengthAdjust="spacing" textLength="183" x="369.5" y="1238.1895">accept(PlayPanelViewVisitor)</text></g><!--class BoardViewPrototypeDirector--><g id="elem_BoardViewPrototypeDirector"><rect codeLine="40" fill="#F1F1F1" height="83.2188" id="BoardViewPrototypeDirector" rx="2.5" ry="2.5" style="stroke:#181818;stroke-width:0.5;" width="235" x="685.5" y="770"/><ellipse cx="711.75" cy="786" fill="#ADD1B2" rx="11" ry="11" style="stroke:#181818;stroke-width:1.0;"/><path d="M714.5156,781.875 Q714.6719,781.6563 714.8594,781.5469 Q715.0469,781.4375 715.2656,781.4375 Q715.6406,781.4375 715.875,781.7031 Q716.1094,781.9531 716.1094,782.5625 L716.1094,784.0156 Q716.1094,784.625 715.875,784.8906 Q715.6406,785.1563 715.2656,785.1563 Q714.9219,785.1563 714.7188,784.9531 Q714.5156,784.7656 714.4063,784.25 Q714.3594,783.8906 714.1719,783.7031 Q713.8438,783.3281 713.2344,783.1094 Q712.625,782.8906 712,782.8906 Q711.2344,782.8906 710.5938,783.2188 Q709.9688,783.5469 709.4688,784.2969 Q708.9844,785.0469 708.9844,786.0781 L708.9844,787.1719 Q708.9844,788.4063 709.875,789.2344 Q710.7656,790.0469 712.3594,790.0469 Q713.2969,790.0469 713.9531,789.7969 Q714.3438,789.6406 714.7656,789.2031 Q715.0313,788.9375 715.1719,788.8594 Q715.3281,788.7813 715.5313,788.7813 Q715.8594,788.7813 716.1094,789.0469 Q716.375,789.2969 716.375,789.6406 Q716.375,789.9844 716.0313,790.3906 Q715.5313,790.9688 714.7344,791.2969 Q713.6563,791.75 712.3594,791.75 Q710.8438,791.75 709.6406,791.125 Q708.6563,790.625 707.9688,789.5625 Q707.2813,788.4844 707.2813,787.2031 L707.2813,786.0469 Q707.2813,784.7188 707.8906,783.5781 Q708.5156,782.4219 709.6094,781.8125 Q710.7031,781.1875 711.9375,781.1875 Q712.6719,781.1875 713.3125,781.3594 Q713.9688,781.5156 714.5156,781.875 Z " fill="#000000"/><text fill="#000000" font-family="sans-serif" font-size="14" lengthAdjust="spacing" textLength="178" x="728.25" y="791.7285">BoardViewPrototypeDirector</text><line style="stroke:#181818;stroke-width:0.5;" x1="686.5" x2="919.5" y1="802" y2="802"/><line style="stroke:#181818;stroke-width:0.5;" x1="686.5" x2="919.5" y1="810" y2="810"/><ellipse cx="696.5" cy="833.1094" fill="#84BE84" rx="3" ry="3" style="stroke:#038048;stroke-width:1.0;"/><text fill="#000000" font-family="sans-serif" font-size="14" lengthAdjust="spacing" textLength="209" x="705.5" y="828.5332">get(BoardViewPrototypeRegistry,</text><text fill="#000000" font-family="sans-serif" font-size="14" lengthAdjust="spacing" textLength="156" x="709.5" y="846.1426">PlayerType) : BoardView</text></g><!--class BoardViewPrototypeRegistry--><g id="elem_BoardViewPrototypeRegistry"><rect codeLine="43" fill="#F1F1F1" height="100.8281" id="BoardViewPrototypeRegistry" rx="2.5" ry="2.5" style="stroke:#181818;stroke-width:0.5;" width="341" x="516.5" y="913"/><ellipse cx="592.75" cy="929" fill="#ADD1B2" rx="11" ry="11" style="stroke:#181818;stroke-width:1.0;"/><path d="M595.5156,924.875 Q595.6719,924.6563 595.8594,924.5469 Q596.0469,924.4375 596.2656,924.4375 Q596.6406,924.4375 596.875,924.7031 Q597.1094,924.9531 597.1094,925.5625 L597.1094,927.0156 Q597.1094,927.625 596.875,927.8906 Q596.6406,928.1563 596.2656,928.1563 Q595.9219,928.1563 595.7188,927.9531 Q595.5156,927.7656 595.4063,927.25 Q595.3594,926.8906 595.1719,926.7031 Q594.8438,926.3281 594.2344,926.1094 Q593.625,925.8906 593,925.8906 Q592.2344,925.8906 591.5938,926.2188 Q590.9688,926.5469 590.4688,927.2969 Q589.9844,928.0469 589.9844,929.0781 L589.9844,930.1719 Q589.9844,931.4063 590.875,932.2344 Q591.7656,933.0469 593.3594,933.0469 Q594.2969,933.0469 594.9531,932.7969 Q595.3438,932.6406 595.7656,932.2031 Q596.0313,931.9375 596.1719,931.8594 Q596.3281,931.7813 596.5313,931.7813 Q596.8594,931.7813 597.1094,932.0469 Q597.375,932.2969 597.375,932.6406 Q597.375,932.9844 597.0313,933.3906 Q596.5313,933.9688 595.7344,934.2969 Q594.6563,934.75 593.3594,934.75 Q591.8438,934.75 590.6406,934.125 Q589.6563,933.625 588.9688,932.5625 Q588.2813,931.4844 588.2813,930.2031 L588.2813,929.0469 Q588.2813,927.7188 588.8906,926.5781 Q589.5156,925.4219 590.6094,924.8125 Q591.7031,924.1875 592.9375,924.1875 Q593.6719,924.1875 594.3125,924.3594 Q594.9688,924.5156 595.5156,924.875 Z " fill="#000000"/><text fill="#000000" font-family="sans-serif" font-size="14" lengthAdjust="spacing" textLength="180" x="613.25" y="934.7285">BoardViewPrototypeRegistry</text><line style="stroke:#181818;stroke-width:0.5;" x1="517.5" x2="856.5" y1="945" y2="945"/><rect fill="none" height="6" style="stroke:#C82930;stroke-width:1.0;" width="6" x="524.5" y="956.3047"/><text fill="#000000" font-family="sans-serif" font-size="14" lengthAdjust="spacing" textLength="315" x="536.5" y="963.5332">playerBoardViews : Map&lt;PlayerType, BoardView&gt;</text><line style="stroke:#181818;stroke-width:0.5;" x1="517.5" x2="856.5" y1="970.6094" y2="970.6094"/><rect fill="#F24D5C" height="6" style="stroke:#C82930;stroke-width:1.0;" width="6" x="524.5" y="981.9141"/><text fill="#000000" font-family="sans-serif" font-size="14" lengthAdjust="spacing" textLength="248" x="536.5" y="989.1426">addPlayerview(PlayerType, BoardView)</text><ellipse cx="527.5" cy="1002.5234" fill="#84BE84" rx="3" ry="3" style="stroke:#038048;stroke-width:1.0;"/><text fill="#000000" font-family="sans-serif" font-size="14" lengthAdjust="spacing" textLength="250" x="536.5" y="1006.752">getPlayerView(PlayerType) : BoardView</text></g><!--class Command--><g id="elem_Command"><rect codeLine="48" fill="#F1F1F1" height="65.6094" id="Command" rx="2.5" ry="2.5" style="stroke:#181818;stroke-width:0.5;" width="96" x="228" y="1313.5"/><ellipse cx="243" cy="1329.5" fill="#B4A7E5" rx="11" ry="11" style="stroke:#181818;stroke-width:1.0;"/><path d="M243.9531,1326.1406 L243.9531,1332.7969 L245.6719,1332.7969 Q246.2813,1332.7969 246.5469,1333.0313 Q246.8125,1333.2656 246.8125,1333.6563 Q246.8125,1334.0313 246.5469,1334.2656 Q246.2813,1334.5 245.6719,1334.5 L240.5313,1334.5 Q239.9219,1334.5 239.6563,1334.2656 Q239.3906,1334.0313 239.3906,1333.6406 Q239.3906,1333.2656 239.6563,1333.0313 Q239.9219,1332.7969 240.5313,1332.7969 L242.25,1332.7969 L242.25,1326.1406 L240.5313,1326.1406 Q239.9219,1326.1406 239.6563,1325.9063 Q239.3906,1325.6719 239.3906,1325.2813 Q239.3906,1324.9063 239.6563,1324.6719 Q239.9219,1324.4375 240.5313,1324.4375 L245.6719,1324.4375 Q246.2813,1324.4375 246.5469,1324.6719 Q246.8125,1324.9063 246.8125,1325.2813 Q246.8125,1325.6719 246.5469,1325.9063 Q246.2813,1326.1406 245.6719,1326.1406 L243.9531,1326.1406 Z " fill="#000000"/><text fill="#000000" font-family="sans-serif" font-size="14" font-style="italic" lengthAdjust="spacing" textLength="64" x="257" y="1335.2285">Command</text><line style="stroke:#181818;stroke-width:0.5;" x1="229" x2="323" y1="1345.5" y2="1345.5"/><line style="stroke:#181818;stroke-width:0.5;" x1="229" x2="323" y1="1353.5" y2="1353.5"/><ellipse cx="239" cy="1367.8047" fill="#84BE84" rx="3" ry="3" style="stroke:#038048;stroke-width:1.0;"/><text fill="#000000" font-family="sans-serif" font-size="14" lengthAdjust="spacing" textLength="59" x="248" y="1372.0332">execute()</text></g><!--class PanelViewCommand--><g id="elem_PanelViewCommand"><rect codeLine="51" fill="#F1F1F1" height="83.2188" id="PanelViewCommand" rx="2.5" ry="2.5" style="stroke:#181818;stroke-width:0.5;" width="230" x="228" y="1448"/><ellipse cx="274.25" cy="1464" fill="#A9DCDF" rx="11" ry="11" style="stroke:#181818;stroke-width:1.0;"/><path d="M276.4375,1465.7656 L272.2969,1465.7656 L271.875,1466.7969 L272.2969,1466.7969 Q272.9063,1466.7969 273.1719,1467.0313 Q273.4375,1467.2656 273.4375,1467.6563 Q273.4375,1468.0313 273.1719,1468.2656 Q272.9063,1468.5 272.2969,1468.5 L270,1468.5 Q269.3906,1468.5 269.1406,1468.2656 Q268.875,1468.0313 268.875,1467.6406 Q268.875,1467.2656 269.1563,1467.0313 Q269.4219,1466.7813 270.0469,1466.7969 L272.7188,1460.1406 L271.6094,1460.1406 Q271,1460.1406 270.7344,1459.9063 Q270.4688,1459.6719 270.4688,1459.2813 Q270.4688,1458.9063 270.7344,1458.6719 Q271,1458.4375 271.6094,1458.4375 L275.2813,1458.4375 L278.6719,1466.7969 Q279.2656,1466.7969 279.4531,1466.9375 Q279.8438,1467.2031 279.8438,1467.6563 Q279.8438,1468.0313 279.5781,1468.2656 Q279.3281,1468.5 278.7188,1468.5 L276.4219,1468.5 Q275.8125,1468.5 275.5469,1468.2656 Q275.2813,1468.0313 275.2813,1467.6406 Q275.2813,1467.2656 275.5469,1467.0313 Q275.8125,1466.7969 276.4219,1466.7969 L276.8438,1466.7969 L276.4375,1465.7656 Z M275.7188,1464.0625 L274.3594,1460.6875 L272.9844,1464.0625 L275.7188,1464.0625 Z " fill="#000000"/><text fill="#000000" font-family="sans-serif" font-size="14" font-style="italic" lengthAdjust="spacing" textLength="129" x="294.75" y="1469.7285">PanelViewCommand</text><line style="stroke:#181818;stroke-width:0.5;" x1="229" x2="457" y1="1480" y2="1480"/><line style="stroke:#181818;stroke-width:0.5;" x1="229" x2="457" y1="1488" y2="1488"/><ellipse cx="239" cy="1502.3047" fill="#84BE84" rx="3" ry="3" style="stroke:#038048;stroke-width:1.0;"/><text fill="#000000" font-family="sans-serif" font-size="14" lengthAdjust="spacing" textLength="204" x="248" y="1506.5332">PanelViewCommand(PanelView)</text><polygon fill="#FFFF44" points="239,1514.9141,243,1518.9141,239,1522.9141,235,1518.9141" style="stroke:#B38D22;stroke-width:1.0;"/><text fill="#000000" font-family="sans-serif" font-size="14" lengthAdjust="spacing" textLength="163" x="248" y="1524.1426">getReceiver() : PanelView</text></g><!--class MachinePlayerBoardView--><g id="elem_MachinePlayerBoardView"><rect codeLine="55" fill="#F1F1F1" height="83.2188" id="MachinePlayerBoardView" rx="2.5" ry="2.5" style="stroke:#181818;stroke-width:0.5;" width="209" x="359.5" y="1305"/><ellipse cx="382.15" cy="1321" fill="#ADD1B2" rx="11" ry="11" style="stroke:#181818;stroke-width:1.0;"/><path d="M384.9156,1316.875 Q385.0719,1316.6563 385.2594,1316.5469 Q385.4469,1316.4375 385.6656,1316.4375 Q386.0406,1316.4375 386.275,1316.7031 Q386.5094,1316.9531 386.5094,1317.5625 L386.5094,1319.0156 Q386.5094,1319.625 386.275,1319.8906 Q386.0406,1320.1563 385.6656,1320.1563 Q385.3219,1320.1563 385.1188,1319.9531 Q384.9156,1319.7656 384.8063,1319.25 Q384.7594,1318.8906 384.5719,1318.7031 Q384.2438,1318.3281 383.6344,1318.1094 Q383.025,1317.8906 382.4,1317.8906 Q381.6344,1317.8906 380.9938,1318.2188 Q380.3688,1318.5469 379.8688,1319.2969 Q379.3844,1320.0469 379.3844,1321.0781 L379.3844,1322.1719 Q379.3844,1323.4063 380.275,1324.2344 Q381.1656,1325.0469 382.7594,1325.0469 Q383.6969,1325.0469 384.3531,1324.7969 Q384.7438,1324.6406 385.1656,1324.2031 Q385.4313,1323.9375 385.5719,1323.8594 Q385.7281,1323.7813 385.9313,1323.7813 Q386.2594,1323.7813 386.5094,1324.0469 Q386.775,1324.2969 386.775,1324.6406 Q386.775,1324.9844 386.4313,1325.3906 Q385.9313,1325.9688 385.1344,1326.2969 Q384.0563,1326.75 382.7594,1326.75 Q381.2438,1326.75 380.0406,1326.125 Q379.0563,1325.625 378.3688,1324.5625 Q377.6813,1323.4844 377.6813,1322.2031 L377.6813,1321.0469 Q377.6813,1319.7188 378.2906,1318.5781 Q378.9156,1317.4219 380.0094,1316.8125 Q381.1031,1316.1875 382.3375,1316.1875 Q383.0719,1316.1875 383.7125,1316.3594 Q384.3688,1316.5156 384.9156,1316.875 Z " fill="#000000"/><text fill="#000000" font-family="sans-serif" font-size="14" lengthAdjust="spacing" textLength="160" x="397.85" y="1326.7285">MachinePlayerBoardView</text><line style="stroke:#181818;stroke-width:0.5;" x1="360.5" x2="567.5" y1="1337" y2="1337"/><line style="stroke:#181818;stroke-width:0.5;" x1="360.5" x2="567.5" y1="1345" y2="1345"/><ellipse cx="370.5" cy="1359.3047" fill="#84BE84" rx="3" ry="3" style="stroke:#038048;stroke-width:1.0;"/><text fill="#000000" font-family="sans-serif" font-size="14" lengthAdjust="spacing" textLength="79" x="379.5" y="1363.5332">dropToken()</text><ellipse cx="370.5" cy="1376.9141" fill="#84BE84" rx="3" ry="3" style="stroke:#038048;stroke-width:1.0;"/><text fill="#000000" font-family="sans-serif" font-size="14" lengthAdjust="spacing" textLength="183" x="379.5" y="1381.1426">accept(PlayPanelViewVisitor)</text></g><!--class UserPlayerBoardView--><g id="elem_UserPlayerBoardView"><rect codeLine="59" fill="#F1F1F1" height="83.2188" id="UserPlayerBoardView" rx="2.5" ry="2.5" style="stroke:#181818;stroke-width:0.5;" width="215" x="603.5" y="1305"/><ellipse cx="639.65" cy="1321" fill="#ADD1B2" rx="11" ry="11" style="stroke:#181818;stroke-width:1.0;"/><path d="M642.4156,1316.875 Q642.5719,1316.6563 642.7594,1316.5469 Q642.9469,1316.4375 643.1656,1316.4375 Q643.5406,1316.4375 643.775,1316.7031 Q644.0094,1316.9531 644.0094,1317.5625 L644.0094,1319.0156 Q644.0094,1319.625 643.775,1319.8906 Q643.5406,1320.1563 643.1656,1320.1563 Q642.8219,1320.1563 642.6188,1319.9531 Q642.4156,1319.7656 642.3063,1319.25 Q642.2594,1318.8906 642.0719,1318.7031 Q641.7438,1318.3281 641.1344,1318.1094 Q640.525,1317.8906 639.9,1317.8906 Q639.1344,1317.8906 638.4938,1318.2188 Q637.8688,1318.5469 637.3688,1319.2969 Q636.8844,1320.0469 636.8844,1321.0781 L636.8844,1322.1719 Q636.8844,1323.4063 637.775,1324.2344 Q638.6656,1325.0469 640.2594,1325.0469 Q641.1969,1325.0469 641.8531,1324.7969 Q642.2438,1324.6406 642.6656,1324.2031 Q642.9313,1323.9375 643.0719,1323.8594 Q643.2281,1323.7813 643.4313,1323.7813 Q643.7594,1323.7813 644.0094,1324.0469 Q644.275,1324.2969 644.275,1324.6406 Q644.275,1324.9844 643.9313,1325.3906 Q643.4313,1325.9688 642.6344,1326.2969 Q641.5563,1326.75 640.2594,1326.75 Q638.7438,1326.75 637.5406,1326.125 Q636.5563,1325.625 635.8688,1324.5625 Q635.1813,1323.4844 635.1813,1322.2031 L635.1813,1321.0469 Q635.1813,1319.7188 635.7906,1318.5781 Q636.4156,1317.4219 637.5094,1316.8125 Q638.6031,1316.1875 639.8375,1316.1875 Q640.5719,1316.1875 641.2125,1316.3594 Q641.8688,1316.5156 642.4156,1316.875 Z " fill="#000000"/><text fill="#000000" font-family="sans-serif" font-size="14" lengthAdjust="spacing" textLength="136" x="658.35" y="1326.7285">UserPlayerBoardView</text><line style="stroke:#181818;stroke-width:0.5;" x1="604.5" x2="817.5" y1="1337" y2="1337"/><line style="stroke:#181818;stroke-width:0.5;" x1="604.5" x2="817.5" y1="1345" y2="1345"/><rect fill="#F24D5C" height="6" style="stroke:#C82930;stroke-width:1.0;" width="6" x="611.5" y="1356.3047"/><text fill="#000000" font-family="sans-serif" font-size="14" lengthAdjust="spacing" textLength="189" x="623.5" y="1363.5332">actionPerformed(ActionEvent)</text><ellipse cx="614.5" cy="1376.9141" fill="#84BE84" rx="3" ry="3" style="stroke:#038048;stroke-width:1.0;"/><text fill="#000000" font-family="sans-serif" font-size="14" lengthAdjust="spacing" textLength="183" x="623.5" y="1381.1426">accept(PlayPanelViewVisitor)</text></g><!--class NextTurnCommand--><g id="elem_NextTurnCommand"><rect codeLine="64" fill="#F1F1F1" height="48" id="NextTurnCommand" rx="2.5" ry="2.5" style="stroke:#181818;stroke-width:0.5;" width="153" x="266.5" y="1591"/><ellipse cx="281.5" cy="1607" fill="#ADD1B2" rx="11" ry="11" style="stroke:#181818;stroke-width:1.0;"/><path d="M284.2656,1602.875 Q284.4219,1602.6563 284.6094,1602.5469 Q284.7969,1602.4375 285.0156,1602.4375 Q285.3906,1602.4375 285.625,1602.7031 Q285.8594,1602.9531 285.8594,1603.5625 L285.8594,1605.0156 Q285.8594,1605.625 285.625,1605.8906 Q285.3906,1606.1563 285.0156,1606.1563 Q284.6719,1606.1563 284.4688,1605.9531 Q284.2656,1605.7656 284.1563,1605.25 Q284.1094,1604.8906 283.9219,1604.7031 Q283.5938,1604.3281 282.9844,1604.1094 Q282.375,1603.8906 281.75,1603.8906 Q280.9844,1603.8906 280.3438,1604.2188 Q279.7188,1604.5469 279.2188,1605.2969 Q278.7344,1606.0469 278.7344,1607.0781 L278.7344,1608.1719 Q278.7344,1609.4063 279.625,1610.2344 Q280.5156,1611.0469 282.1094,1611.0469 Q283.0469,1611.0469 283.7031,1610.7969 Q284.0938,1610.6406 284.5156,1610.2031 Q284.7813,1609.9375 284.9219,1609.8594 Q285.0781,1609.7813 285.2813,1609.7813 Q285.6094,1609.7813 285.8594,1610.0469 Q286.125,1610.2969 286.125,1610.6406 Q286.125,1610.9844 285.7813,1611.3906 Q285.2813,1611.9688 284.4844,1612.2969 Q283.4063,1612.75 282.1094,1612.75 Q280.5938,1612.75 279.3906,1612.125 Q278.4063,1611.625 277.7188,1610.5625 Q277.0313,1609.4844 277.0313,1608.2031 L277.0313,1607.0469 Q277.0313,1605.7188 277.6406,1604.5781 Q278.2656,1603.4219 279.3594,1602.8125 Q280.4531,1602.1875 281.6875,1602.1875 Q282.4219,1602.1875 283.0625,1602.3594 Q283.7188,1602.5156 284.2656,1602.875 Z " fill="#000000"/><text fill="#000000" font-family="sans-serif" font-size="14" lengthAdjust="spacing" textLength="121" x="295.5" y="1612.7285">NextTurnCommand</text><line style="stroke:#181818;stroke-width:0.5;" x1="267.5" x2="418.5" y1="1623" y2="1623"/><line style="stroke:#181818;stroke-width:0.5;" x1="267.5" x2="418.5" y1="1631" y2="1631"/></g><!--class Square--><g id="elem_Square"><rect codeLine="65" fill="#F1F1F1" height="48" id="Square" rx="2.5" ry="2.5" style="stroke:#181818;stroke-width:0.5;" width="78" x="854" y="1322.5"/><ellipse cx="869" cy="1338.5" fill="#A9DCDF" rx="11" ry="11" style="stroke:#181818;stroke-width:1.0;"/><path d="M871.1875,1340.2656 L867.0469,1340.2656 L866.625,1341.2969 L867.0469,1341.2969 Q867.6563,1341.2969 867.9219,1341.5313 Q868.1875,1341.7656 868.1875,1342.1563 Q868.1875,1342.5313 867.9219,1342.7656 Q867.6563,1343 867.0469,1343 L864.75,1343 Q864.1406,1343 863.8906,1342.7656 Q863.625,1342.5313 863.625,1342.1406 Q863.625,1341.7656 863.9063,1341.5313 Q864.1719,1341.2813 864.7969,1341.2969 L867.4688,1334.6406 L866.3594,1334.6406 Q865.75,1334.6406 865.4844,1334.4063 Q865.2188,1334.1719 865.2188,1333.7813 Q865.2188,1333.4063 865.4844,1333.1719 Q865.75,1332.9375 866.3594,1332.9375 L870.0313,1332.9375 L873.4219,1341.2969 Q874.0156,1341.2969 874.2031,1341.4375 Q874.5938,1341.7031 874.5938,1342.1563 Q874.5938,1342.5313 874.3281,1342.7656 Q874.0781,1343 873.4688,1343 L871.1719,1343 Q870.5625,1343 870.2969,1342.7656 Q870.0313,1342.5313 870.0313,1342.1406 Q870.0313,1341.7656 870.2969,1341.5313 Q870.5625,1341.2969 871.1719,1341.2969 L871.5938,1341.2969 L871.1875,1340.2656 Z M870.4688,1338.5625 L869.1094,1335.1875 L867.7344,1338.5625 L870.4688,1338.5625 Z " fill="#000000"/><text fill="#000000" font-family="sans-serif" font-size="14" font-style="italic" lengthAdjust="spacing" textLength="46" x="883" y="1344.2285">Square</text><line style="stroke:#181818;stroke-width:0.5;" x1="855" x2="931" y1="1354.5" y2="1354.5"/><line style="stroke:#181818;stroke-width:0.5;" x1="855" x2="931" y1="1362.5" y2="1362.5"/></g><!--class ClickableSquare--><g id="elem_ClickableSquare"><rect codeLine="66" fill="#F1F1F1" height="65.6094" id="ClickableSquare" rx="2.5" ry="2.5" style="stroke:#181818;stroke-width:0.5;" width="135" x="780.5" y="1456.5"/><ellipse cx="795.5" cy="1472.5" fill="#ADD1B2" rx="11" ry="11" style="stroke:#181818;stroke-width:1.0;"/><path d="M798.2656,1468.375 Q798.4219,1468.1563 798.6094,1468.0469 Q798.7969,1467.9375 799.0156,1467.9375 Q799.3906,1467.9375 799.625,1468.2031 Q799.8594,1468.4531 799.8594,1469.0625 L799.8594,1470.5156 Q799.8594,1471.125 799.625,1471.3906 Q799.3906,1471.6563 799.0156,1471.6563 Q798.6719,1471.6563 798.4688,1471.4531 Q798.2656,1471.2656 798.1563,1470.75 Q798.1094,1470.3906 797.9219,1470.2031 Q797.5938,1469.8281 796.9844,1469.6094 Q796.375,1469.3906 795.75,1469.3906 Q794.9844,1469.3906 794.3438,1469.7188 Q793.7188,1470.0469 793.2188,1470.7969 Q792.7344,1471.5469 792.7344,1472.5781 L792.7344,1473.6719 Q792.7344,1474.9063 793.625,1475.7344 Q794.5156,1476.5469 796.1094,1476.5469 Q797.0469,1476.5469 797.7031,1476.2969 Q798.0938,1476.1406 798.5156,1475.7031 Q798.7813,1475.4375 798.9219,1475.3594 Q799.0781,1475.2813 799.2813,1475.2813 Q799.6094,1475.2813 799.8594,1475.5469 Q800.125,1475.7969 800.125,1476.1406 Q800.125,1476.4844 799.7813,1476.8906 Q799.2813,1477.4688 798.4844,1477.7969 Q797.4063,1478.25 796.1094,1478.25 Q794.5938,1478.25 793.3906,1477.625 Q792.4063,1477.125 791.7188,1476.0625 Q791.0313,1474.9844 791.0313,1473.7031 L791.0313,1472.5469 Q791.0313,1471.2188 791.6406,1470.0781 Q792.2656,1468.9219 793.3594,1468.3125 Q794.4531,1467.6875 795.6875,1467.6875 Q796.4219,1467.6875 797.0625,1467.8594 Q797.7188,1468.0156 798.2656,1468.375 Z " fill="#000000"/><text fill="#000000" font-family="sans-serif" font-size="14" lengthAdjust="spacing" textLength="103" x="809.5" y="1478.2285">ClickableSquare</text><line style="stroke:#181818;stroke-width:0.5;" x1="781.5" x2="914.5" y1="1488.5" y2="1488.5"/><line style="stroke:#181818;stroke-width:0.5;" x1="781.5" x2="914.5" y1="1496.5" y2="1496.5"/><ellipse cx="791.5" cy="1510.8047" fill="#84BE84" rx="3" ry="3" style="stroke:#038048;stroke-width:1.0;"/><text fill="#000000" font-family="sans-serif" font-size="14" lengthAdjust="spacing" textLength="105" x="800.5" y="1515.0332">getColumn() : int</text></g><!--class NonClickableSquare--><g id="elem_NonClickableSquare"><rect codeLine="69" fill="#F1F1F1" height="65.6094" id="NonClickableSquare" rx="2.5" ry="2.5" style="stroke:#181818;stroke-width:0.5;" width="215" x="518.5" y="1456.5"/><ellipse cx="558.25" cy="1472.5" fill="#ADD1B2" rx="11" ry="11" style="stroke:#181818;stroke-width:1.0;"/><path d="M561.0156,1468.375 Q561.1719,1468.1563 561.3594,1468.0469 Q561.5469,1467.9375 561.7656,1467.9375 Q562.1406,1467.9375 562.375,1468.2031 Q562.6094,1468.4531 562.6094,1469.0625 L562.6094,1470.5156 Q562.6094,1471.125 562.375,1471.3906 Q562.1406,1471.6563 561.7656,1471.6563 Q561.4219,1471.6563 561.2188,1471.4531 Q561.0156,1471.2656 560.9063,1470.75 Q560.8594,1470.3906 560.6719,1470.2031 Q560.3438,1469.8281 559.7344,1469.6094 Q559.125,1469.3906 558.5,1469.3906 Q557.7344,1469.3906 557.0938,1469.7188 Q556.4688,1470.0469 555.9688,1470.7969 Q555.4844,1471.5469 555.4844,1472.5781 L555.4844,1473.6719 Q555.4844,1474.9063 556.375,1475.7344 Q557.2656,1476.5469 558.8594,1476.5469 Q559.7969,1476.5469 560.4531,1476.2969 Q560.8438,1476.1406 561.2656,1475.7031 Q561.5313,1475.4375 561.6719,1475.3594 Q561.8281,1475.2813 562.0313,1475.2813 Q562.3594,1475.2813 562.6094,1475.5469 Q562.875,1475.7969 562.875,1476.1406 Q562.875,1476.4844 562.5313,1476.8906 Q562.0313,1477.4688 561.2344,1477.7969 Q560.1563,1478.25 558.8594,1478.25 Q557.3438,1478.25 556.1406,1477.625 Q555.1563,1477.125 554.4688,1476.0625 Q553.7813,1474.9844 553.7813,1473.7031 L553.7813,1472.5469 Q553.7813,1471.2188 554.3906,1470.0781 Q555.0156,1468.9219 556.1094,1468.3125 Q557.2031,1467.6875 558.4375,1467.6875 Q559.1719,1467.6875 559.8125,1467.8594 Q560.4688,1468.0156 561.0156,1468.375 Z " fill="#000000"/><text fill="#000000" font-family="sans-serif" font-size="14" lengthAdjust="spacing" textLength="128" x="577.75" y="1478.2285">NonClickableSquare</text><line style="stroke:#181818;stroke-width:0.5;" x1="519.5" x2="732.5" y1="1488.5" y2="1488.5"/><line style="stroke:#181818;stroke-width:0.5;" x1="519.5" x2="732.5" y1="1496.5" y2="1496.5"/><ellipse cx="529.5" cy="1510.8047" fill="#84BE84" rx="3" ry="3" style="stroke:#038048;stroke-width:1.0;"/><text fill="#000000" font-family="sans-serif" font-size="14" lengthAdjust="spacing" textLength="189" x="538.5" y="1515.0332">actionPerformed(ActionEvent)</text></g><!--class TurnView--><g id="elem_TurnView"><rect codeLine="72" fill="#F1F1F1" height="65.6094" id="TurnView" rx="2.5" ry="2.5" style="stroke:#181818;stroke-width:0.5;" width="91" x="521.5" y="778.5"/><ellipse cx="536.5" cy="794.5" fill="#ADD1B2" rx="11" ry="11" style="stroke:#181818;stroke-width:1.0;"/><path d="M539.2656,790.375 Q539.4219,790.1563 539.6094,790.0469 Q539.7969,789.9375 540.0156,789.9375 Q540.3906,789.9375 540.625,790.2031 Q540.8594,790.4531 540.8594,791.0625 L540.8594,792.5156 Q540.8594,793.125 540.625,793.3906 Q540.3906,793.6563 540.0156,793.6563 Q539.6719,793.6563 539.4688,793.4531 Q539.2656,793.2656 539.1563,792.75 Q539.1094,792.3906 538.9219,792.2031 Q538.5938,791.8281 537.9844,791.6094 Q537.375,791.3906 536.75,791.3906 Q535.9844,791.3906 535.3438,791.7188 Q534.7188,792.0469 534.2188,792.7969 Q533.7344,793.5469 533.7344,794.5781 L533.7344,795.6719 Q533.7344,796.9063 534.625,797.7344 Q535.5156,798.5469 537.1094,798.5469 Q538.0469,798.5469 538.7031,798.2969 Q539.0938,798.1406 539.5156,797.7031 Q539.7813,797.4375 539.9219,797.3594 Q540.0781,797.2813 540.2813,797.2813 Q540.6094,797.2813 540.8594,797.5469 Q541.125,797.7969 541.125,798.1406 Q541.125,798.4844 540.7813,798.8906 Q540.2813,799.4688 539.4844,799.7969 Q538.4063,800.25 537.1094,800.25 Q535.5938,800.25 534.3906,799.625 Q533.4063,799.125 532.7188,798.0625 Q532.0313,796.9844 532.0313,795.7031 L532.0313,794.5469 Q532.0313,793.2188 532.6406,792.0781 Q533.2656,790.9219 534.3594,790.3125 Q535.4531,789.6875 536.6875,789.6875 Q537.4219,789.6875 538.0625,789.8594 Q538.7188,790.0156 539.2656,790.375 Z " fill="#000000"/><text fill="#000000" font-family="sans-serif" font-size="14" lengthAdjust="spacing" textLength="59" x="550.5" y="800.2285">TurnView</text><line style="stroke:#181818;stroke-width:0.5;" x1="522.5" x2="611.5" y1="810.5" y2="810.5"/><line style="stroke:#181818;stroke-width:0.5;" x1="522.5" x2="611.5" y1="818.5" y2="818.5"/><ellipse cx="532.5" cy="832.8047" fill="#84BE84" rx="3" ry="3" style="stroke:#038048;stroke-width:1.0;"/><text fill="#000000" font-family="sans-serif" font-size="14" lengthAdjust="spacing" textLength="39" x="541.5" y="837.0332">write()</text></g><!--class CountDownLatch--><g id="elem_CountDownLatch"><rect codeLine="8" fill="#F1F1F1" height="78.8281" id="CountDownLatch" rx="2.5" ry="2.5" style="stroke:#181818;stroke-width:0.5;" width="140" x="1242" y="772"/><ellipse cx="1257" cy="803.4141" fill="#ADD1B2" rx="11" ry="11" style="stroke:#181818;stroke-width:1.0;"/><path d="M1259.7656,799.2891 Q1259.9219,799.0703 1260.1094,798.9609 Q1260.2969,798.8516 1260.5156,798.8516 Q1260.8906,798.8516 1261.125,799.1172 Q1261.3594,799.3672 1261.3594,799.9766 L1261.3594,801.4297 Q1261.3594,802.0391 1261.125,802.3047 Q1260.8906,802.5703 1260.5156,802.5703 Q1260.1719,802.5703 1259.9688,802.3672 Q1259.7656,802.1797 1259.6563,801.6641 Q1259.6094,801.3047 1259.4219,801.1172 Q1259.0938,800.7422 1258.4844,800.5234 Q1257.875,800.3047 1257.25,800.3047 Q1256.4844,800.3047 1255.8438,800.6328 Q1255.2188,800.9609 1254.7188,801.7109 Q1254.2344,802.4609 1254.2344,803.4922 L1254.2344,804.5859 Q1254.2344,805.8203 1255.125,806.6484 Q1256.0156,807.4609 1257.6094,807.4609 Q1258.5469,807.4609 1259.2031,807.2109 Q1259.5938,807.0547 1260.0156,806.6172 Q1260.2813,806.3516 1260.4219,806.2734 Q1260.5781,806.1953 1260.7813,806.1953 Q1261.1094,806.1953 1261.3594,806.4609 Q1261.625,806.7109 1261.625,807.0547 Q1261.625,807.3984 1261.2813,807.8047 Q1260.7813,808.3828 1259.9844,808.7109 Q1258.9063,809.1641 1257.6094,809.1641 Q1256.0938,809.1641 1254.8906,808.5391 Q1253.9063,808.0391 1253.2188,806.9766 Q1252.5313,805.8984 1252.5313,804.6172 L1252.5313,803.4609 Q1252.5313,802.1328 1253.1406,800.9922 Q1253.7656,799.8359 1254.8594,799.2266 Q1255.9531,798.6016 1257.1875,798.6016 Q1257.9219,798.6016 1258.5625,798.7734 Q1259.2188,798.9297 1259.7656,799.2891 Z " fill="#000000"/><text fill="#000000" font-family="sans-serif" font-size="14" lengthAdjust="spacing" textLength="52" x="1299" y="791.5332">java.util.</text><text fill="#000000" font-family="sans-serif" font-size="14" lengthAdjust="spacing" textLength="72" x="1289" y="809.1426">concurrent.</text><text fill="#000000" font-family="sans-serif" font-size="14" lengthAdjust="spacing" textLength="108" x="1271" y="826.752">CountDownLatch</text><line style="stroke:#181818;stroke-width:0.5;" x1="1243" x2="1381" y1="834.8281" y2="834.8281"/><line style="stroke:#181818;stroke-width:0.5;" x1="1243" x2="1381" y1="842.8281" y2="842.8281"/></g><!--class StartController--><g id="elem_StartController"><rect codeLine="76" fill="#F1F1F1" height="61.2188" id="StartController" rx="2.5" ry="2.5" style="stroke:#181818;stroke-width:0.5;" width="124" x="1083" y="781"/><ellipse cx="1098" cy="803.6094" fill="#ADD1B2" rx="11" ry="11" style="stroke:#181818;stroke-width:1.0;"/><path d="M1100.7656,799.4844 Q1100.9219,799.2656 1101.1094,799.1563 Q1101.2969,799.0469 1101.5156,799.0469 Q1101.8906,799.0469 1102.125,799.3125 Q1102.3594,799.5625 1102.3594,800.1719 L1102.3594,801.625 Q1102.3594,802.2344 1102.125,802.5 Q1101.8906,802.7656 1101.5156,802.7656 Q1101.1719,802.7656 1100.9688,802.5625 Q1100.7656,802.375 1100.6563,801.8594 Q1100.6094,801.5 1100.4219,801.3125 Q1100.0938,800.9375 1099.4844,800.7188 Q1098.875,800.5 1098.25,800.5 Q1097.4844,800.5 1096.8438,800.8281 Q1096.2188,801.1563 1095.7188,801.9063 Q1095.2344,802.6563 1095.2344,803.6875 L1095.2344,804.7813 Q1095.2344,806.0156 1096.125,806.8438 Q1097.0156,807.6563 1098.6094,807.6563 Q1099.5469,807.6563 1100.2031,807.4063 Q1100.5938,807.25 1101.0156,806.8125 Q1101.2813,806.5469 1101.4219,806.4688 Q1101.5781,806.3906 1101.7813,806.3906 Q1102.1094,806.3906 1102.3594,806.6563 Q1102.625,806.9063 1102.625,807.25 Q1102.625,807.5938 1102.2813,808 Q1101.7813,808.5781 1100.9844,808.9063 Q1099.9063,809.3594 1098.6094,809.3594 Q1097.0938,809.3594 1095.8906,808.7344 Q1094.9063,808.2344 1094.2188,807.1719 Q1093.5313,806.0938 1093.5313,804.8125 L1093.5313,803.6563 Q1093.5313,802.3281 1094.1406,801.1875 Q1094.7656,800.0313 1095.8594,799.4219 Q1096.9531,798.7969 1098.1875,798.7969 Q1098.9219,798.7969 1099.5625,798.9688 Q1100.2188,799.125 1100.7656,799.4844 Z " fill="#000000"/><text fill="#000000" font-family="sans-serif" font-size="14" lengthAdjust="spacing" textLength="70" x="1123" y="800.5332">controllers.</text><text fill="#000000" font-family="sans-serif" font-size="14" lengthAdjust="spacing" textLength="92" x="1112" y="818.1426">StartController</text><line style="stroke:#181818;stroke-width:0.5;" x1="1084" x2="1206" y1="826.2188" y2="826.2188"/><line style="stroke:#181818;stroke-width:0.5;" x1="1084" x2="1206" y1="834.2188" y2="834.2188"/></g><!--class PlayController--><g id="elem_PlayController"><rect codeLine="77" fill="#F1F1F1" height="61.2188" id="PlayController" rx="2.5" ry="2.5" style="stroke:#181818;stroke-width:0.5;" width="121" x="967.5" y="1316"/><ellipse cx="982.5" cy="1338.6094" fill="#ADD1B2" rx="11" ry="11" style="stroke:#181818;stroke-width:1.0;"/><path d="M985.2656,1334.4844 Q985.4219,1334.2656 985.6094,1334.1563 Q985.7969,1334.0469 986.0156,1334.0469 Q986.3906,1334.0469 986.625,1334.3125 Q986.8594,1334.5625 986.8594,1335.1719 L986.8594,1336.625 Q986.8594,1337.2344 986.625,1337.5 Q986.3906,1337.7656 986.0156,1337.7656 Q985.6719,1337.7656 985.4688,1337.5625 Q985.2656,1337.375 985.1563,1336.8594 Q985.1094,1336.5 984.9219,1336.3125 Q984.5938,1335.9375 983.9844,1335.7188 Q983.375,1335.5 982.75,1335.5 Q981.9844,1335.5 981.3438,1335.8281 Q980.7188,1336.1563 980.2188,1336.9063 Q979.7344,1337.6563 979.7344,1338.6875 L979.7344,1339.7813 Q979.7344,1341.0156 980.625,1341.8438 Q981.5156,1342.6563 983.1094,1342.6563 Q984.0469,1342.6563 984.7031,1342.4063 Q985.0938,1342.25 985.5156,1341.8125 Q985.7813,1341.5469 985.9219,1341.4688 Q986.0781,1341.3906 986.2813,1341.3906 Q986.6094,1341.3906 986.8594,1341.6563 Q987.125,1341.9063 987.125,1342.25 Q987.125,1342.5938 986.7813,1343 Q986.2813,1343.5781 985.4844,1343.9063 Q984.4063,1344.3594 983.1094,1344.3594 Q981.5938,1344.3594 980.3906,1343.7344 Q979.4063,1343.2344 978.7188,1342.1719 Q978.0313,1341.0938 978.0313,1339.8125 L978.0313,1338.6563 Q978.0313,1337.3281 978.6406,1336.1875 Q979.2656,1335.0313 980.3594,1334.4219 Q981.4531,1333.7969 982.6875,1333.7969 Q983.4219,1333.7969 984.0625,1333.9688 Q984.7188,1334.125 985.2656,1334.4844 Z " fill="#000000"/><text fill="#000000" font-family="sans-serif" font-size="14" lengthAdjust="spacing" textLength="70" x="1006" y="1335.5332">controllers.</text><text fill="#000000" font-family="sans-serif" font-size="14" lengthAdjust="spacing" textLength="89" x="996.5" y="1353.1426">PlayController</text><line style="stroke:#181818;stroke-width:0.5;" x1="968.5" x2="1087.5" y1="1361.2188" y2="1361.2188"/><line style="stroke:#181818;stroke-width:0.5;" x1="968.5" x2="1087.5" y1="1369.2188" y2="1369.2188"/></g><!--class ResumeController--><g id="elem_ResumeController"><rect codeLine="78" fill="#F1F1F1" height="61.2188" id="ResumeController" rx="2.5" ry="2.5" style="stroke:#181818;stroke-width:0.5;" width="146" x="964" y="471"/><ellipse cx="979" cy="493.6094" fill="#ADD1B2" rx="11" ry="11" style="stroke:#181818;stroke-width:1.0;"/><path d="M981.7656,489.4844 Q981.9219,489.2656 982.1094,489.1563 Q982.2969,489.0469 982.5156,489.0469 Q982.8906,489.0469 983.125,489.3125 Q983.3594,489.5625 983.3594,490.1719 L983.3594,491.625 Q983.3594,492.2344 983.125,492.5 Q982.8906,492.7656 982.5156,492.7656 Q982.1719,492.7656 981.9688,492.5625 Q981.7656,492.375 981.6563,491.8594 Q981.6094,491.5 981.4219,491.3125 Q981.0938,490.9375 980.4844,490.7188 Q979.875,490.5 979.25,490.5 Q978.4844,490.5 977.8438,490.8281 Q977.2188,491.1563 976.7188,491.9063 Q976.2344,492.6563 976.2344,493.6875 L976.2344,494.7813 Q976.2344,496.0156 977.125,496.8438 Q978.0156,497.6563 979.6094,497.6563 Q980.5469,497.6563 981.2031,497.4063 Q981.5938,497.25 982.0156,496.8125 Q982.2813,496.5469 982.4219,496.4688 Q982.5781,496.3906 982.7813,496.3906 Q983.1094,496.3906 983.3594,496.6563 Q983.625,496.9063 983.625,497.25 Q983.625,497.5938 983.2813,498 Q982.7813,498.5781 981.9844,498.9063 Q980.9063,499.3594 979.6094,499.3594 Q978.0938,499.3594 976.8906,498.7344 Q975.9063,498.2344 975.2188,497.1719 Q974.5313,496.0938 974.5313,494.8125 L974.5313,493.6563 Q974.5313,492.3281 975.1406,491.1875 Q975.7656,490.0313 976.8594,489.4219 Q977.9531,488.7969 979.1875,488.7969 Q979.9219,488.7969 980.5625,488.9688 Q981.2188,489.125 981.7656,489.4844 Z " fill="#000000"/><text fill="#000000" font-family="sans-serif" font-size="14" lengthAdjust="spacing" textLength="70" x="1015" y="490.5332">controllers.</text><text fill="#000000" font-family="sans-serif" font-size="14" lengthAdjust="spacing" textLength="114" x="993" y="508.1426">ResumeController</text><line style="stroke:#181818;stroke-width:0.5;" x1="965" x2="1109" y1="516.2188" y2="516.2188"/><line style="stroke:#181818;stroke-width:0.5;" x1="965" x2="1109" y1="524.2188" y2="524.2188"/></g><!--class Coordinate--><g id="elem_Coordinate"><rect codeLine="79" fill="#F1F1F1" height="61.2188" id="Coordinate" rx="2.5" ry="2.5" style="stroke:#181818;stroke-width:0.5;" width="110" x="964" y="1459"/><ellipse cx="979" cy="1481.6094" fill="#ADD1B2" rx="11" ry="11" style="stroke:#181818;stroke-width:1.0;"/><path d="M981.7656,1477.4844 Q981.9219,1477.2656 982.1094,1477.1563 Q982.2969,1477.0469 982.5156,1477.0469 Q982.8906,1477.0469 983.125,1477.3125 Q983.3594,1477.5625 983.3594,1478.1719 L983.3594,1479.625 Q983.3594,1480.2344 983.125,1480.5 Q982.8906,1480.7656 982.5156,1480.7656 Q982.1719,1480.7656 981.9688,1480.5625 Q981.7656,1480.375 981.6563,1479.8594 Q981.6094,1479.5 981.4219,1479.3125 Q981.0938,1478.9375 980.4844,1478.7188 Q979.875,1478.5 979.25,1478.5 Q978.4844,1478.5 977.8438,1478.8281 Q977.2188,1479.1563 976.7188,1479.9063 Q976.2344,1480.6563 976.2344,1481.6875 L976.2344,1482.7813 Q976.2344,1484.0156 977.125,1484.8438 Q978.0156,1485.6563 979.6094,1485.6563 Q980.5469,1485.6563 981.2031,1485.4063 Q981.5938,1485.25 982.0156,1484.8125 Q982.2813,1484.5469 982.4219,1484.4688 Q982.5781,1484.3906 982.7813,1484.3906 Q983.1094,1484.3906 983.3594,1484.6563 Q983.625,1484.9063 983.625,1485.25 Q983.625,1485.5938 983.2813,1486 Q982.7813,1486.5781 981.9844,1486.9063 Q980.9063,1487.3594 979.6094,1487.3594 Q978.0938,1487.3594 976.8906,1486.7344 Q975.9063,1486.2344 975.2188,1485.1719 Q974.5313,1484.0938 974.5313,1482.8125 L974.5313,1481.6563 Q974.5313,1480.3281 975.1406,1479.1875 Q975.7656,1478.0313 976.8594,1477.4219 Q977.9531,1476.7969 979.1875,1476.7969 Q979.9219,1476.7969 980.5625,1476.9688 Q981.2188,1477.125 981.7656,1477.4844 Z " fill="#000000"/><text fill="#000000" font-family="sans-serif" font-size="14" lengthAdjust="spacing" textLength="78" x="993" y="1478.5332">utils.models.</text><text fill="#000000" font-family="sans-serif" font-size="14" lengthAdjust="spacing" textLength="70" x="997" y="1496.1426">Coordinate</text><line style="stroke:#181818;stroke-width:0.5;" x1="965" x2="1073" y1="1504.2188" y2="1504.2188"/><line style="stroke:#181818;stroke-width:0.5;" x1="965" x2="1073" y1="1512.2188" y2="1512.2188"/></g><!--class JFrame--><g id="elem_JFrame"><rect codeLine="83" fill="#F1F1F1" height="48" id="JFrame" rx="2.5" ry="2.5" style="stroke:#181818;stroke-width:0.5;" width="79" x="116.5" y="150"/><ellipse cx="131.5" cy="166" fill="#ADD1B2" rx="11" ry="11" style="stroke:#181818;stroke-width:1.0;"/><path d="M134.2656,161.875 Q134.4219,161.6563 134.6094,161.5469 Q134.7969,161.4375 135.0156,161.4375 Q135.3906,161.4375 135.625,161.7031 Q135.8594,161.9531 135.8594,162.5625 L135.8594,164.0156 Q135.8594,164.625 135.625,164.8906 Q135.3906,165.1563 135.0156,165.1563 Q134.6719,165.1563 134.4688,164.9531 Q134.2656,164.7656 134.1563,164.25 Q134.1094,163.8906 133.9219,163.7031 Q133.5938,163.3281 132.9844,163.1094 Q132.375,162.8906 131.75,162.8906 Q130.9844,162.8906 130.3438,163.2188 Q129.7188,163.5469 129.2188,164.2969 Q128.7344,165.0469 128.7344,166.0781 L128.7344,167.1719 Q128.7344,168.4063 129.625,169.2344 Q130.5156,170.0469 132.1094,170.0469 Q133.0469,170.0469 133.7031,169.7969 Q134.0938,169.6406 134.5156,169.2031 Q134.7813,168.9375 134.9219,168.8594 Q135.0781,168.7813 135.2813,168.7813 Q135.6094,168.7813 135.8594,169.0469 Q136.125,169.2969 136.125,169.6406 Q136.125,169.9844 135.7813,170.3906 Q135.2813,170.9688 134.4844,171.2969 Q133.4063,171.75 132.1094,171.75 Q130.5938,171.75 129.3906,171.125 Q128.4063,170.625 127.7188,169.5625 Q127.0313,168.4844 127.0313,167.2031 L127.0313,166.0469 Q127.0313,164.7188 127.6406,163.5781 Q128.2656,162.4219 129.3594,161.8125 Q130.4531,161.1875 131.6875,161.1875 Q132.4219,161.1875 133.0625,161.3594 Q133.7188,161.5156 134.2656,161.875 Z " fill="#000000"/><text fill="#000000" font-family="sans-serif" font-size="14" lengthAdjust="spacing" textLength="47" x="145.5" y="171.7285">JFrame</text><line style="stroke:#181818;stroke-width:0.5;" x1="117.5" x2="194.5" y1="182" y2="182"/><line style="stroke:#181818;stroke-width:0.5;" x1="117.5" x2="194.5" y1="190" y2="190"/></g><!--class View--><g id="elem_View"><rect codeLine="96" fill="#F1F1F1" height="48" id="View" rx="2.5" ry="2.5" style="stroke:#181818;stroke-width:0.5;" width="61" x="759.5" y="7"/><ellipse cx="774.5" cy="23" fill="#A9DCDF" rx="11" ry="11" style="stroke:#181818;stroke-width:1.0;"/><path d="M776.6875,24.7656 L772.5469,24.7656 L772.125,25.7969 L772.5469,25.7969 Q773.1563,25.7969 773.4219,26.0313 Q773.6875,26.2656 773.6875,26.6563 Q773.6875,27.0313 773.4219,27.2656 Q773.1563,27.5 772.5469,27.5 L770.25,27.5 Q769.6406,27.5 769.3906,27.2656 Q769.125,27.0313 769.125,26.6406 Q769.125,26.2656 769.4063,26.0313 Q769.6719,25.7813 770.2969,25.7969 L772.9688,19.1406 L771.8594,19.1406 Q771.25,19.1406 770.9844,18.9063 Q770.7188,18.6719 770.7188,18.2813 Q770.7188,17.9063 770.9844,17.6719 Q771.25,17.4375 771.8594,17.4375 L775.5313,17.4375 L778.9219,25.7969 Q779.5156,25.7969 779.7031,25.9375 Q780.0938,26.2031 780.0938,26.6563 Q780.0938,27.0313 779.8281,27.2656 Q779.5781,27.5 778.9688,27.5 L776.6719,27.5 Q776.0625,27.5 775.7969,27.2656 Q775.5313,27.0313 775.5313,26.6406 Q775.5313,26.2656 775.7969,26.0313 Q776.0625,25.7969 776.6719,25.7969 L777.0938,25.7969 L776.6875,24.7656 Z M775.9688,23.0625 L774.6094,19.6875 L773.2344,23.0625 L775.9688,23.0625 Z " fill="#000000"/><text fill="#000000" font-family="sans-serif" font-size="14" font-style="italic" lengthAdjust="spacing" textLength="29" x="788.5" y="28.7285">View</text><line style="stroke:#181818;stroke-width:0.5;" x1="760.5" x2="819.5" y1="39" y2="39"/><line style="stroke:#181818;stroke-width:0.5;" x1="760.5" x2="819.5" y1="47" y2="47"/></g><!--class JOptionPane--><g id="elem_JOptionPane"><rect codeLine="99" fill="#F1F1F1" height="48" id="JOptionPane" rx="2.5" ry="2.5" style="stroke:#181818;stroke-width:0.5;" width="113" x="1145.5" y="477.5"/><ellipse cx="1160.5" cy="493.5" fill="#ADD1B2" rx="11" ry="11" style="stroke:#181818;stroke-width:1.0;"/><path d="M1163.2656,489.375 Q1163.4219,489.1563 1163.6094,489.0469 Q1163.7969,488.9375 1164.0156,488.9375 Q1164.3906,488.9375 1164.625,489.2031 Q1164.8594,489.4531 1164.8594,490.0625 L1164.8594,491.5156 Q1164.8594,492.125 1164.625,492.3906 Q1164.3906,492.6563 1164.0156,492.6563 Q1163.6719,492.6563 1163.4688,492.4531 Q1163.2656,492.2656 1163.1563,491.75 Q1163.1094,491.3906 1162.9219,491.2031 Q1162.5938,490.8281 1161.9844,490.6094 Q1161.375,490.3906 1160.75,490.3906 Q1159.9844,490.3906 1159.3438,490.7188 Q1158.7188,491.0469 1158.2188,491.7969 Q1157.7344,492.5469 1157.7344,493.5781 L1157.7344,494.6719 Q1157.7344,495.9063 1158.625,496.7344 Q1159.5156,497.5469 1161.1094,497.5469 Q1162.0469,497.5469 1162.7031,497.2969 Q1163.0938,497.1406 1163.5156,496.7031 Q1163.7813,496.4375 1163.9219,496.3594 Q1164.0781,496.2813 1164.2813,496.2813 Q1164.6094,496.2813 1164.8594,496.5469 Q1165.125,496.7969 1165.125,497.1406 Q1165.125,497.4844 1164.7813,497.8906 Q1164.2813,498.4688 1163.4844,498.7969 Q1162.4063,499.25 1161.1094,499.25 Q1159.5938,499.25 1158.3906,498.625 Q1157.4063,498.125 1156.7188,497.0625 Q1156.0313,495.9844 1156.0313,494.7031 L1156.0313,493.5469 Q1156.0313,492.2188 1156.6406,491.0781 Q1157.2656,489.9219 1158.3594,489.3125 Q1159.4531,488.6875 1160.6875,488.6875 Q1161.4219,488.6875 1162.0625,488.8594 Q1162.7188,489.0156 1163.2656,489.375 Z " fill="#000000"/><text fill="#000000" font-family="sans-serif" font-size="14" lengthAdjust="spacing" textLength="81" x="1174.5" y="499.2285">JOptionPane</text><line style="stroke:#181818;stroke-width:0.5;" x1="1146.5" x2="1257.5" y1="509.5" y2="509.5"/><line style="stroke:#181818;stroke-width:0.5;" x1="1146.5" x2="1257.5" y1="517.5" y2="517.5"/></g><!--class JPanel--><g id="elem_JPanel"><rect fill="#F1F1F1" height="48" id="JPanel" rx="2.5" ry="2.5" style="stroke:#181818;stroke-width:0.5;" width="74" x="7" y="150"/><ellipse cx="22" cy="166" fill="#ADD1B2" rx="11" ry="11" style="stroke:#181818;stroke-width:1.0;"/><path d="M24.7656,161.875 Q24.9219,161.6563 25.1094,161.5469 Q25.2969,161.4375 25.5156,161.4375 Q25.8906,161.4375 26.125,161.7031 Q26.3594,161.9531 26.3594,162.5625 L26.3594,164.0156 Q26.3594,164.625 26.125,164.8906 Q25.8906,165.1563 25.5156,165.1563 Q25.1719,165.1563 24.9688,164.9531 Q24.7656,164.7656 24.6563,164.25 Q24.6094,163.8906 24.4219,163.7031 Q24.0938,163.3281 23.4844,163.1094 Q22.875,162.8906 22.25,162.8906 Q21.4844,162.8906 20.8438,163.2188 Q20.2188,163.5469 19.7188,164.2969 Q19.2344,165.0469 19.2344,166.0781 L19.2344,167.1719 Q19.2344,168.4063 20.125,169.2344 Q21.0156,170.0469 22.6094,170.0469 Q23.5469,170.0469 24.2031,169.7969 Q24.5938,169.6406 25.0156,169.2031 Q25.2813,168.9375 25.4219,168.8594 Q25.5781,168.7813 25.7813,168.7813 Q26.1094,168.7813 26.3594,169.0469 Q26.625,169.2969 26.625,169.6406 Q26.625,169.9844 26.2813,170.3906 Q25.7813,170.9688 24.9844,171.2969 Q23.9063,171.75 22.6094,171.75 Q21.0938,171.75 19.8906,171.125 Q18.9063,170.625 18.2188,169.5625 Q17.5313,168.4844 17.5313,167.2031 L17.5313,166.0469 Q17.5313,164.7188 18.1406,163.5781 Q18.7656,162.4219 19.8594,161.8125 Q20.9531,161.1875 22.1875,161.1875 Q22.9219,161.1875 23.5625,161.3594 Q24.2188,161.5156 24.7656,161.875 Z " fill="#000000"/><text fill="#000000" font-family="sans-serif" font-size="14" lengthAdjust="spacing" textLength="42" x="36" y="171.7285">JPanel</text><line style="stroke:#181818;stroke-width:0.5;" x1="8" x2="80" y1="182" y2="182"/><line style="stroke:#181818;stroke-width:0.5;" x1="8" x2="80" y1="190" y2="190"/></g><!--class PlayerType--><g id="elem_PlayerType"><rect fill="#F1F1F1" height="48" id="PlayerType" rx="2.5" ry="2.5" style="stroke:#181818;stroke-width:0.5;" width="104" x="964" y="939.5"/><ellipse cx="979" cy="955.5" fill="#ADD1B2" rx="11" ry="11" style="stroke:#181818;stroke-width:1.0;"/><path d="M981.7656,951.375 Q981.9219,951.1563 982.1094,951.0469 Q982.2969,950.9375 982.5156,950.9375 Q982.8906,950.9375 983.125,951.2031 Q983.3594,951.4531 983.3594,952.0625 L983.3594,953.5156 Q983.3594,954.125 983.125,954.3906 Q982.8906,954.6563 982.5156,954.6563 Q982.1719,954.6563 981.9688,954.4531 Q981.7656,954.2656 981.6563,953.75 Q981.6094,953.3906 981.4219,953.2031 Q981.0938,952.8281 980.4844,952.6094 Q979.875,952.3906 979.25,952.3906 Q978.4844,952.3906 977.8438,952.7188 Q977.2188,953.0469 976.7188,953.7969 Q976.2344,954.5469 976.2344,955.5781 L976.2344,956.6719 Q976.2344,957.9063 977.125,958.7344 Q978.0156,959.5469 979.6094,959.5469 Q980.5469,959.5469 981.2031,959.2969 Q981.5938,959.1406 982.0156,958.7031 Q982.2813,958.4375 982.4219,958.3594 Q982.5781,958.2813 982.7813,958.2813 Q983.1094,958.2813 983.3594,958.5469 Q983.625,958.7969 983.625,959.1406 Q983.625,959.4844 983.2813,959.8906 Q982.7813,960.4688 981.9844,960.7969 Q980.9063,961.25 979.6094,961.25 Q978.0938,961.25 976.8906,960.625 Q975.9063,960.125 975.2188,959.0625 Q974.5313,957.9844 974.5313,956.7031 L974.5313,955.5469 Q974.5313,954.2188 975.1406,953.0781 Q975.7656,951.9219 976.8594,951.3125 Q977.9531,950.6875 979.1875,950.6875 Q979.9219,950.6875 980.5625,950.8594 Q981.2188,951.0156 981.7656,951.375 Z " fill="#000000"/><text fill="#000000" font-family="sans-serif" font-size="14" lengthAdjust="spacing" textLength="72" x="993" y="961.2285">PlayerType</text><line style="stroke:#181818;stroke-width:0.5;" x1="965" x2="1067" y1="971.5" y2="971.5"/><line style="stroke:#181818;stroke-width:0.5;" x1="965" x2="1067" y1="979.5" y2="979.5"/></g><!--link GraphicsView to CountDownLatch--><g id="link_GraphicsView_CountDownLatch"><path codeLine="82" d="M889.03,205.36 C1003.2,246.01 1186.58,329.86 1276,471 C1335.79,565.38 1327.829,698.8908 1319.059,765.8708 " fill="none" id="GraphicsView-to-CountDownLatch" style="stroke:#181818;stroke-width:1.0;"/><polygon fill="#181818" points="1318.28,771.82,1323.4146,763.4155,1318.9291,766.8623,1315.4823,762.3769,1318.28,771.82" style="stroke:#181818;stroke-width:1.0;"/></g><!--reverse link JFrame to MainFrame--><g id="link_JFrame_MainFrame"><path codeLine="84" d="M184.12,212.0235 C194.15,224.2435 196.54,224.51 212,233 C231.22,243.55 483.37,292.79 648.22,324.23 " fill="none" id="JFrame-backto-MainFrame" style="stroke:#181818;stroke-width:1.0;"/><polygon fill="none" points="172.7,198.11,179.4821,215.8301,188.7578,208.2168,172.7,198.11" style="stroke:#181818;stroke-width:1.0;"/></g><!--link GraphicsView to MainFrame--><g id="link_GraphicsView_MainFrame"><path codeLine="85" d="M790,245.12 C790,264.34 790,267.72 790,286.94 " fill="none" id="GraphicsView-MainFrame" style="stroke:#181818;stroke-width:1.0;"/><polygon fill="#181818" points="790,233.12,786,239.12,790,245.12,794,239.12,790,233.12" style="stroke:#181818;stroke-width:1.0;"/><polygon fill="#181818" points="790,292.94,794,283.94,790,287.94,786,283.94,790,292.94" style="stroke:#181818;stroke-width:1.0;"/></g><!--link StartPanelView to StartController--><g id="link_StartPanelView_StartController"><path codeLine="88" d="M924.69,701.72 C977.27,727.68 1034.4701,755.9235 1079.4701,778.1435 " fill="none" id="StartPanelView-to-StartController" style="stroke:#181818;stroke-width:1.0;"/><polygon fill="#181818" points="1084.85,780.8,1078.5511,773.2287,1080.3668,778.5863,1075.0092,780.4019,1084.85,780.8" style="stroke:#181818;stroke-width:1.0;"/></g><!--link StartPanelView to CountDownLatch--><g id="link_StartPanelView_CountDownLatch"><path codeLine="89" d="M931.81,679.03 C1013.37,700.6 1127.57,733.22 1225,770 C1230.46,772.06 1230.5239,771.9728 1236.1039,774.3328 " fill="none" id="StartPanelView-to-CountDownLatch" style="stroke:#181818;stroke-width:1.0;"/><polygon fill="#181818" points="1241.63,776.67,1234.899,769.4802,1237.0249,774.7223,1231.7828,776.8483,1241.63,776.67" style="stroke:#181818;stroke-width:1.0;"/></g><!--link PlayPanelView to PlayController--><g id="link_PlayPanelView_PlayController"><path codeLine="90" d="M681.16,703.4 C687.15,705.73 693.13,707.95 699,710 C802.4,746.08 842.26,716.81 938,770 C1017.96,814.42 1050.27,828.8 1086,913 C1146.07,1054.57 1076.8473,1238.1018 1044.5973,1310.2918 " fill="none" id="PlayPanelView-to-PlayController" style="stroke:#181818;stroke-width:1.0;"/><polygon fill="#181818" points="1042.15,1315.77,1049.4731,1309.1843,1044.1894,1311.2048,1042.1688,1305.9212,1042.15,1315.77" style="stroke:#181818;stroke-width:1.0;"/></g><!--link PlayPanelView to CountDownLatch--><g id="link_PlayPanelView_CountDownLatch"><path codeLine="91" d="M681.22,704.48 C687.17,706.52 693.12,708.38 699,710 C925.8,772.65 998.52,706.19 1225,770 C1230.61,771.58 1230.698,771.3941 1236.358,773.5041 " fill="none" id="PlayPanelView-to-CountDownLatch" style="stroke:#181818;stroke-width:1.0;"/><polygon fill="#181818" points="1241.98,775.6,1234.9442,768.7082,1237.295,773.8535,1232.1497,776.2043,1241.98,775.6" style="stroke:#181818;stroke-width:1.0;"/></g><!--link BoardView to PlayController--><g id="link_BoardView_PlayController"><path codeLine="92" d="M678.58,1217.59 C705.74,1226.85 733.64,1236.27 760,1245 C843.26,1272.58 866.84,1271.75 948,1305 C955.92,1308.25 958.7196,1309.3762 966.7296,1313.2162 " fill="none" id="BoardView-to-PlayController" style="stroke:#181818;stroke-width:1.0;"/><polygon fill="#181818" points="972.14,1315.81,965.7536,1308.3124,967.6313,1313.6485,962.2952,1315.5263,972.14,1315.81" style="stroke:#181818;stroke-width:1.0;"/></g><!--link TurnView to PlayController--><g id="link_TurnView_PlayController"><path codeLine="93" d="M612.64,831.92 C629.85,838.94 649.69,846.69 668,853 C758.56,884.2 805.34,847.26 875,913 C936.18,970.74 999.2109,1221.8583 1019.8509,1309.9283 " fill="none" id="TurnView-to-PlayController" style="stroke:#181818;stroke-width:1.0;"/><polygon fill="#181818" points="1021.22,1315.77,1023.0609,1306.0947,1020.0791,1310.9019,1015.2719,1307.9201,1021.22,1315.77" style="stroke:#181818;stroke-width:1.0;"/></g><!--link MainFrame to ResumeController--><g id="link_MainFrame_ResumeController"><path codeLine="94" d="M887.27,411.08 C921.56,431.56 953.5287,450.6536 982.2287,467.7936 " fill="none" id="MainFrame-to-ResumeController" style="stroke:#181818;stroke-width:1.0;stroke-dasharray:7.0,7.0;"/><polygon fill="#181818" points="987.38,470.87,981.704,462.8212,983.0873,468.3063,977.6021,469.6896,987.38,470.87" style="stroke:#181818;stroke-width:1.0;"/></g><!--reverse link View to GraphicsView--><g id="link_View_GraphicsView"><path codeLine="97" d="M790,73.28 C790,89.55 790,94.03 790,114.99 " fill="none" id="View-backto-GraphicsView" style="stroke:#181818;stroke-width:1.0;"/><polygon fill="none" points="790,55.28,784,73.28,796,73.28,790,55.28" style="stroke:#181818;stroke-width:1.0;"/></g><!--link MainFrame to JOptionPane--><g id="link_MainFrame_JOptionPane"><path codeLine="100" d="M931.51,400.87 C992.22,421.8 1063.81,447.01 1128,471 C1133.57,473.08 1133.7667,473.1286 1139.5367,475.3686 " fill="none" id="MainFrame-to-JOptionPane" style="stroke:#181818;stroke-width:1.0;stroke-dasharray:7.0,7.0;"/><polygon fill="#181818" points="1145.13,477.54,1138.1877,470.554,1140.4689,475.7305,1135.2924,478.0118,1145.13,477.54" style="stroke:#181818;stroke-width:1.0;"/></g><!--reverse link JPanel to PanelView--><g id="link_JPanel_PanelView"><path codeLine="102" d="M73.2512,211.7574 C83.1912,223.4974 84.81,223.52 99,233 C182.09,288.5 295.01,323.17 358.49,339.61 " fill="none" id="JPanel-backto-PanelView" style="stroke:#181818;stroke-width:1.0;"/><polygon fill="none" points="61.62,198.02,68.672,215.6345,77.8303,207.8803,61.62,198.02" style="stroke:#181818;stroke-width:1.0;"/></g><!--reverse link PanelView to GameLoopView--><g id="link_PanelView_GameLoopView"><path codeLine="103" d="M466.0917,395.5218 C504.8317,423.3918 545.46,452.62 579.99,477.47 " fill="none" id="PanelView-backto-GameLoopView" style="stroke:#181818;stroke-width:1.0;"/><polygon fill="none" points="451.48,385.01,462.5878,400.3924,469.5956,390.6513,451.48,385.01" style="stroke:#181818;stroke-width:1.0;"/></g><!--reverse link GameLoopView to StartPanelView--><g id="link_GameLoopView_StartPanelView"><path codeLine="104" d="M659.8964,535.829 C688.5464,555.759 716.19,574.99 752.52,600.27 " fill="none" id="GameLoopView-backto-StartPanelView" style="stroke:#181818;stroke-width:1.0;"/><polygon fill="none" points="645.12,525.55,656.4701,540.7545,663.3227,530.9035,645.12,525.55" style="stroke:#181818;stroke-width:1.0;"/></g><!--reverse link GameLoopView to PlayPanelView--><g id="link_GameLoopView_PlayPanelView"><path codeLine="105" d="M600.7704,542.8928 C595.8404,560.6328 593.62,568.63 587.17,591.81 " fill="none" id="GameLoopView-backto-PlayPanelView" style="stroke:#181818;stroke-width:1.0;"/><polygon fill="none" points="605.59,525.55,594.9895,541.2862,606.5513,544.4993,605.59,525.55" style="stroke:#181818;stroke-width:1.0;"/></g><!--reverse link PanelView to BoardView--><g id="link_PanelView_BoardView"><path codeLine="106" d="M399.9695,403.0679 C396.7695,426.7479 395.13,441.89 393,471 C387.19,550.37 388,570.41 388,650 C388,650 388,650 388,812.5 C388,906 429.12,1005.59 464.38,1073.8 " fill="none" id="PanelView-backto-BoardView" style="stroke:#181818;stroke-width:1.0;"/><polygon fill="none" points="402.38,385.23,394.0235,402.2644,405.9154,403.8714,402.38,385.23" style="stroke:#181818;stroke-width:1.0;"/></g><!--reverse link PanelView to TurnView--><g id="link_PanelView_TurnView"><path codeLine="107" d="M400.5303,403.0552 C393.0903,468.6152 386.11,602.64 444,710 C461.47,742.4 494.17,768.34 521.46,785.75 " fill="none" id="PanelView-backto-TurnView" style="stroke:#181818;stroke-width:1.0;"/><polygon fill="none" points="402.56,385.17,394.5686,402.3786,406.4921,403.7318,402.56,385.17" style="stroke:#181818;stroke-width:1.0;"/></g><!--link GraphicsView to GameLoopView--><g id="link_GraphicsView_GameLoopView"><path codeLine="109" d="M690.69,228.82 C667.38,246.21 645.23,267.68 631,293 C597.6,352.45 602.3222,430.8993 607.5322,471.2793 " fill="none" id="GraphicsView-to-GameLoopView" style="stroke:#181818;stroke-width:1.0;stroke-dasharray:7.0,7.0;"/><polygon fill="#181818" points="608.3,477.23,611.1154,467.7921,607.6602,472.2711,603.1812,468.8158,608.3,477.23" style="stroke:#181818;stroke-width:1.0;"/></g><!--link MainFrame to GameLoopView--><g id="link_MainFrame_GameLoopView"><path codeLine="110" d="M719.91,411.08 C691.89,434.3 665.8704,455.8623 644.4204,473.6323 " fill="none" id="MainFrame-to-GameLoopView" style="stroke:#181818;stroke-width:1.0;"/><polygon fill="#181818" points="639.8,477.46,649.2825,474.7987,643.6504,474.2702,644.1788,468.6381,639.8,477.46" style="stroke:#181818;stroke-width:1.0;"/></g><!--link PlayPanelView to BoardView--><g id="link_PlayPanelView_BoardView"><path codeLine="112" d="M524.6197,720.5348 C513.9597,738.8748 509.84,749.37 504,770 C475.3,871.44 484.4548,987.8487 496.6548,1067.7887 " fill="none" id="PlayPanelView-BoardView" style="stroke:#181818;stroke-width:1.0;"/><polygon fill="#181818" points="530.65,710.16,524.1766,713.3373,524.6197,720.5348,531.0931,717.3575,530.65,710.16" style="stroke:#181818;stroke-width:1.0;"/><polygon fill="#181818" points="497.56,1073.72,500.1564,1064.2195,496.8057,1068.7772,492.248,1065.4265,497.56,1073.72" style="stroke:#181818;stroke-width:1.0;"/></g><!--link PlayPanelView to TurnView--><g id="link_PlayPanelView_TurnView"><path codeLine="113" d="M569.2271,722.1162 C568.6471,745.0862 568.4603,752.6219 567.9703,772.1819 " fill="none" id="PlayPanelView-TurnView" style="stroke:#181818;stroke-width:1.0;"/><polygon fill="#181818" points="569.53,710.12,565.3798,716.0171,569.2271,722.1162,573.3773,716.2191,569.53,710.12" style="stroke:#181818;stroke-width:1.0;"/><polygon fill="#181818" points="567.82,778.18,572.0441,769.283,567.9452,773.1816,564.0466,769.0826,567.82,778.18" style="stroke:#181818;stroke-width:1.0;"/></g><!--link PlayPanelView to BoardViewPrototypeRegistry--><g id="link_PlayPanelView_BoardViewPrototypeRegistry"><path codeLine="114" d="M602.64,710.2 C612.15,728.97 622.14,750.08 630,770 C648.67,817.34 663.0803,867.483 673.3103,906.833 " fill="none" id="PlayPanelView-to-BoardViewPrototypeRegistry" style="stroke:#181818;stroke-width:1.0;stroke-dasharray:7.0,7.0;"/><polygon fill="#181818" points="674.82,912.64,676.4268,902.9231,673.5619,907.8009,668.6842,904.936,674.82,912.64" style="stroke:#181818;stroke-width:1.0;"/></g><!--link PlayPanelView to BoardViewPrototypeDirector--><g id="link_PlayPanelView_BoardViewPrototypeDirector"><path codeLine="115" d="M656.07,710.12 C685.17,730 712.1167,748.404 738.7267,766.594 " fill="none" id="PlayPanelView-to-BoardViewPrototypeDirector" style="stroke:#181818;stroke-width:1.0;stroke-dasharray:7.0,7.0;"/><polygon fill="#181818" points="743.68,769.98,738.5074,761.5988,739.5522,767.1584,733.9927,768.2033,743.68,769.98" style="stroke:#181818;stroke-width:1.0;"/></g><!--link BoardViewPrototypeDirector to BoardViewPrototypeRegistry--><g id="link_BoardViewPrototypeDirector_BoardViewPrototypeRegistry"><path codeLine="116" d="M771.61,853.09 C757.38,871.49 744.1006,888.6637 729.1206,908.0337 " fill="none" id="BoardViewPrototypeDirector-to-BoardViewPrototypeRegistry" style="stroke:#181818;stroke-width:1.0;"/><polygon fill="#181818" points="725.45,912.78,734.12,908.1077,728.5088,908.8248,727.7917,903.2136,725.45,912.78" style="stroke:#181818;stroke-width:1.0;"/></g><!--link BoardViewPrototypeDirector to PlayerType--><g id="link_BoardViewPrototypeDirector_PlayerType"><path codeLine="117" d="M862.12,853.02 C888.5,871.22 919.91,893.04 948,913 C960.02,921.54 968.2938,927.5124 979.7738,935.8924 " fill="none" id="BoardViewPrototypeDirector-to-PlayerType" style="stroke:#181818;stroke-width:1.0;stroke-dasharray:7.0,7.0;"/><polygon fill="#181818" points="984.62,939.43,979.7091,930.8929,980.5815,936.482,974.9923,937.3545,984.62,939.43" style="stroke:#181818;stroke-width:1.0;"/></g><!--link BoardViewPrototypeRegistry to PlayController--><g id="link_BoardViewPrototypeRegistry_PlayController"><path codeLine="118" d="M714.89,1014.23 C749.68,1073.51 813.38,1173.53 885,1245 C912.49,1272.44 943.1694,1294.3523 972.0494,1312.6223 " fill="none" id="BoardViewPrototypeRegistry-to-PlayController" style="stroke:#181818;stroke-width:1.0;stroke-dasharray:7.0,7.0;"/><polygon fill="#181818" points="977.12,1315.83,971.6527,1307.638,972.8945,1313.1569,967.3757,1314.3988,977.12,1315.83" style="stroke:#181818;stroke-width:1.0;"/></g><!--link BoardViewPrototypeRegistry to Command--><g id="link_BoardViewPrototypeRegistry_Command"><path codeLine="119" d="M516.12,980.08 C449.99,994.64 379.06,1022.2 332,1074 C300.36,1108.82 284.9289,1242.8242 279.1389,1307.0342 " fill="none" id="BoardViewPrototypeRegistry-to-Command" style="stroke:#181818;stroke-width:1.0;stroke-dasharray:7.0,7.0;"/><polygon fill="#181818" points="278.6,1313.01,283.3921,1304.4056,279.049,1308.0302,275.4244,1303.6871,278.6,1313.01" style="stroke:#181818;stroke-width:1.0;"/></g><!--link BoardViewPrototypeRegistry to BoardView--><g id="link_BoardViewPrototypeRegistry_BoardView"><path codeLine="120" d="M634.6811,1023.1642 C618.4611,1041.3442 611.6141,1049.0426 593.4341,1069.4226 " fill="none" id="BoardViewPrototypeRegistry-BoardView" style="stroke:#181818;stroke-width:1.0;"/><polygon fill="#181818" points="642.67,1014.21,635.6908,1016.0242,634.6811,1023.1642,641.6603,1021.3501,642.67,1014.21" style="stroke:#181818;stroke-width:1.0;"/><polygon fill="#181818" points="589.44,1073.9,598.4161,1069.8466,592.7684,1070.1688,592.4462,1064.5211,589.44,1073.9" style="stroke:#181818;stroke-width:1.0;"/><text fill="#000000" font-family="sans-serif" font-size="13" lengthAdjust="spacing" textLength="7" x="588.8472" y="1063.0627">2</text></g><!--link PlayPanelView to Command--><g id="link_PlayPanelView_Command"><path codeLine="123" d="M513.29,710.3 C442.48,786.39 326.24,927.25 281,1074 C255.38,1157.12 263.3012,1255.5021 270.1712,1307.3021 " fill="none" id="PlayPanelView-to-Command" style="stroke:#181818;stroke-width:1.0;stroke-dasharray:7.0,7.0;"/><polygon fill="#181818" points="270.96,1313.25,273.742,1303.8022,270.3026,1308.2934,265.8115,1304.854,270.96,1313.25" style="stroke:#181818;stroke-width:1.0;"/></g><!--reverse link Command to PanelViewCommand--><g id="link_Command_PanelViewCommand"><path codeLine="125" d="M299.097,1396.1071 C308.717,1416.3471 313.47,1426.34 323.74,1447.97 " fill="none" id="Command-backto-PanelViewCommand" style="stroke:#181818;stroke-width:1.0;"/><polygon fill="none" points="291.37,1379.85,293.6779,1398.6828,304.516,1393.5315,291.37,1379.85" style="stroke:#181818;stroke-width:1.0;"/></g><!--reverse link PanelViewCommand to NextTurnCommand--><g id="link_PanelViewCommand_NextTurnCommand"><path codeLine="126" d="M343,1549.28 C343,1569.09 343,1574.18 343,1590.91 " fill="none" id="PanelViewCommand-backto-NextTurnCommand" style="stroke:#181818;stroke-width:1.0;"/><polygon fill="none" points="343,1531.28,337,1549.28,349,1549.28,343,1531.28" style="stroke:#181818;stroke-width:1.0;"/></g><!--reverse link BoardView to MachinePlayerBoardView--><g id="link_BoardView_MachinePlayerBoardView"><path codeLine="129" d="M486.4279,1262.5277 C480.8279,1283.2677 479.77,1287.16 475.01,1304.75 " fill="none" id="BoardView-backto-MachinePlayerBoardView" style="stroke:#181818;stroke-width:1.0;"/><polygon fill="none" points="491.12,1245.15,480.6353,1260.9636,492.2204,1264.0917,491.12,1245.15" style="stroke:#181818;stroke-width:1.0;"/></g><!--reverse link BoardView to UserPlayerBoardView--><g id="link_BoardView_UserPlayerBoardView"><path codeLine="130" d="M617.2608,1257.4725 C639.4508,1278.3125 649.09,1287.36 667.87,1304.99 " fill="none" id="BoardView-backto-UserPlayerBoardView" style="stroke:#181818;stroke-width:1.0;"/><polygon fill="none" points="604.14,1245.15,613.1533,1261.8461,621.3683,1253.0989,604.14,1245.15" style="stroke:#181818;stroke-width:1.0;"/></g><!--link MachinePlayerBoardView to NonClickableSquare--><g id="link_MachinePlayerBoardView_NonClickableSquare"><path codeLine="131" d="M519.9096,1396.1606 C544.7596,1417.8006 561.2948,1432.1802 584.4848,1452.3702 " fill="none" id="MachinePlayerBoardView-NonClickableSquare" style="stroke:#181818;stroke-width:1.0;"/><polygon fill="none" points="510.86,1388.28,512.7579,1395.2369,519.9096,1396.1606,518.0117,1389.2038,510.86,1388.28" style="stroke:#181818;stroke-width:1.0;"/><polygon fill="#181818" points="589.01,1456.31,584.8487,1447.3834,585.239,1453.0268,579.5956,1453.4171,589.01,1456.31" style="stroke:#181818;stroke-width:1.0;"/></g><!--link UserPlayerBoardView to ClickableSquare--><g id="link_UserPlayerBoardView_ClickableSquare"><path codeLine="132" d="M758.9911,1396.8877 C780.0111,1418.5277 792.9296,1431.816 812.5396,1452.006 " fill="none" id="UserPlayerBoardView-ClickableSquare" style="stroke:#181818;stroke-width:1.0;"/><polygon fill="none" points="750.63,1388.28,751.9413,1395.3709,758.9911,1396.8877,757.6798,1389.7968,750.63,1388.28" style="stroke:#181818;stroke-width:1.0;"/><polygon fill="#181818" points="816.72,1456.31,813.3188,1447.0671,813.2364,1452.7233,807.5801,1452.6409,816.72,1456.31" style="stroke:#181818;stroke-width:1.0;"/></g><!--reverse link Square to ClickableSquare--><g id="link_Square_ClickableSquare"><path codeLine="133" d="M880.1005,1387.9289 C872.6405,1411.3189 866.55,1430.39 858.22,1456.47 " fill="none" id="Square-backto-ClickableSquare" style="stroke:#181818;stroke-width:1.0;"/><polygon fill="none" points="885.57,1370.78,874.3842,1386.1057,885.8168,1389.7521,885.57,1370.78" style="stroke:#181818;stroke-width:1.0;"/></g><!--reverse link Square to NonClickableSquare--><g id="link_Square_NonClickableSquare"><path codeLine="134" d="M847.9046,1380.9827 C839.4846,1386.9627 844.89,1382.77 836,1388 C792.64,1413.53 741.78,1438 700.98,1456.4 " fill="none" id="Square-backto-NonClickableSquare" style="stroke:#181818;stroke-width:1.0;"/><polygon fill="none" points="862.58,1370.56,844.4304,1376.0909,851.3788,1385.8745,862.58,1370.56" style="stroke:#181818;stroke-width:1.0;"/></g><!--link BoardView to Command--><g id="link_BoardView_Command"><path codeLine="135" d="M405.1,1245.15 C373.89,1269.41 346.4768,1290.7173 322.0768,1309.6873 " fill="none" id="BoardView-to-Command" style="stroke:#181818;stroke-width:1.0;"/><polygon fill="#181818" points="317.34,1313.37,326.9004,1311.0038,321.2874,1310.3011,321.9901,1304.688,317.34,1313.37" style="stroke:#181818;stroke-width:1.0;"/></g><!--link Square to Coordinate--><g id="link_Square_Coordinate"><path codeLine="137" d="M913.81,1370.78 C935.33,1394.87 965.0321,1428.106 988.4621,1454.326 " fill="none" id="Square-to-Coordinate" style="stroke:#181818;stroke-width:1.0;"/><polygon fill="#181818" points="992.46,1458.8,989.4458,1449.4237,989.1284,1455.0717,983.4805,1454.7543,992.46,1458.8" style="stroke:#181818;stroke-width:1.0;"/></g><!--SRC=[bLPBKzim4BxhLsZIYob93ZrscCoqeMLWW6Q0Sk8Yv6rmSIHNbWCCvRzNRrko7L8E2T9- -_fsLnjQahh6Qq6gXuBMynFtpsq1J_WLOVLtM4iYP7QjFvUSIS7B4iI1bLKbUSbMwgCd4L0t6yYkp5TFMeCy9v8-P4lUC7dCdvWv7g0tXAW9AHPWKkF9Rx8byqOMvVoEKSve8mGmgGunTk8iXAGkIC6-2x81cn0-B9W4GQZCscXMX46PdIZGEUULJj_9daGXmGEBskQJz_F2d_4zvoKGfd8WzxNK3d0IYV7IvHQ_UkWRzfxUa8dl5w7GAKmdiZG_KvgUwIXmakUwIY3gS4DbmTbA-U529_J5dBzj5QETAhIHA-tWOi33JC26R-4h9oBtBhP5NSZiWj27We5rR-GTTYtaPmsY9nzdCO02Y-4cwSKf3Z4l-MP3MExyucxi7t2t39WA81Ak_pH4WEfFBlA2gGjTONlfbDQWvg7acb8bkY3LaJbEyUc6hE5KTUYYHLx2ixnf17DX69KqjXOTPs71qPNB8egRK0gLpA9AtMf-kT1iZf6u4bno-LB1SI60Ah0ZLOMHzK5Ni2wKnvVf7SEsP3VgLWSOiFluycQihraL5xzsVBOEfgtv1ROweQMtlkuzw478n8flOsGQzS3OkShuHeDde8qRqdTdFD5DxxDmuRfGXNa558gjhxYNzmaTdYdlAHUykk6FmDfP_v_E69X6LwQTRyO-db9NoLICSkhcBhbTbWLz9FUbczNm6jZ1R3RCqAYgsi_nahCnxNSUniIGZdxWIToZFPobPA-QHKV3iLRRBK7uzHO_20DwCS2hfOjhG365JC9Azc-XKTARk9vlU0vbRPQmbquGGj4FYTbiaUnpP_7Ch6Lal_3HtzaCXsKTc_YeRRGoX9AbfyK9KKEG98geJmqWUMRxWCH2Etm3shuvXcGX5poVBtfLGMd_c8unjWnBNMxyL9tzg4pdgd0Jwrq9EZFvM3DjCxP9MllTdnlTWnN7p0u08jvIu-sRcmWyNqdxw1IYWDhiDB6HAAcOQPkElxum-8nbskVusjeBxFSf6XVXABo-cnsQscUxoj2uaO3iTDSxQFySxu0PxYQV9YstQ80KRmZvNHXtdHVtLgQ1fSi1TORDFHL3Mp153QmpDB8_kKwglnhGW0cBJO5kbHY_ksG3FkA79EJijEoTVs3_0G00]--></g></svg>