<?xml version="1.0" encoding="us-ascii" standalone="no"?><svg xmlns="http://www.w3.org/2000/svg" xmlns:xlink="http://www.w3.org/1999/xlink" contentStyleType="text/css" height="467px" preserveAspectRatio="none" style="width:466px;height:467px;background:#FFFFFF;" version="1.1" viewBox="0 0 466 467" width="466px" zoomAndPan="magnify"><defs/><g><!--cluster types--><g id="cluster_types"><path d="M8.5,6 L47.5,6 A3.75,3.75 0 0 1 50,8.5 L57,29.6094 L456.5,29.6094 A2.5,2.5 0 0 1 459,32.1094 L459,457.5 A2.5,2.5 0 0 1 456.5,460 L8.5,460 A2.5,2.5 0 0 1 6,457.5 L6,8.5 A2.5,2.5 0 0 1 8.5,6 " fill="none" style="stroke:#000000;stroke-width:1.5;"/><line style="stroke:#000000;stroke-width:1.5;" x1="6" x2="57" y1="29.6094" y2="29.6094"/><text fill="#000000" font-family="sans-serif" font-size="14" font-weight="bold" lengthAdjust="spacing" textLength="38" x="10" y="22.5332">types</text></g><!--class Color--><g id="elem_Color"><rect codeLine="2" fill="#F1F1F1" height="224.0938" id="Color" rx="2.5" ry="2.5" style="stroke:#181818;stroke-width:0.5;" width="170" x="22" y="42"/><ellipse cx="85.75" cy="58" fill="#EB937F" rx="11" ry="11" style="stroke:#181818;stroke-width:1.0;"/><path d="M84.6094,58.7969 L84.6094,61.2969 L88.9375,61.2969 L88.9375,60.375 Q88.9375,59.7656 89.1719,59.5 Q89.4219,59.2344 89.7969,59.2344 Q90.1719,59.2344 90.4063,59.5 Q90.6406,59.7656 90.6406,60.375 L90.6406,63 L82.6406,63 Q82.0156,63 81.75,62.7656 Q81.5,62.5313 81.5,62.1406 Q81.5,61.7656 81.7656,61.5313 Q82.0313,61.2969 82.6406,61.2969 L82.9063,61.2969 L82.9063,54.6406 L82.6406,54.6406 Q82.0156,54.6406 81.75,54.4063 Q81.5,54.1719 81.5,53.7813 Q81.5,53.4063 81.75,53.1719 Q82.0156,52.9375 82.6406,52.9375 L90.2656,52.9375 L90.2656,55.5313 Q90.2656,56.1406 90.0313,56.4063 Q89.8125,56.6563 89.4219,56.6563 Q89.0469,56.6563 88.8125,56.4063 Q88.5781,56.1406 88.5781,55.5313 L88.5781,54.6406 L84.6094,54.6406 L84.6094,57.0938 L86.0938,57.0938 Q86.0938,56.4375 86.2188,56.25 Q86.4844,55.8438 86.9531,55.8438 Q87.3281,55.8438 87.5625,56.1094 Q87.7969,56.3594 87.7969,56.9688 L87.7969,58.9375 Q87.7969,59.4844 87.6719,59.6719 Q87.4063,60.0625 86.9531,60.0625 Q86.4844,60.0625 86.2188,59.6563 Q86.0938,59.4688 86.0938,58.7969 L84.6094,58.7969 Z " fill="#000000"/><text fill="#000000" font-family="sans-serif" font-size="14" lengthAdjust="spacing" textLength="34" x="106.25" y="63.7285">Color</text><line style="stroke:#181818;stroke-width:0.5;" x1="23" x2="191" y1="74" y2="74"/><ellipse cx="33" cy="88.3047" fill="none" rx="3" ry="3" style="stroke:#038048;stroke-width:1.0;"/><text fill="#000000" font-family="sans-serif" font-size="14" lengthAdjust="spacing" textLength="29" x="42" y="92.5332">RED</text><ellipse cx="33" cy="105.9141" fill="none" rx="3" ry="3" style="stroke:#038048;stroke-width:1.0;"/><text fill="#000000" font-family="sans-serif" font-size="14" lengthAdjust="spacing" textLength="58" x="42" y="110.1426">YELLOW</text><ellipse cx="33" cy="123.5234" fill="none" rx="3" ry="3" style="stroke:#038048;stroke-width:1.0;"/><text fill="#000000" font-family="sans-serif" font-size="14" lengthAdjust="spacing" textLength="34" x="42" y="127.752">NULL</text><rect fill="none" height="6" style="stroke:#C82930;stroke-width:1.0;" width="6" x="30" y="138.1328"/><text fill="#000000" font-family="sans-serif" font-size="14" lengthAdjust="spacing" textLength="76" x="42" y="145.3613">color: String</text><rect fill="none" height="6" style="stroke:#C82930;stroke-width:1.0;" width="6" x="30" y="155.7422"/><text fill="#000000" font-family="sans-serif" font-size="14" lengthAdjust="spacing" text-decoration="underline" textLength="121" x="42" y="162.9707">PLAYERS : Color[ ]</text><line style="stroke:#181818;stroke-width:0.5;" x1="23" x2="191" y1="170.0469" y2="170.0469"/><ellipse cx="33" cy="184.3516" fill="#84BE84" rx="3" ry="3" style="stroke:#038048;stroke-width:1.0;"/><text fill="#000000" font-family="sans-serif" font-size="14" lengthAdjust="spacing" textLength="120" x="42" y="188.5801">Color(color: String)</text><ellipse cx="33" cy="201.9609" fill="#84BE84" rx="3" ry="3" style="stroke:#038048;stroke-width:1.0;"/><text fill="#000000" font-family="sans-serif" font-size="14" lengthAdjust="spacing" text-decoration="underline" textLength="138" x="42" y="206.1895">get(ordinal: int): Color</text><ellipse cx="33" cy="219.5703" fill="#84BE84" rx="3" ry="3" style="stroke:#038048;stroke-width:1.0;"/><text fill="#000000" font-family="sans-serif" font-size="14" lengthAdjust="spacing" textLength="104" x="42" y="223.7988">toString(): String</text><ellipse cx="33" cy="237.1797" fill="#84BE84" rx="3" ry="3" style="stroke:#038048;stroke-width:1.0;"/><text fill="#000000" font-family="sans-serif" font-size="14" lengthAdjust="spacing" textLength="129" x="42" y="241.4082">getOpposite(): Color</text><ellipse cx="33" cy="254.7891" fill="#84BE84" rx="3" ry="3" style="stroke:#038048;stroke-width:1.0;"/><text fill="#000000" font-family="sans-serif" font-size="14" lengthAdjust="spacing" text-decoration="underline" textLength="144" x="42" y="259.0176">isValid(Color): boolean</text></g><!--class PlayerType--><g id="elem_PlayerType"><rect codeLine="3" fill="#F1F1F1" height="100.8281" id="PlayerType" rx="2.5" ry="2.5" style="stroke:#181818;stroke-width:0.5;" width="216" x="227" y="103.5"/><ellipse cx="294.75" cy="119.5" fill="#EB937F" rx="11" ry="11" style="stroke:#181818;stroke-width:1.0;"/><path d="M293.6094,120.2969 L293.6094,122.7969 L297.9375,122.7969 L297.9375,121.875 Q297.9375,121.2656 298.1719,121 Q298.4219,120.7344 298.7969,120.7344 Q299.1719,120.7344 299.4063,121 Q299.6406,121.2656 299.6406,121.875 L299.6406,124.5 L291.6406,124.5 Q291.0156,124.5 290.75,124.2656 Q290.5,124.0313 290.5,123.6406 Q290.5,123.2656 290.7656,123.0313 Q291.0313,122.7969 291.6406,122.7969 L291.9063,122.7969 L291.9063,116.1406 L291.6406,116.1406 Q291.0156,116.1406 290.75,115.9063 Q290.5,115.6719 290.5,115.2813 Q290.5,114.9063 290.75,114.6719 Q291.0156,114.4375 291.6406,114.4375 L299.2656,114.4375 L299.2656,117.0313 Q299.2656,117.6406 299.0313,117.9063 Q298.8125,118.1563 298.4219,118.1563 Q298.0469,118.1563 297.8125,117.9063 Q297.5781,117.6406 297.5781,117.0313 L297.5781,116.1406 L293.6094,116.1406 L293.6094,118.5938 L295.0938,118.5938 Q295.0938,117.9375 295.2188,117.75 Q295.4844,117.3438 295.9531,117.3438 Q296.3281,117.3438 296.5625,117.6094 Q296.7969,117.8594 296.7969,118.4688 L296.7969,120.4375 Q296.7969,120.9844 296.6719,121.1719 Q296.4063,121.5625 295.9531,121.5625 Q295.4844,121.5625 295.2188,121.1563 Q295.0938,120.9688 295.0938,120.2969 L293.6094,120.2969 Z " fill="#000000"/><text fill="#000000" font-family="sans-serif" font-size="14" lengthAdjust="spacing" textLength="72" x="315.25" y="125.2285">PlayerType</text><line style="stroke:#181818;stroke-width:0.5;" x1="228" x2="442" y1="135.5" y2="135.5"/><ellipse cx="238" cy="149.8047" fill="none" rx="3" ry="3" style="stroke:#038048;stroke-width:1.0;"/><text fill="#000000" font-family="sans-serif" font-size="14" lengthAdjust="spacing" textLength="99" x="247" y="154.0332">USER_PLAYER</text><ellipse cx="238" cy="167.4141" fill="none" rx="3" ry="3" style="stroke:#038048;stroke-width:1.0;"/><text fill="#000000" font-family="sans-serif" font-size="14" lengthAdjust="spacing" textLength="190" x="247" y="171.6426">RANDOM_MACHINE_PLAYER</text><ellipse cx="238" cy="185.0234" fill="none" rx="3" ry="3" style="stroke:#038048;stroke-width:1.0;"/><text fill="#000000" font-family="sans-serif" font-size="14" lengthAdjust="spacing" textLength="189" x="247" y="189.252">MIN_MAX_MACHINE_PLAYER</text><line style="stroke:#181818;stroke-width:0.5;" x1="228" x2="442" y1="196.3281" y2="196.3281"/></g><!--class StateValue--><g id="elem_StateValue"><rect codeLine="4" fill="#F1F1F1" height="118.4375" id="StateValue" rx="2.5" ry="2.5" style="stroke:#181818;stroke-width:0.5;" width="101" x="56.5" y="326"/><ellipse cx="71.5" cy="342" fill="#EB937F" rx="11" ry="11" style="stroke:#181818;stroke-width:1.0;"/><path d="M70.3594,342.7969 L70.3594,345.2969 L74.6875,345.2969 L74.6875,344.375 Q74.6875,343.7656 74.9219,343.5 Q75.1719,343.2344 75.5469,343.2344 Q75.9219,343.2344 76.1563,343.5 Q76.3906,343.7656 76.3906,344.375 L76.3906,347 L68.3906,347 Q67.7656,347 67.5,346.7656 Q67.25,346.5313 67.25,346.1406 Q67.25,345.7656 67.5156,345.5313 Q67.7813,345.2969 68.3906,345.2969 L68.6563,345.2969 L68.6563,338.6406 L68.3906,338.6406 Q67.7656,338.6406 67.5,338.4063 Q67.25,338.1719 67.25,337.7813 Q67.25,337.4063 67.5,337.1719 Q67.7656,336.9375 68.3906,336.9375 L76.0156,336.9375 L76.0156,339.5313 Q76.0156,340.1406 75.7813,340.4063 Q75.5625,340.6563 75.1719,340.6563 Q74.7969,340.6563 74.5625,340.4063 Q74.3281,340.1406 74.3281,339.5313 L74.3281,338.6406 L70.3594,338.6406 L70.3594,341.0938 L71.8438,341.0938 Q71.8438,340.4375 71.9688,340.25 Q72.2344,339.8438 72.7031,339.8438 Q73.0781,339.8438 73.3125,340.1094 Q73.5469,340.3594 73.5469,340.9688 L73.5469,342.9375 Q73.5469,343.4844 73.4219,343.6719 Q73.1563,344.0625 72.7031,344.0625 Q72.2344,344.0625 71.9688,343.6563 Q71.8438,343.4688 71.8438,342.7969 L70.3594,342.7969 Z " fill="#000000"/><text fill="#000000" font-family="sans-serif" font-size="14" lengthAdjust="spacing" textLength="69" x="85.5" y="347.7285">StateValue</text><line style="stroke:#181818;stroke-width:0.5;" x1="57.5" x2="156.5" y1="358" y2="358"/><ellipse cx="67.5" cy="372.3047" fill="none" rx="3" ry="3" style="stroke:#038048;stroke-width:1.0;"/><text fill="#000000" font-family="sans-serif" font-size="14" lengthAdjust="spacing" textLength="44" x="76.5" y="376.5332">INITIAL</text><ellipse cx="67.5" cy="389.9141" fill="none" rx="3" ry="3" style="stroke:#038048;stroke-width:1.0;"/><text fill="#000000" font-family="sans-serif" font-size="14" lengthAdjust="spacing" textLength="60" x="76.5" y="394.1426">IN_GAME</text><ellipse cx="67.5" cy="407.5234" fill="none" rx="3" ry="3" style="stroke:#038048;stroke-width:1.0;"/><text fill="#000000" font-family="sans-serif" font-size="14" lengthAdjust="spacing" textLength="57" x="76.5" y="411.752">RESUME</text><ellipse cx="67.5" cy="425.1328" fill="none" rx="3" ry="3" style="stroke:#038048;stroke-width:1.0;"/><text fill="#000000" font-family="sans-serif" font-size="14" lengthAdjust="spacing" textLength="29" x="76.5" y="429.3613">EXIT</text><line style="stroke:#181818;stroke-width:0.5;" x1="57.5" x2="156.5" y1="436.4375" y2="436.4375"/></g><!--SRC=[RL7TRi8W5BxdARYaCUu1UaUKA0cqfhIRnYmDKs9863GjNXZZku-sAfiTLz_FETyvWBBdR-WlZUhU5iwu5gWeR8oygBOC-BSglFJgNPgpWbS0mvdHZ9OKimUfLvYJaHH4L0zCjhG4Dm26CJ3jpMKaEy9O_X5vLZ7sPFD33r8eVAljwIbVkx2AFjpWVCFmZXGYQ8EtXvynQG3eJq8oZPYTb4UkFMehJGgrzSazAmPvDtQZPB99tvqtZUkqLsZI6OVeBZoSFgB12NLVpXabBG3ngVkqIf2Y7k_quXGuM-QyvdYnfXdvluQ7B-1u-rhq0m00]--></g></svg>