<?xml version="1.0" encoding="us-ascii" standalone="no"?><svg xmlns="http://www.w3.org/2000/svg" xmlns:xlink="http://www.w3.org/1999/xlink" contentStyleType="text/css" height="289px" preserveAspectRatio="none" style="width:466px;height:289px;background:#FFFFFF;" version="1.1" viewBox="0 0 466 289" width="466px" zoomAndPan="magnify"><defs/><g><!--cluster types--><g id="cluster_types"><path d="M8.5,6 L47.5,6 A3.75,3.75 0 0 1 50,8.5 L57,29.6094 L456.5,29.6094 A2.5,2.5 0 0 1 459,32.1094 L459,279.5 A2.5,2.5 0 0 1 456.5,282 L8.5,282 A2.5,2.5 0 0 1 6,279.5 L6,8.5 A2.5,2.5 0 0 1 8.5,6 " fill="none" style="stroke:#000000;stroke-width:1.5;"/><line style="stroke:#000000;stroke-width:1.5;" x1="6" x2="57" y1="29.6094" y2="29.6094"/><text fill="#000000" font-family="sans-serif" font-size="14" font-weight="bold" lengthAdjust="spacing" textLength="38" x="10" y="22.5332">types</text></g><!--class Color--><g id="elem_Color"><rect codeLine="2" fill="#F1F1F1" height="224.0938" id="Color" rx="2.5" ry="2.5" style="stroke:#181818;stroke-width:0.5;" width="170" x="273" y="42"/><ellipse cx="336.75" cy="58" fill="#EB937F" rx="11" ry="11" style="stroke:#181818;stroke-width:1.0;"/><path d="M335.6094,58.7969 L335.6094,61.2969 L339.9375,61.2969 L339.9375,60.375 Q339.9375,59.7656 340.1719,59.5 Q340.4219,59.2344 340.7969,59.2344 Q341.1719,59.2344 341.4063,59.5 Q341.6406,59.7656 341.6406,60.375 L341.6406,63 L333.6406,63 Q333.0156,63 332.75,62.7656 Q332.5,62.5313 332.5,62.1406 Q332.5,61.7656 332.7656,61.5313 Q333.0313,61.2969 333.6406,61.2969 L333.9063,61.2969 L333.9063,54.6406 L333.6406,54.6406 Q333.0156,54.6406 332.75,54.4063 Q332.5,54.1719 332.5,53.7813 Q332.5,53.4063 332.75,53.1719 Q333.0156,52.9375 333.6406,52.9375 L341.2656,52.9375 L341.2656,55.5313 Q341.2656,56.1406 341.0313,56.4063 Q340.8125,56.6563 340.4219,56.6563 Q340.0469,56.6563 339.8125,56.4063 Q339.5781,56.1406 339.5781,55.5313 L339.5781,54.6406 L335.6094,54.6406 L335.6094,57.0938 L337.0938,57.0938 Q337.0938,56.4375 337.2188,56.25 Q337.4844,55.8438 337.9531,55.8438 Q338.3281,55.8438 338.5625,56.1094 Q338.7969,56.3594 338.7969,56.9688 L338.7969,58.9375 Q338.7969,59.4844 338.6719,59.6719 Q338.4063,60.0625 337.9531,60.0625 Q337.4844,60.0625 337.2188,59.6563 Q337.0938,59.4688 337.0938,58.7969 L335.6094,58.7969 Z " fill="#000000"/><text fill="#000000" font-family="sans-serif" font-size="14" lengthAdjust="spacing" textLength="34" x="357.25" y="63.7285">Color</text><line style="stroke:#181818;stroke-width:0.5;" x1="274" x2="442" y1="74" y2="74"/><ellipse cx="284" cy="88.3047" fill="none" rx="3" ry="3" style="stroke:#038048;stroke-width:1.0;"/><text fill="#000000" font-family="sans-serif" font-size="14" lengthAdjust="spacing" textLength="29" x="293" y="92.5332">RED</text><ellipse cx="284" cy="105.9141" fill="none" rx="3" ry="3" style="stroke:#038048;stroke-width:1.0;"/><text fill="#000000" font-family="sans-serif" font-size="14" lengthAdjust="spacing" textLength="58" x="293" y="110.1426">YELLOW</text><ellipse cx="284" cy="123.5234" fill="none" rx="3" ry="3" style="stroke:#038048;stroke-width:1.0;"/><text fill="#000000" font-family="sans-serif" font-size="14" lengthAdjust="spacing" textLength="34" x="293" y="127.752">NULL</text><rect fill="none" height="6" style="stroke:#C82930;stroke-width:1.0;" width="6" x="281" y="138.1328"/><text fill="#000000" font-family="sans-serif" font-size="14" lengthAdjust="spacing" textLength="76" x="293" y="145.3613">color: String</text><rect fill="none" height="6" style="stroke:#C82930;stroke-width:1.0;" width="6" x="281" y="155.7422"/><text fill="#000000" font-family="sans-serif" font-size="14" lengthAdjust="spacing" text-decoration="underline" textLength="121" x="293" y="162.9707">PLAYERS : Color[ ]</text><line style="stroke:#181818;stroke-width:0.5;" x1="274" x2="442" y1="170.0469" y2="170.0469"/><ellipse cx="284" cy="184.3516" fill="#84BE84" rx="3" ry="3" style="stroke:#038048;stroke-width:1.0;"/><text fill="#000000" font-family="sans-serif" font-size="14" lengthAdjust="spacing" textLength="120" x="293" y="188.5801">Color(color: String)</text><ellipse cx="284" cy="201.9609" fill="#84BE84" rx="3" ry="3" style="stroke:#038048;stroke-width:1.0;"/><text fill="#000000" font-family="sans-serif" font-size="14" lengthAdjust="spacing" text-decoration="underline" textLength="138" x="293" y="206.1895">get(ordinal: int): Color</text><ellipse cx="284" cy="219.5703" fill="#84BE84" rx="3" ry="3" style="stroke:#038048;stroke-width:1.0;"/><text fill="#000000" font-family="sans-serif" font-size="14" lengthAdjust="spacing" textLength="104" x="293" y="223.7988">toString(): String</text><ellipse cx="284" cy="237.1797" fill="#84BE84" rx="3" ry="3" style="stroke:#038048;stroke-width:1.0;"/><text fill="#000000" font-family="sans-serif" font-size="14" lengthAdjust="spacing" textLength="129" x="293" y="241.4082">getOpposite(): Color</text><ellipse cx="284" cy="254.7891" fill="#84BE84" rx="3" ry="3" style="stroke:#038048;stroke-width:1.0;"/><text fill="#000000" font-family="sans-serif" font-size="14" lengthAdjust="spacing" text-decoration="underline" textLength="144" x="293" y="259.0176">isValid(Color): boolean</text></g><!--class PlayerType--><g id="elem_PlayerType"><rect codeLine="3" fill="#F1F1F1" height="100.8281" id="PlayerType" rx="2.5" ry="2.5" style="stroke:#181818;stroke-width:0.5;" width="216" x="22" y="103.5"/><ellipse cx="89.75" cy="119.5" fill="#EB937F" rx="11" ry="11" style="stroke:#181818;stroke-width:1.0;"/><path d="M88.6094,120.2969 L88.6094,122.7969 L92.9375,122.7969 L92.9375,121.875 Q92.9375,121.2656 93.1719,121 Q93.4219,120.7344 93.7969,120.7344 Q94.1719,120.7344 94.4063,121 Q94.6406,121.2656 94.6406,121.875 L94.6406,124.5 L86.6406,124.5 Q86.0156,124.5 85.75,124.2656 Q85.5,124.0313 85.5,123.6406 Q85.5,123.2656 85.7656,123.0313 Q86.0313,122.7969 86.6406,122.7969 L86.9063,122.7969 L86.9063,116.1406 L86.6406,116.1406 Q86.0156,116.1406 85.75,115.9063 Q85.5,115.6719 85.5,115.2813 Q85.5,114.9063 85.75,114.6719 Q86.0156,114.4375 86.6406,114.4375 L94.2656,114.4375 L94.2656,117.0313 Q94.2656,117.6406 94.0313,117.9063 Q93.8125,118.1563 93.4219,118.1563 Q93.0469,118.1563 92.8125,117.9063 Q92.5781,117.6406 92.5781,117.0313 L92.5781,116.1406 L88.6094,116.1406 L88.6094,118.5938 L90.0938,118.5938 Q90.0938,117.9375 90.2188,117.75 Q90.4844,117.3438 90.9531,117.3438 Q91.3281,117.3438 91.5625,117.6094 Q91.7969,117.8594 91.7969,118.4688 L91.7969,120.4375 Q91.7969,120.9844 91.6719,121.1719 Q91.4063,121.5625 90.9531,121.5625 Q90.4844,121.5625 90.2188,121.1563 Q90.0938,120.9688 90.0938,120.2969 L88.6094,120.2969 Z " fill="#000000"/><text fill="#000000" font-family="sans-serif" font-size="14" lengthAdjust="spacing" textLength="72" x="110.25" y="125.2285">PlayerType</text><line style="stroke:#181818;stroke-width:0.5;" x1="23" x2="237" y1="135.5" y2="135.5"/><ellipse cx="33" cy="149.8047" fill="none" rx="3" ry="3" style="stroke:#038048;stroke-width:1.0;"/><text fill="#000000" font-family="sans-serif" font-size="14" lengthAdjust="spacing" textLength="99" x="42" y="154.0332">USER_PLAYER</text><ellipse cx="33" cy="167.4141" fill="none" rx="3" ry="3" style="stroke:#038048;stroke-width:1.0;"/><text fill="#000000" font-family="sans-serif" font-size="14" lengthAdjust="spacing" textLength="190" x="42" y="171.6426">RANDOM_MACHINE_PLAYER</text><ellipse cx="33" cy="185.0234" fill="none" rx="3" ry="3" style="stroke:#038048;stroke-width:1.0;"/><text fill="#000000" font-family="sans-serif" font-size="14" lengthAdjust="spacing" textLength="189" x="42" y="189.252">MIN_MAX_MACHINE_PLAYER</text><line style="stroke:#181818;stroke-width:0.5;" x1="23" x2="237" y1="196.3281" y2="196.3281"/></g><!--SRC=[RL1B2u8m0BxlL-mu4Vi1taG71VE1PYKHiNJ8O6sYwo3HVyz7ECfkttiF9XztgFk6THjV2TK2PeH4q9wr-m43C9dGXNQA0qCAJ4XyD3pA2LcOKux0XPbkkQmN-TbfgddvWav2l0AdsQ1DtXbUpD84qDU2jPwmQwQHQYikgN0XbzhwR9aXhUOsibOt6TjnqwYEQuPMJNC8xmvKy0fDpf2xAIKObG2O3nhNyWodr_bDFqxgHK4SNaFFt-uY_3yJxg8XSFeDlG40]--></g></svg>