<?xml version="1.0" encoding="us-ascii" standalone="no"?><svg xmlns="http://www.w3.org/2000/svg" xmlns:xlink="http://www.w3.org/1999/xlink" contentStyleType="text/css" height="2475px" preserveAspectRatio="none" style="width:971px;height:2475px;background:#FFFFFF;" version="1.1" viewBox="0 0 971 2475" width="971px" zoomAndPan="magnify"><defs/><g><!--class ClosedInterval--><g id="elem_ClosedInterval"><rect codeLine="2" fill="#F1F1F1" height="118.4375" id="ClosedInterval" rx="2.5" ry="2.5" style="stroke:#181818;stroke-width:0.5;" width="162" x="237" y="2350"/><ellipse cx="270" cy="2366" fill="#ADD1B2" rx="11" ry="11" style="stroke:#181818;stroke-width:1.0;"/><path d="M272.7656,2361.875 Q272.9219,2361.6563 273.1094,2361.5469 Q273.2969,2361.4375 273.5156,2361.4375 Q273.8906,2361.4375 274.125,2361.7031 Q274.3594,2361.9531 274.3594,2362.5625 L274.3594,2364.0156 Q274.3594,2364.625 274.125,2364.8906 Q273.8906,2365.1563 273.5156,2365.1563 Q273.1719,2365.1563 272.9688,2364.9531 Q272.7656,2364.7656 272.6563,2364.25 Q272.6094,2363.8906 272.4219,2363.7031 Q272.0938,2363.3281 271.4844,2363.1094 Q270.875,2362.8906 270.25,2362.8906 Q269.4844,2362.8906 268.8438,2363.2188 Q268.2188,2363.5469 267.7188,2364.2969 Q267.2344,2365.0469 267.2344,2366.0781 L267.2344,2367.1719 Q267.2344,2368.4063 268.125,2369.2344 Q269.0156,2370.0469 270.6094,2370.0469 Q271.5469,2370.0469 272.2031,2369.7969 Q272.5938,2369.6406 273.0156,2369.2031 Q273.2813,2368.9375 273.4219,2368.8594 Q273.5781,2368.7813 273.7813,2368.7813 Q274.1094,2368.7813 274.3594,2369.0469 Q274.625,2369.2969 274.625,2369.6406 Q274.625,2369.9844 274.2813,2370.3906 Q273.7813,2370.9688 272.9844,2371.2969 Q271.9063,2371.75 270.6094,2371.75 Q269.0938,2371.75 267.8906,2371.125 Q266.9063,2370.625 266.2188,2369.5625 Q265.5313,2368.4844 265.5313,2367.2031 L265.5313,2366.0469 Q265.5313,2364.7188 266.1406,2363.5781 Q266.7656,2362.4219 267.8594,2361.8125 Q268.9531,2361.1875 270.1875,2361.1875 Q270.9219,2361.1875 271.5625,2361.3594 Q272.2188,2361.5156 272.7656,2361.875 Z " fill="#000000"/><text fill="#000000" font-family="sans-serif" font-size="14" lengthAdjust="spacing" textLength="90" x="288" y="2371.7285">ClosedInterval</text><line style="stroke:#181818;stroke-width:0.5;" x1="238" x2="398" y1="2382" y2="2382"/><rect fill="none" height="6" style="stroke:#C82930;stroke-width:1.0;" width="6" x="245" y="2393.3047"/><text fill="#000000" font-family="sans-serif" font-size="14" lengthAdjust="spacing" textLength="22" x="257" y="2400.5332">min</text><rect fill="none" height="6" style="stroke:#C82930;stroke-width:1.0;" width="6" x="245" y="2410.9141"/><text fill="#000000" font-family="sans-serif" font-size="14" lengthAdjust="spacing" textLength="25" x="257" y="2418.1426">max</text><line style="stroke:#181818;stroke-width:0.5;" x1="238" x2="398" y1="2425.2188" y2="2425.2188"/><ellipse cx="248" cy="2439.5234" fill="#84BE84" rx="3" ry="3" style="stroke:#038048;stroke-width:1.0;"/><text fill="#000000" font-family="sans-serif" font-size="14" lengthAdjust="spacing" textLength="136" x="257" y="2443.752">constructor(min, max)</text><ellipse cx="248" cy="2457.1328" fill="#84BE84" rx="3" ry="3" style="stroke:#038048;stroke-width:1.0;"/><text fill="#000000" font-family="sans-serif" font-size="14" lengthAdjust="spacing" textLength="107" x="257" y="2461.3613">isIncluded(value)</text></g><!--class Color--><g id="elem_Color"><rect codeLine="3" fill="#F1F1F1" height="188.875" id="Color" rx="2.5" ry="2.5" style="stroke:#181818;stroke-width:0.5;" width="142" x="134" y="1321"/><ellipse cx="183.75" cy="1337" fill="#ADD1B2" rx="11" ry="11" style="stroke:#181818;stroke-width:1.0;"/><path d="M186.5156,1332.875 Q186.6719,1332.6563 186.8594,1332.5469 Q187.0469,1332.4375 187.2656,1332.4375 Q187.6406,1332.4375 187.875,1332.7031 Q188.1094,1332.9531 188.1094,1333.5625 L188.1094,1335.0156 Q188.1094,1335.625 187.875,1335.8906 Q187.6406,1336.1563 187.2656,1336.1563 Q186.9219,1336.1563 186.7188,1335.9531 Q186.5156,1335.7656 186.4063,1335.25 Q186.3594,1334.8906 186.1719,1334.7031 Q185.8438,1334.3281 185.2344,1334.1094 Q184.625,1333.8906 184,1333.8906 Q183.2344,1333.8906 182.5938,1334.2188 Q181.9688,1334.5469 181.4688,1335.2969 Q180.9844,1336.0469 180.9844,1337.0781 L180.9844,1338.1719 Q180.9844,1339.4063 181.875,1340.2344 Q182.7656,1341.0469 184.3594,1341.0469 Q185.2969,1341.0469 185.9531,1340.7969 Q186.3438,1340.6406 186.7656,1340.2031 Q187.0313,1339.9375 187.1719,1339.8594 Q187.3281,1339.7813 187.5313,1339.7813 Q187.8594,1339.7813 188.1094,1340.0469 Q188.375,1340.2969 188.375,1340.6406 Q188.375,1340.9844 188.0313,1341.3906 Q187.5313,1341.9688 186.7344,1342.2969 Q185.6563,1342.75 184.3594,1342.75 Q182.8438,1342.75 181.6406,1342.125 Q180.6563,1341.625 179.9688,1340.5625 Q179.2813,1339.4844 179.2813,1338.2031 L179.2813,1337.0469 Q179.2813,1335.7188 179.8906,1334.5781 Q180.5156,1333.4219 181.6094,1332.8125 Q182.7031,1332.1875 183.9375,1332.1875 Q184.6719,1332.1875 185.3125,1332.3594 Q185.9688,1332.5156 186.5156,1332.875 Z " fill="#000000"/><text fill="#000000" font-family="sans-serif" font-size="14" lengthAdjust="spacing" textLength="34" x="204.25" y="1342.7285">Color</text><line style="stroke:#181818;stroke-width:0.5;" x1="135" x2="275" y1="1353" y2="1353"/><ellipse cx="145" cy="1367.3047" fill="none" rx="3" ry="3" style="stroke:#038048;stroke-width:1.0;"/><text fill="#000000" font-family="sans-serif" font-size="14" lengthAdjust="spacing" text-decoration="underline" textLength="29" x="154" y="1371.5332">RED</text><ellipse cx="145" cy="1384.9141" fill="none" rx="3" ry="3" style="stroke:#038048;stroke-width:1.0;"/><text fill="#000000" font-family="sans-serif" font-size="14" lengthAdjust="spacing" text-decoration="underline" textLength="58" x="154" y="1389.1426">YELLOW</text><ellipse cx="145" cy="1402.5234" fill="none" rx="3" ry="3" style="stroke:#038048;stroke-width:1.0;"/><text fill="#000000" font-family="sans-serif" font-size="14" lengthAdjust="spacing" text-decoration="underline" textLength="34" x="154" y="1406.752">NULL</text><rect fill="none" height="6" style="stroke:#C82930;stroke-width:1.0;" width="6" x="142" y="1417.1328"/><text fill="#000000" font-family="sans-serif" font-size="14" lengthAdjust="spacing" textLength="35" x="154" y="1424.3613">string</text><line style="stroke:#181818;stroke-width:0.5;" x1="135" x2="275" y1="1431.4375" y2="1431.4375"/><ellipse cx="145" cy="1445.7422" fill="#84BE84" rx="3" ry="3" style="stroke:#038048;stroke-width:1.0;"/><text fill="#000000" font-family="sans-serif" font-size="14" lengthAdjust="spacing" textLength="116" x="154" y="1449.9707">constructor(string)</text><ellipse cx="145" cy="1463.3516" fill="#84BE84" rx="3" ry="3" style="stroke:#038048;stroke-width:1.0;"/><text fill="#000000" font-family="sans-serif" font-size="14" lengthAdjust="spacing" text-decoration="underline" textLength="73" x="154" y="1467.5801">get(ordinal)</text><rect fill="#F24D5C" height="6" style="stroke:#C82930;stroke-width:1.0;" width="6" x="142" y="1477.9609"/><text fill="#000000" font-family="sans-serif" font-size="14" lengthAdjust="spacing" text-decoration="underline" textLength="51" x="154" y="1485.1895">values()</text><ellipse cx="145" cy="1498.5703" fill="#84BE84" rx="3" ry="3" style="stroke:#038048;stroke-width:1.0;"/><text fill="#000000" font-family="sans-serif" font-size="14" lengthAdjust="spacing" textLength="59" x="154" y="1502.7988">toString()</text></g><!--class Coordinate--><g id="elem_Coordinate"><rect codeLine="4" fill="#F1F1F1" height="329.75" id="Coordinate" rx="2.5" ry="2.5" style="stroke:#181818;stroke-width:0.5;" width="182" x="227" y="1960"/><ellipse cx="278.75" cy="1976" fill="#ADD1B2" rx="11" ry="11" style="stroke:#181818;stroke-width:1.0;"/><path d="M281.5156,1971.875 Q281.6719,1971.6563 281.8594,1971.5469 Q282.0469,1971.4375 282.2656,1971.4375 Q282.6406,1971.4375 282.875,1971.7031 Q283.1094,1971.9531 283.1094,1972.5625 L283.1094,1974.0156 Q283.1094,1974.625 282.875,1974.8906 Q282.6406,1975.1563 282.2656,1975.1563 Q281.9219,1975.1563 281.7188,1974.9531 Q281.5156,1974.7656 281.4063,1974.25 Q281.3594,1973.8906 281.1719,1973.7031 Q280.8438,1973.3281 280.2344,1973.1094 Q279.625,1972.8906 279,1972.8906 Q278.2344,1972.8906 277.5938,1973.2188 Q276.9688,1973.5469 276.4688,1974.2969 Q275.9844,1975.0469 275.9844,1976.0781 L275.9844,1977.1719 Q275.9844,1978.4063 276.875,1979.2344 Q277.7656,1980.0469 279.3594,1980.0469 Q280.2969,1980.0469 280.9531,1979.7969 Q281.3438,1979.6406 281.7656,1979.2031 Q282.0313,1978.9375 282.1719,1978.8594 Q282.3281,1978.7813 282.5313,1978.7813 Q282.8594,1978.7813 283.1094,1979.0469 Q283.375,1979.2969 283.375,1979.6406 Q283.375,1979.9844 283.0313,1980.3906 Q282.5313,1980.9688 281.7344,1981.2969 Q280.6563,1981.75 279.3594,1981.75 Q277.8438,1981.75 276.6406,1981.125 Q275.6563,1980.625 274.9688,1979.5625 Q274.2813,1978.4844 274.2813,1977.2031 L274.2813,1976.0469 Q274.2813,1974.7188 274.8906,1973.5781 Q275.5156,1972.4219 276.6094,1971.8125 Q277.7031,1971.1875 278.9375,1971.1875 Q279.6719,1971.1875 280.3125,1971.3594 Q280.9688,1971.5156 281.5156,1971.875 Z " fill="#000000"/><text fill="#000000" font-family="sans-serif" font-size="14" lengthAdjust="spacing" textLength="70" x="299.25" y="1981.7285">Coordinate</text><line style="stroke:#181818;stroke-width:0.5;" x1="228" x2="408" y1="1992" y2="1992"/><ellipse cx="238" cy="2006.3047" fill="none" rx="3" ry="3" style="stroke:#038048;stroke-width:1.0;"/><text fill="#000000" font-family="sans-serif" font-size="14" lengthAdjust="spacing" text-decoration="underline" textLength="47" x="247" y="2010.5332">ORIGIN</text><ellipse cx="238" cy="2023.9141" fill="none" rx="3" ry="3" style="stroke:#038048;stroke-width:1.0;"/><text fill="#000000" font-family="sans-serif" font-size="14" lengthAdjust="spacing" text-decoration="underline" textLength="108" x="247" y="2028.1426">NUMBER_ROWS</text><rect fill="none" height="6" style="stroke:#C82930;stroke-width:1.0;" width="6" x="235" y="2038.5234"/><text fill="#000000" font-family="sans-serif" font-size="14" lengthAdjust="spacing" text-decoration="underline" textLength="43" x="247" y="2045.752">ROWS</text><ellipse cx="238" cy="2059.1328" fill="none" rx="3" ry="3" style="stroke:#038048;stroke-width:1.0;"/><text fill="#000000" font-family="sans-serif" font-size="14" lengthAdjust="spacing" text-decoration="underline" textLength="132" x="247" y="2063.3613">NUMBER_COLUMNS</text><rect fill="none" height="6" style="stroke:#C82930;stroke-width:1.0;" width="6" x="235" y="2073.7422"/><text fill="#000000" font-family="sans-serif" font-size="14" lengthAdjust="spacing" text-decoration="underline" textLength="67" x="247" y="2080.9707">COLUMNS</text><rect fill="none" height="6" style="stroke:#C82930;stroke-width:1.0;" width="6" x="235" y="2091.3516"/><text fill="#000000" font-family="sans-serif" font-size="14" lengthAdjust="spacing" textLength="22" x="247" y="2098.5801">row</text><rect fill="none" height="6" style="stroke:#C82930;stroke-width:1.0;" width="6" x="235" y="2108.9609"/><text fill="#000000" font-family="sans-serif" font-size="14" lengthAdjust="spacing" textLength="45" x="247" y="2116.1895">column</text><line style="stroke:#181818;stroke-width:0.5;" x1="228" x2="408" y1="2123.2656" y2="2123.2656"/><ellipse cx="238" cy="2137.5703" fill="#84BE84" rx="3" ry="3" style="stroke:#038048;stroke-width:1.0;"/><text fill="#000000" font-family="sans-serif" font-size="14" lengthAdjust="spacing" textLength="156" x="247" y="2141.7988">constructor(row, column)</text><ellipse cx="238" cy="2155.1797" fill="#84BE84" rx="3" ry="3" style="stroke:#038048;stroke-width:1.0;"/><text fill="#000000" font-family="sans-serif" font-size="14" lengthAdjust="spacing" textLength="119" x="247" y="2159.4082">shifted(coordinate)</text><ellipse cx="238" cy="2172.7891" fill="#84BE84" rx="3" ry="3" style="stroke:#038048;stroke-width:1.0;"/><text fill="#000000" font-family="sans-serif" font-size="14" lengthAdjust="spacing" textLength="51" x="247" y="2177.0176">isValid()</text><ellipse cx="238" cy="2190.3984" fill="#84BE84" rx="3" ry="3" style="stroke:#038048;stroke-width:1.0;"/><text fill="#000000" font-family="sans-serif" font-size="14" lengthAdjust="spacing" text-decoration="underline" textLength="144" x="247" y="2194.627">isColumnValid(column)</text><rect fill="#F24D5C" height="6" style="stroke:#C82930;stroke-width:1.0;" width="6" x="235" y="2205.0078"/><text fill="#000000" font-family="sans-serif" font-size="14" lengthAdjust="spacing" text-decoration="underline" textLength="100" x="247" y="2212.2363">isRowValid(row)</text><ellipse cx="238" cy="2225.6172" fill="#84BE84" rx="3" ry="3" style="stroke:#038048;stroke-width:1.0;"/><text fill="#000000" font-family="sans-serif" font-size="14" lengthAdjust="spacing" textLength="57" x="247" y="2229.8457">getRow()</text><ellipse cx="238" cy="2243.2266" fill="#84BE84" rx="3" ry="3" style="stroke:#038048;stroke-width:1.0;"/><text fill="#000000" font-family="sans-serif" font-size="14" lengthAdjust="spacing" textLength="78" x="247" y="2247.4551">getColumn()</text><ellipse cx="238" cy="2260.8359" fill="#84BE84" rx="3" ry="3" style="stroke:#038048;stroke-width:1.0;"/><text fill="#000000" font-family="sans-serif" font-size="14" lengthAdjust="spacing" textLength="119" x="247" y="2265.0645">equals(coordinate)</text><ellipse cx="238" cy="2278.4453" fill="#84BE84" rx="3" ry="3" style="stroke:#038048;stroke-width:1.0;"/><text fill="#000000" font-family="sans-serif" font-size="14" lengthAdjust="spacing" textLength="59" x="247" y="2282.6738">toString()</text></g><!--class Direction--><g id="elem_Direction"><rect codeLine="5" fill="#F1F1F1" height="294.5313" id="Direction" rx="2.5" ry="2.5" style="stroke:#181818;stroke-width:0.5;" width="182" x="409" y="1605"/><ellipse cx="467.75" cy="1621" fill="#ADD1B2" rx="11" ry="11" style="stroke:#181818;stroke-width:1.0;"/><path d="M470.5156,1616.875 Q470.6719,1616.6563 470.8594,1616.5469 Q471.0469,1616.4375 471.2656,1616.4375 Q471.6406,1616.4375 471.875,1616.7031 Q472.1094,1616.9531 472.1094,1617.5625 L472.1094,1619.0156 Q472.1094,1619.625 471.875,1619.8906 Q471.6406,1620.1563 471.2656,1620.1563 Q470.9219,1620.1563 470.7188,1619.9531 Q470.5156,1619.7656 470.4063,1619.25 Q470.3594,1618.8906 470.1719,1618.7031 Q469.8438,1618.3281 469.2344,1618.1094 Q468.625,1617.8906 468,1617.8906 Q467.2344,1617.8906 466.5938,1618.2188 Q465.9688,1618.5469 465.4688,1619.2969 Q464.9844,1620.0469 464.9844,1621.0781 L464.9844,1622.1719 Q464.9844,1623.4063 465.875,1624.2344 Q466.7656,1625.0469 468.3594,1625.0469 Q469.2969,1625.0469 469.9531,1624.7969 Q470.3438,1624.6406 470.7656,1624.2031 Q471.0313,1623.9375 471.1719,1623.8594 Q471.3281,1623.7813 471.5313,1623.7813 Q471.8594,1623.7813 472.1094,1624.0469 Q472.375,1624.2969 472.375,1624.6406 Q472.375,1624.9844 472.0313,1625.3906 Q471.5313,1625.9688 470.7344,1626.2969 Q469.6563,1626.75 468.3594,1626.75 Q466.8438,1626.75 465.6406,1626.125 Q464.6563,1625.625 463.9688,1624.5625 Q463.2813,1623.4844 463.2813,1622.2031 L463.2813,1621.0469 Q463.2813,1619.7188 463.8906,1618.5781 Q464.5156,1617.4219 465.6094,1616.8125 Q466.7031,1616.1875 467.9375,1616.1875 Q468.6719,1616.1875 469.3125,1616.3594 Q469.9688,1616.5156 470.5156,1616.875 Z " fill="#000000"/><text fill="#000000" font-family="sans-serif" font-size="14" lengthAdjust="spacing" textLength="56" x="488.25" y="1626.7285">Direction</text><line style="stroke:#181818;stroke-width:0.5;" x1="410" x2="590" y1="1637" y2="1637"/><ellipse cx="420" cy="1651.3047" fill="none" rx="3" ry="3" style="stroke:#038048;stroke-width:1.0;"/><text fill="#000000" font-family="sans-serif" font-size="14" lengthAdjust="spacing" text-decoration="underline" textLength="48" x="429" y="1655.5332">NORTH</text><ellipse cx="420" cy="1668.9141" fill="none" rx="3" ry="3" style="stroke:#038048;stroke-width:1.0;"/><text fill="#000000" font-family="sans-serif" font-size="14" lengthAdjust="spacing" text-decoration="underline" textLength="92" x="429" y="1673.1426">NORTH_EAST</text><ellipse cx="420" cy="1686.5234" fill="none" rx="3" ry="3" style="stroke:#038048;stroke-width:1.0;"/><text fill="#000000" font-family="sans-serif" font-size="14" lengthAdjust="spacing" text-decoration="underline" textLength="36" x="429" y="1690.752">EAST</text><ellipse cx="420" cy="1704.1328" fill="none" rx="3" ry="3" style="stroke:#038048;stroke-width:1.0;"/><text fill="#000000" font-family="sans-serif" font-size="14" lengthAdjust="spacing" text-decoration="underline" textLength="91" x="429" y="1708.3613">SOUTH_EAST</text><ellipse cx="420" cy="1721.7422" fill="none" rx="3" ry="3" style="stroke:#038048;stroke-width:1.0;"/><text fill="#000000" font-family="sans-serif" font-size="14" lengthAdjust="spacing" text-decoration="underline" textLength="47" x="429" y="1725.9707">SOUTH</text><ellipse cx="420" cy="1739.3516" fill="none" rx="3" ry="3" style="stroke:#038048;stroke-width:1.0;"/><text fill="#000000" font-family="sans-serif" font-size="14" lengthAdjust="spacing" text-decoration="underline" textLength="95" x="429" y="1743.5801">SOUTH_WEST</text><ellipse cx="420" cy="1756.9609" fill="none" rx="3" ry="3" style="stroke:#038048;stroke-width:1.0;"/><text fill="#000000" font-family="sans-serif" font-size="14" lengthAdjust="spacing" text-decoration="underline" textLength="40" x="429" y="1761.1895">WEST</text><ellipse cx="420" cy="1774.5703" fill="none" rx="3" ry="3" style="stroke:#038048;stroke-width:1.0;"/><text fill="#000000" font-family="sans-serif" font-size="14" lengthAdjust="spacing" text-decoration="underline" textLength="96" x="429" y="1778.7988">NORTH_WEST</text><rect fill="none" height="6" style="stroke:#C82930;stroke-width:1.0;" width="6" x="417" y="1789.1797"/><text fill="#000000" font-family="sans-serif" font-size="14" lengthAdjust="spacing" textLength="77" x="429" y="1796.4082">coordinate{}</text><line style="stroke:#181818;stroke-width:0.5;" x1="410" x2="590" y1="1803.4844" y2="1803.4844"/><ellipse cx="420" cy="1817.7891" fill="#84BE84" rx="3" ry="3" style="stroke:#038048;stroke-width:1.0;"/><text fill="#000000" font-family="sans-serif" font-size="14" lengthAdjust="spacing" textLength="156" x="429" y="1822.0176">constructor(row, column)</text><ellipse cx="420" cy="1835.3984" fill="#84BE84" rx="3" ry="3" style="stroke:#038048;stroke-width:1.0;"/><text fill="#000000" font-family="sans-serif" font-size="14" lengthAdjust="spacing" textLength="87" x="429" y="1839.627">getOpposite()</text><ellipse cx="420" cy="1853.0078" fill="#84BE84" rx="3" ry="3" style="stroke:#038048;stroke-width:1.0;"/><text fill="#000000" font-family="sans-serif" font-size="14" lengthAdjust="spacing" text-decoration="underline" textLength="51" x="429" y="1857.2363">values()</text><ellipse cx="420" cy="1870.6172" fill="#84BE84" rx="3" ry="3" style="stroke:#038048;stroke-width:1.0;"/><text fill="#000000" font-family="sans-serif" font-size="14" lengthAdjust="spacing" textLength="100" x="429" y="1874.8457">getCoordinate()</text><ellipse cx="420" cy="1888.2266" fill="#84BE84" rx="3" ry="3" style="stroke:#038048;stroke-width:1.0;"/><text fill="#000000" font-family="sans-serif" font-size="14" lengthAdjust="spacing" textLength="76" x="429" y="1892.4551">halfValues()</text></g><!--class Message--><g id="elem_Message"><rect codeLine="6" fill="#F1F1F1" height="294.5313" id="Message" rx="2.5" ry="2.5" style="stroke:#181818;stroke-width:0.5;" width="214" x="617" y="682"/><ellipse cx="691.25" cy="698" fill="#ADD1B2" rx="11" ry="11" style="stroke:#181818;stroke-width:1.0;"/><path d="M694.0156,693.875 Q694.1719,693.6563 694.3594,693.5469 Q694.5469,693.4375 694.7656,693.4375 Q695.1406,693.4375 695.375,693.7031 Q695.6094,693.9531 695.6094,694.5625 L695.6094,696.0156 Q695.6094,696.625 695.375,696.8906 Q695.1406,697.1563 694.7656,697.1563 Q694.4219,697.1563 694.2188,696.9531 Q694.0156,696.7656 693.9063,696.25 Q693.8594,695.8906 693.6719,695.7031 Q693.3438,695.3281 692.7344,695.1094 Q692.125,694.8906 691.5,694.8906 Q690.7344,694.8906 690.0938,695.2188 Q689.4688,695.5469 688.9688,696.2969 Q688.4844,697.0469 688.4844,698.0781 L688.4844,699.1719 Q688.4844,700.4063 689.375,701.2344 Q690.2656,702.0469 691.8594,702.0469 Q692.7969,702.0469 693.4531,701.7969 Q693.8438,701.6406 694.2656,701.2031 Q694.5313,700.9375 694.6719,700.8594 Q694.8281,700.7813 695.0313,700.7813 Q695.3594,700.7813 695.6094,701.0469 Q695.875,701.2969 695.875,701.6406 Q695.875,701.9844 695.5313,702.3906 Q695.0313,702.9688 694.2344,703.2969 Q693.1563,703.75 691.8594,703.75 Q690.3438,703.75 689.1406,703.125 Q688.1563,702.625 687.4688,701.5625 Q686.7813,700.4844 686.7813,699.2031 L686.7813,698.0469 Q686.7813,696.7188 687.3906,695.5781 Q688.0156,694.4219 689.1094,693.8125 Q690.2031,693.1875 691.4375,693.1875 Q692.1719,693.1875 692.8125,693.3594 Q693.4688,693.5156 694.0156,693.875 Z " fill="#000000"/><text fill="#000000" font-family="sans-serif" font-size="14" lengthAdjust="spacing" textLength="57" x="711.75" y="703.7285">Message</text><line style="stroke:#181818;stroke-width:0.5;" x1="618" x2="830" y1="714" y2="714"/><ellipse cx="628" cy="728.3047" fill="none" rx="3" ry="3" style="stroke:#038048;stroke-width:1.0;"/><text fill="#000000" font-family="sans-serif" font-size="14" lengthAdjust="spacing" text-decoration="underline" textLength="38" x="637" y="732.5332">TITLE</text><ellipse cx="628" cy="745.9141" fill="none" rx="3" ry="3" style="stroke:#038048;stroke-width:1.0;"/><text fill="#000000" font-family="sans-serif" font-size="14" lengthAdjust="spacing" text-decoration="underline" textLength="124" x="637" y="750.1426">HORIZONTAL_LINE</text><ellipse cx="628" cy="763.5234" fill="none" rx="3" ry="3" style="stroke:#038048;stroke-width:1.0;"/><text fill="#000000" font-family="sans-serif" font-size="14" lengthAdjust="spacing" text-decoration="underline" textLength="104" x="637" y="767.752">VERTICAL_LINE</text><ellipse cx="628" cy="781.1328" fill="none" rx="3" ry="3" style="stroke:#038048;stroke-width:1.0;"/><text fill="#000000" font-family="sans-serif" font-size="14" lengthAdjust="spacing" text-decoration="underline" textLength="37" x="637" y="785.3613">TURN</text><ellipse cx="628" cy="798.7422" fill="none" rx="3" ry="3" style="stroke:#038048;stroke-width:1.0;"/><text fill="#000000" font-family="sans-serif" font-size="14" lengthAdjust="spacing" text-decoration="underline" textLength="188" x="637" y="802.9707">ENTER_COLUMN_TO_DROP</text><ellipse cx="628" cy="816.3516" fill="none" rx="3" ry="3" style="stroke:#038048;stroke-width:1.0;"/><text fill="#000000" font-family="sans-serif" font-size="14" lengthAdjust="spacing" text-decoration="underline" textLength="117" x="637" y="820.5801">INVALID_COLUMN</text><ellipse cx="628" cy="833.9609" fill="none" rx="3" ry="3" style="stroke:#038048;stroke-width:1.0;"/><text fill="#000000" font-family="sans-serif" font-size="14" lengthAdjust="spacing" text-decoration="underline" textLength="152" x="637" y="838.1895">COMPLETED_COLUMN</text><ellipse cx="628" cy="851.5703" fill="none" rx="3" ry="3" style="stroke:#038048;stroke-width:1.0;"/><text fill="#000000" font-family="sans-serif" font-size="14" lengthAdjust="spacing" text-decoration="underline" textLength="87" x="637" y="855.7988">PLAYER_WIN</text><ellipse cx="628" cy="869.1797" fill="none" rx="3" ry="3" style="stroke:#038048;stroke-width:1.0;"/><text fill="#000000" font-family="sans-serif" font-size="14" lengthAdjust="spacing" text-decoration="underline" textLength="102" x="637" y="873.4082">PLAYERS_TIED</text><ellipse cx="628" cy="886.7891" fill="none" rx="3" ry="3" style="stroke:#038048;stroke-width:1.0;"/><text fill="#000000" font-family="sans-serif" font-size="14" lengthAdjust="spacing" text-decoration="underline" textLength="57" x="637" y="891.0176">RESUME</text><rect fill="none" height="6" style="stroke:#C82930;stroke-width:1.0;" width="6" x="625" y="901.3984"/><text fill="#000000" font-family="sans-serif" font-size="14" lengthAdjust="spacing" textLength="35" x="637" y="908.627">string</text><line style="stroke:#181818;stroke-width:0.5;" x1="618" x2="830" y1="915.7031" y2="915.7031"/><ellipse cx="628" cy="930.0078" fill="#84BE84" rx="3" ry="3" style="stroke:#038048;stroke-width:1.0;"/><text fill="#000000" font-family="sans-serif" font-size="14" lengthAdjust="spacing" textLength="116" x="637" y="934.2363">constructor(string)</text><ellipse cx="628" cy="947.6172" fill="#84BE84" rx="3" ry="3" style="stroke:#038048;stroke-width:1.0;"/><text fill="#000000" font-family="sans-serif" font-size="14" lengthAdjust="spacing" textLength="39" x="637" y="951.8457">write()</text><ellipse cx="628" cy="965.2266" fill="#84BE84" rx="3" ry="3" style="stroke:#038048;stroke-width:1.0;"/><text fill="#000000" font-family="sans-serif" font-size="14" lengthAdjust="spacing" textLength="50" x="637" y="969.4551">writeln()</text></g><!--class Line--><g id="elem_Line"><rect codeLine="7" fill="#F1F1F1" height="188.875" id="Line" rx="2.5" ry="2.5" style="stroke:#181818;stroke-width:0.5;" width="184" x="190" y="1658"/><ellipse cx="264.25" cy="1674" fill="#ADD1B2" rx="11" ry="11" style="stroke:#181818;stroke-width:1.0;"/><path d="M267.0156,1669.875 Q267.1719,1669.6563 267.3594,1669.5469 Q267.5469,1669.4375 267.7656,1669.4375 Q268.1406,1669.4375 268.375,1669.7031 Q268.6094,1669.9531 268.6094,1670.5625 L268.6094,1672.0156 Q268.6094,1672.625 268.375,1672.8906 Q268.1406,1673.1563 267.7656,1673.1563 Q267.4219,1673.1563 267.2188,1672.9531 Q267.0156,1672.7656 266.9063,1672.25 Q266.8594,1671.8906 266.6719,1671.7031 Q266.3438,1671.3281 265.7344,1671.1094 Q265.125,1670.8906 264.5,1670.8906 Q263.7344,1670.8906 263.0938,1671.2188 Q262.4688,1671.5469 261.9688,1672.2969 Q261.4844,1673.0469 261.4844,1674.0781 L261.4844,1675.1719 Q261.4844,1676.4063 262.375,1677.2344 Q263.2656,1678.0469 264.8594,1678.0469 Q265.7969,1678.0469 266.4531,1677.7969 Q266.8438,1677.6406 267.2656,1677.2031 Q267.5313,1676.9375 267.6719,1676.8594 Q267.8281,1676.7813 268.0313,1676.7813 Q268.3594,1676.7813 268.6094,1677.0469 Q268.875,1677.2969 268.875,1677.6406 Q268.875,1677.9844 268.5313,1678.3906 Q268.0313,1678.9688 267.2344,1679.2969 Q266.1563,1679.75 264.8594,1679.75 Q263.3438,1679.75 262.1406,1679.125 Q261.1563,1678.625 260.4688,1677.5625 Q259.7813,1676.4844 259.7813,1675.2031 L259.7813,1674.0469 Q259.7813,1672.7188 260.3906,1671.5781 Q261.0156,1670.4219 262.1094,1669.8125 Q263.2031,1669.1875 264.4375,1669.1875 Q265.1719,1669.1875 265.8125,1669.3594 Q266.4688,1669.5156 267.0156,1669.875 Z " fill="#000000"/><text fill="#000000" font-family="sans-serif" font-size="14" lengthAdjust="spacing" textLength="27" x="284.75" y="1679.7285">Line</text><line style="stroke:#181818;stroke-width:0.5;" x1="191" x2="373" y1="1690" y2="1690"/><ellipse cx="201" cy="1704.3047" fill="none" rx="3" ry="3" style="stroke:#038048;stroke-width:1.0;"/><text fill="#000000" font-family="sans-serif" font-size="14" lengthAdjust="spacing" text-decoration="underline" textLength="55" x="210" y="1708.5332">LENGTH</text><rect fill="none" height="6" style="stroke:#C82930;stroke-width:1.0;" width="6" x="198" y="1718.9141"/><text fill="#000000" font-family="sans-serif" font-size="14" lengthAdjust="spacing" textLength="35" x="210" y="1726.1426">origin</text><rect fill="none" height="6" style="stroke:#C82930;stroke-width:1.0;" width="6" x="198" y="1736.5234"/><text fill="#000000" font-family="sans-serif" font-size="14" lengthAdjust="spacing" textLength="74" x="210" y="1743.752">coordinates</text><rect fill="none" height="6" style="stroke:#C82930;stroke-width:1.0;" width="6" x="198" y="1754.1328"/><text fill="#000000" font-family="sans-serif" font-size="14" lengthAdjust="spacing" textLength="110" x="210" y="1761.3613">oppositeDirection</text><line style="stroke:#181818;stroke-width:0.5;" x1="191" x2="373" y1="1768.4375" y2="1768.4375"/><ellipse cx="201" cy="1782.7422" fill="#84BE84" rx="3" ry="3" style="stroke:#038048;stroke-width:1.0;"/><text fill="#000000" font-family="sans-serif" font-size="14" lengthAdjust="spacing" textLength="158" x="210" y="1786.9707">constructor(coordinate{})</text><ellipse cx="201" cy="1800.3516" fill="#84BE84" rx="3" ry="3" style="stroke:#038048;stroke-width:1.0;"/><text fill="#000000" font-family="sans-serif" font-size="14" lengthAdjust="spacing" textLength="83" x="210" y="1804.5801">set(direction)</text><ellipse cx="201" cy="1817.9609" fill="#84BE84" rx="3" ry="3" style="stroke:#038048;stroke-width:1.0;"/><text fill="#000000" font-family="sans-serif" font-size="14" lengthAdjust="spacing" textLength="36" x="210" y="1822.1895">shift()</text><ellipse cx="201" cy="1835.5703" fill="#84BE84" rx="3" ry="3" style="stroke:#038048;stroke-width:1.0;"/><text fill="#000000" font-family="sans-serif" font-size="14" lengthAdjust="spacing" textLength="107" x="210" y="1839.7988">getCoordinates()</text></g><!--class Board--><g id="elem_Board"><rect codeLine="8" fill="#F1F1F1" height="259.3125" id="Board" rx="2.5" ry="2.5" style="stroke:#181818;stroke-width:0.5;" width="212" x="349" y="1286"/><ellipse cx="431.75" cy="1302" fill="#ADD1B2" rx="11" ry="11" style="stroke:#181818;stroke-width:1.0;"/><path d="M434.5156,1297.875 Q434.6719,1297.6563 434.8594,1297.5469 Q435.0469,1297.4375 435.2656,1297.4375 Q435.6406,1297.4375 435.875,1297.7031 Q436.1094,1297.9531 436.1094,1298.5625 L436.1094,1300.0156 Q436.1094,1300.625 435.875,1300.8906 Q435.6406,1301.1563 435.2656,1301.1563 Q434.9219,1301.1563 434.7188,1300.9531 Q434.5156,1300.7656 434.4063,1300.25 Q434.3594,1299.8906 434.1719,1299.7031 Q433.8438,1299.3281 433.2344,1299.1094 Q432.625,1298.8906 432,1298.8906 Q431.2344,1298.8906 430.5938,1299.2188 Q429.9688,1299.5469 429.4688,1300.2969 Q428.9844,1301.0469 428.9844,1302.0781 L428.9844,1303.1719 Q428.9844,1304.4063 429.875,1305.2344 Q430.7656,1306.0469 432.3594,1306.0469 Q433.2969,1306.0469 433.9531,1305.7969 Q434.3438,1305.6406 434.7656,1305.2031 Q435.0313,1304.9375 435.1719,1304.8594 Q435.3281,1304.7813 435.5313,1304.7813 Q435.8594,1304.7813 436.1094,1305.0469 Q436.375,1305.2969 436.375,1305.6406 Q436.375,1305.9844 436.0313,1306.3906 Q435.5313,1306.9688 434.7344,1307.2969 Q433.6563,1307.75 432.3594,1307.75 Q430.8438,1307.75 429.6406,1307.125 Q428.6563,1306.625 427.9688,1305.5625 Q427.2813,1304.4844 427.2813,1303.2031 L427.2813,1302.0469 Q427.2813,1300.7188 427.8906,1299.5781 Q428.5156,1298.4219 429.6094,1297.8125 Q430.7031,1297.1875 431.9375,1297.1875 Q432.6719,1297.1875 433.3125,1297.3594 Q433.9688,1297.5156 434.5156,1297.875 Z " fill="#000000"/><text fill="#000000" font-family="sans-serif" font-size="14" lengthAdjust="spacing" textLength="38" x="452.25" y="1307.7285">Board</text><line style="stroke:#181818;stroke-width:0.5;" x1="350" x2="560" y1="1318" y2="1318"/><rect fill="none" height="6" style="stroke:#C82930;stroke-width:1.0;" width="6" x="357" y="1329.3047"/><text fill="#000000" font-family="sans-serif" font-size="14" lengthAdjust="spacing" textLength="46" x="369" y="1336.5332">colors[]</text><rect fill="none" height="6" style="stroke:#C82930;stroke-width:1.0;" width="6" x="357" y="1346.9141"/><text fill="#000000" font-family="sans-serif" font-size="14" lengthAdjust="spacing" textLength="53" x="369" y="1354.1426">lastDrop</text><line style="stroke:#181818;stroke-width:0.5;" x1="350" x2="560" y1="1361.2188" y2="1361.2188"/><ellipse cx="360" cy="1375.5234" fill="#84BE84" rx="3" ry="3" style="stroke:#038048;stroke-width:1.0;"/><text fill="#000000" font-family="sans-serif" font-size="14" lengthAdjust="spacing" textLength="81" x="369" y="1379.752">constructor()</text><ellipse cx="360" cy="1393.1328" fill="#84BE84" rx="3" ry="3" style="stroke:#038048;stroke-width:1.0;"/><text fill="#000000" font-family="sans-serif" font-size="14" lengthAdjust="spacing" textLength="42" x="369" y="1397.3613">reset()</text><ellipse cx="360" cy="1410.7422" fill="#84BE84" rx="3" ry="3" style="stroke:#038048;stroke-width:1.0;"/><text fill="#000000" font-family="sans-serif" font-size="14" lengthAdjust="spacing" textLength="163" x="369" y="1414.9707">dropToken(column, color)</text><ellipse cx="360" cy="1428.3516" fill="#84BE84" rx="3" ry="3" style="stroke:#038048;stroke-width:1.0;"/><text fill="#000000" font-family="sans-serif" font-size="14" lengthAdjust="spacing" textLength="125" x="369" y="1432.5801">isComplete(column)</text><ellipse cx="360" cy="1445.9609" fill="#84BE84" rx="3" ry="3" style="stroke:#038048;stroke-width:1.0;"/><text fill="#000000" font-family="sans-serif" font-size="14" lengthAdjust="spacing" textLength="74" x="369" y="1450.1895">isFinished()</text><ellipse cx="360" cy="1463.5703" fill="#84BE84" rx="3" ry="3" style="stroke:#038048;stroke-width:1.0;"/><text fill="#000000" font-family="sans-serif" font-size="14" lengthAdjust="spacing" textLength="65" x="369" y="1467.7988">isWinner()</text><ellipse cx="360" cy="1481.1797" fill="#84BE84" rx="3" ry="3" style="stroke:#038048;stroke-width:1.0;"/><text fill="#000000" font-family="sans-serif" font-size="14" lengthAdjust="spacing" textLength="103" x="369" y="1485.4082">isConnect4(line)</text><ellipse cx="360" cy="1498.7891" fill="#84BE84" rx="3" ry="3" style="stroke:#038048;stroke-width:1.0;"/><text fill="#000000" font-family="sans-serif" font-size="14" lengthAdjust="spacing" textLength="186" x="369" y="1503.0176">isOccupied(coordinate, color)</text><ellipse cx="360" cy="1516.3984" fill="#84BE84" rx="3" ry="3" style="stroke:#038048;stroke-width:1.0;"/><text fill="#000000" font-family="sans-serif" font-size="14" lengthAdjust="spacing" textLength="126" x="369" y="1520.627">isEmpty(coordinate)</text><ellipse cx="360" cy="1534.0078" fill="#84BE84" rx="3" ry="3" style="stroke:#038048;stroke-width:1.0;"/><text fill="#000000" font-family="sans-serif" font-size="14" lengthAdjust="spacing" textLength="131" x="369" y="1538.2363">getColor(coordinate)</text></g><!--class Player--><g id="elem_Player"><rect codeLine="9" fill="#F1F1F1" height="188.875" id="Player" rx="2.5" ry="2.5" style="stroke:#181818;stroke-width:0.5;" width="207" x="232.5" y="1037"/><ellipse cx="311.75" cy="1053" fill="#ADD1B2" rx="11" ry="11" style="stroke:#181818;stroke-width:1.0;"/><path d="M314.5156,1048.875 Q314.6719,1048.6563 314.8594,1048.5469 Q315.0469,1048.4375 315.2656,1048.4375 Q315.6406,1048.4375 315.875,1048.7031 Q316.1094,1048.9531 316.1094,1049.5625 L316.1094,1051.0156 Q316.1094,1051.625 315.875,1051.8906 Q315.6406,1052.1563 315.2656,1052.1563 Q314.9219,1052.1563 314.7188,1051.9531 Q314.5156,1051.7656 314.4063,1051.25 Q314.3594,1050.8906 314.1719,1050.7031 Q313.8438,1050.3281 313.2344,1050.1094 Q312.625,1049.8906 312,1049.8906 Q311.2344,1049.8906 310.5938,1050.2188 Q309.9688,1050.5469 309.4688,1051.2969 Q308.9844,1052.0469 308.9844,1053.0781 L308.9844,1054.1719 Q308.9844,1055.4063 309.875,1056.2344 Q310.7656,1057.0469 312.3594,1057.0469 Q313.2969,1057.0469 313.9531,1056.7969 Q314.3438,1056.6406 314.7656,1056.2031 Q315.0313,1055.9375 315.1719,1055.8594 Q315.3281,1055.7813 315.5313,1055.7813 Q315.8594,1055.7813 316.1094,1056.0469 Q316.375,1056.2969 316.375,1056.6406 Q316.375,1056.9844 316.0313,1057.3906 Q315.5313,1057.9688 314.7344,1058.2969 Q313.6563,1058.75 312.3594,1058.75 Q310.8438,1058.75 309.6406,1058.125 Q308.6563,1057.625 307.9688,1056.5625 Q307.2813,1055.4844 307.2813,1054.2031 L307.2813,1053.0469 Q307.2813,1051.7188 307.8906,1050.5781 Q308.5156,1049.4219 309.6094,1048.8125 Q310.7031,1048.1875 311.9375,1048.1875 Q312.6719,1048.1875 313.3125,1048.3594 Q313.9688,1048.5156 314.5156,1048.875 Z " fill="#000000"/><text fill="#000000" font-family="sans-serif" font-size="14" lengthAdjust="spacing" textLength="40" x="332.25" y="1058.7285">Player</text><line style="stroke:#181818;stroke-width:0.5;" x1="233.5" x2="438.5" y1="1069" y2="1069"/><rect fill="none" height="6" style="stroke:#C82930;stroke-width:1.0;" width="6" x="240.5" y="1080.3047"/><text fill="#000000" font-family="sans-serif" font-size="14" lengthAdjust="spacing" textLength="31" x="252.5" y="1087.5332">color</text><rect fill="none" height="6" style="stroke:#C82930;stroke-width:1.0;" width="6" x="240.5" y="1097.9141"/><text fill="#000000" font-family="sans-serif" font-size="14" lengthAdjust="spacing" textLength="47" x="252.5" y="1105.1426">board{}</text><line style="stroke:#181818;stroke-width:0.5;" x1="233.5" x2="438.5" y1="1112.2188" y2="1112.2188"/><rect fill="#F24D5C" height="6" style="stroke:#C82930;stroke-width:1.0;" width="6" x="240.5" y="1123.5234"/><text fill="#000000" font-family="sans-serif" font-size="14" lengthAdjust="spacing" textLength="157" x="252.5" y="1130.752">constructor(color, board)</text><ellipse cx="243.5" cy="1144.1328" fill="#84BE84" rx="3" ry="3" style="stroke:#038048;stroke-width:1.0;"/><text fill="#000000" font-family="sans-serif" font-size="14" lengthAdjust="spacing" textLength="144" x="252.5" y="1148.3613">isValidColumn(column)</text><ellipse cx="243.5" cy="1161.7422" fill="#84BE84" rx="3" ry="3" style="stroke:#038048;stroke-width:1.0;"/><text fill="#000000" font-family="sans-serif" font-size="14" lengthAdjust="spacing" textLength="181" x="252.5" y="1165.9707">isColumnCompleted(column)</text><ellipse cx="243.5" cy="1179.3516" fill="#84BE84" rx="3" ry="3" style="stroke:#038048;stroke-width:1.0;"/><text fill="#000000" font-family="sans-serif" font-size="14" lengthAdjust="spacing" textLength="124" x="252.5" y="1183.5801">dropToken(column)</text><ellipse cx="243.5" cy="1196.9609" fill="#84BE84" rx="3" ry="3" style="stroke:#038048;stroke-width:1.0;"/><text fill="#000000" font-family="sans-serif" font-size="14" lengthAdjust="spacing" textLength="64" x="252.5" y="1201.1895">getColor()</text><ellipse cx="243.5" cy="1214.5703" fill="#84BE84" rx="3" ry="3" style="stroke:#038048;stroke-width:1.0;"/><text fill="#000000" font-family="sans-serif" font-size="14" lengthAdjust="spacing" textLength="68" x="252.5" y="1218.7988">getBoard()</text></g><!--class Turn--><g id="elem_Turn"><rect codeLine="10" fill="#F1F1F1" height="224.0938" id="Turn" rx="2.5" ry="2.5" style="stroke:#181818;stroke-width:0.5;" width="154" x="288" y="717.5"/><ellipse cx="345.75" cy="733.5" fill="#ADD1B2" rx="11" ry="11" style="stroke:#181818;stroke-width:1.0;"/><path d="M348.5156,729.375 Q348.6719,729.1563 348.8594,729.0469 Q349.0469,728.9375 349.2656,728.9375 Q349.6406,728.9375 349.875,729.2031 Q350.1094,729.4531 350.1094,730.0625 L350.1094,731.5156 Q350.1094,732.125 349.875,732.3906 Q349.6406,732.6563 349.2656,732.6563 Q348.9219,732.6563 348.7188,732.4531 Q348.5156,732.2656 348.4063,731.75 Q348.3594,731.3906 348.1719,731.2031 Q347.8438,730.8281 347.2344,730.6094 Q346.625,730.3906 346,730.3906 Q345.2344,730.3906 344.5938,730.7188 Q343.9688,731.0469 343.4688,731.7969 Q342.9844,732.5469 342.9844,733.5781 L342.9844,734.6719 Q342.9844,735.9063 343.875,736.7344 Q344.7656,737.5469 346.3594,737.5469 Q347.2969,737.5469 347.9531,737.2969 Q348.3438,737.1406 348.7656,736.7031 Q349.0313,736.4375 349.1719,736.3594 Q349.3281,736.2813 349.5313,736.2813 Q349.8594,736.2813 350.1094,736.5469 Q350.375,736.7969 350.375,737.1406 Q350.375,737.4844 350.0313,737.8906 Q349.5313,738.4688 348.7344,738.7969 Q347.6563,739.25 346.3594,739.25 Q344.8438,739.25 343.6406,738.625 Q342.6563,738.125 341.9688,737.0625 Q341.2813,735.9844 341.2813,734.7031 L341.2813,733.5469 Q341.2813,732.2188 341.8906,731.0781 Q342.5156,729.9219 343.6094,729.3125 Q344.7031,728.6875 345.9375,728.6875 Q346.6719,728.6875 347.3125,728.8594 Q347.9688,729.0156 348.5156,729.375 Z " fill="#000000"/><text fill="#000000" font-family="sans-serif" font-size="14" lengthAdjust="spacing" textLength="30" x="366.25" y="739.2285">Turn</text><line style="stroke:#181818;stroke-width:0.5;" x1="289" x2="441" y1="749.5" y2="749.5"/><rect fill="none" height="6" style="stroke:#C82930;stroke-width:1.0;" width="6" x="296" y="760.8047"/><text fill="#000000" font-family="sans-serif" font-size="14" lengthAdjust="spacing" text-decoration="underline" textLength="128" x="308" y="768.0332">NUMBER_PLAYERS</text><rect fill="none" height="6" style="stroke:#C82930;stroke-width:1.0;" width="6" x="296" y="778.4141"/><text fill="#000000" font-family="sans-serif" font-size="14" lengthAdjust="spacing" textLength="46" x="308" y="785.6426">players</text><rect fill="none" height="6" style="stroke:#C82930;stroke-width:1.0;" width="6" x="296" y="796.0234"/><text fill="#000000" font-family="sans-serif" font-size="14" lengthAdjust="spacing" textLength="77" x="308" y="803.252">activePlayer</text><rect fill="none" height="6" style="stroke:#C82930;stroke-width:1.0;" width="6" x="296" y="813.6328"/><text fill="#000000" font-family="sans-serif" font-size="14" lengthAdjust="spacing" textLength="47" x="308" y="820.8613">board{}</text><line style="stroke:#181818;stroke-width:0.5;" x1="289" x2="441" y1="827.9375" y2="827.9375"/><rect fill="#F24D5C" height="6" style="stroke:#C82930;stroke-width:1.0;" width="6" x="296" y="839.2422"/><text fill="#000000" font-family="sans-serif" font-size="14" lengthAdjust="spacing" textLength="128" x="308" y="846.4707">constructor(board{})</text><ellipse cx="299" cy="859.8516" fill="#84BE84" rx="3" ry="3" style="stroke:#038048;stroke-width:1.0;"/><text fill="#000000" font-family="sans-serif" font-size="14" lengthAdjust="spacing" textLength="42" x="308" y="864.0801">reset()</text><ellipse cx="299" cy="877.4609" fill="#84BE84" rx="3" ry="3" style="stroke:#038048;stroke-width:1.0;"/><text fill="#000000" font-family="sans-serif" font-size="14" lengthAdjust="spacing" textLength="126" x="308" y="881.6895">swtichActivePlayer()</text><ellipse cx="299" cy="895.0703" fill="#84BE84" rx="3" ry="3" style="stroke:#038048;stroke-width:1.0;"/><text fill="#000000" font-family="sans-serif" font-size="14" lengthAdjust="spacing" textLength="68" x="308" y="899.2988">getBoard()</text><ellipse cx="299" cy="912.6797" fill="#84BE84" rx="3" ry="3" style="stroke:#038048;stroke-width:1.0;"/><text fill="#000000" font-family="sans-serif" font-size="14" lengthAdjust="spacing" textLength="77" x="308" y="916.9082">getPlayers()</text><ellipse cx="299" cy="930.2891" fill="#84BE84" rx="3" ry="3" style="stroke:#038048;stroke-width:1.0;"/><text fill="#000000" font-family="sans-serif" font-size="14" lengthAdjust="spacing" textLength="108" x="308" y="934.5176">getActivePlayer()</text></g><!--class YesNoDialog--><g id="elem_YesNoDialog"><rect codeLine="11" fill="#F1F1F1" height="206.4844" id="YesNoDialog" rx="2.5" ry="2.5" style="stroke:#181818;stroke-width:0.5;" width="116" x="848" y="185"/><ellipse cx="864.35" cy="201" fill="#ADD1B2" rx="11" ry="11" style="stroke:#181818;stroke-width:1.0;"/><path d="M867.1156,196.875 Q867.2719,196.6563 867.4594,196.5469 Q867.6469,196.4375 867.8656,196.4375 Q868.2406,196.4375 868.475,196.7031 Q868.7094,196.9531 868.7094,197.5625 L868.7094,199.0156 Q868.7094,199.625 868.475,199.8906 Q868.2406,200.1563 867.8656,200.1563 Q867.5219,200.1563 867.3188,199.9531 Q867.1156,199.7656 867.0063,199.25 Q866.9594,198.8906 866.7719,198.7031 Q866.4438,198.3281 865.8344,198.1094 Q865.225,197.8906 864.6,197.8906 Q863.8344,197.8906 863.1938,198.2188 Q862.5688,198.5469 862.0688,199.2969 Q861.5844,200.0469 861.5844,201.0781 L861.5844,202.1719 Q861.5844,203.4063 862.475,204.2344 Q863.3656,205.0469 864.9594,205.0469 Q865.8969,205.0469 866.5531,204.7969 Q866.9438,204.6406 867.3656,204.2031 Q867.6313,203.9375 867.7719,203.8594 Q867.9281,203.7813 868.1313,203.7813 Q868.4594,203.7813 868.7094,204.0469 Q868.975,204.2969 868.975,204.6406 Q868.975,204.9844 868.6313,205.3906 Q868.1313,205.9688 867.3344,206.2969 Q866.2563,206.75 864.9594,206.75 Q863.4438,206.75 862.2406,206.125 Q861.2563,205.625 860.5688,204.5625 Q859.8813,203.4844 859.8813,202.2031 L859.8813,201.0469 Q859.8813,199.7188 860.4906,198.5781 Q861.1156,197.4219 862.2094,196.8125 Q863.3031,196.1875 864.5375,196.1875 Q865.2719,196.1875 865.9125,196.3594 Q866.5688,196.5156 867.1156,196.875 Z " fill="#000000"/><text fill="#000000" font-family="sans-serif" font-size="14" lengthAdjust="spacing" textLength="81" x="878.65" y="206.7285">YesNoDialog</text><line style="stroke:#181818;stroke-width:0.5;" x1="849" x2="963" y1="217" y2="217"/><rect fill="none" height="6" style="stroke:#C82930;stroke-width:1.0;" width="6" x="856" y="228.3047"/><text fill="#000000" font-family="sans-serif" font-size="14" lengthAdjust="spacing" text-decoration="underline" textLength="90" x="868" y="235.5332">AFFIRMATIVE</text><rect fill="none" height="6" style="stroke:#C82930;stroke-width:1.0;" width="6" x="856" y="245.9141"/><text fill="#000000" font-family="sans-serif" font-size="14" lengthAdjust="spacing" text-decoration="underline" textLength="68" x="868" y="253.1426">NEGATIVE</text><rect fill="none" height="6" style="stroke:#C82930;stroke-width:1.0;" width="6" x="856" y="263.5234"/><text fill="#000000" font-family="sans-serif" font-size="14" lengthAdjust="spacing" text-decoration="underline" textLength="47" x="868" y="270.752">SUFFIX</text><rect fill="none" height="6" style="stroke:#C82930;stroke-width:1.0;" width="6" x="856" y="281.1328"/><text fill="#000000" font-family="sans-serif" font-size="14" lengthAdjust="spacing" text-decoration="underline" textLength="67" x="868" y="288.3613">MESSAGE</text><rect fill="none" height="6" style="stroke:#C82930;stroke-width:1.0;" width="6" x="856" y="298.7422"/><text fill="#000000" font-family="sans-serif" font-size="14" lengthAdjust="spacing" textLength="45" x="868" y="305.9707">answer</text><line style="stroke:#181818;stroke-width:0.5;" x1="849" x2="963" y1="313.0469" y2="313.0469"/><ellipse cx="859" cy="327.3516" fill="#84BE84" rx="3" ry="3" style="stroke:#038048;stroke-width:1.0;"/><text fill="#000000" font-family="sans-serif" font-size="14" lengthAdjust="spacing" textLength="39" x="868" y="331.5801">read()</text><ellipse cx="859" cy="344.9609" fill="#84BE84" rx="3" ry="3" style="stroke:#038048;stroke-width:1.0;"/><text fill="#000000" font-family="sans-serif" font-size="14" lengthAdjust="spacing" textLength="86" x="868" y="349.1895">isAffirmative()</text><ellipse cx="859" cy="362.5703" fill="#84BE84" rx="3" ry="3" style="stroke:#038048;stroke-width:1.0;"/><text fill="#000000" font-family="sans-serif" font-size="14" lengthAdjust="spacing" textLength="75" x="868" y="366.7988">isNegative()</text><ellipse cx="859" cy="380.1797" fill="#84BE84" rx="3" ry="3" style="stroke:#038048;stroke-width:1.0;"/><text fill="#000000" font-family="sans-serif" font-size="14" lengthAdjust="spacing" textLength="76" x="868" y="384.4082">getAnswer()</text></g><!--class Connect4--><g id="elem_Connect4"><rect codeLine="12" fill="#F1F1F1" height="171.2656" id="Connect4" rx="2.5" ry="2.5" style="stroke:#181818;stroke-width:0.5;" width="107" x="311.5" y="451"/><ellipse cx="332.8" cy="467" fill="#ADD1B2" rx="11" ry="11" style="stroke:#181818;stroke-width:1.0;"/><path d="M335.5656,462.875 Q335.7219,462.6563 335.9094,462.5469 Q336.0969,462.4375 336.3156,462.4375 Q336.6906,462.4375 336.925,462.7031 Q337.1594,462.9531 337.1594,463.5625 L337.1594,465.0156 Q337.1594,465.625 336.925,465.8906 Q336.6906,466.1563 336.3156,466.1563 Q335.9719,466.1563 335.7688,465.9531 Q335.5656,465.7656 335.4563,465.25 Q335.4094,464.8906 335.2219,464.7031 Q334.8938,464.3281 334.2844,464.1094 Q333.675,463.8906 333.05,463.8906 Q332.2844,463.8906 331.6438,464.2188 Q331.0188,464.5469 330.5188,465.2969 Q330.0344,466.0469 330.0344,467.0781 L330.0344,468.1719 Q330.0344,469.4063 330.925,470.2344 Q331.8156,471.0469 333.4094,471.0469 Q334.3469,471.0469 335.0031,470.7969 Q335.3938,470.6406 335.8156,470.2031 Q336.0813,469.9375 336.2219,469.8594 Q336.3781,469.7813 336.5813,469.7813 Q336.9094,469.7813 337.1594,470.0469 Q337.425,470.2969 337.425,470.6406 Q337.425,470.9844 337.0813,471.3906 Q336.5813,471.9688 335.7844,472.2969 Q334.7063,472.75 333.4094,472.75 Q331.8938,472.75 330.6906,472.125 Q329.7063,471.625 329.0188,470.5625 Q328.3313,469.4844 328.3313,468.2031 L328.3313,467.0469 Q328.3313,465.7188 328.9406,464.5781 Q329.5656,463.4219 330.6594,462.8125 Q331.7531,462.1875 332.9875,462.1875 Q333.7219,462.1875 334.3625,462.3594 Q335.0188,462.5156 335.5656,462.875 Z " fill="#000000"/><text fill="#000000" font-family="sans-serif" font-size="14" lengthAdjust="spacing" textLength="61" x="348.2" y="472.7285">Connect4</text><line style="stroke:#181818;stroke-width:0.5;" x1="312.5" x2="417.5" y1="483" y2="483"/><rect fill="none" height="6" style="stroke:#C82930;stroke-width:1.0;" width="6" x="319.5" y="494.3047"/><text fill="#000000" font-family="sans-serif" font-size="14" lengthAdjust="spacing" textLength="47" x="331.5" y="501.5332">board{}</text><rect fill="none" height="6" style="stroke:#C82930;stroke-width:1.0;" width="6" x="319.5" y="511.9141"/><text fill="#000000" font-family="sans-serif" font-size="14" lengthAdjust="spacing" textLength="35" x="331.5" y="519.1426">turn{}</text><line style="stroke:#181818;stroke-width:0.5;" x1="312.5" x2="417.5" y1="526.2188" y2="526.2188"/><rect fill="#F24D5C" height="6" style="stroke:#C82930;stroke-width:1.0;" width="6" x="319.5" y="537.5234"/><text fill="#000000" font-family="sans-serif" font-size="14" lengthAdjust="spacing" textLength="81" x="331.5" y="544.752">constructor()</text><ellipse cx="322.5" cy="558.1328" fill="#84BE84" rx="3" ry="3" style="stroke:#038048;stroke-width:1.0;"/><text fill="#000000" font-family="sans-serif" font-size="14" lengthAdjust="spacing" textLength="74" x="331.5" y="562.3613">isFinished()</text><ellipse cx="322.5" cy="575.7422" fill="#84BE84" rx="3" ry="3" style="stroke:#038048;stroke-width:1.0;"/><text fill="#000000" font-family="sans-serif" font-size="14" lengthAdjust="spacing" textLength="42" x="331.5" y="579.9707">reset()</text><ellipse cx="322.5" cy="593.3516" fill="#84BE84" rx="3" ry="3" style="stroke:#038048;stroke-width:1.0;"/><text fill="#000000" font-family="sans-serif" font-size="14" lengthAdjust="spacing" textLength="68" x="331.5" y="597.5801">getBoard()</text><ellipse cx="322.5" cy="610.9609" fill="#84BE84" rx="3" ry="3" style="stroke:#038048;stroke-width:1.0;"/><text fill="#000000" font-family="sans-serif" font-size="14" lengthAdjust="spacing" textLength="60" x="331.5" y="615.1895">getTurn()</text></g><!--class Connect4View--><g id="elem_Connect4View"><rect codeLine="14" fill="#F1F1F1" height="118.4375" id="Connect4View" rx="2.5" ry="2.5" style="stroke:#181818;stroke-width:0.5;" width="122" x="542" y="7"/><ellipse cx="557" cy="23" fill="#ADD1B2" rx="11" ry="11" style="stroke:#181818;stroke-width:1.0;"/><path d="M559.7656,18.875 Q559.9219,18.6563 560.1094,18.5469 Q560.2969,18.4375 560.5156,18.4375 Q560.8906,18.4375 561.125,18.7031 Q561.3594,18.9531 561.3594,19.5625 L561.3594,21.0156 Q561.3594,21.625 561.125,21.8906 Q560.8906,22.1563 560.5156,22.1563 Q560.1719,22.1563 559.9688,21.9531 Q559.7656,21.7656 559.6563,21.25 Q559.6094,20.8906 559.4219,20.7031 Q559.0938,20.3281 558.4844,20.1094 Q557.875,19.8906 557.25,19.8906 Q556.4844,19.8906 555.8438,20.2188 Q555.2188,20.5469 554.7188,21.2969 Q554.2344,22.0469 554.2344,23.0781 L554.2344,24.1719 Q554.2344,25.4063 555.125,26.2344 Q556.0156,27.0469 557.6094,27.0469 Q558.5469,27.0469 559.2031,26.7969 Q559.5938,26.6406 560.0156,26.2031 Q560.2813,25.9375 560.4219,25.8594 Q560.5781,25.7813 560.7813,25.7813 Q561.1094,25.7813 561.3594,26.0469 Q561.625,26.2969 561.625,26.6406 Q561.625,26.9844 561.2813,27.3906 Q560.7813,27.9688 559.9844,28.2969 Q558.9063,28.75 557.6094,28.75 Q556.0938,28.75 554.8906,28.125 Q553.9063,27.625 553.2188,26.5625 Q552.5313,25.4844 552.5313,24.2031 L552.5313,23.0469 Q552.5313,21.7188 553.1406,20.5781 Q553.7656,19.4219 554.8594,18.8125 Q555.9531,18.1875 557.1875,18.1875 Q557.9219,18.1875 558.5625,18.3594 Q559.2188,18.5156 559.7656,18.875 Z " fill="#000000"/><text fill="#000000" font-family="sans-serif" font-size="14" lengthAdjust="spacing" textLength="90" x="571" y="28.7285">Connect4View</text><line style="stroke:#181818;stroke-width:0.5;" x1="543" x2="663" y1="39" y2="39"/><line style="stroke:#181818;stroke-width:0.5;" x1="543" x2="663" y1="47" y2="47"/><rect fill="#F24D5C" height="6" style="stroke:#C82930;stroke-width:1.0;" width="6" x="550" y="58.3047"/><text fill="#000000" font-family="sans-serif" font-size="14" lengthAdjust="spacing" textLength="81" x="562" y="65.5332">constructor()</text><ellipse cx="553" cy="78.9141" fill="#84BE84" rx="3" ry="3" style="stroke:#038048;stroke-width:1.0;"/><text fill="#000000" font-family="sans-serif" font-size="14" lengthAdjust="spacing" textLength="81" x="562" y="83.1426">playGames()</text><ellipse cx="553" cy="96.5234" fill="#84BE84" rx="3" ry="3" style="stroke:#038048;stroke-width:1.0;"/><text fill="#000000" font-family="sans-serif" font-size="14" lengthAdjust="spacing" textLength="74" x="562" y="100.752">playGame()</text><ellipse cx="553" cy="114.1328" fill="#84BE84" rx="3" ry="3" style="stroke:#038048;stroke-width:1.0;"/><text fill="#000000" font-family="sans-serif" font-size="14" lengthAdjust="spacing" textLength="80" x="562" y="118.3613">isResumed()</text></g><!--class BoardView--><g id="elem_BoardView"><rect codeLine="15" fill="#F1F1F1" height="118.4375" id="BoardView" rx="2.5" ry="2.5" style="stroke:#181818;stroke-width:0.5;" width="144" x="287" y="229"/><ellipse cx="322.25" cy="245" fill="#ADD1B2" rx="11" ry="11" style="stroke:#181818;stroke-width:1.0;"/><path d="M325.0156,240.875 Q325.1719,240.6563 325.3594,240.5469 Q325.5469,240.4375 325.7656,240.4375 Q326.1406,240.4375 326.375,240.7031 Q326.6094,240.9531 326.6094,241.5625 L326.6094,243.0156 Q326.6094,243.625 326.375,243.8906 Q326.1406,244.1563 325.7656,244.1563 Q325.4219,244.1563 325.2188,243.9531 Q325.0156,243.7656 324.9063,243.25 Q324.8594,242.8906 324.6719,242.7031 Q324.3438,242.3281 323.7344,242.1094 Q323.125,241.8906 322.5,241.8906 Q321.7344,241.8906 321.0938,242.2188 Q320.4688,242.5469 319.9688,243.2969 Q319.4844,244.0469 319.4844,245.0781 L319.4844,246.1719 Q319.4844,247.4063 320.375,248.2344 Q321.2656,249.0469 322.8594,249.0469 Q323.7969,249.0469 324.4531,248.7969 Q324.8438,248.6406 325.2656,248.2031 Q325.5313,247.9375 325.6719,247.8594 Q325.8281,247.7813 326.0313,247.7813 Q326.3594,247.7813 326.6094,248.0469 Q326.875,248.2969 326.875,248.6406 Q326.875,248.9844 326.5313,249.3906 Q326.0313,249.9688 325.2344,250.2969 Q324.1563,250.75 322.8594,250.75 Q321.3438,250.75 320.1406,250.125 Q319.1563,249.625 318.4688,248.5625 Q317.7813,247.4844 317.7813,246.2031 L317.7813,245.0469 Q317.7813,243.7188 318.3906,242.5781 Q319.0156,241.4219 320.1094,240.8125 Q321.2031,240.1875 322.4375,240.1875 Q323.1719,240.1875 323.8125,240.3594 Q324.4688,240.5156 325.0156,240.875 Z " fill="#000000"/><text fill="#000000" font-family="sans-serif" font-size="14" lengthAdjust="spacing" textLength="67" x="340.75" y="250.7285">BoardView</text><line style="stroke:#181818;stroke-width:0.5;" x1="288" x2="430" y1="261" y2="261"/><rect fill="none" height="6" style="stroke:#C82930;stroke-width:1.0;" width="6" x="295" y="272.3047"/><text fill="#000000" font-family="sans-serif" font-size="14" lengthAdjust="spacing" textLength="37" x="307" y="279.5332">board</text><line style="stroke:#181818;stroke-width:0.5;" x1="288" x2="430" y1="286.6094" y2="286.6094"/><rect fill="#F24D5C" height="6" style="stroke:#C82930;stroke-width:1.0;" width="6" x="295" y="297.9141"/><text fill="#000000" font-family="sans-serif" font-size="14" lengthAdjust="spacing" textLength="118" x="307" y="305.1426">constructor(board)</text><ellipse cx="298" cy="318.5234" fill="#84BE84" rx="3" ry="3" style="stroke:#038048;stroke-width:1.0;"/><text fill="#000000" font-family="sans-serif" font-size="14" lengthAdjust="spacing" textLength="50" x="307" y="322.752">writeln()</text><rect fill="#F24D5C" height="6" style="stroke:#C82930;stroke-width:1.0;" width="6" x="295" y="333.1328"/><text fill="#000000" font-family="sans-serif" font-size="14" lengthAdjust="spacing" textLength="101" x="307" y="340.3613">writeHorizontal()</text></g><!--class TurnView--><g id="elem_TurnView"><rect codeLine="16" fill="#F1F1F1" height="118.4375" id="TurnView" rx="2.5" ry="2.5" style="stroke:#181818;stroke-width:0.5;" width="132" x="537" y="229"/><ellipse cx="570.45" cy="245" fill="#ADD1B2" rx="11" ry="11" style="stroke:#181818;stroke-width:1.0;"/><path d="M573.2156,240.875 Q573.3719,240.6563 573.5594,240.5469 Q573.7469,240.4375 573.9656,240.4375 Q574.3406,240.4375 574.575,240.7031 Q574.8094,240.9531 574.8094,241.5625 L574.8094,243.0156 Q574.8094,243.625 574.575,243.8906 Q574.3406,244.1563 573.9656,244.1563 Q573.6219,244.1563 573.4188,243.9531 Q573.2156,243.7656 573.1063,243.25 Q573.0594,242.8906 572.8719,242.7031 Q572.5438,242.3281 571.9344,242.1094 Q571.325,241.8906 570.7,241.8906 Q569.9344,241.8906 569.2938,242.2188 Q568.6688,242.5469 568.1688,243.2969 Q567.6844,244.0469 567.6844,245.0781 L567.6844,246.1719 Q567.6844,247.4063 568.575,248.2344 Q569.4656,249.0469 571.0594,249.0469 Q571.9969,249.0469 572.6531,248.7969 Q573.0438,248.6406 573.4656,248.2031 Q573.7313,247.9375 573.8719,247.8594 Q574.0281,247.7813 574.2313,247.7813 Q574.5594,247.7813 574.8094,248.0469 Q575.075,248.2969 575.075,248.6406 Q575.075,248.9844 574.7313,249.3906 Q574.2313,249.9688 573.4344,250.2969 Q572.3563,250.75 571.0594,250.75 Q569.5438,250.75 568.3406,250.125 Q567.3563,249.625 566.6688,248.5625 Q565.9813,247.4844 565.9813,246.2031 L565.9813,245.0469 Q565.9813,243.7188 566.5906,242.5781 Q567.2156,241.4219 568.3094,240.8125 Q569.4031,240.1875 570.6375,240.1875 Q571.3719,240.1875 572.0125,240.3594 Q572.6688,240.5156 573.2156,240.875 Z " fill="#000000"/><text fill="#000000" font-family="sans-serif" font-size="14" lengthAdjust="spacing" textLength="59" x="588.55" y="250.7285">TurnView</text><line style="stroke:#181818;stroke-width:0.5;" x1="538" x2="668" y1="261" y2="261"/><rect fill="none" height="6" style="stroke:#C82930;stroke-width:1.0;" width="6" x="545" y="272.3047"/><text fill="#000000" font-family="sans-serif" font-size="14" lengthAdjust="spacing" textLength="25" x="557" y="279.5332">turn</text><line style="stroke:#181818;stroke-width:0.5;" x1="538" x2="668" y1="286.6094" y2="286.6094"/><rect fill="#F24D5C" height="6" style="stroke:#C82930;stroke-width:1.0;" width="6" x="545" y="297.9141"/><text fill="#000000" font-family="sans-serif" font-size="14" lengthAdjust="spacing" textLength="106" x="557" y="305.1426">constructor(turn)</text><ellipse cx="548" cy="318.5234" fill="#84BE84" rx="3" ry="3" style="stroke:#038048;stroke-width:1.0;"/><text fill="#000000" font-family="sans-serif" font-size="14" lengthAdjust="spacing" textLength="36" x="557" y="322.752">play()</text><ellipse cx="548" cy="336.1328" fill="#84BE84" rx="3" ry="3" style="stroke:#038048;stroke-width:1.0;"/><text fill="#000000" font-family="sans-serif" font-size="14" lengthAdjust="spacing" textLength="79" x="557" y="340.3613">writeResult()</text></g><!--class PlayerView--><g id="elem_PlayerView"><rect codeLine="17" fill="#F1F1F1" height="118.4375" id="PlayerView" rx="2.5" ry="2.5" style="stroke:#181818;stroke-width:0.5;" width="146" x="525" y="477.5"/><ellipse cx="560.25" cy="493.5" fill="#ADD1B2" rx="11" ry="11" style="stroke:#181818;stroke-width:1.0;"/><path d="M563.0156,489.375 Q563.1719,489.1563 563.3594,489.0469 Q563.5469,488.9375 563.7656,488.9375 Q564.1406,488.9375 564.375,489.2031 Q564.6094,489.4531 564.6094,490.0625 L564.6094,491.5156 Q564.6094,492.125 564.375,492.3906 Q564.1406,492.6563 563.7656,492.6563 Q563.4219,492.6563 563.2188,492.4531 Q563.0156,492.2656 562.9063,491.75 Q562.8594,491.3906 562.6719,491.2031 Q562.3438,490.8281 561.7344,490.6094 Q561.125,490.3906 560.5,490.3906 Q559.7344,490.3906 559.0938,490.7188 Q558.4688,491.0469 557.9688,491.7969 Q557.4844,492.5469 557.4844,493.5781 L557.4844,494.6719 Q557.4844,495.9063 558.375,496.7344 Q559.2656,497.5469 560.8594,497.5469 Q561.7969,497.5469 562.4531,497.2969 Q562.8438,497.1406 563.2656,496.7031 Q563.5313,496.4375 563.6719,496.3594 Q563.8281,496.2813 564.0313,496.2813 Q564.3594,496.2813 564.6094,496.5469 Q564.875,496.7969 564.875,497.1406 Q564.875,497.4844 564.5313,497.8906 Q564.0313,498.4688 563.2344,498.7969 Q562.1563,499.25 560.8594,499.25 Q559.3438,499.25 558.1406,498.625 Q557.1563,498.125 556.4688,497.0625 Q555.7813,495.9844 555.7813,494.7031 L555.7813,493.5469 Q555.7813,492.2188 556.3906,491.0781 Q557.0156,489.9219 558.1094,489.3125 Q559.2031,488.6875 560.4375,488.6875 Q561.1719,488.6875 561.8125,488.8594 Q562.4688,489.0156 563.0156,489.375 Z " fill="#000000"/><text fill="#000000" font-family="sans-serif" font-size="14" lengthAdjust="spacing" textLength="69" x="578.75" y="499.2285">PlayerView</text><line style="stroke:#181818;stroke-width:0.5;" x1="526" x2="670" y1="509.5" y2="509.5"/><rect fill="none" height="6" style="stroke:#C82930;stroke-width:1.0;" width="6" x="533" y="520.8047"/><text fill="#000000" font-family="sans-serif" font-size="14" lengthAdjust="spacing" textLength="39" x="545" y="528.0332">player</text><line style="stroke:#181818;stroke-width:0.5;" x1="526" x2="670" y1="535.1094" y2="535.1094"/><rect fill="#F24D5C" height="6" style="stroke:#C82930;stroke-width:1.0;" width="6" x="533" y="546.4141"/><text fill="#000000" font-family="sans-serif" font-size="14" lengthAdjust="spacing" textLength="120" x="545" y="553.6426">constructor(player)</text><ellipse cx="536" cy="567.0234" fill="#84BE84" rx="3" ry="3" style="stroke:#038048;stroke-width:1.0;"/><text fill="#000000" font-family="sans-serif" font-size="14" lengthAdjust="spacing" textLength="36" x="545" y="571.252">play()</text><ellipse cx="536" cy="584.6328" fill="#84BE84" rx="3" ry="3" style="stroke:#038048;stroke-width:1.0;"/><text fill="#000000" font-family="sans-serif" font-size="14" lengthAdjust="spacing" textLength="84" x="545" y="588.8613">writeWinner()</text></g><!--class ColorView--><g id="elem_ColorView"><rect codeLine="18" fill="#F1F1F1" height="100.8281" id="ColorView" rx="2.5" ry="2.5" style="stroke:#181818;stroke-width:0.5;" width="138" x="59" y="1081"/><ellipse cx="93.35" cy="1097" fill="#ADD1B2" rx="11" ry="11" style="stroke:#181818;stroke-width:1.0;"/><path d="M96.1156,1092.875 Q96.2719,1092.6563 96.4594,1092.5469 Q96.6469,1092.4375 96.8656,1092.4375 Q97.2406,1092.4375 97.475,1092.7031 Q97.7094,1092.9531 97.7094,1093.5625 L97.7094,1095.0156 Q97.7094,1095.625 97.475,1095.8906 Q97.2406,1096.1563 96.8656,1096.1563 Q96.5219,1096.1563 96.3188,1095.9531 Q96.1156,1095.7656 96.0063,1095.25 Q95.9594,1094.8906 95.7719,1094.7031 Q95.4438,1094.3281 94.8344,1094.1094 Q94.225,1093.8906 93.6,1093.8906 Q92.8344,1093.8906 92.1938,1094.2188 Q91.5688,1094.5469 91.0688,1095.2969 Q90.5844,1096.0469 90.5844,1097.0781 L90.5844,1098.1719 Q90.5844,1099.4063 91.475,1100.2344 Q92.3656,1101.0469 93.9594,1101.0469 Q94.8969,1101.0469 95.5531,1100.7969 Q95.9438,1100.6406 96.3656,1100.2031 Q96.6313,1099.9375 96.7719,1099.8594 Q96.9281,1099.7813 97.1313,1099.7813 Q97.4594,1099.7813 97.7094,1100.0469 Q97.975,1100.2969 97.975,1100.6406 Q97.975,1100.9844 97.6313,1101.3906 Q97.1313,1101.9688 96.3344,1102.2969 Q95.2563,1102.75 93.9594,1102.75 Q92.4438,1102.75 91.2406,1102.125 Q90.2563,1101.625 89.5688,1100.5625 Q88.8813,1099.4844 88.8813,1098.2031 L88.8813,1097.0469 Q88.8813,1095.7188 89.4906,1094.5781 Q90.1156,1093.4219 91.2094,1092.8125 Q92.3031,1092.1875 93.5375,1092.1875 Q94.2719,1092.1875 94.9125,1092.3594 Q95.5688,1092.5156 96.1156,1092.875 Z " fill="#000000"/><text fill="#000000" font-family="sans-serif" font-size="14" lengthAdjust="spacing" textLength="63" x="111.65" y="1102.7285">ColorView</text><line style="stroke:#181818;stroke-width:0.5;" x1="60" x2="196" y1="1113" y2="1113"/><rect fill="none" height="6" style="stroke:#C82930;stroke-width:1.0;" width="6" x="67" y="1124.3047"/><text fill="#000000" font-family="sans-serif" font-size="14" lengthAdjust="spacing" textLength="31" x="79" y="1131.5332">color</text><line style="stroke:#181818;stroke-width:0.5;" x1="60" x2="196" y1="1138.6094" y2="1138.6094"/><rect fill="#F24D5C" height="6" style="stroke:#C82930;stroke-width:1.0;" width="6" x="67" y="1149.9141"/><text fill="#000000" font-family="sans-serif" font-size="14" lengthAdjust="spacing" textLength="112" x="79" y="1157.1426">constructor(color)</text><ellipse cx="70" cy="1170.5234" fill="#84BE84" rx="3" ry="3" style="stroke:#038048;stroke-width:1.0;"/><text fill="#000000" font-family="sans-serif" font-size="14" lengthAdjust="spacing" textLength="39" x="79" y="1174.752">write()</text></g><!--reverse link Connect4 to Board--><g id="link_Connect4_Board"><path codeLine="20" d="M425.3618,622.7075 C443.5118,649.6075 453.81,667.01 459,682 C538.24,910.87 513.82,984.88 491,1226 C489.16,1245.49 486.26,1265.96 482.9,1285.93 " fill="none" id="Connect4-backto-Board" style="stroke:#181818;stroke-width:1.0;"/><polygon fill="#181818" points="418.65,612.76,418.6901,619.971,425.3618,622.7075,425.3217,615.4965,418.65,612.76" style="stroke:#181818;stroke-width:1.0;"/></g><!--reverse link Connect4 to Turn--><g id="link_Connect4_Turn"><path codeLine="21" d="M365,634.06 C365,663.85 365,685.79 365,717.43 " fill="none" id="Connect4-backto-Turn" style="stroke:#181818;stroke-width:1.0;"/><polygon fill="#181818" points="365,622.06,361,628.06,365,634.06,369,628.06,365,622.06" style="stroke:#181818;stroke-width:1.0;"/></g><!--link Turn to Board--><g id="link_Turn_Board"><path codeLine="22" d="M424.74,941.76 C438.02,971.83 450.18,1004.95 457,1037 C474.35,1118.57 474.3493,1206.3326 469.5593,1280.0026 " fill="none" id="Turn-to-Board" style="stroke:#181818;stroke-width:1.0;"/><polygon fill="#181818" points="469.17,1285.99,473.7455,1277.2685,469.4944,1281.0005,465.7624,1276.7494,469.17,1285.99" style="stroke:#181818;stroke-width:1.0;"/></g><!--reverse link Turn to Player--><g id="link_Turn_Player"><path codeLine="23" d="M353.0873,953.7245 C350.0773,984.9145 347.98,1006.54 345.08,1036.61 " fill="none" id="Turn-backto-Player" style="stroke:#181818;stroke-width:1.0;"/><polygon fill="none" points="354.24,941.78,349.6821,947.368,353.0873,953.7245,357.6451,948.1365,354.24,941.78" style="stroke:#181818;stroke-width:1.0;"/></g><!--link Player to Color--><g id="link_Player_Color"><path codeLine="24" d="M292.56,1226.01 C278.41,1256.47 265.2265,1284.8378 251.0765,1315.3178 " fill="none" id="Player-to-Color" style="stroke:#181818;stroke-width:1.0;stroke-dasharray:7.0,7.0;"/><polygon fill="#181818" points="248.55,1320.76,255.9678,1314.2811,250.6554,1316.2249,248.7116,1310.9125,248.55,1320.76" style="stroke:#181818;stroke-width:1.0;"/></g><!--link Player to Board--><g id="link_Player_Board"><path codeLine="25" d="M375.46,1226.01 C383.54,1245.17 389.858,1260.1217 398.358,1280.2717 " fill="none" id="Player-to-Board" style="stroke:#181818;stroke-width:1.0;"/><polygon fill="#181818" points="400.69,1285.8,400.8775,1275.9529,398.7466,1281.1931,393.5065,1279.0623,400.69,1285.8" style="stroke:#181818;stroke-width:1.0;"/></g><!--link Board to Coordinate--><g id="link_Board_Coordinate"><path codeLine="26" d="M348.84,1505.83 C330.68,1519.61 311.64,1533.17 293,1545 C242.32,1577.16 203.64,1553.99 172,1605 C102.89,1716.42 134.66,1774.32 172,1900 C183.63,1939.16 201.214,1972.853 223.624,2006.793 " fill="none" id="Board-to-Coordinate" style="stroke:#181818;stroke-width:1.0;stroke-dasharray:7.0,7.0;"/><polygon fill="#181818" points="226.93,2011.8,225.3089,2002.0855,224.175,2007.6275,218.6329,2006.4935,226.93,2011.8" style="stroke:#181818;stroke-width:1.0;"/></g><!--link Board to Line--><g id="link_Board_Line"><path codeLine="27" d="M388.61,1545.06 C369.22,1582.61 351.1532,1617.589 333.1032,1652.539 " fill="none" id="Board-to-Line" style="stroke:#181818;stroke-width:1.0;stroke-dasharray:7.0,7.0;"/><polygon fill="#181818" points="330.35,1657.87,338.0338,1651.7089,332.6443,1653.4275,330.9258,1648.038,330.35,1657.87" style="stroke:#181818;stroke-width:1.0;"/></g><!--link Board to Direction--><g id="link_Board_Direction"><path codeLine="28" d="M472.27,1545.06 C474.9,1564.62 476.8196,1578.9836 479.4996,1598.8936 " fill="none" id="Board-to-Direction" style="stroke:#181818;stroke-width:1.0;stroke-dasharray:7.0,7.0;"/><polygon fill="#181818" points="480.3,1604.84,483.0636,1595.3868,479.633,1599.8847,475.1351,1596.4541,480.3,1604.84" style="stroke:#181818;stroke-width:1.0;"/></g><!--link Direction to Coordinate--><g id="link_Direction_Coordinate"><path codeLine="29" d="M415.44,1900.2 C405.55,1919.81 398.1757,1934.6202 388.5457,1954.5002 " fill="none" id="Direction-to-Coordinate" style="stroke:#181818;stroke-width:1.0;"/><polygon fill="#181818" points="385.93,1959.9,393.4534,1953.5441,388.1098,1955.4001,386.2537,1950.0565,385.93,1959.9" style="stroke:#181818;stroke-width:1.0;"/></g><!--link Direction to Coordinate--><g id="link_Direction_Coordinate"><path codeLine="30" d="M441.17,1900.2 C430.9,1921.73 422.6962,1938.6149 411.8062,1960.3649 " fill="none" id="Direction-to-Coordinate-1" style="stroke:#181818;stroke-width:1.0;stroke-dasharray:7.0,7.0;"/><polygon fill="#181818" points="409.12,1965.73,416.7261,1959.4732,411.3585,1961.2591,409.5726,1955.8915,409.12,1965.73" style="stroke:#181818;stroke-width:1.0;"/></g><!--reverse link Coordinate to ClosedInterval--><g id="link_Coordinate_ClosedInterval"><path codeLine="31" d="M318,2302.04 C318,2323.37 318,2331.97 318,2349.83 " fill="none" id="Coordinate-backto-ClosedInterval" style="stroke:#181818;stroke-width:1.0;"/><polygon fill="#181818" points="318,2290.04,314,2296.04,318,2302.04,322,2296.04,318,2290.04" style="stroke:#181818;stroke-width:1.0;"/></g><!--reverse link Connect4View to Connect4--><g id="link_Connect4View_Connect4"><path codeLine="33" d="M549.5353,134.939 C536.2353,153.359 529.53,164.54 519,185 C474.69,271.11 488.07,302.84 448,391 C438.96,410.88 428.03,431.61 417.12,450.95 " fill="none" id="Connect4View-backto-Connect4" style="stroke:#181818;stroke-width:1.0;"/><polygon fill="#181818" points="556.56,125.21,549.8046,127.7329,549.5353,134.939,556.2906,132.4161,556.56,125.21" style="stroke:#181818;stroke-width:1.0;"/></g><!--link Connect4View to YesNoDialog--><g id="link_Connect4View_YesNoDialog"><path codeLine="34" d="M664.14,92.45 C710.07,113.31 773.05,145.74 821,185 C830.27,192.59 835.1949,196.9248 843.6649,205.9948 " fill="none" id="Connect4View-to-YesNoDialog" style="stroke:#181818;stroke-width:1.0;stroke-dasharray:7.0,7.0;"/><polygon fill="#181818" points="847.76,210.38,844.5408,201.0721,844.3474,206.7257,838.6939,206.5323,847.76,210.38" style="stroke:#181818;stroke-width:1.0;"/></g><!--reverse link Connect4View to BoardView--><g id="link_Connect4View_BoardView"><path codeLine="35" d="M532.3226,121.735 C505.9626,142.725 484.56,160.66 458,185 C442.99,198.75 427.37,214.24 413.1,228.9 " fill="none" id="Connect4View-backto-BoardView" style="stroke:#181818;stroke-width:1.0;"/><polygon fill="#181818" points="541.71,114.26,534.5246,114.8684,532.3226,121.735,539.508,121.1267,541.71,114.26" style="stroke:#181818;stroke-width:1.0;"/></g><!--reverse link Connect4View to TurnView--><g id="link_Connect4View_TurnView"><path codeLine="36" d="M603,137.09 C603,169.17 603,196.89 603,228.97 " fill="none" id="Connect4View-backto-TurnView" style="stroke:#181818;stroke-width:1.0;"/><polygon fill="#181818" points="603,125.09,599,131.09,603,137.09,607,131.09,603,125.09" style="stroke:#181818;stroke-width:1.0;"/></g><!--link Connect4View to Message--><g id="link_Connect4View_Message"><path codeLine="37" d="M652.36,125.07 C665.52,143.24 678.45,164.05 687,185 C752.51,345.45 752.7624,541.3078 742.3724,675.7178 " fill="none" id="Connect4View-to-Message" style="stroke:#181818;stroke-width:1.0;stroke-dasharray:7.0,7.0;"/><polygon fill="#181818" points="741.91,681.7,746.5917,673.0351,742.2954,676.7149,738.6155,672.4185,741.91,681.7" style="stroke:#181818;stroke-width:1.0;"/></g><!--link TurnView to Connect4--><g id="link_TurnView_Connect4"><path codeLine="38" d="M550.85,347.16 C537.65,361.61 523.42,376.97 510,391 C480.27,422.08 450.5358,451.8508 422.9158,479.0408 " fill="none" id="TurnView-to-Connect4" style="stroke:#181818;stroke-width:1.0;"/><polygon fill="#181818" points="418.64,483.25,427.8598,479.7867,422.2032,479.7423,422.2475,474.0856,418.64,483.25" style="stroke:#181818;stroke-width:1.0;"/></g><!--link TurnView to Message--><g id="link_TurnView_Message"><path codeLine="39" d="M641.21,347.33 C658.81,377.13 678.16,414.69 689,451 C711.13,525.1 720.0269,604.7172 723.4969,675.6572 " fill="none" id="TurnView-to-Message" style="stroke:#181818;stroke-width:1.0;stroke-dasharray:7.0,7.0;"/><polygon fill="#181818" points="723.79,681.65,727.3455,672.4653,723.5457,676.656,719.3551,672.8562,723.79,681.65" style="stroke:#181818;stroke-width:1.0;"/></g><!--link TurnView to PlayerView--><g id="link_TurnView_PlayerView"><path codeLine="40" d="M601.82,347.1 C601.02,386.39 600.1021,432.0712 599.3021,471.3612 " fill="none" id="TurnView-to-PlayerView" style="stroke:#181818;stroke-width:1.0;stroke-dasharray:7.0,7.0;"/><polygon fill="#181818" points="599.18,477.36,603.3624,468.4433,599.2818,472.361,595.364,468.2804,599.18,477.36" style="stroke:#181818;stroke-width:1.0;"/></g><!--link BoardView to Connect4--><g id="link_BoardView_Connect4"><path codeLine="41" d="M360.41,347.1 C361.17,377.99 361.9525,410.5418 362.7925,444.7018 " fill="none" id="BoardView-to-Connect4" style="stroke:#181818;stroke-width:1.0;"/><polygon fill="#181818" points="362.94,450.7,366.7175,441.6044,362.8171,445.7015,358.72,441.8011,362.94,450.7" style="stroke:#181818;stroke-width:1.0;"/></g><!--link BoardView to Coordinate--><g id="link_BoardView_Coordinate"><path codeLine="42" d="M287.57,347.11 C184.42,438.05 6,624.79 6,828.5 C6,828.5 6,828.5 6,1416.5 C6,1637.7 22.53,1703.45 124,1900 C150.14,1950.63 185.8545,1995.0039 222.6345,2034.0239 " fill="none" id="BoardView-to-Coordinate" style="stroke:#181818;stroke-width:1.0;stroke-dasharray:7.0,7.0;"/><polygon fill="#181818" points="226.75,2038.39,223.4875,2029.0972,223.3204,2034.7516,217.6661,2034.5845,226.75,2038.39" style="stroke:#181818;stroke-width:1.0;"/></g><!--link BoardView to Message--><g id="link_BoardView_Message"><path codeLine="43" d="M387.51,347.16 C402.34,377.87 420.56,416.29 436,451 C469.45,526.18 455.95,557.46 507,622 C535.24,657.7 556.02,651.72 590,682 C599.01,690.03 603.7935,694.3814 612.7035,703.1914 " fill="none" id="BoardView-to-Message" style="stroke:#181818;stroke-width:1.0;stroke-dasharray:7.0,7.0;"/><polygon fill="#181818" points="616.97,707.41,613.3826,698.2377,613.4146,703.8945,607.7578,703.9264,616.97,707.41" style="stroke:#181818;stroke-width:1.0;"/></g><!--link BoardView to ColorView--><g id="link_BoardView_ColorView"><path codeLine="44" d="M333.35,347.13 C320.47,377.67 305.25,415.94 294,451 C219.68,682.54 161.2274,961.7347 138.7774,1074.9147 " fill="none" id="BoardView-to-ColorView" style="stroke:#181818;stroke-width:1.0;stroke-dasharray:7.0,7.0;"/><polygon fill="#181818" points="137.61,1080.8,143.2847,1072.7503,138.5828,1075.8956,135.4375,1071.1937,137.61,1080.8" style="stroke:#181818;stroke-width:1.0;"/></g><!--link PlayerView to Message--><g id="link_PlayerView_Message"><path codeLine="45" d="M623.2,595.69 C634.04,620.73 644.8767,645.7536 658.1167,676.3436 " fill="none" id="PlayerView-to-Message" style="stroke:#181818;stroke-width:1.0;stroke-dasharray:7.0,7.0;"/><polygon fill="#181818" points="660.5,681.85,660.596,672.0016,658.5139,677.2614,653.2542,675.1793,660.5,681.85" style="stroke:#181818;stroke-width:1.0;"/></g><!--link ColorView to Color--><g id="link_ColorView_Color"><path codeLine="46" d="M141.59,1182.27 C152.04,1220.53 165.1892,1268.722 177.8292,1315.002 " fill="none" id="ColorView-to-Color" style="stroke:#181818;stroke-width:1.0;"/><polygon fill="#181818" points="179.41,1320.79,180.8974,1311.0541,178.0926,1315.9667,173.1801,1313.1619,179.41,1320.79" style="stroke:#181818;stroke-width:1.0;"/></g><!--SRC=[VLTDawCs4BtxLt24pB2dd7BOAdRCUAZ2C0NOpYILSX7CU5J1u22ypcPh__ksFf64u396xpsrMjsjbgPgIeoTfwR3zIbgXxh_MZQhYe5Tq_Nok-jFg2s7cWDhrDVLWBgMZxSrnkLPi35gnUUNhknF_FkrAR_LmcHnwyNajnedtHgLJNUMwxKjsFzrPOptgBwhXfKniQSCsLeAGBT3nojXpVd5zxc36aHT8tySt__C1NJO0SatmNwSJvy-yq1nO9n1_tA1ZDu8qXYDmp6WyelQKkQEX65q_AJk6zbSgS5Z0X5TZI56rKnCfeqHdr0o-1EBeZ24Wc-AEo1HgvI0IXxb-hgD4RR5UcBTb8kg61VIv5B05oMfrdVvc-DNNOk7_bODNUzw9ljm1SkRybBZ1Sv28PpL-7QfJy2DzGch_KrsyFs7XWqGCmEoEyKiFwCMuGzgMYNw6jU3WPthWOPi2fCy4T-KeW7cEnxA0LK_73zuVewoRL14-t1MauIRPK6-0ok_pzBRCC-3ZJdTBrjyXqEgex2zacp3G14EtjzHVm6BNsiRdTJd6Gw24D2LI1XeXz3sjjj-2RFZQnoyXLakUFzA2mtBSLaHuxoj253aM8pLP7BE4wHCcnZZEpZm4IXs5LB9fm8n6TP1my9uC7d1QO3g8I4zbQLrxkhGlKT3JKgy8RwB_aajAVrKYOMg6DUYwaU7YhnH0tdRbmqwmOczNLgYWX-TPzHJTxaszG1dOQevzTsrwFwfRVCXFhGRk0OeWgis59br0rJtmGIUhX1nqq4QkGE2mqZJmYuH4JZyvryZ0ZVVi8PDIEH1xmeI5YKa0NFhZmwrhYX805deP7GKJkam2YgTrgomhk8sS2DgJ5fLjokYcH5DtUP6UBaEtnIDGieagQno1OZgqg79OVCqdiM_QLqTzYdyqlNe_wuToeQaXbpoQazuYCDaKxm8t0Vn6RLoE7g9Hydrsc4mF3uGEFEWdm8napG6eI0vFObv2lo1taconPX6IQvC_EQtd-Pw4HLnQ6LUqYpw8qsA83x6KMBNxCEiY9wM5CKkIwn4c1JGHf_IUBTDZaLwN6VfgrKO9ViWZjPSQfKyfTlNE2p2HH7hsCT3j4Jdno8ArrP15kQxhRf97_A4shE2QCbZhAVIj9RSAKIhpb6UWkgwIPf1RIrmnp38Ynd10fMdk-MvLB0u-H3EJbwWcDCJWQzMkyPeOUsxEsqNj3LfAYZub1yhrvjP6vxEDteOp9dZKJ79Zx9vtujfwgjSjGjdPGE5DSFoDqEM7l8PYR_0YUcijcSjM6aVmcKWB7OwE1zXNKPxZDQwJGM_e5rlRZFYXcOowpBZdk2rtDsP4hmoruAq0UrQOFu-C9dwtrlPu0NlXowdfvPb6guOemEiBUXR6CVfmK8akpYMi6WMOcnj5LCRi1UNETXOQ5-MipGxsS5u_P7tbm4P3ovFusMxMkd_UvAf5xZVB6ZvtnJLTWhp7XsGUHOTmb5RDRSJr1VTbxVw2G00]--></g></svg>