<?xml version="1.0" encoding="us-ascii" standalone="no"?><svg xmlns="http://www.w3.org/2000/svg" xmlns:xlink="http://www.w3.org/1999/xlink" contentStyleType="text/css" height="650px" preserveAspectRatio="none" style="width:422px;height:650px;background:#FFFFFF;" version="1.1" viewBox="0 0 422 650" width="422px" zoomAndPan="magnify"><defs/><g><g id="IN_GAME"><rect fill="#F1F1F1" height="50" rx="12.5" ry="12.5" style="stroke:#181818;stroke-width:0.5;" width="80" x="97.25" y="87"/><line style="stroke:#181818;stroke-width:0.5;" x1="97.25" x2="177.25" y1="114.6094" y2="114.6094"/><text fill="#000000" font-family="sans-serif" font-size="14" lengthAdjust="spacing" textLength="60" x="107.25" y="106.5332">IN_GAME</text></g><g id="BLANK"><rect fill="#F1F1F1" height="50" rx="12.5" ry="12.5" style="stroke:#181818;stroke-width:0.5;" width="50" x="112.25" y="215"/><line style="stroke:#181818;stroke-width:0.5;" x1="112.25" x2="162.25" y1="242.6094" y2="242.6094"/><text fill="#000000" font-family="sans-serif" font-size="14" lengthAdjust="spacing" textLength="4" x="135.25" y="234.5332">&#160;</text></g><g id="elem_IN_GAME_UNDOABLE"><polygon fill="#F1F1F1" points="137.25,343,149.25,355,137.25,367,125.25,355,137.25,343" style="stroke:#181818;stroke-width:0.5;"/></g><g id="BLANK_2"><rect fill="#F1F1F1" height="50" rx="12.5" ry="12.5" style="stroke:#181818;stroke-width:0.5;" width="50" x="70.25" y="445"/><line style="stroke:#181818;stroke-width:0.5;" x1="70.25" x2="120.25" y1="472.6094" y2="472.6094"/><text fill="#000000" font-family="sans-serif" font-size="14" lengthAdjust="spacing" textLength="4" x="93.25" y="464.5332">&#160;</text></g><g id="BLANK_3"><rect fill="#F1F1F1" height="50" rx="12.5" ry="12.5" style="stroke:#181818;stroke-width:0.5;" width="50" x="190.25" y="445"/><line style="stroke:#181818;stroke-width:0.5;" x1="190.25" x2="240.25" y1="472.6094" y2="472.6094"/><text fill="#000000" font-family="sans-serif" font-size="14" lengthAdjust="spacing" textLength="4" x="213.25" y="464.5332">&#160;</text></g><ellipse cx="137.25" cy="16" fill="#222222" rx="10" ry="10" style="stroke:#222222;stroke-width:1.0;"/><ellipse cx="138.25" cy="633" fill="none" rx="11" ry="11" style="stroke:#222222;stroke-width:1.0;"/><ellipse cx="138.25" cy="633" fill="#222222" rx="6" ry="6" style="stroke:#222222;stroke-width:1.0;"/><!--link *start* to IN_GAME--><g id="link_*start*_IN_GAME"><path d="M137.25,26.01 C137.25,39.89 137.25,60.97 137.25,80.84 " fill="none" id="*start*-to-IN_GAME" style="stroke:#181818;stroke-width:1.0;"/><polygon fill="#181818" points="137.25,86.84,141.25,77.84,137.25,81.84,133.25,77.84,137.25,86.84" style="stroke:#181818;stroke-width:1.0;"/></g><!--link IN_GAME to BLANK--><g id="link_IN_GAME_BLANK"><path d="M137.25,137.29 C137.25,159.61 137.25,186.49 137.25,208.78 " fill="none" id="IN_GAME-to-BLANK" style="stroke:#181818;stroke-width:1.0;"/><polygon fill="#181818" points="137.25,214.78,141.25,205.78,137.25,209.78,133.25,205.78,137.25,214.78" style="stroke:#181818;stroke-width:1.0;"/><text fill="#000000" font-family="sans-serif" font-size="13" lengthAdjust="spacing" textLength="195" x="138.25" y="181.4951">current turn Player requests Undo</text></g><!--link BLANK to IN_GAME_UNDOABLE--><g id="link_BLANK_IN_GAME_UNDOABLE"><path d="M137.25,265.24 C137.25,289.24 137.25,318.9 137.25,336.84 " fill="none" id="BLANK-to-IN_GAME_UNDOABLE" style="stroke:#181818;stroke-width:1.0;"/><polygon fill="#181818" points="137.25,342.84,141.25,333.84,137.25,337.84,133.25,333.84,137.25,342.84" style="stroke:#181818;stroke-width:1.0;"/><text fill="#000000" font-family="sans-serif" font-size="13" lengthAdjust="spacing" textLength="172" x="138.25" y="309.4951">System shows updated board</text></g><!--link IN_GAME_UNDOABLE to BLANK_2--><g id="link_IN_GAME_UNDOABLE_BLANK_2"><path d="M132.04,362.24 C125.89,369.93 115.81,383.62 110.25,397 C103.88,412.33 101.0049,424.7271 98.8449,439.0471 " fill="none" id="IN_GAME_UNDOABLE-to-BLANK_2" style="stroke:#181818;stroke-width:1.0;"/><polygon fill="#181818" points="97.95,444.98,103.2476,436.6773,98.6958,440.0359,95.3371,435.4841,97.95,444.98" style="stroke:#181818;stroke-width:1.0;"/><text fill="#000000" font-family="sans-serif" font-size="13" lengthAdjust="spacing" textLength="60" x="111.25" y="411.4951">[undoable]</text></g><!--link BLANK_2 to *end*--><g id="link_BLANK_2_*end*"><path d="M69.97,482.36 C53.36,491.32 32.96,505.57 23.25,525 C9.93,551.63 6,567.73 23.25,592 C47.5,626.11 97.0321,631.232 120.9521,631.862 " fill="none" id="BLANK_2-to-*end*" style="stroke:#181818;stroke-width:1.0;"/><polygon fill="#181818" points="126.95,632.02,118.0584,627.7844,121.9517,631.8884,117.8478,635.7817,126.95,632.02" style="stroke:#181818;stroke-width:1.0;"/><text fill="#000000" font-family="sans-serif" font-size="13" lengthAdjust="spacing" textLength="115" x="57.75" y="539.4951">System allows Play</text><text fill="#000000" font-family="sans-serif" font-size="13" lengthAdjust="spacing" textLength="182" x="24.25" y="555.8467">System allows Redo if redoable</text><text fill="#000000" font-family="sans-serif" font-size="13" lengthAdjust="spacing" textLength="119" x="55.75" y="572.1982">System allows Undo</text><text fill="#000000" font-family="sans-serif" font-size="13" lengthAdjust="spacing" textLength="112" x="59.25" y="588.5498">System allows Exit</text></g><!--link IN_GAME_UNDOABLE to BLANK_3--><g id="link_IN_GAME_UNDOABLE_BLANK_3"><path d="M143.32,361.41 C151.46,368.88 166.09,383.01 176.25,397 C187.11,411.95 194.3511,424.8964 201.4511,439.3264 " fill="none" id="IN_GAME_UNDOABLE-to-BLANK_3" style="stroke:#181818;stroke-width:1.0;"/><polygon fill="#181818" points="204.1,444.71,203.7157,434.8686,201.8926,440.2237,196.5376,438.4005,204.1,444.71" style="stroke:#181818;stroke-width:1.0;"/></g><!--link BLANK_3 to *end*--><g id="link_BLANK_3_*end*"><path d="M221.07,495.27 C225.87,521.24 229.31,562.64 211.25,592 C197.32,614.65 171.5142,623.9286 154.8342,628.1786 " fill="none" id="BLANK_3-to-*end*" style="stroke:#181818;stroke-width:1.0;"/><polygon fill="#181818" points="149.02,629.66,158.729,631.314,153.8652,628.4255,156.7537,623.5617,149.02,629.66" style="stroke:#181818;stroke-width:1.0;"/><text fill="#000000" font-family="sans-serif" font-size="13" lengthAdjust="spacing" textLength="115" x="262.25" y="547.4951">System allows Play</text><text fill="#000000" font-family="sans-serif" font-size="13" lengthAdjust="spacing" textLength="189" x="225.25" y="563.8467">System allosws Redo if redoable</text><text fill="#000000" font-family="sans-serif" font-size="13" lengthAdjust="spacing" textLength="112" x="263.75" y="580.1982">System allows Exit</text></g><!--SRC=[ZOxB2i8m44Nt-Oh1fU36xgGKAXOHQnN5bKg9pOY5scWcGVrxareBFf2IHSZDVHpIN2DCadGSpY96rQjZ3oSOnc4ohQNQaAwJqJmSnX7uVdQKUOP1y2EKzd-97cDiqzr1hnSqW_LTQPKB1f0PfR3Ke8qgOL7mEofGU358cc1T2icUJfVv1Xl0wauQJq17UIKmPs511EmbLu9zkPlTj6-J6sFR-Rx07Nk9pk2WcrfU5AxNSMtBTss9Ga9-iB3Fbiz_n_wfHRTS_yFoQXAlFGcrGAbc7m00]--></g></svg>