<?xml version="1.0" encoding="us-ascii" standalone="no"?><svg xmlns="http://www.w3.org/2000/svg" xmlns:xlink="http://www.w3.org/1999/xlink" contentStyleType="text/css" height="514px" preserveAspectRatio="none" style="width:1939px;height:514px;background:#FFFFFF;" version="1.1" viewBox="0 0 1939 514" width="1939px" zoomAndPan="magnify"><defs/><g><!--cluster controllers--><g id="cluster_controllers"><path d="M8.5,6 L86.5,6 A3.75,3.75 0 0 1 89,8.5 L96,29.6094 L1608.5,29.6094 A2.5,2.5 0 0 1 1611,32.1094 L1611,504.5 A2.5,2.5 0 0 1 1608.5,507 L8.5,507 A2.5,2.5 0 0 1 6,504.5 L6,8.5 A2.5,2.5 0 0 1 8.5,6 " fill="none" style="stroke:#000000;stroke-width:1.5;"/><line style="stroke:#000000;stroke-width:1.5;" x1="6" x2="96" y1="29.6094" y2="29.6094"/><text fill="#000000" font-family="sans-serif" font-size="14" font-weight="bold" lengthAdjust="spacing" textLength="77" x="10" y="22.5332">controllers</text></g><!--cluster implementation--><g id="cluster_implementation"><path d="M1095.5,114 L1204.5,114 A3.75,3.75 0 0 1 1207,116.5 L1214,137.6094 L1584.5,137.6094 A2.5,2.5 0 0 1 1587,140.1094 L1587,480.5 A2.5,2.5 0 0 1 1584.5,483 L1095.5,483 A2.5,2.5 0 0 1 1093,480.5 L1093,116.5 A2.5,2.5 0 0 1 1095.5,114 " fill="none" style="stroke:#000000;stroke-width:1.5;"/><line style="stroke:#000000;stroke-width:1.5;" x1="1093" x2="1214" y1="137.6094" y2="137.6094"/><text fill="#000000" font-family="sans-serif" font-size="14" font-weight="bold" lengthAdjust="spacing" textLength="108" x="1097" y="130.5332">implementation</text></g><!--class AcceptorController--><g id="elem_AcceptorController"><rect codeLine="37" fill="#F1F1F1" height="48" id="AcceptorController" rx="2.5" ry="2.5" style="stroke:#181818;stroke-width:0.5;" width="252" x="566" y="176.5"/><ellipse cx="581" cy="192.5" fill="#A9DCDF" rx="11" ry="11" style="stroke:#181818;stroke-width:1.0;"/><path d="M583.1875,194.2656 L579.0469,194.2656 L578.625,195.2969 L579.0469,195.2969 Q579.6563,195.2969 579.9219,195.5313 Q580.1875,195.7656 580.1875,196.1563 Q580.1875,196.5313 579.9219,196.7656 Q579.6563,197 579.0469,197 L576.75,197 Q576.1406,197 575.8906,196.7656 Q575.625,196.5313 575.625,196.1406 Q575.625,195.7656 575.9063,195.5313 Q576.1719,195.2813 576.7969,195.2969 L579.4688,188.6406 L578.3594,188.6406 Q577.75,188.6406 577.4844,188.4063 Q577.2188,188.1719 577.2188,187.7813 Q577.2188,187.4063 577.4844,187.1719 Q577.75,186.9375 578.3594,186.9375 L582.0313,186.9375 L585.4219,195.2969 Q586.0156,195.2969 586.2031,195.4375 Q586.5938,195.7031 586.5938,196.1563 Q586.5938,196.5313 586.3281,196.7656 Q586.0781,197 585.4688,197 L583.1719,197 Q582.5625,197 582.2969,196.7656 Q582.0313,196.5313 582.0313,196.1406 Q582.0313,195.7656 582.2969,195.5313 Q582.5625,195.2969 583.1719,195.2969 L583.5938,195.2969 L583.1875,194.2656 Z M582.4688,192.5625 L581.1094,189.1875 L579.7344,192.5625 L582.4688,192.5625 Z " fill="#000000"/><text fill="#000000" font-family="sans-serif" font-size="14" font-style="italic" lengthAdjust="spacing" textLength="220" x="595" y="198.2285">controllers.core.AcceptorController</text><line style="stroke:#181818;stroke-width:0.5;" x1="567" x2="817" y1="208.5" y2="208.5"/><line style="stroke:#181818;stroke-width:0.5;" x1="567" x2="817" y1="216.5" y2="216.5"/></g><!--class coreLogic--><g id="elem_coreLogic"><rect codeLine="42" fill="#F1F1F1" height="48" id="coreLogic" rx="2.5" ry="2.5" style="stroke:#181818;stroke-width:0.5;" width="168" x="1319" y="42"/><ellipse cx="1334" cy="58" fill="#A9DCDF" rx="11" ry="11" style="stroke:#181818;stroke-width:1.0;"/><path d="M1336.1875,59.7656 L1332.0469,59.7656 L1331.625,60.7969 L1332.0469,60.7969 Q1332.6563,60.7969 1332.9219,61.0313 Q1333.1875,61.2656 1333.1875,61.6563 Q1333.1875,62.0313 1332.9219,62.2656 Q1332.6563,62.5 1332.0469,62.5 L1329.75,62.5 Q1329.1406,62.5 1328.8906,62.2656 Q1328.625,62.0313 1328.625,61.6406 Q1328.625,61.2656 1328.9063,61.0313 Q1329.1719,60.7813 1329.7969,60.7969 L1332.4688,54.1406 L1331.3594,54.1406 Q1330.75,54.1406 1330.4844,53.9063 Q1330.2188,53.6719 1330.2188,53.2813 Q1330.2188,52.9063 1330.4844,52.6719 Q1330.75,52.4375 1331.3594,52.4375 L1335.0313,52.4375 L1338.4219,60.7969 Q1339.0156,60.7969 1339.2031,60.9375 Q1339.5938,61.2031 1339.5938,61.6563 Q1339.5938,62.0313 1339.3281,62.2656 Q1339.0781,62.5 1338.4688,62.5 L1336.1719,62.5 Q1335.5625,62.5 1335.2969,62.2656 Q1335.0313,62.0313 1335.0313,61.6406 Q1335.0313,61.2656 1335.2969,61.0313 Q1335.5625,60.7969 1336.1719,60.7969 L1336.5938,60.7969 L1336.1875,59.7656 Z M1335.4688,58.0625 L1334.1094,54.6875 L1332.7344,58.0625 L1335.4688,58.0625 Z " fill="#000000"/><text fill="#000000" font-family="sans-serif" font-size="14" font-style="italic" lengthAdjust="spacing" textLength="136" x="1348" y="63.7285">controllers.core.Logic</text><line style="stroke:#181818;stroke-width:0.5;" x1="1320" x2="1486" y1="74" y2="74"/><line style="stroke:#181818;stroke-width:0.5;" x1="1320" x2="1486" y1="82" y2="82"/></g><!--class StartController--><g id="elem_StartController"><rect codeLine="54" fill="#F1F1F1" height="48" id="StartController" rx="2.5" ry="2.5" style="stroke:#181818;stroke-width:0.5;" width="226" x="22" y="176.5"/><ellipse cx="37" cy="192.5" fill="#A9DCDF" rx="11" ry="11" style="stroke:#181818;stroke-width:1.0;"/><path d="M39.1875,194.2656 L35.0469,194.2656 L34.625,195.2969 L35.0469,195.2969 Q35.6563,195.2969 35.9219,195.5313 Q36.1875,195.7656 36.1875,196.1563 Q36.1875,196.5313 35.9219,196.7656 Q35.6563,197 35.0469,197 L32.75,197 Q32.1406,197 31.8906,196.7656 Q31.625,196.5313 31.625,196.1406 Q31.625,195.7656 31.9063,195.5313 Q32.1719,195.2813 32.7969,195.2969 L35.4688,188.6406 L34.3594,188.6406 Q33.75,188.6406 33.4844,188.4063 Q33.2188,188.1719 33.2188,187.7813 Q33.2188,187.4063 33.4844,187.1719 Q33.75,186.9375 34.3594,186.9375 L38.0313,186.9375 L41.4219,195.2969 Q42.0156,195.2969 42.2031,195.4375 Q42.5938,195.7031 42.5938,196.1563 Q42.5938,196.5313 42.3281,196.7656 Q42.0781,197 41.4688,197 L39.1719,197 Q38.5625,197 38.2969,196.7656 Q38.0313,196.5313 38.0313,196.1406 Q38.0313,195.7656 38.2969,195.5313 Q38.5625,195.2969 39.1719,195.2969 L39.5938,195.2969 L39.1875,194.2656 Z M38.4688,192.5625 L37.1094,189.1875 L35.7344,192.5625 L38.4688,192.5625 Z " fill="#000000"/><text fill="#000000" font-family="sans-serif" font-size="14" font-style="italic" lengthAdjust="spacing" textLength="194" x="51" y="198.2285">controllers.core.StartController</text><line style="stroke:#181818;stroke-width:0.5;" x1="23" x2="247" y1="208.5" y2="208.5"/><line style="stroke:#181818;stroke-width:0.5;" x1="23" x2="247" y1="216.5" y2="216.5"/></g><!--class PlayController--><g id="elem_PlayController"><rect codeLine="55" fill="#F1F1F1" height="48" id="PlayController" rx="2.5" ry="2.5" style="stroke:#181818;stroke-width:0.5;" width="223" x="853.5" y="176.5"/><ellipse cx="868.5" cy="192.5" fill="#A9DCDF" rx="11" ry="11" style="stroke:#181818;stroke-width:1.0;"/><path d="M870.6875,194.2656 L866.5469,194.2656 L866.125,195.2969 L866.5469,195.2969 Q867.1563,195.2969 867.4219,195.5313 Q867.6875,195.7656 867.6875,196.1563 Q867.6875,196.5313 867.4219,196.7656 Q867.1563,197 866.5469,197 L864.25,197 Q863.6406,197 863.3906,196.7656 Q863.125,196.5313 863.125,196.1406 Q863.125,195.7656 863.4063,195.5313 Q863.6719,195.2813 864.2969,195.2969 L866.9688,188.6406 L865.8594,188.6406 Q865.25,188.6406 864.9844,188.4063 Q864.7188,188.1719 864.7188,187.7813 Q864.7188,187.4063 864.9844,187.1719 Q865.25,186.9375 865.8594,186.9375 L869.5313,186.9375 L872.9219,195.2969 Q873.5156,195.2969 873.7031,195.4375 Q874.0938,195.7031 874.0938,196.1563 Q874.0938,196.5313 873.8281,196.7656 Q873.5781,197 872.9688,197 L870.6719,197 Q870.0625,197 869.7969,196.7656 Q869.5313,196.5313 869.5313,196.1406 Q869.5313,195.7656 869.7969,195.5313 Q870.0625,195.2969 870.6719,195.2969 L871.0938,195.2969 L870.6875,194.2656 Z M869.9688,192.5625 L868.6094,189.1875 L867.2344,192.5625 L869.9688,192.5625 Z " fill="#000000"/><text fill="#000000" font-family="sans-serif" font-size="14" font-style="italic" lengthAdjust="spacing" textLength="191" x="882.5" y="198.2285">controllers.core.PlayController</text><line style="stroke:#181818;stroke-width:0.5;" x1="854.5" x2="1075.5" y1="208.5" y2="208.5"/><line style="stroke:#181818;stroke-width:0.5;" x1="854.5" x2="1075.5" y1="216.5" y2="216.5"/></g><!--class ResumeController--><g id="elem_ResumeController"><rect codeLine="56" fill="#F1F1F1" height="48" id="ResumeController" rx="2.5" ry="2.5" style="stroke:#181818;stroke-width:0.5;" width="248" x="283" y="176.5"/><ellipse cx="298" cy="192.5" fill="#A9DCDF" rx="11" ry="11" style="stroke:#181818;stroke-width:1.0;"/><path d="M300.1875,194.2656 L296.0469,194.2656 L295.625,195.2969 L296.0469,195.2969 Q296.6563,195.2969 296.9219,195.5313 Q297.1875,195.7656 297.1875,196.1563 Q297.1875,196.5313 296.9219,196.7656 Q296.6563,197 296.0469,197 L293.75,197 Q293.1406,197 292.8906,196.7656 Q292.625,196.5313 292.625,196.1406 Q292.625,195.7656 292.9063,195.5313 Q293.1719,195.2813 293.7969,195.2969 L296.4688,188.6406 L295.3594,188.6406 Q294.75,188.6406 294.4844,188.4063 Q294.2188,188.1719 294.2188,187.7813 Q294.2188,187.4063 294.4844,187.1719 Q294.75,186.9375 295.3594,186.9375 L299.0313,186.9375 L302.4219,195.2969 Q303.0156,195.2969 303.2031,195.4375 Q303.5938,195.7031 303.5938,196.1563 Q303.5938,196.5313 303.3281,196.7656 Q303.0781,197 302.4688,197 L300.1719,197 Q299.5625,197 299.2969,196.7656 Q299.0313,196.5313 299.0313,196.1406 Q299.0313,195.7656 299.2969,195.5313 Q299.5625,195.2969 300.1719,195.2969 L300.5938,195.2969 L300.1875,194.2656 Z M299.4688,192.5625 L298.1094,189.1875 L296.7344,192.5625 L299.4688,192.5625 Z " fill="#000000"/><text fill="#000000" font-family="sans-serif" font-size="14" font-style="italic" lengthAdjust="spacing" textLength="216" x="312" y="198.2285">controllers.core.ResumeController</text><line style="stroke:#181818;stroke-width:0.5;" x1="284" x2="530" y1="208.5" y2="208.5"/><line style="stroke:#181818;stroke-width:0.5;" x1="284" x2="530" y1="216.5" y2="216.5"/></g><!--class Logic--><g id="elem_Logic"><rect codeLine="2" fill="#F1F1F1" height="100.8281" id="Logic" rx="2.5" ry="2.5" style="stroke:#181818;stroke-width:0.5;" width="335" x="1235.5" y="150"/><ellipse cx="1381.75" cy="166" fill="#ADD1B2" rx="11" ry="11" style="stroke:#181818;stroke-width:1.0;"/><path d="M1384.5156,161.875 Q1384.6719,161.6563 1384.8594,161.5469 Q1385.0469,161.4375 1385.2656,161.4375 Q1385.6406,161.4375 1385.875,161.7031 Q1386.1094,161.9531 1386.1094,162.5625 L1386.1094,164.0156 Q1386.1094,164.625 1385.875,164.8906 Q1385.6406,165.1563 1385.2656,165.1563 Q1384.9219,165.1563 1384.7188,164.9531 Q1384.5156,164.7656 1384.4063,164.25 Q1384.3594,163.8906 1384.1719,163.7031 Q1383.8438,163.3281 1383.2344,163.1094 Q1382.625,162.8906 1382,162.8906 Q1381.2344,162.8906 1380.5938,163.2188 Q1379.9688,163.5469 1379.4688,164.2969 Q1378.9844,165.0469 1378.9844,166.0781 L1378.9844,167.1719 Q1378.9844,168.4063 1379.875,169.2344 Q1380.7656,170.0469 1382.3594,170.0469 Q1383.2969,170.0469 1383.9531,169.7969 Q1384.3438,169.6406 1384.7656,169.2031 Q1385.0313,168.9375 1385.1719,168.8594 Q1385.3281,168.7813 1385.5313,168.7813 Q1385.8594,168.7813 1386.1094,169.0469 Q1386.375,169.2969 1386.375,169.6406 Q1386.375,169.9844 1386.0313,170.3906 Q1385.5313,170.9688 1384.7344,171.2969 Q1383.6563,171.75 1382.3594,171.75 Q1380.8438,171.75 1379.6406,171.125 Q1378.6563,170.625 1377.9688,169.5625 Q1377.2813,168.4844 1377.2813,167.2031 L1377.2813,166.0469 Q1377.2813,164.7188 1377.8906,163.5781 Q1378.5156,162.4219 1379.6094,161.8125 Q1380.7031,161.1875 1381.9375,161.1875 Q1382.6719,161.1875 1383.3125,161.3594 Q1383.9688,161.5156 1384.5156,161.875 Z " fill="#000000"/><text fill="#000000" font-family="sans-serif" font-size="14" lengthAdjust="spacing" textLength="34" x="1402.25" y="171.7285">Logic</text><line style="stroke:#181818;stroke-width:0.5;" x1="1236.5" x2="1569.5" y1="182" y2="182"/><rect fill="none" height="6" style="stroke:#C82930;stroke-width:1.0;" width="6" x="1243.5" y="193.3047"/><text fill="#000000" font-family="sans-serif" font-size="14" lengthAdjust="spacing" textLength="309" x="1255.5" y="200.5332">controllers : Map&lt;StateValue, AceptorController&gt;</text><line style="stroke:#181818;stroke-width:0.5;" x1="1236.5" x2="1569.5" y1="207.6094" y2="207.6094"/><ellipse cx="1246.5" cy="221.9141" fill="#84BE84" rx="3" ry="3" style="stroke:#038048;stroke-width:1.0;"/><text fill="#000000" font-family="sans-serif" font-size="14" lengthAdjust="spacing" textLength="44" x="1255.5" y="226.1426">Logic()</text><ellipse cx="1246.5" cy="239.5234" fill="#84BE84" rx="3" ry="3" style="stroke:#038048;stroke-width:1.0;"/><text fill="#000000" font-family="sans-serif" font-size="14" lengthAdjust="spacing" textLength="215" x="1255.5" y="243.752">getController() : AceptorController</text></g><!--class StartController--><g id="elem_StartController"><rect codeLine="9" fill="#F1F1F1" height="48" id="StartController" rx="2.5" ry="2.5" style="stroke:#181818;stroke-width:0.5;" width="124" x="1109" y="311"/><ellipse cx="1124" cy="327" fill="#ADD1B2" rx="11" ry="11" style="stroke:#181818;stroke-width:1.0;"/><path d="M1126.7656,322.875 Q1126.9219,322.6563 1127.1094,322.5469 Q1127.2969,322.4375 1127.5156,322.4375 Q1127.8906,322.4375 1128.125,322.7031 Q1128.3594,322.9531 1128.3594,323.5625 L1128.3594,325.0156 Q1128.3594,325.625 1128.125,325.8906 Q1127.8906,326.1563 1127.5156,326.1563 Q1127.1719,326.1563 1126.9688,325.9531 Q1126.7656,325.7656 1126.6563,325.25 Q1126.6094,324.8906 1126.4219,324.7031 Q1126.0938,324.3281 1125.4844,324.1094 Q1124.875,323.8906 1124.25,323.8906 Q1123.4844,323.8906 1122.8438,324.2188 Q1122.2188,324.5469 1121.7188,325.2969 Q1121.2344,326.0469 1121.2344,327.0781 L1121.2344,328.1719 Q1121.2344,329.4063 1122.125,330.2344 Q1123.0156,331.0469 1124.6094,331.0469 Q1125.5469,331.0469 1126.2031,330.7969 Q1126.5938,330.6406 1127.0156,330.2031 Q1127.2813,329.9375 1127.4219,329.8594 Q1127.5781,329.7813 1127.7813,329.7813 Q1128.1094,329.7813 1128.3594,330.0469 Q1128.625,330.2969 1128.625,330.6406 Q1128.625,330.9844 1128.2813,331.3906 Q1127.7813,331.9688 1126.9844,332.2969 Q1125.9063,332.75 1124.6094,332.75 Q1123.0938,332.75 1121.8906,332.125 Q1120.9063,331.625 1120.2188,330.5625 Q1119.5313,329.4844 1119.5313,328.2031 L1119.5313,327.0469 Q1119.5313,325.7188 1120.1406,324.5781 Q1120.7656,323.4219 1121.8594,322.8125 Q1122.9531,322.1875 1124.1875,322.1875 Q1124.9219,322.1875 1125.5625,322.3594 Q1126.2188,322.5156 1126.7656,322.875 Z " fill="#000000"/><text fill="#000000" font-family="sans-serif" font-size="14" lengthAdjust="spacing" textLength="92" x="1138" y="332.7285">StartController</text><line style="stroke:#181818;stroke-width:0.5;" x1="1110" x2="1232" y1="343" y2="343"/><line style="stroke:#181818;stroke-width:0.5;" x1="1110" x2="1232" y1="351" y2="351"/></g><!--class PlayController--><g id="elem_PlayController"><rect codeLine="14" fill="#F1F1F1" height="48" id="PlayController" rx="2.5" ry="2.5" style="stroke:#181818;stroke-width:0.5;" width="121" x="1449.5" y="311"/><ellipse cx="1464.5" cy="327" fill="#ADD1B2" rx="11" ry="11" style="stroke:#181818;stroke-width:1.0;"/><path d="M1467.2656,322.875 Q1467.4219,322.6563 1467.6094,322.5469 Q1467.7969,322.4375 1468.0156,322.4375 Q1468.3906,322.4375 1468.625,322.7031 Q1468.8594,322.9531 1468.8594,323.5625 L1468.8594,325.0156 Q1468.8594,325.625 1468.625,325.8906 Q1468.3906,326.1563 1468.0156,326.1563 Q1467.6719,326.1563 1467.4688,325.9531 Q1467.2656,325.7656 1467.1563,325.25 Q1467.1094,324.8906 1466.9219,324.7031 Q1466.5938,324.3281 1465.9844,324.1094 Q1465.375,323.8906 1464.75,323.8906 Q1463.9844,323.8906 1463.3438,324.2188 Q1462.7188,324.5469 1462.2188,325.2969 Q1461.7344,326.0469 1461.7344,327.0781 L1461.7344,328.1719 Q1461.7344,329.4063 1462.625,330.2344 Q1463.5156,331.0469 1465.1094,331.0469 Q1466.0469,331.0469 1466.7031,330.7969 Q1467.0938,330.6406 1467.5156,330.2031 Q1467.7813,329.9375 1467.9219,329.8594 Q1468.0781,329.7813 1468.2813,329.7813 Q1468.6094,329.7813 1468.8594,330.0469 Q1469.125,330.2969 1469.125,330.6406 Q1469.125,330.9844 1468.7813,331.3906 Q1468.2813,331.9688 1467.4844,332.2969 Q1466.4063,332.75 1465.1094,332.75 Q1463.5938,332.75 1462.3906,332.125 Q1461.4063,331.625 1460.7188,330.5625 Q1460.0313,329.4844 1460.0313,328.2031 L1460.0313,327.0469 Q1460.0313,325.7188 1460.6406,324.5781 Q1461.2656,323.4219 1462.3594,322.8125 Q1463.4531,322.1875 1464.6875,322.1875 Q1465.4219,322.1875 1466.0625,322.3594 Q1466.7188,322.5156 1467.2656,322.875 Z " fill="#000000"/><text fill="#000000" font-family="sans-serif" font-size="14" lengthAdjust="spacing" textLength="89" x="1478.5" y="332.7285">PlayController</text><line style="stroke:#181818;stroke-width:0.5;" x1="1450.5" x2="1569.5" y1="343" y2="343"/><line style="stroke:#181818;stroke-width:0.5;" x1="1450.5" x2="1569.5" y1="351" y2="351"/></g><!--class ActionController--><g id="elem_ActionController"><rect codeLine="18" fill="#F1F1F1" height="48" id="ActionController" rx="2.5" ry="2.5" style="stroke:#181818;stroke-width:0.5;" width="133" x="1112.5" y="419"/><ellipse cx="1127.5" cy="435" fill="#ADD1B2" rx="11" ry="11" style="stroke:#181818;stroke-width:1.0;"/><path d="M1130.2656,430.875 Q1130.4219,430.6563 1130.6094,430.5469 Q1130.7969,430.4375 1131.0156,430.4375 Q1131.3906,430.4375 1131.625,430.7031 Q1131.8594,430.9531 1131.8594,431.5625 L1131.8594,433.0156 Q1131.8594,433.625 1131.625,433.8906 Q1131.3906,434.1563 1131.0156,434.1563 Q1130.6719,434.1563 1130.4688,433.9531 Q1130.2656,433.7656 1130.1563,433.25 Q1130.1094,432.8906 1129.9219,432.7031 Q1129.5938,432.3281 1128.9844,432.1094 Q1128.375,431.8906 1127.75,431.8906 Q1126.9844,431.8906 1126.3438,432.2188 Q1125.7188,432.5469 1125.2188,433.2969 Q1124.7344,434.0469 1124.7344,435.0781 L1124.7344,436.1719 Q1124.7344,437.4063 1125.625,438.2344 Q1126.5156,439.0469 1128.1094,439.0469 Q1129.0469,439.0469 1129.7031,438.7969 Q1130.0938,438.6406 1130.5156,438.2031 Q1130.7813,437.9375 1130.9219,437.8594 Q1131.0781,437.7813 1131.2813,437.7813 Q1131.6094,437.7813 1131.8594,438.0469 Q1132.125,438.2969 1132.125,438.6406 Q1132.125,438.9844 1131.7813,439.3906 Q1131.2813,439.9688 1130.4844,440.2969 Q1129.4063,440.75 1128.1094,440.75 Q1126.5938,440.75 1125.3906,440.125 Q1124.4063,439.625 1123.7188,438.5625 Q1123.0313,437.4844 1123.0313,436.2031 L1123.0313,435.0469 Q1123.0313,433.7188 1123.6406,432.5781 Q1124.2656,431.4219 1125.3594,430.8125 Q1126.4531,430.1875 1127.6875,430.1875 Q1128.4219,430.1875 1129.0625,430.3594 Q1129.7188,430.5156 1130.2656,430.875 Z " fill="#000000"/><text fill="#000000" font-family="sans-serif" font-size="14" lengthAdjust="spacing" textLength="101" x="1141.5" y="440.7285">ActionController</text><line style="stroke:#181818;stroke-width:0.5;" x1="1113.5" x2="1244.5" y1="451" y2="451"/><line style="stroke:#181818;stroke-width:0.5;" x1="1113.5" x2="1244.5" y1="459" y2="459"/></g><!--class UndoController--><g id="elem_UndoController"><rect codeLine="22" fill="#F1F1F1" height="48" id="UndoController" rx="2.5" ry="2.5" style="stroke:#181818;stroke-width:0.5;" width="127" x="1280.5" y="419"/><ellipse cx="1295.5" cy="435" fill="#ADD1B2" rx="11" ry="11" style="stroke:#181818;stroke-width:1.0;"/><path d="M1298.2656,430.875 Q1298.4219,430.6563 1298.6094,430.5469 Q1298.7969,430.4375 1299.0156,430.4375 Q1299.3906,430.4375 1299.625,430.7031 Q1299.8594,430.9531 1299.8594,431.5625 L1299.8594,433.0156 Q1299.8594,433.625 1299.625,433.8906 Q1299.3906,434.1563 1299.0156,434.1563 Q1298.6719,434.1563 1298.4688,433.9531 Q1298.2656,433.7656 1298.1563,433.25 Q1298.1094,432.8906 1297.9219,432.7031 Q1297.5938,432.3281 1296.9844,432.1094 Q1296.375,431.8906 1295.75,431.8906 Q1294.9844,431.8906 1294.3438,432.2188 Q1293.7188,432.5469 1293.2188,433.2969 Q1292.7344,434.0469 1292.7344,435.0781 L1292.7344,436.1719 Q1292.7344,437.4063 1293.625,438.2344 Q1294.5156,439.0469 1296.1094,439.0469 Q1297.0469,439.0469 1297.7031,438.7969 Q1298.0938,438.6406 1298.5156,438.2031 Q1298.7813,437.9375 1298.9219,437.8594 Q1299.0781,437.7813 1299.2813,437.7813 Q1299.6094,437.7813 1299.8594,438.0469 Q1300.125,438.2969 1300.125,438.6406 Q1300.125,438.9844 1299.7813,439.3906 Q1299.2813,439.9688 1298.4844,440.2969 Q1297.4063,440.75 1296.1094,440.75 Q1294.5938,440.75 1293.3906,440.125 Q1292.4063,439.625 1291.7188,438.5625 Q1291.0313,437.4844 1291.0313,436.2031 L1291.0313,435.0469 Q1291.0313,433.7188 1291.6406,432.5781 Q1292.2656,431.4219 1293.3594,430.8125 Q1294.4531,430.1875 1295.6875,430.1875 Q1296.4219,430.1875 1297.0625,430.3594 Q1297.7188,430.5156 1298.2656,430.875 Z " fill="#000000"/><text fill="#000000" font-family="sans-serif" font-size="14" lengthAdjust="spacing" textLength="95" x="1309.5" y="440.7285">UndoController</text><line style="stroke:#181818;stroke-width:0.5;" x1="1281.5" x2="1406.5" y1="451" y2="451"/><line style="stroke:#181818;stroke-width:0.5;" x1="1281.5" x2="1406.5" y1="459" y2="459"/></g><!--class RedoController--><g id="elem_RedoController"><rect codeLine="26" fill="#F1F1F1" height="48" id="RedoController" rx="2.5" ry="2.5" style="stroke:#181818;stroke-width:0.5;" width="128" x="1443" y="419"/><ellipse cx="1458" cy="435" fill="#ADD1B2" rx="11" ry="11" style="stroke:#181818;stroke-width:1.0;"/><path d="M1460.7656,430.875 Q1460.9219,430.6563 1461.1094,430.5469 Q1461.2969,430.4375 1461.5156,430.4375 Q1461.8906,430.4375 1462.125,430.7031 Q1462.3594,430.9531 1462.3594,431.5625 L1462.3594,433.0156 Q1462.3594,433.625 1462.125,433.8906 Q1461.8906,434.1563 1461.5156,434.1563 Q1461.1719,434.1563 1460.9688,433.9531 Q1460.7656,433.7656 1460.6563,433.25 Q1460.6094,432.8906 1460.4219,432.7031 Q1460.0938,432.3281 1459.4844,432.1094 Q1458.875,431.8906 1458.25,431.8906 Q1457.4844,431.8906 1456.8438,432.2188 Q1456.2188,432.5469 1455.7188,433.2969 Q1455.2344,434.0469 1455.2344,435.0781 L1455.2344,436.1719 Q1455.2344,437.4063 1456.125,438.2344 Q1457.0156,439.0469 1458.6094,439.0469 Q1459.5469,439.0469 1460.2031,438.7969 Q1460.5938,438.6406 1461.0156,438.2031 Q1461.2813,437.9375 1461.4219,437.8594 Q1461.5781,437.7813 1461.7813,437.7813 Q1462.1094,437.7813 1462.3594,438.0469 Q1462.625,438.2969 1462.625,438.6406 Q1462.625,438.9844 1462.2813,439.3906 Q1461.7813,439.9688 1460.9844,440.2969 Q1459.9063,440.75 1458.6094,440.75 Q1457.0938,440.75 1455.8906,440.125 Q1454.9063,439.625 1454.2188,438.5625 Q1453.5313,437.4844 1453.5313,436.2031 L1453.5313,435.0469 Q1453.5313,433.7188 1454.1406,432.5781 Q1454.7656,431.4219 1455.8594,430.8125 Q1456.9531,430.1875 1458.1875,430.1875 Q1458.9219,430.1875 1459.5625,430.3594 Q1460.2188,430.5156 1460.7656,430.875 Z " fill="#000000"/><text fill="#000000" font-family="sans-serif" font-size="14" lengthAdjust="spacing" textLength="96" x="1472" y="440.7285">RedoController</text><line style="stroke:#181818;stroke-width:0.5;" x1="1444" x2="1570" y1="451" y2="451"/><line style="stroke:#181818;stroke-width:0.5;" x1="1444" x2="1570" y1="459" y2="459"/></g><!--class ResumeController--><g id="elem_ResumeController"><rect codeLine="30" fill="#F1F1F1" height="48" id="ResumeController" rx="2.5" ry="2.5" style="stroke:#181818;stroke-width:0.5;" width="146" x="1268" y="311"/><ellipse cx="1283" cy="327" fill="#ADD1B2" rx="11" ry="11" style="stroke:#181818;stroke-width:1.0;"/><path d="M1285.7656,322.875 Q1285.9219,322.6563 1286.1094,322.5469 Q1286.2969,322.4375 1286.5156,322.4375 Q1286.8906,322.4375 1287.125,322.7031 Q1287.3594,322.9531 1287.3594,323.5625 L1287.3594,325.0156 Q1287.3594,325.625 1287.125,325.8906 Q1286.8906,326.1563 1286.5156,326.1563 Q1286.1719,326.1563 1285.9688,325.9531 Q1285.7656,325.7656 1285.6563,325.25 Q1285.6094,324.8906 1285.4219,324.7031 Q1285.0938,324.3281 1284.4844,324.1094 Q1283.875,323.8906 1283.25,323.8906 Q1282.4844,323.8906 1281.8438,324.2188 Q1281.2188,324.5469 1280.7188,325.2969 Q1280.2344,326.0469 1280.2344,327.0781 L1280.2344,328.1719 Q1280.2344,329.4063 1281.125,330.2344 Q1282.0156,331.0469 1283.6094,331.0469 Q1284.5469,331.0469 1285.2031,330.7969 Q1285.5938,330.6406 1286.0156,330.2031 Q1286.2813,329.9375 1286.4219,329.8594 Q1286.5781,329.7813 1286.7813,329.7813 Q1287.1094,329.7813 1287.3594,330.0469 Q1287.625,330.2969 1287.625,330.6406 Q1287.625,330.9844 1287.2813,331.3906 Q1286.7813,331.9688 1285.9844,332.2969 Q1284.9063,332.75 1283.6094,332.75 Q1282.0938,332.75 1280.8906,332.125 Q1279.9063,331.625 1279.2188,330.5625 Q1278.5313,329.4844 1278.5313,328.2031 L1278.5313,327.0469 Q1278.5313,325.7188 1279.1406,324.5781 Q1279.7656,323.4219 1280.8594,322.8125 Q1281.9531,322.1875 1283.1875,322.1875 Q1283.9219,322.1875 1284.5625,322.3594 Q1285.2188,322.5156 1285.7656,322.875 Z " fill="#000000"/><text fill="#000000" font-family="sans-serif" font-size="14" lengthAdjust="spacing" textLength="114" x="1297" y="332.7285">ResumeController</text><line style="stroke:#181818;stroke-width:0.5;" x1="1269" x2="1413" y1="343" y2="343"/><line style="stroke:#181818;stroke-width:0.5;" x1="1269" x2="1413" y1="351" y2="351"/></g><!--class Session--><g id="elem_Session"><rect codeLine="34" fill="#F1F1F1" height="48" id="Session" rx="2.5" ry="2.5" style="stroke:#181818;stroke-width:0.5;" width="131" x="1801.5" y="311"/><ellipse cx="1816.5" cy="327" fill="#ADD1B2" rx="11" ry="11" style="stroke:#181818;stroke-width:1.0;"/><path d="M1819.2656,322.875 Q1819.4219,322.6563 1819.6094,322.5469 Q1819.7969,322.4375 1820.0156,322.4375 Q1820.3906,322.4375 1820.625,322.7031 Q1820.8594,322.9531 1820.8594,323.5625 L1820.8594,325.0156 Q1820.8594,325.625 1820.625,325.8906 Q1820.3906,326.1563 1820.0156,326.1563 Q1819.6719,326.1563 1819.4688,325.9531 Q1819.2656,325.7656 1819.1563,325.25 Q1819.1094,324.8906 1818.9219,324.7031 Q1818.5938,324.3281 1817.9844,324.1094 Q1817.375,323.8906 1816.75,323.8906 Q1815.9844,323.8906 1815.3438,324.2188 Q1814.7188,324.5469 1814.2188,325.2969 Q1813.7344,326.0469 1813.7344,327.0781 L1813.7344,328.1719 Q1813.7344,329.4063 1814.625,330.2344 Q1815.5156,331.0469 1817.1094,331.0469 Q1818.0469,331.0469 1818.7031,330.7969 Q1819.0938,330.6406 1819.5156,330.2031 Q1819.7813,329.9375 1819.9219,329.8594 Q1820.0781,329.7813 1820.2813,329.7813 Q1820.6094,329.7813 1820.8594,330.0469 Q1821.125,330.2969 1821.125,330.6406 Q1821.125,330.9844 1820.7813,331.3906 Q1820.2813,331.9688 1819.4844,332.2969 Q1818.4063,332.75 1817.1094,332.75 Q1815.5938,332.75 1814.3906,332.125 Q1813.4063,331.625 1812.7188,330.5625 Q1812.0313,329.4844 1812.0313,328.2031 L1812.0313,327.0469 Q1812.0313,325.7188 1812.6406,324.5781 Q1813.2656,323.4219 1814.3594,322.8125 Q1815.4531,322.1875 1816.6875,322.1875 Q1817.4219,322.1875 1818.0625,322.3594 Q1818.7188,322.5156 1819.2656,322.875 Z " fill="#000000"/><text fill="#000000" font-family="sans-serif" font-size="14" lengthAdjust="spacing" textLength="99" x="1830.5" y="332.7285">models.Session</text><line style="stroke:#181818;stroke-width:0.5;" x1="1802.5" x2="1931.5" y1="343" y2="343"/><line style="stroke:#181818;stroke-width:0.5;" x1="1802.5" x2="1931.5" y1="351" y2="351"/></g><!--class StateValue--><g id="elem_StateValue"><rect codeLine="35" fill="#F1F1F1" height="48" id="StateValue" rx="2.5" ry="2.5" style="stroke:#181818;stroke-width:0.5;" width="139" x="1627.5" y="311"/><ellipse cx="1642.5" cy="327" fill="#ADD1B2" rx="11" ry="11" style="stroke:#181818;stroke-width:1.0;"/><path d="M1645.2656,322.875 Q1645.4219,322.6563 1645.6094,322.5469 Q1645.7969,322.4375 1646.0156,322.4375 Q1646.3906,322.4375 1646.625,322.7031 Q1646.8594,322.9531 1646.8594,323.5625 L1646.8594,325.0156 Q1646.8594,325.625 1646.625,325.8906 Q1646.3906,326.1563 1646.0156,326.1563 Q1645.6719,326.1563 1645.4688,325.9531 Q1645.2656,325.7656 1645.1563,325.25 Q1645.1094,324.8906 1644.9219,324.7031 Q1644.5938,324.3281 1643.9844,324.1094 Q1643.375,323.8906 1642.75,323.8906 Q1641.9844,323.8906 1641.3438,324.2188 Q1640.7188,324.5469 1640.2188,325.2969 Q1639.7344,326.0469 1639.7344,327.0781 L1639.7344,328.1719 Q1639.7344,329.4063 1640.625,330.2344 Q1641.5156,331.0469 1643.1094,331.0469 Q1644.0469,331.0469 1644.7031,330.7969 Q1645.0938,330.6406 1645.5156,330.2031 Q1645.7813,329.9375 1645.9219,329.8594 Q1646.0781,329.7813 1646.2813,329.7813 Q1646.6094,329.7813 1646.8594,330.0469 Q1647.125,330.2969 1647.125,330.6406 Q1647.125,330.9844 1646.7813,331.3906 Q1646.2813,331.9688 1645.4844,332.2969 Q1644.4063,332.75 1643.1094,332.75 Q1641.5938,332.75 1640.3906,332.125 Q1639.4063,331.625 1638.7188,330.5625 Q1638.0313,329.4844 1638.0313,328.2031 L1638.0313,327.0469 Q1638.0313,325.7188 1638.6406,324.5781 Q1639.2656,323.4219 1640.3594,322.8125 Q1641.4531,322.1875 1642.6875,322.1875 Q1643.4219,322.1875 1644.0625,322.3594 Q1644.7188,322.5156 1645.2656,322.875 Z " fill="#000000"/><text fill="#000000" font-family="sans-serif" font-size="14" lengthAdjust="spacing" textLength="107" x="1656.5" y="332.7285">types.StateValue</text><line style="stroke:#181818;stroke-width:0.5;" x1="1628.5" x2="1765.5" y1="343" y2="343"/><line style="stroke:#181818;stroke-width:0.5;" x1="1628.5" x2="1765.5" y1="351" y2="351"/></g><!--reverse link AcceptorController to StartController--><g id="link_AcceptorController_StartController"><path codeLine="38" d="M772.0339,230.482 C797.0739,239.272 809.25,243.11 836,251 C930.25,278.82 1041.22,305.06 1108.82,320.32 " fill="none" id="AcceptorController-backto-StartController" style="stroke:#181818;stroke-width:1.0;stroke-dasharray:7.0,7.0;"/><polygon fill="none" points="755.05,224.52,770.0466,236.1433,774.0213,224.8207,755.05,224.52" style="stroke:#181818;stroke-width:1.0;"/></g><!--reverse link AcceptorController to PlayController--><g id="link_AcceptorController_PlayController"><path codeLine="39" d="M766.1683,230.8278 C792.2283,240.4378 806.82,244.61 836,251 C1096.06,307.98 1170.74,259.8 1432,311 C1437.68,312.11 1443.54,313.46 1449.38,314.94 " fill="none" id="AcceptorController-backto-PlayController" style="stroke:#181818;stroke-width:1.0;stroke-dasharray:7.0,7.0;"/><polygon fill="none" points="749.28,224.6,764.0924,236.4572,768.2442,225.1984,749.28,224.6" style="stroke:#181818;stroke-width:1.0;"/></g><!--reverse link AcceptorController to ResumeController--><g id="link_AcceptorController_ResumeController"><path codeLine="40" d="M767.7295,230.6524 C793.5395,240.0224 807.48,244.1 836,251 C1017.14,294.82 1068.24,274.54 1251,311 C1256.54,312.1 1262.24,313.34 1267.96,314.64 " fill="none" id="AcceptorController-backto-ResumeController" style="stroke:#181818;stroke-width:1.0;stroke-dasharray:7.0,7.0;"/><polygon fill="none" points="750.81,224.51,765.6821,236.2923,769.777,225.0126,750.81,224.51" style="stroke:#181818;stroke-width:1.0;"/></g><!--reverse link coreLogic to Logic--><g id="link_coreLogic_Logic"><path codeLine="43" d="M1403,108.08 C1403,124.54 1403,129.3 1403,149.8 " fill="none" id="coreLogic-backto-Logic" style="stroke:#181818;stroke-width:1.0;"/><polygon fill="none" points="1403,90.08,1397,108.08,1409,108.08,1403,90.08" style="stroke:#181818;stroke-width:1.0;"/></g><!--link Logic to Session--><g id="link_Logic_Session"><path codeLine="44" d="M1582.0489,252.6346 C1662.0089,275.4646 1735.7505,296.5228 1795.6105,313.6128 " fill="none" id="Logic-Session" style="stroke:#181818;stroke-width:1.0;"/><polygon fill="#181818" points="1570.51,249.34,1575.1813,254.8336,1582.0489,252.6346,1577.3776,247.141,1570.51,249.34" style="stroke:#181818;stroke-width:1.0;"/><polygon fill="#181818" points="1801.38,315.26,1793.8239,308.9429,1796.5721,313.8873,1791.6277,316.6355,1801.38,315.26" style="stroke:#181818;stroke-width:1.0;"/></g><!--link Logic to StartController--><g id="link_Logic_StartController"><path codeLine="45" d="M1305.8586,256.9793 C1269.9486,277.4793 1245.6701,291.3543 1216.7801,307.8543 " fill="none" id="Logic-StartController" style="stroke:#181818;stroke-width:1.0;"/><polygon fill="#181818" points="1316.28,251.03,1309.0862,250.5308,1305.8586,256.9793,1313.0524,257.4785,1316.28,251.03" style="stroke:#181818;stroke-width:1.0;"/><polygon fill="#181818" points="1211.57,310.83,1221.369,309.8399,1215.9118,308.3503,1217.4014,302.8931,1211.57,310.83" style="stroke:#181818;stroke-width:1.0;"/></g><!--link Logic to PlayController--><g id="link_Logic_PlayController"><path codeLine="46" d="M1450.6887,260.5564 C1467.1687,280.9664 1474.1614,289.6112 1487.4314,306.0512 " fill="none" id="Logic-PlayController" style="stroke:#181818;stroke-width:1.0;"/><polygon fill="#181818" points="1443.15,251.22,1443.8072,258.4011,1450.6887,260.5564,1450.0315,253.3753,1443.15,251.22" style="stroke:#181818;stroke-width:1.0;"/><polygon fill="#181818" points="1491.2,310.72,1488.6597,301.2044,1488.0595,306.8293,1482.4346,306.2291,1491.2,310.72" style="stroke:#181818;stroke-width:1.0;"/></g><!--link Logic to ResumeController--><g id="link_Logic_ResumeController"><path codeLine="47" d="M1374.6499,262.087 C1365.0899,282.497 1362.1349,288.8465 1354.4349,305.2865 " fill="none" id="Logic-ResumeController" style="stroke:#181818;stroke-width:1.0;"/><polygon fill="#181818" points="1379.74,251.22,1373.5726,254.9568,1374.6499,262.087,1380.8173,258.3502,1379.74,251.22" style="stroke:#181818;stroke-width:1.0;"/><polygon fill="#181818" points="1351.89,310.72,1359.3297,304.2663,1354.0108,306.192,1352.085,300.8731,1351.89,310.72" style="stroke:#181818;stroke-width:1.0;"/></g><!--link Logic to StateValue--><g id="link_Logic_StateValue"><path codeLine="48" d="M1523.8312,255.9585 C1569.3412,276.4585 1603.5099,291.8646 1640.1199,308.3646 " fill="none" id="Logic-StateValue" style="stroke:#181818;stroke-width:1.0;"/><polygon fill="#181818" points="1512.89,251.03,1516.7178,257.1413,1523.8312,255.9585,1520.0034,249.8472,1512.89,251.03" style="stroke:#181818;stroke-width:1.0;"/><polygon fill="#181818" points="1645.59,310.83,1639.0284,303.4852,1641.0316,308.7755,1635.7413,310.7787,1645.59,310.83" style="stroke:#181818;stroke-width:1.0;"/></g><!--link PlayController to ActionController--><g id="link_PlayController_ActionController"><path codeLine="50" d="M1437.8618,359.1001 C1380.1918,377.5701 1310.824,399.7796 1251.294,418.8496 " fill="none" id="PlayController-ActionController" style="stroke:#181818;stroke-width:1.0;"/><polygon fill="#181818" points="1449.29,355.44,1442.3559,353.4607,1437.8618,359.1001,1444.7959,361.0795,1449.29,355.44" style="stroke:#181818;stroke-width:1.0;"/><polygon fill="#181818" points="1245.58,420.68,1255.3713,421.7437,1250.3416,419.1546,1252.9307,414.125,1245.58,420.68" style="stroke:#181818;stroke-width:1.0;"/></g><!--link PlayController to UndoController--><g id="link_PlayController_UndoController"><path codeLine="51" d="M1463.8661,365.4583 C1436.1161,383.1783 1413.0971,397.8811 1385.2971,415.6311 " fill="none" id="PlayController-UndoController" style="stroke:#181818;stroke-width:1.0;"/><polygon fill="#181818" points="1473.98,359,1466.7703,358.8579,1463.8661,365.4583,1471.0758,365.6004,1473.98,359" style="stroke:#181818;stroke-width:1.0;"/><polygon fill="#181818" points="1380.24,418.86,1389.9782,417.388,1384.4542,416.1692,1385.673,410.6453,1380.24,418.86" style="stroke:#181818;stroke-width:1.0;"/></g><!--link PlayController to RedoController--><g id="link_PlayController_RedoController"><path codeLine="52" d="M1509.0104,370.9952 C1508.5104,388.6552 1508.329,394.9424 1507.829,412.6824 " fill="none" id="PlayController-RedoController" style="stroke:#181818;stroke-width:1.0;"/><polygon fill="#181818" points="1509.35,359,1505.1818,364.8844,1509.0104,370.9952,1513.1786,365.1108,1509.35,359" style="stroke:#181818;stroke-width:1.0;"/><polygon fill="#181818" points="1507.66,418.68,1511.912,409.7963,1507.8009,413.682,1503.9152,409.5709,1507.66,418.68" style="stroke:#181818;stroke-width:1.0;"/></g><!--reverse link StartController to StartController--><g id="link_StartController_StartController"><path codeLine="58" d="M202.9304,231.364 C226.7204,241.094 238.99,244.78 266,251 C576.77,322.58 960.97,332.87 1108.92,334.03 " fill="none" id="StartController-backto-StartController" style="stroke:#181818;stroke-width:1.0;"/><polygon fill="none" points="186.27,224.55,200.6591,236.9175,205.2017,225.8106,186.27,224.55" style="stroke:#181818;stroke-width:1.0;"/></g><!--reverse link PlayController to PlayController--><g id="link_PlayController_PlayController"><path codeLine="59" d="M1034.4534,231.342 C1057.2434,240.612 1067.76,243.96 1093,251 C1240.38,292.12 1283.05,275.97 1432,311 C1437.63,312.33 1443.47,313.82 1449.28,315.38 " fill="none" id="PlayController-backto-PlayController" style="stroke:#181818;stroke-width:1.0;"/><polygon fill="none" points="1017.78,224.56,1032.1928,236.8999,1036.7141,225.7842,1017.78,224.56" style="stroke:#181818;stroke-width:1.0;"/></g><!--reverse link ResumeController to ResumeController--><g id="link_ResumeController_ResumeController"><path codeLine="60" d="M479.5829,230.9095 C505.3929,240.6395 519.89,244.79 549,251 C855.24,316.38 942.26,258.72 1251,311 C1256.41,311.92 1261.96,312.99 1267.54,314.17 " fill="none" id="ResumeController-backto-ResumeController" style="stroke:#181818;stroke-width:1.0;"/><polygon fill="none" points="462.74,224.56,477.4664,236.5238,481.6994,225.2952,462.74,224.56" style="stroke:#181818;stroke-width:1.0;"/></g><!--SRC=[ZPJVReCW5CRlUGhYLRjD7c0nJSnkksHPizqpUjAOe1YW5yswTn_5LkM8g3Sg_BxFym-5vCPGeHghbPIW3QlgLa8DZUMsKWtRgrCbw2-Xxif777sbxxmj3Ww3RoxFy49B0QrL-gs7TjJBdht7PjkzdC0En6RhV2OwyaS84KkHkK_haPMBSPtkG_BB8EjKYw9It6vZcSjbbVAhEQfGjqhs2LYsLcVEDSnzy036E8foGxDQ7K4QTb_A7aJVK0_PImk63OiP8Vp7MCs5fTDOIe5RwKt6Y50Q8bn68jhYoXX5RPxbmhREOhW-oNnkmNO789g6ttA5wwdYckVKFv9kuIdFTu-Y1qiegT4MocEqCmazDBntY93GeTl7ynk5mb6D8k5O9ek7psUqX0ZAKeOedgXVo2JjS3dZXfXo1o2Lf9-0zJyjaiXloGeDIZAr9Q_9QFq3]--></g></svg>